<svg fill="none" height="32" viewBox="0 0 32 32" width="32" xmlns="http://www.w3.org/2000/svg" xmlns:xlink="http://www.w3.org/1999/xlink"><clipPath id="a"><path d="m0 0h32v32h-32z"/></clipPath><g clip-path="url(#a)" fill="#5a5a5a"><path clip-rule="evenodd" d="m16.0004.666656c-3.7983.001971-7.47215 1.347274-10.36449 3.795364-2.89235 2.44809-4.814624 5.83928-5.423103 9.56728-.608478 3.728.13651 7.5496 2.101773 10.7816 1.96525 3.2319 5.02262 5.6634 8.62542 6.8597.7948.1475 1.0942-.3451 1.0942-.7639 0-.4189-.0159-1.6334-.0212-2.9611-4.45106.9616-5.3916-1.8783-5.3916-1.8783-.72595-1.8441-1.77514-2.3288-1.77514-2.3288-1.45189-.9852.10864-.9668.10864-.9668 1.60821.1133 2.45339 1.6412 2.45339 1.6412 1.4254 2.4315 3.74361 1.7282 4.65501 1.3172.1431-1.03.5591-1.7308 1.0174-2.1286-3.55551-.4004-7.29123-1.765-7.29123-7.8609-.02204-1.581.56797-3.1099 1.64796-4.2704-.16427-.4004-.71271-2.0179.15631-4.21497 0 0 1.34328-.42677 4.40076 1.63068 2.6225-.71309 5.3894-.71309 8.0119 0 3.0548-2.05745 4.3954-1.63068 4.3954-1.63068.8717 2.1918.3233 3.80927.159 4.21497 1.0834 1.1607 1.6746 2.6923 1.6506 4.2756 0 6.1091-3.7437 7.4553-7.3045 7.8478.5722.4953 1.0836 1.4621 1.0836 2.9479 0 2.1286-.0185 3.8409-.0185 4.3652 0 .4241.2887.9193 1.0995.7639 3.6032-1.1964 6.6608-3.6283 8.6261-6.8608 1.9652-3.2325 2.7098-7.0547 2.1006-10.7831-.6092-3.7283-2.5324-7.11957-5.4257-9.56724-2.8933-2.44766-6.568-3.792082-10.3668-3.792804z" fill-rule="evenodd"/><path d="m6.05933 23.5093c-.03444.0791-.16162.1028-.26494.0475-.10333-.0554-.18016-.1581-.14307-.2398.03709-.0816.16162-.1027.26495-.0474.10332.0553.1828.1607.14306.2397z"/><path d="m6.70847 24.2285c-.05487.0275-.11764.0352-.17757.0217-.05994-.0134-.11329-.0472-.15096-.0955-.10333-.1106-.12454-.2634-.04505-.3319.07948-.0685.22256-.0369.32589.0738.10333.1106.12717.2634.04769.3319z"/><path d="m7.33891 25.1426c-.09803.0685-.26495 0-.35768-.1369-.02564-.0246-.04603-.0541-.05996-.0867-.01394-.0326-.02112-.0676-.02112-.103s.00718-.0705.02112-.1031c.01393-.0326.03432-.062.05996-.0866.09803-.0658.26495 0 .35768.1344.09273.1343.09538.3135 0 .3819z"/><path d="m8.19474 26.0278c-.08743.0974-.26494.0711-.41066-.0606s-.18017-.3109-.09274-.4057.26494-.0685.41596.0606.18017.3108.08744.4057z"/><path d="m9.39482 26.5441c-.03974.1238-.21991.1792-.40007.1265s-.29939-.2002-.26495-.3267c.03445-.1264.21726-.1844.40007-.1264.18281.0579.29939.1975.26495.3266z"/><path d="m10.7038 26.6337c0 .1291-.1484.2397-.3391.2424-.1908.0026-.3471-.1028-.3471-.2319 0-.129.1483-.2397.3391-.2423.1908-.0027.3471.1001.3471.2318z"/><path d="m11.9226 26.4309c.0239.129-.1086.2634-.2994.295-.1907.0316-.3577-.0448-.3815-.1712-.0238-.1265.1139-.2635.2994-.2977.1854-.0343.3577.0448.3815.1739z"/></g></svg>