<svg width="410" height="36" viewBox="0 0 410 36" fill="none" xmlns="http://www.w3.org/2000/svg">
<path d="M65.848 22.908C66.024 22.908 66.18 22.976 66.316 23.112L67.588 24.492C66.884 25.364 66.016 26.032 64.984 26.496C63.96 26.96 62.728 27.192 61.288 27.192C60 27.192 58.84 26.972 57.808 26.532C56.784 26.092 55.908 25.48 55.18 24.696C54.452 23.912 53.892 22.976 53.5 21.888C53.116 20.8 52.924 19.612 52.924 18.324C52.924 17.02 53.132 15.828 53.548 14.748C53.964 13.66 54.548 12.724 55.3 11.94C56.06 11.156 56.964 10.548 58.012 10.116C59.06 9.676 60.22 9.456 61.492 9.456C62.756 9.456 63.876 9.664 64.852 10.08C65.836 10.496 66.672 11.04 67.36 11.712L66.28 13.212C66.216 13.308 66.132 13.392 66.028 13.464C65.932 13.536 65.796 13.572 65.62 13.572C65.5 13.572 65.376 13.54 65.248 13.476C65.12 13.404 64.98 13.32 64.828 13.224C64.676 13.12 64.5 13.008 64.3 12.888C64.1 12.768 63.868 12.66 63.604 12.564C63.34 12.46 63.032 12.376 62.68 12.312C62.336 12.24 61.936 12.204 61.48 12.204C60.704 12.204 59.992 12.344 59.344 12.624C58.704 12.896 58.152 13.296 57.688 13.824C57.224 14.344 56.864 14.984 56.608 15.744C56.352 16.496 56.224 17.356 56.224 18.324C56.224 19.3 56.36 20.168 56.632 20.928C56.912 21.688 57.288 22.328 57.76 22.848C58.232 23.368 58.788 23.768 59.428 24.048C60.068 24.32 60.756 24.456 61.492 24.456C61.932 24.456 62.328 24.432 62.68 24.384C63.04 24.336 63.368 24.26 63.664 24.156C63.968 24.052 64.252 23.92 64.516 23.76C64.788 23.592 65.056 23.388 65.32 23.148C65.4 23.076 65.484 23.02 65.572 22.98C65.66 22.932 65.752 22.908 65.848 22.908ZM74.5214 14.496C75.4334 14.496 76.2614 14.644 77.0054 14.94C77.7574 15.236 78.3974 15.656 78.9254 16.2C79.4614 16.744 79.8734 17.408 80.1614 18.192C80.4494 18.976 80.5934 19.852 80.5934 20.82C80.5934 21.796 80.4494 22.676 80.1614 23.46C79.8734 24.244 79.4614 24.912 78.9254 25.464C78.3974 26.016 77.7574 26.44 77.0054 26.736C76.2614 27.032 75.4334 27.18 74.5214 27.18C73.6014 27.18 72.7654 27.032 72.0134 26.736C71.2614 26.44 70.6174 26.016 70.0814 25.464C69.5534 24.912 69.1414 24.244 68.8454 23.46C68.5574 22.676 68.4134 21.796 68.4134 20.82C68.4134 19.852 68.5574 18.976 68.8454 18.192C69.1414 17.408 69.5534 16.744 70.0814 16.2C70.6174 15.656 71.2614 15.236 72.0134 14.94C72.7654 14.644 73.6014 14.496 74.5214 14.496ZM74.5214 24.9C75.5454 24.9 76.3014 24.556 76.7894 23.868C77.2854 23.18 77.5334 22.172 77.5334 20.844C77.5334 19.516 77.2854 18.504 76.7894 17.808C76.3014 17.112 75.5454 16.764 74.5214 16.764C73.4814 16.764 72.7094 17.116 72.2054 17.82C71.7094 18.516 71.4614 19.524 71.4614 20.844C71.4614 22.164 71.7094 23.172 72.2054 23.868C72.7094 24.556 73.4814 24.9 74.5214 24.9ZM85.6266 16.2C85.8746 15.952 86.1346 15.724 86.4066 15.516C86.6866 15.3 86.9786 15.12 87.2826 14.976C87.5946 14.824 87.9266 14.708 88.2786 14.628C88.6306 14.54 89.0146 14.496 89.4306 14.496C90.1026 14.496 90.6986 14.612 91.2186 14.844C91.7386 15.068 92.1706 15.388 92.5146 15.804C92.8666 16.212 93.1306 16.704 93.3066 17.28C93.4906 17.848 93.5826 18.476 93.5826 19.164V27H90.6186V19.164C90.6186 18.412 90.4466 17.832 90.1026 17.424C89.7586 17.008 89.2346 16.8 88.5306 16.8C88.0186 16.8 87.5386 16.916 87.0906 17.148C86.6426 17.38 86.2186 17.696 85.8186 18.096V27H82.8546V14.688H84.6666C85.0506 14.688 85.3026 14.868 85.4226 15.228L85.6266 16.2ZM104.13 17.832C103.794 17.424 103.426 17.136 103.026 16.968C102.634 16.8 102.21 16.716 101.754 16.716C101.306 16.716 100.902 16.8 100.542 16.968C100.182 17.136 99.8735 17.392 99.6175 17.736C99.3615 18.072 99.1655 18.504 99.0295 19.032C98.8935 19.552 98.8255 20.168 98.8255 20.88C98.8255 21.6 98.8815 22.212 98.9935 22.716C99.1135 23.212 99.2815 23.62 99.4975 23.94C99.7135 24.252 99.9775 24.48 100.29 24.624C100.602 24.76 100.95 24.828 101.334 24.828C101.95 24.828 102.474 24.7 102.906 24.444C103.338 24.188 103.746 23.824 104.13 23.352V17.832ZM107.094 9.168V27H105.282C104.89 27 104.642 26.82 104.538 26.46L104.286 25.272C103.79 25.84 103.218 26.3 102.57 26.652C101.93 27.004 101.182 27.18 100.326 27.18C99.6535 27.18 99.0375 27.04 98.4775 26.76C97.9175 26.48 97.4335 26.076 97.0255 25.548C96.6255 25.012 96.3135 24.352 96.0895 23.568C95.8735 22.784 95.7655 21.888 95.7655 20.88C95.7655 19.968 95.8895 19.12 96.1375 18.336C96.3855 17.552 96.7415 16.872 97.2055 16.296C97.6695 15.72 98.2255 15.272 98.8735 14.952C99.5215 14.624 100.25 14.46 101.058 14.46C101.746 14.46 102.334 14.568 102.822 14.784C103.31 15 103.746 15.292 104.13 15.66V9.168H107.094ZM117.951 19.428C117.951 19.044 117.895 18.684 117.783 18.348C117.679 18.004 117.519 17.704 117.303 17.448C117.087 17.192 116.811 16.992 116.475 16.848C116.147 16.696 115.763 16.62 115.323 16.62C114.467 16.62 113.791 16.864 113.295 17.352C112.807 17.84 112.495 18.532 112.359 19.428H117.951ZM112.299 21.216C112.347 21.848 112.459 22.396 112.635 22.86C112.811 23.316 113.043 23.696 113.331 24C113.619 24.296 113.959 24.52 114.351 24.672C114.751 24.816 115.191 24.888 115.671 24.888C116.151 24.888 116.563 24.832 116.907 24.72C117.259 24.608 117.563 24.484 117.819 24.348C118.083 24.212 118.311 24.088 118.503 23.976C118.703 23.864 118.895 23.808 119.079 23.808C119.327 23.808 119.511 23.9 119.631 24.084L120.483 25.164C120.155 25.548 119.787 25.872 119.379 26.136C118.971 26.392 118.543 26.6 118.095 26.76C117.655 26.912 117.203 27.02 116.739 27.084C116.283 27.148 115.839 27.18 115.407 27.18C114.551 27.18 113.755 27.04 113.019 26.76C112.283 26.472 111.643 26.052 111.099 25.5C110.555 24.94 110.127 24.252 109.815 23.436C109.503 22.612 109.347 21.66 109.347 20.58C109.347 19.74 109.483 18.952 109.755 18.216C110.027 17.472 110.415 16.828 110.919 16.284C111.431 15.732 112.051 15.296 112.779 14.976C113.515 14.656 114.343 14.496 115.263 14.496C116.039 14.496 116.755 14.62 117.411 14.868C118.067 15.116 118.631 15.48 119.103 15.96C119.575 16.432 119.943 17.016 120.207 17.712C120.479 18.4 120.615 19.188 120.615 20.076C120.615 20.524 120.567 20.828 120.471 20.988C120.375 21.14 120.191 21.216 119.919 21.216H112.299ZM125.611 16.2C125.859 15.952 126.119 15.724 126.391 15.516C126.671 15.3 126.963 15.12 127.267 14.976C127.579 14.824 127.911 14.708 128.263 14.628C128.615 14.54 128.999 14.496 129.415 14.496C130.087 14.496 130.683 14.612 131.203 14.844C131.723 15.068 132.155 15.388 132.499 15.804C132.851 16.212 133.115 16.704 133.291 17.28C133.475 17.848 133.567 18.476 133.567 19.164V27H130.603V19.164C130.603 18.412 130.431 17.832 130.087 17.424C129.743 17.008 129.219 16.8 128.515 16.8C128.003 16.8 127.523 16.916 127.075 17.148C126.627 17.38 126.203 17.696 125.803 18.096V27H122.839V14.688H124.651C125.035 14.688 125.287 14.868 125.407 15.228L125.611 16.2ZM143.898 17.088C143.818 17.216 143.734 17.308 143.646 17.364C143.558 17.412 143.446 17.436 143.31 17.436C143.166 17.436 143.01 17.396 142.842 17.316C142.682 17.236 142.494 17.148 142.278 17.052C142.062 16.948 141.814 16.856 141.534 16.776C141.262 16.696 140.938 16.656 140.562 16.656C139.978 16.656 139.518 16.78 139.182 17.028C138.854 17.276 138.69 17.6 138.69 18C138.69 18.264 138.774 18.488 138.942 18.672C139.118 18.848 139.346 19.004 139.626 19.14C139.914 19.276 140.238 19.4 140.598 19.512C140.958 19.616 141.322 19.732 141.69 19.86C142.066 19.988 142.434 20.136 142.794 20.304C143.154 20.464 143.474 20.672 143.754 20.928C144.042 21.176 144.27 21.476 144.438 21.828C144.614 22.18 144.702 22.604 144.702 23.1C144.702 23.692 144.594 24.24 144.378 24.744C144.17 25.24 143.858 25.672 143.442 26.04C143.026 26.4 142.51 26.684 141.894 26.892C141.286 27.092 140.582 27.192 139.782 27.192C139.358 27.192 138.942 27.152 138.534 27.072C138.134 27 137.746 26.896 137.37 26.76C137.002 26.624 136.658 26.464 136.338 26.28C136.026 26.096 135.75 25.896 135.51 25.68L136.194 24.552C136.282 24.416 136.386 24.312 136.506 24.24C136.626 24.168 136.778 24.132 136.962 24.132C137.146 24.132 137.318 24.184 137.478 24.288C137.646 24.392 137.838 24.504 138.054 24.624C138.27 24.744 138.522 24.856 138.81 24.96C139.106 25.064 139.478 25.116 139.926 25.116C140.278 25.116 140.578 25.076 140.826 24.996C141.082 24.908 141.29 24.796 141.45 24.66C141.618 24.524 141.738 24.368 141.81 24.192C141.89 24.008 141.93 23.82 141.93 23.628C141.93 23.34 141.842 23.104 141.666 22.92C141.498 22.736 141.27 22.576 140.982 22.44C140.702 22.304 140.378 22.184 140.01 22.08C139.65 21.968 139.278 21.848 138.894 21.72C138.518 21.592 138.146 21.444 137.778 21.276C137.418 21.1 137.094 20.88 136.806 20.616C136.526 20.352 136.298 20.028 136.122 19.644C135.954 19.26 135.87 18.796 135.87 18.252C135.87 17.748 135.97 17.268 136.17 16.812C136.37 16.356 136.662 15.96 137.046 15.624C137.438 15.28 137.922 15.008 138.498 14.808C139.082 14.6 139.754 14.496 140.514 14.496C141.362 14.496 142.134 14.636 142.83 14.916C143.526 15.196 144.106 15.564 144.57 16.02L143.898 17.088ZM153.437 21.744C152.581 21.784 151.861 21.86 151.277 21.972C150.693 22.076 150.225 22.212 149.873 22.38C149.521 22.548 149.269 22.744 149.117 22.968C148.965 23.192 148.889 23.436 148.889 23.7C148.889 24.22 149.041 24.592 149.345 24.816C149.657 25.04 150.061 25.152 150.557 25.152C151.165 25.152 151.689 25.044 152.129 24.828C152.577 24.604 153.013 24.268 153.437 23.82V21.744ZM146.645 16.404C148.061 15.108 149.765 14.46 151.757 14.46C152.477 14.46 153.121 14.58 153.689 14.82C154.257 15.052 154.737 15.38 155.129 15.804C155.521 16.22 155.817 16.72 156.017 17.304C156.225 17.888 156.329 18.528 156.329 19.224V27H154.985C154.705 27 154.489 26.96 154.337 26.88C154.185 26.792 154.065 26.62 153.977 26.364L153.713 25.476C153.401 25.756 153.097 26.004 152.801 26.22C152.505 26.428 152.197 26.604 151.877 26.748C151.557 26.892 151.213 27 150.845 27.072C150.485 27.152 150.085 27.192 149.645 27.192C149.125 27.192 148.645 27.124 148.205 26.988C147.765 26.844 147.385 26.632 147.065 26.352C146.745 26.072 146.497 25.724 146.321 25.308C146.145 24.892 146.057 24.408 146.057 23.856C146.057 23.544 146.109 23.236 146.213 22.932C146.317 22.62 146.485 22.324 146.717 22.044C146.957 21.764 147.265 21.5 147.641 21.252C148.017 21.004 148.477 20.788 149.021 20.604C149.573 20.42 150.213 20.272 150.941 20.16C151.669 20.04 152.501 19.968 153.437 19.944V19.224C153.437 18.4 153.261 17.792 152.909 17.4C152.557 17 152.049 16.8 151.385 16.8C150.905 16.8 150.505 16.856 150.185 16.968C149.873 17.08 149.597 17.208 149.357 17.352C149.117 17.488 148.897 17.612 148.697 17.724C148.505 17.836 148.289 17.892 148.049 17.892C147.841 17.892 147.665 17.84 147.521 17.736C147.377 17.624 147.261 17.496 147.173 17.352L146.645 16.404ZM171.376 27H168.412V16.908H162.7V23.58C162.7 23.964 162.792 24.264 162.976 24.48C163.168 24.696 163.428 24.804 163.756 24.804C163.94 24.804 164.092 24.784 164.212 24.744C164.34 24.696 164.448 24.648 164.536 24.6C164.632 24.552 164.716 24.508 164.788 24.468C164.86 24.42 164.932 24.396 165.004 24.396C165.092 24.396 165.164 24.42 165.22 24.468C165.276 24.508 165.336 24.572 165.4 24.66L166.288 26.1C165.856 26.46 165.36 26.732 164.8 26.916C164.24 27.1 163.66 27.192 163.06 27.192C161.988 27.192 161.164 26.892 160.588 26.292C160.02 25.684 159.736 24.848 159.736 23.784V16.908H158.476C158.316 16.908 158.18 16.856 158.068 16.752C157.956 16.648 157.9 16.492 157.9 16.284V15.108L159.88 14.772L160.504 11.424C160.544 11.264 160.62 11.14 160.732 11.052C160.844 10.964 160.988 10.92 161.164 10.92H162.7V14.796H171.376V27ZM171.892 11.052C171.892 11.308 171.84 11.552 171.736 11.784C171.632 12.008 171.492 12.204 171.316 12.372C171.148 12.54 170.944 12.676 170.704 12.78C170.472 12.876 170.224 12.924 169.96 12.924C169.704 12.924 169.464 12.876 169.24 12.78C169.016 12.676 168.82 12.54 168.652 12.372C168.484 12.204 168.348 12.008 168.244 11.784C168.148 11.552 168.1 11.308 168.1 11.052C168.1 10.788 168.148 10.544 168.244 10.32C168.348 10.088 168.484 9.888 168.652 9.72C168.82 9.544 169.016 9.408 169.24 9.312C169.464 9.208 169.704 9.156 169.96 9.156C170.224 9.156 170.472 9.208 170.704 9.312C170.944 9.408 171.148 9.544 171.316 9.72C171.492 9.888 171.632 10.088 171.736 10.32C171.84 10.544 171.892 10.788 171.892 11.052ZM179.85 14.496C180.762 14.496 181.59 14.644 182.334 14.94C183.086 15.236 183.726 15.656 184.254 16.2C184.789 16.744 185.201 17.408 185.49 18.192C185.778 18.976 185.922 19.852 185.922 20.82C185.922 21.796 185.778 22.676 185.49 23.46C185.201 24.244 184.789 24.912 184.254 25.464C183.726 26.016 183.086 26.44 182.334 26.736C181.59 27.032 180.762 27.18 179.85 27.18C178.93 27.18 178.094 27.032 177.342 26.736C176.59 26.44 175.946 26.016 175.41 25.464C174.882 24.912 174.47 24.244 174.174 23.46C173.886 22.676 173.742 21.796 173.742 20.82C173.742 19.852 173.886 18.976 174.174 18.192C174.47 17.408 174.882 16.744 175.41 16.2C175.946 15.656 176.59 15.236 177.342 14.94C178.094 14.644 178.93 14.496 179.85 14.496ZM179.85 24.9C180.874 24.9 181.63 24.556 182.118 23.868C182.614 23.18 182.862 22.172 182.862 20.844C182.862 19.516 182.614 18.504 182.118 17.808C181.63 17.112 180.874 16.764 179.85 16.764C178.81 16.764 178.038 17.116 177.534 17.82C177.038 18.516 176.79 19.524 176.79 20.844C176.79 22.164 177.038 23.172 177.534 23.868C178.038 24.556 178.81 24.9 179.85 24.9ZM190.955 16.2C191.203 15.952 191.463 15.724 191.735 15.516C192.015 15.3 192.307 15.12 192.611 14.976C192.923 14.824 193.255 14.708 193.607 14.628C193.959 14.54 194.343 14.496 194.759 14.496C195.431 14.496 196.027 14.612 196.547 14.844C197.067 15.068 197.499 15.388 197.843 15.804C198.195 16.212 198.459 16.704 198.635 17.28C198.819 17.848 198.911 18.476 198.911 19.164V27H195.947V19.164C195.947 18.412 195.775 17.832 195.431 17.424C195.087 17.008 194.563 16.8 193.859 16.8C193.347 16.8 192.867 16.916 192.419 17.148C191.971 17.38 191.547 17.696 191.147 18.096V27H188.183V14.688H189.995C190.379 14.688 190.631 14.868 190.751 15.228L190.955 16.2ZM223.496 18.384C223.496 19.672 223.288 20.844 222.872 21.9C222.464 22.956 221.884 23.864 221.132 24.624C220.38 25.376 219.48 25.96 218.432 26.376C217.384 26.792 216.22 27 214.94 27H208.46V9.768H214.94C216.22 9.768 217.384 9.976 218.432 10.392C219.48 10.808 220.38 11.396 221.132 12.156C221.884 12.908 222.464 13.816 222.872 14.88C223.288 15.936 223.496 17.104 223.496 18.384ZM220.88 18.384C220.88 17.36 220.74 16.444 220.46 15.636C220.18 14.82 219.78 14.132 219.26 13.572C218.748 13.004 218.124 12.572 217.388 12.276C216.66 11.98 215.844 11.832 214.94 11.832H211.028V24.936H214.94C215.844 24.936 216.66 24.788 217.388 24.492C218.124 24.196 218.748 23.768 219.26 23.208C219.78 22.64 220.18 21.952 220.46 21.144C220.74 20.336 220.88 19.416 220.88 18.384ZM232.485 21.588C231.533 21.62 230.725 21.696 230.061 21.816C229.397 21.928 228.857 22.08 228.441 22.272C228.025 22.464 227.725 22.692 227.541 22.956C227.357 23.212 227.265 23.5 227.265 23.82C227.265 24.124 227.313 24.388 227.409 24.612C227.513 24.828 227.649 25.008 227.817 25.152C227.993 25.288 228.197 25.388 228.429 25.452C228.661 25.516 228.913 25.548 229.185 25.548C229.545 25.548 229.873 25.512 230.169 25.44C230.473 25.368 230.757 25.268 231.021 25.14C231.285 25.004 231.537 24.84 231.777 24.648C232.017 24.456 232.253 24.236 232.485 23.988V21.588ZM225.621 16.512C226.301 15.864 227.037 15.38 227.829 15.06C228.629 14.74 229.505 14.58 230.457 14.58C231.153 14.58 231.769 14.696 232.305 14.928C232.841 15.152 233.293 15.468 233.661 15.876C234.029 16.284 234.305 16.772 234.489 17.34C234.681 17.908 234.777 18.536 234.777 19.224V27H233.733C233.501 27 233.325 26.964 233.205 26.892C233.085 26.812 232.989 26.668 232.917 26.46L232.665 25.392C232.353 25.68 232.045 25.936 231.741 26.16C231.437 26.376 231.117 26.564 230.781 26.724C230.453 26.876 230.101 26.992 229.725 27.072C229.349 27.152 228.933 27.192 228.477 27.192C227.997 27.192 227.545 27.128 227.121 27C226.705 26.864 226.341 26.66 226.029 26.388C225.717 26.116 225.469 25.776 225.285 25.368C225.109 24.96 225.021 24.484 225.021 23.94C225.021 23.46 225.149 23 225.405 22.56C225.669 22.112 226.093 21.712 226.677 21.36C227.269 21.008 228.037 20.72 228.981 20.496C229.933 20.272 231.101 20.144 232.485 20.112V19.224C232.485 18.304 232.289 17.616 231.897 17.16C231.505 16.704 230.929 16.476 230.169 16.476C229.657 16.476 229.225 16.54 228.873 16.668C228.529 16.796 228.229 16.94 227.973 17.1C227.725 17.252 227.505 17.392 227.313 17.52C227.129 17.648 226.937 17.712 226.737 17.712C226.577 17.712 226.437 17.668 226.317 17.58C226.205 17.492 226.113 17.388 226.041 17.268L225.621 16.512ZM241.562 27.192C240.578 27.192 239.818 26.916 239.282 26.364C238.754 25.812 238.49 25.024 238.49 24V16.704H237.074C236.938 16.704 236.822 16.664 236.726 16.584C236.638 16.496 236.594 16.368 236.594 16.2V15.252L238.574 14.976L239.102 11.34C239.134 11.204 239.194 11.1 239.282 11.028C239.378 10.948 239.498 10.908 239.642 10.908H240.83V15H244.286V16.704H240.83V23.844C240.83 24.324 240.946 24.684 241.178 24.924C241.418 25.156 241.722 25.272 242.09 25.272C242.306 25.272 242.49 25.244 242.642 25.188C242.802 25.132 242.938 25.072 243.05 25.008C243.162 24.936 243.258 24.872 243.338 24.816C243.418 24.76 243.49 24.732 243.554 24.732C243.634 24.732 243.694 24.752 243.734 24.792C243.782 24.824 243.83 24.88 243.878 24.96L244.574 26.088C244.19 26.44 243.734 26.712 243.206 26.904C242.678 27.096 242.13 27.192 241.562 27.192ZM252.993 21.588C252.041 21.62 251.233 21.696 250.569 21.816C249.905 21.928 249.365 22.08 248.949 22.272C248.533 22.464 248.233 22.692 248.049 22.956C247.865 23.212 247.773 23.5 247.773 23.82C247.773 24.124 247.821 24.388 247.917 24.612C248.021 24.828 248.157 25.008 248.325 25.152C248.501 25.288 248.705 25.388 248.937 25.452C249.169 25.516 249.421 25.548 249.693 25.548C250.053 25.548 250.381 25.512 250.677 25.44C250.981 25.368 251.265 25.268 251.529 25.14C251.793 25.004 252.045 24.84 252.285 24.648C252.525 24.456 252.761 24.236 252.993 23.988V21.588ZM246.129 16.512C246.809 15.864 247.545 15.38 248.337 15.06C249.137 14.74 250.013 14.58 250.965 14.58C251.661 14.58 252.277 14.696 252.813 14.928C253.349 15.152 253.801 15.468 254.169 15.876C254.537 16.284 254.813 16.772 254.997 17.34C255.189 17.908 255.285 18.536 255.285 19.224V27H254.241C254.009 27 253.833 26.964 253.713 26.892C253.593 26.812 253.497 26.668 253.425 26.46L253.173 25.392C252.861 25.68 252.553 25.936 252.249 26.16C251.945 26.376 251.625 26.564 251.289 26.724C250.961 26.876 250.609 26.992 250.233 27.072C249.857 27.152 249.441 27.192 248.985 27.192C248.505 27.192 248.053 27.128 247.629 27C247.213 26.864 246.849 26.66 246.537 26.388C246.225 26.116 245.977 25.776 245.793 25.368C245.617 24.96 245.529 24.484 245.529 23.94C245.529 23.46 245.657 23 245.913 22.56C246.177 22.112 246.601 21.712 247.185 21.36C247.777 21.008 248.545 20.72 249.489 20.496C250.441 20.272 251.609 20.144 252.993 20.112V19.224C252.993 18.304 252.797 17.616 252.405 17.16C252.013 16.704 251.437 16.476 250.677 16.476C250.165 16.476 249.733 16.54 249.381 16.668C249.037 16.796 248.737 16.94 248.481 17.1C248.233 17.252 248.013 17.392 247.821 17.52C247.637 17.648 247.445 17.712 247.245 17.712C247.085 17.712 246.945 17.668 246.825 17.58C246.713 17.492 246.621 17.388 246.549 17.268L246.129 16.512ZM273.884 12.576C273.804 12.712 273.72 12.812 273.632 12.876C273.544 12.94 273.432 12.972 273.296 12.972C273.152 12.972 272.988 12.908 272.804 12.78C272.62 12.644 272.388 12.496 272.108 12.336C271.836 12.168 271.508 12.02 271.124 11.892C270.74 11.756 270.28 11.688 269.744 11.688C269.24 11.688 268.796 11.756 268.412 11.892C268.036 12.02 267.72 12.2 267.464 12.432C267.208 12.656 267.012 12.924 266.876 13.236C266.748 13.54 266.684 13.872 266.684 14.232C266.684 14.696 266.8 15.08 267.032 15.384C267.272 15.688 267.584 15.948 267.968 16.164C268.352 16.38 268.788 16.568 269.276 16.728C269.764 16.888 270.264 17.056 270.776 17.232C271.288 17.4 271.788 17.596 272.276 17.82C272.764 18.044 273.2 18.328 273.584 18.672C273.968 19.008 274.276 19.424 274.508 19.92C274.748 20.408 274.868 21.008 274.868 21.72C274.868 22.48 274.736 23.192 274.472 23.856C274.216 24.52 273.84 25.1 273.344 25.596C272.848 26.092 272.236 26.484 271.508 26.772C270.788 27.052 269.968 27.192 269.048 27.192C268.496 27.192 267.96 27.136 267.44 27.024C266.92 26.92 266.428 26.772 265.964 26.58C265.5 26.38 265.064 26.144 264.656 25.872C264.256 25.592 263.896 25.28 263.576 24.936L264.308 23.712C264.38 23.616 264.464 23.536 264.56 23.472C264.664 23.408 264.78 23.376 264.908 23.376C265.076 23.376 265.268 23.464 265.484 23.64C265.708 23.816 265.98 24.012 266.3 24.228C266.628 24.436 267.016 24.628 267.464 24.804C267.92 24.98 268.472 25.068 269.12 25.068C269.648 25.068 270.12 25 270.536 24.864C270.952 24.72 271.3 24.52 271.58 24.264C271.868 24 272.088 23.684 272.24 23.316C272.392 22.948 272.468 22.54 272.468 22.092C272.468 21.588 272.352 21.176 272.12 20.856C271.888 20.536 271.58 20.268 271.196 20.052C270.812 19.836 270.376 19.652 269.888 19.5C269.4 19.348 268.9 19.192 268.388 19.032C267.876 18.864 267.376 18.672 266.888 18.456C266.4 18.24 265.964 17.96 265.58 17.616C265.196 17.264 264.888 16.828 264.656 16.308C264.424 15.78 264.308 15.132 264.308 14.364C264.308 13.748 264.428 13.152 264.668 12.576C264.908 12 265.256 11.492 265.712 11.052C266.176 10.604 266.744 10.248 267.416 9.984C268.088 9.712 268.856 9.576 269.72 9.576C270.688 9.576 271.576 9.732 272.384 10.044C273.2 10.348 273.908 10.788 274.508 11.364L273.884 12.576ZM287.566 14.808L280.798 30.54C280.726 30.716 280.63 30.852 280.51 30.948C280.39 31.044 280.214 31.092 279.982 31.092H278.242L280.474 26.232L275.47 14.808H277.51C277.71 14.808 277.866 14.856 277.978 14.952C278.09 15.048 278.17 15.156 278.218 15.276L281.314 22.596C281.378 22.78 281.438 22.968 281.494 23.16C281.558 23.344 281.61 23.528 281.65 23.712C281.706 23.52 281.766 23.332 281.83 23.148C281.894 22.956 281.962 22.768 282.034 22.584L285.022 15.276C285.078 15.14 285.166 15.028 285.286 14.94C285.406 14.852 285.542 14.808 285.694 14.808H287.566ZM296.332 16.908C296.268 17.012 296.2 17.088 296.128 17.136C296.056 17.176 295.964 17.196 295.852 17.196C295.724 17.196 295.58 17.152 295.42 17.064C295.268 16.976 295.08 16.88 294.856 16.776C294.64 16.672 294.384 16.576 294.088 16.488C293.792 16.4 293.44 16.356 293.032 16.356C292.696 16.356 292.388 16.4 292.108 16.488C291.836 16.568 291.604 16.684 291.412 16.836C291.22 16.98 291.072 17.156 290.968 17.364C290.864 17.564 290.812 17.78 290.812 18.012C290.812 18.316 290.9 18.568 291.076 18.768C291.26 18.968 291.496 19.14 291.784 19.284C292.08 19.428 292.412 19.56 292.78 19.68C293.156 19.792 293.536 19.912 293.92 20.04C294.312 20.168 294.692 20.316 295.06 20.484C295.436 20.644 295.768 20.848 296.056 21.096C296.352 21.336 296.588 21.628 296.764 21.972C296.948 22.316 297.04 22.736 297.04 23.232C297.04 23.8 296.936 24.328 296.728 24.816C296.528 25.296 296.228 25.712 295.828 26.064C295.436 26.416 294.948 26.692 294.364 26.892C293.78 27.092 293.112 27.192 292.36 27.192C291.52 27.192 290.744 27.052 290.032 26.772C289.32 26.492 288.724 26.136 288.244 25.704L288.796 24.804C288.86 24.692 288.94 24.608 289.036 24.552C289.132 24.488 289.26 24.456 289.42 24.456C289.572 24.456 289.728 24.512 289.888 24.624C290.048 24.736 290.24 24.86 290.464 24.996C290.688 25.124 290.96 25.244 291.28 25.356C291.6 25.46 292 25.512 292.48 25.512C292.88 25.512 293.228 25.464 293.524 25.368C293.82 25.264 294.064 25.128 294.256 24.96C294.456 24.784 294.604 24.584 294.7 24.36C294.796 24.136 294.844 23.9 294.844 23.652C294.844 23.332 294.752 23.068 294.568 22.86C294.392 22.644 294.156 22.46 293.86 22.308C293.572 22.156 293.24 22.024 292.864 21.912C292.488 21.8 292.104 21.68 291.712 21.552C291.32 21.424 290.936 21.276 290.56 21.108C290.184 20.94 289.848 20.728 289.552 20.472C289.264 20.216 289.028 19.904 288.844 19.536C288.668 19.168 288.58 18.72 288.58 18.192C288.58 17.72 288.676 17.268 288.868 16.836C289.068 16.404 289.352 16.024 289.72 15.696C290.096 15.368 290.556 15.108 291.1 14.916C291.652 14.716 292.28 14.616 292.984 14.616C293.792 14.616 294.52 14.744 295.168 15C295.824 15.256 296.384 15.608 296.848 16.056L296.332 16.908ZM303.39 27.192C302.406 27.192 301.646 26.916 301.11 26.364C300.582 25.812 300.318 25.024 300.318 24V16.704H298.902C298.766 16.704 298.65 16.664 298.554 16.584C298.466 16.496 298.422 16.368 298.422 16.2V15.252L300.402 14.976L300.93 11.34C300.962 11.204 301.022 11.1 301.11 11.028C301.206 10.948 301.326 10.908 301.47 10.908H302.658V15H306.114V16.704H302.658V23.844C302.658 24.324 302.774 24.684 303.006 24.924C303.246 25.156 303.55 25.272 303.918 25.272C304.134 25.272 304.318 25.244 304.47 25.188C304.63 25.132 304.766 25.072 304.878 25.008C304.99 24.936 305.086 24.872 305.166 24.816C305.246 24.76 305.318 24.732 305.382 24.732C305.462 24.732 305.522 24.752 305.562 24.792C305.61 24.824 305.658 24.88 305.706 24.96L306.402 26.088C306.018 26.44 305.562 26.712 305.034 26.904C304.506 27.096 303.958 27.192 303.39 27.192ZM316.275 19.548C316.275 19.084 316.207 18.656 316.071 18.264C315.943 17.872 315.751 17.532 315.495 17.244C315.239 16.956 314.927 16.732 314.559 16.572C314.191 16.412 313.767 16.332 313.287 16.332C312.303 16.332 311.527 16.616 310.959 17.184C310.399 17.752 310.043 18.54 309.891 19.548H316.275ZM318.207 25.26C317.919 25.596 317.587 25.888 317.211 26.136C316.835 26.376 316.435 26.572 316.011 26.724C315.587 26.876 315.147 26.988 314.691 27.06C314.243 27.132 313.799 27.168 313.359 27.168C312.519 27.168 311.739 27.028 311.019 26.748C310.307 26.46 309.687 26.044 309.159 25.5C308.639 24.948 308.231 24.268 307.935 23.46C307.647 22.644 307.503 21.708 307.503 20.652C307.503 19.804 307.635 19.016 307.899 18.288C308.163 17.552 308.539 16.912 309.027 16.368C309.523 15.824 310.127 15.396 310.839 15.084C311.551 14.772 312.351 14.616 313.239 14.616C313.983 14.616 314.667 14.74 315.291 14.988C315.923 15.228 316.467 15.58 316.923 16.044C317.379 16.508 317.735 17.08 317.991 17.76C318.255 18.44 318.387 19.216 318.387 20.088C318.387 20.448 318.347 20.692 318.267 20.82C318.187 20.94 318.039 21 317.823 21H309.831C309.855 21.728 309.959 22.364 310.143 22.908C310.327 23.444 310.579 23.892 310.899 24.252C311.227 24.612 311.615 24.88 312.063 25.056C312.511 25.232 313.011 25.32 313.563 25.32C314.083 25.32 314.531 25.26 314.907 25.14C315.291 25.02 315.619 24.892 315.891 24.756C316.171 24.612 316.403 24.48 316.587 24.36C316.779 24.24 316.947 24.18 317.091 24.18C317.283 24.18 317.431 24.252 317.535 24.396L318.207 25.26ZM320.902 27V14.808H322.306C322.634 14.808 322.838 14.964 322.918 15.276L323.086 16.44C323.534 15.904 324.03 15.468 324.574 15.132C325.126 14.788 325.77 14.616 326.506 14.616C327.314 14.616 327.97 14.84 328.474 15.288C328.978 15.728 329.346 16.328 329.578 17.088C329.754 16.656 329.982 16.284 330.262 15.972C330.542 15.66 330.854 15.404 331.198 15.204C331.542 15.004 331.906 14.856 332.29 14.76C332.682 14.664 333.078 14.616 333.478 14.616C334.126 14.616 334.702 14.72 335.206 14.928C335.718 15.128 336.15 15.424 336.502 15.816C336.854 16.208 337.122 16.692 337.306 17.268C337.49 17.844 337.582 18.5 337.582 19.236V27H335.23V19.236C335.23 18.324 335.03 17.636 334.63 17.172C334.238 16.708 333.662 16.476 332.902 16.476C332.566 16.476 332.246 16.536 331.942 16.656C331.638 16.768 331.37 16.94 331.138 17.172C330.914 17.404 330.734 17.692 330.598 18.036C330.47 18.38 330.406 18.78 330.406 19.236V27H328.054V19.236C328.054 18.292 327.866 17.596 327.49 17.148C327.114 16.7 326.562 16.476 325.834 16.476C325.33 16.476 324.862 16.608 324.43 16.872C323.998 17.136 323.602 17.496 323.242 17.952V27H320.902ZM348.228 19.464C348.228 21.16 348.44 22.812 348.864 24.42C349.288 26.028 349.908 27.552 350.724 28.992C350.86 29.256 350.896 29.46 350.832 29.604C350.768 29.748 350.668 29.864 350.532 29.952L349.488 30.588C348.888 29.668 348.376 28.752 347.952 27.84C347.536 26.936 347.196 26.028 346.932 25.116C346.676 24.196 346.488 23.268 346.368 22.332C346.248 21.396 346.188 20.44 346.188 19.464C346.188 18.48 346.248 17.52 346.368 16.584C346.488 15.648 346.676 14.724 346.932 13.812C347.196 12.892 347.536 11.98 347.952 11.076C348.376 10.164 348.888 9.248 349.488 8.328L350.532 8.964C350.668 9.052 350.768 9.168 350.832 9.312C350.896 9.456 350.86 9.66 350.724 9.924C349.908 11.364 349.288 12.892 348.864 14.508C348.44 16.116 348.228 17.768 348.228 19.464ZM365.269 23.304C365.413 23.304 365.537 23.36 365.641 23.472L366.649 24.576C365.945 25.408 365.085 26.052 364.069 26.508C363.061 26.964 361.845 27.192 360.421 27.192C359.173 27.192 358.041 26.976 357.025 26.544C356.017 26.112 355.153 25.508 354.433 24.732C353.721 23.956 353.169 23.028 352.777 21.948C352.385 20.868 352.189 19.68 352.189 18.384C352.189 17.088 352.393 15.9 352.801 14.82C353.217 13.74 353.797 12.812 354.541 12.036C355.285 11.26 356.173 10.656 357.205 10.224C358.245 9.792 359.393 9.576 360.649 9.576C361.873 9.576 362.961 9.776 363.913 10.176C364.865 10.576 365.693 11.108 366.397 11.772L365.557 12.96C365.501 13.048 365.429 13.12 365.341 13.176C365.261 13.232 365.153 13.26 365.017 13.26C364.865 13.26 364.685 13.184 364.477 13.032C364.277 12.88 364.009 12.712 363.673 12.528C363.345 12.336 362.937 12.164 362.449 12.012C361.961 11.86 361.353 11.784 360.625 11.784C359.769 11.784 358.985 11.936 358.273 12.24C357.561 12.536 356.945 12.968 356.425 13.536C355.913 14.096 355.513 14.788 355.225 15.612C354.945 16.428 354.805 17.352 354.805 18.384C354.805 19.432 354.953 20.364 355.249 21.18C355.545 21.996 355.953 22.688 356.473 23.256C356.993 23.824 357.605 24.256 358.309 24.552C359.013 24.848 359.773 24.996 360.589 24.996C361.085 24.996 361.529 24.968 361.921 24.912C362.321 24.848 362.685 24.756 363.013 24.636C363.349 24.516 363.665 24.364 363.961 24.18C364.257 23.988 364.549 23.76 364.837 23.496C364.901 23.44 364.969 23.396 365.041 23.364C365.113 23.324 365.189 23.304 365.269 23.304ZM384.254 18.384C384.254 19.672 384.046 20.844 383.63 21.9C383.222 22.956 382.642 23.864 381.89 24.624C381.138 25.376 380.238 25.96 379.19 26.376C378.142 26.792 376.978 27 375.698 27H369.218V9.768H375.698C376.978 9.768 378.142 9.976 379.19 10.392C380.238 10.808 381.138 11.396 381.89 12.156C382.642 12.908 383.222 13.816 383.63 14.88C384.046 15.936 384.254 17.104 384.254 18.384ZM381.638 18.384C381.638 17.36 381.498 16.444 381.218 15.636C380.938 14.82 380.538 14.132 380.018 13.572C379.506 13.004 378.882 12.572 378.146 12.276C377.418 11.98 376.602 11.832 375.698 11.832H371.786V24.936H375.698C376.602 24.936 377.418 24.788 378.146 24.492C378.882 24.196 379.506 23.768 380.018 23.208C380.538 22.64 380.938 21.952 381.218 21.144C381.498 20.336 381.638 19.416 381.638 18.384ZM396.392 12.576C396.312 12.712 396.228 12.812 396.14 12.876C396.052 12.94 395.94 12.972 395.804 12.972C395.66 12.972 395.496 12.908 395.312 12.78C395.128 12.644 394.896 12.496 394.616 12.336C394.344 12.168 394.016 12.02 393.632 11.892C393.248 11.756 392.788 11.688 392.252 11.688C391.748 11.688 391.304 11.756 390.92 11.892C390.544 12.02 390.228 12.2 389.972 12.432C389.716 12.656 389.52 12.924 389.384 13.236C389.256 13.54 389.192 13.872 389.192 14.232C389.192 14.696 389.308 15.08 389.54 15.384C389.78 15.688 390.092 15.948 390.476 16.164C390.86 16.38 391.296 16.568 391.784 16.728C392.272 16.888 392.772 17.056 393.284 17.232C393.796 17.4 394.296 17.596 394.784 17.82C395.272 18.044 395.708 18.328 396.092 18.672C396.476 19.008 396.784 19.424 397.016 19.92C397.256 20.408 397.376 21.008 397.376 21.72C397.376 22.48 397.244 23.192 396.98 23.856C396.724 24.52 396.348 25.1 395.852 25.596C395.356 26.092 394.744 26.484 394.016 26.772C393.296 27.052 392.476 27.192 391.556 27.192C391.004 27.192 390.468 27.136 389.948 27.024C389.428 26.92 388.936 26.772 388.472 26.58C388.008 26.38 387.572 26.144 387.164 25.872C386.764 25.592 386.404 25.28 386.084 24.936L386.816 23.712C386.888 23.616 386.972 23.536 387.068 23.472C387.172 23.408 387.288 23.376 387.416 23.376C387.584 23.376 387.776 23.464 387.992 23.64C388.216 23.816 388.488 24.012 388.808 24.228C389.136 24.436 389.524 24.628 389.972 24.804C390.428 24.98 390.98 25.068 391.628 25.068C392.156 25.068 392.628 25 393.044 24.864C393.46 24.72 393.808 24.52 394.088 24.264C394.376 24 394.596 23.684 394.748 23.316C394.9 22.948 394.976 22.54 394.976 22.092C394.976 21.588 394.86 21.176 394.628 20.856C394.396 20.536 394.088 20.268 393.704 20.052C393.32 19.836 392.884 19.652 392.396 19.5C391.908 19.348 391.408 19.192 390.896 19.032C390.384 18.864 389.884 18.672 389.396 18.456C388.908 18.24 388.472 17.96 388.088 17.616C387.704 17.264 387.396 16.828 387.164 16.308C386.932 15.78 386.816 15.132 386.816 14.364C386.816 13.748 386.936 13.152 387.176 12.576C387.416 12 387.764 11.492 388.22 11.052C388.684 10.604 389.252 10.248 389.924 9.984C390.596 9.712 391.364 9.576 392.228 9.576C393.196 9.576 394.084 9.732 394.892 10.044C395.708 10.348 396.416 10.788 397.016 11.364L396.392 12.576ZM401.79 19.464C401.79 17.768 401.574 16.116 401.142 14.508C400.718 12.892 400.098 11.364 399.282 9.924C399.146 9.66 399.11 9.456 399.174 9.312C399.246 9.168 399.35 9.052 399.486 8.964L400.53 8.328C401.13 9.248 401.638 10.164 402.054 11.076C402.47 11.98 402.81 12.892 403.074 13.812C403.338 14.724 403.53 15.648 403.65 16.584C403.77 17.52 403.83 18.48 403.83 19.464C403.83 20.44 403.77 21.396 403.65 22.332C403.53 23.268 403.338 24.196 403.074 25.116C402.81 26.028 402.47 26.936 402.054 27.84C401.638 28.752 401.13 29.668 400.53 30.588L399.486 29.952C399.35 29.864 399.246 29.748 399.174 29.604C399.11 29.46 399.146 29.256 399.282 28.992C400.098 27.552 400.718 26.028 401.142 24.42C401.574 22.812 401.79 21.16 401.79 19.464Z" fill="black"/>
<circle cx="29" cy="12.5" r="1.5" fill="#0083E4"/>
<circle cx="34.5" cy="12.5" r="1.5" fill="#70C1FF"/>
<circle cx="29" cy="18" r="1.5" fill="#0083E4"/>
<circle cx="34.5" cy="18" r="1.5" fill="#70C1FF"/>
<circle cx="29" cy="23.5" r="1.5" fill="#0083E4"/>
<circle cx="34.5" cy="23.5" r="1.5" fill="#70C1FF"/>
<circle cx="29" cy="7" r="1.5" fill="#0083E4"/>
<circle cx="34.5" cy="7" r="1.5" fill="#70C1FF"/>
<circle cx="29" cy="1.5" r="1.5" fill="#70C1FF"/>
<circle cx="34.5" cy="1.5" r="1.5" fill="#70C1FF"/>
<circle cx="29" cy="29" r="1.5" fill="#0083E4"/>
<circle cx="34.5" cy="29" r="1.5" fill="#70C1FF"/>
<circle cx="29" cy="34.5" r="1.5" fill="#70C1FF"/>
<circle cx="34.5" cy="34.5" r="1.5" fill="#70C1FF"/>
<circle cx="1.5" cy="12.5" r="1.5" fill="#70C1FF"/>
<circle cx="7" cy="12.5" r="1.5" fill="#0083E4"/>
<circle cx="1.5" cy="18" r="1.5" fill="#70C1FF"/>
<circle cx="7" cy="18" r="1.5" fill="#0083E4"/>
<circle cx="1.5" cy="23.5" r="1.5" fill="#70C1FF"/>
<circle cx="7" cy="23.5" r="1.5" fill="#0083E4"/>
<circle cx="1.5" cy="7" r="1.5" fill="#70C1FF"/>
<circle cx="7" cy="7" r="1.5" fill="#0083E4"/>
<circle cx="1.5" cy="1.5" r="1.5" fill="#70C1FF"/>
<circle cx="7" cy="1.5" r="1.5" fill="#70C1FF"/>
<circle cx="1.5" cy="29" r="1.5" fill="#70C1FF"/>
<circle cx="7" cy="29" r="1.5" fill="#0083E4"/>
<circle cx="1.5" cy="34.5" r="1.5" fill="#70C1FF"/>
<circle cx="7" cy="34.5" r="1.5" fill="#70C1FF"/>
<circle cx="12.5" cy="29" r="1.5" fill="#0083E4"/>
<circle cx="12.5" cy="34.5" r="1.5" fill="#70C1FF"/>
<circle cx="18" cy="29" r="1.5" fill="#0083E4"/>
<circle cx="18" cy="34.5" r="1.5" fill="#70C1FF"/>
<circle cx="23.5" cy="29" r="1.5" fill="#0083E4"/>
<circle cx="23.5" cy="34.5" r="1.5" fill="#70C1FF"/>
<circle cx="12.5" cy="1.5" r="1.5" fill="#70C1FF"/>
<circle cx="12.5" cy="7" r="1.5" fill="#0083E4"/>
<circle cx="18" cy="1.5" r="1.5" fill="#70C1FF"/>
<circle cx="18" cy="7" r="1.5" fill="#0083E4"/>
<circle cx="23.5" cy="1.5" r="1.5" fill="#70C1FF"/>
<circle cx="23.5" cy="7" r="1.5" fill="#0083E4"/>
<circle cx="18" cy="18" r="7" fill="#0083E4"/>
</svg>
