<svg fill="none" height="36" viewBox="0 0 410 36" width="410" xmlns="http://www.w3.org/2000/svg"><path d="m65.848 22.908c.176 0 .332.068.468.204l1.272 1.38c-.704.872-1.572 1.54-2.604 2.004-1.024.464-2.256.696-3.696.696-1.288 0-2.448-.22-3.48-.66-1.024-.44-1.9-1.052-2.628-1.836s-1.288-1.72-1.68-2.808c-.384-1.088-.576-2.276-.576-3.564 0-1.304.208-2.496.624-3.576.416-1.088 1-2.024 1.752-2.808.76-.784 1.664-1.392 2.712-1.824 1.048-.44 2.208-.66 3.48-.66 1.264 0 2.384.208 3.36.624.984.416 1.82.96 2.508 1.632l-1.08 1.5c-.064.096-.148.18-.252.252-.096.072-.232.108-.408.108-.12 0-.244-.032-.372-.096-.128-.072-.268-.156-.42-.252-.152-.104-.328-.216-.528-.336s-.432-.228-.696-.324c-.264-.104-.572-.188-.924-.252-.344-.072-.744-.108-1.2-.108-.776 0-1.488.14-2.136.42-.64.272-1.192.672-1.656 1.2-.464.52-.824 1.16-1.08 1.92-.256.752-.384 1.612-.384 2.58 0 .976.136 1.844.408 2.604.28.76.656 1.4 1.128 1.92s1.028.92 1.668 1.2c.64.272 1.328.408 2.064.408.44 0 .836-.024 1.188-.072.36-.048.688-.124.984-.228.304-.104.588-.236.852-.396.272-.168.54-.372.804-.612.08-.072.164-.128.252-.168.088-.048.18-.072.276-.072zm8.6734-8.412c.912 0 1.74.148 2.484.444.752.296 1.392.716 1.92 1.26.536.544.948 1.208 1.236 1.992s.432 1.66.432 2.628c0 .976-.144 1.856-.432 2.64s-.7 1.452-1.236 2.004c-.528.552-1.168.976-1.92 1.272-.744.296-1.572.444-2.484.444-.92 0-1.756-.148-2.508-.444s-1.396-.72-1.932-1.272c-.528-.552-.94-1.22-1.236-2.004-.288-.784-.432-1.664-.432-2.64 0-.968.144-1.844.432-2.628.296-.784.708-1.448 1.236-1.992.536-.544 1.18-.964 1.932-1.26s1.588-.444 2.508-.444zm0 10.404c1.024 0 1.78-.344 2.268-1.032.496-.688.744-1.696.744-3.024s-.248-2.34-.744-3.036c-.488-.696-1.244-1.044-2.268-1.044-1.04 0-1.812.352-2.316 1.056-.496.696-.744 1.704-.744 3.024s.248 2.328.744 3.024c.504.688 1.276 1.032 2.316 1.032zm11.1052-8.7c.248-.248.508-.476.78-.684.28-.216.572-.396.876-.54.312-.152.644-.268.996-.348.352-.088.736-.132 1.152-.132.672 0 1.268.116 1.788.348.52.224.952.544 1.296.96.352.408.616.9.792 1.476.184.568.276 1.196.276 1.884v7.836h-2.964v-7.836c0-.752-.172-1.332-.516-1.74-.344-.416-.868-.624-1.572-.624-.512 0-.992.116-1.44.348s-.872.548-1.272.948v8.904h-2.964v-12.312h1.812c.384 0 .636.18.756.54zm18.5034 1.632c-.336-.408-.704-.696-1.104-.864-.392-.168-.816-.252-1.272-.252-.448 0-.852.084-1.212.252s-.6685.424-.9245.768c-.256.336-.452.768-.588 1.296-.136.52-.204 1.136-.204 1.848 0 .72.056 1.332.168 1.836.12.496.288.904.504 1.224.216.312.48.54.7925.684.312.136.66.204 1.044.204.616 0 1.14-.128 1.572-.384s.84-.62 1.224-1.092zm2.964-8.664v17.832h-1.812c-.392 0-.64-.18-.744-.54l-.252-1.188c-.496.568-1.068 1.028-1.716 1.38-.64.352-1.388.528-2.244.528-.6725 0-1.2885-.14-1.8485-.42s-1.044-.684-1.452-1.212c-.4-.536-.712-1.196-.936-1.98-.216-.784-.324-1.68-.324-2.688 0-.912.124-1.76.372-2.544s.604-1.464 1.068-2.04 1.02-1.024 1.668-1.344c.648-.328 1.3765-.492 2.1845-.492.688 0 1.276.108 1.764.324s.924.508 1.308.876v-6.492zm10.857 10.26c0-.384-.056-.744-.168-1.08-.104-.344-.264-.644-.48-.9s-.492-.456-.828-.6c-.328-.152-.712-.228-1.152-.228-.856 0-1.532.244-2.028.732-.488.488-.8 1.18-.936 2.076zm-5.652 1.788c.048.632.16 1.18.336 1.644.176.456.408.836.696 1.14.288.296.628.52 1.02.672.4.144.84.216 1.32.216s.892-.056 1.236-.168c.352-.112.656-.236.912-.372.264-.136.492-.26.684-.372.2-.112.392-.168.576-.168.248 0 .432.092.552.276l.852 1.08c-.328.384-.696.708-1.104.972-.408.256-.836.464-1.284.624-.44.152-.892.26-1.356.324-.456.064-.9.096-1.332.096-.856 0-1.652-.14-2.388-.42-.736-.288-1.376-.708-1.92-1.26-.544-.56-.972-1.248-1.284-2.064-.312-.824-.468-1.776-.468-2.856 0-.84.136-1.628.408-2.364.272-.744.66-1.388 1.164-1.932.512-.552 1.132-.988 1.86-1.308.736-.32 1.564-.48 2.484-.48.776 0 1.492.124 2.148.372s1.22.612 1.692 1.092c.472.472.84 1.056 1.104 1.752.272.688.408 1.476.408 2.364 0 .448-.048.752-.144.912-.096.152-.28.228-.552.228zm13.312-5.016c.248-.248.508-.476.78-.684.28-.216.572-.396.876-.54.312-.152.644-.268.996-.348.352-.088.736-.132 1.152-.132.672 0 1.268.116 1.788.348.52.224.952.544 1.296.96.352.408.616.9.792 1.476.184.568.276 1.196.276 1.884v7.836h-2.964v-7.836c0-.752-.172-1.332-.516-1.74-.344-.416-.868-.624-1.572-.624-.512 0-.992.116-1.44.348s-.872.548-1.272.948v8.904h-2.964v-12.312h1.812c.384 0 .636.18.756.54zm18.287.888c-.08.128-.164.22-.252.276-.088.048-.2.072-.336.072-.144 0-.3-.04-.468-.12-.16-.08-.348-.168-.564-.264-.216-.104-.464-.196-.744-.276-.272-.08-.596-.12-.972-.12-.584 0-1.044.124-1.38.372-.328.248-.492.572-.492.972 0 .264.084.488.252.672.176.176.404.332.684.468.288.136.612.26.972.372.36.104.724.22 1.092.348.376.128.744.276 1.104.444.36.16.68.368.96.624.288.248.516.548.684.9.176.352.264.776.264 1.272 0 .592-.108 1.14-.324 1.644-.208.496-.52.928-.936 1.296-.416.36-.932.644-1.548.852-.608.2-1.312.3-2.112.3-.424 0-.84-.04-1.248-.12-.4-.072-.788-.176-1.164-.312-.368-.136-.712-.296-1.032-.48-.312-.184-.588-.384-.828-.6l.684-1.128c.088-.136.192-.24.312-.312s.272-.108.456-.108.356.052.516.156c.168.104.36.216.576.336s.468.232.756.336c.296.104.668.156 1.116.156.352 0 .652-.04.9-.12.256-.088.464-.2.624-.336.168-.136.288-.292.36-.468.08-.184.12-.372.12-.564 0-.288-.088-.524-.264-.708-.168-.184-.396-.344-.684-.48-.28-.136-.604-.256-.972-.36-.36-.112-.732-.232-1.116-.36-.376-.128-.748-.276-1.116-.444-.36-.176-.684-.396-.972-.66-.28-.264-.508-.588-.684-.972-.168-.384-.252-.848-.252-1.392 0-.504.1-.984.3-1.44s.492-.852.876-1.188c.392-.344.876-.616 1.452-.816.584-.208 1.256-.312 2.016-.312.848 0 1.62.14 2.316.42s1.276.648 1.74 1.104zm9.539 4.656c-.856.04-1.576.116-2.16.228-.584.104-1.052.24-1.404.408s-.604.364-.756.588-.228.468-.228.732c0 .52.152.892.456 1.116.312.224.716.336 1.212.336.608 0 1.132-.108 1.572-.324.448-.224.884-.56 1.308-1.008zm-6.792-5.34c1.416-1.296 3.12-1.944 5.112-1.944.72 0 1.364.12 1.932.36.568.232 1.048.56 1.44.984.392.416.688.916.888 1.5.208.584.312 1.224.312 1.92v7.776h-1.344c-.28 0-.496-.04-.648-.12-.152-.088-.272-.26-.36-.516l-.264-.888c-.312.28-.616.528-.912.744-.296.208-.604.384-.924.528s-.664.252-1.032.324c-.36.08-.76.12-1.2.12-.52 0-1-.068-1.44-.204-.44-.144-.82-.356-1.14-.636s-.568-.628-.744-1.044-.264-.9-.264-1.452c0-.312.052-.62.156-.924.104-.312.272-.608.504-.888.24-.28.548-.544.924-.792s.836-.464 1.38-.648c.552-.184 1.192-.332 1.92-.444.728-.12 1.56-.192 2.496-.216v-.72c0-.824-.176-1.432-.528-1.824-.352-.4-.86-.6-1.524-.6-.48 0-.88.056-1.2.168-.312.112-.588.24-.828.384-.24.136-.46.26-.66.372-.192.112-.408.168-.648.168-.208 0-.384-.052-.528-.156-.144-.112-.26-.24-.348-.384zm24.731 10.596h-2.964v-10.092h-5.712v6.672c0 .384.092.684.276.9.192.216.452.324.78.324.184 0 .336-.02.456-.06.128-.048.236-.096.324-.144.096-.048.18-.092.252-.132.072-.048.144-.072.216-.072.088 0 .16.024.216.072.056.04.116.104.18.192l.888 1.44c-.432.36-.928.632-1.488.816s-1.14.276-1.74.276c-1.072 0-1.896-.3-2.472-.9-.568-.608-.852-1.444-.852-2.508v-6.876h-1.26c-.16 0-.296-.052-.408-.156s-.168-.26-.168-.468v-1.176l1.98-.336.624-3.348c.04-.16.116-.284.228-.372s.256-.132.432-.132h1.536v3.876h8.676zm.516-15.948c0 .256-.052.5-.156.732-.104.224-.244.42-.42.588-.168.168-.372.304-.612.408-.232.096-.48.144-.744.144-.256 0-.496-.048-.72-.144-.224-.104-.42-.24-.588-.408s-.304-.364-.408-.588c-.096-.232-.144-.476-.144-.732 0-.264.048-.508.144-.732.104-.232.24-.432.408-.6.168-.176.364-.312.588-.408.224-.104.464-.156.72-.156.264 0 .512.052.744.156.24.096.444.232.612.408.176.168.316.368.42.6.104.224.156.468.156.732zm7.958 3.444c.912 0 1.74.148 2.484.444.752.296 1.392.716 1.92 1.26.535.544.947 1.208 1.236 1.992.288.784.432 1.66.432 2.628 0 .976-.144 1.856-.432 2.64-.289.784-.701 1.452-1.236 2.004-.528.552-1.168.976-1.92 1.272-.744.296-1.572.444-2.484.444-.92 0-1.756-.148-2.508-.444s-1.396-.72-1.932-1.272c-.528-.552-.94-1.22-1.236-2.004-.288-.784-.432-1.664-.432-2.64 0-.968.144-1.844.432-2.628.296-.784.708-1.448 1.236-1.992.536-.544 1.18-.964 1.932-1.26s1.588-.444 2.508-.444zm0 10.404c1.024 0 1.78-.344 2.268-1.032.496-.688.744-1.696.744-3.024s-.248-2.34-.744-3.036c-.488-.696-1.244-1.044-2.268-1.044-1.04 0-1.812.352-2.316 1.056-.496.696-.744 1.704-.744 3.024s.248 2.328.744 3.024c.504.688 1.276 1.032 2.316 1.032zm11.105-8.7c.248-.248.508-.476.78-.684.28-.216.572-.396.876-.54.312-.152.644-.268.996-.348.352-.088.736-.132 1.152-.132.672 0 1.268.116 1.788.348.52.224.952.544 1.296.96.352.408.616.9.792 1.476.184.568.276 1.196.276 1.884v7.836h-2.964v-7.836c0-.752-.172-1.332-.516-1.74-.344-.416-.868-.624-1.572-.624-.512 0-.992.116-1.44.348s-.872.548-1.272.948v8.904h-2.964v-12.312h1.812c.384 0 .636.18.756.54zm32.541 2.184c0 1.288-.208 2.46-.624 3.516-.408 1.056-.988 1.964-1.74 2.724-.752.752-1.652 1.336-2.7 1.752s-2.212.624-3.492.624h-6.48v-17.232h6.48c1.28 0 2.444.208 3.492.624s1.948 1.004 2.7 1.764c.752.752 1.332 1.66 1.74 2.724.416 1.056.624 2.224.624 3.504zm-2.616 0c0-1.024-.14-1.94-.42-2.748-.28-.816-.68-1.504-1.2-2.064-.512-.568-1.136-1-1.872-1.296-.728-.296-1.544-.444-2.448-.444h-3.912v13.104h3.912c.904 0 1.72-.148 2.448-.444.736-.296 1.36-.724 1.872-1.284.52-.568.92-1.256 1.2-2.064s.42-1.728.42-2.76zm11.605 3.204c-.952.032-1.76.108-2.424.228-.664.112-1.204.264-1.62.456s-.716.42-.9.684c-.184.256-.276.544-.276.864 0 .304.048.568.144.792.104.216.24.396.408.54.176.136.38.236.612.3s.484.096.756.096c.36 0 .688-.036.984-.108.304-.072.588-.172.852-.3.264-.136.516-.3.756-.492s.476-.412.708-.66zm-6.864-5.076c.68-.648 1.416-1.132 2.208-1.452.8-.32 1.676-.48 2.628-.48.696 0 1.312.116 1.848.348.536.224.988.54 1.356.948s.644.896.828 1.464c.192.568.288 1.196.288 1.884v7.776h-1.044c-.232 0-.408-.036-.528-.108-.12-.08-.216-.224-.288-.432l-.252-1.068c-.312.288-.62.544-.924.768-.304.216-.624.404-.96.564-.328.152-.68.268-1.056.348s-.792.12-1.248.12c-.48 0-.932-.064-1.356-.192-.416-.136-.78-.34-1.092-.612s-.56-.612-.744-1.02c-.176-.408-.264-.884-.264-1.428 0-.48.128-.94.384-1.38.264-.448.688-.848 1.272-1.2.592-.352 1.36-.64 2.304-.864.952-.224 2.12-.352 3.504-.384v-.888c0-.92-.196-1.608-.588-2.064s-.968-.684-1.728-.684c-.512 0-.944.064-1.296.192-.344.128-.644.272-.9.432-.248.152-.468.292-.66.42-.184.128-.376.192-.576.192-.16 0-.3-.044-.42-.132-.112-.088-.204-.192-.276-.312zm15.941 10.68c-.984 0-1.744-.276-2.28-.828-.528-.552-.792-1.34-.792-2.364v-7.296h-1.416c-.136 0-.252-.04-.348-.12-.088-.088-.132-.216-.132-.384v-.948l1.98-.276.528-3.636c.032-.136.092-.24.18-.312.096-.08.216-.12.36-.12h1.188v4.092h3.456v1.704h-3.456v7.14c0 .48.116.84.348 1.08.24.232.544.348.912.348.216 0 .4-.028.552-.084.16-.056.296-.116.408-.18.112-.072.208-.136.288-.192s.152-.084.216-.084c.08 0 .14.02.18.06.048.032.096.088.144.168l.696 1.128c-.384.352-.84.624-1.368.816s-1.076.288-1.644.288zm11.431-5.604c-.952.032-1.76.108-2.424.228-.664.112-1.204.264-1.62.456s-.716.42-.9.684c-.184.256-.276.544-.276.864 0 .304.048.568.144.792.104.216.24.396.408.54.176.136.38.236.612.3s.484.096.756.096c.36 0 .688-.036.984-.108.304-.072.588-.172.852-.3.264-.136.516-.3.756-.492s.476-.412.708-.66zm-6.864-5.076c.68-.648 1.416-1.132 2.208-1.452.8-.32 1.676-.48 2.628-.48.696 0 1.312.116 1.848.348.536.224.988.54 1.356.948s.644.896.828 1.464c.192.568.288 1.196.288 1.884v7.776h-1.044c-.232 0-.408-.036-.528-.108-.12-.08-.216-.224-.288-.432l-.252-1.068c-.312.288-.62.544-.924.768-.304.216-.624.404-.96.564-.328.152-.68.268-1.056.348s-.792.12-1.248.12c-.48 0-.932-.064-1.356-.192-.416-.136-.78-.34-1.092-.612s-.56-.612-.744-1.02c-.176-.408-.264-.884-.264-1.428 0-.48.128-.94.384-1.38.264-.448.688-.848 1.272-1.2.592-.352 1.36-.64 2.304-.864.952-.224 2.12-.352 3.504-.384v-.888c0-.92-.196-1.608-.588-2.064s-.968-.684-1.728-.684c-.512 0-.944.064-1.296.192-.344.128-.644.272-.9.432-.248.152-.468.292-.66.42-.184.128-.376.192-.576.192-.16 0-.3-.044-.42-.132-.112-.088-.204-.192-.276-.312zm27.755-3.936c-.08.136-.164.236-.252.3s-.2.096-.336.096c-.144 0-.308-.064-.492-.192-.184-.136-.416-.284-.696-.444-.272-.168-.6-.316-.984-.444-.384-.136-.844-.204-1.38-.204-.504 0-.948.068-1.332.204-.376.128-.692.308-.948.54-.256.224-.452.492-.588.804-.128.304-.192.636-.192.996 0 .464.116.848.348 1.152.24.304.552.564.936.78s.82.404 1.308.564.988.328 1.5.504c.512.168 1.012.364 1.5.588s.924.508 1.308.852c.384.336.692.752.924 1.248.24.488.36 1.088.36 1.8 0 .76-.132 1.472-.396 2.136-.256.664-.632 1.244-1.128 1.74s-1.108.888-1.836 1.176c-.72.28-1.54.42-2.46.42-.552 0-1.088-.056-1.608-.168-.52-.104-1.012-.252-1.476-.444-.464-.2-.9-.436-1.308-.708-.4-.28-.76-.592-1.08-.936l.732-1.224c.072-.096.156-.176.252-.24.104-.064.22-.096.348-.096.168 0 .36.088.576.264.224.176.496.372.816.588.328.208.716.4 1.164.576.456.176 1.008.264 1.656.264.528 0 1-.068 1.416-.204.416-.144.764-.344 1.044-.6.288-.264.508-.58.66-.948s.228-.776.228-1.224c0-.504-.116-.916-.348-1.236s-.54-.588-.924-.804-.82-.4-1.308-.552-.988-.308-1.5-.468c-.512-.168-1.012-.36-1.5-.576s-.924-.496-1.308-.84c-.384-.352-.692-.788-.924-1.308-.232-.528-.348-1.176-.348-1.944 0-.616.12-1.212.36-1.788s.588-1.084 1.044-1.524c.464-.448 1.032-.804 1.704-1.068.672-.272 1.44-.408 2.304-.408.968 0 1.856.156 2.664.468.816.304 1.524.744 2.124 1.32zm13.682 2.232-6.768 15.732c-.072.176-.168.312-.288.408s-.296.144-.528.144h-1.74l2.232-4.86-5.004-11.424h2.04c.2 0 .356.048.468.144s.192.204.24.324l3.096 7.32c.064.184.124.372.18.564.064.184.116.368.156.552.056-.192.116-.38.18-.564.064-.192.132-.38.204-.564l2.988-7.308c.056-.136.144-.248.264-.336s.256-.132.408-.132zm8.766 2.1c-.064.104-.132.18-.204.228-.072.04-.164.06-.276.06-.128 0-.272-.044-.432-.132-.152-.088-.34-.184-.564-.288-.216-.104-.472-.2-.768-.288s-.648-.132-1.056-.132c-.336 0-.644.044-.924.132-.272.08-.504.196-.696.348-.192.144-.34.32-.444.528-.104.2-.156.416-.156.648 0 .304.088.556.264.756.184.2.42.372.708.516.296.144.628.276.996.396.376.112.756.232 1.14.36.392.128.772.276 1.14.444.376.16.708.364.996.612.296.24.532.532.708.876.184.344.276.764.276 1.26 0 .568-.104 1.096-.312 1.584-.2.48-.5.896-.9 1.248-.392.352-.88.628-1.464.828s-1.252.3-2.004.3c-.84 0-1.616-.14-2.328-.42s-1.308-.636-1.788-1.068l.552-.9c.064-.112.144-.196.24-.252.096-.064.224-.096.384-.096.152 0 .308.056.468.168s.352.236.576.372c.224.128.496.248.816.36.32.104.72.156 1.2.156.4 0 .748-.048 1.044-.144.296-.104.54-.24.732-.408.2-.176.348-.376.444-.6s.144-.46.144-.708c0-.32-.092-.584-.276-.792-.176-.216-.412-.4-.708-.552-.288-.152-.62-.284-.996-.396s-.76-.232-1.152-.36-.776-.276-1.152-.444-.712-.38-1.008-.636c-.288-.256-.524-.568-.708-.936-.176-.368-.264-.816-.264-1.344 0-.472.096-.924.288-1.356.2-.432.484-.812.852-1.14.376-.328.836-.588 1.38-.78.552-.2 1.18-.3 1.884-.3.808 0 1.536.128 2.184.384.656.256 1.216.608 1.68 1.056zm7.058 10.284c-.984 0-1.744-.276-2.28-.828-.528-.552-.792-1.34-.792-2.364v-7.296h-1.416c-.136 0-.252-.04-.348-.12-.088-.088-.132-.216-.132-.384v-.948l1.98-.276.528-3.636c.032-.136.092-.24.18-.312.096-.08.216-.12.36-.12h1.188v4.092h3.456v1.704h-3.456v7.14c0 .48.116.84.348 1.08.24.232.544.348.912.348.216 0 .4-.028.552-.084.16-.056.296-.116.408-.18.112-.072.208-.136.288-.192s.152-.084.216-.084c.08 0 .14.02.18.06.048.032.096.088.144.168l.696 1.128c-.384.352-.84.624-1.368.816s-1.076.288-1.644.288zm12.885-7.644c0-.464-.068-.892-.204-1.284-.128-.392-.32-.732-.576-1.02s-.568-.512-.936-.672-.792-.24-1.272-.24c-.984 0-1.76.284-2.328.852-.56.568-.916 1.356-1.068 2.364zm1.932 5.712c-.288.336-.62.628-.996.876-.376.24-.776.436-1.2.588s-.864.264-1.32.336c-.448.072-.892.108-1.332.108-.84 0-1.62-.14-2.34-.42-.712-.288-1.332-.704-1.86-1.248-.52-.552-.928-1.232-1.224-2.04-.288-.816-.432-1.752-.432-2.808 0-.848.132-1.636.396-2.364.264-.736.64-1.376 1.128-1.92.496-.544 1.1-.972 1.812-1.284s1.512-.468 2.4-.468c.744 0 1.428.124 2.052.372.632.24 1.176.592 1.632 1.056s.812 1.036 1.068 1.716c.264.68.396 1.456.396 2.328 0 .36-.04.604-.12.732-.08.12-.228.18-.444.18h-7.992c.024.728.128 1.364.312 1.908.184.536.436.984.756 1.344.328.36.716.628 1.164.804s.948.264 1.5.264c.52 0 .968-.06 1.344-.18.384-.12.712-.248.984-.384.28-.144.512-.276.696-.396.192-.12.36-.18.504-.18.192 0 .34.072.444.216zm2.695 1.74v-12.192h1.404c.328 0 .532.156.612.468l.168 1.164c.448-.536.944-.972 1.488-1.308.552-.344 1.196-.516 1.932-.516.808 0 1.464.224 1.968.672.504.44.872 1.04 1.104 1.8.176-.432.404-.804.684-1.116s.592-.568.936-.768.708-.348 1.092-.444c.392-.096.788-.144 1.188-.144.648 0 1.224.104 1.728.312.512.2.944.496 1.296.888s.62.876.804 1.452.276 1.232.276 1.968v7.764h-2.352v-7.764c0-.912-.2-1.6-.6-2.064-.392-.464-.968-.696-1.728-.696-.336 0-.656.06-.96.18-.304.112-.572.284-.804.516-.224.232-.404.52-.54.864-.128.344-.192.744-.192 1.2v7.764h-2.352v-7.764c0-.944-.188-1.64-.564-2.088s-.928-.672-1.656-.672c-.504 0-.972.132-1.404.396s-.828.624-1.188 1.08v9.048zm27.326-7.536c0 1.696.212 3.348.636 4.956s1.044 3.132 1.86 4.572c.136.264.172.468.108.612s-.164.26-.3.348l-1.044.636c-.6-.92-1.112-1.836-1.536-2.748-.416-.904-.756-1.812-1.02-2.724-.256-.92-.444-1.848-.564-2.784s-.18-1.892-.18-2.868c0-.984.06-1.944.18-2.88s.308-1.86.564-2.772c.264-.92.604-1.832 1.02-2.736.424-.912.936-1.828 1.536-2.748l1.044.636c.136.088.236.204.3.348s.028.348-.108.612c-.816 1.44-1.436 2.968-1.86 4.584-.424 1.608-.636 3.26-.636 4.956zm17.041 3.84c.144 0 .268.056.372.168l1.008 1.104c-.704.832-1.564 1.476-2.58 1.932-1.008.456-2.224.684-3.648.684-1.248 0-2.38-.216-3.396-.648-1.008-.432-1.872-1.036-2.592-1.812-.712-.776-1.264-1.704-1.656-2.784s-.588-2.268-.588-3.564.204-2.484.612-3.564c.416-1.08.996-2.008 1.74-2.784s1.632-1.38 2.664-1.812c1.04-.432 2.188-.648 3.444-.648 1.224 0 2.312.2 3.264.6s1.78.932 2.484 1.596l-.84 1.188c-.056.088-.128.16-.216.216-.08.056-.188.084-.324.084-.152 0-.332-.076-.54-.228-.2-.152-.468-.32-.804-.504-.328-.192-.736-.364-1.224-.516s-1.096-.228-1.824-.228c-.856 0-1.64.152-2.352.456-.712.296-1.328.728-1.848 1.296-.512.56-.912 1.252-1.2 2.076-.28.816-.42 1.74-.42 2.772 0 1.048.148 1.98.444 2.796s.704 1.508 1.224 2.076 1.132 1 1.836 1.296 1.464.444 2.28.444c.496 0 .94-.028 1.332-.084.4-.064.764-.156 1.092-.276.336-.12.652-.272.948-.456.296-.192.588-.42.876-.684.064-.056.132-.1.204-.132.072-.04.148-.06.228-.06zm18.985-4.92c0 1.288-.208 2.46-.624 3.516-.408 1.056-.988 1.964-1.74 2.724-.752.752-1.652 1.336-2.7 1.752s-2.212.624-3.492.624h-6.48v-17.232h6.48c1.28 0 2.444.208 3.492.624s1.948 1.004 2.7 1.764c.752.752 1.332 1.66 1.74 2.724.416 1.056.624 2.224.624 3.504zm-2.616 0c0-1.024-.14-1.94-.42-2.748-.28-.816-.68-1.504-1.2-2.064-.512-.568-1.136-1-1.872-1.296-.728-.296-1.544-.444-2.448-.444h-3.912v13.104h3.912c.904 0 1.72-.148 2.448-.444.736-.296 1.36-.724 1.872-1.284.52-.568.92-1.256 1.2-2.064s.42-1.728.42-2.76zm14.754-5.808c-.08.136-.164.236-.252.3s-.2.096-.336.096c-.144 0-.308-.064-.492-.192-.184-.136-.416-.284-.696-.444-.272-.168-.6-.316-.984-.444-.384-.136-.844-.204-1.38-.204-.504 0-.948.068-1.332.204-.376.128-.692.308-.948.54-.256.224-.452.492-.588.804-.128.304-.192.636-.192.996 0 .464.116.848.348 1.152.24.304.552.564.936.78s.82.404 1.308.564.988.328 1.5.504c.512.168 1.012.364 1.5.588s.924.508 1.308.852c.384.336.692.752.924 1.248.24.488.36 1.088.36 1.8 0 .76-.132 1.472-.396 2.136-.256.664-.632 1.244-1.128 1.74s-1.108.888-1.836 1.176c-.72.28-1.54.42-2.46.42-.552 0-1.088-.056-1.608-.168-.52-.104-1.012-.252-1.476-.444-.464-.2-.9-.436-1.308-.708-.4-.28-.76-.592-1.08-.936l.732-1.224c.072-.096.156-.176.252-.24.104-.064.22-.096.348-.096.168 0 .36.088.576.264.224.176.496.372.816.588.328.208.716.4 1.164.576.456.176 1.008.264 1.656.264.528 0 1-.068 1.416-.204.416-.144.764-.344 1.044-.6.288-.264.508-.58.66-.948s.228-.776.228-1.224c0-.504-.116-.916-.348-1.236s-.54-.588-.924-.804-.82-.4-1.308-.552-.988-.308-1.5-.468c-.512-.168-1.012-.36-1.5-.576s-.924-.496-1.308-.84c-.384-.352-.692-.788-.924-1.308-.232-.528-.348-1.176-.348-1.944 0-.616.12-1.212.36-1.788s.588-1.084 1.044-1.524c.464-.448 1.032-.804 1.704-1.068.672-.272 1.44-.408 2.304-.408.968 0 1.856.156 2.664.468.816.304 1.524.744 2.124 1.32zm5.398 6.888c0-1.696-.216-3.348-.648-4.956-.424-1.616-1.044-3.144-1.86-4.584-.136-.264-.172-.468-.108-.612.072-.144.176-.26.312-.348l1.044-.636c.6.92 1.108 1.836 1.524 2.748.416.904.756 1.816 1.02 2.736.264.912.456 1.836.576 2.772s.18 1.896.18 2.88c0 .976-.06 1.932-.18 2.868s-.312 1.864-.576 2.784c-.264.912-.604 1.82-1.02 2.724-.416.912-.924 1.828-1.524 2.748l-1.044-.636c-.136-.088-.24-.204-.312-.348-.064-.144-.028-.348.108-.612.816-1.44 1.436-2.964 1.86-4.572.432-1.608.648-3.26.648-4.956z" fill="#000"/><circle cx="29" cy="12.5" fill="#0083e4" r="1.5"/><circle cx="34.5" cy="12.5" fill="#70c1ff" r="1.5"/><circle cx="29" cy="18" fill="#0083e4" r="1.5"/><circle cx="34.5" cy="18" fill="#70c1ff" r="1.5"/><circle cx="29" cy="23.5" fill="#0083e4" r="1.5"/><circle cx="34.5" cy="23.5" fill="#70c1ff" r="1.5"/><circle cx="29" cy="7" fill="#0083e4" r="1.5"/><circle cx="34.5" cy="7" fill="#70c1ff" r="1.5"/><circle cx="29" cy="1.5" fill="#70c1ff" r="1.5"/><circle cx="34.5" cy="1.5" fill="#70c1ff" r="1.5"/><circle cx="29" cy="29" fill="#0083e4" r="1.5"/><g fill="#70c1ff"><circle cx="34.5" cy="29" r="1.5"/><circle cx="29" cy="34.5" r="1.5"/><circle cx="34.5" cy="34.5" r="1.5"/><circle cx="1.5" cy="12.5" r="1.5"/></g><circle cx="7" cy="12.5" fill="#0083e4" r="1.5"/><circle cx="1.5" cy="18" fill="#70c1ff" r="1.5"/><circle cx="7" cy="18" fill="#0083e4" r="1.5"/><circle cx="1.5" cy="23.5" fill="#70c1ff" r="1.5"/><circle cx="7" cy="23.5" fill="#0083e4" r="1.5"/><circle cx="1.5" cy="7" fill="#70c1ff" r="1.5"/><circle cx="7" cy="7" fill="#0083e4" r="1.5"/><circle cx="1.5" cy="1.5" fill="#70c1ff" r="1.5"/><circle cx="7" cy="1.5" fill="#70c1ff" r="1.5"/><circle cx="1.5" cy="29" fill="#70c1ff" r="1.5"/><circle cx="7" cy="29" fill="#0083e4" r="1.5"/><circle cx="1.5" cy="34.5" fill="#70c1ff" r="1.5"/><circle cx="7" cy="34.5" fill="#70c1ff" r="1.5"/><circle cx="12.5" cy="29" fill="#0083e4" r="1.5"/><circle cx="12.5" cy="34.5" fill="#70c1ff" r="1.5"/><circle cx="18" cy="29" fill="#0083e4" r="1.5"/><circle cx="18" cy="34.5" fill="#70c1ff" r="1.5"/><circle cx="23.5" cy="29" fill="#0083e4" r="1.5"/><circle cx="23.5" cy="34.5" fill="#70c1ff" r="1.5"/><circle cx="12.5" cy="1.5" fill="#70c1ff" r="1.5"/><circle cx="12.5" cy="7" fill="#0083e4" r="1.5"/><circle cx="18" cy="1.5" fill="#70c1ff" r="1.5"/><circle cx="18" cy="7" fill="#0083e4" r="1.5"/><circle cx="23.5" cy="1.5" fill="#70c1ff" r="1.5"/><circle cx="23.5" cy="7" fill="#0083e4" r="1.5"/><circle cx="18" cy="18" fill="#0083e4" r="7"/></svg>