<svg width="36" height="36" viewBox="0 0 36 36" fill="none" xmlns="http://www.w3.org/2000/svg">
<circle cx="29" cy="12.5" r="1.5" fill="#0083E4"/>
<circle cx="34.5" cy="12.5" r="1.5" fill="#70C1FF"/>
<circle cx="29" cy="18" r="1.5" fill="#0083E4"/>
<circle cx="34.5" cy="18" r="1.5" fill="#70C1FF"/>
<circle cx="29" cy="23.5" r="1.5" fill="#0083E4"/>
<circle cx="34.5" cy="23.5" r="1.5" fill="#70C1FF"/>
<circle cx="29" cy="7" r="1.5" fill="#0083E4"/>
<circle cx="34.5" cy="7" r="1.5" fill="#70C1FF"/>
<circle cx="29" cy="1.5" r="1.5" fill="#70C1FF"/>
<circle cx="34.5" cy="1.5" r="1.5" fill="#70C1FF"/>
<circle cx="29" cy="29" r="1.5" fill="#0083E4"/>
<circle cx="34.5" cy="29" r="1.5" fill="#70C1FF"/>
<circle cx="29" cy="34.5" r="1.5" fill="#70C1FF"/>
<circle cx="34.5" cy="34.5" r="1.5" fill="#70C1FF"/>
<circle cx="1.5" cy="12.5" r="1.5" fill="#70C1FF"/>
<circle cx="7" cy="12.5" r="1.5" fill="#0083E4"/>
<circle cx="1.5" cy="18" r="1.5" fill="#70C1FF"/>
<circle cx="7" cy="18" r="1.5" fill="#0083E4"/>
<circle cx="1.5" cy="23.5" r="1.5" fill="#70C1FF"/>
<circle cx="7" cy="23.5" r="1.5" fill="#0083E4"/>
<circle cx="1.5" cy="7" r="1.5" fill="#70C1FF"/>
<circle cx="7" cy="7" r="1.5" fill="#0083E4"/>
<circle cx="1.5" cy="1.5" r="1.5" fill="#70C1FF"/>
<circle cx="7" cy="1.5" r="1.5" fill="#70C1FF"/>
<circle cx="1.5" cy="29" r="1.5" fill="#70C1FF"/>
<circle cx="7" cy="29" r="1.5" fill="#0083E4"/>
<circle cx="1.5" cy="34.5" r="1.5" fill="#70C1FF"/>
<circle cx="7" cy="34.5" r="1.5" fill="#70C1FF"/>
<circle cx="12.5" cy="29" r="1.5" fill="#0083E4"/>
<circle cx="12.5" cy="34.5" r="1.5" fill="#70C1FF"/>
<circle cx="18" cy="29" r="1.5" fill="#0083E4"/>
<circle cx="18" cy="34.5" r="1.5" fill="#70C1FF"/>
<circle cx="23.5" cy="29" r="1.5" fill="#0083E4"/>
<circle cx="23.5" cy="34.5" r="1.5" fill="#70C1FF"/>
<circle cx="12.5" cy="1.5" r="1.5" fill="#70C1FF"/>
<circle cx="12.5" cy="7" r="1.5" fill="#0083E4"/>
<circle cx="18" cy="1.5" r="1.5" fill="#70C1FF"/>
<circle cx="18" cy="7" r="1.5" fill="#0083E4"/>
<circle cx="23.5" cy="1.5" r="1.5" fill="#70C1FF"/>
<circle cx="23.5" cy="7" r="1.5" fill="#0083E4"/>
<circle cx="18" cy="18" r="7" fill="#0083E4"/>
</svg>
