<svg fill="none" height="32" viewBox="0 0 32 32" width="32" xmlns="http://www.w3.org/2000/svg"><path d="m27.0894 5.54081c-2.0396-.93585-4.2268-1.62533-6.5135-2.02023-.0417-.00762-.0833.01142-.1047.04952-.2813.50028-.5929 1.15295-.8111 1.66594-2.4596-.36823-4.9065-.36823-7.3157 0-.2182-.5244-.5411-1.16566-.8236-1.66594-.0215-.03683-.0631-.05587-.1047-.04952-2.28555.39363-4.47269 1.08312-6.51352 2.02023-.01767.00761-.03281.02032-.04286.03682-4.148531 6.19777-5.284987 12.24327-4.72748 18.21377.002523.0292.01892.0572.041624.075 2.737086 2.01 5.388416 3.2303 7.990506 4.0391.04165.0127.08577-.0025.11227-.0368.61553-.8406 1.16422-1.7269 1.63466-2.6589.02776-.0546.00126-.1194-.05548-.141-.87031-.3301-1.69902-.7326-2.49618-1.1897-.06305-.0369-.0681-.127-.0101-.1702.16776-.1257.33555-.2565.49573-.3886.02898-.0241.06937-.0292.10344-.0139 5.23699 2.391 10.90669 2.391 16.08189 0 .0341-.0165.0745-.0115.1047.0127.1602.132.328.2641.497.3898.058.0432.0542.1333-.0088.1702-.7972.4659-1.6259.8596-2.4975 1.1885-.0567.0216-.082.0876-.0542.1422.4805.9307 1.0292 1.817 1.6334 2.6576.0252.0356.0706.0508.1123.0381 2.6147-.8088 5.266-2.0291 8.0031-4.0391.024-.0178.0391-.0445.0416-.0737.6672-6.9026-1.1175-12.8985-4.7312-18.21381-.0089-.01776-.024-.03047-.0416-.03808zm-16.396 14.61519c-1.57674 0-2.87589-1.4475-2.87589-3.2252s1.27396-3.2253 2.87589-3.2253c1.6144 0 2.901 1.4603 2.8758 3.2253 0 1.7777-1.274 3.2252-2.8758 3.2252zm10.6329 0c-1.5766 0-2.8758-1.4475-2.8758-3.2252s1.2739-3.2253 2.8758-3.2253c1.6145 0 2.9011 1.4603 2.8759 3.2253 0 1.7777-1.2614 3.2252-2.8759 3.2252z" fill="#5a5a5a"/></svg>