<svg width="643" height="502" viewBox="0 0 643 502" fill="none" xmlns="http://www.w3.org/2000/svg">
<path d="M427.465 206.515C431.851 200.152 436.324 193.855 440.652 187.453C442.488 184.738 444.395 182.051 446.168 179.289C447.883 176.629 449.504 173.906 451.09 171.168C451.352 170.707 451.66 170.277 451.945 169.836C452.863 168.426 453.77 167.008 454.668 165.586C455.742 163.891 456.77 162.172 457.922 160.52C458.867 159.172 459.805 157.817 460.735 156.453C461.254 155.688 461.746 154.887 462.309 154.145C463.778 152.207 465.231 150.254 466.664 148.285C467.778 146.875 468.875 145.453 469.973 144.024C471.422 142.215 472.863 140.383 474.274 138.543C474.676 138.035 475.074 137.52 475.465 136.996C475.738 136.648 476.012 136.301 476.281 135.953C476.27 135.965 476.266 135.977 476.254 135.992C476.473 135.711 476.692 135.445 476.942 135.191C476.985 135.164 477.035 135.137 477.082 135.113C477.137 135.129 477.196 135.141 477.25 135.156C477.254 135.156 477.262 135.152 477.262 135.152C477.156 135.066 477.043 135.035 476.926 135.035C476.524 135.035 476.047 135.426 475.746 135.605C475.168 135.945 474.606 136.293 474.043 136.66C472.973 137.348 471.922 138.066 470.875 138.793C468.637 140.352 466.43 141.945 464.238 143.57C461.871 145.336 459.563 147.195 457.262 149.047C455.172 150.734 453.203 152.562 451.207 154.355C449.442 155.941 447.797 157.613 446.145 159.324C444.547 160.977 442.867 162.59 441.422 164.383C438.965 167.422 436.543 170.504 434.258 173.68C433.414 174.859 432.582 176.059 431.766 177.266C430.527 179.09 429.477 181.059 428.41 182.988C424.727 189.695 421.562 196.765 419.164 204.031C416.824 211.137 415.215 218.457 414 225.832C414 225.836 414.004 225.844 414.012 225.836C418.606 219.457 423.012 212.973 427.465 206.516L427.465 206.515Z" fill="black"/>
<path d="M322.389 186.808C321.819 185.043 321.178 183.297 320.506 181.566C319.846 179.859 319.186 178.129 318.412 176.469C316.279 171.875 314.076 167.285 311.608 162.86C308.893 158 306.076 153.195 303.178 148.438C301.822 146.207 300.494 143.953 299.006 141.809C297.975 140.332 296.936 138.856 295.885 137.395C295.19 136.426 294.416 135.52 293.65 134.605C292.576 133.312 291.459 132.074 290.307 130.852C289.115 129.59 287.803 128.465 286.576 127.246C286.533 127.191 286.486 127.129 286.443 127.074C286.428 127.023 286.416 126.973 286.4 126.918L286.396 126.914L286.393 126.918C286.377 127.297 286.623 127.617 286.803 127.937C286.994 128.277 287.217 128.613 287.424 128.945C287.775 129.504 288.123 130.059 288.478 130.613C289.201 131.754 289.908 132.902 290.635 134.039C291.369 135.187 292.002 136.402 292.697 137.578C293.244 138.504 293.693 139.465 294.17 140.422C294.869 141.832 295.576 143.238 296.291 144.641C296.752 145.535 297.104 146.5 297.514 147.422C298.561 149.797 299.643 152.149 300.701 154.512C302.779 159.137 304.979 163.703 307.119 168.305C308.592 171.473 310.127 174.609 311.729 177.711C313.881 181.887 315.901 186.141 317.744 190.469C319.744 195.274 321.475 200.184 322.971 205.168C324.483 210.207 325.608 215.344 326.475 220.527C326.475 220.531 326.486 220.531 326.486 220.527C326.76 216.793 326.858 213.035 326.643 209.289C326.424 205.449 325.904 201.613 325.209 197.824C324.502 194.105 323.553 190.426 322.389 186.808L322.389 186.808Z" fill="black"/>
<path d="M123.379 174.474C124.89 175.071 126.41 175.661 127.926 176.239C129.023 176.661 130.133 177.04 131.219 177.493C138.113 180.434 144.844 183.696 151.356 187.423C154.711 189.345 158.035 191.302 161.324 193.337C164.571 195.341 167.742 197.466 170.934 199.54C175.723 202.653 180.481 205.79 185.375 208.735C187.426 209.974 189.445 211.266 191.5 212.497C194.281 214.173 197.094 215.806 199.91 217.434C199.914 217.438 199.922 217.431 199.914 217.423C197.723 214.868 195.484 212.364 193.207 209.895C191.594 208.142 189.992 206.368 188.309 204.688C183.984 200.372 179.594 196.071 174.918 192.126C168.859 187.021 162.406 182.361 155.277 178.853C148.066 175.31 140.465 172.658 132.66 170.791C127.613 169.588 122.472 168.877 117.379 167.951C114.988 167.521 112.586 167.123 110.183 166.736C108.062 166.389 105.949 165.998 103.832 165.627C103.828 165.627 103.82 165.631 103.828 165.639C104.824 166.314 105.808 166.986 106.875 167.561C107.996 168.158 109.125 168.721 110.281 169.252C112.425 170.244 114.617 171.135 116.816 171.994C118.996 172.85 121.207 173.611 123.379 174.475L123.379 174.474Z" fill="black"/>
<path d="M543.304 44.1562C543.121 44.0508 542.918 44 542.722 44C542.312 44 541.922 44.2109 541.691 44.582C541.187 45.3945 540.773 46.25 540.429 47.1367C540.238 46.9531 540.008 46.8242 539.742 46.7266C539.195 46.5235 538.64 46.3555 538.078 46.1992C537.867 46.1367 537.636 46.1055 537.422 46.0586C537.199 46.0156 536.972 45.9453 536.746 45.9141C535.742 45.7696 534.742 45.6172 533.734 45.5117C532.816 45.4102 531.91 45.3164 530.992 45.25C530.101 45.1758 529.211 45.0821 528.32 45.0469C526.515 44.9727 524.718 44.8633 522.91 44.8555C521.578 44.8516 520.238 44.8399 518.906 44.8399C518.367 44.8399 517.824 44.8399 517.289 44.8438C513.093 44.8867 508.898 44.9492 504.707 45.0352C500.925 45.1094 497.148 45.2657 493.367 45.3946C491.738 45.4492 490.101 45.5899 488.472 45.6953C486.808 45.8008 485.136 45.8672 483.476 46.0157C479.851 46.3282 476.23 46.6367 472.605 46.9571C470.578 47.1368 468.55 47.3086 466.523 47.4883C465.39 47.5899 464.261 47.711 463.129 47.7852C459.586 48.0196 456.039 48.293 452.496 48.4532C451.617 48.4922 450.882 49.1602 450.882 50.0665C450.882 50.918 451.617 51.7188 452.496 51.6798C453.257 51.6446 454.015 51.6016 454.773 51.5548C454.769 51.8399 454.761 52.1251 454.757 52.4102C454.707 52.4063 454.656 52.3829 454.601 52.3829C454.277 52.3829 453.941 52.4844 453.683 52.6368C453.292 52.8673 452.996 53.2462 452.878 53.6915C452.753 54.1446 452.816 54.6446 453.058 55.047C453.304 55.4689 453.664 55.6915 454.113 55.8595C454.316 55.9337 454.515 56.004 454.71 56.0782C454.707 57.004 454.707 57.9259 454.699 58.8438C454.687 61.4297 454.687 64.0196 454.703 66.6016C454.707 67.6563 454.699 68.7072 454.726 69.754C454.765 71.2032 454.812 72.6562 454.851 74.1055C454.925 76.5977 455.019 79.0899 455.113 81.5821C455.207 84.086 455.316 86.5821 455.421 89.0821C455.46 90.047 455.523 91.008 455.578 91.9728C455.644 93.133 455.691 94.293 455.785 95.4493C455.992 98.0079 456.21 100.567 456.445 103.125C456.624 105.106 456.804 107.09 456.976 109.078C456.484 109.133 455.992 109.184 455.499 109.242C455.332 109.266 455.164 109.285 454.996 109.309C454.675 109.399 454.398 109.563 454.156 109.797C453.804 110.149 453.601 110.637 453.601 111.141C453.601 111.645 453.804 112.125 454.156 112.485C454.48 112.809 455.023 113.094 455.499 113.043C456.136 112.969 456.777 112.91 457.414 112.836C457.468 112.942 457.543 113.043 457.632 113.137C457.894 113.399 458.253 113.547 458.625 113.547C459.214 113.547 459.796 113.121 459.972 112.555C464.168 112.094 468.367 111.637 472.562 111.188C474.238 111.008 475.918 110.891 477.597 110.75C479.328 110.606 481.058 110.449 482.793 110.34C485.004 110.207 487.219 110.028 489.429 109.93C491.73 109.836 494.031 109.735 496.336 109.637C500.601 109.457 504.875 109.469 509.133 109.801C510.785 109.93 512.43 110.094 514.07 110.305C515.43 110.485 516.793 110.664 518.152 110.836C518.344 110.86 518.527 110.887 518.719 110.91C520.148 111.102 521.582 111.297 523.008 111.488C524.43 111.68 525.863 111.801 527.293 111.953C527.941 112.02 528.598 112.043 529.246 112.082C529.851 112.121 530.457 112.156 531.058 112.176C532.558 112.238 534.055 112.254 535.555 112.164C536.019 112.137 536.433 111.996 536.769 111.66C536.871 111.559 536.953 111.442 537.023 111.324C537.265 111.309 537.504 111.235 537.691 111.121C538.023 110.926 538.269 110.606 538.367 110.242C538.473 109.844 538.394 109.406 538.183 109.063C538.223 108.778 538.238 108.492 538.25 108.211C538.265 107.863 538.273 107.512 538.285 107.164C538.32 105.871 538.359 104.582 538.418 103.289C538.558 100.395 538.75 97.5001 538.949 94.6095C539.039 93.3048 539.129 92.0001 539.219 90.6954C539.32 89.2618 539.359 87.8243 539.43 86.3907C539.457 85.8321 539.457 85.2657 539.469 84.7032C539.492 83.7618 539.512 82.8204 539.535 81.8751C539.57 80.5157 539.562 79.1524 539.578 77.7931C539.601 75.1954 539.629 72.5978 539.719 69.9962C539.762 68.6759 539.781 67.3478 539.875 66.0274C540 64.293 540.121 62.5626 540.246 60.8243C540.34 59.4962 540.519 58.1681 540.695 56.8477C540.914 55.2813 541.187 53.711 541.496 52.1602C541.789 50.6758 542.129 49.1797 542.695 47.7735C542.996 47.086 543.332 46.4063 543.73 45.7618C544.074 45.2188 543.851 44.4688 543.305 44.1563L543.304 44.1562ZM456.562 52.9921V52.9257C456.562 52.4257 456.551 51.9336 456.547 51.4374C457.59 51.371 458.629 51.3046 459.672 51.2343C461.129 51.1406 462.59 51.0624 464.047 50.9335C467.828 50.6132 471.601 50.289 475.383 49.9804C477.871 49.7773 480.355 49.582 482.844 49.3828C484.273 49.2695 485.707 49.1992 487.141 49.121C488.484 49.0429 489.836 48.9687 491.18 48.8906C491.812 48.8554 492.445 48.8007 493.078 48.7851C495.144 48.7226 497.211 48.6679 499.277 48.6132C506.769 48.4062 514.269 48.371 521.761 48.4453C526.265 48.4882 530.761 48.7929 535.234 49.289C535.027 49.414 534.812 49.5312 534.613 49.664C534.305 49.8671 534.008 50.0859 533.711 50.2968C533.129 50.7226 532.562 51.1874 532.004 51.6445C530.891 52.5625 529.781 53.4883 528.676 54.4179C526.52 56.2304 524.418 58.121 522.32 59.996C518.305 63.5819 514.328 67.2148 510.332 70.816C508.133 72.7926 505.93 74.7691 503.731 76.7457C500.699 74.7027 497.574 72.8082 494.418 70.9723C491.153 69.0739 487.856 67.2418 484.512 65.4801C482.973 64.6676 481.442 63.8121 479.875 63.0543C477.602 61.9605 475.332 60.8629 473.067 59.7652C472.457 59.4722 471.852 59.1754 471.242 58.8863C470.61 58.5855 469.938 58.3472 469.293 58.0816C466.817 57.0699 464.336 56.0543 461.863 55.0347C461.196 54.7613 460.531 54.4878 459.863 54.2183C458.77 53.7886 457.664 53.3902 456.563 52.9917L456.562 52.9921ZM459.238 104.566C458.93 102.113 458.641 99.656 458.383 97.2029C457.902 92.5701 457.621 87.9255 457.379 83.2768C457.254 80.8627 457.109 78.4449 457.008 76.0308C456.906 73.5738 456.773 71.1206 456.726 68.6597C456.691 66.9722 456.66 65.2847 456.637 63.5972C456.84 63.4526 456.976 63.2104 456.969 62.9526C456.879 60.8979 456.785 58.8432 456.707 56.7924C457.586 57.1166 458.461 57.4487 459.328 57.8002C460.59 58.3158 461.855 58.8354 463.113 59.3588C465.242 60.2338 467.363 61.1127 469.492 61.9799C471.328 62.8744 473.164 63.7611 475.008 64.6518C476.426 65.3393 477.852 65.9956 479.242 66.7338C481.086 67.7143 482.922 68.6947 484.766 69.6674C484.039 70.5424 483.305 71.4135 482.582 72.2924C481.824 73.2104 481.055 74.1244 480.312 75.0541L474.465 82.3783C472.809 84.4603 471.16 86.5502 469.527 88.6556C468.687 89.7415 467.859 90.847 467.058 91.9603C466.68 92.4877 466.293 93.0072 465.922 93.5384C465.5 94.1556 465.066 94.7611 464.668 95.3861C464.051 96.351 463.437 97.308 462.848 98.2806C462.277 99.2259 461.723 100.183 461.168 101.144C460.621 102.089 460.086 103.046 459.551 104.007C459.433 104.187 459.34 104.378 459.238 104.566L459.238 104.566ZM529.691 108.476C528.785 108.398 527.879 108.344 526.968 108.234C525.914 108.109 524.859 107.988 523.804 107.863C522.125 107.621 520.445 107.371 518.765 107.144C517.418 106.961 516.062 106.773 514.711 106.59C513.082 106.367 511.453 106.187 509.816 106.035C507.043 105.781 504.261 105.676 501.484 105.676C499.855 105.676 498.218 105.715 496.59 105.781C494.215 105.883 491.84 105.988 489.465 106.09C487.332 106.179 485.199 106.351 483.062 106.488C481.355 106.594 479.648 106.746 477.945 106.89C476.203 107.035 474.461 107.16 472.726 107.344C470.152 107.617 467.582 107.89 465.004 108.168C463.246 108.351 461.48 108.554 459.722 108.75C459.711 108.656 459.707 108.558 459.695 108.465C459.75 108.41 459.812 108.359 459.851 108.293C460.578 107.023 461.363 105.777 462.129 104.531C462.879 103.32 463.629 102.105 464.379 100.898C465.769 98.6599 467.222 96.4529 468.785 94.324C469.738 93.0232 470.707 91.7302 471.687 90.4529C475.16 85.9998 478.699 81.6052 482.226 77.2029C482.976 76.2615 483.749 75.3396 484.515 74.4099C485.441 73.2966 486.363 72.1794 487.293 71.074C487.316 71.0857 487.343 71.1014 487.367 71.1131C488.285 71.6287 489.203 72.1443 490.117 72.6522C491.211 73.2616 492.277 73.9178 493.359 74.5506C494.351 75.1326 495.336 75.7303 496.328 76.3318C498.398 77.5818 500.484 78.8084 502.566 80.0388C502.679 80.1169 502.8 80.1716 502.929 80.2185C502.964 80.2302 502.996 80.2419 503.035 80.2536C503.062 80.2575 503.089 80.2693 503.121 80.2693C503.82 80.4333 504.59 80.1365 504.968 79.4919C505.023 79.3982 505.07 79.3005 505.101 79.195C507.211 77.3005 509.32 75.402 511.425 73.5036C511.429 73.5193 511.437 73.5388 511.449 73.5583C511.582 73.9216 511.734 74.2771 511.886 74.6286C512.043 74.9997 512.207 75.363 512.379 75.7263C513.347 77.8083 514.355 79.8747 515.414 81.9216C515.996 83.0427 516.586 84.1599 517.183 85.2693C517.711 86.2498 518.269 87.2107 518.82 88.1795C519.918 90.117 521 92.0701 522.019 94.0545C523.093 96.1365 524.164 98.2264 525.324 100.265C526.484 102.305 527.804 104.254 529.273 106.086C529.711 106.633 530.164 107.168 530.664 107.672C531 108.011 531.359 108.32 531.722 108.625C531.035 108.582 530.363 108.531 529.691 108.476L529.691 108.476ZM539.578 49.8904C539.347 50.8239 539.168 51.7732 538.988 52.7185C538.793 53.7654 538.609 54.8123 538.449 55.8669C538.297 56.8747 538.168 57.8825 538.051 58.8903C537.976 59.5074 537.894 60.1208 537.847 60.738C537.785 61.5114 537.722 62.2771 537.668 63.0505C537.566 64.3435 537.433 65.6364 537.375 66.9294C537.301 68.4958 537.23 70.0699 537.164 71.6441C537.097 73.1675 537.086 74.695 537.047 76.2184C537.011 77.6559 536.996 79.0973 536.968 80.5348C536.926 83.1598 536.836 85.7809 536.687 88.402C536.386 93.9176 535.883 99.4179 535.633 104.933C535.59 105.937 535.566 106.933 535.566 107.933C535.265 107.8 534.961 107.66 534.676 107.492C534.265 107.249 533.875 106.992 533.496 106.718C532.851 106.191 532.234 105.636 531.683 105.023C531.105 104.386 530.562 103.722 530.031 103.046C527.32 99.3665 525.262 95.2728 523.074 91.2802C521.992 89.2997 520.824 87.3583 519.68 85.4169C518.5 83.413 517.359 81.3857 516.269 79.3349C515.742 78.3505 515.215 77.3583 514.695 76.3661C514.137 75.3036 513.586 74.2216 513.09 73.1239C513.344 73.4052 513.59 73.6903 513.828 73.9872C513.793 73.9442 513.762 73.8973 513.726 73.8583C513.969 74.1786 514.215 74.4911 514.453 74.8036C514.418 74.7645 514.387 74.7176 514.351 74.6747C514.441 74.7919 514.531 74.909 514.621 75.0262C514.726 75.1668 514.828 75.2723 515 75.3192C515.164 75.3622 515.34 75.3426 515.492 75.2528C515.765 75.0965 515.933 74.659 515.722 74.3778C515.004 73.4442 514.289 72.5145 513.492 71.6395C515.496 69.8348 517.508 68.034 519.511 66.2254C523.519 62.6121 527.515 58.9832 531.652 55.5184C532.527 54.784 533.406 54.0614 534.285 53.3465C534.762 52.9559 535.238 52.5613 535.707 52.1668C536.277 51.6785 536.828 51.1941 537.297 50.6082C537.5 50.3621 537.633 50.1277 537.633 49.7957C537.633 49.7215 537.606 49.6512 537.59 49.5769C538.02 49.6433 538.453 49.7176 538.883 49.7996C539.125 49.8504 539.352 49.8621 539.582 49.823C539.59 49.8426 539.582 49.866 539.578 49.8895L539.578 49.8904Z" fill="black"/>
<path d="M210.879 73.2387C211.32 73.8676 211.773 74.4926 212.226 75.1137C212.539 75.6684 212.847 76.2153 213.168 76.7699C214.265 78.684 215.34 80.6097 216.457 82.5199C218.648 86.266 220.844 90.0082 223.027 93.7579C224.992 97.129 226.918 100.527 228.851 103.918C229.937 105.82 231.031 107.715 232.133 109.613C233.066 111.219 234.015 112.82 234.922 114.445C236.215 116.754 237.504 119.066 238.844 121.351C237.89 122.097 236.945 122.851 235.992 123.609C235.738 123.812 235.613 124.219 235.613 124.527C235.613 124.867 235.746 125.203 235.992 125.445C236.234 125.687 236.57 125.824 236.91 125.824C237.285 125.824 237.547 125.668 237.828 125.445C238.93 124.57 240.023 123.68 241.133 122.82C241.91 122.222 242.711 121.644 243.508 121.062C243.394 121.582 243.719 122.125 244.234 122.265C244.804 122.422 245.328 122.074 245.511 121.543C245.781 120.754 245.961 119.945 246.117 119.137C246.941 118.527 247.769 117.914 248.594 117.305C249.695 116.488 250.804 115.668 251.914 114.851C252.511 114.402 253.152 114.012 253.773 113.598C256.769 111.586 259.762 109.578 262.762 107.566C264.844 106.168 266.957 104.789 269.051 103.406C274.023 100.117 279.012 96.8593 284.004 93.6054C285.945 92.3359 287.879 91.0585 289.816 89.7812C291.945 88.3828 294.082 87.0039 296.187 85.5703C298.968 83.6758 301.758 81.7773 304.543 79.8867C305.347 79.3398 306.14 78.7734 306.933 78.207C307.629 77.7187 308.328 77.2265 309.023 76.7382C309.394 77.0507 309.941 77.1405 310.371 76.871C315.051 73.9296 319.562 70.7382 324.035 67.5077C326.152 65.9804 328.281 64.4882 330.429 63.0116C330.765 62.7811 331.105 62.5506 331.449 62.3241C331.824 62.078 332.187 61.8202 332.55 61.5506C332.757 61.3983 332.976 61.2538 333.168 61.0819C333.203 61.0545 333.23 61.0194 333.257 60.9881H333.332C334.031 60.9647 334.613 60.4178 334.613 59.7069C334.613 59.1757 334.277 58.7147 333.812 58.5272C333.671 58.2929 333.48 58.0858 333.304 57.8827C333.086 57.6366 332.867 57.3788 332.648 57.1249C331.847 56.1718 331.07 55.203 330.269 54.246C328.617 52.2694 326.902 50.3358 325.164 48.4335C323.398 46.5077 321.613 44.5976 319.867 42.6562C318.148 40.7421 316.441 38.8242 314.75 36.8867C313.816 35.8164 312.89 34.7344 311.968 33.6562C311.089 32.621 310.234 31.5742 309.371 30.5195C307.707 28.4922 306.054 26.4531 304.386 24.4336C302.773 22.4844 301.156 20.543 299.582 18.5586C299.144 18.0117 298.707 17.4609 298.273 16.9063C297.726 16.1485 297.175 15.3985 296.628 14.6485C296.207 14.0704 295.789 13.5079 295.402 12.9063C294.773 11.9375 294.148 10.9727 293.519 10.0118C293.078 9.3282 292.679 8.61729 292.281 7.91019C291.878 7.19925 291.507 6.47269 291.156 5.73049C291.207 5.69142 291.257 5.65236 291.308 5.6133C292.816 4.3711 294.308 3.1211 295.765 1.8203C296.195 1.43358 296.156 0.707 295.765 0.3125C295.562 0.10938 295.296 0 295.015 0C294.706 0 294.488 0.125 294.265 0.3125C293.894 0.60938 293.527 0.906249 293.156 1.19922C293.101 1.23828 293.05 1.28516 292.992 1.32422C293.027 1.29687 293.058 1.27344 293.093 1.24609H293.089C292.835 1.4414 292.585 1.63282 292.331 1.82812C291.624 2.36718 290.921 2.91012 290.21 3.44142C289.902 2.56251 289.628 1.66802 289.371 0.769524C289.253 0.355464 288.871 0.0742149 288.456 0.0742149C288.371 0.0742149 288.292 0.0859332 288.21 0.109371C287.722 0.242181 287.41 0.777339 287.554 1.26957C287.796 2.10941 288.031 2.94927 288.304 3.77737C288.394 4.05862 288.511 4.33206 288.617 4.6055C288.343 4.80862 288.07 5.00394 287.789 5.20316C287.23 5.6055 286.636 5.96878 286.058 6.35156C284.999 7.05078 283.906 7.69926 282.828 8.36716C281.636 9.10544 280.413 9.79686 279.21 10.5078C276.964 11.8359 274.675 13.0937 272.406 14.3789C271.617 14.8203 270.82 15.246 270.031 15.6836C268.425 16.5625 266.824 17.4414 265.214 18.3203C263.343 19.3437 261.468 20.3594 259.593 21.3789C257.964 22.2656 256.339 23.1445 254.71 24.0273C254.023 24.4023 253.327 24.7655 252.644 25.1484C250.117 26.5703 247.597 28.0039 245.078 29.4336C243.253 30.4688 241.409 31.4766 239.601 32.543C235.058 35.2149 230.499 37.8555 225.972 40.5469C223.269 42.1524 220.57 43.7657 217.862 45.375C216.573 46.1406 215.288 46.9102 213.999 47.6719C213.499 47.9726 213.015 48.2773 212.526 48.6016C210.952 49.6368 209.374 50.668 207.796 51.7032C207.202 52.0938 206.608 52.4805 206.015 52.875C205.003 53.543 204.015 54.2461 203.019 54.9375C202.745 55.129 202.538 55.3516 202.448 55.6836C202.433 55.75 202.444 55.8243 202.433 55.8907C202.124 55.7852 201.823 55.6836 201.515 55.5782C201.409 55.5391 201.296 55.5235 201.191 55.5235C201.05 55.5235 200.917 55.5508 200.792 55.6016C200.64 55.6289 200.491 55.6758 200.355 55.7579C200.046 55.9375 199.816 56.2344 199.722 56.5821C199.632 56.9141 199.655 57.3555 199.862 57.6407C203.519 62.8243 207.198 68.0317 210.878 73.2387H210.879ZM327.039 61.8207C326.882 61.7465 326.707 61.7035 326.535 61.7035C326.332 61.7035 326.132 61.7543 325.953 61.8675C323.562 63.3558 321.242 64.9456 318.925 66.5394C316.371 68.2933 313.836 70.0746 311.304 71.8519C308.945 73.5081 306.582 75.1606 304.218 76.8129C302.023 78.352 299.793 79.8441 297.578 81.3481C295.679 82.6372 293.781 83.9183 291.867 85.1839C289.105 87.0042 286.351 88.8284 283.59 90.6487C279.351 93.4495 275.09 96.2034 270.86 99.0081C267.965 100.93 265.063 102.856 262.168 104.778C259.985 106.227 257.817 107.707 255.637 109.172C254.215 110.129 252.793 111.086 251.371 112.043C250.879 112.375 250.403 112.715 249.926 113.067C248.844 113.867 247.766 114.668 246.68 115.469C246.707 115.278 246.735 115.09 246.766 114.899C247.098 112.621 247.348 110.328 247.551 108.031C247.754 105.711 247.942 103.399 248.149 101.086C248.344 98.8634 248.649 96.6525 248.938 94.4377C248.961 94.2698 248.981 94.1057 249.004 93.9377C249.301 91.9455 249.575 89.9377 249.883 87.9455C250.219 85.7541 250.555 83.5666 250.895 81.3752C251.207 79.383 251.5 77.383 251.84 75.3947C252.293 72.7502 252.742 70.1017 253.219 67.4611C255.012 67.8752 256.813 68.2111 258.645 68.465C258.629 68.465 258.61 68.4611 258.594 68.4611C258.684 68.4729 258.778 68.4846 258.868 68.5002H258.864C259.16 68.5393 259.461 68.6057 259.758 68.6174C259.844 68.6291 259.93 68.6408 260.016 68.6525C260.196 68.676 260.379 68.7033 260.559 68.7268C260.504 68.7229 260.446 68.7111 260.391 68.7033C260.465 68.715 260.532 68.7189 260.602 68.7307C260.653 68.7346 260.703 68.7463 260.758 68.7541C260.735 68.7502 260.715 68.7502 260.692 68.7424C260.731 68.7463 260.778 68.7541 260.817 68.758H260.805C260.793 68.758 260.778 68.7541 260.766 68.7541C260.778 68.7541 260.782 68.7541 260.793 68.758C260.766 68.7541 260.739 68.7541 260.707 68.7463C260.782 68.758 260.852 68.7697 260.926 68.7736C260.891 68.7697 260.852 68.7619 260.821 68.758C260.825 68.758 260.836 68.758 260.844 68.7619C260.856 68.7619 260.86 68.7619 260.871 68.7658H260.868C260.879 68.7658 260.891 68.7697 260.903 68.7697C260.891 68.7697 260.887 68.7697 260.875 68.7658C260.961 68.7775 261.039 68.7893 261.121 68.801C261.145 68.8049 261.172 68.8049 261.196 68.8127C261.18 68.8127 261.16 68.8088 261.145 68.8088C261.168 68.8088 261.184 68.8127 261.207 68.8127C263.805 69.1604 266.426 69.3674 269.032 69.6994C269.274 69.7346 269.508 69.7658 269.75 69.801C269.883 69.8166 270.012 69.8361 270.141 69.8518C270.254 70.301 270.59 70.6799 271.055 70.8088C271.742 71.0002 272.453 70.5783 272.653 69.9025C273.754 66.1291 274.942 62.383 276.102 58.6255C282.305 58.3013 288.528 58.4029 294.739 58.6412C297.731 58.7584 300.719 58.8599 303.712 58.9224C306.786 58.9849 309.868 59.0552 312.922 59.4146C313.258 59.4537 313.598 59.4927 313.934 59.5318C315.329 59.7427 316.723 59.981 318.118 60.231C319.833 60.5318 321.555 60.8365 323.294 60.9966C324.094 61.0748 324.891 61.1294 325.692 61.1646C326.426 61.192 327.165 61.1763 327.899 61.1607C327.95 61.1607 327.993 61.1568 328.044 61.1568C327.688 61.3716 327.364 61.5982 327.04 61.8209L327.039 61.8207ZM288.277 13.7657C288.472 12.8907 288.675 12.0235 288.906 11.1602C289.113 10.3711 289.386 9.60158 289.691 8.84768C289.835 8.51565 289.976 8.17971 290.116 7.84378C290.288 8.17972 290.452 8.51566 290.632 8.84768C290.995 9.50784 291.366 10.1797 291.773 10.8204C292.534 12.0079 293.292 13.1993 294.05 14.3829C294.363 14.8712 294.726 15.3282 295.062 15.7931C295.542 16.4649 296.027 17.1369 296.507 17.8087C296.788 18.1993 297.089 18.5704 297.386 18.9493C297.952 19.6758 298.523 20.4063 299.089 21.1329C300.663 23.1563 302.304 25.1329 303.909 27.1368C305.527 29.1524 307.116 31.1915 308.726 33.2188C311.995 37.3477 315.425 41.3399 318.828 45.3558C320.519 47.3558 322.261 49.3089 323.972 51.2855C325.625 53.1878 327.242 55.1175 328.843 57.0589C329.207 57.4964 329.589 57.9143 329.964 58.3401C329.336 58.3284 328.711 58.3245 328.082 58.3049C326.519 58.2659 324.968 58.1526 323.421 57.9651C320.503 57.5354 317.613 56.9182 314.691 56.4807C311.523 56.0041 308.312 55.9416 305.117 55.9377C303.554 55.9338 301.996 55.9494 300.437 55.9533C298.902 55.9533 297.367 55.926 295.839 55.9026C293.292 55.8635 290.738 55.8244 288.191 55.8244C287.636 55.8244 287.089 55.8244 286.535 55.8283C283.304 55.8518 280.074 55.9026 276.847 56.0471C277.199 54.8713 277.554 53.6955 277.89 52.508C278.691 49.6838 279.48 46.8557 280.293 44.0392C281.066 41.3673 281.878 38.7072 282.64 36.0314C284.214 30.4689 285.703 24.8864 287.007 19.2544C287.441 17.4419 287.863 15.606 288.277 13.7661L288.277 13.7657ZM207.199 55.0507C207.703 54.7186 208.206 54.3944 208.706 54.0663C210.234 53.0624 211.765 52.0624 213.292 51.0585C213.839 50.6991 214.386 50.3319 214.949 49.996C216.113 49.3007 217.284 48.6054 218.449 47.914C222.952 45.2382 227.449 42.5585 231.969 39.9179C234.84 38.2304 237.719 36.5468 240.594 34.8593C242.262 33.8788 243.961 32.9452 245.644 31.9921C248.355 30.4569 251.066 28.9296 253.777 27.3983C254.324 27.0858 254.879 26.7928 255.433 26.496C257.008 25.6444 258.582 24.7929 260.156 23.9413C262.094 22.8866 264.043 21.8475 265.976 20.789C267.535 19.9374 269.09 19.0937 270.648 18.2343C271.617 17.7069 272.59 17.1874 273.554 16.6484C274.769 15.9648 275.984 15.2773 277.199 14.5859C278.152 14.0468 279.113 13.5234 280.054 12.9687C281.375 12.1835 282.699 11.4062 284.019 10.6289C284.48 10.3593 284.922 10.0625 285.367 9.78511C285.797 9.51167 286.242 9.25386 286.672 8.97261C286.527 9.34761 286.371 9.71089 286.246 10.0937C285.816 11.3867 285.527 12.7187 285.222 14.0468C284.555 16.8866 283.902 19.7265 283.211 22.5663C281.851 28.1874 280.34 33.7733 278.758 39.3393C278.019 41.9331 277.269 44.5268 276.566 47.1362C275.762 50.1323 274.941 53.1284 274.086 56.1128C273.496 58.1558 272.855 60.1909 272.222 62.2222C271.797 63.5933 271.394 64.9761 270.984 66.355C270.894 66.3159 270.801 66.2769 270.711 66.2613C268.68 65.9019 266.621 65.7027 264.566 65.4839C263.121 65.3316 261.683 65.1597 260.242 64.9761C260.125 64.9488 259.996 64.9331 259.871 64.9331C259.629 64.9058 259.39 64.8706 259.152 64.8394C257.625 64.6089 256.101 64.3706 254.594 64.0347C254.223 63.9488 253.859 63.855 253.496 63.7613C252.976 63.5972 252.453 63.4409 251.929 63.3316C251.863 63.3159 251.789 63.3042 251.722 63.2925C251.215 63.148 250.699 62.9995 250.195 62.8394C250.031 62.7886 249.871 62.7652 249.707 62.7652C249.555 62.7652 249.406 62.7925 249.258 62.8316C247.902 62.6128 246.543 62.4448 245.18 62.2769C243.949 62.1206 242.715 61.9761 241.476 61.855C240.105 61.7261 238.734 61.5816 237.355 61.4761C234.59 61.2652 231.816 61.0503 229.051 60.8394C226.742 60.6675 224.441 60.4136 222.14 60.1909C220.644 59.98 219.156 59.7495 217.668 59.523C217.258 59.4605 216.84 59.4175 216.429 59.3316C215.781 59.1987 215.129 59.0698 214.476 58.9331C212.812 58.5933 211.148 58.2495 209.488 57.9136C209.113 57.8355 208.738 57.7066 208.367 57.6011C207.41 57.3316 206.453 57.0621 205.496 56.7964C205.304 56.7417 205.117 56.691 204.926 56.6324C205.683 56.0855 206.433 55.5543 207.199 55.0504L207.199 55.0507ZM206.191 59.4804C207.273 59.789 208.335 60.1171 209.433 60.3476C211.269 60.7265 213.113 61.1093 214.949 61.496C216.058 61.7264 217.171 61.8866 218.292 62.0624C219.66 62.2733 221.027 62.5311 222.398 62.6718C224.152 62.8553 225.91 63.0429 227.664 63.2265C229.011 63.3671 230.374 63.4686 231.73 63.578C233.05 63.6952 234.374 63.8085 235.699 63.9257C237.664 64.0976 239.628 64.3007 241.589 64.5077C243.382 64.6913 245.167 64.9452 246.953 65.1835C247.316 65.2382 247.679 65.2968 248.039 65.3515C248.261 65.8202 248.675 66.203 249.21 66.371C249.921 66.5936 250.64 66.8006 251.355 66.9999C250.855 69.7538 250.39 72.5233 249.917 75.2811C249.527 77.5663 249.195 79.8631 248.832 82.1483C248.187 86.2381 247.539 90.324 246.976 94.4212C246.667 96.6829 246.347 98.9446 246.136 101.214C245.917 103.55 245.71 105.89 245.499 108.226C245.347 109.855 245.164 111.48 244.96 113.105C244.781 114.41 244.585 115.703 244.355 117.003C244.343 117.081 244.328 117.156 244.316 117.234C243.257 118.019 242.206 118.796 241.148 119.581C240.98 119.706 240.816 119.839 240.648 119.96C238.773 116.613 236.828 113.308 234.847 110.015C233.929 108.492 232.992 106.98 232.085 105.453C231.078 103.749 230.062 102.046 229.062 100.339C227.96 98.4681 226.871 96.5814 225.753 94.722C224.539 92.7064 223.328 90.6829 222.121 88.6634C221.089 86.9446 220.058 85.2259 219.023 83.5111C218.535 82.6986 218.058 81.8822 217.578 81.0697C217.601 81.058 217.628 81.058 217.656 81.0424C218.234 80.7064 218.363 80.0072 218.078 79.4408C217.41 78.1205 216.671 76.8314 215.843 75.601C215.007 74.3627 214.164 73.1322 213.308 71.9057C211.679 69.5698 210.019 67.2651 208.374 64.9409C207.945 64.3354 207.519 63.7261 207.085 63.1167C206.984 62.9487 206.882 62.7808 206.777 62.6128C206.523 62.2026 206.277 61.7886 206.027 61.3823C205.773 60.9682 205.499 60.5815 205.214 60.1909C205.109 60.0385 204.96 59.9487 204.8 59.894C204.57 59.562 204.335 59.2338 204.101 58.9018C204.8 59.0893 205.495 59.2846 206.191 59.4799L206.191 59.4804Z" fill="black"/>
<path d="M261.369 68.8286C261.314 68.8247 261.255 68.813 261.197 68.8052C261.162 68.8013 261.13 68.7935 261.091 68.7896C261.107 68.7896 261.119 68.7935 261.134 68.7935C261.123 68.7935 261.119 68.7935 261.107 68.7896C261.044 68.7856 260.978 68.7739 260.916 68.7622C260.97 68.7661 261.029 68.7778 261.083 68.7856C261.185 68.8013 261.275 68.8169 261.369 68.8286V68.8286Z" fill="black"/>
<path d="M260.609 68.7285C260.593 68.7285 260.581 68.7246 260.566 68.7246C260.609 68.7285 260.656 68.7363 260.706 68.7402C260.679 68.7363 260.644 68.7285 260.609 68.7285V68.7285Z" fill="black"/>
<path d="M5.12866 150.043L5.10913 150.012L5.0896 149.993L5.12866 150.043Z" fill="black"/>
<path d="M5.12866 150.034L5.10132 149.995L5.11304 150.014L5.12866 150.034Z" fill="black"/>
<path d="M48.8289 172.684L48.8367 172.715V172.691L48.8289 172.684Z" fill="black"/>
<path d="M105.899 131.023C106.621 131.449 107.489 131.168 107.93 130.492C108.438 129.707 108.992 128.965 109.555 128.215C109.551 128.227 109.539 128.238 109.532 128.242C109.824 127.863 110.121 127.481 110.418 127.102C111.571 125.656 112.739 124.231 113.914 122.813C114.391 122.242 114.883 121.691 115.375 121.137C116.059 120.363 116.746 119.602 117.442 118.84C117.528 118.926 117.61 119.004 117.688 119.094C118.074 119.535 118.797 119.582 119.278 119.301C119.481 119.184 119.629 119.027 119.746 118.832C119.91 118.551 120 118.133 119.879 117.82C119.84 117.715 119.801 117.613 119.754 117.508C120.461 117.406 121.16 117.289 121.86 117.156C122.25 117.078 122.617 116.758 122.817 116.422C123.028 116.051 123.09 115.605 122.973 115.191C122.867 114.793 122.598 114.445 122.238 114.238C121.985 114.094 121.719 114.027 121.449 114.027C121.305 114.027 121.156 114.043 121.012 114.078C120.094 114.273 119.176 114.457 118.25 114.605C117.887 114.648 117.524 114.684 117.156 114.723C116.86 114.477 116.563 114.234 116.266 113.984C115.192 113.078 114.145 112.129 113.114 111.168C111.059 109.234 109.074 107.227 107.028 105.281C104.985 103.34 102.871 101.48 100.762 99.6094C99.6136 98.5977 98.4886 97.5664 97.3792 96.5196C96.3675 95.5625 95.4026 94.5469 94.4495 93.5235C92.4183 91.3282 90.3597 89.1563 88.262 87.0235C86.2698 84.9962 84.2347 83.0157 82.1956 81.0313C81.3714 80.2305 80.5589 79.418 79.7698 78.5782C78.801 77.5548 77.8596 76.5001 76.9807 75.3985C77.0041 75.168 77.0237 74.9375 77.0354 74.711C77.0627 74.2617 76.969 73.7813 76.8635 73.3438C76.7698 72.9336 76.4026 72.5977 76.008 72.4883C75.9026 72.4609 75.7971 72.4453 75.6877 72.4453C75.4924 72.4453 75.301 72.4961 75.133 72.5781C74.9416 72.2539 74.7541 71.9297 74.5666 71.5977C74.3557 71.2109 73.9299 71 73.508 71C73.2971 71 73.0822 71.0508 72.8986 71.1641C72.3166 71.5039 72.1369 72.2579 72.4611 72.8399C72.5627 73.0234 72.6682 73.2031 72.7697 73.3828C72.6057 73.4063 72.4572 73.4453 72.34 73.5352C71.1017 74.4805 69.8322 75.3907 68.5939 76.336C67.9377 76.836 67.2932 77.3399 66.6721 77.8712C66.1447 78.3204 65.6368 78.7852 65.1251 79.2501C63.0196 81.1642 60.9416 83.1095 58.8518 85.047C56.7424 87.0079 54.6057 88.9572 52.5588 90.9845C50.3869 93.1251 48.2423 95.2892 46.1173 97.4845C43.9845 99.6837 41.8282 101.859 39.6446 104.016C37.6329 105.996 35.6055 107.957 33.5977 109.941C31.5196 111.992 29.461 114.051 27.3985 116.113C25.1485 118.359 22.8907 120.598 20.6173 122.82C18.5626 124.832 16.4962 126.824 14.4337 128.828C13.3985 129.84 12.3634 130.855 11.336 131.875C10.254 132.945 9.19545 134.043 8.14465 135.133C7.18762 136.125 6.28525 137.164 5.37125 138.191C4.31655 139.363 3.30485 140.578 2.38685 141.856C1.80873 142.652 1.26184 143.457 0.836044 144.344C0.437604 145.18 0.199323 146.09 0.0352629 147C-0.0272371 147.348 -0.0194212 147.656 0.164177 147.969C0.328237 148.25 0.601677 148.461 0.914177 148.547C1.2384 148.637 1.58996 148.59 1.88293 148.422C2.14074 148.27 2.40245 147.973 2.46104 147.672C2.50011 147.461 2.55089 147.25 2.60167 147.043C2.77355 147.266 2.94151 147.484 3.11729 147.711C3.67588 148.434 4.24229 149.149 4.80479 149.871C4.87119 149.961 4.9962 150.016 5.11338 150.043C5.11338 150.047 5.11728 150.047 5.11728 150.055C5.11728 150.051 5.11338 150.051 5.11338 150.043C6.27748 151.551 7.45318 153.051 8.62508 154.555C8.98836 155.024 9.38289 155.473 9.76568 155.934C10.5625 156.891 11.3555 157.848 12.1563 158.805C12.4922 159.207 12.8125 159.617 13.1641 160.008C13.8203 160.734 14.4805 161.469 15.1368 162.199C16.1837 163.363 17.2149 164.551 18.3009 165.684C19.129 166.551 19.9571 167.426 20.7892 168.293C21.3087 168.84 21.8204 169.395 22.3517 169.934C23.7111 171.324 25.0939 172.695 26.4689 174.07C27.6798 175.285 28.9259 176.457 30.1603 177.648C31.3908 178.84 32.6681 179.988 33.9298 181.148C35.1212 182.246 36.336 183.32 37.547 184.402C38.8165 185.543 40.09 186.68 41.3556 187.828C42.2853 188.672 43.2111 189.531 44.1564 190.359C44.5431 190.699 44.9298 191.035 45.3166 191.371C44.9181 191.758 44.5197 192.148 44.1252 192.543C43.6447 193.02 43.6486 193.824 44.1252 194.301C44.6056 194.781 45.4025 194.777 45.883 194.301C46.3361 193.848 46.797 193.395 47.2502 192.941C47.3791 193.043 47.4963 193.144 47.6252 193.242C47.758 193.32 47.9103 193.359 48.0666 193.359C48.2971 193.359 48.5197 193.266 48.6838 193.102C48.8478 192.937 48.9416 192.715 48.9416 192.484C48.9416 192.273 48.8517 192.004 48.6838 191.863C48.6174 191.809 48.5549 191.746 48.4807 191.691C48.6603 191.512 48.8283 191.328 49.008 191.148C49.0861 191.598 49.1877 192.035 49.3166 192.469C49.4416 192.891 49.8205 193.191 50.2619 193.191C50.7619 193.191 51.2853 192.742 51.2424 192.211C51.176 191.406 51.1525 190.598 51.0783 189.793C51.0549 189.547 51.0353 189.301 51.0041 189.055C52.0588 187.93 53.1096 186.797 54.1682 185.672C55.4065 184.344 56.6487 183.016 57.8909 181.691C58.3323 181.223 58.7464 180.746 59.1682 180.254C61.5666 177.422 63.9612 174.594 66.3596 171.758C68.1135 169.687 69.8362 167.582 71.5784 165.492C72.1448 164.809 72.7112 164.133 73.2737 163.449C73.4963 163.18 73.7112 162.902 73.9456 162.644C74.8323 161.664 75.6995 160.668 76.5784 159.684C77.8831 158.215 79.1839 156.75 80.4886 155.281C80.9768 154.727 81.4729 154.195 81.9769 153.656C84.3831 151.129 86.7933 148.605 89.1957 146.078C89.9418 145.293 90.7074 144.539 91.4574 143.766C92.8168 142.375 94.1801 140.992 95.5394 139.605C97.4222 137.684 99.3363 135.797 101.239 133.898C102.555 132.59 103.875 131.277 105.203 129.973C105.246 130.363 105.485 130.777 105.899 131.023L105.899 131.023ZM75.2107 90.7654C75.66 87.5896 75.9334 84.3982 76.3084 81.2185C76.4022 80.3826 76.5116 79.5544 76.6092 78.7263C76.6756 78.8006 76.7381 78.8787 76.8006 78.949C77.7928 80.074 78.8123 81.1678 79.8592 82.242C80.867 83.2772 81.9022 84.285 82.9178 85.3162C83.9295 86.3474 84.9295 87.3865 85.9256 88.4295C87.9256 90.5076 89.8904 92.6248 91.8436 94.7459C92.828 95.8201 93.8084 96.8982 94.8514 97.9139C95.8748 98.9217 96.9217 99.9022 97.9998 100.848C100.18 102.769 102.375 104.668 104.484 106.66C106.523 108.582 108.5 110.57 110.512 112.523C111.347 113.336 112.207 114.125 113.066 114.91C112.019 114.922 110.976 114.933 109.93 114.949C106.91 114.988 103.902 115.078 100.898 115.289C97.8905 115.5 94.8905 115.871 91.8749 116.012C88.8163 116.152 85.7616 116.246 82.6952 116.312C80.6679 116.351 78.6366 116.375 76.6014 116.445C74.6873 116.512 72.7772 116.601 70.867 116.699C71.0467 115.808 71.2303 114.918 71.41 114.027C71.7186 112.527 71.9764 111.027 72.2342 109.515C72.7655 106.43 73.2654 103.34 73.7615 100.246C74.2889 97.1015 74.7615 93.9374 75.2107 90.7655L75.2107 90.7654ZM3.39075 144.816C3.50794 144.789 3.62512 144.766 3.74231 144.738C4.19543 144.637 4.64465 144.543 5.09781 144.441C5.22281 144.414 5.29311 144.273 5.26186 144.156C5.22671 144.027 5.09781 143.965 4.97671 143.992C4.56265 144.09 4.14858 144.172 3.7384 144.258C4.12902 143.641 4.56263 143.047 5.00401 142.473C6.38681 140.727 7.9102 139.102 9.4063 137.453C9.82036 136.992 10.2696 136.563 10.7071 136.113C11.1837 135.625 11.6407 135.133 12.129 134.656C14.2813 132.551 16.4337 130.449 18.6095 128.375C20.8439 126.242 23.0743 124.098 25.297 121.953C27.3087 120.012 29.2775 118.031 31.2618 116.067C33.3048 114.039 35.3556 112.012 37.4259 110.012C39.6095 107.906 41.8204 105.817 43.965 103.668C44.9572 102.676 45.9533 101.691 46.9338 100.688C47.9533 99.6406 48.965 98.5937 49.9924 97.5586C52.2112 95.3203 54.4455 93.1016 56.719 90.9219C58.7073 89.0196 60.7346 87.1524 62.7346 85.2657C63.844 84.2188 64.9573 83.1641 66.0627 82.1134C67.0666 81.1564 68.0549 80.1798 69.1096 79.2814C69.926 78.5744 70.7737 77.9103 71.6252 77.2502C71.6213 77.2541 71.6135 77.262 71.6096 77.2659C71.6369 77.2424 71.6604 77.2268 71.6877 77.2034C71.6721 77.219 71.6486 77.2307 71.633 77.2463C71.7072 77.1916 71.7736 77.1409 71.844 77.0823C71.8479 77.0784 71.8557 77.0784 71.8596 77.0706C71.8635 77.0667 71.8713 77.0666 71.8752 77.0588C71.8479 77.0588 71.84 77.0588 71.84 77.0627C72.5158 76.5354 73.1956 76.0158 73.8635 75.4846C73.8986 75.4495 73.9142 75.4104 73.9416 75.3792C73.8556 75.9612 73.7619 76.5433 73.6681 77.1214C73.426 78.5589 73.1994 80.0003 72.9963 81.4495C72.8009 82.8714 72.6486 84.2933 72.4884 85.7229C72.3205 87.1838 72.1486 88.6409 71.9689 90.0979C71.5431 93.1682 71.0939 96.2346 70.6251 99.2971C70.1759 102.215 69.7384 105.133 69.254 108.039C68.9962 109.567 68.7657 111.098 68.4571 112.613C68.2384 113.715 68.0196 114.82 67.797 115.922C67.6954 116.438 67.6056 116.957 67.4845 117.469C67.0431 119.332 66.5938 121.199 66.1525 123.063C65.8986 124.137 65.6525 125.207 65.3556 126.27C64.7579 128.422 64.1564 130.571 63.5587 132.723C62.8829 135.153 62.1759 137.578 61.4649 139.996C61.3477 140.387 61.4102 140.797 61.5938 141.137C61.0626 141.152 60.5313 141.16 59.9961 141.188C59.1563 141.238 58.3164 141.289 57.4805 141.34C55.875 141.434 54.2617 141.543 52.6524 141.649C51.2579 141.742 49.8712 141.86 48.4805 141.996C47.7188 142.07 46.9571 142.141 46.1953 142.207C46.0937 141.797 45.7656 141.473 45.3086 141.473C44.832 141.473 44.375 141.883 44.3828 142.375C43.9922 142.41 43.5937 142.449 43.2031 142.488C39.9726 142.785 36.7304 143.016 33.4922 143.274C30.7422 143.492 27.9883 143.711 25.2383 143.945C21.7149 144.246 18.1992 144.551 14.6723 144.84C14.145 144.883 13.6176 144.942 13.0864 144.969C12.2583 145.008 11.4223 145.055 10.5942 145.094C9.63718 145.145 8.68401 145.188 7.72701 145.238C7.22701 145.262 6.73482 145.262 6.23871 145.266C5.68402 145.266 5.12931 145.254 4.57461 145.231C4.30117 145.219 4.02773 145.195 3.74649 145.168C3.57461 145.152 3.40665 145.141 3.23087 145.129C3.28555 145.031 3.33634 144.926 3.39103 144.817L3.39075 144.816ZM4.94935 149.801C4.95326 149.805 4.95326 149.805 4.96107 149.813C4.96497 149.816 4.96497 149.824 4.97279 149.828L4.96107 149.816C4.96107 149.813 4.95326 149.809 4.94935 149.801ZM4.96497 149.82C4.96888 149.824 4.97669 149.836 4.9806 149.844C4.99232 149.859 5.00404 149.871 5.01575 149.887C5.00013 149.863 4.9806 149.84 4.96497 149.82ZM47.633 188.972C47.2931 189.336 46.9377 189.683 46.5861 190.035C45.8517 189.379 45.1252 188.726 44.3947 188.07C43.1681 186.972 41.9299 185.89 40.6916 184.812C39.2541 183.558 37.8127 182.304 36.3791 181.043C35.0236 179.855 33.6838 178.652 32.3479 177.449C31.0315 176.269 29.762 175.035 28.4729 173.82C27.2424 172.656 26.0471 171.453 24.8401 170.258C24.3518 169.777 23.8479 169.304 23.3713 168.812C22.7814 168.203 22.1916 167.59 21.6018 166.98C20.4885 165.828 19.3518 164.695 18.2737 163.515C16.8753 161.98 15.4729 160.445 14.0784 158.906C13.6877 158.476 13.3284 158.015 12.9534 157.566C12.1526 156.613 11.3518 155.656 10.5472 154.703C10.2073 154.293 9.85186 153.89 9.52377 153.476C8.8558 152.625 8.19177 151.781 7.51987 150.929C6.41827 149.523 5.32067 148.117 4.21517 146.711C4.19173 146.683 4.1722 146.656 4.14877 146.621C4.12142 146.578 4.08627 146.531 4.05502 146.496C3.91049 146.312 3.76205 146.125 3.62533 145.941C3.62142 145.929 3.6097 145.926 3.60189 145.914C3.83627 145.941 4.06673 145.976 4.30111 146.004C4.8558 146.058 5.41051 146.093 5.96521 146.117C6.23865 146.129 6.5199 146.133 6.80115 146.144C7.03553 146.148 7.26599 146.16 7.50037 146.156C8.25818 146.14 9.01207 146.121 9.76207 146.101C11.2074 146.066 12.6566 146.051 14.1019 145.968C17.641 145.761 21.18 145.543 24.7189 145.312C27.4962 145.133 30.2736 144.965 33.0509 144.82C34.7814 144.73 36.5079 144.625 38.2384 144.547C39.7228 144.48 41.2072 144.414 42.6954 144.328C43.293 144.293 43.8985 144.254 44.5001 144.222C44.6407 146.625 44.7813 149.027 44.9298 151.433C44.9962 152.515 45.0977 153.589 45.1837 154.664C45.2579 155.597 45.3282 156.535 45.4063 157.468C45.8048 162.179 46.2188 166.883 46.7461 171.581C47.125 174.988 47.6211 178.374 48.0899 181.769C48.297 183.504 48.4806 185.234 48.629 186.976C48.6524 187.269 48.6681 187.559 48.6915 187.844C48.3321 188.223 47.9805 188.598 47.6329 188.973L47.633 188.972ZM48.84 172.777C48.8439 172.801 48.8439 172.82 48.8517 172.844C48.8478 172.816 48.8478 172.797 48.84 172.777ZM100.481 130.722C98.4029 132.8 96.3443 134.89 94.2779 136.976C92.1334 139.136 90.0318 141.343 87.9107 143.527C85.9498 145.543 84.0396 147.609 82.1099 149.652C81.1841 150.633 80.2622 151.605 79.3365 152.586C79.1294 152.808 78.9341 153.047 78.731 153.269C78.1646 153.914 77.5982 154.558 77.0357 155.203C75.7037 156.715 74.3755 158.226 73.0435 159.738C72.5396 160.316 72.0396 160.886 71.5552 161.472C69.4107 164.07 67.27 166.668 65.1216 169.269C63.1489 171.648 61.1333 174 59.145 176.363C58.3403 177.32 57.5317 178.277 56.727 179.234C56.5629 179.426 56.3793 179.605 56.2114 179.789C55.7036 180.336 55.1919 180.883 54.6762 181.43C53.3364 182.863 52.0043 184.297 50.6684 185.73C50.5746 184.863 50.4731 183.996 50.3598 183.133C50.1918 181.902 50.02 180.676 49.8285 179.449C49.6176 178.105 49.3989 176.754 49.2114 175.406C49.2114 175.422 49.2153 175.441 49.2153 175.457C49.2153 175.445 49.2153 175.441 49.2114 175.429C49.2114 175.441 49.2153 175.453 49.2153 175.465C49.2153 175.441 49.2114 175.422 49.2035 175.398C49.1918 175.332 49.1879 175.265 49.1762 175.195C49.1762 175.211 49.1801 175.222 49.1801 175.238C49.0746 174.437 48.9614 173.636 48.8559 172.832C48.8598 172.871 48.8676 172.91 48.8715 172.949C48.8676 172.926 48.8676 172.898 48.8598 172.875V172.863C48.8598 172.851 48.8598 172.848 48.8559 172.836C48.852 172.808 48.852 172.781 48.8442 172.75C48.8442 172.738 48.8403 172.723 48.8403 172.711C48.8403 172.723 48.8403 172.734 48.8442 172.746C48.8442 172.734 48.8442 172.723 48.8403 172.719V172.707C48.8364 172.68 48.8364 172.652 48.8285 172.621C48.8325 172.637 48.8325 172.66 48.8403 172.676V172.687C48.8403 172.703 48.8442 172.711 48.8442 172.723C48.8403 172.68 48.8325 172.633 48.8285 172.59C48.5356 170.32 48.3012 168.043 48.0629 165.769C47.8402 163.691 47.6606 161.613 47.4731 159.535C47.2543 157.047 47.0473 154.566 46.8442 152.082C46.6645 149.848 46.559 147.613 46.4145 145.379C46.3871 144.953 46.3715 144.527 46.3402 144.109C46.8402 144.082 47.3363 144.055 47.8364 144.019C49.2973 143.926 50.7661 143.828 52.227 143.777C53.8247 143.723 55.4183 143.664 57.016 143.633C58.6449 143.598 60.27 143.578 61.895 143.453C62.1684 143.43 62.4496 143.402 62.7231 143.375C62.8246 143.359 62.9262 143.348 63.0239 143.336C63.2192 143.285 63.3832 143.184 63.5278 143.043C63.7387 142.832 63.8637 142.539 63.8637 142.238C63.8637 142.074 63.8246 141.918 63.7582 141.777C64.1098 141.574 64.3871 141.246 64.5082 140.832C65.184 138.531 65.8559 136.23 66.5082 133.918C67.102 131.797 67.6879 129.672 68.2816 127.551C68.5629 126.543 68.8129 125.535 69.059 124.515C69.4887 122.719 69.9222 120.922 70.352 119.121C71.8364 119.043 73.3208 118.965 74.809 118.914C76.4613 118.859 78.1176 118.824 79.7699 118.789C82.723 118.734 85.6683 118.715 88.6137 118.672C90.2035 118.648 91.8012 118.605 93.391 118.539C94.8129 118.476 96.2348 118.387 97.6644 118.308C100.657 118.144 103.641 118.039 106.637 118C108.895 117.973 111.145 117.965 113.403 117.945C113.078 118.207 112.785 118.515 112.489 118.808C112.149 119.144 111.801 119.484 111.457 119.82C110.938 120.336 110.411 120.851 109.891 121.367C108.918 122.324 107.95 123.281 106.973 124.238C104.801 126.398 102.641 128.562 100.481 130.723L100.481 130.722Z" fill="black"/>
<path d="M50.3389 183.114L50.3467 183.129V183.145L50.3389 183.114Z" fill="black"/>
<path d="M49.1987 175.394C49.1987 175.405 49.1987 175.417 49.2026 175.421C49.1987 175.358 49.187 175.296 49.1792 175.237C49.1831 175.292 49.187 175.343 49.1987 175.394V175.394Z" fill="black"/>
<path d="M48.8289 172.693L48.8367 172.709L48.8289 172.693Z" fill="black"/>
<path d="M48.8289 172.724C48.8328 172.767 48.8406 172.817 48.8445 172.864V172.876C48.8445 172.825 48.8406 172.774 48.8289 172.724V172.724Z" fill="black"/>
<path d="M417.949 457.715C414.599 447.499 411.943 437.075 408.663 426.84C406.143 418.972 403.822 409.804 396.547 405.131C387.704 399.45 376.761 395.594 366.849 392.28C363.516 391.37 360.246 390.239 357.063 388.894C356.764 388.623 356.408 388.425 356.021 388.312C352.825 386.279 350.653 382.973 350.053 379.234C348.716 373.655 349.082 367.109 348.973 361.288C359.524 352.682 362.448 338.062 362.424 323.279C366.568 322.052 370.052 315.963 369.995 312.047C369.93 309.296 368.55 306.743 366.281 305.182C369.195 301.637 368.972 295.708 365.312 293.049L365.314 293.051C366.46 291.417 366.921 289.397 366.596 287.428C366.27 285.458 365.186 283.696 363.574 282.517C367.639 281.191 367.066 275.189 365.133 272.322C362.441 268.33 357.316 267.661 352.941 268.544C351.784 268.779 352.024 270.758 353.223 270.634C356.365 270.303 360.208 270.81 362.258 273.508C364.287 276.179 363.03 278.517 362.109 281.244C362.078 281.371 362.077 281.501 362.102 281.627C361.837 281.501 361.568 281.376 361.281 281.271C360.025 280.815 359.181 282.823 360.369 283.433L360.371 283.434C362.092 284.143 363.322 285.693 363.622 287.531C363.919 289.368 363.243 291.23 361.835 292.447C361.459 292.835 361.313 293.391 361.45 293.913C361.589 294.437 361.991 294.848 362.509 295C367.097 296.297 364.635 300.938 363.87 304.057C362.947 303.807 361.988 303.735 361.04 303.85C360.879 302.57 360.715 301.305 360.542 300.073C360.213 297.712 356.088 298.242 356.343 300.641C358.671 322.612 363.86 354.284 337.411 363.794C323.676 368.734 307.687 363.786 300.954 350.281C294.547 337.433 296.755 319.386 295.797 305.334C295.773 304.641 295.205 304.092 294.51 304.092C293.817 304.092 293.249 304.641 293.225 305.334C293.22 306.509 293.198 307.721 293.167 308.948C291.466 308.59 289.695 309.011 288.339 310.098C288.322 309.991 288.292 309.889 288.249 309.791C286.485 305.943 284.193 302.94 285.126 298.409C285.751 295.37 287.956 293.442 289.029 290.683C289.284 290.028 288.545 289.482 287.961 289.616C287.338 289.764 286.74 289.999 286.182 290.312C286.221 290.055 286.184 289.794 286.072 289.559C284.491 286.284 282.275 281.804 284.347 278.204C285.316 276.52 291.149 272.515 293.298 274.003V274.002C293.748 274.258 294.303 274.257 294.753 273.998C295.203 273.74 295.484 273.264 295.49 272.744C297.053 269.387 299.32 268.196 302.297 269.173C302.915 269.317 303.538 268.947 303.707 268.334C303.875 267.722 303.531 267.085 302.925 266.892C298.779 265.378 294.081 266.721 292.871 270.788C289.37 270.345 284.394 273.29 282.573 275.482C278.619 280.242 281.245 286.195 283.848 290.859C284.004 291.167 284.288 291.391 284.623 291.472C279.635 296.296 280.84 308.246 286.776 311.264V311.266C286.866 311.309 286.962 311.341 287.063 311.362C285.386 313.508 284.491 316.162 284.526 318.884C284.632 323.16 288.088 330.03 292.881 329.224C293.208 338.825 294.729 348.276 299.773 355.702V355.703C301.292 357.942 303.115 359.959 305.187 361.699C305.038 366.537 304.939 371.376 304.489 376.198C303.506 386.726 297.714 388.892 289.031 391.709C278.552 395.107 266.961 399.138 257.639 405.126C250.728 409.566 248.504 417.8 246.03 425.284C242.44 436.145 239.689 447.265 236.104 458.129C235.478 460.025 237.824 461.029 239.102 460.074C252.124 464.26 266.23 465.177 279.75 466.618L279.751 466.62C295.228 468.103 310.777 468.733 326.324 468.507C356.599 468.63 386.818 465.92 416.587 460.413C416.678 460.401 416.769 460.386 416.858 460.364C417.12 460.312 417.385 460.271 417.647 460.22C418.867 459.979 418.85 458.221 417.951 457.711L417.949 457.715ZM366.405 314.286C365.462 316.178 364.064 317.804 362.336 319.022C362.178 314.765 361.815 310.545 361.355 306.495C364.995 307.368 368.258 310.01 366.405 314.286L366.405 314.286ZM292.502 324.621C290.485 324.149 288.89 322.611 288.343 320.612C286.975 317.4 288.189 310.785 293.098 311.523C292.969 315.747 292.791 320.189 292.793 324.664L292.502 324.621ZM305.634 388.006C309.056 382.14 308.419 371.422 307.849 363.693V363.691C315.76 368.602 325.305 370.147 334.361 367.983C338.63 367.137 342.705 365.505 346.375 363.168C345.803 371.007 345.114 381.769 348.548 388.006V388.004C349.174 389.098 350.011 390.058 351.009 390.826C334.344 402.174 316.906 400.661 298.855 393.264V393.266C301.62 392.286 303.997 390.441 305.633 388.004L305.634 388.006ZM240.107 458.036C243.445 446.931 246.508 435.723 250.57 424.858C253.684 416.528 256.058 411.099 264.331 406.575V406.573C271.016 403.046 277.948 400.011 285.074 397.491C287.814 396.478 291.543 395.713 295.141 394.602C312.372 409.157 337.924 405.762 355.192 393.244C359.819 395.223 365.498 396.158 369.107 397.491C375.628 399.922 382.017 402.689 388.251 405.783C397.148 410.165 400.271 415.931 403.611 424.858C407.663 435.688 410.719 446.86 414.044 457.927C385.431 461.108 357.015 463.782 328.187 464.114C298.794 464.453 268.933 464.109 240.11 458.037L240.107 458.036Z" fill="black"/>
<path d="M327.2 347.473C330.694 346.827 333.663 344.535 335.17 341.316C335.611 340.125 334.036 339.547 333.243 340.195C331.115 341.937 329.623 343.638 326.804 344.257C323.759 344.907 320.581 344.233 318.062 342.401C316.921 341.576 315.432 343.477 316.545 344.368C319.413 347.016 323.358 348.165 327.2 347.472L327.2 347.473Z" fill="black"/>
<path d="M325.566 317.444C325.549 317.023 325.203 316.691 324.78 316.691C324.36 316.691 324.014 317.023 323.997 317.444C323.831 320.326 323.153 323.154 321.995 325.796C321.341 327.108 320.889 328.51 320.657 329.957C320.332 332.962 324.365 334.422 326.885 334.863C327.226 334.945 327.58 334.795 327.756 334.492C327.932 334.189 327.888 333.806 327.648 333.551C326.266 332.144 324.584 331.068 322.727 330.402C323.082 328.332 324.656 326 325.147 324.018C325.653 321.866 325.795 319.645 325.566 317.444L325.566 317.444Z" fill="black"/>
<path d="M308.89 309.783C308.612 310.585 308.491 311.432 308.527 312.281C308.616 313.107 309.008 313.874 309.625 314.43C309.886 314.678 310.269 314.75 310.602 314.611C310.934 314.475 311.155 314.153 311.165 313.792C311.222 313.231 311.239 312.664 311.215 312.098C311.145 311.547 311.176 310.989 311.304 310.448C311.461 309.791 311.07 309.127 310.419 308.948C309.767 308.768 309.09 309.138 308.89 309.783L308.89 309.783Z" fill="black"/>
<path d="M340.608 308.885C340.55 310.125 340.199 311.547 341.091 312.543C341.536 312.983 342.253 312.983 342.698 312.543C343.587 311.552 343.24 310.122 343.18 308.885C343.156 308.192 342.588 307.643 341.895 307.643C341.2 307.643 340.632 308.192 340.608 308.885H340.608Z" fill="black"/>
<path d="M300.667 288.188C300.161 290.59 299.384 292.928 298.349 295.155C297.24 297.051 295.721 298.677 293.902 299.91C293.074 300.574 293.977 301.859 294.893 301.611C300.178 300.186 301.951 293.422 303.008 288.833C303.356 287.317 301.052 286.67 300.667 288.187L300.667 288.188Z" fill="black"/>
<path d="M298.876 265.327C299.802 259.364 306.131 256.722 311.602 257.417C316.097 257.986 318.273 260.794 321.675 262.93C321.476 263.337 321.319 263.763 321.206 264.203C321.052 264.846 321.437 265.495 322.075 265.671C322.712 265.847 323.374 265.486 323.572 264.855C324.851 262.471 327.202 260.853 329.885 260.509C333.742 259.886 335.663 262.117 337.523 265.209H337.525C337.754 265.594 338.148 265.852 338.593 265.909C339.036 265.967 339.482 265.816 339.802 265.503C344.029 260.235 349.965 262.747 352.815 267.688C353.305 268.535 354.937 268.243 354.797 267.151C353.762 259.076 344.382 257.505 339.008 262.175C337.097 259.4 334.755 257.194 330.999 257.447C327.97 257.622 325.111 258.902 322.965 261.048C320.561 256.491 313.064 254.653 308.481 255.053C302.812 255.55 297.646 259.155 297.232 265.104C297.165 266.033 298.731 266.266 298.876 265.327L298.876 265.327Z" fill="black"/>
<path d="M352.449 300.921C353.277 301.696 354.817 300.659 354.095 299.652C350.139 294.13 341.065 289.902 334.554 293.531L334.552 293.529C334.282 293.699 334.153 294.025 334.237 294.333C334.321 294.641 334.597 294.859 334.915 294.869C337.976 294.818 341.032 295.12 344.023 295.772C347.184 296.832 350.063 298.592 352.449 300.921L352.449 300.921Z" fill="black"/>
<path d="M318.417 298.381C318.718 297.844 318.542 297.164 318.015 296.844C316.898 296.064 315.621 296.334 314.324 296.115H314.326C312.878 295.886 311.513 295.289 310.363 294.382C309.124 293.331 308.183 291.971 307.64 290.44C307.096 288.908 306.966 287.26 307.266 285.664C307.413 285.029 307.035 284.391 306.407 284.218C305.779 284.045 305.127 284.398 304.928 285.019C304.128 287.045 303.958 289.266 304.446 291.389C304.932 293.513 306.051 295.438 307.656 296.913C309.992 299.016 316.086 301.712 318.417 298.381H318.417Z" fill="black"/>
<path d="M329.022 295.59C328.404 295.022 327.65 294.62 326.834 294.425C325.761 294.026 324.761 293.451 323.877 292.724C322.148 291.302 321.035 289.268 320.773 287.045C320.747 286.376 320.198 285.847 319.529 285.847C318.862 285.847 318.312 286.376 318.287 287.045C318.153 290.058 319.366 292.974 321.594 295.007C323.288 296.562 326.902 298.744 329.022 296.839C329.357 296.49 329.357 295.939 329.022 295.59H329.022Z" fill="black"/>
<path d="M355.524 399.81C346.369 405.178 338.27 409.902 327.254 410.248C316.926 410.573 302.115 407.895 293.799 401.29V401.292C293.246 400.773 292.382 400.787 291.846 401.322C291.309 401.858 291.295 402.722 291.814 403.275C298.689 412.066 315.266 414.176 325.745 414.262C336.915 414.353 349.59 410.48 357.284 402.093C357.775 401.571 357.815 400.768 357.377 400.2C356.939 399.632 356.153 399.468 355.524 399.81L355.524 399.81Z" fill="black"/>
<path d="M214.788 486.253C211.367 475.823 208.655 465.178 205.306 454.727C202.732 446.693 200.364 437.331 192.935 432.559C183.906 426.758 172.732 422.822 162.611 419.438H162.609C159.205 418.508 155.866 417.353 152.616 415.98C152.311 415.704 151.947 415.501 151.552 415.386C148.29 413.31 146.071 409.934 145.458 406.117C144.093 400.419 144.467 393.736 144.356 387.792C144.796 387.432 145.215 387.054 145.631 386.673L145.633 386.672C146.173 387.234 146.905 387.57 147.682 387.612C148.285 387.598 148.769 387.112 148.783 386.511C148.753 385.73 148.402 384.998 147.813 384.484C149.263 382.842 150.542 381.056 151.633 379.157C151.701 379.133 151.767 379.105 151.832 379.073C152.239 378.809 152.445 378.324 152.354 377.847C153.52 375.61 154.481 373.272 155.227 370.861C155.339 370.819 155.447 370.767 155.55 370.706C155.838 370.531 156.03 370.236 156.076 369.902C156.121 369.568 156.011 369.231 155.781 368.988C156.142 367.655 156.459 366.297 156.726 364.914C157.72 364.861 158.678 364.531 159.493 363.96C159.881 363.715 160.093 363.266 160.033 362.81C159.974 362.354 159.654 361.973 159.216 361.837C158.576 361.706 157.926 361.646 157.273 361.659C157.54 359.78 157.732 357.871 157.863 355.944L157.865 355.942C157.982 355.704 158 355.426 157.912 355.175C158.035 353.122 158.094 351.057 158.09 348.979C162.322 347.726 165.88 341.508 165.822 337.51C165.797 335.16 164.8 332.927 163.066 331.341C161.331 329.754 159.018 328.957 156.675 329.141L156.64 328.854C156.78 328.744 156.906 328.618 157.014 328.477C161.483 322.012 158.697 313.197 156.535 306.201C154.592 298.75 149.91 292.304 143.423 288.154C129.808 279.656 111.8 279.308 100.244 291.229C99.805 291.685 99.8137 292.409 100.261 292.856C100.708 293.303 101.43 293.31 101.888 292.873C112.602 282.96 127.927 283.251 139.881 291.03C149.596 297.352 155.653 311.792 154.002 323.754H154C153.43 323.722 152.875 323.935 152.471 324.337C152.068 324.739 151.853 325.295 151.881 325.863C152.097 327.91 152.338 330.044 152.578 332.233C152.38 332.271 152.186 332.306 152.001 332.336C150.715 332.54 149.29 332.649 147.986 332.988C147.956 332.691 147.927 332.39 147.899 332.098C147.572 328.705 147.385 326.156 143.981 324.734V324.736C139.295 323.151 134.276 322.821 129.422 323.778C129.036 323.811 128.684 324.014 128.461 324.33C128.235 324.646 128.162 325.047 128.26 325.422C124.374 323.469 123.1 328.462 122.747 333.505H122.746C120.745 332.584 118.399 332.837 116.641 334.167L116.599 333.744C116.274 330.351 116.085 327.802 112.682 326.38C107.996 324.795 102.978 324.465 98.1239 325.422C97.7378 325.455 97.3866 325.658 97.163 325.974C96.9376 326.29 96.8642 326.689 96.9603 327.064C92.573 324.858 91.5141 331.515 91.3517 337.092H91.3535C91.0093 337.01 90.6598 336.954 90.3069 336.929C90.2632 334.778 90.1933 332.677 90.0553 330.66L90.0571 330.658C90.0326 329.951 89.4508 329.39 88.7432 329.39C88.0355 329.39 87.4537 329.951 87.4292 330.658C87.424 331.666 87.41 332.694 87.3873 333.742C83.0856 329.217 83.0123 322.086 82.71 316.132C82.5667 313.312 84.1567 289.988 93.5863 298.048C94.5613 298.881 96.3032 297.795 95.4838 296.584C89.8681 288.292 82.1456 298.331 80.3126 304.331C77.8124 312.511 77.0191 327.637 83.0401 335.121C80.1012 337.324 78.4222 340.825 78.5444 344.496C78.6527 348.862 82.1821 355.877 87.0759 355.054C87.1476 357.155 87.2769 359.244 87.4848 361.309C86.2722 361.807 85.1959 362.592 84.352 363.595C83.7912 364.332 84.7155 365.104 85.4231 364.987C86.253 364.818 87.0602 364.547 87.8238 364.18C88.0789 365.992 88.4143 367.771 88.8302 369.514L88.2606 369.909C86.9484 370.82 88.182 372.981 89.5203 372.076V372.078C90.5267 375.633 92.0765 379.011 94.1153 382.091C94.6972 382.942 95.3227 383.761 95.9884 384.548C95.742 385.407 95.6634 386.307 95.7595 387.196C95.8538 387.53 96.0949 387.801 96.4164 387.932C96.7362 388.061 97.0996 388.037 97.3984 387.864C97.7321 387.611 98.0326 387.322 98.2999 387.001C98.7402 387.42 99.1858 387.829 99.6453 388.215C99.4933 393.155 99.392 398.096 98.9324 403.019C97.9295 413.77 92.0151 415.982 83.148 418.858C72.4479 422.328 60.6122 426.444 51.0935 432.558C44.0366 437.092 41.7666 445.5 39.2403 453.142C35.5746 464.232 32.7649 475.587 29.1065 486.68C28.467 488.616 30.8625 489.642 32.1676 488.667C45.4642 492.94 59.8683 493.877 73.6712 495.348V495.35C89.4766 496.863 105.352 497.508 121.227 497.277C152.139 497.401 182.998 494.635 213.391 489.011C213.485 489.001 213.576 488.983 213.669 488.961C213.936 488.908 214.207 488.866 214.474 488.814C215.72 488.568 215.704 486.773 214.785 486.252L214.788 486.253ZM162.155 339.797C161.193 341.73 159.765 343.39 158 344.633C157.84 340.286 157.469 335.977 156.999 331.842C160.715 332.733 164.048 335.431 162.155 339.797L162.155 339.797ZM127.675 327.354C127.941 327.42 128.222 327.375 128.453 327.228C128.685 327.081 128.844 326.845 128.897 326.576C129.279 326.924 129.798 327.081 130.31 327.004C132.865 326.595 135.458 326.489 138.036 326.686C142.434 327.113 143.965 328.315 144.863 332.934C145.784 337.671 146.724 345.261 141.288 347.34H141.29C138.917 348.008 136.436 348.21 133.986 347.936C129.444 347.711 127.63 346.62 126.68 341.84C126.416 340.514 125.311 326.713 127.674 327.354L127.675 327.354ZM96.3773 328.998C96.6428 329.064 96.9242 329.019 97.1548 328.872C97.3872 328.725 97.5479 328.489 97.5986 328.22C97.9812 328.568 98.5019 328.725 99.0139 328.648C101.567 328.238 104.161 328.131 106.74 328.33C111.138 328.757 112.668 329.959 113.566 334.579C114.489 339.315 115.427 346.905 109.993 348.984C107.619 349.652 105.138 349.855 102.688 349.58C98.1455 349.355 96.3318 348.265 95.3813 343.484C95.1175 342.158 94.0132 328.357 96.3772 328.996L96.3773 328.998ZM86.6943 350.351C84.6344 349.868 83.006 348.298 82.4468 346.257C81.2692 343.489 81.9751 338.256 85.2319 337.136C85.84 337.383 86.5284 337.316 87.077 336.956C87.1539 336.965 87.2255 336.965 87.3024 336.975C87.1713 341.289 86.9896 345.825 86.9914 350.394L86.6943 350.351ZM98.2644 378.965C98.0792 379.409 97.8643 379.875 97.6424 380.352C97.0343 379.501 96.4752 378.617 95.9668 377.704C96.3145 376.844 96.636 375.976 96.9312 375.097C97.4641 373.503 94.9743 372.839 94.4257 374.407L94.396 374.485L94.3943 374.483C93.7617 372.942 93.2271 371.363 92.7938 369.756C93.3722 369.254 93.9225 368.723 94.4432 368.162C94.9603 367.619 94.4484 366.445 93.6412 366.782C93.1502 366.988 92.6715 367.168 92.2067 367.374C91.88 365.891 91.5987 364.385 91.382 362.847C92.0687 362.625 92.6767 362.206 93.1292 361.645C93.4035 361.17 93.2445 360.563 92.7728 360.286C92.2312 360.034 91.6284 359.947 91.0378 360.038C90.3686 353.575 90.4158 346.816 90.3564 340.399C90.6884 340.369 91.0186 340.317 91.3436 340.238C91.3733 341.728 91.4432 342.918 91.4764 343.483C91.6825 346.993 91.9202 350.853 95.5666 352.397C100.134 353.907 105.044 354.045 109.689 352.797C117.267 350.86 117.457 343.698 116.916 337.125C118.474 336.609 120.728 335.402 122.126 336.695H122.124C122.269 336.826 122.44 336.926 122.627 336.985C122.62 339.214 122.73 341.084 122.774 341.84C122.98 345.35 123.218 349.21 126.864 350.755C131.431 352.264 136.341 352.402 140.987 351.155C148.418 349.256 148.745 342.331 148.245 335.866H148.243C149.683 335.851 151.114 335.673 152.512 335.335L152.9 335.258C153.611 341.414 153.953 347.608 153.925 353.804C153.677 353.809 153.436 353.814 153.214 353.811V353.812C152.299 353.844 151.574 354.593 151.574 355.509C151.574 356.424 152.299 357.174 153.214 357.205C153.396 357.204 153.59 357.205 153.791 357.211C153.702 358.718 153.567 360.209 153.386 361.682C153.214 361.668 153.041 361.678 152.872 361.654C151.121 361.414 150.284 363.936 152.115 364.395C152.383 364.463 152.664 364.528 152.95 364.589C152.748 365.737 152.507 366.866 152.227 367.975C151.846 367.89 151.46 367.825 151.083 367.72L151.086 367.724C150.363 367.551 149.634 367.981 149.437 368.697C149.239 369.412 149.645 370.156 150.354 370.376C150.667 370.476 151.044 370.593 151.448 370.704H151.446C150.882 372.48 150.178 374.206 149.342 375.869C148.843 375.644 148.361 375.38 147.899 375.085C146.304 374.038 144.889 376.547 146.418 377.62V377.618C146.872 377.938 147.344 378.232 147.829 378.502C146.998 379.806 146.063 381.039 145.03 382.191C144.752 381.997 144.476 381.798 144.195 381.611C142.525 380.498 141.034 383.145 142.637 384.277C142.696 384.319 142.748 384.37 142.808 384.411L142.806 384.413C141.669 385.42 140.451 386.333 139.167 387.148C138.716 386.34 138.279 385.649 138.052 385.255C137.274 383.907 134.837 384.817 135.454 386.351C135.768 387.135 136.043 387.934 136.317 388.732V388.731C135.246 389.265 134.147 389.744 133.027 390.165C132.665 389.36 132.316 388.549 131.989 387.726C131.302 385.996 128.529 386.658 129.129 388.514C129.414 389.395 129.709 390.272 130.023 391.144L130.025 391.145C127.899 391.711 125.722 392.059 123.526 392.183C123.281 391.586 122.987 391.007 122.652 390.453C122.252 389.816 121.448 389.562 120.754 389.854C120.061 390.148 119.68 390.899 119.858 391.631C119.9 391.823 119.973 392.012 120.029 392.202C118.083 392.11 116.15 391.837 114.255 391.386L113.961 387.57C113.818 385.708 110.932 385.668 111.026 387.57L111.169 390.483C109.598 389.924 108.078 389.232 106.625 388.414C106.651 388.259 106.679 388.105 106.702 387.948C106.848 386.938 106.934 385.921 106.96 384.901C107.016 383.129 104.47 383.229 104.27 384.901C104.193 385.531 104.13 386.162 104.062 386.791C102.664 385.797 101.362 384.675 100.172 383.44C100.611 382.18 100.946 380.889 101.277 379.795C101.871 377.816 99.0139 377.174 98.2643 378.965L98.2644 378.965ZM100.102 415.072C103.597 409.082 102.947 398.138 102.365 390.245C105.18 392.096 108.276 393.478 111.533 394.334C111.657 394.811 111.882 395.255 112.193 395.635C112.431 395.866 112.759 395.974 113.086 395.932C113.415 395.891 113.705 395.702 113.874 395.419C113.965 395.258 114.04 395.09 114.098 394.916C116.472 395.351 118.885 395.552 121.3 395.52C121.52 395.945 121.863 396.298 122.282 396.53C122.668 396.748 123.133 396.778 123.543 396.61C123.956 396.444 124.268 396.098 124.393 395.672C124.412 395.574 124.426 395.475 124.431 395.375C126.114 395.225 127.784 394.975 129.435 394.627C130.05 394.498 130.63 394.337 131.221 394.187C131.775 395.513 132.336 396.897 133.913 397.047C134.294 397.049 134.647 396.846 134.838 396.518C135.503 395.45 134.97 394.29 134.445 393.228C135.558 392.84 136.637 392.427 137.654 391.959C138.112 392.656 138.757 393.202 139.634 392.845C140.607 392.448 140.764 391.519 140.539 390.432C140.935 390.198 141.323 389.959 141.704 389.712C141.121 397.717 140.417 408.706 143.925 415.075L143.921 415.072C144.561 416.188 145.415 417.168 146.434 417.953C129.418 429.54 111.612 427.996 93.1797 420.442C96.005 419.443 98.4318 417.56 100.102 415.071L100.102 415.072ZM33.1924 486.58C36.5995 475.24 39.7287 463.796 43.8768 452.701C47.0568 444.196 49.48 438.652 57.928 434.032V434.03C64.7545 430.429 71.8324 427.33 79.1094 424.756C81.9067 423.722 85.7141 422.941 89.3881 421.807C106.983 436.669 133.074 433.203 150.707 420.42C155.431 422.441 161.23 423.395 164.916 424.756C171.574 427.239 178.099 430.064 184.464 433.223C193.549 437.698 196.738 443.586 200.148 452.702C204.286 463.76 207.406 475.168 210.801 486.468C181.584 489.716 152.568 492.447 123.132 492.786C93.1181 493.132 62.6272 492.781 33.1956 486.58L33.1924 486.58Z" fill="black"/>
<path d="M122.123 373.684C125.691 373.025 128.722 370.684 130.261 367.397C130.712 366.181 129.103 365.591 128.294 366.253C126.12 368.032 124.597 369.768 121.719 370.401C118.609 371.065 115.365 370.376 112.793 368.505C111.627 367.663 110.109 369.604 111.243 370.514C114.171 373.217 118.2 374.392 122.123 373.684L122.123 373.684Z" fill="black"/>
<path d="M121.801 360.807C122.149 360.891 122.51 360.737 122.69 360.428C122.87 360.118 122.827 359.727 122.58 359.467C121.169 358.03 119.451 356.931 117.555 356.252C117.917 354.138 119.524 351.756 120.026 349.733C120.543 347.537 120.688 345.267 120.454 343.022C120.438 342.59 120.084 342.25 119.652 342.25C119.222 342.25 118.868 342.59 118.852 343.022C118.682 345.962 117.99 348.85 116.808 351.55C116.14 352.888 115.679 354.321 115.441 355.797C115.107 358.864 119.226 360.354 121.801 360.807L121.801 360.807Z" fill="black"/>
<path d="M102.174 304.29C101.791 303.926 101.214 303.858 100.758 304.124C100.304 304.389 100.077 304.924 100.204 305.434C102.128 309.984 105.137 313.992 108.969 317.109C112.224 319.93 116.686 323.427 121.147 323.58V323.581C121.617 323.569 122.036 323.283 122.218 322.847C122.398 322.412 122.304 321.911 121.979 321.57C118.839 318.61 114.41 317.005 111.055 314.164V314.165C107.807 311.144 104.833 307.838 102.174 304.29L102.174 304.29Z" fill="black"/>
<path d="M117.641 301.915C117.265 301.324 116.489 301.136 115.887 301.489C115.282 301.842 115.065 302.609 115.396 303.225C118.735 308.919 124.565 315.842 131.376 317.25C132.25 317.43 133.183 316.265 132.342 315.589C129.791 313.534 126.84 312.096 124.349 309.933L124.35 309.934C121.71 307.626 119.448 304.92 117.641 301.914L117.641 301.915Z" fill="black"/>
<path d="M147.256 323.36C147.836 323.492 148.633 323.07 148.552 322.372C148.175 319.119 144.873 316.701 142.718 314.428C139.814 311.363 136.814 308.428 133.727 305.548C133.136 304.998 132.215 305.013 131.644 305.585C131.075 306.154 131.057 307.075 131.607 307.666C134.331 310.617 137.05 313.571 139.763 316.531C141.851 318.794 144.135 322.648 147.255 323.359L147.256 323.36Z" fill="black"/>
<path d="M92.7405 306.393C92.5622 309.108 92.4766 311.845 92.0416 314.535C91.5751 316.738 91.3269 318.982 91.3008 321.234C91.3113 321.615 91.5716 321.942 91.9385 322.041C92.3054 322.141 92.6951 321.989 92.896 321.666C95.8331 317.385 95.8872 311.023 95.1709 306.063C94.963 304.611 92.8261 305.085 92.7405 306.393V306.393Z" fill="black"/>
<path d="M100.268 340.705C101.615 339.18 103.839 338.79 105.625 339.765C106.188 340.073 106.888 339.926 107.28 339.419C107.671 338.913 107.636 338.196 107.196 337.731C105.868 336.433 103.995 335.858 102.168 336.185C100.34 336.512 98.7832 337.7 97.9882 339.377C97.436 340.724 99.3615 341.549 100.268 340.705L100.268 340.705Z" fill="black"/>
<path d="M132.701 340.2C133.538 339.583 133.741 338.373 134.808 338.074C135.965 337.75 136.542 338.776 137.548 338.918C138.064 338.991 138.78 338.797 138.869 338.168C139.194 335.888 136.22 334.689 134.333 334.985C132.285 335.306 129.848 337.525 130.856 339.716L130.858 339.718C131.233 340.359 132.058 340.576 132.701 340.2L132.701 340.2Z" fill="black"/>
<path d="M151.044 427.126C141.697 432.607 133.427 437.431 122.179 437.784C111.632 438.116 96.5083 435.382 88.0169 428.637V428.639C87.4526 428.11 86.5702 428.124 86.0234 428.671C85.4747 429.218 85.4608 430.1 85.9902 430.664C93.0104 439.641 109.938 441.796 120.638 441.883C132.044 441.976 144.985 438.022 152.843 429.457C153.344 428.924 153.384 428.105 152.937 427.525C152.49 426.944 151.688 426.777 151.045 427.126L151.044 427.126Z" fill="black"/>
<path d="M535.535 371.582C538.545 374.362 542.686 375.569 546.718 374.841C550.385 374.164 553.501 371.758 555.083 368.38C555.546 367.13 553.892 366.523 553.06 367.204C550.826 369.032 549.261 370.817 546.303 371.467C543.106 372.149 539.772 371.442 537.128 369.518C535.93 368.651 534.37 370.648 535.535 371.582L535.535 371.582Z" fill="black"/>
<path d="M545.001 343.327C544.983 342.886 544.62 342.537 544.176 342.537C543.735 342.537 543.372 342.886 543.354 343.327C543.18 346.351 542.469 349.32 541.253 352.092C540.567 353.47 540.093 354.941 539.849 356.46C539.507 359.613 543.74 361.145 546.385 361.608C546.743 361.695 547.114 361.537 547.299 361.219C547.484 360.901 547.438 360.499 547.186 360.231C545.735 358.755 543.97 357.625 542.022 356.927C542.393 354.754 544.046 352.306 544.561 350.227C545.093 347.967 545.242 345.637 545.001 343.327L545.001 343.327Z" fill="black"/>
<path d="M575.146 326.869C575.573 326.603 575.776 326.088 575.645 325.603C575.514 325.116 575.077 324.773 574.574 324.761C558.053 325.226 539.809 321.128 527.429 309.08C526.559 308.232 524.896 309.382 525.677 310.432C531.244 317.908 539.91 321.437 548.345 324.845C556.648 328.2 566.76 331.382 575.148 326.869L575.146 326.869Z" fill="black"/>
<path d="M520.309 311.487C518.836 313.613 517.772 316.025 516.367 318.205V318.203C514.708 320.205 513.217 322.338 511.908 324.585C511.409 325.763 512.517 327.365 513.842 326.519C515.963 324.808 517.678 322.647 518.865 320.196C520.471 317.8 521.667 315.157 522.405 312.37C522.538 311.821 522.252 311.257 521.733 311.038C521.212 310.819 520.609 311.009 520.309 311.487L520.309 311.487Z" fill="black"/>
<path d="M505.534 331.751C504.51 305.475 514.033 280.584 544.113 280.529C556.508 280.507 567.854 282.829 576.662 292.262C584.759 300.936 592.075 315.015 589.353 327.12C588.884 329.204 591.813 330.633 592.914 328.622V328.62C594.577 325.396 595.202 321.735 594.701 318.141C594.841 318.149 594.981 318.123 595.11 318.07C596.813 317.375 599.444 316.362 600.505 318.865L600.503 318.863C600.781 320.223 600.778 321.622 600.494 322.979C600.189 326.109 599.275 333.39 595.213 333.682H595.211C594.566 333.706 594.031 334.19 593.945 334.83C593.857 335.471 594.245 336.081 594.861 336.275C595.415 336.489 596.006 336.595 596.601 336.586C596.351 336.846 596.238 337.209 596.294 337.567C598.242 351.479 587.816 363.742 590.47 377.539C592.287 386.987 600.304 399.87 608.749 404.503C609.091 404.69 609.491 404.74 609.868 404.647C610.504 405.841 611.26 406.967 612.126 408.007C613.361 409.487 615.196 407.815 614.988 406.34C613.345 394.667 611.948 385.809 614.541 374.064C616.635 364.588 619.697 355.28 620.638 345.585C621.568 336.015 617.499 316.954 603.858 320.759H603.86C603.718 320.797 603.585 320.864 603.468 320.957C603.247 315.483 599.823 313.199 594.376 315.97C592.781 307.619 587.34 299.014 582.835 293.398C573.73 282.052 561.601 277.213 547.339 277.01C533.125 276.809 520.782 279.639 511.652 291.355C502.765 302.758 500.576 318.144 503.376 332.044L503.374 332.042C503.534 332.56 504.042 332.886 504.579 332.815C505.114 332.741 505.52 332.292 505.534 331.751L505.534 331.751ZM603.465 322.37V322.368C603.7 322.623 604.048 322.736 604.388 322.666C619.789 319.867 616.519 345.936 614.773 353.77C613.112 361.228 610.477 368.431 608.861 375.901H608.863C607.074 382.855 606.584 390.078 607.419 397.209C600.028 387.233 592.132 379.053 595.186 364.866C597.262 355.226 601.385 346.861 598.415 336.981C598.345 336.717 598.178 336.491 597.947 336.345C602.095 334.713 603.287 325.734 603.465 322.369L603.465 322.37Z" fill="black"/>
<path d="M524.391 322.295C526.293 320.639 527.374 318.235 527.353 315.715C527.353 313.681 526.311 311.79 524.594 310.7C523.79 310.114 522.585 311.294 523.197 312.097C525.39 314.976 522.771 318.505 522.542 321.529C522.463 322.568 523.734 322.822 524.391 322.295L524.391 322.295Z" fill="black"/>
<path d="M524.254 340.946C525.638 339.378 527.924 338.977 529.76 339.98C530.338 340.296 531.058 340.145 531.461 339.624C531.863 339.103 531.827 338.367 531.374 337.889C530.01 336.555 528.085 335.964 526.206 336.3C524.328 336.636 522.728 337.857 521.911 339.581C521.343 340.965 523.322 341.813 524.254 340.946L524.254 340.946Z" fill="black"/>
<path d="M559.266 335.066C557.162 335.396 554.657 337.677 555.693 339.929V339.93C556.081 340.589 556.926 340.812 557.587 340.426C558.447 339.792 558.656 338.548 559.753 338.24C560.942 337.908 561.534 338.962 562.569 339.108C563.099 339.183 563.835 338.984 563.926 338.337C564.264 335.994 561.206 334.762 559.266 335.065L559.266 335.066Z" fill="black"/>
<path d="M641.958 490.541C638.441 479.821 635.654 468.88 632.212 458.138C629.567 449.881 627.131 440.259 619.496 435.354C610.215 429.392 598.731 425.346 588.328 421.868C584.829 420.912 581.398 419.725 578.057 418.314C577.743 418.03 577.37 417.822 576.964 417.703C573.609 415.57 571.33 412.1 570.7 408.176C569.188 401.861 569.761 394.359 569.538 387.911H569.536C569.531 387.713 569.479 387.519 569.385 387.345C578.007 378.077 581.503 363.626 583.211 349.586C587.765 348.647 591.689 341.92 591.628 337.664H591.63C591.589 335.71 590.906 333.822 589.689 332.294C588.471 330.766 586.785 329.679 584.889 329.202C584.964 328 585.04 326.822 585.119 325.691C585.318 322.787 580.904 322.855 580.631 325.691C578.647 346.287 580.117 380.601 558.23 391.161C541.335 399.313 525.948 388.46 520.889 372.001C517.305 360.341 515.383 348.058 512.648 336.132V336.134C512.762 335.731 512.659 335.299 512.379 334.99C512.187 334.167 512.002 333.343 511.801 332.526C511.377 330.811 508.915 331.563 509.197 333.244C509.254 333.585 509.312 333.944 509.369 334.293C504.659 334.586 501.816 340.352 501.927 344.843C502.055 349.929 506.697 358.504 512.781 354.885C515.038 366.529 518.393 378.498 524.565 386.779V386.777C524.035 386.894 523.66 387.368 523.669 387.91C523.471 393.609 523.409 399.312 522.879 404.994C521.848 416.043 515.769 418.317 506.655 421.273C495.658 424.839 483.493 429.07 473.71 435.354C466.457 440.014 464.123 448.655 461.527 456.51C457.759 467.908 454.871 479.579 451.109 490.981C450.452 492.97 452.914 494.024 454.256 493.022C467.922 497.415 482.727 498.377 496.915 499.89H496.917C513.162 501.447 529.479 502.108 545.795 501.871C577.568 502 609.283 499.155 640.526 493.376C640.622 493.365 640.717 493.348 640.812 493.324C641.087 493.27 641.365 493.227 641.64 493.173C642.92 492.92 642.902 491.076 641.96 490.541L641.958 490.541ZM587.861 340.013C586.906 341.949 585.486 343.617 583.729 344.87C584.144 340.616 584.428 336.459 584.676 332.565C587.495 333.876 589.433 336.383 587.861 340.013V340.013ZM510.301 350.86C508.184 350.364 506.51 348.75 505.935 346.652C504.61 343.54 505.601 337.391 509.814 337.073C510.498 341.423 511.215 346.23 512.097 351.19C511.504 351.048 510.904 350.937 510.301 350.86V350.86ZM524.082 417.382C528.157 410.399 526.751 396.858 526.183 388.786C532.629 396.167 541.842 399.782 555.433 395.913C559.688 394.721 563.624 392.598 566.957 389.698C566.357 397.998 565.272 410.395 569.121 417.382C569.778 418.53 570.656 419.535 571.703 420.342C554.214 432.251 535.913 430.664 516.968 422.901V422.903C519.87 421.874 522.364 419.938 524.081 417.38L524.082 417.382ZM455.312 490.879C458.815 479.224 462.03 467.461 466.293 456.058C469.561 447.316 472.052 441.618 480.735 436.87V436.868C487.751 433.167 495.026 429.982 502.505 427.336C505.38 426.273 509.294 425.47 513.07 424.305C531.154 439.58 557.97 436.017 576.094 422.879C580.949 424.957 586.91 425.937 590.698 427.336C597.541 429.888 604.247 432.792 610.789 436.039C620.127 440.638 623.404 446.69 626.91 456.059C631.162 467.424 634.37 479.149 637.859 490.764C607.829 494.103 578.007 496.909 547.752 497.258C516.904 497.614 485.565 497.253 455.315 490.879L455.312 490.879Z" fill="black"/>
<path d="M576.442 429.77C566.834 435.403 558.334 440.361 546.773 440.724C535.934 441.065 520.389 438.255 511.661 431.323V431.325C511.081 430.781 510.175 430.795 509.612 431.357C509.049 431.919 509.034 432.826 509.578 433.406C516.794 442.633 534.192 444.848 545.189 444.937C556.912 445.032 570.214 440.968 578.29 432.166C578.805 431.618 578.846 430.776 578.387 430.179C577.927 429.583 577.103 429.411 576.442 429.77L576.442 429.77Z" fill="black"/>
<path d="M570.194 318.52C562.119 315.477 554.524 313.047 547.01 308.608C545.958 307.986 545.139 309.515 546.075 310.21C552.764 315.175 561.506 319.744 569.907 320.652C571.205 320.792 571.25 318.919 570.194 318.521L570.194 318.52Z" fill="black"/>
</svg>
