<svg fill="none" height="502" viewBox="0 0 643 502" width="643" xmlns="http://www.w3.org/2000/svg"><g fill="#000"><path d="m427.465 206.515c4.386-6.363 8.859-12.66 13.187-19.062 1.836-2.715 3.743-5.402 5.516-8.164 1.715-2.66 3.336-5.383 4.922-8.121.262-.461.57-.891.855-1.332.918-1.41 1.825-2.828 2.723-4.25 1.074-1.695 2.102-3.414 3.254-5.066.945-1.348 1.883-2.703 2.813-4.067.519-.765 1.011-1.566 1.574-2.308 1.469-1.938 2.922-3.891 4.355-5.86 1.114-1.41 2.211-2.832 3.309-4.261 1.449-1.809 2.89-3.641 4.301-5.481.402-.508.8-1.023 1.191-1.547.273-.348.547-.695.816-1.043-.011.012-.015.024-.027.039.219-.281.438-.547.688-.801.043-.027.093-.054.14-.078.055.016.114.028.168.043.004 0 .012-.004.012-.004-.106-.086-.219-.117-.336-.117-.402 0-.879.391-1.18.57-.578.34-1.14.688-1.703 1.055-1.07.688-2.121 1.406-3.168 2.133-2.238 1.559-4.445 3.152-6.637 4.777-2.367 1.766-4.675 3.625-6.976 5.477-2.09 1.687-4.059 3.515-6.055 5.308-1.765 1.586-3.41 3.258-5.062 4.969-1.598 1.653-3.278 3.266-4.723 5.059-2.457 3.039-4.879 6.121-7.164 9.297-.844 1.179-1.676 2.379-2.492 3.586-1.239 1.824-2.289 3.793-3.356 5.722-3.683 6.707-6.848 13.777-9.246 21.043-2.34 7.106-3.949 14.426-5.164 21.801 0 .004.004.012.012.004 4.594-6.379 9-12.863 13.453-19.32z"/><path d="m322.389 186.808c-.57-1.765-1.211-3.511-1.883-5.242-.66-1.707-1.32-3.437-2.094-5.097-2.133-4.594-4.336-9.184-6.804-13.609-2.715-4.86-5.532-9.665-8.43-14.422-1.356-2.231-2.684-4.485-4.172-6.629-1.031-1.477-2.07-2.953-3.121-4.414-.695-.969-1.469-1.875-2.235-2.79-1.074-1.293-2.191-2.531-3.343-3.753-1.192-1.262-2.504-2.387-3.731-3.606-.043-.055-.09-.117-.133-.172-.015-.051-.027-.101-.043-.156l-.004-.004-.003.004c-.016.379.23.699.41 1.019.191.34.414.676.621 1.008.351.559.699 1.114 1.054 1.668.723 1.141 1.43 2.289 2.157 3.426.734 1.148 1.367 2.363 2.062 3.539.547.926.996 1.887 1.473 2.844.699 1.41 1.406 2.816 2.121 4.219.461.894.813 1.859 1.223 2.781 1.047 2.375 2.129 4.727 3.187 7.09 2.078 4.625 4.278 9.191 6.418 13.793 1.473 3.168 3.008 6.304 4.61 9.406 2.152 4.176 4.172 8.43 6.015 12.758 2 4.805 3.731 9.715 5.227 14.699 1.512 5.039 2.637 10.176 3.504 15.359 0 .004.011.004.011 0 .274-3.734.372-7.492.157-11.238-.219-3.84-.739-7.676-1.434-11.465-.707-3.719-1.656-7.398-2.82-11.016z"/><path d="m123.379 174.474c1.511.597 3.031 1.187 4.547 1.765 1.097.422 2.207.801 3.293 1.254 6.894 2.941 13.625 6.203 20.137 9.93 3.355 1.922 6.679 3.879 9.968 5.914 3.247 2.004 6.418 4.129 9.61 6.203 4.789 3.113 9.547 6.25 14.441 9.195 2.051 1.239 4.07 2.531 6.125 3.762 2.781 1.676 5.594 3.309 8.41 4.937.004.004.012-.003.004-.011-2.191-2.555-4.43-5.059-6.707-7.528-1.613-1.753-3.215-3.527-4.898-5.207-4.325-4.316-8.715-8.617-13.391-12.562-6.059-5.105-12.512-9.765-19.641-13.273-7.211-3.543-14.812-6.195-22.617-8.062-5.047-1.203-10.188-1.914-15.281-2.84-2.391-.43-4.793-.828-7.196-1.215-2.121-.347-4.234-.738-6.351-1.109-.004 0-.012.004-.004.012.996.675 1.98 1.347 3.047 1.922 1.121.597 2.25 1.16 3.406 1.691 2.144.992 4.336 1.883 6.535 2.742 2.18.856 4.391 1.617 6.563 2.481z"/><path d="m543.304 44.1562c-.183-.1054-.386-.1562-.582-.1562-.41 0-.8.2109-1.031.582-.504.8125-.918 1.668-1.262 2.5547-.191-.1836-.421-.3125-.687-.4101-.547-.2031-1.102-.3711-1.664-.5274-.211-.0625-.442-.0937-.656-.1406-.223-.043-.45-.1133-.676-.1445-1.004-.1445-2.004-.2969-3.012-.4024-.918-.1015-1.824-.1953-2.742-.2617-.891-.0742-1.781-.1679-2.672-.2031-1.805-.0742-3.602-.1836-5.41-.1914-1.332-.0039-2.672-.0156-4.004-.0156-.539 0-1.082 0-1.617.0039-4.196.0429-8.391.1054-12.582.1914-3.782.0742-7.559.2305-11.34.3594-1.629.0546-3.266.1953-4.895.3007-1.664.1055-3.336.1719-4.996.3204-3.625.3125-7.246.621-10.871.9414-2.027.1797-4.055.3515-6.082.5312-1.133.1016-2.262.2227-3.394.2969-3.543.2344-7.09.5078-10.633.668-.879.039-1.614.707-1.614 1.6133 0 .8515.735 1.6523 1.614 1.6133.761-.0352 1.519-.0782 2.277-.125-.004.2851-.012.5703-.016.8554-.05-.0039-.101-.0273-.156-.0273-.324 0-.66.1015-.918.2539-.391.2305-.687.6094-.805 1.0547-.125.4531-.062.9531.18 1.3555.246.4219.606.6445 1.055.8125.203.0742.402.1445.597.2187-.003.9258-.003 1.8477-.011 2.7656-.012 2.5859-.012 5.1758.004 7.7578.004 1.0547-.004 2.1056.023 3.1524.039 1.4492.086 2.9022.125 4.3515.074 2.4922.168 4.9844.262 7.4766.094 2.5039.203 5 .308 7.5.039.9649.102 1.9259.157 2.8907.066 1.1602.113 2.3202.207 3.4765.207 2.5586.425 5.1177.66 7.6757.179 1.981.359 3.965.531 5.953-.492.055-.984.106-1.477.164-.167.024-.335.043-.503.067-.321.09-.598.254-.84.488-.352.352-.555.84-.555 1.344s.203.984.555 1.344c.324.324.867.609 1.343.558.637-.074 1.278-.133 1.915-.207.054.106.129.207.218.301.262.262.621.41.993.41.589 0 1.171-.426 1.347-.992 4.196-.461 8.395-.918 12.59-1.367 1.676-.18 3.356-.297 5.035-.438 1.731-.144 3.461-.301 5.196-.41 2.211-.133 4.426-.312 6.636-.41 2.301-.094 4.602-.195 6.907-.293 4.265-.18 8.539-.168 12.797.164 1.652.129 3.297.293 4.937.504 1.36.18 2.723.359 4.082.531.192.024.375.051.567.074 1.429.192 2.863.387 4.289.578 1.422.192 2.855.313 4.285.465.648.067 1.305.09 1.953.129.605.039 1.211.074 1.812.094 1.5.062 2.997.078 4.497-.012.464-.027.878-.168 1.214-.504.102-.101.184-.218.254-.336.242-.015.481-.089.668-.203.332-.195.578-.515.676-.879.106-.398.027-.836-.184-1.179.04-.285.055-.571.067-.852.015-.348.023-.699.035-1.047.035-1.293.074-2.582.133-3.875.14-2.894.332-5.7889.531-8.6795.09-1.3047.18-2.6094.27-3.9141.101-1.4336.14-2.8711.211-4.3047.027-.5586.027-1.125.039-1.6875.023-.9414.043-1.8828.066-2.8281.035-1.3594.027-2.7227.043-4.082.023-2.5977.051-5.1953.141-7.7969.043-1.3203.062-2.6484.156-3.9688.125-1.7344.246-3.4648.371-5.2031.094-1.3281.273-2.6562.449-3.9766.219-1.5664.492-3.1367.801-4.6875.293-1.4844.633-2.9805 1.199-4.3867.301-.6875.637-1.3672 1.035-2.0117.344-.543.121-1.293-.425-1.6055zm-86.742 8.8359v-.0664c0-.5-.011-.9921-.015-1.4883 1.043-.0664 2.082-.1328 3.125-.2031 1.457-.0937 2.918-.1719 4.375-.3008 3.781-.3203 7.554-.6445 11.336-.9531 2.488-.2031 4.972-.3984 7.461-.5976 1.429-.1133 2.863-.1836 4.297-.2618 1.343-.0781 2.695-.1523 4.039-.2304.632-.0352 1.265-.0899 1.898-.1055 2.066-.0625 4.133-.1172 6.199-.1719 7.492-.207 14.992-.2422 22.484-.1679 4.504.0429 9 .3476 13.473.8437-.207.125-.422.2422-.621.375-.308.2031-.605.4219-.902.6328-.582.4258-1.149.8906-1.707 1.3477-1.113.918-2.223 1.8438-3.328 2.7734-2.156 1.8125-4.258 3.7031-6.356 5.5781-4.015 3.5859-7.992 7.2188-11.988 10.82-2.199 1.9766-4.402 3.9531-6.601 5.9297-3.032-2.043-6.157-3.9375-9.313-5.7734-3.265-1.8984-6.562-3.7305-9.906-5.4922-1.539-.8125-3.07-1.668-4.637-2.4258-2.273-1.0938-4.543-2.1914-6.808-3.2891-.61-.293-1.215-.5898-1.825-.8789-.632-.3008-1.304-.5391-1.949-.8047-2.476-1.0117-4.957-2.0273-7.43-3.0469-.667-.2734-1.332-.5469-2-.8164-1.093-.4297-2.199-.8281-3.3-1.2266zm2.676 51.5739c-.308-2.453-.597-4.91-.855-7.3631-.481-4.6328-.762-9.2774-1.004-13.9261-.125-2.4141-.27-4.8319-.371-7.246-.102-2.457-.235-4.9102-.282-7.3711-.035-1.6875-.066-3.375-.089-5.0625.203-.1446.339-.3868.332-.6446-.09-2.0547-.184-4.1094-.262-6.1602.879.3242 1.754.6563 2.621 1.0078 1.262.5156 2.527 1.0352 3.785 1.5586 2.129.875 4.25 1.7539 6.379 2.6211 1.836.8945 3.672 1.7812 5.516 2.6719 1.418.6875 2.844 1.3438 4.234 2.082 1.844.9805 3.68 1.9609 5.524 2.9336-.727.875-1.461 1.7461-2.184 2.625-.758.918-1.527 1.832-2.27 2.7617l-5.847 7.3242c-1.656 2.082-3.305 4.1719-4.938 6.2773-.84 1.0859-1.668 2.1914-2.469 3.3047-.378.5274-.765 1.0469-1.136 1.5781-.422.6172-.856 1.2227-1.254 1.8477-.617.9649-1.231 1.9219-1.82 2.8945-.571.9453-1.125 1.9024-1.68 2.8634-.547.945-1.082 1.902-1.617 2.863-.118.18-.211.371-.313.559zm70.453 3.91c-.906-.078-1.812-.132-2.723-.242-1.054-.125-2.109-.246-3.164-.371-1.679-.242-3.359-.492-5.039-.719-1.347-.183-2.703-.371-4.054-.554-1.629-.223-3.258-.403-4.895-.555-2.773-.254-5.555-.359-8.332-.359-1.629 0-3.266.039-4.894.105-2.375.102-4.75.207-7.125.309-2.133.089-4.266.261-6.403.398-1.707.106-3.414.258-5.117.402-1.742.145-3.484.27-5.219.454-2.574.273-5.144.546-7.722.824-1.758.183-3.524.386-5.282.582-.011-.094-.015-.192-.027-.285.055-.055.117-.106.156-.172.727-1.27 1.512-2.516 2.278-3.762.75-1.211 1.5-2.426 2.25-3.633 1.39-2.2381 2.843-4.4451 4.406-6.574.953-1.3008 1.922-2.5938 2.902-3.8711 3.473-4.4531 7.012-8.8477 10.539-13.25.75-.9414 1.523-1.8633 2.289-2.793.926-1.1133 1.848-2.2305 2.778-3.3359.023.0117.05.0274.074.0391.918.5156 1.836 1.0312 2.75 1.5391 1.094.6094 2.16 1.2656 3.242 1.8984.992.582 1.977 1.1797 2.969 1.7812 2.07 1.25 4.156 2.4766 6.238 3.707.113.0781.234.1328.363.1797.035.0117.067.0234.106.0351.027.0039.054.0157.086.0157.699.164 1.469-.1328 1.847-.7774.055-.0937.102-.1914.133-.2969 2.11-1.8945 4.219-3.793 6.324-5.6914.004.0157.012.0352.024.0547.133.3633.285.7188.437 1.0703.157.3711.321.7344.493 1.0977.968 2.082 1.976 4.1484 3.035 6.1953.582 1.1211 1.172 2.2383 1.769 3.3477.528.9805 1.086 1.9414 1.637 2.9102 1.098 1.9375 2.18 3.8906 3.199 5.875 1.074 2.082 2.145 4.1719 3.305 6.2105 1.16 2.04 2.48 3.989 3.949 5.821.438.547.891 1.082 1.391 1.586.336.339.695.648 1.058.953-.687-.043-1.359-.094-2.031-.149zm9.887-58.5856c-.231.9335-.41 1.8828-.59 2.8281-.195 1.0469-.379 2.0938-.539 3.1484-.152 1.0078-.281 2.0156-.398 3.0234-.075.6171-.157 1.2305-.204 1.8477-.062.7734-.125 1.5391-.179 2.3125-.102 1.293-.235 2.5859-.293 3.8789-.074 1.5664-.145 3.1405-.211 4.7147-.067 1.5234-.078 3.0509-.117 4.5743-.036 1.4375-.051 2.8789-.079 4.3164-.042 2.625-.132 5.2461-.281 7.8672-.301 5.5156-.804 11.0159-1.054 16.531-.043 1.004-.067 2-.067 3-.301-.133-.605-.273-.89-.441-.411-.243-.801-.5-1.18-.774-.645-.527-1.262-1.082-1.813-1.695-.578-.637-1.121-1.301-1.652-1.977-2.711-3.6795-4.769-7.7732-6.957-11.7658-1.082-1.9805-2.25-3.9219-3.394-5.8633-1.18-2.0039-2.321-4.0312-3.411-6.082-.527-.9844-1.054-1.9766-1.574-2.9688-.558-1.0625-1.109-2.1445-1.605-3.2422.254.2813.5.5664.738.8633-.035-.043-.066-.0899-.102-.1289.243.3203.489.6328.727.9453-.035-.0391-.066-.086-.102-.1289.09.1172.18.2343.27.3515.105.1406.207.2461.379.293.164.043.34.0234.492-.0664.273-.1563.441-.5938.23-.875-.718-.9336-1.433-1.8633-2.23-2.7383 2.004-1.8047 4.016-3.6055 6.019-5.4141 4.008-3.6133 8.004-7.2422 12.141-10.707.875-.7344 1.754-1.457 2.633-2.1719.477-.3906.953-.7852 1.422-1.1797.57-.4883 1.121-.9727 1.59-1.5586.203-.2461.336-.4805.336-.8125 0-.0742-.027-.1445-.043-.2188.43.0664.863.1407 1.293.2227.242.0508.469.0625.699.0234.008.0196 0 .043-.004.0665z"/><path d="m210.879 73.2387c.441.6289.894 1.2539 1.347 1.875.313.5547.621 1.1016.942 1.6562 1.097 1.9141 2.172 3.8398 3.289 5.75 2.191 3.7461 4.387 7.4883 6.57 11.238 1.965 3.3711 3.891 6.7691 5.824 10.1601 1.086 1.902 2.18 3.797 3.282 5.695.933 1.606 1.882 3.207 2.789 4.832 1.293 2.309 2.582 4.621 3.922 6.906-.954.746-1.899 1.5-2.852 2.258-.254.203-.379.61-.379.918 0 .34.133.676.379.918.242.242.578.379.918.379.375 0 .637-.156.918-.379 1.102-.875 2.195-1.765 3.305-2.625.777-.598 1.578-1.176 2.375-1.758-.114.52.211 1.063.726 1.203.57.157 1.094-.191 1.277-.722.27-.789.45-1.598.606-2.406.824-.61 1.652-1.223 2.477-1.832 1.101-.817 2.21-1.637 3.32-2.454.597-.449 1.238-.839 1.859-1.253 2.996-2.012 5.989-4.02 8.989-6.032 2.082-1.398 4.195-2.777 6.289-4.16 4.972-3.289 9.961-6.5467 14.953-9.8006 1.941-1.2695 3.875-2.5469 5.812-3.8242 2.129-1.3984 4.266-2.7773 6.371-4.2109 2.781-1.8945 5.571-3.793 8.356-5.6836.804-.5469 1.597-1.1133 2.39-1.6797.696-.4883 1.395-.9805 2.09-1.4688.371.3125.918.4023 1.348.1328 4.68-2.9414 9.191-6.1328 13.664-9.3633 2.117-1.5273 4.246-3.0195 6.394-4.4961.336-.2305.676-.461 1.02-.6875.375-.2461.738-.5039 1.101-.7735.207-.1523.426-.2968.618-.4687.035-.0274.062-.0625.089-.0938h.075c.699-.0234 1.281-.5703 1.281-1.2812 0-.5312-.336-.9922-.801-1.1797-.141-.2343-.332-.4414-.508-.6445-.218-.2461-.437-.5039-.656-.7578-.801-.9531-1.578-1.9219-2.379-2.8789-1.652-1.9766-3.367-3.9102-5.105-5.8125-1.766-1.9258-3.551-3.8359-5.297-5.7773-1.719-1.9141-3.426-3.832-5.117-5.7695-.934-1.0703-1.86-2.1523-2.782-3.2305-.879-1.0352-1.734-2.082-2.597-3.1367-1.664-2.0273-3.317-4.0664-4.985-6.0859-1.613-1.9492-3.23-3.8906-4.804-5.875-.438-.5469-.875-1.0977-1.309-1.6523-.547-.7578-1.098-1.5078-1.645-2.2578-.421-.5781-.839-1.1406-1.226-1.7422-.629-.9688-1.254-1.9336-1.883-2.8945-.441-.6836-.84-1.39451-1.238-2.10161-.403-.71094-.774-1.4375-1.125-2.1797.051-.03907.101-.07813.152-.11719 1.508-1.2422 3-2.4922 4.457-3.793.43-.38672.391-1.1133 0-1.5078-.203-.20312-.469-.3125-.75-.3125-.309 0-.527.125-.75.3125-.371.29688-.738.593749-1.109.88672-.055.03906-.106.08594-.164.125.035-.02735.066-.05078.101-.07813h-.004c-.254.19531-.504.38673-.758.58203-.707.53906-1.41 1.082-2.121 1.6133-.308-.87891-.582-1.7734-.839-2.671896-.118-.41406-.5-.6953091-.915-.6953091-.085 0-.164.0117183-.246.0351561-.488.13281-.8.667968-.656 1.160199.242.83984.477 1.6797.75 2.5078.09.28125.207.55469.313.82813-.274.20312-.547.39844-.828.59766-.559.40234-1.153.76562-1.731 1.1484-1.059.69922-2.152 1.3477-3.23 2.0156-1.192.73828-2.415 1.4297-3.618 2.14064-2.246 1.3281-4.535 2.5859-6.804 3.8711-.789.4414-1.586.8671-2.375 1.3047-1.606.8789-3.207 1.7578-4.817 2.6367-1.871 1.0234-3.746 2.0391-5.621 3.0586-1.629.8867-3.254 1.7656-4.883 2.6484-.687.375-1.383.7382-2.066 1.1211-2.527 1.4219-5.047 2.8555-7.566 4.2852-1.825 1.0352-3.669 2.043-5.477 3.1094-4.543 2.6719-9.102 5.3125-13.629 8.0039-2.703 1.6055-5.402 3.2188-8.11 4.8281-1.289.7656-2.574 1.5352-3.863 2.2969-.5.3007-.984.6054-1.473.9297-1.574 1.0352-3.152 2.0664-4.73 3.1016-.594.3906-1.188.7773-1.781 1.1718-1.012.668-2 1.3711-2.996 2.0625-.274.1915-.481.4141-.571.7461-.015.0664-.004.1407-.015.2071-.309-.1055-.61-.2071-.918-.3125-.106-.0391-.219-.0547-.324-.0547-.141 0-.274.0273-.399.0781-.152.0273-.301.0742-.437.1563-.309.1796-.539.4765-.633.8242-.09.332-.067.7734.14 1.0586 3.657 5.1836 7.336 10.391 11.016 15.598zm116.16-11.418c-.157-.0742-.332-.1172-.504-.1172-.203 0-.403.0508-.582.164-2.391 1.4883-4.711 3.0781-7.028 4.6719-2.554 1.7539-5.089 3.5352-7.621 5.3125-2.359 1.6562-4.722 3.3087-7.086 4.961-2.195 1.5391-4.425 3.0312-6.64 4.5352-1.899 1.2891-3.797 2.5702-5.711 3.8358-2.762 1.8203-5.516 3.6445-8.277 5.4648-4.239 2.8008-8.5 5.5547-12.73 8.3594-2.895 1.9219-5.797 3.8479-8.692 5.7699-2.183 1.449-4.351 2.929-6.531 4.394-1.422.957-2.844 1.914-4.266 2.871-.492.332-.968.672-1.445 1.024-1.082.8-2.16 1.601-3.246 2.402.027-.191.055-.379.086-.57.332-2.278.582-4.571.785-6.868.203-2.32.391-4.632.598-6.945.195-2.2226.5-4.4335.789-6.6483.023-.1679.043-.332.066-.5.297-1.9922.571-4 .879-5.9922.336-2.1914.672-4.3789 1.012-6.5703.312-1.9922.605-3.9922.945-5.9805.453-2.6445.902-5.293 1.379-7.9336 1.793.4141 3.594.75 5.426 1.0039-.016 0-.035-.0039-.051-.0039.09.0118.184.0235.274.0391h-.004c.296.0391.597.1055.894.1172.086.0117.172.0234.258.0351.18.0235.363.0508.543.0743-.055-.0039-.113-.0157-.168-.0235.074.0117.141.0156.211.0274.051.0039.101.0156.156.0234-.023-.0039-.043-.0039-.066-.0117.039.0039.086.0117.125.0156h-.012c-.012 0-.027-.0039-.039-.0039.012 0 .016 0 .027.0039-.027-.0039-.054-.0039-.086-.0117.075.0117.145.0234.219.0273-.035-.0039-.074-.0117-.105-.0156.004 0 .015 0 .023.0039.012 0 .016 0 .027.0039h-.003c.011 0 .023.0039.035.0039-.012 0-.016 0-.028-.0039.086.0117.164.0235.246.0352.024.0039.051.0039.075.0117-.016 0-.036-.0039-.051-.0039.023 0 .039.0039.062.0039 2.598.3477 5.219.5547 7.825.8867.242.0352.476.0664.718.1016.133.0156.262.0351.391.0508.113.4492.449.8281.914.957.687.1914 1.398-.2305 1.598-.9063 1.101-3.7734 2.289-7.5195 3.449-11.277 6.203-.3242 12.426-.2226 18.637.0157 2.992.1172 5.98.2187 8.973.2812 3.074.0625 6.156.1328 9.21.4922.336.0391.676.0781 1.012.1172 1.395.2109 2.789.4492 4.184.6992 1.715.3008 3.437.6055 5.176.7656.8.0782 1.597.1328 2.398.168.734.0274 1.473.0117 2.207-.0039.051 0 .094-.0039.145-.0039-.356.2148-.68.4414-1.004.6641zm-38.762-48.055c.195-.875.398-1.7422.629-2.6055.207-.7891.48-1.55862.785-2.31252.144-.33203.285-.66797.425-1.0039.172.33594.336.67188.516 1.0039.363.66016.734 1.33202 1.141 1.97272.761 1.1875 1.519 2.3789 2.277 3.5625.313.4883.676.9453 1.012 1.4102.48.6718.965 1.3438 1.445 2.0156.281.3906.582.7617.879 1.1406.566.7265 1.137 1.457 1.703 2.1836 1.574 2.0234 3.215 4 4.82 6.0039 1.618 2.0156 3.207 4.0547 4.817 6.082 3.269 4.1289 6.699 8.1211 10.102 12.137 1.691 2 3.433 3.9531 5.144 5.9297 1.653 1.9023 3.27 3.832 4.871 5.7734.364.4375.746.8554 1.121 1.2812-.628-.0117-1.253-.0156-1.882-.0352-1.563-.039-3.114-.1523-4.661-.3398-2.918-.4297-5.808-1.0469-8.73-1.4844-3.168-.4766-6.379-.5391-9.574-.543-1.563-.0039-3.121.0117-4.68.0156-1.535 0-3.07-.0273-4.598-.0507-2.547-.0391-5.101-.0782-7.648-.0782-.555 0-1.102 0-1.656.0039-3.231.0235-6.461.0743-9.688.2188.352-1.1758.707-2.3516 1.043-3.5391.801-2.8242 1.59-5.6523 2.403-8.4688.773-2.6719 1.585-5.332 2.347-8.0078 1.574-5.5625 3.063-11.145 4.367-16.777.434-1.8125.856-3.6484 1.27-5.4883zm-81.078 41.285c.504-.3321 1.007-.6563 1.507-.9844 1.528-1.0039 3.059-2.0039 4.586-3.0078.547-.3594 1.094-.7266 1.657-1.0625 1.164-.6953 2.335-1.3906 3.5-2.082 4.503-2.6758 9-5.3555 13.52-7.9961 2.871-1.6875 5.75-3.3711 8.625-5.0586 1.668-.9805 3.367-1.9141 5.05-2.8672 2.711-1.5352 5.422-3.0625 8.133-4.5938.547-.3125 1.102-.6055 1.656-.9023 1.575-.8516 3.149-1.7031 4.723-2.5547 1.938-1.0547 3.887-2.0938 5.82-3.1523 1.559-.8516 3.114-1.6953 4.672-2.5547.969-.5274 1.942-1.0469 2.906-1.5859 1.215-.6836 2.43-1.3711 3.645-2.0625.953-.5391 1.914-1.0625 2.855-1.6172 1.321-.7852 2.645-1.5625 3.965-2.3398.461-.2696.903-.5664 1.348-.84379.43-.27344.875-.53125 1.305-.8125-.145.375-.301.73828-.426 1.12109-.43 1.293-.719 2.625-1.024 3.9531-.667 2.8398-1.32 5.6797-2.011 8.5195-1.36 5.6211-2.871 11.207-4.453 16.773-.739 2.5938-1.489 5.1875-2.192 7.7969-.804 2.9961-1.625 5.9922-2.48 8.9766-.59 2.043-1.231 4.0781-1.864 6.1094-.425 1.3711-.828 2.7539-1.238 4.1328-.09-.0391-.183-.0781-.273-.0937-2.031-.3594-4.09-.5586-6.145-.7774-1.445-.1523-2.883-.3242-4.324-.5078-.117-.0273-.246-.043-.371-.043-.242-.0273-.481-.0625-.719-.0937-1.527-.2305-3.051-.4688-4.558-.8047-.371-.0859-.735-.1797-1.098-.2734-.52-.1641-1.043-.3204-1.567-.4297-.066-.0157-.14-.0274-.207-.0391-.507-.1445-1.023-.293-1.527-.4531-.164-.0508-.324-.0742-.488-.0742-.152 0-.301.0273-.449.0664-1.356-.2188-2.715-.3868-4.078-.5547-1.231-.1563-2.465-.3008-3.704-.4219-1.371-.1289-2.742-.2734-4.121-.3789-2.765-.2109-5.539-.4258-8.304-.6367-2.309-.1719-4.61-.4258-6.911-.6485-1.496-.2109-2.984-.4414-4.472-.6679-.41-.0625-.828-.1055-1.239-.1914-.648-.1329-1.3-.2618-1.953-.3985-1.664-.3398-3.328-.6836-4.988-1.0195-.375-.0781-.75-.207-1.121-.3125-.957-.2695-1.914-.539-2.871-.8047-.192-.0547-.379-.1054-.57-.164.757-.5469 1.507-1.0781 2.273-1.582zm-1.008 4.4297c1.082.3086 2.144.6367 3.242.8672 1.836.3789 3.68.7617 5.516 1.1484 1.109.2304 2.222.3906 3.343.5664 1.368.2109 2.735.4687 4.106.6094 1.754.1835 3.512.3711 5.266.5547 1.347.1406 2.71.2421 4.066.3515 1.32.1172 2.644.2305 3.969.3477 1.965.1719 3.929.375 5.89.582 1.793.1836 3.578.4375 5.364.6758.363.0547.726.1133 1.086.168.222.4687.636.8515 1.171 1.0195.711.2226 1.43.4296 2.145.6289-.5 2.7539-.965 5.5234-1.438 8.2812-.39 2.2852-.722 4.582-1.085 6.8672-.645 4.0898-1.293 8.1757-1.856 12.2729-.309 2.2617-.629 4.5234-.84 6.7928-.219 2.336-.426 4.676-.637 7.012-.152 1.629-.335 3.254-.539 4.879-.179 1.305-.375 2.598-.605 3.898-.012.078-.027.153-.039.231-1.059.785-2.11 1.562-3.168 2.347-.168.125-.332.258-.5.379-1.875-3.347-3.82-6.652-5.801-9.945-.918-1.523-1.855-3.035-2.762-4.562-1.007-1.704-2.023-3.407-3.023-5.114-1.102-1.8709-2.191-3.7576-3.309-5.617-1.214-2.0156-2.425-4.0391-3.632-6.0586-1.032-1.7188-2.063-3.4375-3.098-5.1523-.488-.8125-.965-1.6289-1.445-2.4414.023-.0117.05-.0117.078-.0273.578-.336.707-1.0352.422-1.6016-.668-1.3203-1.407-2.6094-2.235-3.8398-.836-1.2383-1.679-2.4688-2.535-3.6953-1.629-2.3359-3.289-4.6406-4.934-6.9648-.429-.6055-.855-1.2148-1.289-1.8242-.101-.168-.203-.3359-.308-.5039-.254-.4102-.5-.8242-.75-1.2305-.254-.4141-.528-.8008-.813-1.1914-.105-.1524-.254-.2422-.414-.2969-.23-.332-.465-.6602-.699-.9922.699.1875 1.394.3828 2.09.5781z"/><path d="m261.369 68.8286c-.055-.0039-.114-.0156-.172-.0234-.035-.0039-.067-.0117-.106-.0156.016 0 .028.0039.043.0039-.011 0-.015 0-.027-.0039-.063-.004-.129-.0157-.191-.0274.054.0039.113.0156.167.0234.102.0157.192.0313.286.043z"/><path d="m260.609 68.7285c-.016 0-.028-.0039-.043-.0039.043.0039.09.0117.14.0156-.027-.0039-.062-.0117-.097-.0117z"/><path d="m5.12866 150.043-.01953-.031-.01953-.019z"/><path d="m5.12866 150.034-.02734-.039.01172.019z"/><path d="m48.8289 172.684.0078.031v-.024z"/><path d="m105.899 131.023c.722.426 1.59.145 2.031-.531.508-.785 1.062-1.527 1.625-2.277-.004.012-.016.023-.023.027.292-.379.589-.761.886-1.14 1.153-1.446 2.321-2.871 3.496-4.289.477-.571.969-1.122 1.461-1.676.684-.774 1.371-1.535 2.067-2.297.086.086.168.164.246.254.386.441 1.109.488 1.59.207.203-.117.351-.274.468-.469.164-.281.254-.699.133-1.012-.039-.105-.078-.207-.125-.312.707-.102 1.406-.219 2.106-.352.39-.078.757-.398.957-.734.211-.371.273-.817.156-1.231-.106-.398-.375-.746-.735-.953-.253-.144-.519-.211-.789-.211-.144 0-.293.016-.437.051-.918.195-1.836.379-2.762.527-.363.043-.726.079-1.094.118-.296-.246-.593-.489-.89-.739-1.074-.906-2.121-1.855-3.152-2.816-2.055-1.934-4.04-3.941-6.086-5.887-2.043-1.941-4.157-3.801-6.266-5.6716-1.1484-1.0117-2.2734-2.043-3.3828-3.0898-1.0117-.9571-1.9766-1.9727-2.9297-2.9961-2.0312-2.1953-4.0898-4.3672-6.1875-6.5-1.9922-2.0273-4.0273-4.0078-6.0664-5.9922-.8242-.8008-1.6367-1.6133-2.4258-2.4531-.9688-1.0234-1.9102-2.0781-2.7891-3.1797.0234-.2305.043-.461.0547-.6875.0273-.4493-.0664-.9297-.1719-1.3672-.0937-.4102-.4609-.7461-.8555-.8555-.1054-.0274-.2109-.043-.3203-.043-.1953 0-.3867.0508-.5547.1328-.1914-.3242-.3789-.6484-.5664-.9804-.2109-.3868-.6367-.5977-1.0586-.5977-.2109 0-.4258.0508-.6094.1641-.582.3398-.7617 1.0938-.4375 1.6758.1016.1835.2071.3632.3086.5429-.164.0235-.3125.0625-.4297.1524-1.2383.9453-2.5078 1.8555-3.7461 2.8008-.6562.5-1.3007 1.0039-1.9218 1.5352-.5274.4492-1.0353.914-1.547 1.3789-2.1055 1.9141-4.1835 3.8594-6.2733 5.7969-2.1094 1.9609-4.2461 3.9102-6.293 5.9375-2.1719 2.1406-4.3165 4.3047-6.4415 6.5-2.1328 2.1992-4.2891 4.3745-6.4727 6.5315-2.0117 1.98-4.0391 3.941-6.0469 5.925-2.0781 2.051-4.1367 4.11-6.1992 6.172-2.25 2.246-4.5078 4.485-6.7812 6.707-2.0547 2.012-4.1211 4.004-6.1836 6.008-1.0352 1.012-2.0703 2.027-3.0977 3.047-1.082 1.07-2.14055 2.168-3.19135 3.258-.95703.992-1.8594 2.031-2.7734 3.058-1.0547 1.172-2.0664 2.387-2.9844 3.665-.57812.796-1.12501 1.601-1.550806 2.488-.39844.836-.636721 1.746-.8007811 2.656-.0625.348-.0546841.656.1289141.969.16406.281.4375.492.75.578.324223.09.675783.043.968753-.125.25781-.152.51952-.449.57811-.75.03907-.211.08985-.422.14063-.629.17188.223.33984.441.51562.668.55859.723 1.125 1.438 1.6875 2.16.0664.09.19141.145.30859.172 0 .004.0039.004.0039.012 0-.004-.0039-.004-.0039-.012 1.1641 1.508 2.3398 3.008 3.5117 4.512.36328.469.75781.918 1.1406 1.379.79682.957 1.58982 1.914 2.39062 2.871.3359.402.6562.812 1.0078 1.203.6562.726 1.3164 1.461 1.9727 2.191 1.0469 1.164 2.0781 2.352 3.1641 3.485.8281.867 1.6562 1.742 2.4883 2.609.5195.547 1.0312 1.102 1.5625 1.641 1.3594 1.39 2.7422 2.761 4.1172 4.136 1.2109 1.215 2.457 2.387 3.6914 3.578 1.2305 1.192 2.5078 2.34 3.7695 3.5 1.1914 1.098 2.4062 2.172 3.6172 3.254 1.2695 1.141 2.543 2.278 3.8086 3.426.9297.844 1.8555 1.703 2.8008 2.531.3867.34.7734.676 1.1602 1.012-.3985.387-.7969.777-1.1914 1.172-.4805.477-.4766 1.281 0 1.758.4804.48 1.2773.476 1.7578 0 .4531-.453.914-.906 1.3672-1.36.1289.102.2461.203.375.301.1328.078.2851.117.4414.117.2305 0 .4531-.093.6172-.257.164-.165.2578-.387.2578-.618 0-.211-.0899-.48-.2578-.621-.0664-.054-.1289-.117-.2031-.172.1796-.179.3476-.363.5273-.543.0781.45.1797.887.3086 1.321.125.422.5039.722.9453.722.5 0 1.0234-.449.9805-.98-.0664-.805-.0899-1.613-.1641-2.418-.0234-.246-.043-.492-.0742-.738 1.0547-1.125 2.1055-2.258 3.1641-3.383 1.2383-1.328 2.4805-2.656 3.7227-3.981.4414-.468.8555-.945 1.2773-1.437 2.3984-2.832 4.793-5.66 7.1914-8.496 1.7539-2.071 3.4766-4.176 5.2188-6.266.5664-.683 1.1328-1.359 1.6953-2.043.2226-.269.4375-.547.6719-.805.8867-.98 1.7539-1.976 2.6328-2.96 1.3047-1.469 2.6055-2.934 3.9102-4.403.4882-.554.9843-1.086 1.4883-1.625 2.4062-2.527 4.8164-5.051 7.2188-7.578.7461-.785 1.5117-1.539 2.2617-2.312 1.3594-1.391 2.7227-2.774 4.082-4.161 1.8828-1.921 3.7969-3.808 5.6996-5.707 1.316-1.308 2.636-2.621 3.964-3.925.043.39.282.804.696 1.05zm-30.6883-40.2576c.4493-3.1758.7227-6.3672 1.0977-9.5469.0938-.8359.2032-1.6641.3008-2.4922.0664.0743.1289.1524.1914.2227.9922 1.125 2.0117 2.2188 3.0586 3.293 1.0078 1.0352 2.043 2.043 3.0586 3.0742 1.0117 1.0312 2.0117 2.0703 3.0078 3.1133 2 2.0781 3.9648 4.1953 5.918 6.3164.9844 1.0742 1.9648 2.1523 3.0078 3.168 1.0234 1.0078 2.0703 1.9883 3.1484 2.9341 2.1802 1.921 4.3752 3.82 6.4842 5.812 2.039 1.922 4.016 3.91 6.028 5.863.835.813 1.695 1.602 2.554 2.387-1.047.012-2.09.023-3.136.039-3.02.039-6.028.129-9.032.34-3.0075.211-6.0075.582-9.0231.723-3.0586.14-6.1133.234-9.1797.3-2.0273.039-4.0586.063-6.0938.133-1.9141.067-3.8242.156-5.7344.254.1797-.891.3633-1.781.543-2.672.3086-1.5.5664-3 .8242-4.512.5313-3.085 1.0312-6.175 1.5273-9.269.5274-3.1445 1-6.3086 1.4492-9.4805zm-71.81995 54.0506c.11719-.027.23437-.05.35156-.078.45312-.101.90234-.195 1.3555-.297.125-.027.1953-.168.16405-.285-.03515-.129-.16405-.191-.28515-.164-.41406.098-.82813.18-1.23831.266.39062-.617.82423-1.211 1.26561-1.785 1.3828-1.746 2.90619-3.371 4.40229-5.02.41406-.461.8633-.89 1.3008-1.34.4766-.488.9336-.98 1.4219-1.457 2.1523-2.105 4.3047-4.207 6.4805-6.281 2.2344-2.133 4.4648-4.277 6.6875-6.422 2.0117-1.941 3.9805-3.922 5.9648-5.886 2.043-2.028 4.0938-4.055 6.1641-6.055 2.1836-2.106 4.3945-4.195 6.5391-6.344.9922-.992 1.9883-1.977 2.9688-2.98 1.0195-1.0474 2.0312-2.0943 3.0586-3.1294 2.2188-2.2383 4.4531-4.457 6.7266-6.6367 1.9883-1.9023 4.0156-3.7695 6.0156-5.6562 1.1094-1.0469 2.2227-2.1016 3.3281-3.1523 1.0039-.957 1.9922-1.9336 3.0469-2.832.8164-.707 1.6641-1.3711 2.5156-2.0312-.0039.0039-.0117.0118-.0156.0157.0273-.0235.0508-.0391.0781-.0625-.0156.0156-.0391.0273-.0547.0429.0742-.0547.1406-.1054.211-.164.0039-.0039.0117-.0039.0156-.0117.0039-.0039.0117-.004.0156-.0118-.0273 0-.0352 0-.0352.0039.6758-.5273 1.3556-1.0469 2.0235-1.5781.0351-.0351.0507-.0742.0781-.1054-.086.582-.1797 1.1641-.2735 1.7422-.2421 1.4375-.4687 2.8789-.6718 4.3281-.1954 1.4219-.3477 2.8438-.5079 4.2734-.1679 1.4609-.3398 2.918-.5195 4.375-.4258 3.0703-.875 6.1367-1.3438 9.1992-.4492 2.9179-.8867 5.8359-1.3711 8.7419-.2578 1.528-.4883 3.059-.7969 4.574-.2187 1.102-.4375 2.207-.6601 3.309-.1016.516-.1914 1.035-.3125 1.547-.4414 1.863-.8907 3.73-1.332 5.594-.2539 1.074-.5 2.144-.7969 3.207-.5977 2.152-1.1992 4.301-1.7969 6.453-.6758 2.43-1.3828 4.855-2.0938 7.273-.1172.391-.0547.801.1289 1.141-.5312.015-1.0625.023-1.5977.051-.8398.05-1.6797.101-2.5156.152-1.6055.094-3.2188.203-4.8281.309-1.3945.093-2.7812.211-4.1719.347-.7617.074-1.5234.145-2.2852.211-.1016-.41-.4297-.734-.8867-.734-.4766 0-.9336.41-.9258.902-.3906.035-.7891.074-1.1797.113-3.2305.297-6.4727.528-9.7109.786-2.75.218-5.5039.437-8.2539.671-3.5234.301-7.0391.606-10.566.895-.5273.043-1.0547.102-1.5859.129-.8281.039-1.6641.086-2.4922.125-.95702.051-1.91019.094-2.86719.144-.5.024-.99219.024-1.4883.028-.55469 0-1.1094-.012-1.6641-.035-.27344-.012-.54688-.036-.82812-.063-.17188-.016-.33984-.027-.51562-.039.05468-.098.10547-.203.16016-.312zm1.5586 4.985c.00391.004.00391.004.01172.012.0039.003.0039.011.01172.015l-.01172-.012c0-.003-.00781-.007-.01172-.015zm.01562.019c.00391.004.01172.016.01563.024.01172.015.02344.027.03515.043-.01562-.024-.03515-.047-.05078-.067zm42.66803 39.152c-.3399.364-.6953.711-1.0469 1.063-.7344-.656-1.4609-1.309-2.1914-1.965-1.2266-1.098-2.4648-2.18-3.7031-3.258-1.4375-1.254-2.8789-2.508-4.3125-3.769-1.3555-1.188-2.6953-2.391-4.0312-3.594-1.3164-1.18-2.5859-2.414-3.875-3.629-1.2305-1.164-2.4258-2.367-3.6328-3.562-.4883-.481-.9922-.954-1.4688-1.446-.5899-.609-1.1797-1.222-1.7695-1.832-1.1133-1.152-2.25-2.285-3.3281-3.465-1.3984-1.535-2.8008-3.07-4.1953-4.609-.3907-.43-.75-.891-1.125-1.34-.8008-.953-1.6016-1.91-2.4062-2.863-.3399-.41-.69534-.813-1.02343-1.227-.66797-.851-1.332-1.695-2.0039-2.547-1.1016-1.406-2.1992-2.812-3.3047-4.218-.02344-.028-.04297-.055-.0664-.09-.02735-.043-.0625-.09-.09375-.125-.14453-.184-.29297-.371-.42969-.555-.00391-.012-.01563-.015-.02344-.027.23438.027.46484.062.69922.09.55469.054 1.1094.089 1.6641.113.27344.012.55469.016.83594.027.23438.004.46484.016.69922.012.75781-.016 1.5117-.035 2.2617-.055 1.44533-.035 2.89453-.05 4.33983-.133 3.5391-.207 7.0781-.425 10.617-.656 2.7773-.179 5.5547-.347 8.332-.492 1.7305-.09 3.457-.195 5.1875-.273 1.4844-.067 2.9688-.133 4.457-.219.5976-.035 1.2031-.074 1.8047-.106.1406 2.403.2812 4.805.4297 7.211.0664 1.082.1679 2.156.2539 3.231.0742.933.1445 1.871.2226 2.804.3985 4.711.8125 9.415 1.3398 14.113.3789 3.407.875 6.793 1.3438 10.188.2071 1.735.3907 3.465.5391 5.207.0234.293.0391.583.0625.868-.3594.379-.711.754-1.0586 1.129zm1.207-16.195c.0039.024.0039.043.0117.067-.0039-.028-.0039-.047-.0117-.067zm51.641-42.055c-2.0781 2.078-4.1367 4.168-6.2031 6.254-2.1445 2.16-4.2461 4.367-6.3672 6.551-1.9609 2.016-3.8711 4.082-5.8008 6.125-.9258.981-1.8477 1.953-2.7734 2.934-.2071.222-.4024.461-.6055.683-.5664.645-1.1328 1.289-1.6953 1.934-1.332 1.512-2.6602 3.023-3.9922 4.535-.5039.578-1.0039 1.148-1.4883 1.734-2.1445 2.598-4.2852 5.196-6.4336 7.797-1.9727 2.379-3.9883 4.731-5.9766 7.094-.8047.957-1.6133 1.914-2.418 2.871-.1641.192-.3477.371-.5156.555-.5078.547-1.0195 1.094-1.5352 1.641-1.3398 1.433-2.6719 2.867-4.0078 4.3-.0938-.867-.1953-1.734-.3086-2.597-.168-1.231-.3398-2.457-.5313-3.684-.2109-1.344-.4296-2.695-.6171-4.043 0 .016.0039.035.0039.051 0-.012 0-.016-.0039-.028 0 .012.0039.024.0039.036 0-.024-.0039-.043-.0118-.067-.0117-.066-.0156-.133-.0273-.203 0 .016.0039.027.0039.043-.1055-.801-.2187-1.602-.3242-2.406.0039.039.0117.078.0156.117-.0039-.023-.0039-.051-.0117-.074v-.012c0-.012 0-.015-.0039-.027-.0039-.028-.0039-.055-.0117-.086 0-.012-.0039-.027-.0039-.039 0 .012 0 .023.0039.035 0-.012 0-.023-.0039-.027v-.012c-.0039-.027-.0039-.055-.0118-.086.004.016.004.039.0118.055v.011c0 .016.0039.024.0039.036-.0039-.043-.0117-.09-.0157-.133-.2929-2.27-.5273-4.547-.7656-6.821-.2227-2.078-.4023-4.156-.5898-6.234-.2188-2.488-.4258-4.969-.6289-7.453-.1797-2.234-.2852-4.469-.4297-6.703-.0274-.426-.043-.852-.0743-1.27.5-.027.9961-.054 1.4962-.09 1.4609-.093 2.9297-.191 4.3906-.242 1.5977-.054 3.1913-.113 4.789-.144 1.6289-.035 3.254-.055 4.879-.18.2734-.023.5546-.051.8281-.078.1015-.016.2031-.027.3008-.039.1953-.051.3593-.152.5039-.293.2109-.211.3359-.504.3359-.805 0-.164-.0391-.32-.1055-.461.3516-.203.6289-.531.75-.945.6758-2.301 1.3477-4.602 2-6.914.5938-2.121 1.1797-4.246 1.7734-6.367.2813-1.008.5313-2.016.7774-3.036.4297-1.796.8632-3.593 1.293-5.394 1.4844-.078 2.9688-.156 4.457-.207 1.6523-.055 3.3086-.09 4.9609-.125 2.9531-.055 5.8984-.074 8.8438-.117 1.5898-.024 3.1875-.067 4.7773-.133 1.4219-.063 2.8438-.152 4.2734-.231 2.9926-.164 5.9766-.269 8.9726-.308 2.258-.027 4.508-.035 6.766-.055-.325.262-.618.57-.914.863-.34.336-.688.676-1.032 1.012-.519.516-1.046 1.031-1.566 1.547-.973.957-1.941 1.914-2.918 2.871-2.172 2.16-4.332 4.324-6.492 6.485z"/><path d="m50.3389 183.114.0078.015v.016z"/><path d="m49.1987 175.394c0 .011 0 .023.0039.027-.0039-.063-.0156-.125-.0234-.184.0039.055.0078.106.0195.157z"/><path d="m48.8289 172.693.0078.016z"/><path d="m48.8289 172.724c.0039.043.0117.093.0156.14v.012c0-.051-.0039-.102-.0156-.152z"/><path d="m417.949 457.715c-3.35-10.216-6.006-20.64-9.286-30.875-2.52-7.868-4.841-17.036-12.116-21.709-8.843-5.681-19.786-9.537-29.698-12.851-3.333-.91-6.603-2.041-9.786-3.386-.299-.271-.655-.469-1.042-.582-3.196-2.033-5.368-5.339-5.968-9.078-1.337-5.579-.971-12.125-1.08-17.946 10.551-8.606 13.475-23.226 13.451-38.009 4.144-1.227 7.628-7.316 7.571-11.232-.065-2.751-1.445-5.304-3.714-6.865 2.914-3.545 2.691-9.474-.969-12.133l.002.002c1.146-1.634 1.607-3.654 1.282-5.623-.326-1.97-1.41-3.732-3.022-4.911 4.065-1.326 3.492-7.328 1.559-10.195-2.692-3.992-7.817-4.661-12.192-3.778-1.157.235-.917 2.214.282 2.09 3.142-.331 6.985.176 9.035 2.874 2.029 2.671.772 5.009-.149 7.736-.031.127-.032.257-.007.383-.265-.126-.534-.251-.821-.356-1.256-.456-2.1 1.552-.912 2.162l.002.001c1.721.709 2.951 2.259 3.251 4.097.297 1.837-.379 3.699-1.787 4.916-.376.388-.522.944-.385 1.466.139.524.541.935 1.059 1.087 4.588 1.297 2.126 5.938 1.361 9.057-.923-.25-1.882-.322-2.83-.207-.161-1.28-.325-2.545-.498-3.777-.329-2.361-4.454-1.831-4.199.568 2.328 21.971 7.517 53.643-18.932 63.153-13.735 4.94-29.724-.008-36.457-13.513-6.407-12.848-4.199-30.895-5.157-44.947-.024-.693-.592-1.242-1.287-1.242-.693 0-1.261.549-1.285 1.242-.005 1.175-.027 2.387-.058 3.614-1.701-.358-3.472.063-4.828 1.15-.017-.107-.047-.209-.09-.307-1.764-3.848-4.056-6.851-3.123-11.382.625-3.039 2.83-4.967 3.903-7.726.255-.655-.484-1.201-1.068-1.067-.623.148-1.221.383-1.779.696.039-.257.002-.518-.11-.753-1.581-3.275-3.797-7.755-1.725-11.355.969-1.684 6.802-5.689 8.951-4.201v-.001c.45.256 1.005.255 1.455-.004.45-.258.731-.734.737-1.254 1.563-3.357 3.83-4.548 6.807-3.571.618.144 1.241-.226 1.41-.839.168-.612-.176-1.249-.782-1.442-4.146-1.514-8.844-.171-10.054 3.896-3.501-.443-8.477 2.502-10.298 4.694-3.954 4.76-1.328 10.713 1.275 15.377.156.308.44.532.775.613-4.988 4.824-3.783 16.774 2.153 19.792v.002c.09.043.186.075.287.096-1.677 2.146-2.572 4.8-2.537 7.522.106 4.276 3.562 11.146 8.355 10.34.327 9.601 1.848 19.052 6.892 26.478v.001c1.519 2.239 3.342 4.256 5.414 5.996-.149 4.838-.248 9.677-.698 14.499-.983 10.528-6.775 12.694-15.458 15.511-10.479 3.398-22.07 7.429-31.392 13.417-6.911 4.44-9.135 12.674-11.609 20.158-3.59 10.861-6.341 21.981-9.926 32.845-.626 1.896 1.72 2.9 2.998 1.945 13.022 4.186 27.128 5.103 40.648 6.544l.001.002c15.477 1.483 31.026 2.113 46.573 1.887 30.275.123 60.494-2.587 90.263-8.094.091-.012.182-.027.271-.049.262-.052.527-.093.789-.144 1.22-.241 1.203-1.999.304-2.509zm-51.544-143.429c-.943 1.892-2.341 3.518-4.069 4.736-.158-4.257-.521-8.477-.981-12.527 3.64.873 6.903 3.515 5.05 7.791zm-73.903 10.335c-2.017-.472-3.612-2.01-4.159-4.009-1.368-3.212-.154-9.827 4.755-9.089-.129 4.224-.307 8.666-.305 13.141zm13.132 63.385c3.422-5.866 2.785-16.584 2.215-24.313v-.002c7.911 4.911 17.456 6.456 26.512 4.292 4.269-.846 8.344-2.478 12.014-4.815-.572 7.839-1.261 18.601 2.173 24.838v-.002c.626 1.094 1.463 2.054 2.461 2.822-16.665 11.348-34.103 9.835-52.154 2.438v.002c2.765-.98 5.142-2.825 6.778-5.262zm-65.527 70.03c3.338-11.105 6.401-22.313 10.463-33.178 3.114-8.33 5.488-13.759 13.761-18.283v-.002c6.685-3.527 13.617-6.562 20.743-9.082 2.74-1.013 6.469-1.778 10.067-2.889 17.231 14.555 42.783 11.16 60.051-1.358 4.627 1.979 10.306 2.914 13.915 4.247 6.521 2.431 12.91 5.198 19.144 8.292 8.897 4.382 12.02 10.148 15.36 19.075 4.052 10.83 7.108 22.002 10.433 33.069-28.613 3.181-57.029 5.855-85.857 6.187-29.393.339-59.254-.005-88.077-6.077z"/><path d="m327.2 347.473c3.494-.646 6.463-2.938 7.97-6.157.441-1.191-1.134-1.769-1.927-1.121-2.128 1.742-3.62 3.443-6.439 4.062-3.045.65-6.223-.024-8.742-1.856-1.141-.825-2.63 1.076-1.517 1.967 2.868 2.648 6.813 3.797 10.655 3.104z"/><path d="m325.566 317.444c-.017-.421-.363-.753-.786-.753-.42 0-.766.332-.783.753-.166 2.882-.844 5.71-2.002 8.352-.654 1.312-1.106 2.714-1.338 4.161-.325 3.005 3.708 4.465 6.228 4.906.341.082.695-.068.871-.371s.132-.686-.108-.941c-1.382-1.407-3.064-2.483-4.921-3.149.355-2.07 1.929-4.402 2.42-6.384.506-2.152.648-4.373.419-6.574z"/><path d="m308.89 309.783c-.278.802-.399 1.649-.363 2.498.089.826.481 1.593 1.098 2.149.261.248.644.32.977.181.332-.136.553-.458.563-.819.057-.561.074-1.128.05-1.694-.07-.551-.039-1.109.089-1.65.157-.657-.234-1.321-.885-1.5-.652-.18-1.329.19-1.529.835z"/><path d="m340.608 308.885c-.058 1.24-.409 2.662.483 3.658.445.44 1.162.44 1.607 0 .889-.991.542-2.421.482-3.658-.024-.693-.592-1.242-1.285-1.242-.695 0-1.263.549-1.287 1.242z"/><path d="m300.667 288.188c-.506 2.402-1.283 4.74-2.318 6.967-1.109 1.896-2.628 3.522-4.447 4.755-.828.664.075 1.949.991 1.701 5.285-1.425 7.058-8.189 8.115-12.778.348-1.516-1.956-2.163-2.341-.646z"/><path d="m298.876 265.327c.926-5.963 7.255-8.605 12.726-7.91 4.495.569 6.671 3.377 10.073 5.513-.199.407-.356.833-.469 1.273-.154.643.231 1.292.869 1.468.637.176 1.299-.185 1.497-.816 1.279-2.384 3.63-4.002 6.313-4.346 3.857-.623 5.778 1.608 7.638 4.7h.002c.229.385.623.643 1.068.7.443.058.889-.093 1.209-.406 4.227-5.268 10.163-2.756 13.013 2.185.49.847 2.122.555 1.982-.537-1.035-8.075-10.415-9.646-15.789-4.976-1.911-2.775-4.253-4.981-8.009-4.728-3.029.175-5.888 1.455-8.034 3.601-2.404-4.557-9.901-6.395-14.484-5.995-5.669.497-10.835 4.102-11.249 10.051-.067.929 1.499 1.162 1.644.223z"/><path d="m352.449 300.921c.828.775 2.368-.262 1.646-1.269-3.956-5.522-13.03-9.75-19.541-6.121l-.002-.002c-.27.17-.399.496-.315.804s.36.526.678.536c3.061-.051 6.117.251 9.108.903 3.161 1.06 6.04 2.82 8.426 5.149z"/><path d="m318.417 298.381c.301-.537.125-1.217-.402-1.537-1.117-.78-2.394-.51-3.691-.729h.002c-1.448-.229-2.813-.826-3.963-1.733-1.239-1.051-2.18-2.411-2.723-3.942-.544-1.532-.674-3.18-.374-4.776.147-.635-.231-1.273-.859-1.446s-1.28.18-1.479.801c-.8 2.026-.97 4.247-.482 6.37.486 2.124 1.605 4.049 3.21 5.524 2.336 2.103 8.43 4.799 10.761 1.468z"/><path d="m329.022 295.59c-.618-.568-1.372-.97-2.188-1.165-1.073-.399-2.073-.974-2.957-1.701-1.729-1.422-2.842-3.456-3.104-5.679-.026-.669-.575-1.198-1.244-1.198-.667 0-1.217.529-1.242 1.198-.134 3.013 1.079 5.929 3.307 7.962 1.694 1.555 5.308 3.737 7.428 1.832.335-.349.335-.9 0-1.249z"/><path d="m355.524 399.81c-9.155 5.368-17.254 10.092-28.27 10.438-10.328.325-25.139-2.353-33.455-8.958v.002c-.553-.519-1.417-.505-1.953.03-.537.536-.551 1.4-.032 1.953 6.875 8.791 23.452 10.901 33.931 10.987 11.17.091 23.845-3.782 31.539-12.169.491-.522.531-1.325.093-1.893s-1.224-.732-1.853-.39z"/><path d="m214.788 486.253c-3.421-10.43-6.133-21.075-9.482-31.526-2.574-8.034-4.942-17.396-12.371-22.168-9.029-5.801-20.203-9.737-30.324-13.121h-.002c-3.404-.93-6.743-2.085-9.993-3.458-.305-.276-.669-.479-1.064-.594-3.262-2.076-5.481-5.452-6.094-9.269-1.365-5.698-.991-12.381-1.102-18.325.44-.36.859-.738 1.275-1.119l.002-.001c.54.562 1.272.898 2.049.94.603-.014 1.087-.5 1.101-1.101-.03-.781-.381-1.513-.97-2.027 1.45-1.642 2.729-3.428 3.82-5.327.068-.024.134-.052.199-.084.407-.264.613-.749.522-1.226 1.166-2.237 2.127-4.575 2.873-6.986.112-.042.22-.094.323-.155.288-.175.48-.47.526-.804.045-.334-.065-.671-.295-.914.361-1.333.678-2.691.945-4.074.994-.053 1.952-.383 2.767-.954.388-.245.6-.694.54-1.15-.059-.456-.379-.837-.817-.973-.64-.131-1.29-.191-1.943-.178.267-1.879.459-3.788.59-5.715l.002-.002c.117-.238.135-.516.047-.767.123-2.053.182-4.118.178-6.196 4.232-1.253 7.79-7.471 7.732-11.469-.025-2.35-1.022-4.583-2.756-6.169-1.735-1.587-4.048-2.384-6.391-2.2l-.035-.287c.14-.11.266-.236.374-.377 4.469-6.465 1.683-15.28-.479-22.276-1.943-7.451-6.625-13.897-13.112-18.047-13.615-8.498-31.623-8.846-43.179 3.075-.439.456-.4303 1.18.017 1.627.447.447 1.169.454 1.627.017 10.714-9.913 26.039-9.622 37.993-1.843 9.715 6.322 15.772 20.762 14.121 32.724h-.002c-.57-.032-1.125.181-1.529.583-.403.402-.618.958-.59 1.526.216 2.047.457 4.181.697 6.37-.198.038-.392.073-.577.103-1.286.204-2.711.313-4.015.652-.03-.297-.059-.598-.087-.89-.327-3.393-.514-5.942-3.918-7.364v.002c-4.686-1.585-9.705-1.915-14.559-.958-.386.033-.738.236-.961.552-.226.316-.299.717-.201 1.092-3.886-1.953-5.16 3.04-5.513 8.083h-.001c-2.001-.921-4.347-.668-6.105.662l-.042-.423c-.325-3.393-.514-5.942-3.917-7.364-4.686-1.585-9.704-1.915-14.5581-.958-.3861.033-.7373.236-.9609.552-.2254.316-.2988.715-.2027 1.09-4.3873-2.206-5.4462 4.451-5.6086 10.028h.0018c-.3442-.082-.6937-.138-1.0466-.163-.0437-2.151-.1136-4.252-.2516-6.269l.0018-.002c-.0245-.707-.6063-1.268-1.3139-1.268-.7077 0-1.2895.561-1.314 1.268-.0052 1.008-.0192 2.036-.0419 3.084-4.3017-4.525-4.375-11.656-4.6773-17.61-.1433-2.82 1.4467-26.144 10.8763-18.084.975.833 2.7169-.253 1.8975-1.464-5.6157-8.292-13.3382 1.747-15.1712 7.747-2.5002 8.18-3.2935 23.306 2.7275 30.79-2.9389 2.203-4.6179 5.704-4.4957 9.375.1083 4.366 3.6377 11.381 8.5315 10.558.0717 2.101.201 4.19.4089 6.255-1.2126.498-2.2889 1.283-3.1328 2.286-.5608.737.3635 1.509 1.0711 1.392.8299-.169 1.6371-.44 2.4007-.807.2551 1.812.5905 3.591 1.0064 5.334l-.5696.395c-1.3122.911-.0786 3.072 1.2597 2.167v.002c1.0064 3.555 2.5562 6.933 4.595 10.013.5819.851 1.2074 1.67 1.8731 2.457-.2464.859-.325 1.759-.2289 2.648.0943.334.3354.605.6569.736.3198.129.6832.105.982-.068.3337-.253.6342-.542.9015-.863.4403.419.8859.828 1.3454 1.214-.152 4.94-.2533 9.881-.7129 14.804-1.0029 10.751-6.9173 12.963-15.7844 15.839-10.7001 3.47-22.5358 7.586-32.0545 13.7-7.0569 4.534-9.3269 12.942-11.8532 20.584-3.6657 11.09-6.4754 22.445-10.1338 33.538-.6395 1.936 1.756 2.962 3.0611 1.987 13.2966 4.273 27.7007 5.21 41.5036 6.681v.002c15.8054 1.513 31.6808 2.158 47.5558 1.927 30.912.124 61.771-2.642 92.164-8.266.094-.01.185-.028.278-.05.267-.053.538-.095.805-.147 1.246-.246 1.23-2.041.311-2.562zm-52.633-146.456c-.962 1.933-2.39 3.593-4.155 4.836-.16-4.347-.531-8.656-1.001-12.791 3.716.891 7.049 3.589 5.156 7.955zm-34.48-12.443c.266.066.547.021.778-.126.232-.147.391-.383.444-.652.382.348.901.505 1.413.428 2.555-.409 5.148-.515 7.726-.318 4.398.427 5.929 1.629 6.827 6.248.921 4.737 1.861 12.327-3.575 14.406h.002c-2.373.668-4.854.87-7.304.596-4.542-.225-6.356-1.316-7.306-6.096-.264-1.326-1.369-15.127.994-14.486zm-31.2977 1.644c.2655.066.5469.021.7775-.126.2324-.147.3931-.383.4438-.652.3826.348.9033.505 1.4153.428 2.5531-.41 5.1471-.517 7.7261-.318 4.398.427 5.928 1.629 6.826 6.249.923 4.736 1.861 12.326-3.573 14.405-2.374.668-4.855.871-7.305.596-4.5425-.225-6.3562-1.315-7.3067-6.096-.2638-1.326-1.3681-15.127.9959-14.488zm-9.683 21.353c-2.0599-.483-3.6883-2.053-4.2475-4.094-1.1776-2.768-.4717-8.001 2.7851-9.121.6081.247 1.2965.18 1.8451-.18.0769.009.1485.009.2254.019-.1311 4.314-.3128 8.85-.311 13.419zm11.5701 28.614c-.1852.444-.4001.91-.622 1.387-.6081-.851-1.1672-1.735-1.6756-2.648.3477-.86.6692-1.728.9644-2.607.5329-1.594-1.9569-2.258-2.5055-.69l-.0297.078-.0017-.002c-.6326-1.541-1.1672-3.12-1.6005-4.727.5784-.502 1.1287-1.033 1.6494-1.594.5171-.543.0052-1.717-.802-1.38-.491.206-.9697.386-1.4345.592-.3267-1.483-.608-2.989-.8247-4.527.6867-.222 1.2947-.641 1.7472-1.202.2743-.475.1153-1.082-.3564-1.359-.5416-.252-1.1444-.339-1.735-.248-.6692-6.463-.622-13.222-.6814-19.639.332-.03.6622-.082.9872-.161.0297 1.49.0996 2.68.1328 3.245.2061 3.51.4438 7.37 4.0902 8.914 4.5674 1.51 9.4774 1.648 14.1224.4 7.578-1.937 7.768-9.099 7.227-15.672 1.558-.516 3.812-1.723 5.21-.43h-.002c.145.131.316.231.503.29-.007 2.229.103 4.099.147 4.855.206 3.51.444 7.37 4.09 8.915 4.567 1.509 9.477 1.647 14.123.4 7.431-1.899 7.758-8.824 7.258-15.289h-.002c1.44-.015 2.871-.193 4.269-.531l.388-.077c.711 6.156 1.053 12.35 1.025 18.546-.248.005-.489.01-.711.007v.001c-.915.032-1.64.781-1.64 1.697 0 .915.725 1.665 1.64 1.696.182-.001.376 0 .577.006-.089 1.507-.224 2.998-.405 4.471-.172-.014-.345-.004-.514-.028-1.751-.24-2.588 2.282-.757 2.741.268.068.549.133.835.194-.202 1.148-.443 2.277-.723 3.386-.381-.085-.767-.15-1.144-.255l.003.004c-.723-.173-1.452.257-1.649.973-.198.715.208 1.459.917 1.679.313.1.69.217 1.094.328h-.002c-.564 1.776-1.268 3.502-2.104 5.165-.499-.225-.981-.489-1.443-.784-1.595-1.047-3.01 1.462-1.481 2.535v-.002c.454.32.926.614 1.411.884-.831 1.304-1.766 2.537-2.799 3.689-.278-.194-.554-.393-.835-.58-1.67-1.113-3.161 1.534-1.558 2.666.059.042.111.093.171.134l-.002.002c-1.137 1.007-2.355 1.92-3.639 2.735-.451-.808-.888-1.499-1.115-1.893-.778-1.348-3.215-.438-2.598 1.096.314.784.589 1.583.863 2.381v-.001c-1.071.534-2.17 1.013-3.29 1.434-.362-.805-.711-1.616-1.038-2.439-.687-1.73-3.46-1.068-2.86.788.285.881.58 1.758.894 2.63l.002.001c-2.126.566-4.303.914-6.499 1.038-.245-.597-.539-1.176-.874-1.73-.4-.637-1.204-.891-1.898-.599-.693.294-1.074 1.045-.896 1.777.042.192.115.381.171.571-1.946-.092-3.879-.365-5.774-.816l-.294-3.816c-.143-1.862-3.029-1.902-2.935 0l.143 2.913c-1.571-.559-3.091-1.251-4.544-2.069.026-.155.054-.309.077-.466.146-1.01.232-2.027.258-3.047.056-1.772-2.49-1.672-2.69 0-.077.63-.14 1.261-.208 1.89-1.398-.994-2.7-2.116-3.89-3.351.439-1.26.774-2.551 1.105-3.645.594-1.979-2.2631-2.621-3.0127-.83zm1.8376 36.107c3.495-5.99 2.845-16.934 2.263-24.827 2.815 1.851 5.911 3.233 9.168 4.089.124.477.349.921.66 1.301.238.231.566.339.893.297.329-.041.619-.23.788-.513.091-.161.166-.329.224-.503 2.374.435 4.787.636 7.202.604.22.425.563.778.982 1.01.386.218.851.248 1.261.08.413-.166.725-.512.85-.938.019-.098.033-.197.038-.297 1.683-.15 3.353-.4 5.004-.748.615-.129 1.195-.29 1.786-.44.554 1.326 1.115 2.71 2.692 2.86.381.002.734-.201.925-.529.665-1.068.132-2.228-.393-3.29 1.113-.388 2.192-.801 3.209-1.269.458.697 1.103 1.243 1.98.886.973-.397 1.13-1.326.905-2.413.396-.234.784-.473 1.165-.72-.583 8.005-1.287 18.994 2.221 25.363l-.004-.003c.64 1.116 1.494 2.096 2.513 2.881-17.016 11.587-34.822 10.043-53.2543 2.489 2.8253-.999 5.2521-2.882 6.9223-5.371zm-66.9096 71.508c3.4071-11.34 6.5363-22.784 10.6844-33.879 3.18-8.505 5.6032-14.049 14.0512-18.669v-.002c6.8265-3.601 13.9044-6.7 21.1814-9.274 2.7973-1.034 6.6047-1.815 10.2787-2.949 17.5949 14.862 43.6859 11.396 61.3189-1.387 4.724 2.021 10.523 2.975 14.209 4.336 6.658 2.483 13.183 5.308 19.548 8.467 9.085 4.475 12.274 10.363 15.684 19.479 4.138 11.058 7.258 22.466 10.653 33.766-29.217 3.248-58.233 5.979-87.669 6.318-30.0139.346-60.5048-.005-89.9364-6.206z"/><path d="m122.123 373.684c3.568-.659 6.599-3 8.138-6.287.451-1.216-1.158-1.806-1.967-1.144-2.174 1.779-3.697 3.515-6.575 4.148-3.11.664-6.354-.025-8.926-1.896-1.166-.842-2.684 1.099-1.55 2.009 2.928 2.703 6.957 3.878 10.88 3.17z"/><path d="m121.801 360.807c.348.084.709-.07.889-.379.18-.31.137-.701-.11-.961-1.411-1.437-3.129-2.536-5.025-3.215.362-2.114 1.969-4.496 2.471-6.519.517-2.196.662-4.466.428-6.711-.016-.432-.37-.772-.802-.772-.43 0-.784.34-.8.772-.17 2.94-.862 5.828-2.044 8.528-.668 1.338-1.129 2.771-1.367 4.247-.334 3.067 3.785 4.557 6.36 5.01z"/><path d="m102.174 304.29c-.383-.364-.96-.432-1.416-.166-.454.265-.681.8-.554 1.31 1.924 4.55 4.933 8.558 8.765 11.675 3.255 2.821 7.717 6.318 12.178 6.471v.001c.47-.012.889-.298 1.071-.734.18-.435.086-.936-.239-1.277-3.14-2.96-7.569-4.565-10.924-7.406v.001c-3.248-3.021-6.222-6.327-8.881-9.875z"/><path d="m117.641 301.915c-.376-.591-1.152-.779-1.754-.426-.605.353-.822 1.12-.491 1.736 3.339 5.694 9.169 12.617 15.98 14.025.874.18 1.807-.985.966-1.661-2.551-2.055-5.502-3.493-7.993-5.656l.001.001c-2.64-2.308-4.902-5.014-6.709-8.02z"/><path d="m147.256 323.36c.58.132 1.377-.29 1.296-.988-.377-3.253-3.679-5.671-5.834-7.944-2.904-3.065-5.904-6-8.991-8.88-.591-.55-1.512-.535-2.083.037-.569.569-.587 1.49-.037 2.081 2.724 2.951 5.443 5.905 8.156 8.865 2.088 2.263 4.372 6.117 7.492 6.828z"/><path d="m92.7405 306.393c-.1783 2.715-.2639 5.452-.6989 8.142-.4665 2.203-.7147 4.447-.7408 6.699.0105.381.2708.708.6377.807.3669.1.7566-.052.9575-.375 2.9371-4.281 2.9912-10.643 2.2749-15.603-.2079-1.452-2.3448-.978-2.4304.33z"/><path d="m100.268 340.705c1.347-1.525 3.571-1.915 5.357-.94.563.308 1.263.161 1.655-.346.391-.506.356-1.223-.084-1.688-1.328-1.298-3.201-1.873-5.028-1.546-1.828.327-3.3848 1.515-4.1798 3.192-.5522 1.347 1.3733 2.172 2.2798 1.328z"/><path d="m132.701 340.2c.837-.617 1.04-1.827 2.107-2.126 1.157-.324 1.734.702 2.74.844.516.073 1.232-.121 1.321-.75.325-2.28-2.649-3.479-4.536-3.183-2.048.321-4.485 2.54-3.477 4.731l.002.002c.375.641 1.2.858 1.843.482z"/><path d="m151.044 427.126c-9.347 5.481-17.617 10.305-28.865 10.658-10.547.332-25.6707-2.402-34.1621-9.147v.002c-.5643-.529-1.4467-.515-1.9935.032-.5487.547-.5626 1.429-.0332 1.993 7.0202 8.977 23.9478 11.132 34.6478 11.219 11.406.093 24.347-3.861 32.205-12.426.501-.533.541-1.352.094-1.932-.447-.581-1.249-.748-1.892-.399z"/><path d="m535.535 371.582c3.01 2.78 7.151 3.987 11.183 3.259 3.667-.677 6.783-3.083 8.365-6.461.463-1.25-1.191-1.857-2.023-1.176-2.234 1.828-3.799 3.613-6.757 4.263-3.197.682-6.531-.025-9.175-1.949-1.198-.867-2.758 1.13-1.593 2.064z"/><path d="m545.001 343.327c-.018-.441-.381-.79-.825-.79-.441 0-.804.349-.822.79-.174 3.024-.885 5.993-2.101 8.765-.686 1.378-1.16 2.849-1.404 4.368-.342 3.153 3.891 4.685 6.536 5.148.358.087.729-.071.914-.389s.139-.72-.113-.988c-1.451-1.476-3.216-2.606-5.164-3.304.371-2.173 2.024-4.621 2.539-6.7.532-2.26.681-4.59.44-6.9z"/><path d="m575.146 326.869c.427-.266.63-.781.499-1.266-.131-.487-.568-.83-1.071-.842-16.521.465-34.765-3.633-47.145-15.681-.87-.848-2.533.302-1.752 1.352 5.567 7.476 14.233 11.005 22.668 14.413 8.303 3.355 18.415 6.537 26.803 2.024z"/><path d="m520.309 311.487c-1.473 2.126-2.537 4.538-3.942 6.718v-.002c-1.659 2.002-3.15 4.135-4.459 6.382-.499 1.178.609 2.78 1.934 1.934 2.121-1.711 3.836-3.872 5.023-6.323 1.606-2.396 2.802-5.039 3.54-7.826.133-.549-.153-1.113-.672-1.332-.521-.219-1.124-.029-1.424.449z"/><path d="m505.534 331.751c-1.024-26.276 8.499-51.167 38.579-51.222 12.395-.022 23.741 2.3 32.549 11.733 8.097 8.674 15.413 22.753 12.691 34.858-.469 2.084 2.46 3.513 3.561 1.502v-.002c1.663-3.224 2.288-6.885 1.787-10.479.14.008.28-.018.409-.071 1.703-.695 4.334-1.708 5.395.795l-.002-.002c.278 1.36.275 2.759-.009 4.116-.305 3.13-1.219 10.411-5.281 10.703h-.002c-.645.024-1.18.508-1.266 1.148-.088.641.3 1.251.916 1.445.554.214 1.145.32 1.74.311-.25.26-.363.623-.307.981 1.948 13.912-8.478 26.175-5.824 39.972 1.817 9.448 9.834 22.331 18.279 26.964.342.187.742.237 1.119.144.636 1.194 1.392 2.32 2.258 3.36 1.235 1.48 3.07-.192 2.862-1.667-1.643-11.673-3.04-20.531-.447-32.276 2.094-9.476 5.156-18.784 6.097-28.479.93-9.57-3.139-28.631-16.78-24.826h.002c-.142.038-.275.105-.392.198-.221-5.474-3.645-7.758-9.092-4.987-1.595-8.351-7.036-16.956-11.541-22.572-9.105-11.346-21.234-16.185-35.496-16.388-14.214-.201-26.557 2.629-35.687 14.345-8.887 11.403-11.076 26.789-8.276 40.689l-.002-.002c.16.518.668.844 1.205.773.535-.074.941-.523.955-1.064zm97.931-9.381v-.002c.235.255.583.368.923.298 15.401-2.799 12.131 23.27 10.385 31.104-1.661 7.458-4.296 14.661-5.912 22.131h.002c-1.789 6.954-2.279 14.177-1.444 21.308-7.391-9.976-15.287-18.156-12.233-32.343 2.076-9.64 6.199-18.005 3.229-27.885-.07-.264-.237-.49-.468-.636 4.148-1.632 5.34-10.611 5.518-13.976z"/><path d="m524.391 322.295c1.902-1.656 2.983-4.06 2.962-6.58 0-2.034-1.042-3.925-2.759-5.015-.804-.586-2.009.594-1.397 1.397 2.193 2.879-.426 6.408-.655 9.432-.079 1.039 1.192 1.293 1.849.766z"/><path d="m524.254 340.946c1.384-1.568 3.67-1.969 5.506-.966.578.316 1.298.165 1.701-.356.402-.521.366-1.257-.087-1.735-1.364-1.334-3.289-1.925-5.168-1.589-1.878.336-3.478 1.557-4.295 3.281-.568 1.384 1.411 2.232 2.343 1.365z"/><path d="m559.266 335.066c-2.104.33-4.609 2.611-3.573 4.863v.001c.388.659 1.233.882 1.894.496.86-.634 1.069-1.878 2.166-2.186 1.189-.332 1.781.722 2.816.868.53.075 1.266-.124 1.357-.771.338-2.343-2.72-3.575-4.66-3.272z"/><path d="m641.958 490.541c-3.517-10.72-6.304-21.661-9.746-32.403-2.645-8.257-5.081-17.879-12.716-22.784-9.281-5.962-20.765-10.008-31.168-13.486-3.499-.956-6.93-2.143-10.271-3.554-.314-.284-.687-.492-1.093-.611-3.355-2.133-5.634-5.603-6.264-9.527-1.512-6.315-.939-13.817-1.162-20.265h-.002c-.005-.198-.057-.392-.151-.566 8.622-9.268 12.118-23.719 13.826-37.759 4.554-.939 8.478-7.666 8.417-11.922h.002c-.041-1.954-.724-3.842-1.941-5.37-1.218-1.528-2.904-2.615-4.8-3.092.075-1.202.151-2.38.23-3.511.199-2.904-4.215-2.836-4.488 0-1.984 20.596-.514 54.91-22.401 65.47-16.895 8.152-32.282-2.701-37.341-19.16-3.584-11.66-5.506-23.943-8.241-35.869v.002c.114-.403.011-.835-.269-1.144-.192-.823-.377-1.647-.578-2.464-.424-1.715-2.886-.963-2.604.718.057.341.115.7.172 1.049-4.71.293-7.553 6.059-7.442 10.55.128 5.086 4.77 13.661 10.854 10.042 2.257 11.644 5.612 23.613 11.784 31.894v-.002c-.53.117-.905.591-.896 1.133-.198 5.699-.26 11.402-.79 17.084-1.031 11.049-7.11 13.323-16.224 16.279-10.997 3.566-23.162 7.797-32.945 14.081-7.253 4.66-9.587 13.301-12.183 21.156-3.768 11.398-6.656 23.069-10.418 34.471-.657 1.989 1.805 3.043 3.147 2.041 13.666 4.393 28.471 5.355 42.659 6.868h.002c16.245 1.557 32.562 2.218 48.878 1.981 31.773.129 63.488-2.716 94.731-8.495.096-.011.191-.028.286-.052.275-.054.553-.097.828-.151 1.28-.253 1.262-2.097.32-2.632zm-54.097-150.528c-.955 1.936-2.375 3.604-4.132 4.857.415-4.254.699-8.411.947-12.305 2.819 1.311 4.757 3.818 3.185 7.448zm-77.56 10.847c-2.117-.496-3.791-2.11-4.366-4.208-1.325-3.112-.334-9.261 3.879-9.579.684 4.35 1.401 9.157 2.283 14.117-.593-.142-1.193-.253-1.796-.33zm13.781 66.522c4.075-6.983 2.669-20.524 2.101-28.596 6.446 7.381 15.659 10.996 29.25 7.127 4.255-1.192 8.191-3.315 11.524-6.215-.6 8.3-1.685 20.697 2.164 27.684.657 1.148 1.535 2.153 2.582 2.96-17.489 11.909-35.79 10.322-54.735 2.559v.002c2.902-1.029 5.396-2.965 7.113-5.523zm-68.77 73.497c3.503-11.655 6.718-23.418 10.981-34.821 3.268-8.742 5.759-14.44 14.442-19.188v-.002c7.016-3.701 14.291-6.886 21.77-9.532 2.875-1.063 6.789-1.866 10.565-3.031 18.084 15.275 44.9 11.712 63.024-1.426 4.855 2.078 10.816 3.058 14.604 4.457 6.843 2.552 13.549 5.456 20.091 8.703 9.338 4.599 12.615 10.651 16.121 20.02 4.252 11.365 7.46 23.09 10.949 34.705-30.03 3.339-59.852 6.145-90.107 6.494-30.848.356-62.187-.005-92.437-6.379z"/><path d="m576.442 429.77c-9.608 5.633-18.108 10.591-29.669 10.954-10.839.341-26.384-2.469-35.112-9.401v.002c-.58-.544-1.486-.53-2.049.032s-.578 1.469-.034 2.049c7.216 9.227 24.614 11.442 35.611 11.531 11.723.095 25.025-3.969 33.101-12.771.515-.548.556-1.39.097-1.987-.46-.596-1.284-.768-1.945-.409z"/><path d="m570.194 318.52c-8.075-3.043-15.67-5.473-23.184-9.912-1.052-.622-1.871.907-.935 1.602 6.689 4.965 15.431 9.534 23.832 10.442 1.298.14 1.343-1.733.287-2.131z"/></g></svg>