<svg width="938" height="403" viewBox="0 0 938 403" fill="none" xmlns="http://www.w3.org/2000/svg">
<path d="M937.154 248.895C937.077 231.607 937.098 214.319 937.138 197.031C937.15 192.297 937.15 187.564 937.182 182.835C937.198 180.238 937.182 177.646 937.166 175.049C937.162 173.993 937.142 172.941 937.126 171.88C937.114 170.973 937.11 170.078 936.981 169.175C936.848 168.707 936.61 168.296 936.263 167.949C935.819 167.506 935.227 167.24 934.61 167.163C934.412 165.954 934.207 164.748 933.981 163.539C933.513 161.019 932.977 158.527 932.235 156.072C931.78 154.568 931.143 153.129 930.538 151.685C930.046 150.528 929.534 149.379 928.965 148.258C927.756 145.859 926.421 143.549 925.01 141.263C923.664 139.074 922.212 136.953 920.797 134.8C919.354 132.599 917.89 130.406 916.423 128.224C915.012 126.128 913.766 123.922 912.504 121.741C911.895 120.689 910.758 120.1 909.609 120.1C909.036 120.1 908.464 120.246 907.952 120.544C907.299 120.927 906.843 121.508 906.577 122.161H906.46H905.581C905.105 122.052 904.585 122.064 904.097 122.072C903.94 122.072 903.791 122.076 903.646 122.076C902.844 122.076 902.045 122.04 901.235 122.032C899.143 122.003 897.046 121.995 894.954 121.975C890.591 121.931 886.225 121.923 881.862 121.931C879.439 121.935 877.02 121.878 874.597 121.854C871.835 121.83 869.069 121.826 866.315 121.818C864.183 121.814 862.054 121.721 859.929 121.701C857.208 121.685 854.478 121.677 851.757 121.665C847.902 121.653 844.048 121.649 840.198 121.649C832.058 121.649 823.918 121.673 815.778 121.685C803.823 121.701 791.873 121.721 779.919 121.762C755.858 121.85 731.796 121.838 707.734 121.931C695.647 121.975 683.555 122.007 671.464 122.036C659.546 122.064 647.619 122.157 635.698 122.213C621.047 122.29 606.395 122.306 591.735 122.346C592.699 121.907 593.679 121.479 594.658 121.064C596.936 120.173 599.235 119.423 601.629 118.903C604.23 118.339 606.859 117.927 609.483 117.488C610.745 117.278 612.003 117.036 613.265 116.81C614.515 116.585 615.745 116.254 616.982 115.968C618.063 115.718 619.111 115.411 620.18 115.097C621.97 114.565 623.764 114.02 625.542 113.448C627.372 112.859 628.542 111.021 628.017 109.094C627.804 108.311 627.296 107.638 626.643 107.162C626.893 106.312 627.151 105.469 627.405 104.626C627.937 102.885 628.493 101.143 629.179 99.4536C629.421 98.8932 629.687 98.3449 629.993 97.8168C630.304 97.2725 630.674 96.7605 631.045 96.2565C631.348 95.8453 631.376 95.2002 631.247 94.7244C631.11 94.2285 630.779 93.7931 630.332 93.5391C630.025 93.3617 629.679 93.269 629.328 93.269C629.15 93.269 628.977 93.2932 628.804 93.3375C628.267 93.4826 627.933 93.8173 627.618 94.2527C627.566 94.3213 627.526 94.3979 627.473 94.4664C627.437 94.1358 627.34 93.8173 627.171 93.531C626.836 92.9585 626.356 92.6803 625.76 92.4424C625.01 92.1401 624.256 91.8578 623.49 91.6038C622.841 91.3902 622.171 91.2168 621.514 91.0313C620.285 90.6846 619.039 90.3258 617.793 90.0314C615.14 89.4065 612.463 88.9025 609.782 88.3946C607.113 87.8866 604.476 87.2375 601.88 86.4352C599.223 85.6127 596.57 84.766 593.997 83.7057C593.881 83.6614 593.772 83.613 593.655 83.5686C593.389 83.0082 592.852 82.6131 592.175 82.6131C591.998 82.6131 591.824 82.6534 591.655 82.7099C589.446 81.7261 587.252 80.7141 585.059 79.6981C582.543 78.5369 580.019 77.404 577.512 76.2348C577.1 76.0453 576.709 75.9163 576.286 75.9163C576.1 75.9163 575.911 75.9405 575.713 75.9969C575.504 76.0533 575.314 76.1461 575.129 76.259C574.887 76.1945 574.649 76.1622 574.419 76.1622C573.218 76.1622 572.157 76.9847 571.782 78.162C571.383 79.428 571.157 80.7463 570.879 82.0405C570.601 83.3307 570.319 84.6128 570.053 85.907C569.537 88.4429 569.121 90.9951 568.73 93.5471C568.295 96.3614 567.944 99.1876 567.601 102.022C567.283 104.606 566.973 107.183 566.694 109.771C566.376 112.734 566.029 115.694 565.65 118.653C565.465 119.919 565.263 121.177 565.065 122.443C551.72 122.507 538.38 122.576 525.034 122.576C524.571 122.576 524.151 122.733 523.796 122.987C523.28 122.878 522.772 122.761 522.26 122.653C522.059 122.35 521.781 122.092 521.502 121.923C521.156 121.721 520.756 121.616 520.357 121.616C520.156 121.616 519.958 121.645 519.761 121.697C519.2 121.854 518.708 122.229 518.414 122.733C518.337 122.862 518.285 122.987 518.245 123.108C518.22 123.124 518.2 123.148 518.176 123.165C517.66 123.076 517.152 122.991 516.64 122.902C516.491 122.878 516.35 122.862 516.213 122.862C515.959 122.862 515.721 122.915 515.479 123.06C515.136 123.257 514.89 123.584 514.785 123.963C514.681 124.354 514.733 124.777 514.943 125.132C515.12 125.442 515.479 125.769 515.846 125.826C515.991 125.85 516.136 125.87 516.285 125.902C515.926 126.954 515.576 128.011 515.257 129.079C514.882 130.345 514.495 131.603 514.164 132.889C513.511 135.433 512.927 137.993 512.39 140.558C511.846 143.146 511.395 145.755 511.008 148.371C510.649 150.77 510.379 153.181 510.117 155.592C510.02 155.854 509.955 156.136 509.955 156.423C509.955 156.54 509.971 156.652 509.992 156.769C509.742 159.132 509.516 161.499 509.383 163.865C509.326 164.821 509.274 165.772 509.222 166.732C508.004 166.768 506.786 166.808 505.569 166.849H505.557C505.553 166.849 505.545 166.853 505.54 166.853C504.355 166.893 503.178 166.917 501.993 166.962C501.888 166.966 501.783 166.974 501.682 166.974C501.698 166.482 501.416 165.934 501.085 165.603C500.702 165.22 500.178 165.002 499.642 165.002C499.106 165.002 498.578 165.216 498.199 165.603C497.783 166.018 497.662 166.486 497.598 167.046C497.328 169.538 497.066 172.029 496.848 174.525C496.751 175.654 496.651 176.787 496.566 177.912C496.509 178.609 496.457 179.311 496.409 180.008C496.38 180.524 496.372 181.036 496.384 181.552C495.941 181.94 495.651 182.516 495.651 183.097C495.651 183.629 495.864 184.141 496.239 184.512C496.401 184.673 496.582 184.79 496.763 184.875C497.046 185.862 498.231 186.407 499.187 186.145C499.65 186.016 500.049 185.717 500.315 185.318C501.541 185.415 502.767 185.504 503.992 185.621C505.601 185.77 507.194 185.963 508.794 186.165C509.633 186.286 510.471 186.427 511.31 186.552C511.286 188.088 511.27 189.628 511.233 191.164C511.145 194.535 511.096 197.905 511.016 201.272C510.927 204.929 510.895 208.59 510.871 212.247C510.846 215.863 510.806 219.476 510.79 223.096C510.746 237.297 511.028 251.501 511.084 265.7C511.129 275.953 511.201 286.213 511.205 296.47C510.621 296.309 510.032 296.208 509.423 296.151C509.302 296.139 509.173 296.135 509.048 296.135C507.984 296.135 506.952 296.591 506.395 297.534C506.024 298.163 505.903 298.978 506.065 299.683C506.198 300.28 506.5 300.8 506.811 301.32C507.427 302.344 508.774 302.719 509.814 302.106C510.242 301.856 510.556 301.469 510.734 301.03C510.822 301.066 510.911 301.098 511 301.134C513.915 302.445 516.664 304.118 519.333 305.868C520.692 306.759 522.051 307.654 523.401 308.549C523.978 308.932 524.558 309.307 525.143 309.682C525.506 309.92 525.885 310.133 526.252 310.363C527.026 310.839 527.84 311.19 528.679 311.532C528.941 311.601 529.199 311.609 529.461 311.585C529.421 311.649 529.364 311.694 529.324 311.762C528.84 312.589 528.711 313.601 528.965 314.524C529.191 315.355 529.808 316.282 530.614 316.661C531.32 316.995 531.703 317.169 532.497 317.181C532.707 317.181 532.912 317.185 533.122 317.185C533.811 317.185 534.505 317.161 535.19 317.141C537.166 317.088 539.149 317.004 541.125 316.963C546.395 316.854 551.672 316.79 556.946 316.697C567.675 316.52 578.403 316.121 589.128 315.899C601.323 315.649 613.52 315.419 625.707 315.129C638.355 314.826 650.999 314.556 663.647 314.302C675.427 314.072 687.204 313.827 698.985 313.593C698.985 319.334 698.981 325.071 698.981 330.813C698.981 337.57 699.057 344.319 699.13 351.077C699.17 354.463 699.182 357.85 699.154 361.237C699.13 364.543 699.098 367.849 699.114 371.155C699.118 372.022 699.126 372.897 699.126 373.763C699.126 374.219 699.126 374.679 699.13 375.134C699.13 375.453 699.142 375.771 699.166 376.082C699.219 376.707 699.384 377.239 699.714 377.771C700.009 378.251 700.577 378.493 701.126 378.344C701.738 378.174 702.234 377.448 701.996 376.811C701.94 376.662 701.892 376.517 701.859 376.368C701.843 375.795 701.884 375.211 701.9 374.634C701.912 374.223 701.916 373.808 701.928 373.397C701.952 372.574 701.972 371.756 702.005 370.933C702.041 369.917 702.085 368.905 702.125 367.885C702.162 367.873 702.194 367.861 702.222 367.849C702.238 368.111 702.315 368.357 702.452 368.591C702.678 368.974 703.041 369.256 703.468 369.373C703.77 369.453 704.069 369.453 704.375 369.373C704.472 369.345 704.573 369.308 704.678 369.256C704.694 369.78 704.766 370.312 704.811 370.84C704.851 371.332 704.98 371.756 705.335 372.111C705.786 372.566 706.468 372.748 707.085 372.574C707.347 372.506 707.593 372.397 707.834 372.268C708.169 372.09 708.359 371.788 708.576 371.486C708.895 371.042 708.979 370.393 709.04 369.861C709.084 369.425 709.084 368.99 709.096 368.551C709.113 367.909 709.225 367.26 709.282 366.619C709.427 365.019 709.512 363.418 709.592 361.817C709.616 361.822 709.633 361.83 709.657 361.834C710.016 361.93 710.419 361.91 710.786 361.781C711.12 362.116 711.584 362.301 712.056 362.301C712.173 362.301 712.269 362.265 712.378 362.249C712.419 363.301 712.467 364.354 712.495 365.406C712.519 366.418 712.523 367.422 712.536 368.434C712.548 369.554 712.479 370.744 712.761 371.836C712.907 372.397 713.451 372.796 714.027 372.796C714.572 372.796 715.189 372.405 715.293 371.836C715.467 370.877 715.519 369.913 715.588 368.942C715.644 368.075 715.693 367.208 715.717 366.341C715.761 364.704 715.757 363.059 715.745 361.422C715.721 357.967 715.648 354.504 715.426 351.053C715.209 347.549 715.003 344.054 714.769 340.55C714.648 338.792 714.479 337.03 714.326 335.272C714.177 333.554 714.023 331.833 713.882 330.115C713.572 326.45 713.044 322.814 712.532 319.173C712.318 317.657 712.064 316.149 711.782 314.641C711.81 314.589 711.834 314.536 711.862 314.484C712.104 314.633 712.338 314.79 712.572 314.947C713.209 315.363 714.104 315.076 714.467 314.452C714.693 314.064 714.685 313.641 714.535 313.266C721.107 313.137 727.679 313.004 734.251 312.891C734.066 321.459 734.05 330.03 734.001 338.589C733.977 342.629 733.933 346.669 733.892 350.709C733.852 354.898 733.804 359.091 733.695 363.28C733.65 365.106 733.538 366.929 733.413 368.747C733.348 369.638 733.28 370.529 733.199 371.412C733.163 371.811 733.13 372.214 733.09 372.614C733.066 372.823 733.062 373.025 733.066 373.23C733.07 373.497 733.122 373.755 733.175 374.017C733.251 374.388 733.481 374.625 733.707 374.912C733.989 375.275 734.578 375.456 735.025 375.456C735.36 375.456 735.674 375.367 735.961 375.202C736.239 375.033 736.465 374.815 736.63 374.533C736.844 374.263 736.932 373.876 737.001 373.537C737.069 373.226 737.098 372.86 737.122 372.537C737.158 372.033 737.186 371.533 737.215 371.029C737.271 370.053 737.307 369.074 737.348 368.098C737.428 366.086 737.452 364.074 737.497 362.063C737.589 357.934 737.674 353.801 737.775 349.677C737.985 341.182 738.037 332.691 738.11 324.193C738.146 320.395 738.174 316.605 738.255 312.807C738.831 312.795 739.412 312.783 739.988 312.771C753.741 312.529 767.497 312.279 781.246 312.037C797.187 311.86 813.129 311.65 829.071 311.452C844.964 311.255 860.866 311.037 876.763 310.775C885.04 310.642 893.309 310.545 901.586 310.416C905.61 310.36 909.634 310.287 913.653 310.215C915.266 310.186 916.874 310.138 918.483 310.106C919.87 310.082 921.285 310.13 922.672 309.985H922.66C922.833 309.973 923.003 309.957 923.176 309.94C923.164 309.94 923.152 309.94 923.136 309.944C924.519 309.824 925.918 309.828 927.297 309.703H927.385V309.69C927.676 309.662 927.962 309.626 928.252 309.586C928.8 309.428 929.288 309.15 929.691 308.747C929.732 308.707 929.76 308.658 929.796 308.618C929.913 308.614 930.026 308.614 930.139 308.602C930.961 308.533 931.776 308.424 932.59 308.291C932.965 308.187 933.296 307.997 933.574 307.719C933.643 307.65 933.703 307.57 933.759 307.493C934.465 307.356 935.054 306.711 935.029 305.969C935.029 305.913 935.025 305.852 935.025 305.792C935.795 305.663 936.505 304.969 936.449 304.151C936.42 303.776 936.392 303.393 936.36 303.018C936.904 302.498 937.243 301.768 937.243 300.974C937.162 283.645 937.231 266.268 937.154 248.895L937.154 248.895ZM500.376 181.314C500.388 180.061 500.497 178.799 500.606 177.545C500.63 177.295 500.65 177.049 500.674 176.799C501.771 176.932 502.875 177.077 503.976 177.21C503.964 177.504 503.948 177.799 503.948 178.093C503.952 178.702 503.96 179.307 503.964 179.915C503.968 180.48 503.98 181.048 503.992 181.621C502.791 181.512 501.581 181.407 500.376 181.314L500.376 181.314ZM504.121 174.005C504.109 174.218 504.105 174.428 504.093 174.642C503.029 174.509 501.964 174.372 500.904 174.239C501.037 172.759 501.206 171.283 501.356 169.812C502.396 169.767 503.436 169.719 504.476 169.679C504.347 171.114 504.218 172.557 504.121 174.005V174.005ZM566.041 146.653C567.029 141.372 568.077 136.098 569.089 130.816C569.274 129.845 569.464 128.873 569.649 127.901C569.488 127.619 569.367 127.313 569.287 126.994C569.206 126.684 569.166 126.365 569.166 126.047C569.166 125.527 569.315 124.914 569.408 124.381C569.476 123.966 569.565 123.555 569.658 123.144C569.662 123.12 569.67 123.099 569.674 123.075C569.795 122.555 569.928 122.039 570.073 121.527C570.202 121.059 570.343 120.596 570.508 120.14C570.641 119.749 570.799 119.366 570.976 118.991C571.069 118.858 571.165 118.729 571.266 118.604C571.484 117.205 571.694 115.806 571.891 114.407C572.633 109.145 573.274 103.864 573.879 98.5863C574.149 96.2035 574.443 93.8368 574.758 91.4582C575.036 89.543 575.358 87.6321 575.774 85.7371C576.116 84.1647 576.491 82.6003 576.778 81.0159C578.604 81.8545 580.434 82.6931 582.257 83.5518C582.019 84.0034 581.938 84.5275 582.1 85.0315C582.938 87.6482 583.769 90.2728 584.66 92.8814C585.474 95.2642 586.41 97.6106 587.47 99.8927C587.643 100.187 587.873 100.417 588.176 100.598C588.627 100.864 589.175 100.933 589.683 100.796C590.175 100.663 590.599 100.332 590.853 99.9007C591.09 99.4976 591.24 98.8485 591.05 98.3929C589.308 94.2563 588.01 89.9503 586.668 85.6646C587.93 86.2734 589.187 86.8742 590.457 87.4507C590.546 87.491 590.627 87.5273 590.711 87.5596C590.728 87.8015 590.74 88.0514 590.756 88.2934C590.82 89.1642 590.889 90.0391 590.994 90.9059C591.163 92.2887 591.312 93.6677 591.538 95.0385C591.723 96.1593 591.961 97.2882 592.328 98.3607C592.433 98.6671 592.542 98.9776 592.651 99.284C592.82 99.7758 593.042 100.244 593.26 100.719C593.393 100.945 593.57 101.118 593.792 101.251C594.134 101.453 594.554 101.505 594.937 101.401C595.308 101.296 595.63 101.05 595.828 100.719C596.013 100.401 596.11 99.933 595.977 99.5742C595.352 97.8929 594.953 96.1593 594.699 94.3853C594.469 92.6154 594.288 90.8374 594.143 89.0635C594.667 89.2892 595.199 89.4989 595.731 89.7126C596.4 92.8574 597.074 96.0183 598.235 99.0179C598.38 99.3888 598.553 99.6831 598.904 99.8887C599.239 100.086 599.65 100.139 600.033 100.034C600.755 99.8323 601.323 98.9897 601.049 98.2357C600.452 96.5786 600.013 94.8853 599.606 93.1677C599.436 92.4622 599.295 91.7526 599.13 91.0389C599.888 91.3171 600.646 91.5873 601.4 91.8534C601.73 93.2444 602.049 94.6393 602.388 96.0263C602.521 96.5706 603.129 96.8931 603.654 96.7439C604.214 96.5867 604.492 96.0263 604.371 95.4779C604.162 94.5304 603.944 93.587 603.734 92.6395C604.565 92.9056 605.403 93.1556 606.25 93.3814C606.581 94.3289 606.907 95.2844 607.234 96.2318C607.395 96.6995 607.847 97.0019 608.343 96.8608C608.806 96.7318 609.113 96.2197 608.971 95.7521C608.786 95.1352 608.584 94.5143 608.387 93.9015C608.907 94.0184 609.427 94.1313 609.947 94.2442C609.975 94.4861 610.004 94.728 610.04 94.9739C610.201 96.0907 610.467 97.1752 610.774 98.2638C611.076 99.3282 612.201 99.9814 613.277 99.687C613.785 99.55 614.225 99.2073 614.491 98.7517C614.785 98.2477 614.797 97.7397 614.693 97.1833C614.596 96.6632 614.515 96.1472 614.431 95.6271C614.414 95.4699 614.402 95.3086 614.386 95.1473C614.745 95.2239 615.104 95.2925 615.455 95.365C615.612 95.4013 615.773 95.4416 615.93 95.4739C616.128 96.3528 616.33 97.2237 616.559 98.0986C616.656 98.4615 617.051 98.6832 617.41 98.5784C617.781 98.4816 617.983 98.0946 617.89 97.7277C617.729 97.0987 617.587 96.4617 617.446 95.8246C617.579 95.8529 617.708 95.8811 617.837 95.9174C618.261 96.5987 619.011 97.0624 619.853 97.0624C620.333 97.0624 620.785 96.9132 621.164 96.6592C621.43 96.7117 621.688 96.7762 621.954 96.8205C622.994 97.0181 624.058 97.0624 625.115 97.0584C625.421 97.0584 625.715 96.9898 625.986 96.881C625.522 97.8365 625.131 98.8364 624.772 99.8363C624.397 100.876 624.079 101.941 623.744 102.997C623.353 104.259 623.095 105.545 622.901 106.848C621.196 107.384 619.478 107.9 617.765 108.408C616.43 108.799 615.096 109.13 613.737 109.452C610.854 110.133 607.939 110.666 605.028 111.222C602.226 111.758 599.469 112.419 596.723 113.206C595.388 113.589 594.082 114.056 592.776 114.524C591.083 115.133 589.486 115.911 588.03 116.967C587.861 117.088 587.7 117.217 587.555 117.342C587.49 117.37 587.422 117.387 587.365 117.423C586.902 117.693 586.377 118.249 586.301 118.81C586.132 119.987 585.958 121.168 585.793 122.346H585.269C585.559 123.559 585.281 124.849 585.059 126.091C585.003 126.41 584.942 126.72 584.874 127.035H585.103C584.781 129.184 584.446 131.328 584.075 133.469C583.301 137.896 582.479 142.307 581.62 146.718C580.765 151.08 579.915 155.447 579.064 159.809C578.628 162.031 578.169 164.248 577.854 166.486C577.532 168.833 577.229 171.175 576.919 173.521C576.786 174.497 576.657 175.469 576.532 176.44C576.556 176.255 576.576 176.07 576.608 175.892C576.217 178.795 575.701 181.662 575.165 184.54C575.008 185.363 574.843 186.181 574.669 186.996C573.133 187.25 571.593 187.512 570.045 187.742C567.436 188.06 564.82 188.366 562.195 188.399C561.05 188.415 559.913 188.427 558.768 188.427C559.264 185.024 559.772 181.617 560.364 178.231C561.336 172.699 562.34 167.175 563.32 161.644C564.179 156.649 565.106 151.653 566.041 146.655L566.041 146.653ZM516.744 164.84C516.918 162.559 517.127 160.281 517.317 157.999C517.514 155.636 517.651 153.265 517.873 150.907C518.091 148.524 518.337 146.149 518.619 143.774C518.688 143.214 518.764 142.654 518.833 142.097C519.179 139.726 519.579 137.368 519.994 135.009C520.05 135.352 520.115 135.691 520.171 136.037C520.478 137.828 520.78 139.626 521.107 141.424C521.441 143.234 521.853 145.024 522.256 146.823C522.639 148.52 523.038 150.217 523.393 151.919C523.768 153.693 524.114 155.475 524.497 157.241C525.272 160.849 526.042 164.453 526.614 168.106C526.667 168.449 526.711 168.783 526.763 169.122C526.844 169.779 526.908 170.44 526.977 171.093C526.711 171.138 526.461 171.239 526.271 171.436C526.247 171.46 526.227 171.493 526.203 171.517C525.925 170.106 525.63 168.694 525.332 167.291C525.122 166.344 524.183 165.731 523.252 165.731C523.074 165.731 522.889 165.755 522.715 165.8C522.183 165.945 521.72 166.304 521.445 166.775C521.417 166.828 521.401 166.88 521.377 166.933C521.349 166.896 521.32 166.864 521.284 166.836C521.272 166.598 521.268 166.36 521.256 166.118C521.22 165.146 520.474 164.344 519.482 164.344C518.538 164.344 517.672 165.155 517.708 166.118C517.712 166.263 517.72 166.408 517.724 166.554C517.365 166.566 517.002 166.582 516.643 166.59C516.664 166.005 516.696 165.425 516.744 164.84L516.744 164.84ZM512.854 152.777C512.817 153.216 512.777 153.656 512.749 154.095C512.733 154.091 512.709 154.095 512.684 154.091C512.745 153.652 512.793 153.216 512.854 152.777V152.777ZM511.612 163.502C511.741 161.929 511.914 160.365 512.104 158.797C512.168 158.801 512.233 158.813 512.293 158.813C512.321 158.813 512.358 158.809 512.386 158.801C512.269 160.216 512.156 161.627 512.043 163.042C511.951 164.244 511.886 165.453 511.83 166.659C511.709 166.659 511.588 166.659 511.471 166.663H511.402C511.459 165.614 511.523 164.558 511.612 163.502L511.612 163.502ZM515.511 181.536C515.281 180.665 514.446 180.045 513.547 180.045C512.652 180.045 511.813 180.661 511.588 181.536C511.507 181.847 511.455 182.165 511.41 182.484C511.213 182.46 511.023 182.427 510.834 182.403C509.145 182.185 507.451 182 505.758 181.814C505.73 180.605 505.713 179.399 505.705 178.186C505.701 177.936 505.717 177.69 505.721 177.436C506.871 177.581 508.024 177.718 509.173 177.863C509.491 177.904 509.866 177.702 510.088 177.48C510.33 177.238 510.471 176.908 510.471 176.565C510.471 176.222 510.334 175.896 510.088 175.65C509.999 175.581 509.915 175.517 509.826 175.448C509.624 175.331 509.403 175.275 509.173 175.271C508.056 175.126 506.943 174.993 505.83 174.848C505.867 174.142 505.911 173.444 505.963 172.743C506.04 171.707 506.125 170.679 506.213 169.647C506.213 169.63 506.217 169.61 506.217 169.59C507.173 169.55 508.12 169.501 509.072 169.469C509.06 170.106 509.056 170.739 509.068 171.376C509.08 171.953 509.544 172.441 510.132 172.441C510.741 172.441 511.16 171.957 511.197 171.376C511.237 170.719 511.265 170.054 511.293 169.393C511.455 169.389 511.616 169.38 511.777 169.376C511.777 169.473 511.773 169.578 511.773 169.679C511.785 170.663 511.959 171.638 512.156 172.594C512.342 173.465 513.253 174.086 514.111 174.086C514.474 174.086 514.817 173.993 515.136 173.807C515.547 173.565 515.99 173.09 516.067 172.594C516.2 171.755 516.329 170.917 516.402 170.074C516.426 169.792 516.438 169.501 516.454 169.211C516.905 169.195 517.361 169.175 517.813 169.167C517.901 171.421 517.982 173.674 518.067 175.924C518.111 177.218 518.196 178.508 518.256 179.803C518.313 180.976 518.389 182.165 518.55 183.334C518.546 183.282 518.534 183.23 518.526 183.177C518.542 183.294 518.554 183.403 518.571 183.52C517.635 183.375 516.692 183.242 515.756 183.105C515.712 182.576 515.643 182.048 515.51 181.536L515.511 181.536ZM529.642 249.54C529.573 251.556 529.508 253.568 529.416 255.58C529.327 257.431 529.19 259.273 529.105 261.116C528.928 265.047 528.722 268.97 528.573 272.901C528.549 273.517 528.545 274.142 528.521 274.763C528.351 274.711 528.174 274.675 527.988 274.675C527.839 274.675 527.682 274.691 527.525 274.739C526.569 275.001 526.057 275.981 526.287 276.924C526.743 278.791 527.037 280.674 527.323 282.573C528.005 290.503 528.178 298.474 528.5 306.424C528.033 306.094 527.569 305.767 527.097 305.449C526.247 304.876 525.392 304.312 524.529 303.751C522.961 302.723 521.38 301.715 519.784 300.728C518.993 300.244 518.187 299.784 517.385 299.329C516.869 299.038 516.349 298.768 515.829 298.502C515.885 298.292 515.933 298.079 515.933 297.849C515.933 290.092 515.99 282.335 516.026 274.577C516.054 267.195 516.107 259.821 516.171 252.439C516.236 245.384 516.28 238.324 516.341 231.272C516.397 224.245 516.312 217.209 516.264 210.182C516.228 205.13 516.095 200.086 515.998 195.034C515.958 192.857 515.901 190.676 515.865 188.49C515.861 188.087 515.849 187.68 515.841 187.277C516.756 187.426 517.667 187.571 518.582 187.704C519.276 187.801 519.969 187.882 520.663 187.93C521.404 187.974 522.138 187.97 522.876 187.954C523.719 187.93 524.473 187.394 524.698 186.567C524.831 186.083 524.763 185.551 524.509 185.116C524.283 184.733 523.84 184.318 523.38 184.249C522.9 184.18 522.42 184.104 521.941 184.031C521.864 182.846 521.82 181.657 521.771 180.471C521.731 179.06 521.67 177.645 521.614 176.23C521.521 173.855 521.437 171.48 521.348 169.102C521.896 171.67 522.416 174.234 522.92 176.81C523.388 179.205 523.924 181.584 524.618 183.918C524.908 184.894 525.924 185.503 526.924 185.225C527 185.209 527.069 185.172 527.138 185.144C527.323 187.434 527.488 189.72 527.561 192.018C527.658 195.232 527.718 198.445 527.718 201.666C527.722 204.855 527.702 208.053 527.694 211.242C527.694 212.826 527.69 214.415 527.694 215.999C527.698 217.479 527.698 218.963 527.75 220.442C527.871 223.684 528.029 226.921 528.218 230.159C528.311 231.707 528.42 233.255 528.541 234.808C528.662 236.287 528.811 237.763 528.956 239.234C529.25 242.23 529.504 245.23 529.686 248.229C529.678 248.673 529.661 249.108 529.641 249.54L529.642 249.54ZM549.216 309.726C545.567 309.795 541.922 309.871 538.273 309.9C536.991 309.912 535.705 309.904 534.423 309.924C534.25 309.924 534.076 309.928 533.903 309.936C533.967 308.726 534.032 307.525 534.088 306.319C534.245 303.231 534.33 300.147 534.314 297.05C534.286 290.878 534.088 284.705 533.939 278.524C533.858 275.339 533.782 272.154 533.729 268.965C533.677 265.804 533.56 262.647 533.399 259.487C533.242 256.539 533.04 253.584 532.875 250.637C532.806 249.423 532.738 248.21 532.661 246.996C532.766 245.319 532.887 243.65 532.984 241.973C533.1 240.013 533.169 238.05 533.209 236.082C533.298 232.175 533.367 228.273 533.318 224.365C533.274 220.511 533.173 216.649 533.092 212.794C533.036 210.105 532.947 207.424 532.867 204.739C532.883 202.916 532.907 201.09 532.907 199.272C532.907 194.365 532.951 189.458 532.971 184.543C532.984 181.596 532.996 178.653 532.959 175.705C532.943 174.306 532.923 172.907 532.907 171.516C532.895 170.795 532.883 170.073 532.871 169.355C532.855 168.621 532.895 167.835 532.488 167.186C532.06 166.505 531.343 166.057 530.528 166.057C530.472 166.057 530.419 166.073 530.359 166.081C530.315 165.739 530.282 165.404 530.238 165.065C529.694 161.054 529.101 157.05 528.448 153.054C528.113 151.043 527.73 149.043 527.343 147.047C526.984 145.192 526.597 143.338 526.166 141.491C525.497 138.637 524.831 135.786 524.19 132.924C524.102 132.408 524.017 131.9 523.928 131.388C523.674 129.936 523.42 128.485 523.166 127.041C524.674 127.279 526.19 127.497 527.702 127.707C527.609 127.92 527.557 128.146 527.581 128.356C527.742 129.678 527.883 131.009 528.129 132.315C528.343 133.472 528.573 134.621 528.799 135.778C529.202 137.911 529.585 140.044 530.012 142.173C530.238 143.289 530.464 144.41 530.669 145.523C530.859 146.551 531.004 147.587 531.165 148.615C531.508 150.829 531.863 153.03 532.258 155.232C532.588 157.062 532.883 158.901 533.217 160.727C533.576 162.711 533.959 164.686 534.334 166.662C535.032 170.331 535.721 174.004 536.229 177.709C536.511 179.845 536.794 181.986 537.072 184.123C537.374 186.466 537.62 188.812 537.939 191.146C538.249 193.493 538.66 195.827 539.047 198.162C539.406 200.339 539.725 202.524 540.023 204.717C540.079 205.141 540.14 205.568 540.2 205.996C540.483 208.144 540.773 210.302 540.87 212.471C540.898 213.087 540.906 213.712 540.922 214.333C540.918 214.684 540.922 215.039 540.918 215.39C540.825 219.441 540.729 223.493 540.676 227.549C540.632 231.464 540.624 235.375 540.587 239.29C540.551 243.132 540.374 246.97 540.225 250.808C540.225 250.849 540.225 250.885 540.22 250.925C539.983 253.993 539.725 257.061 539.471 260.126C539.079 264.778 538.688 269.439 538.297 274.096C537.926 278.478 537.342 282.841 537.314 287.243C537.314 288.017 537.326 288.791 537.378 289.565C537.435 290.468 537.596 291.347 537.842 292.202V292.42C537.866 293.049 537.91 293.67 538.027 294.29C538.197 295.129 538.692 295.851 539.257 296.468C539.741 296.988 540.386 297.391 541.027 297.685C541.575 297.947 542.156 298.121 542.732 298.286C543.293 298.455 543.861 298.592 544.426 298.729C545.252 299.1 546.075 299.491 546.836 299.991C547.09 300.209 547.328 300.447 547.554 300.709C547.998 301.358 548.344 302.032 548.675 302.745C549.26 304.334 549.671 305.955 550.062 307.599C550.223 308.293 550.368 308.99 550.518 309.688C550.086 309.716 549.647 309.72 549.215 309.724L549.216 309.726ZM534.21 143.625C534.887 146.225 535.492 148.85 536.101 151.467C536.738 154.229 537.262 157.015 537.701 159.813C538.141 162.611 538.568 165.413 538.967 168.215C539.056 168.912 539.124 169.618 539.205 170.323C538.721 167.965 538.209 165.606 537.721 163.248C536.798 158.809 535.976 154.333 535.246 149.854C534.903 147.785 534.597 145.697 534.21 143.624L534.21 143.625ZM704.254 332.278C704.217 332.282 704.177 332.294 704.145 332.307C703.984 332.375 703.814 332.427 703.661 332.516C703.677 332.238 703.697 331.968 703.713 331.69C703.883 331.782 704.072 331.859 704.258 331.879C704.254 332.012 704.254 332.145 704.254 332.278V332.278ZM708.173 315.312C708.003 314.965 707.616 314.695 707.253 314.57C707.544 314.482 707.818 314.34 708.027 314.107C708.032 314.143 708.04 314.175 708.044 314.211C708.112 314.635 708.181 315.054 708.253 315.477C708.233 315.429 708.205 315.373 708.173 315.312V315.312ZM928.884 303.656C928.392 303.378 927.84 303.193 927.308 303.233C926.896 303.189 926.481 303.197 926.07 303.205C925.723 303.209 925.376 303.217 925.034 303.193C924.699 303.168 924.356 303.168 924.018 303.168H923.699C923.328 303.168 922.957 303.132 922.582 303.124C922.627 303.128 922.671 303.136 922.716 303.14C922.466 303.112 922.212 303.096 921.966 303.088C921.833 303.088 921.7 303.088 921.566 303.092C920.651 303.229 919.724 303.241 918.805 303.144C918.365 303.1 917.934 303.027 917.502 302.935C916.825 302.789 916.152 302.644 915.491 302.418C915.362 302.378 915.237 302.33 915.108 302.289C915.083 302.592 915.067 302.89 915.051 303.185C912.475 303.221 909.894 303.273 907.318 303.322C901.182 303.443 895.041 303.588 888.909 303.721C876.644 303.987 864.379 304.213 852.116 304.483C828.493 305.007 804.872 305.575 781.249 306.16C779.915 306.184 778.58 306.204 777.246 306.228C752.229 306.68 727.208 307.148 702.194 307.539C701.847 307.188 701.372 306.962 700.848 306.962C700.299 306.962 699.807 307.204 699.461 307.587C674.601 307.978 649.749 308.377 624.889 308.68C615.838 308.789 606.786 308.922 597.739 309.071C588.982 309.216 580.233 309.309 571.476 309.405C566.102 309.462 560.732 309.539 555.357 309.623C555.345 309.454 555.333 309.293 555.317 309.127C555.281 308.736 555.252 308.337 555.236 307.942C555.196 307.249 555.168 306.555 555.115 305.854C555.059 305.039 554.982 304.217 554.853 303.41C554.789 303.023 554.72 302.636 554.644 302.249C554.498 301.519 554.216 300.822 553.922 300.141C553.563 299.31 552.95 298.572 552.297 297.951C551.446 297.149 550.406 296.649 549.302 296.298C548.874 296.165 548.431 296.068 547.983 295.988C547.447 295.685 546.887 295.415 546.33 295.161C545.621 294.831 544.887 294.548 544.157 294.258C543.834 294.109 543.528 293.94 543.234 293.742C543.056 293.581 542.887 293.411 542.73 293.234C542.532 292.932 542.367 292.625 542.21 292.311C541.956 291.646 541.774 290.964 541.649 290.267C541.52 289.001 541.569 287.694 541.645 286.436C541.71 285.267 541.79 284.102 541.899 282.941C542.113 280.675 542.415 278.421 542.673 276.16C542.923 274.051 543.085 271.93 543.286 269.814C543.512 267.411 543.742 265.004 543.98 262.605C544.423 258.057 544.951 253.513 545.362 248.953C545.766 244.469 545.858 239.966 545.878 235.463C545.895 230.983 545.838 226.504 545.81 222.024C545.798 219.783 545.814 217.541 545.741 215.291C545.701 214.102 545.653 212.909 545.564 211.723C545.467 210.473 545.314 209.232 545.149 207.99C544.826 205.579 544.451 203.176 544.06 200.777C544.048 200.1 544.044 199.418 544.032 198.741C543.988 194.915 543.967 191.08 543.806 187.254C543.629 183.146 543.367 179.046 543.024 174.941C542.867 173.058 542.677 171.171 542.435 169.292C542.173 167.228 541.859 165.176 541.528 163.124C541.218 161.18 540.927 159.241 540.593 157.302C540.25 155.338 539.863 153.383 539.444 151.428C539.041 149.549 538.613 147.67 538.174 145.791C537.734 143.9 537.303 142.001 536.759 140.139C536.21 138.236 535.597 136.357 535.001 134.474C534.36 132.45 533.707 130.438 533.037 128.426C532.993 128.289 532.945 128.144 532.892 127.999C533.146 127.822 533.344 127.572 533.424 127.269C533.461 127.136 533.461 126.991 533.453 126.854C542.851 126.882 552.257 126.93 561.659 126.963C562.562 126.967 563.457 126.967 564.356 126.975C563.981 129.305 563.594 131.627 563.211 133.958C562.304 139.433 561.425 144.912 560.582 150.396C559.792 155.564 559.006 160.729 558.195 165.89C557.357 171.26 556.462 176.622 555.692 182.009C555.385 184.138 555.075 186.258 554.768 188.383C553.688 188.367 552.611 188.355 551.531 188.339C550.462 188.323 549.567 189.246 549.567 190.302C549.567 191.088 550.043 191.758 550.712 192.072C550.696 192.193 550.676 192.314 550.672 192.443C550.66 192.685 550.656 192.927 550.656 193.173C550.656 193.669 550.656 194.169 550.66 194.664C550.66 195.382 550.696 196.1 550.712 196.813C550.757 198.426 550.87 200.043 550.954 201.651C551.112 204.635 551.237 207.61 551.382 210.594C551.527 213.594 551.648 216.593 551.878 219.589C552.116 222.677 552.249 225.762 552.394 228.85C552.43 229.515 552.458 230.184 552.543 230.85C552.567 231.027 552.599 231.212 552.624 231.394C552.241 231.491 551.894 231.656 551.587 231.966C551.16 232.39 550.922 232.97 550.922 233.575C550.922 234.176 551.164 234.76 551.587 235.184C551.978 235.575 552.624 235.901 553.196 235.849C557.946 235.446 562.703 235.075 567.46 234.756C569.67 234.611 571.875 234.478 574.088 234.385C576.169 234.305 578.257 234.269 580.338 234.091C581.321 234.011 582.297 233.853 583.273 233.708C583.575 233.628 583.829 233.478 584.047 233.257C584.378 232.926 584.563 232.474 584.563 232.015C584.563 231.551 584.378 231.1 584.047 230.773C583.696 230.422 583.285 230.297 582.805 230.257C581.644 230.152 580.487 230.015 579.322 229.975C578.286 229.938 577.253 229.93 576.217 229.922C574.113 229.922 572.008 229.967 569.908 230.072C565.388 230.285 560.872 230.644 556.365 231.027C556.063 231.051 555.756 231.079 555.458 231.104C555.434 230.197 555.458 229.289 555.462 228.386C555.474 226.923 555.466 225.467 555.438 224.012C555.381 220.915 555.24 217.823 555.034 214.731C554.837 211.755 554.599 208.784 554.345 205.816C554.147 203.474 553.922 201.14 553.728 198.801C553.781 198.765 553.833 198.725 553.877 198.68C554.055 198.503 554.228 198.184 554.196 197.918C554.063 196.922 553.93 195.934 553.805 194.947C553.748 194.467 553.684 193.991 553.619 193.511C553.567 193.12 553.522 192.713 553.47 192.314C553.712 192.318 553.954 192.318 554.2 192.326C554.119 192.874 554.043 193.423 553.962 193.975C553.881 194.531 553.869 195.003 554.164 195.507C554.426 195.951 554.857 196.281 555.353 196.422C555.869 196.559 556.429 196.491 556.885 196.221C557.284 195.991 557.724 195.515 557.8 195.036C557.933 194.153 558.062 193.261 558.191 192.379C560.949 192.391 563.707 192.342 566.452 192.096C568.847 191.883 571.234 191.588 573.613 191.282C573.476 191.923 573.375 192.572 573.387 193.237C573.399 193.987 573.891 194.661 574.617 194.862C575.548 195.116 576.387 194.552 576.685 193.689C577.016 192.741 577.217 191.758 577.483 190.794C578.1 190.717 578.721 190.637 579.338 190.564C580.834 190.387 582.321 190.153 583.805 189.915C584.112 189.826 584.378 189.673 584.607 189.46C584.519 189.685 584.462 189.927 584.458 190.181C584.353 194.701 584.341 199.233 584.446 203.752C584.539 208.227 584.696 212.706 584.805 217.186C584.942 222.653 585.075 228.12 585.232 233.592C585.261 234.66 586.103 235.551 587.192 235.551C588.236 235.551 589.187 234.66 589.155 233.592C588.889 223.903 588.688 214.219 588.639 204.523C588.627 202.164 588.639 199.806 588.655 197.455C588.671 195.032 588.732 192.605 588.603 190.186C588.575 189.625 588.401 189.121 587.994 188.718C587.607 188.331 587.075 188.109 586.526 188.109C585.97 188.109 585.474 188.335 585.103 188.694C585.18 188.484 585.22 188.271 585.22 188.045C585.22 187.017 584.365 186.101 583.325 186.101H583.285C582.023 186.13 580.777 186.17 579.523 186.291C579.229 186.319 578.939 186.368 578.644 186.4C579.056 184.702 579.435 182.997 579.802 181.292C580.257 179.159 580.604 176.998 580.971 174.849C581.346 172.639 581.721 170.434 582.1 168.221C582.821 163.959 583.882 159.766 584.736 155.533C585.603 151.223 586.47 146.905 587.24 142.567C588.155 137.418 588.982 132.254 589.756 127.081C592.477 127.085 595.199 127.097 597.924 127.105C610.028 127.141 622.123 127.145 634.227 127.202C646.168 127.258 658.115 127.359 670.057 127.387C694.207 127.444 718.354 127.565 742.504 127.577C766.42 127.589 790.337 127.694 814.258 127.734C823.599 127.75 832.937 127.77 842.275 127.77C846.484 127.77 850.697 127.758 854.902 127.742C856.773 127.738 858.647 127.73 860.518 127.718C862.24 127.706 863.961 127.641 865.687 127.621C869.582 127.569 873.476 127.605 877.379 127.544C881.044 127.488 884.709 127.488 888.377 127.476C889.897 127.472 891.413 127.472 892.933 127.472C893.865 127.472 894.8 127.46 895.731 127.448C896.401 127.444 897.082 127.407 897.755 127.423C899.344 127.46 900.956 127.423 902.545 127.371C903.077 127.355 903.601 127.355 904.133 127.355C904.601 127.355 905.117 127.379 905.589 127.274H905.815C905.799 128.524 905.778 129.77 905.77 131.016H905.786C906.089 130.939 906.395 130.899 906.706 130.899C907.375 130.899 908.008 131.072 908.585 131.407C909.673 131.891 910.193 133.149 910.762 134.124C911.161 134.806 911.564 135.487 911.951 136.18C911.955 136.193 911.963 136.205 911.967 136.217C912.298 136.805 912.632 137.402 912.943 138.003C912.927 137.406 912.903 136.814 912.878 136.221C912.854 135.705 912.838 135.185 912.814 134.673C913.757 136.047 914.697 137.418 915.628 138.801C918.547 143.119 921.652 147.332 924.063 151.969C924.929 153.638 925.756 155.332 926.526 157.049C927.429 159.303 928.175 161.621 928.808 163.968C929.102 165.197 929.38 166.431 929.61 167.673C929.913 169.31 930.187 170.943 930.453 172.587C930.61 173.551 930.747 174.511 930.892 175.478C931.062 176.801 931.239 178.131 931.344 179.462C931.372 179.845 931.4 180.232 931.433 180.611C931.42 184.606 931.461 188.598 931.469 192.593C931.481 201.136 931.509 209.671 931.513 218.214C931.517 235.462 931.404 252.702 931.416 269.95C931.429 280.312 931.457 290.669 931.457 301.035C931.457 301.474 931.566 301.886 931.747 302.253C931.763 302.817 931.775 303.39 931.791 303.958C930.816 303.781 929.856 303.684 928.885 303.656L928.884 303.656Z" fill="black"/>
<path d="M575.246 206.382C574.771 205.878 574.194 205.434 573.634 205.031C573.605 205.007 573.577 204.991 573.541 204.967C573.674 204.237 573.235 203.435 572.622 203.076C572.36 202.927 572.073 202.85 571.779 202.834C571.888 202.366 571.856 201.87 571.59 201.419C571.231 200.806 570.549 200.447 569.86 200.447C569.529 200.447 569.195 200.536 568.896 200.713C567.844 201.366 566.768 202.019 565.776 202.757C565.598 202.822 565.429 202.894 565.256 202.983C564.945 203.116 564.691 203.277 564.413 203.475C563.949 203.793 563.587 204.156 563.361 204.648C562.853 205.116 562.438 205.648 562.018 206.196C561.538 206.821 561.248 207.555 560.962 208.277C560.426 209.623 560.418 211.139 560.639 212.546C560.76 213.292 560.918 213.986 561.212 214.691C561.559 215.522 561.962 216.251 562.518 216.969C563.437 218.154 564.639 219.114 565.941 219.852C567.384 220.674 569.05 221.162 570.715 221.106C571.444 221.077 572.19 220.92 572.872 220.67C573.755 220.34 574.468 219.84 575.19 219.243C575.819 218.723 576.319 218.001 576.766 217.328C577.23 216.651 577.54 215.86 577.782 215.086C578 214.397 578.048 213.623 578.065 212.909C578.089 212.087 577.915 211.232 577.694 210.446C577.27 208.881 576.335 207.543 575.246 206.382L575.246 206.382ZM573.46 213.651C573.404 213.917 573.331 214.171 573.247 214.425C573.073 214.776 572.876 215.115 572.65 215.437C572.436 215.687 572.21 215.917 571.96 216.135C571.783 216.252 571.61 216.352 571.424 216.453C571.211 216.522 570.997 216.582 570.775 216.627C570.465 216.651 570.15 216.651 569.84 216.631C569.404 216.534 568.985 216.405 568.57 216.248C567.929 215.945 567.34 215.594 566.767 215.183C566.384 214.861 566.034 214.518 565.711 214.147C565.457 213.764 565.231 213.377 565.03 212.97C564.844 212.454 564.723 211.93 564.631 211.393C564.602 211.031 564.594 210.672 564.615 210.301C564.683 209.918 564.788 209.551 564.917 209.18C565.066 208.862 565.239 208.567 565.433 208.273C565.993 208.337 566.526 208.204 567.042 207.938C567.082 207.914 567.13 207.894 567.171 207.87C567.195 207.866 567.211 207.858 567.235 207.854C567.409 207.85 567.582 207.854 567.755 207.866C567.933 207.906 568.102 207.97 568.275 208.015C567.634 209.628 567.009 211.244 566.397 212.869C566.211 213.353 566.352 213.99 566.598 214.425C566.86 214.877 567.296 215.211 567.8 215.349C568.32 215.494 568.888 215.417 569.356 215.147C569.84 214.865 570.09 214.454 570.279 213.945C570.795 212.587 571.283 211.224 571.787 209.857C572.089 210.127 572.384 210.394 572.65 210.7C572.851 210.994 573.037 211.301 573.194 211.623C573.315 211.97 573.408 212.317 573.476 212.675C573.489 212.998 573.489 213.321 573.46 213.651L573.46 213.651Z" fill="black"/>
<path d="M897.458 180.424H897.417C895.869 180.512 894.313 180.532 892.765 180.573C890.809 180.625 888.858 180.649 886.911 180.702C882.778 180.811 878.641 180.919 874.504 181.044C865.538 181.311 856.579 181.565 847.616 181.835C838.755 182.101 829.897 182.339 821.035 182.593C811.665 182.863 802.304 183.149 792.937 183.383C783.765 183.621 774.593 183.903 765.42 184.169C756.196 184.435 746.971 184.693 737.75 184.971C728.368 185.25 718.99 185.56 709.6 185.854C700.11 186.149 690.623 186.455 681.14 186.749C655.123 187.576 629.111 188.35 603.089 189.136C602.501 189.152 602.013 189.616 602.013 190.213C602.013 190.785 602.505 191.305 603.089 191.289C621.942 190.717 640.798 190.116 659.651 189.568C678.512 189.023 697.377 188.479 716.241 187.927C725.599 187.649 734.957 187.391 744.318 187.096C753.507 186.802 762.691 186.508 771.883 186.225C776.56 186.08 781.237 185.931 785.906 185.786C790.402 185.641 794.901 185.475 799.396 185.322C808.79 185.012 818.18 184.734 827.574 184.427C839.847 184.036 852.115 183.637 864.393 183.254C870.235 183.077 876.085 182.895 881.931 182.698C884.608 182.605 887.289 182.528 889.966 182.415C891.442 182.351 892.913 182.298 894.393 182.246C895.405 182.21 896.417 182.169 897.429 182.165C897.905 182.165 898.296 181.774 898.296 181.299C898.288 180.855 897.913 180.424 897.457 180.424L897.458 180.424Z" fill="black"/>
<path d="M417 0.0241906L417.004 0.0483813L417 0V0.0241906Z" fill="black"/>
<path d="M327.556 383.487C321.524 365.097 316.743 346.331 310.838 327.903C306.301 313.739 302.126 297.234 289.029 288.821C273.108 278.593 253.409 271.653 235.563 265.686H235.56C229.56 264.047 223.673 262.011 217.943 259.59C217.404 259.103 216.763 258.746 216.067 258.543C210.316 254.883 206.403 248.931 205.322 242.2C204.817 239.992 204.438 237.758 204.189 235.509C212.679 243.919 226.867 236.498 234.999 231.212C244.657 224.934 260.081 231.936 264.899 217.134C265.16 216.08 264.695 214.981 263.756 214.432C262.816 213.887 261.63 214.026 260.845 214.774C254.493 222.109 247.577 222.858 238.287 221.327C237.215 221.034 236.069 221.339 235.277 222.118C228.454 230.735 216.298 236.058 205.809 230.929V230.932C205.171 230.593 204.411 230.587 203.767 230.91C203.308 223.893 203.508 216.632 203.382 209.886C222.376 194.391 227.641 168.072 227.597 141.459C235.058 139.25 241.33 128.286 241.228 121.238V121.241C241.182 117.098 239.423 113.161 236.367 110.364C233.312 107.567 229.23 106.162 225.099 106.485C224.81 104.181 224.514 101.905 224.203 99.6868C223.611 95.4357 216.184 96.3906 216.643 100.71C217.025 104.32 217.45 108.081 217.872 111.941C217.524 112.009 217.182 112.07 216.856 112.123C214.588 112.483 212.075 112.674 209.777 113.272C209.724 112.748 209.672 112.218 209.623 111.704C209.047 105.721 208.717 101.227 202.716 98.7192V98.7223C194.454 95.9283 185.607 95.3461 177.05 97.0311C176.369 97.0897 175.75 97.447 175.355 98.0046C174.958 98.5621 174.829 99.2676 175.001 99.9299C168.15 96.4859 165.904 105.29 165.282 114.18H165.279C161.752 112.557 157.615 113.003 154.516 115.347L154.442 114.602C153.869 108.62 153.537 104.125 147.536 101.618C139.274 98.8236 130.427 98.2415 121.869 99.9296C121.188 99.9881 120.569 100.345 120.175 100.903C119.778 101.461 119.648 102.163 119.818 102.825C112.082 98.9346 110.216 110.671 109.929 120.504H109.932C109.325 120.359 108.709 120.261 108.087 120.218C108.01 116.426 107.887 112.72 107.644 109.165L107.647 109.162C107.604 107.914 106.578 106.925 105.33 106.925C104.083 106.925 103.057 107.914 103.014 109.162C103.004 111.278 102.964 113.459 102.909 115.668C93.1743 113.755 87.1368 125.001 87.3497 133.556C87.5407 141.254 93.7633 153.622 102.392 152.171C102.98 169.456 105.719 186.469 114.799 199.838L114.803 199.842C117.538 203.874 120.819 207.506 124.549 210.638C124.281 219.347 124.102 228.059 123.292 236.74C123.277 236.887 123.252 237.017 123.237 237.162H123.24C122.722 236.579 122.001 236.216 121.225 236.145C115.147 235.458 109.084 236.761 102.97 235.92C101.421 235.708 85.7441 231.848 86.8347 229.177C87.8297 226.74 84.0531 225.422 82.7469 227.452L82.7438 227.449C82.2078 228.256 81.946 229.211 81.9984 230.178C81.6164 229.87 81.142 229.694 80.6522 229.685C72.3135 229.54 63.9125 232.898 59.9915 222.301H59.9885C59.548 220.823 58.02 219.954 56.5229 220.333C45.1773 223.61 30.8223 213.537 39.34 201.465C40.255 200.168 38.7979 198.609 37.501 198.745C37.6643 198.344 37.6951 197.901 37.5872 197.482C34.6484 186.94 34.3219 179.513 41.9739 170.992C43.0828 169.757 49.3024 165.799 50.0137 164.003C52.2717 158.295 48.954 158.162 47.9714 153.298C44.3518 135.364 47.4107 140.887 55.2351 128.861C55.8666 127.891 57.8104 126.193 58.217 124.702C59.1689 121.209 57.6379 117.497 57.7549 113.985L57.7519 113.982C57.986 101.398 64.5782 89.7845 75.2676 83.1405C75.8713 82.7431 76.1394 81.9915 75.9237 81.3045C75.705 80.6145 75.0581 80.1525 74.3342 80.174C75.129 80.2171 75.8929 79.8844 76.4012 79.2714C76.9064 78.6584 77.0912 77.8421 76.9002 77.0719C74.8579 66.2688 76.1486 55.5335 83.9484 47.1357C89.4871 41.1719 116.608 26.8196 121.417 40.6174C121.718 41.5908 122.68 42.2038 123.69 42.0652C124.7 41.9296 125.461 41.0825 125.495 40.0659C125.107 21.1362 96.4335 31.4654 87.4513 36.8869C73.9622 45.0285 66.405 63.373 72.012 78.4211L72.0151 78.4181C72.3324 79.4254 73.2473 80.1278 74.3038 80.177C74.079 80.2079 73.8603 80.2818 73.6631 80.3927C62.5485 86.1316 54.7642 96.7468 52.6326 109.072C51.4219 116.604 53.3719 118.905 48.3168 125.953C47.3095 127.357 45.264 128.011 44.2844 129.548H44.2813C41.2778 133.438 39.4018 138.077 38.8566 142.963C38.5331 148.354 41.897 151.851 42.4022 156.551C43.1569 163.584 35.9425 165.522 32.4335 171.651V171.648C29.7781 175.905 28.4874 180.868 28.7307 185.88C28.9772 190.889 30.7454 195.707 33.8043 199.681C34.2695 200.285 35.055 200.537 35.785 200.325C25.4527 214.673 40.3873 228.632 55.5033 226.278C56.637 230.036 59.1907 233.206 62.6223 235.112C68.0532 237.644 75.751 235.713 81.2902 234.398V234.395C82.0849 234.231 82.7134 233.618 82.8982 232.83C85.4673 236.055 88.8158 238.575 92.6233 240.149C101.877 244.295 112.345 244.831 121.971 241.649C122.205 241.547 122.424 241.418 122.627 241.267C119.673 256.333 109.757 260.03 95.467 264.663C76.602 270.781 55.7347 278.039 38.9524 288.818C26.5106 296.812 22.5084 311.635 18.0544 325.109C11.5915 344.661 6.63775 364.681 0.187752 384.239C-0.939717 387.652 3.28365 389.46 5.5848 387.741C29.0277 395.276 54.4231 396.927 78.7587 399.522H78.7618C106.625 402.192 134.617 403.326 162.606 402.919C217.109 403.141 271.513 398.262 325.106 388.348C325.269 388.33 325.433 388.299 325.593 388.259C326.064 388.166 326.542 388.093 327.013 388C329.21 387.566 329.182 384.402 327.561 383.484L327.556 383.487ZM234.761 125.274C233.063 128.681 230.546 131.608 227.435 133.801C227.152 126.136 226.499 118.54 225.67 111.248C232.222 112.819 238.097 117.575 234.76 125.273L234.761 125.274ZM173.97 103.335C174.438 103.452 174.934 103.372 175.341 103.113C175.751 102.855 176.031 102.439 176.124 101.964C176.798 102.578 177.713 102.855 178.616 102.719C183.119 101.998 187.691 101.81 192.237 102.159C199.991 102.91 202.689 105.03 204.273 113.175C205.896 121.526 207.554 134.908 197.97 138.573H197.973C193.79 139.75 189.415 140.107 185.097 139.624C177.088 139.226 173.89 137.304 172.214 128.876C171.749 126.538 169.802 102.205 173.967 103.335L173.97 103.335ZM118.789 106.234C119.257 106.351 119.753 106.271 120.16 106.012C120.57 105.753 120.853 105.338 120.942 104.863C121.617 105.476 122.535 105.754 123.438 105.618C127.938 104.894 132.513 104.706 137.059 105.057C144.813 105.809 147.511 107.928 149.095 116.073C150.721 124.425 152.376 137.807 142.795 141.472C138.609 142.649 134.235 143.006 129.916 142.522C121.907 142.125 118.709 140.203 117.033 131.774C116.568 129.436 114.621 105.104 118.789 106.231L118.789 106.234ZM101.717 143.88C98.0855 143.03 95.2145 140.261 94.2288 136.663C91.7674 130.881 93.9515 118.971 102.789 120.299C102.558 127.905 102.238 135.902 102.241 143.958L101.717 143.88ZM116.926 190.082C107.872 171.926 108.368 148.014 108.171 126.334C108.756 126.285 109.338 126.189 109.911 126.051C109.963 128.678 110.087 130.776 110.145 131.771C110.509 137.96 110.928 144.765 117.357 147.488C125.409 150.15 134.066 150.396 142.256 148.193C155.616 144.777 155.952 132.15 154.997 120.561C157.744 119.653 161.718 117.524 164.182 119.804H164.179C164.435 120.035 164.737 120.21 165.066 120.315C165.054 124.246 165.248 127.542 165.325 128.875C165.689 135.064 166.108 141.869 172.537 144.592C180.589 147.254 189.246 147.5 197.436 145.298C210.537 141.949 211.114 129.741 210.233 118.343H210.23C212.768 118.315 215.291 118.001 217.755 117.407L218.439 117.271C222.308 154.717 223.852 199.562 182.561 214.411C157.834 223.305 129.05 214.399 116.925 190.085L116.926 190.082ZM125.354 257.988C131.515 247.427 130.369 228.132 129.344 214.217C143.587 223.058 160.771 225.839 177.072 221.943C184.758 220.421 192.093 217.482 198.701 213.274C197.672 227.387 196.43 246.763 202.616 257.991V257.988C203.743 259.956 205.247 261.684 207.043 263.067C177.042 283.497 145.648 280.774 113.151 267.457V267.46C118.132 265.695 122.411 262.374 125.356 257.987L125.354 257.988ZM7.38685 384.062C13.3938 364.069 18.9107 343.892 26.2243 324.331C31.8308 309.335 36.1031 299.561 50.9975 291.417V291.414C63.0332 285.065 75.5121 279.6 88.3419 275.063C93.2738 273.239 99.9865 271.862 106.464 269.863C137.485 296.066 183.486 289.954 214.574 267.417C222.903 270.981 233.127 272.663 239.625 275.063C251.365 279.44 262.867 284.421 274.089 289.991C290.107 297.88 295.729 308.261 301.742 324.332C309.037 343.829 314.539 363.942 320.524 383.866C269.012 389.592 217.855 394.407 165.957 395.005C113.04 395.615 59.2826 394.995 7.39238 384.063L7.38685 384.062Z" fill="black"/>
<path d="M164.18 185.019C170.471 183.858 175.815 179.73 178.529 173.935C179.324 171.791 176.487 170.75 175.06 171.918C171.228 175.053 168.542 178.115 163.469 179.231C157.985 180.401 152.265 179.187 147.731 175.888C145.676 174.403 142.999 177.826 144.998 179.431C150.161 184.196 157.265 186.266 164.18 185.019L164.18 185.019Z" fill="black"/>
<path d="M163.613 162.315C164.226 162.463 164.863 162.192 165.181 161.647C165.498 161.102 165.421 160.412 164.987 159.953C162.498 157.421 159.469 155.483 156.127 154.285C156.765 150.557 159.599 146.358 160.483 142.791C161.395 138.919 161.651 134.918 161.238 130.959C161.21 130.198 160.585 129.598 159.824 129.598C159.066 129.598 158.441 130.198 158.413 130.959C158.114 136.144 156.894 141.236 154.809 145.995C153.632 148.354 152.819 150.88 152.4 153.483C151.811 158.89 159.072 161.518 163.613 162.315L163.613 162.315Z" fill="black"/>
<path d="M135.317 124.383C135.419 123.373 135.45 122.353 135.407 121.334C135.28 120.342 135.336 119.338 135.567 118.364C135.85 117.181 135.145 115.986 133.974 115.662C132.801 115.339 131.581 116.004 131.22 117.166C130.721 118.61 130.503 120.135 130.567 121.663C130.727 123.151 131.433 124.531 132.545 125.532C133.013 125.979 133.703 126.108 134.304 125.859C134.902 125.612 135.299 125.033 135.317 124.383L135.317 124.383Z" fill="black"/>
<path d="M192.081 122.144C193.683 120.36 193.058 117.785 192.95 115.558C192.904 114.313 191.881 113.327 190.637 113.327C189.389 113.327 188.366 114.313 188.32 115.558C188.215 117.791 187.584 120.351 189.189 122.144C189.99 122.935 191.28 122.935 192.081 122.144H192.081Z" fill="black"/>
<path d="M129.048 69.8514C129.359 74.4845 127.687 79.0316 124.443 82.3548C121.735 84.9948 118.242 85.1765 115.405 87.3113C112.26 89.6771 110.562 93.0841 106.924 95.1511C102.67 97.1011 98.0862 98.2316 93.4129 98.4781C90.5357 98.9278 90.739 103.487 93.4129 104.094C98.508 105.027 103.77 104.245 108.372 101.87C113.846 99.3037 117.189 94.3688 122.268 91.636C130.592 87.16 136.007 78.9939 133.231 69.2838V69.2869C132.923 68.2857 131.937 67.6542 130.899 67.7959C129.861 67.9345 129.079 68.8063 129.048 69.8506L129.048 69.8514Z" fill="black"/>
<path d="M214.904 80.0481C205.783 82.8914 193.793 87.854 188.094 76.1636H188.091C187.225 74.6941 185.337 74.2013 183.862 75.0546C170.006 84.6291 155.383 80.276 146.132 66.928C145.466 65.893 144.105 65.5634 143.045 66.1856C141.982 66.8048 141.597 68.151 142.173 69.2384C149.551 86.4552 169.02 90.7555 184.271 82.084C192.212 95.3704 202.157 91.1742 216.42 85.5557C219.759 84.2434 218.49 78.9296 214.904 80.0477L214.904 80.0481Z" fill="black"/>
<path d="M291.603 171.968C289.025 163.367 282.537 156.485 274.1 153.408C277.803 149.277 279.374 143.659 278.351 138.206C277.556 133.724 275.329 129.624 272.005 126.513C281.044 116.338 274.125 100.652 263.481 94.485V94.4881C263.685 94.3064 263.863 94.0938 264.002 93.8597C266.392 89.9567 267.203 85.2899 266.269 80.8075C265.336 76.3285 262.724 72.3734 258.975 69.7513C253.584 65.6542 254.6 67.5086 252.01 61.6893C250.423 57.5522 247.759 53.9172 244.296 51.1575C240.193 48.2495 234.907 48.9735 231.186 46.6046C228.034 44.5961 226.094 39.0451 222.93 36.374C219.282 33.2474 214.834 31.1988 210.087 30.4626C205.34 29.7232 200.479 30.3208 196.052 32.1907C179.458 10.7044 144.507 14.6994 129.967 36.8884C128.697 38.826 131.75 41.2658 133.226 39.4021C140.622 30.6967 151.129 25.2348 162.503 24.1875C176.944 22.4163 183.084 30.3115 194.189 36.7406H194.186C195.135 37.2365 196.302 37.0116 196.998 36.2015C204.776 34.002 213.137 35.8503 219.261 41.1241C222.646 44.2415 222.865 48.0737 225.646 51.0526C233.11 59.0554 247.521 52.0353 247.123 69.5754H247.126C247.139 70.8939 248.014 72.0459 249.28 72.4063C259.22 77.982 262.285 84.3553 258.481 91.5332C258.379 91.8289 258.333 92.1369 258.342 92.4512C256.349 92.3465 255.105 95.3222 257.147 96.3234C262.005 98.4366 266.003 102.136 268.483 106.816C271.176 112.478 269.904 117.619 268.964 123.296C268.262 122.551 267.562 121.787 266.875 120.98C265.585 119.461 263.502 120.841 263.333 122.446C262.757 127.889 268.73 130.061 271.062 134.336C274.611 140.839 271.447 145.826 269.281 151.883C269.115 152.326 269.118 152.816 269.291 153.257C268.699 153.762 268.388 154.526 268.459 155.299C268.527 156.075 268.964 156.772 269.636 157.166C275.624 160.887 281.126 164.698 283.257 171.875C285.5 179.419 280.968 182.235 279.305 188.649C279.028 189.77 279.481 190.94 280.439 191.581C280.469 192.022 280.503 192.462 280.506 192.949V192.952C280.565 195.98 279.832 198.974 278.378 201.633C275.202 207.317 269.768 208.546 263.724 208.712L263.727 208.715C262.575 208.746 261.58 209.528 261.278 210.64C260.979 211.753 261.441 212.929 262.421 213.536C269.41 217.14 277.897 213.265 282.358 207.387V207.391C285.715 202.529 287.262 196.639 286.719 190.756C292.021 187.222 293.071 177.624 291.602 171.968L291.603 171.968Z" fill="black"/>
<path d="M215.172 279.242C198.691 288.905 184.111 297.411 164.279 298.033C145.685 298.618 119.02 293.797 104.049 281.907V281.91C103.054 280.976 101.499 281.001 100.534 281.965C99.5671 282.929 99.5424 284.485 100.476 285.48C112.853 301.307 142.697 305.106 161.562 305.26C181.671 305.423 204.489 298.452 218.342 283.351C219.226 282.412 219.296 280.967 218.508 279.944C217.719 278.922 216.305 278.626 215.172 279.242L215.172 279.242Z" fill="black"/>
</svg>
