<svg fill="none" height="403" viewBox="0 0 938 403" width="938" xmlns="http://www.w3.org/2000/svg"><g fill="#000"><path d="m937.154 248.895c-.077-17.288-.056-34.576-.016-51.864.012-4.734.012-9.467.044-14.196.016-2.597 0-5.189-.016-7.786-.004-1.056-.024-2.108-.04-3.169-.012-.907-.016-1.802-.145-2.705-.133-.468-.371-.879-.718-1.226-.444-.443-1.036-.709-1.653-.786-.198-1.209-.403-2.415-.629-3.624-.468-2.52-1.004-5.012-1.746-7.467-.455-1.504-1.092-2.943-1.697-4.387-.492-1.157-1.004-2.306-1.573-3.427-1.209-2.399-2.544-4.709-3.955-6.995-1.346-2.189-2.798-4.31-4.213-6.463-1.443-2.201-2.907-4.394-4.374-6.576-1.411-2.096-2.657-4.302-3.919-6.483-.609-1.052-1.746-1.641-2.895-1.641-.573 0-1.145.146-1.657.444-.653.383-1.109.964-1.375 1.617h-.117-.879c-.476-.109-.996-.097-1.484-.089-.157 0-.306.004-.451.004-.802 0-1.601-.036-2.411-.044-2.092-.029-4.189-.037-6.281-.057-4.363-.044-8.729-.052-13.092-.044-2.423.004-4.842-.053-7.265-.077-2.762-.024-5.528-.028-8.282-.036-2.132-.004-4.261-.097-6.386-.117-2.721-.016-5.451-.024-8.172-.036-3.855-.012-7.709-.016-11.559-.016-8.14 0-16.28.024-24.42.036-11.955.016-23.905.036-35.859.077-24.061.088-48.123.076-72.185.169-12.087.044-24.179.076-36.27.105-11.918.028-23.845.121-35.766.177-14.651.077-29.303.093-43.963.133.964-.439 1.944-.867 2.923-1.282 2.278-.891 4.577-1.641 6.971-2.161 2.601-.564 5.23-.976 7.854-1.415 1.262-.21 2.52-.452 3.782-.678 1.25-.225 2.48-.556 3.717-.842 1.081-.25 2.129-.557 3.198-.871 1.79-.532 3.584-1.077 5.362-1.649 1.83-.589 3-2.427 2.475-4.354-.213-.783-.721-1.456-1.374-1.932.25-.85.508-1.693.762-2.536.532-1.741 1.088-3.483 1.774-5.1724.242-.5604.508-1.1087.814-1.6368.311-.5443.681-1.0563 1.052-1.5603.303-.4112.331-1.0563.202-1.5321-.137-.4959-.468-.9313-.915-1.1853-.307-.1774-.653-.2701-1.004-.2701-.178 0-.351.0242-.524.0685-.537.1451-.871.4798-1.186.9152-.052.0686-.092.1452-.145.2137-.036-.3306-.133-.6491-.302-.9354-.335-.5725-.815-.8507-1.411-1.0886-.75-.3023-1.504-.5846-2.27-.8386-.649-.2136-1.319-.387-1.976-.5725-1.229-.3467-2.475-.7055-3.721-.9999-2.653-.6249-5.33-1.1289-8.011-1.6368-2.669-.508-5.306-1.1571-7.902-1.9594-2.657-.8225-5.31-1.6692-7.883-2.7295-.116-.0443-.225-.0927-.342-.1371-.266-.5604-.803-.9555-1.48-.9555-.177 0-.351.0403-.52.0968-2.209-.9838-4.403-1.9958-6.596-3.0118-2.516-1.1612-5.04-2.2941-7.547-3.4633-.412-.1895-.803-.3185-1.226-.3185-.186 0-.375.0242-.573.0806-.209.0564-.399.1492-.584.2621-.242-.0645-.48-.0968-.71-.0968-1.201 0-2.262.8225-2.637 1.9998-.399 1.266-.625 2.5843-.903 3.8785-.278 1.2902-.56 2.5723-.826 3.8665-.516 2.5359-.932 5.0881-1.323 7.6401-.435 2.8143-.786 5.6405-1.129 8.4749-.318 2.584-.628 5.161-.907 7.749-.318 2.963-.665 5.923-1.044 8.882-.185 1.266-.387 2.524-.585 3.79-13.345.064-26.685.133-40.031.133-.463 0-.883.157-1.238.411-.516-.109-1.024-.226-1.536-.334-.201-.303-.479-.561-.758-.73-.346-.202-.746-.307-1.145-.307-.201 0-.399.029-.596.081-.561.157-1.053.532-1.347 1.036-.077.129-.129.254-.169.375-.025.016-.045.04-.069.057-.516-.089-1.024-.174-1.536-.263-.149-.024-.29-.04-.427-.04-.254 0-.492.053-.734.198-.343.197-.589.524-.694.903-.104.391-.052.814.158 1.169.177.31.536.637.903.694.145.024.29.044.439.076-.359 1.052-.709 2.109-1.028 3.177-.375 1.266-.762 2.524-1.093 3.81-.653 2.544-1.237 5.104-1.774 7.669-.544 2.588-.995 5.197-1.382 7.813-.359 2.399-.629 4.81-.891 7.221-.097.262-.162.544-.162.831 0 .117.016.229.037.346-.25 2.363-.476 4.73-.609 7.096-.057.956-.109 1.907-.161 2.867-1.218.036-2.436.076-3.653.117h-.012c-.004 0-.012.004-.017.004-1.185.04-2.362.064-3.547.109-.105.004-.21.012-.311.012.016-.492-.266-1.04-.597-1.371-.383-.383-.907-.601-1.443-.601s-1.064.214-1.443.601c-.416.415-.537.883-.601 1.443-.27 2.492-.532 4.983-.75 7.479-.097 1.129-.197 2.262-.282 3.387-.057.697-.109 1.399-.157 2.096-.029.516-.037 1.028-.025 1.544-.443.388-.733.964-.733 1.545 0 .532.213 1.044.588 1.415.162.161.343.278.524.363.283.987 1.468 1.532 2.424 1.27.463-.129.862-.428 1.128-.827 1.226.097 2.452.186 3.677.303 1.609.149 3.202.342 4.802.544.839.121 1.677.262 2.516.387-.024 1.536-.04 3.076-.077 4.612-.088 3.371-.137 6.741-.217 10.108-.089 3.657-.121 7.318-.145 10.975-.025 3.616-.065 7.229-.081 10.849-.044 14.201.238 28.405.294 42.604.045 10.253.117 20.513.121 30.77-.584-.161-1.173-.262-1.782-.319-.121-.012-.25-.016-.375-.016-1.064 0-2.096.456-2.653 1.399-.371.629-.492 1.444-.33 2.149.133.597.435 1.117.746 1.637.616 1.024 1.963 1.399 3.003.786.428-.25.742-.637.92-1.076.088.036.177.068.266.104 2.915 1.311 5.664 2.984 8.333 4.734 1.359.891 2.718 1.786 4.068 2.681.577.383 1.157.758 1.742 1.133.363.238.742.451 1.109.681.774.476 1.588.827 2.427 1.169.262.069.52.077.782.053-.04.064-.097.109-.137.177-.484.827-.613 1.839-.359 2.762.226.831.843 1.758 1.649 2.137.706.334 1.089.508 1.883.52.21 0 .415.004.625.004.689 0 1.383-.024 2.068-.044 1.976-.053 3.959-.137 5.935-.178 5.27-.109 10.547-.173 15.821-.266 10.729-.177 21.457-.576 32.182-.798 12.195-.25 24.392-.48 36.579-.77 12.648-.303 25.292-.573 37.94-.827 11.78-.23 23.557-.475 35.338-.709 0 5.741-.004 11.478-.004 17.22 0 6.757.076 13.506.149 20.264.04 3.386.052 6.773.024 10.16-.024 3.306-.056 6.612-.04 9.918.004.867.012 1.742.012 2.608 0 .456 0 .916.004 1.371 0 .319.012.637.036.948.053.625.218 1.157.548 1.689.295.48.863.722 1.412.573.612-.17 1.108-.896.87-1.533-.056-.149-.104-.294-.137-.443-.016-.573.025-1.157.041-1.734.012-.411.016-.826.028-1.237.024-.823.044-1.641.077-2.464.036-1.016.08-2.028.12-3.048.037-.012.069-.024.097-.036.016.262.093.508.23.742.226.383.589.665 1.016.782.302.08.601.08.907 0 .097-.028.198-.065.303-.117.016.524.088 1.056.133 1.584.04.492.169.916.524 1.271.451.455 1.133.637 1.75.463.262-.068.508-.177.749-.306.335-.178.525-.48.742-.782.319-.444.403-1.093.464-1.625.044-.436.044-.871.056-1.31.017-.642.129-1.291.186-1.932.145-1.6.23-3.201.31-4.802.024.005.041.013.065.017.359.096.762.076 1.129-.053.334.335.798.52 1.27.52.117 0 .213-.036.322-.052.041 1.052.089 2.105.117 3.157.024 1.012.028 2.016.041 3.028.012 1.12-.057 2.31.225 3.402.146.561.69.96 1.266.96.545 0 1.162-.391 1.266-.96.174-.959.226-1.923.295-2.894.056-.867.105-1.734.129-2.601.044-1.637.04-3.282.028-4.919-.024-3.455-.097-6.918-.319-10.369-.217-3.504-.423-6.999-.657-10.503-.121-1.758-.29-3.52-.443-5.278-.149-1.718-.303-3.439-.444-5.157-.31-3.665-.838-7.301-1.35-10.942-.214-1.516-.468-3.024-.75-4.532.028-.052.052-.105.08-.157.242.149.476.306.71.463.637.416 1.532.129 1.895-.495.226-.388.218-.811.068-1.186 6.572-.129 13.144-.262 19.716-.375-.185 8.568-.201 17.139-.25 25.698-.024 4.04-.068 8.08-.109 12.12-.04 4.189-.088 8.382-.197 12.571-.045 1.826-.157 3.649-.282 5.467-.065.891-.133 1.782-.214 2.665-.036.399-.069.802-.109 1.202-.024.209-.028.411-.024.616.004.267.056.525.109.787.076.371.306.608.532.895.282.363.871.544 1.318.544.335 0 .649-.089.936-.254.278-.169.504-.387.669-.669.214-.27.302-.657.371-.996.068-.311.097-.677.121-1 .036-.504.064-1.004.093-1.508.056-.976.092-1.955.133-2.931.08-2.012.104-4.024.149-6.035.092-4.129.177-8.262.278-12.386.21-8.495.262-16.986.335-25.484.036-3.798.064-7.588.145-11.386.576-.012 1.157-.024 1.733-.036 13.753-.242 27.509-.492 41.258-.734 15.941-.177 31.883-.387 47.825-.585 15.893-.197 31.795-.415 47.692-.677 8.277-.133 16.546-.23 24.823-.359 4.024-.056 8.048-.129 12.067-.201 1.613-.029 3.221-.077 4.83-.109 1.387-.024 2.802.024 4.189-.121h-.012c.173-.012.343-.028.516-.045-.012 0-.024 0-.04.004 1.383-.12 2.782-.116 4.161-.241h.088v-.013c.291-.028.577-.064.867-.104.548-.158 1.036-.436 1.439-.839.041-.04.069-.089.105-.129.117-.004.23-.004.343-.016.822-.069 1.637-.178 2.451-.311.375-.104.706-.294.984-.572.069-.069.129-.149.185-.226.706-.137 1.295-.782 1.27-1.524 0-.056-.004-.117-.004-.177.77-.129 1.48-.823 1.424-1.641-.029-.375-.057-.758-.089-1.133.544-.52.883-1.25.883-2.044-.081-17.329-.012-34.706-.089-52.079zm-436.778-67.581c.012-1.253.121-2.515.23-3.769.024-.25.044-.496.068-.746 1.097.133 2.201.278 3.302.411-.012.294-.028.589-.028.883.004.609.012 1.214.016 1.822.004.565.016 1.133.028 1.706-1.201-.109-2.411-.214-3.616-.307zm3.745-7.309c-.012.213-.016.423-.028.637-1.064-.133-2.129-.27-3.189-.403.133-1.48.302-2.956.452-4.427 1.04-.045 2.08-.093 3.12-.133-.129 1.435-.258 2.878-.355 4.326zm61.92-27.352c.988-5.281 2.036-10.555 3.048-15.837.185-.971.375-1.943.56-2.915-.161-.282-.282-.588-.362-.907-.081-.31-.121-.629-.121-.947 0-.52.149-1.133.242-1.666.068-.415.157-.826.25-1.237.004-.024.012-.045.016-.069.121-.52.254-1.036.399-1.548.129-.468.27-.931.435-1.387.133-.391.291-.774.468-1.149.093-.133.189-.262.29-.387.218-1.399.428-2.798.625-4.197.742-5.262 1.383-10.543 1.988-15.8207.27-2.3828.564-4.7495.879-7.1281.278-1.9152.6-3.8261 1.016-5.7211.342-1.5724.717-3.1368 1.004-4.7212 1.826.8386 3.656 1.6772 5.479 2.5359-.238.4516-.319.9757-.157 1.4797.838 2.6167 1.669 5.2413 2.56 7.8499.814 2.3828 1.75 4.7292 2.81 7.0113.173.2943.403.5243.706.7053.451.266.999.335 1.507.198.492-.133.916-.464 1.17-.8953.237-.4031.387-1.0522.197-1.5078-1.742-4.1366-3.04-8.4426-4.382-12.7283 1.262.6088 2.519 1.2096 3.789 1.7861.089.0403.17.0766.254.1089.017.2419.029.4918.045.7338.064.8708.133 1.7457.238 2.6125.169 1.3828.318 2.7618.544 4.1326.185 1.1208.423 2.2497.79 3.3222.105.3064.214.6169.323.9233.169.4918.391.96.609 1.435.133.226.31.399.532.532.342.202.762.254 1.145.15.371-.105.693-.351.891-.682.185-.318.282-.786.149-1.1448-.625-1.6813-1.024-3.4149-1.278-5.1889-.23-1.7699-.411-3.5479-.556-5.3218.524.2257 1.056.4354 1.588.6491.669 3.1448 1.343 6.3057 2.504 9.3053.145.3709.318.6652.669.8708.335.1973.746.2503 1.129.1453.722-.2017 1.29-1.0443 1.016-1.7983-.597-1.6571-1.036-3.3504-1.443-5.068-.17-.7055-.311-1.4151-.476-2.1288.758.2782 1.516.5484 2.27.8145.33 1.391.649 2.7859.988 4.1729.133.5443.741.8668 1.266.7176.56-.1572.838-.7176.717-1.266-.209-.9475-.427-1.8909-.637-2.8384.831.2661 1.669.5161 2.516.7419.331.9475.657 1.903.984 2.8504.161.4677.613.7701 1.109.629.463-.129.77-.6411.628-1.1087-.185-.6169-.387-1.2378-.584-1.8506.52.1169 1.04.2298 1.56.3427.028.2419.057.4838.093.7297.161 1.1168.427 2.2013.734 3.2899.302 1.0644 1.427 1.7176 2.503 1.4232.508-.137.948-.4797 1.214-.9353.294-.504.306-1.012.202-1.5684-.097-.5201-.178-1.0361-.262-1.5562-.017-.1572-.029-.3185-.045-.4798.359.0766.718.1452 1.069.2177.157.0363.318.0766.475.1089.198.8789.4 1.7498.629 2.6247.097.3629.492.5846.851.4798.371-.0968.573-.4838.48-.8507-.161-.629-.303-1.266-.444-1.9031.133.0283.262.0565.391.0928.424.6813 1.174 1.145 2.016 1.145.48 0 .932-.1492 1.311-.4032.266.0525.524.117.79.1613 1.04.1976 2.104.2419 3.161.2379.306 0 .6-.0686.871-.1774-.464.9555-.855 1.9554-1.214 2.9553-.375 1.0397-.693 2.1047-1.028 3.1607-.391 1.262-.649 2.548-.843 3.851-1.705.536-3.423 1.052-5.136 1.56-1.335.391-2.669.722-4.028 1.044-2.883.681-5.798 1.214-8.709 1.77-2.802.536-5.559 1.197-8.305 1.984-1.335.383-2.641.85-3.947 1.318-1.693.609-3.29 1.387-4.746 2.443-.169.121-.33.25-.475.375-.065.028-.133.045-.19.081-.463.27-.988.826-1.064 1.387-.169 1.177-.343 2.358-.508 3.536h-.524c.29 1.213.012 2.503-.21 3.745-.056.319-.117.629-.185.944h.229c-.322 2.149-.657 4.293-1.028 6.434-.774 4.427-1.596 8.838-2.455 13.249-.855 4.362-1.705 8.729-2.556 13.091-.436 2.222-.895 4.439-1.21 6.677-.322 2.347-.625 4.689-.935 7.035-.133.976-.262 1.948-.387 2.919.024-.185.044-.37.076-.548-.391 2.903-.907 5.77-1.443 8.648-.157.823-.322 1.641-.496 2.456-1.536.254-3.076.516-4.624.746-2.609.318-5.225.624-7.85.657-1.145.016-2.282.028-3.427.028.496-3.403 1.004-6.81 1.596-10.196.972-5.532 1.976-11.056 2.956-16.587.859-4.995 1.786-9.991 2.721-14.989zm-49.297 18.187c.174-2.281.383-4.559.573-6.841.197-2.363.334-4.734.556-7.092.218-2.383.464-4.758.746-7.133.069-.56.145-1.12.214-1.677.346-2.371.746-4.729 1.161-7.088.056.343.121.682.177 1.028.307 1.791.609 3.589.936 5.387.334 1.81.746 3.6 1.149 5.399.383 1.697.782 3.394 1.137 5.096.375 1.774.721 3.556 1.104 5.322.775 3.608 1.545 7.212 2.117 10.865.053.343.097.677.149 1.016.081.657.145 1.318.214 1.971-.266.045-.516.146-.706.343-.024.024-.044.057-.068.081-.278-1.411-.573-2.823-.871-4.226-.21-.947-1.149-1.56-2.08-1.56-.178 0-.363.024-.537.069-.532.145-.995.504-1.27.975-.028.053-.044.105-.068.158-.028-.037-.057-.069-.093-.097-.012-.238-.016-.476-.028-.718-.036-.972-.782-1.774-1.774-1.774-.944 0-1.81.811-1.774 1.774.004.145.012.29.016.436-.359.012-.722.028-1.081.036.021-.585.053-1.165.101-1.75zm-3.89-12.063c-.037.439-.077.879-.105 1.318-.016-.004-.04 0-.065-.004.061-.439.109-.875.17-1.314zm-1.242 10.725c.129-1.573.302-3.137.492-4.705.064.004.129.016.189.016.028 0 .065-.004.093-.012-.117 1.415-.23 2.826-.343 4.241-.092 1.202-.157 2.411-.213 3.617-.121 0-.242 0-.359.004h-.069c.057-1.049.121-2.105.21-3.161zm3.899 18.034c-.23-.871-1.065-1.491-1.964-1.491-.895 0-1.734.616-1.959 1.491-.081.311-.133.629-.178.948-.197-.024-.387-.057-.576-.081-1.689-.218-3.383-.403-5.076-.589-.028-1.209-.045-2.415-.053-3.628-.004-.25.012-.496.016-.75 1.15.145 2.303.282 3.452.427.318.041.693-.161.915-.383.242-.242.383-.572.383-.915s-.137-.669-.383-.915c-.089-.069-.173-.133-.262-.202-.202-.117-.423-.173-.653-.177-1.117-.145-2.23-.278-3.343-.423.037-.706.081-1.404.133-2.105.077-1.036.162-2.064.25-3.096 0-.017.004-.037.004-.057.956-.04 1.903-.089 2.855-.121-.012.637-.016 1.27-.004 1.907.012.577.476 1.065 1.064 1.065.609 0 1.028-.484 1.065-1.065.04-.657.068-1.322.096-1.983.162-.004.323-.013.484-.017 0 .097-.004.202-.004.303.012.984.186 1.959.383 2.915.186.871 1.097 1.492 1.955 1.492.363 0 .706-.093 1.025-.279.411-.242.854-.717.931-1.213.133-.839.262-1.677.335-2.52.024-.282.036-.573.052-.863.451-.016.907-.036 1.359-.044.088 2.254.169 4.507.254 6.757.044 1.294.129 2.584.189 3.879.057 1.173.133 2.362.294 3.531-.004-.052-.016-.104-.024-.157.016.117.028.226.045.343-.936-.145-1.879-.278-2.815-.415-.044-.529-.113-1.057-.246-1.569zm14.131 68.004c-.069 2.016-.134 4.028-.226 6.04-.089 1.851-.226 3.693-.311 5.536-.177 3.931-.383 7.854-.532 11.785-.024.616-.028 1.241-.052 1.862-.17-.052-.347-.088-.533-.088-.149 0-.306.016-.463.064-.956.262-1.468 1.242-1.238 2.185.456 1.867.75 3.75 1.036 5.649.682 7.93.855 15.901 1.177 23.851-.467-.33-.931-.657-1.403-.975-.85-.573-1.705-1.137-2.568-1.698-1.568-1.028-3.149-2.036-4.745-3.023-.791-.484-1.597-.944-2.399-1.399-.516-.291-1.036-.561-1.556-.827.056-.21.104-.423.104-.653 0-7.757.057-15.514.093-23.272.028-7.382.081-14.756.145-22.138.065-7.055.109-14.115.17-21.167.056-7.027-.029-14.063-.077-21.09-.036-5.052-.169-10.096-.266-15.148-.04-2.177-.097-4.358-.133-6.544-.004-.403-.016-.81-.024-1.213.915.149 1.826.294 2.741.427.694.097 1.387.178 2.081.226.741.044 1.475.04 2.213.024.843-.024 1.597-.56 1.822-1.387.133-.484.065-1.016-.189-1.451-.226-.383-.669-.798-1.129-.867-.48-.069-.96-.145-1.439-.218-.077-1.185-.121-2.374-.17-3.56-.04-1.411-.101-2.826-.157-4.241-.093-2.375-.177-4.75-.266-7.128.548 2.568 1.068 5.132 1.572 7.708.468 2.395 1.004 4.774 1.698 7.108.29.976 1.306 1.585 2.306 1.307.076-.016.145-.053.214-.081.185 2.29.35 4.576.423 6.874.097 3.214.157 6.427.157 9.648.004 3.189-.016 6.387-.024 9.576 0 1.584-.004 3.173 0 4.757.004 1.48.004 2.964.056 4.443.121 3.242.279 6.479.468 9.717.093 1.548.202 3.096.323 4.649.121 1.479.27 2.955.415 4.426.294 2.996.548 5.996.73 8.995-.008.444-.025.879-.045 1.311zm19.574 60.186c-3.649.069-7.294.145-10.943.174-1.282.012-2.568.004-3.85.024-.173 0-.347.004-.52.012.064-1.21.129-2.411.185-3.617.157-3.088.242-6.172.226-9.269-.028-6.172-.226-12.345-.375-18.526-.081-3.185-.157-6.37-.21-9.559-.052-3.161-.169-6.318-.33-9.478-.157-2.948-.359-5.903-.524-8.85-.069-1.214-.137-2.427-.214-3.641.105-1.677.226-3.346.323-5.023.116-1.96.185-3.923.225-5.891.089-3.907.158-7.809.109-11.717-.044-3.854-.145-7.716-.226-11.571-.056-2.689-.145-5.37-.225-8.055.016-1.823.04-3.649.04-5.467 0-4.907.044-9.814.064-14.729.013-2.947.025-5.89-.012-8.838-.016-1.399-.036-2.798-.052-4.189-.012-.721-.024-1.443-.036-2.161-.016-.734.024-1.52-.383-2.169-.428-.681-1.145-1.129-1.96-1.129-.056 0-.109.016-.169.024-.044-.342-.077-.677-.121-1.016-.544-4.011-1.137-8.015-1.79-12.011-.335-2.011-.718-4.011-1.105-6.007-.359-1.855-.746-3.709-1.177-5.556-.669-2.854-1.335-5.705-1.976-8.567-.088-.516-.173-1.024-.262-1.536-.254-1.452-.508-2.903-.762-4.347 1.508.238 3.024.456 4.536.666-.093.213-.145.439-.121.649.161 1.322.302 2.653.548 3.959.214 1.157.444 2.306.67 3.463.403 2.133.786 4.266 1.213 6.395.226 1.116.452 2.237.657 3.35.19 1.028.335 2.064.496 3.092.343 2.214.698 4.415 1.093 6.617.33 1.83.625 3.669.959 5.495.359 1.984.742 3.959 1.117 5.935.698 3.669 1.387 7.342 1.895 11.047.282 2.136.565 4.277.843 6.414.302 2.343.548 4.689.867 7.023.31 2.347.721 4.681 1.108 7.016.359 2.177.678 4.362.976 6.555.056.424.117.851.177 1.279.283 2.148.573 4.306.67 6.475.028.616.036 1.241.052 1.862-.004.351 0 .706-.004 1.057-.093 4.051-.189 8.103-.242 12.159-.044 3.915-.052 7.826-.089 11.741-.036 3.842-.213 7.68-.362 11.518 0 .041 0 .077-.005.117-.237 3.068-.495 6.136-.749 9.201-.392 4.652-.783 9.313-1.174 13.97-.371 4.382-.955 8.745-.983 13.147 0 .774.012 1.548.064 2.322.057.903.218 1.782.464 2.637v.218c.024.629.068 1.25.185 1.87.17.839.665 1.561 1.23 2.178.484.52 1.129.923 1.77 1.217.548.262 1.129.436 1.705.601.561.169 1.129.306 1.694.443.826.371 1.649.762 2.41 1.262.254.218.492.456.718.718.444.649.79 1.323 1.121 2.036.585 1.589.996 3.21 1.387 4.854.161.694.306 1.391.456 2.089-.432.028-.871.032-1.303.036zm-15.006-166.101c.677 2.6 1.282 5.225 1.891 7.842.637 2.762 1.161 5.548 1.6 8.346.44 2.798.867 5.6 1.266 8.402.089.697.157 1.403.238 2.108-.484-2.358-.996-4.717-1.484-7.075-.923-4.439-1.745-8.915-2.475-13.394-.343-2.069-.649-4.157-1.036-6.23zm170.044 188.653c-.037.004-.077.016-.109.029-.161.068-.331.12-.484.209.016-.278.036-.548.052-.826.17.092.359.169.545.189-.004.133-.004.266-.004.399zm3.919-16.966c-.17-.347-.557-.617-.92-.742.291-.088.565-.23.774-.463.005.036.013.068.017.104.068.424.137.843.209 1.266-.02-.048-.048-.104-.08-.165zm220.711-11.656c-.492-.278-1.044-.463-1.576-.423-.412-.044-.827-.036-1.238-.028-.347.004-.694.012-1.036-.012-.335-.025-.678-.025-1.016-.025h-.319c-.371 0-.742-.036-1.117-.044.045.004.089.012.134.016-.25-.028-.504-.044-.75-.052-.133 0-.266 0-.4.004-.915.137-1.842.149-2.761.052-.44-.044-.871-.117-1.303-.209-.677-.146-1.35-.291-2.011-.517-.129-.04-.254-.088-.383-.129-.025.303-.041.601-.057.896-2.576.036-5.157.088-7.733.137-6.136.121-12.277.266-18.409.399-12.265.266-24.53.492-36.793.762-23.623.524-47.244 1.092-70.867 1.677-1.334.024-2.669.044-4.003.068-25.017.452-50.038.92-75.052 1.311-.347-.351-.822-.577-1.346-.577-.549 0-1.041.242-1.387.625-24.86.391-49.712.79-74.572 1.093-9.051.109-18.103.242-27.15.391-8.757.145-17.506.238-26.263.334-5.374.057-10.744.134-16.119.218-.012-.169-.024-.33-.04-.496-.036-.391-.065-.79-.081-1.185-.04-.693-.068-1.387-.121-2.088-.056-.815-.133-1.637-.262-2.444-.064-.387-.133-.774-.209-1.161-.146-.73-.428-1.427-.722-2.108-.359-.831-.972-1.569-1.625-2.19-.851-.802-1.891-1.302-2.995-1.653-.428-.133-.871-.23-1.319-.31-.536-.303-1.096-.573-1.653-.827-.709-.33-1.443-.613-2.173-.903-.323-.149-.629-.318-.923-.516-.178-.161-.347-.331-.504-.508-.198-.302-.363-.609-.52-.923-.254-.665-.436-1.347-.561-2.044-.129-1.266-.08-2.573-.004-3.831.065-1.169.145-2.334.254-3.495.214-2.266.516-4.52.774-6.781.25-2.109.412-4.23.613-6.346.226-2.403.456-4.81.694-7.209.443-4.548.971-9.092 1.382-13.652.404-4.484.496-8.987.516-13.49.017-4.48-.04-8.959-.068-13.439-.012-2.241.004-4.483-.069-6.733-.04-1.189-.088-2.382-.177-3.568-.097-1.25-.25-2.491-.415-3.733-.323-2.411-.698-4.814-1.089-7.213-.012-.677-.016-1.359-.028-2.036-.044-3.826-.065-7.661-.226-11.487-.177-4.108-.439-8.208-.782-12.313-.157-1.883-.347-3.77-.589-5.649-.262-2.064-.576-4.116-.907-6.168-.31-1.944-.601-3.883-.935-5.822-.343-1.964-.73-3.919-1.149-5.874-.403-1.879-.831-3.758-1.27-5.637-.44-1.891-.871-3.79-1.415-5.652-.549-1.903-1.162-3.782-1.758-5.665-.641-2.024-1.294-4.036-1.964-6.048-.044-.137-.092-.282-.145-.427.254-.177.452-.427.532-.73.037-.133.037-.278.029-.415 9.398.028 18.804.076 28.206.109.903.004 1.798.004 2.697.012-.375 2.33-.762 4.652-1.145 6.983-.907 5.475-1.786 10.954-2.629 16.438-.79 5.168-1.576 10.333-2.387 15.494-.838 5.37-1.733 10.732-2.503 16.119-.307 2.129-.617 4.249-.924 6.374-1.08-.016-2.157-.028-3.237-.044-1.069-.016-1.964.907-1.964 1.963 0 .786.476 1.456 1.145 1.77-.016.121-.036.242-.04.371-.012.242-.016.484-.016.73 0 .496 0 .996.004 1.491 0 .718.036 1.436.052 2.149.045 1.613.158 3.23.242 4.838.158 2.984.283 5.959.428 8.943.145 3 .266 5.999.496 8.995.238 3.088.371 6.173.516 9.261.036.665.064 1.334.149 2 .024.177.056.362.081.544-.383.097-.73.262-1.037.572-.427.424-.665 1.004-.665 1.609 0 .601.242 1.185.665 1.609.391.391 1.037.717 1.609.665 4.75-.403 9.507-.774 14.264-1.093 2.21-.145 4.415-.278 6.628-.371 2.081-.08 4.169-.116 6.25-.294.983-.08 1.959-.238 2.935-.383.302-.08.556-.23.774-.451.331-.331.516-.783.516-1.242 0-.464-.185-.915-.516-1.242-.351-.351-.762-.476-1.242-.516-1.161-.105-2.318-.242-3.483-.282-1.036-.037-2.069-.045-3.105-.053-2.104 0-4.209.045-6.309.15-4.52.213-9.036.572-13.543.955-.302.024-.609.052-.907.077-.024-.907 0-1.815.004-2.718.012-1.463.004-2.919-.024-4.374-.057-3.097-.198-6.189-.404-9.281-.197-2.976-.435-5.947-.689-8.915-.198-2.342-.423-4.676-.617-7.015.053-.036.105-.076.149-.121.178-.177.351-.496.319-.762-.133-.996-.266-1.984-.391-2.971-.057-.48-.121-.956-.186-1.436-.052-.391-.097-.798-.149-1.197.242.004.484.004.73.012-.081.548-.157 1.097-.238 1.649-.081.556-.093 1.028.202 1.532.262.444.693.774 1.189.915.516.137 1.076.069 1.532-.201.399-.23.839-.706.915-1.185.133-.883.262-1.775.391-2.657 2.758.012 5.516-.037 8.261-.283 2.395-.213 4.782-.508 7.161-.814-.137.641-.238 1.29-.226 1.955.012.75.504 1.424 1.23 1.625.931.254 1.77-.31 2.068-1.173.331-.948.532-1.931.798-2.895.617-.077 1.238-.157 1.855-.23 1.496-.177 2.983-.411 4.467-.649.307-.089.573-.242.802-.455-.088.225-.145.467-.149.721-.105 4.52-.117 9.052-.012 13.571.093 4.475.25 8.954.359 13.434.137 5.467.27 10.934.427 16.406.029 1.068.871 1.959 1.96 1.959 1.044 0 1.995-.891 1.963-1.959-.266-9.689-.467-19.373-.516-29.069-.012-2.359 0-4.717.016-7.068.016-2.423.077-4.85-.052-7.269-.028-.561-.202-1.065-.609-1.468-.387-.387-.919-.609-1.468-.609-.556 0-1.052.226-1.423.585.077-.21.117-.423.117-.649 0-1.028-.855-1.944-1.895-1.944h-.04c-1.262.029-2.508.069-3.762.19-.294.028-.584.077-.879.109.412-1.698.791-3.403 1.158-5.108.455-2.133.802-4.294 1.169-6.443.375-2.21.75-4.415 1.129-6.628.721-4.262 1.782-8.455 2.636-12.688.867-4.31 1.734-8.628 2.504-12.966.915-5.149 1.742-10.313 2.516-15.486 2.721.004 5.443.016 8.168.024 12.104.036 24.199.04 36.303.097 11.941.056 23.888.157 35.83.185 24.15.057 48.297.178 72.447.19 23.916.012 47.833.117 71.754.157 9.341.016 18.679.036 28.017.036 4.209 0 8.422-.012 12.627-.028 1.871-.004 3.745-.012 5.616-.024 1.722-.012 3.443-.077 5.169-.097 3.895-.052 7.789-.016 11.692-.077 3.665-.056 7.33-.056 10.998-.068 1.52-.004 3.036-.004 4.556-.004.932 0 1.867-.012 2.798-.024.67-.004 1.351-.041 2.024-.025 1.589.037 3.201 0 4.79-.052.532-.016 1.056-.016 1.588-.016.468 0 .984.024 1.456-.081h.226c-.016 1.25-.037 2.496-.045 3.742h.016c.303-.077.609-.117.92-.117.669 0 1.302.173 1.879.508 1.088.484 1.608 1.742 2.177 2.717.399.682.802 1.363 1.189 2.056.004.013.012.025.016.037.331.588.665 1.185.976 1.786-.016-.597-.04-1.189-.065-1.782-.024-.516-.04-1.036-.064-1.548.943 1.374 1.883 2.745 2.814 4.128 2.919 4.318 6.024 8.531 8.435 13.168.866 1.669 1.693 3.363 2.463 5.08.903 2.254 1.649 4.572 2.282 6.919.294 1.229.572 2.463.802 3.705.303 1.637.577 3.27.843 4.914.157.964.294 1.924.439 2.891.17 1.323.347 2.653.452 3.984.028.383.056.77.089 1.149-.013 3.995.028 7.987.036 11.982.012 8.543.04 17.078.044 25.621.004 17.248-.109 34.488-.097 51.736.013 10.362.041 20.719.041 31.085 0 .439.109.851.29 1.218.016.564.028 1.137.044 1.705-.975-.177-1.935-.274-2.906-.302z"/><path d="m575.246 206.382c-.475-.504-1.052-.948-1.612-1.351-.029-.024-.057-.04-.093-.064.133-.73-.306-1.532-.919-1.891-.262-.149-.549-.226-.843-.242.109-.468.077-.964-.189-1.415-.359-.613-1.041-.972-1.73-.972-.331 0-.665.089-.964.266-1.052.653-2.128 1.306-3.12 2.044-.178.065-.347.137-.52.226-.311.133-.565.294-.843.492-.464.318-.826.681-1.052 1.173-.508.468-.923 1-1.343 1.548-.48.625-.77 1.359-1.056 2.081-.536 1.346-.544 2.862-.323 4.269.121.746.279 1.44.573 2.145.347.831.75 1.56 1.306 2.278.919 1.185 2.121 2.145 3.423 2.883 1.443.822 3.109 1.31 4.774 1.254.729-.029 1.475-.186 2.157-.436.883-.33 1.596-.83 2.318-1.427.629-.52 1.129-1.242 1.576-1.915.464-.677.774-1.468 1.016-2.242.218-.689.266-1.463.283-2.177.024-.822-.15-1.677-.371-2.463-.424-1.565-1.359-2.903-2.448-4.064zm-1.786 7.269c-.056.266-.129.52-.213.774-.174.351-.371.69-.597 1.012-.214.25-.44.48-.69.698-.177.117-.35.217-.536.318-.213.069-.427.129-.649.174-.31.024-.625.024-.935.004-.436-.097-.855-.226-1.27-.383-.641-.303-1.23-.654-1.803-1.065-.383-.322-.733-.665-1.056-1.036-.254-.383-.48-.77-.681-1.177-.186-.516-.307-1.04-.399-1.577-.029-.362-.037-.721-.016-1.092.068-.383.173-.75.302-1.121.149-.318.322-.613.516-.907.56.064 1.093-.069 1.609-.335.04-.024.088-.044.129-.068.024-.004.04-.012.064-.016.174-.004.347 0 .52.012.178.04.347.104.52.149-.641 1.613-1.266 3.229-1.878 4.854-.186.484-.045 1.121.201 1.556.262.452.698.786 1.202.924.52.145 1.088.068 1.556-.202.484-.282.734-.693.923-1.202.516-1.358 1.004-2.721 1.508-4.088.302.27.597.537.863.843.201.294.387.601.544.923.121.347.214.694.282 1.052.013.323.013.646-.016.976z"/><path d="m897.458 180.424h-.041c-1.548.088-3.104.108-4.652.149-1.956.052-3.907.076-5.854.129-4.133.109-8.27.217-12.407.342-8.966.267-17.925.521-26.888.791-8.861.266-17.719.504-26.581.758-9.37.27-18.731.556-28.098.79-9.172.238-18.344.52-27.517.786-9.224.266-18.449.524-27.67.802-9.382.279-18.76.589-28.15.883-9.49.295-18.977.601-28.46.895-26.017.827-52.029 1.601-78.051 2.387-.588.016-1.076.48-1.076 1.077 0 .572.492 1.092 1.076 1.076 18.853-.572 37.709-1.173 56.562-1.721 18.861-.545 37.726-1.089 56.59-1.641 9.358-.278 18.716-.536 28.077-.831 9.189-.294 18.373-.588 27.565-.871 4.677-.145 9.354-.294 14.023-.439 4.496-.145 8.995-.311 13.49-.464 9.394-.31 18.784-.588 28.178-.895 12.273-.391 24.541-.79 36.819-1.173 5.842-.177 11.692-.359 17.538-.556 2.677-.093 5.358-.17 8.035-.283 1.476-.064 2.947-.117 4.427-.169 1.012-.036 2.024-.077 3.036-.081.476 0 .867-.391.867-.866-.008-.444-.383-.875-.839-.875z"/><path d="m417 .0241906.004.0241907-.004-.0483813z"/><path d="m327.556 383.487c-6.032-18.39-10.813-37.156-16.718-55.584-4.537-14.164-8.712-30.669-21.809-39.082-15.921-10.228-35.62-17.168-53.466-23.135h-.003c-6-1.639-11.887-3.675-17.617-6.096-.539-.487-1.18-.844-1.876-1.047-5.751-3.66-9.664-9.612-10.745-16.343-.505-2.208-.884-4.442-1.133-6.691 8.49 8.41 22.678.989 30.81-4.297 9.658-6.278 25.082.724 29.9-14.078.261-1.054-.204-2.153-1.143-2.702-.94-.545-2.126-.406-2.911.342-6.352 7.335-13.268 8.084-22.558 6.553-1.072-.293-2.218.012-3.01.791-6.823 8.617-18.979 13.94-29.468 8.811v.003c-.638-.339-1.398-.345-2.042-.022-.459-7.017-.259-14.278-.385-21.024 18.994-15.495 24.259-41.814 24.215-68.427 7.461-2.209 13.733-13.173 13.631-20.221v.003c-.046-4.143-1.805-8.08-4.861-10.877-3.055-2.797-7.137-4.202-11.268-3.879-.289-2.304-.585-4.58-.896-6.7982-.592-4.2511-8.019-3.2962-7.56 1.0232.382 3.61.807 7.371 1.229 11.231-.348.068-.69.129-1.016.182-2.268.36-4.781.551-7.079 1.149-.053-.524-.105-1.054-.154-1.568-.576-5.983-.906-10.477-6.907-12.9848v.0031c-8.262-2.794-17.109-3.3762-25.666-1.6912-.681.0586-1.3.4159-1.695.9735-.397.5575-.526 1.263-.354 1.9253-6.851-3.444-9.097 5.3601-9.719 14.2501h-.003c-3.527-1.623-7.664-1.177-10.763 1.167l-.074-.745c-.573-5.982-.905-10.477-6.906-12.984-8.262-2.7944-17.109-3.3765-25.667-1.6884-.681.0585-1.3.4154-1.694.9734-.397.558-.527 1.26-.357 1.922-7.736-3.8904-9.602 7.846-9.889 17.679h.003c-.607-.145-1.223-.243-1.845-.286-.077-3.792-.2-7.498-.443-11.053l.003-.003c-.043-1.248-1.069-2.237-2.317-2.237-1.247 0-2.273.989-2.316 2.237-.01 2.116-.05 4.297-.105 6.506-9.7347-1.913-15.7722 9.333-15.5593 17.888.191 7.698 6.4136 20.066 15.0423 18.615.588 17.285 3.327 34.298 12.407 47.667l.004.004c2.735 4.032 6.016 7.664 9.746 10.796-.268 8.709-.447 17.421-1.257 26.102-.015.147-.04.277-.055.422h.003c-.518-.583-1.239-.946-2.015-1.017-6.078-.687-12.141.616-18.255-.225-1.549-.212-17.2259-4.072-16.1353-6.743.995-2.437-2.7816-3.755-4.0878-1.725l-.0031-.003c-.536.807-.7978 1.762-.7454 2.729-.382-.308-.8564-.484-1.3462-.493-8.3387-.145-16.7397 3.213-20.6607-7.384h-.003c-.4405-1.478-1.9685-2.347-3.4656-1.968-11.3456 3.277-25.7006-6.796-17.1829-18.868.915-1.297-.5421-2.856-1.839-2.72.1633-.401.1941-.844.0862-1.263-2.9388-10.542-3.2653-17.969 4.3867-26.49 1.1089-1.235 7.3285-5.193 8.0398-6.989 2.258-5.708-1.0597-5.841-2.0423-10.705-3.6196-17.934-.5607-12.411 7.2637-24.437.6315-.97 2.5753-2.668 2.9819-4.159.9519-3.493-.5791-7.205-.4621-10.717l-.003-.003c.2341-12.584 6.8263-24.1975 17.5157-30.8415.6037-.3974.8718-1.149.6561-1.836-.2187-.69-.8656-1.152-1.5895-1.1305.7948.0431 1.5587-.2896 2.067-.9026.5052-.613.69-1.4293.499-2.1995-2.0423-10.8031-.7516-21.5384 7.0482-29.9362 5.5387-5.9638 32.6596-20.3161 37.4686-6.5183.301.9734 1.263 1.5864 2.273 1.4478 1.01-.1356 1.771-.9827 1.805-1.9993-.388-18.9297-29.0615-8.6005-38.0437-3.179-13.4891 8.1416-21.0463 26.4861-15.4393 41.5342l.0031-.003c.3173 1.0073 1.2322 1.7097 2.2887 1.7589-.2248.0309-.4435.1048-.6407.2157-11.1146 5.7389-18.8989 16.3541-21.0305 28.6793-1.2107 7.532.7393 9.833-4.3158 16.881-1.0073 1.404-3.0528 2.058-4.0324 3.595h-.0031c-3.0035 3.89-4.8795 8.529-5.4247 13.415-.3235 5.391 3.0404 8.888 3.5456 13.588.7547 7.033-6.4597 8.971-9.9687 15.1v-.003c-2.6554 4.257-3.9461 9.22-3.7028 14.232.2465 5.009 2.0147 9.827 5.0736 13.801.4652.604 1.2507.856 1.9807.644-10.3323 14.348 4.6023 28.307 19.7183 25.953 1.1337 3.758 3.6874 6.928 7.119 8.834 5.4309 2.532 13.1287.601 18.6679-.714v-.003c.7947-.164 1.4232-.777 1.608-1.565 2.5691 3.225 5.9176 5.745 9.7251 7.319 9.2537 4.146 19.7217 4.682 29.3477 1.5.234-.102.453-.231.656-.382-2.954 15.066-12.87 18.763-27.16 23.396-18.865 6.118-39.7323 13.376-56.5146 24.155-12.4418 7.994-16.444 22.817-20.898 36.291-6.4629 19.552-11.41665 39.572-17.866648 59.13-1.127469 3.413 3.095898 5.221 5.397048 3.502 23.4429 7.535 48.8383 9.186 73.1739 11.781h.0031c27.8632 2.67 55.8552 3.804 83.8442 3.397 54.503.222 108.907-4.657 162.5-14.571.163-.018.327-.049.487-.089.471-.093.949-.166 1.42-.259 2.197-.434 2.169-3.598.548-4.516zm-92.795-258.213c-1.698 3.407-4.215 6.334-7.326 8.527-.283-7.665-.936-15.261-1.765-22.553 6.552 1.571 12.427 6.327 9.09 14.025zm-60.791-21.939c.468.117.964.037 1.371-.222.41-.258.69-.674.783-1.149.674.614 1.589.891 2.492.755 4.503-.721 9.075-.909 13.621-.56 7.754.751 10.452 2.871 12.036 11.016 1.623 8.351 3.281 21.733-6.303 25.398h.003c-4.183 1.177-8.558 1.534-12.876 1.051-8.009-.398-11.207-2.32-12.883-10.748-.465-2.338-2.412-26.671 1.753-25.541zm-55.181 2.899c.468.117.964.037 1.371-.222.41-.259.693-.674.782-1.149.675.613 1.593.891 2.496.755 4.5-.724 9.075-.912 13.621-.561 7.754.752 10.452 2.871 12.036 11.016 1.626 8.352 3.281 21.734-6.3 25.399-4.186 1.177-8.56 1.534-12.879 1.05-8.009-.397-11.207-2.319-12.883-10.748-.465-2.338-2.412-26.67 1.756-25.543zm-17.072 37.646c-3.6315-.85-6.5025-3.619-7.4882-7.217-2.4614-5.782-.2773-17.692 8.5602-16.364-.231 7.606-.551 15.603-.548 23.659zm15.209 46.202c-9.054-18.156-8.558-42.068-8.755-63.748.585-.049 1.167-.145 1.74-.283.052 2.627.176 4.725.234 5.72.364 6.189.783 12.994 7.212 15.717 8.052 2.662 16.709 2.908 24.899.705 13.36-3.416 13.696-16.043 12.741-27.632 2.747-.908 6.721-3.037 9.185-.757h-.003c.256.231.558.406.887.511-.012 3.931.182 7.227.259 8.56.364 6.189.783 12.994 7.212 15.717 8.052 2.662 16.709 2.908 24.899.706 13.101-3.349 13.678-15.557 12.797-26.955h-.003c2.538-.028 5.061-.342 7.525-.936l.684-.136c3.869 37.446 5.413 82.291-35.878 97.14-24.727 8.894-53.511-.012-65.636-24.326zm8.428 67.906c6.161-10.561 5.015-29.856 3.99-43.771 14.243 8.841 31.427 11.622 47.728 7.726 7.686-1.522 15.021-4.461 21.629-8.669-1.029 14.113-2.271 33.489 3.915 44.717v-.003c1.127 1.968 2.631 3.696 4.427 5.079-30.001 20.43-61.395 17.707-93.892 4.39v.003c4.981-1.765 9.26-5.086 12.205-9.473zm-117.96715 126.074c6.00695-19.993 11.52385-40.17 18.83745-59.731 5.6065-14.996 9.8788-24.77 24.7732-32.914v-.003c12.0357-6.349 24.5146-11.814 37.3444-16.351 4.9319-1.824 11.6446-3.201 18.1221-5.2 31.021 26.203 77.022 20.091 108.11-2.446 8.329 3.564 18.553 5.246 25.051 7.646 11.74 4.377 23.242 9.358 34.464 14.928 16.018 7.889 21.64 18.27 27.653 34.341 7.295 19.497 12.797 39.61 18.782 59.534-51.512 5.726-102.669 10.541-154.567 11.139-52.917.61-106.6744-.01-158.56462-10.942z"/><path d="m164.18 185.019c6.291-1.161 11.635-5.289 14.349-11.084.795-2.144-2.042-3.185-3.469-2.017-3.832 3.135-6.518 6.197-11.591 7.313-5.484 1.17-11.204-.044-15.738-3.343-2.055-1.485-4.732 1.938-2.733 3.543 5.163 4.765 12.267 6.835 19.182 5.588z"/><path d="m163.613 162.315c.613.148 1.25-.123 1.568-.668.317-.545.24-1.235-.194-1.694-2.489-2.532-5.518-4.47-8.86-5.668.638-3.728 3.472-7.927 4.356-11.494.912-3.872 1.168-7.873.755-11.832-.028-.761-.653-1.361-1.414-1.361-.758 0-1.383.6-1.411 1.361-.299 5.185-1.519 10.277-3.604 15.036-1.177 2.359-1.99 4.885-2.409 7.488-.589 5.407 6.672 8.035 11.213 8.832z"/><path d="m135.317 124.383c.102-1.01.133-2.03.09-3.049-.127-.992-.071-1.996.16-2.97.283-1.183-.422-2.378-1.593-2.702-1.173-.323-2.393.342-2.754 1.504-.499 1.444-.717 2.969-.653 4.497.16 1.488.866 2.868 1.978 3.869.468.447 1.158.576 1.759.327.598-.247.995-.826 1.013-1.476z"/><path d="m192.081 122.144c1.602-1.784.977-4.359.869-6.586-.046-1.245-1.069-2.231-2.313-2.231-1.248 0-2.271.986-2.317 2.231-.105 2.233-.736 4.793.869 6.586.801.791 2.091.791 2.892 0z"/><path d="m129.048 69.8514c.311 4.6331-1.361 9.1802-4.605 12.5034-2.708 2.64-6.201 2.8217-9.038 4.9565-3.145 2.3658-4.843 5.7728-8.481 7.8398-4.254 1.95-8.8378 3.0805-13.5111 3.327-2.8772.4497-2.6739 5.0089 0 5.6159 5.0951.933 10.3571.151 14.9591-2.224 5.474-2.5663 8.817-7.5012 13.896-10.234 8.324-4.476 13.739-12.6421 10.963-22.3522v.0031c-.308-1.0012-1.294-1.6327-2.332-1.491-1.038.1386-1.82 1.0104-1.851 2.0547z"/><path d="m214.904 80.0481c-9.121 2.8433-21.111 7.8059-26.81-3.8845h-.003c-.866-1.4695-2.754-1.9623-4.229-1.109-13.856 9.5745-28.479 5.2214-37.73-8.1266-.666-1.035-2.027-1.3646-3.087-.7424-1.063.6192-1.448 1.9654-.872 3.0528 7.378 17.2168 26.847 21.5171 42.098 12.8456 7.941 13.2864 17.886 9.0902 32.149 3.4717 3.339-1.3123 2.07-6.6261-1.516-5.508z"/><path d="m291.603 171.968c-2.578-8.601-9.066-15.483-17.503-18.56 3.703-4.131 5.274-9.749 4.251-15.202-.795-4.482-3.022-8.582-6.346-11.693 9.039-10.175 2.12-25.861-8.524-32.028v.0031c.204-.1817.382-.3943.521-.6284 2.39-3.903 3.201-8.5698 2.267-13.0522-.933-4.479-3.545-8.4341-7.294-11.0562-5.391-4.0971-4.375-2.2427-6.965-8.062-1.587-4.1371-4.251-7.7721-7.714-10.5318-4.103-2.908-9.389-2.184-13.11-4.5529-3.152-2.0085-5.092-7.5595-8.256-10.2306-3.648-3.1266-8.096-5.1752-12.843-5.9114-4.747-.7394-9.608-.1418-14.035 1.7281-16.594-21.4863-51.545-17.4913-66.085 4.6977-1.27 1.9376 1.783 4.3774 3.259 2.5137 7.396-8.7054 17.903-14.1673 29.277-15.2146 14.441-1.7712 20.581 6.124 31.686 12.5531h-.003c.949.4959 2.116.271 2.812-.5391 7.778-2.1995 16.139-.3512 22.263 4.9226 3.385 3.1174 3.604 6.9496 6.385 9.9285 7.464 8.0028 21.875.9827 21.477 18.5228h.003c.013 1.3185.888 2.4705 2.154 2.8309 9.94 5.5757 13.005 11.949 9.201 19.1269-.102.2957-.148.6037-.139.918-1.993-.1047-3.237 2.871-1.195 3.8722 4.858 2.1132 8.856 5.8126 11.336 10.4926 2.693 5.662 1.421 10.803.481 16.48-.702-.745-1.402-1.509-2.089-2.316-1.29-1.519-3.373-.139-3.542 1.466-.576 5.443 5.397 7.615 7.729 11.89 3.549 6.503.385 11.49-1.781 17.547-.166.443-.163.933.01 1.374-.592.505-.903 1.269-.832 2.042.068.776.505 1.473 1.177 1.867 5.988 3.721 11.49 7.532 13.621 14.709 2.243 7.544-2.289 10.36-3.952 16.774-.277 1.121.176 2.291 1.134 2.932.03.441.064.881.067 1.368v.003c.059 3.028-.674 6.022-2.128 8.681-3.176 5.684-8.61 6.913-14.654 7.079l.003.003c-1.152.031-2.147.813-2.449 1.925-.299 1.113.163 2.289 1.143 2.896 6.989 3.604 15.476-.271 19.937-6.149v.004c3.357-4.862 4.904-10.752 4.361-16.635 5.302-3.534 6.352-13.132 4.883-18.788z"/><path d="m215.172 279.242c-16.481 9.663-31.061 18.169-50.893 18.791-18.594.585-45.259-4.236-60.23-16.126v.003c-.995-.934-2.55-.909-3.515.055-.9669.964-.9916 2.52-.058 3.515 12.377 15.827 42.221 19.626 61.086 19.78 20.109.163 42.927-6.808 56.78-21.909.884-.939.954-2.384.166-3.407-.789-1.022-2.203-1.318-3.336-.702z"/></g></svg>