<svg fill="none" height="358" viewBox="0 0 868 358" width="868" xmlns="http://www.w3.org/2000/svg"><g fill="#000"><path d="m175.253 269.909c-.193-.057-.389-.095-.583-.121-.666-.086-1.333-.17-1.997-.248-3.393-1.31-6.6-1.362-9.595-.675-1.977-.049-3.959-.055-5.936.003-2.283.066-4.083 1.968-4.02 4.253.003.211.026.419.064.618-1.611 1.146-3.117 2.349-4.517 3.471l-1.365 1.088c-1.463 1.158-1.977 3.158-1.241 4.878 3.686 8.608 10.455 13.312 19.361 13.583.866.078 1.714.113 2.548.113 7.93 0 14.588-3.339 19.808-9.942.84-1.068 1.108-2.482.707-3.777-2.092-6.808-6.669-11.388-13.234-13.244zm-9.35 18.594c-4.868-.15-8.36-2.02-10.798-5.83 3.388-2.66 6.248-4.654 8.969-5.494 1.449.057 2.892.141 4.335.257 0 .346.02.698.066 1.056.156 1.27.889 2.398 1.991 3.053 1.902 1.134 4.035 1.42 6.153.785.687-.199 1.298-.56 1.801-1.022.522.65.975 1.386 1.365 2.205-3.72 3.835-8.234 5.489-13.881 4.99z"/><path d="m49.0049 194.179c-2.2249-.471-4.4383.923-4.9261 3.151-4.4874 20.42-7.5495 41.342-9.0905 62.068-3.0359 28.72-14.4378 53.968-33.89109 75.052-1.552602 1.677-1.442893 4.294.23663 5.847.79359.733 1.80364 1.096 2.80504 1.096 1.1168 0 2.22494-.447 3.04165-1.333 20.68557-22.414 32.81467-49.255 36.04977-79.913 1.5237-20.466 4.5249-40.998 8.9287-61.035.4906-2.242-.9234-4.447-3.1541-4.934z"/><path d="m234.402 276.008c10.173-.153 18.536.745 29.006 3.111.306.069.612.098.918.098 1.89 0 3.595-1.304 4.034-3.226.499-2.231-.898-4.444-3.123-4.949-11.154-2.52-20.105-3.466-30.958-3.313-2.283.037-4.11 1.916-4.072 4.204.031 2.283 1.933 3.948 4.196 4.075z"/><path d="m165.819 107.971c.41 0 .823-.064 1.232-.191.924-.288 1.677-.868 2.182-1.613.194-.133.381-.285.554-.456 1.238-1.212 2.756-2.588 4.418-4.103 9.305-8.4645 22.051-20.0565 21.099-32.3245-.335-4.3114-2.444-7.7889-5.945-9.7828-5.359-3.0561-12.668-2.0115-17.54.3751-20.855 10.2158-12.648 36.5403-9.944 45.1862.548 1.772 2.184 2.909 3.945 2.909zm9.642-40.6613c1.896-.9321 4.129-1.4112 6.109-1.4112 1.449 0 2.756.2569 3.694.7907.753.43 1.639 1.1861 1.795 3.2437.638 8.2276-10.827 18.6598-18.418 25.5599-.227.2078-.447.4098-.669.6089-3.656-15.3065-1.221-24.5264 7.489-28.792z"/><path d="m174.381 80.1269c.202 0 .404-.0116.609-.0462 5.532-.8196 7.264-4.0084 7.74-6.5364.413-2.173-1.004-4.0834-3.157-4.5913-2.023-.4704-4.129.8022-4.868 2.7473-.173.0549-.465.127-.932.1992-2.263.3347-3.824 2.4414-3.489 4.701.317 2.0489 2.084 3.5264 4.098 3.5264z"/><path d="m208.779 111.178c3.777 2.222 7.537 4.048 11.323 5.82 1.538.716 4.499 1.452 4.499 2.211v.003c0 2.253 1.308 4.386 3.561 4.753 1.631.265 3.371.383 5.048.383 6.328 0 12.729-1.668 17.156-3.145 6.043 2.805 12.233 5.448 18.444 7.91-.171 1.714.712 3.417 2.366 4.17.554.251 1.143.372 1.714.372 1.573 0 3.079-.903 3.772-2.424.485-1.068 1.601-3.024 2.889-5.295 5.696-10.037 10.039-18.38 9.578-24.137.398-.592.704-1.253.747-2.0148.401-6.6518-6.259-9.9586-11.61-12.6108-1.451-.7186-3.561-1.7661-4.911-2.6232 1.163-.9437 1.774-2.4818 1.451-4.0489-.456-2.2393-2.66-3.6823-4.885-3.2177l-2.451.5051c-.966.1991-1.737.8138-2.334 1.5756-.973.0404-1.83.4098-2.479 1.0043-2.54.7618-5.085 1.4977-7.63 2.2105-.996.2742-2.023.5743-3.065.886-1.982.5829-3.991 1.1716-5.953 1.6103-5.639-5.2176-11.009-10.1411-18.365-13.8549-.956-.4848-2.006-.5252-2.961-.2597-1.117-.2973-2.341-.1703-3.371.5309-1.89 1.2814-2.384 3.8555-1.099 5.7457.28.4184.871 1.2871-1.126 3.7371-.369.4502-.638.9725-.785 1.5295-1.8 6.6345-4.175 13.1479-7.015 19.419-1.183.17-2.289.79-2.955 1.89l-.996 1.653c-.571.947-.742 2.081-.467 3.152.268 1.082.955 1.997 1.91 2.559zm65.814-16.5851c1.564.7734 5.171 2.5771 6.496 3.867-.699 1.1804-.843 2.6261-.125 3.9331.676 3.053-5.895 14.674-8.501 19.272-4.782-1.89-9.529-3.91-14.233-6.014-.07-.116-.116-.246-.194-.352 1.287-5.143 3.613-9.532 6.248-14.502l.895-1.6878c.256-.4791.574-1.0505.926-1.6795 1.143-2.0432 2.182-3.9969 3.007-5.8669 1.792 1.1976 3.775 2.1845 5.48 3.0301zm-20.282-3.1917c.993-.2944 1.974-.5829 2.932-.8484 1.247-.3463 2.482-.6984 3.691-1.0505-.779 1.5757-1.625 3.1023-2.063 3.893-.393.6984-.745 1.3275-1.022 1.8613l-.88 1.668c-2.655 5.0014-5.134 9.8344-6.681 15.5464-.156.063-.303.121-.464.181-.531.078-1.013.249-1.472.517-3.962 1.371-8.473 2.487-12.709 2.805.314-.603.623-1.212.938-1.815 2.51-4.796 5.108-9.748 7.174-14.9485.346-.8715.649-1.9479.955-3.0792.191-.6897.479-1.7257.782-2.5597 3.053-.505 6.06-1.3534 8.82-2.1701zm-28.249-5.9188c1.137-1.5266 1.844-2.9666 2.262-4.3056 3.1 2.0345 5.905 4.3778 8.759 6.9461-.266.5512-.448 1.1428-.442 1.795 0 .7849.28 1.4775.661 2.1009-.202.6609-.398 1.3246-.566 1.945-.219.8081-.421 1.5757-.666 2.2019-1.902 4.7963-4.398 9.5583-6.811 14.1583-.251.476-.493.955-.742 1.434-1.595-.779-3.185-1.524-4.752-2.254-1.928-.903-3.752-1.804-5.585-2.713 3.195-6.8709 5.859-14.0194 7.882-21.3088z"/><path d="m137.488 201.573c.562.646 1.24 1.172 2.089 1.374 1.394.332 4.153.773 7.162.773 3.022 0 6.297-.441 8.69-1.879 1.307-.782 2.078-2.225 2.003-3.742-.2-4.101 1.953-9.535 5.477-13.844.86-1.056 1.151-2.464.77-3.777-.381-1.307-1.382-2.346-2.678-2.773l-.545-.182c-5.495-1.821-10.943-3.293-15.422-3.232 3.036-5.198 7.974-11.056 12.291-15.315.075.193.136.393.245.574.716 1.233 2.015 2.006 3.443 2.055.28.009.56.012.84.012 8.703 0 14.914-4.618 15.569-11.671.372-4.066-1.143-6.706-2.479-8.199-1.518-1.708-3.532-2.776-5.671-3.451-.026-.098-.055-.199-.086-.297-.43-1.443-1.605-2.537-3.071-2.863-1.472-.318-2.995.173-3.991 1.299l-.384.435c-1.004-.545-2.196-.675-3.301-.288-15.913 5.46-34.532 14.657-37.285 37.486-1.077 8.92.753 16.317 5.284 21.393 2.79 3.145 6.577 5.177 11.05 6.112zm31.62-53.633c.075.288.112.69.063 1.252-.086.906-.45 1.619-.993 2.173.349-1.096.673-2.251.93-3.425zm-19.641 39.227c.753-1.091.935-2.482.493-3.728-.04-.116-.092-.237-.144-.347.964.211 2.069.488 3.333.84-1.902 3.359-3.446 7.327-3.884 11.356-.814.115-1.801.15-2.823.141-.438-.525-.946-.972-1.572-1.229.932-1.931 2.519-4.153 3.416-5.388.436-.589.837-1.143 1.181-1.645zm-20.109-12.112c1.991-16.495 14.628-24.218 27.782-29.216.435.28.926.488 1.463.594.343.067.669.012 1.001-.003-5.8 3.371-26.526 23.281-25.684 36.535.19 2.995 1.495 5.477 3.636 7.33-.384.782-.727 1.575-1.001 2.395-1.547-.661-2.901-1.547-3.96-2.736-2.857-3.209-4.008-8.501-3.238-14.899z"/><path d="m194.107 198.072c2.998 6.103 8.302 10.141 14.94 11.384 1.449.266 2.949.401 4.493.401 6.658 0 14.034-2.464 20.504-6.972 7.174-4.992 11.964-11.786 13.139-18.634.306-1.783.286-3.457.086-5.073.304-.22.624-.436.904-.655 1.431-1.126 1.962-3.056 1.296-4.753-.661-1.697-2.309-2.756-4.176-2.624l-1.585.125c-2.698-3.083-6.519-5.212-10.789-6.667-.448-1.333-1.567-2.404-3.042-2.721-4.314-.938-11.757-2.565-19.052-1.166-.496-.049-1.29.144-1.85.421-5.523 1.472-10.793 4.883-14.362 11.867-3.971 7.777-4.17 17.618-.505 25.066zm7.872-21.298c2.202-4.314 5.255-6.677 9.131-7.708.741.092 1.535.179 2.375.277 6.975.791 18.192 2.11 23.164 6.548-5.665 2.883-12.796 5.65-17.607 7.359l-3.261-6.71c-.995-2.052-3.471-2.912-5.532-1.91-2.052 1.001-2.909 3.474-1.91 5.526l4.859 9.999c.708 1.458 2.174 2.326 3.72 2.326.427 0 .857-.066 1.282-.202.623-.207 11.343-3.731 20.523-8.193-1.165 4.283-4.513 8.595-9.41 12.005-6.103 4.237-13.272 6.243-18.749 5.221-5.14-.955-7.748-4.277-9.035-6.897-2.511-5.108-2.335-12.199.45-17.641z"/><path d="m353.245 99.4311c-2.424-3.541-6.796-5.1599-12.998-4.8107-8.473.4791-16.392 2.7675-24.025 6.5076 4.355-13.0379 7.674-26.3335 11.809-37.6973v-.0028-.0029c0-.0173-.485-.0289-.479-.0462 1.46-5.7745.095-11.3556-3.561-16.5905-13.996-20.0244-68.146-35.3568-160.749-45.60725-.191-.16449-.398-.369381-.624-.499242-.744-.435756-2.68-1.232265-5.084-.103884-1.371-.144289-2.73-.294355-4.113-.438644-2.282-.27415-4.314 1.4112-4.551 3.6852-.173 1.668.676 3.18883 2.032 3.9853-15.021 22.66842-42.046 90.82432-41.677 104.17422.02.712.266 1.339.595 1.916-.078.095-.156.19-.237.28-.67.814-1.203 1.469-1.564 1.881-5.431 6.176-13.1363 14.305-21.2886 22.917-13.7596 14.521-29.3513 30.983-38.006 42.298-1.3852 1.812-1.0388 4.409.7734 5.794 1.8123 1.391 4.4096 1.042 5.8006-.773 8.3865-10.966 23.8223-27.259 37.4408-41.631 8.2068-8.664 15.9608-16.851 21.4938-23.139.404-.458 1.004-1.186 1.749-2.097 11.514-14.034 15.373-15.431 16.27-15.46 1.125 1.03 3.546 7.356-12.585 45.628-.808 1.916-1.429 3.394-1.772 4.291-.745 1.928-1.498 3.853-2.254 5.775-5.316 13.549-10.819 27.565-11.537 42.906-.269 5.751-.269 14.749-.133 25.274-.343.456-.609.975-.742 1.573-.28 1.249.084 2.461.814 3.399.15 9.31.375 19.523.6 29.597.361 16.077.705 31.484.716 42.467-.003.02-.02.038-.026.058-.127.6-.104 1.192.02 1.755-.008 2.96-.04 5.82-.112 7.95-.072 2.283 1.717 4.516 4.002 4.516h.142c2.222 0 4.057-2.005 4.132-4.245.038-1.125.064-2.516.084-3.867 19.552 4.058 36.783 6.566 54.908 9.252 7.327 1.088 14.836 2.182 22.593 3.408-4.455 3.948-11.001 7.099-16.183 9.587l-2.499 1.195c-9.033 4.424-18.784 7.968-28.212 11.399-3.72 1.354-7.434 2.701-11.117 4.11-2.135.813-3.206 3.206-2.392 5.341.629 1.648 2.202 2.661 3.864 2.661.494 0 .99-.087 1.472-.268 3.642-1.391 7.318-2.727 10.998-4.064 9.63-3.509 19.594-7.133 29.017-11.745l2.441-1.174c7.353-3.529 17.096-8.234 22.299-15.477 2.594.439 5.183.872 7.852 1.345 1.288.231 2.652.543 4.058.86 3.457.782 7.373 1.668 11.269 1.668 3.371 0 6.623-.661 9.665-2.635 8.288-5.367 15.797-13.193 15.797-23.268v-.003c4.138-10.512 7.711-26.096 13.378-42.404 9.465 2.817 17.566 4.295 24.004 4.295 5.388 0 9.72-.985 12.92-2.961 3.532-2.182 5.783-5.59 6.47-9.847.779-4.807-.436-9.358-3.504-13.156-6.204-7.682-18.844-11.05-28.156-11.677.505-1.477.995-2.926 1.472-4.343.274.058.533.153.819.153.136 0 .277-.009.419-.02l1.538-.136c43.091-3.67 50.427-9.834 51.921-15.381.696-2.577.297-6.507-5.518-10.579-10.209-7.145-27.051-12.349-39.388-7.538 1.371-4.888 2.773-11.145 4.196-15.283h.017c.303 0 .609.611.918.542.398-.086 1.091.093 2.032-.098 31.106-6.323 45.148-12.224 46.955-20.114.56-2.442.246-6.014-4.427-9.564-6.628-5.038-14.919-6.21-22.861-5.696 11.745-6.069 23.043-13.027 33.655-20.914 2.632-1.954 5.134-3.942 6.888-6.915 2.358-4.014 2.387-8.778.07-12.1694zm-36.283-47.9019c1.298 1.8585 2.011 3.7199 2.271 5.6101-39.082-10.0458-75.547-15.3147-114.029-20.8266-17.702-2.5367-36.012-5.1599-54.758-8.3023-.624-.1039-1.221-.0376-1.787.1212 4.514-9.1046 8.519-16.0971 11.174-18.97754 113.785 12.38914 148.352 29.81084 157.129 42.37504zm-204.588 151.4258c.658-13.976 5.668-26.746 10.975-40.272.762-1.939 1.526-3.881 2.271-5.829.326-.843.915-2.243 1.677-4.046 12.749-30.258 19.066-51.425 8.452-56.3403-5.105-2.3577-11.076 1.5064-17.001 7.3853 3.948-15.9705 16.487-47.6053 27.242-70.2442.523 1.2814 1.614 2.3087 3.082 2.5568 18.842 3.1658 37.201 5.7918 54.958 8.3371 38.52 5.5147 75 10.7816 113.963 20.8502-6.176 23.176-16.724 53.0241-24.198 72.3331-.842 2.176-1.668 4.401-2.479 6.66-.866.326-1.679.641-2.392.932-2.115.866-3.128 3.282-2.263 5.394.364.886 1.031 1.515 1.795 1.954-4.683 14.071-8.853 29.013-12.642 42.638l-2.424 8.689c-2.851 10.161-8.072 25.029-13.604 40.771-1.241 3.538-2.488 7.082-3.72 10.617-55.693-9.811-92.641-16.784-143.823-28.165-.127-10.121-.127-18.741.135-24.221zm116.667 116.6c-3.633 2.349-9.159 1.076-14.617-.162-1.538-.346-2.984-.684-4.386-.935-3.605-.64-7.102-1.246-10.565-1.815-.194-.032-.364-.087-.554-.092-10.178-1.68-19.814-3.111-29.208-4.502-18.509-2.742-36.075-5.362-56.086-9.578-.054-10.877-.372-25.268-.707-40.246-.202-8.99-.401-18.091-.551-26.544 49.94 11.075 86.569 18.587 140.957 28.185-5.035 14.635-9.731 26.331-11.953 38.742h-.216v-1.186c.003 7.996-5.619 13.927-12.112 18.132zm44.282-83.873c8.009.413 18.6 3.305 22.948 8.684 1.619 1.997 2.182 4.109 1.775 6.634-.306 1.919-1.123 3.189-2.635 4.121-4.695 2.912-15.494 2.107-29.767-2.101.649-1.852 1.298-3.708 1.948-5.552 1.451-4.138 2.883-8.207 4.256-12.158.459.196.95.344 1.475.372zm14.187-37.132c9.119-4.539 24.198-.713 32.939 5.411 1.232.86 1.812 1.481 2.069 1.824-1.25 1.238-8.271 5.974-43.775 9.047.996-3.131 1.879-6.031 2.612-8.646l2.196-7.881c1.174.71 2.64.892 3.959.245zm42.979-46.765c.975.745 1.304 1.319 1.373 1.21-.181.62-2.9 6.239-39.206 13.739 1.659-5.416 3.399-10.706 5.2-15.898 8.871-2.857 23.563-5.945 32.633.949zm15.557-44.38c-.963 1.639-2.692 2.998-4.695 4.481-11.748 8.73-24.37 16.299-37.524 22.709 2.92-7.738 6.138-16.611 9.324-25.866 1.258 1.085 3.082 1.371 4.629.545 7.044-3.731 14.977-5.945 22.93-6.395 2.976-.164 5.056.274 5.703 1.215.482.701.317 2.153-.367 3.31z"/><path d="m826.491 92.6011 32.405 32.7309-.054-.003 4.611 4.607c1.065 1.065 1.696 2.443 2.047 4.401v174.896c0 16.367-13.46 29.267-30.879 29.267h-166.503c-17.419 0-30.88-12.9-30.88-29.267v-4.368-2.5h-2.5-5.959c-17.86 0-31.279-12.935-31.279-28.867v-224.7451c0-16.8844 14.377-31.2529 31.279-31.2529h166.503c16.843 0 30.482 13.9141 30.482 31.2529l.003 42.0894v1.0282zm-31.428-13.8499-4.185-4.1821-.082 5.9161-.399 28.9858v.017.017c0 10.236 8.792 18.382 19.19 18.382h28.611 6.039l-4.272-4.268zm-157.822 5.7375v-.1906c.101-16.7748 13.631-30.2818 30.51-30.6641h117.2c2.029 0 3.694.8525 4.802 2.2385l.087.1086.099.0983 19.073 19.059 4.267 4.2638v-6.0323-24.618c0-10.3929-7.755-18.7808-17.998-18.7808h-166.502c-10.045 0-19.19 8.5862-19.19 18.7808l.002 224.7451c0 5.457 2.645 9.725 6.346 12.557 3.653 2.795 8.371 4.238 12.844 4.238h5.96 2.5v-2.5zm141.464-15.8816v-2.5h-2.5-108.485c-10.121 0-18.394 8.2634-18.394 18.3816l.003 225.1423c0 10.329 8.097 17.191 18.394 17.191h166.503c10.261 0 18.793-7.223 18.793-17.191l-.001-166.772v-2.5h-2.5-40.534c-17.357 0-31.279-13.631-31.279-30.457z" stroke="#fff" stroke-width="5"/><path d="m721 290c-18.291 0-33-14.71-33-33 0-18.291 14.71-33 33-33 18.291 0 33 14.71 33 33 0 18.291-14.71 33-33 33zm0-57.254c-13.517 0-24.253 11.133-24.253 24.253 0 13.121 11.133 24.253 24.253 24.253 13.517 0 24.253-11.132 24.253-24.253 0-13.118-10.733-24.253-24.253-24.253z"/><path d="m736.359 197c-1.193 0-2.386-.387-3.579-.776l-43.343-16.291c-3.181-1.163-5.567-3.88-6.363-7.37-.396-3.49.796-6.98 3.578-8.92l36.584-28.703c1.59-1.55 3.978-1.94 5.964-1.94 4.771 0 9.145 3.49 9.941 8.147l6.76 44.993c.397 2.716-.397 5.43-2.386 7.756-1.19 1.94-3.974 3.104-7.156 3.104zm-6.76-55.464c-.397 0-.397 0-.796.387l-36.584 28.703c-.397.387-.397.777-.397 1.164 0 .386.397.776.796.776l43.344 16.29c.396.387 1.192 0 1.589-.386.397-.387.397-.777.397-.777l-7.157-45.38c0-.777-.793-.777-1.192-.777z"/><path d="m781.81 250c-3.576 0-7.151-2.358-8.346-5.895l-13.909-36.555c-.796-2.358-.796-4.717.396-6.682 1.192-1.966 2.783-3.932 5.167-4.717l36.954-13.759c1.192-.392 1.987-.392 3.179-.392 3.576 0 7.151 2.358 8.346 5.895l13.91 36.555c1.588 4.717-.796 9.827-5.167 11.398l-36.954 13.76c-1.588.392-2.384.392-3.576.392zm23.444-59.355-37.353 13.364-.397.392 13.91 36.556c0 .392.396.392.396.392l36.954-13.759.397-.393z"/><g stroke="#fff"><path d="m489.054 240.823v.62l.555.276c3.621 1.801 6.373 1.801 8.954 1.801h.018c1.07 0 2.131.358 2.906.957.763.59 1.21 1.377 1.21 2.283 0 1.402-.504 2.129-1.151 2.558-.702.466-1.714.672-2.878.682-2.543-.459-5.123-.853-7.717-1.25-7.071-1.081-14.237-2.176-20.995-4.616-2.83-1.212-3.877-2.664-3.951-4.001-.08-1.419.883-3.26 3.37-5.321 5.156-4.273 10.376-9.45 13.872-15.534l.014-.025.012-.025c.415-.824.968-1.703 1.623-2.191.31-.231.603-.345.891-.359.282-.014.66.062 1.156.391 1.326.879 2.405 1.614 3.015 2.567.535.837.775 1.961.036 3.821-.438.877-.87 1.951-1.282 2.975l-.012.03c-.431 1.071-.842 2.088-1.245 2.891l-1.085 2.158 2.293-.76c10.441-3.46 23.464-12.944 29.571-25.09l.005-.011.005-.011c6.947-14.68 6.939-28.523 1.745-43.16l-.021-.059-.028-.055c-.157-.312-.354-.648-.528-.946-.078-.133-.151-.258-.215-.37-.232-.411-.388-.737-.46-1.023-.066-.262-.052-.45.025-.625.085-.193.297-.484.837-.842l.082-.054.07-.07c.301-.3.542-.395.728-.423.201-.032.447-.002.776.121.336.125.696.323 1.12.573.076.045.154.092.235.14.299.179.63.376.961.548.405.395.845.786 1.276 1.167l.051.046c.496.439.981.871 1.438 1.325.917.912 1.641 1.84 1.995 2.894h-.001l.005.013c6.714 19.193 4.207 36.662-7.546 53.356-4.159 5.789-9.986 10.761-16.648 14.082-2.099.839-4.187 2.067-6.375 3.354-.11.065-.22.13-.331.195-2.345 1.377-4.854 2.832-7.773 4.076l-.608.259v.661z" stroke-width="2"/><path d="m455.792 230.41c.336.169.767.385 1.228.441.259.254.519.492.761.714.12.11.236.216.345.318.38.355.692.671.925.999.228.321.375.645.427 1.013.053.371.016.822-.177 1.402-.363 1.093-1.066 1.627-1.994 1.906-.972.293-2.16.297-3.449.297-.748 0-1.304-.184-1.889-.477-.281-.141-.563-.304-.883-.49l-.068-.039c-.345-.2-.726-.418-1.163-.638l-.006-.003-.007-.003c-11.786-5.491-21.435-12.446-28.347-21.484-6.908-9.034-11.104-20.177-11.943-34.086l-.499.031-.278-.416c-2.249 1.505-3.238 3.036-4.512 5.006-.222.343-.452.699-.699 1.071-.773 1.164-1.714 1.719-2.738 1.906-1.028.187-2.181.011-3.387-.385-1.198-.813-2.151-1.794-2.62-2.829-.463-1.022-.465-2.11.278-3.229l.017-.026.014-.028c.399-.8 1.003-1.611 1.644-2.468l.016-.022c.61-.816 1.253-1.676 1.695-2.547 4.23-5.099 8.458-11.042 11.846-16.992.319-.532.61-1.037.882-1.51.028-.048.055-.096.082-.143.242-.421.468-.813.685-1.179.487-.818.915-1.471 1.356-1.963.436-.486.866-.793 1.349-.944s1.073-.162 1.856.034c1.653.415 3.03 1.021 3.994 1.989.949.952 1.545 2.302 1.545 4.314v.035l.005.035c.845 5.939 1.694 11.051 3.39 17.015.863 4.319 2.589 7.774 5.158 11.21l.021.029.025.025c.426.428.833.836 1.174 1.241.342.407.591.78.72 1.126.124.333.133.625.018.91-.121.298-.405.652-.991 1.045l-.041.027-.035.035c-.36.362-.69.515-.991.562-.309.048-.641-.006-1.015-.146-.377-.142-.766-.36-1.188-.611-.079-.048-.16-.097-.242-.146-.331-.199-.681-.41-1.029-.586-2.479-1.665-4.97-4.162-6.662-5.859l-.936-.938.083 1.322c.852 13.671 5.968 26.571 17.978 34.321 5.091 3.405 11.034 6.815 16.986 9.374l.094.041h.103c.281 0 .592.144 1.044.371z"/><path d="m502.349 135.517h.876l-.445-.754c-1.084-1.841-2.324-3.375-3.498-4.828-.221-.273-.439-.542-.653-.811-1.365-1.71-2.59-3.378-3.405-5.45l-.007-.019-.009-.019c-.434-.884-.811-1.662-.903-2.317-.043-.313-.015-.557.076-.751.089-.189.262-.384.605-.559.794-.404 1.529-.574 2.126-.487.563.082 1.061.399 1.416 1.12l.028.057.041.048c.808.94 1.614 1.862 2.411 2.774 5.062 5.791 9.804 11.215 12.684 18.546l.007.019.009.018c.383.779.586 1.783.689 2.834.1 1.02.103 2.045.103 2.894-.414 1.658-1.005 2.767-1.784 3.295-.737.501-1.79.569-3.392-.246l-.024-.012-.025-.01-.03-.012c-6.73-2.568-13.524-5.162-21.176-6.027l-.028-.003h-.028c-.298 0-.842-.168-1.46-.482-.601-.306-1.184-.706-1.556-1.085v-.001c-.401-.408-.846-.769-1.26-1.105-.047-.038-.093-.075-.139-.113-.462-.376-.878-.727-1.214-1.118-.332-.385-.576-.799-.698-1.296s-.129-1.111.067-1.907c.195-.796.471-1.224.76-1.468.287-.244.648-.359 1.124-.407.327-.034.659-.034 1.032-.034.2.001.412.001.641-.004.625-.014 1.317-.07 2.021-.308l.952-.323-.832-.565c-7.661-5.198-15.347-7.812-23.895-7.812h-.047l-.046.009-.071.013c-13.448 2.568-27.116 5.178-36.509 18.215l-.006.009-.006.01c-.753 1.149-1.635 1.472-2.483 1.386-.897-.091-1.849-.652-2.645-1.463-.862-.877-1.63-1.668-2.008-2.532-.182-.418-.267-.843-.224-1.295.044-.454.22-.967.606-1.557l.009-.015.009-.015c3.316-5.907 8.29-10.129 14.102-12.664v.001l.01-.005c18.413-8.52 35.957-8.521 54.366.841 4.209 2.571 8.436 5.153 13.509 7.735l.107.055z"/></g></g></svg>