<svg width="868" height="358" viewBox="0 0 868 358" fill="none" xmlns="http://www.w3.org/2000/svg">
<path d="M175.253 269.909C175.06 269.852 174.864 269.814 174.67 269.788C174.004 269.702 173.337 269.618 172.673 269.54C169.28 268.23 166.073 268.178 163.078 268.865C161.101 268.816 159.119 268.81 157.142 268.868C154.859 268.934 153.059 270.836 153.122 273.121C153.125 273.332 153.148 273.54 153.186 273.739C151.575 274.885 150.069 276.088 148.669 277.21L147.304 278.298C145.841 279.456 145.327 281.456 146.063 283.176C149.749 291.784 156.518 296.488 165.424 296.759C166.29 296.837 167.138 296.872 167.972 296.872C175.902 296.872 182.56 293.533 187.78 286.93C188.62 285.862 188.888 284.448 188.487 283.153C186.395 276.345 181.818 271.765 175.253 269.909L175.253 269.909ZM165.903 288.503C161.035 288.353 157.543 286.483 155.105 282.673C158.493 280.013 161.353 278.019 164.074 277.179C165.523 277.236 166.966 277.32 168.409 277.436C168.409 277.782 168.429 278.134 168.475 278.492C168.631 279.762 169.364 280.89 170.466 281.545C172.368 282.679 174.501 282.965 176.619 282.33C177.306 282.131 177.917 281.77 178.42 281.308C178.942 281.958 179.395 282.694 179.785 283.513C176.065 287.348 171.551 289.002 165.904 288.503L165.903 288.503Z" fill="black"/>
<path d="M49.0049 194.179C46.78 193.708 44.5666 195.102 44.0788 197.33C39.5914 217.75 36.5293 238.672 34.9883 259.398C31.9524 288.118 20.5505 313.366 1.09721 334.45C-0.455392 336.127 -0.345683 338.744 1.33384 340.297C2.12743 341.03 3.13748 341.393 4.13888 341.393C5.25568 341.393 6.36382 340.946 7.18053 340.06C27.8661 317.646 39.9952 290.805 43.2303 260.147C44.754 239.681 47.7552 219.149 52.159 199.112C52.6496 196.87 51.2356 194.665 49.0049 194.178L49.0049 194.179Z" fill="black"/>
<path d="M234.402 276.008C244.575 275.855 252.938 276.753 263.408 279.119C263.714 279.188 264.02 279.217 264.326 279.217C266.216 279.217 267.921 277.913 268.36 275.991C268.859 273.76 267.462 271.547 265.237 271.042C254.083 268.522 245.132 267.576 234.279 267.729C231.996 267.766 230.169 269.645 230.207 271.933C230.238 274.216 232.14 275.881 234.403 276.008L234.402 276.008Z" fill="black"/>
<path d="M165.819 107.971C166.229 107.971 166.642 107.907 167.051 107.78C167.975 107.492 168.728 106.912 169.233 106.167C169.427 106.034 169.614 105.882 169.787 105.711C171.025 104.499 172.543 103.123 174.205 101.608C183.51 93.1435 196.256 81.5515 195.304 69.2835C194.969 64.9721 192.86 61.4946 189.359 59.5007C184 56.4446 176.691 57.4892 171.819 59.8758C150.964 70.0916 159.171 96.4161 161.875 105.062C162.423 106.834 164.059 107.971 165.82 107.971L165.819 107.971ZM175.461 67.3097C177.357 66.3776 179.59 65.8985 181.57 65.8985C183.019 65.8985 184.326 66.1554 185.264 66.6892C186.017 67.1192 186.903 67.8753 187.059 69.9329C187.697 78.1605 176.232 88.5927 168.641 95.4928C168.414 95.7006 168.194 95.9026 167.972 96.1017C164.316 80.7952 166.751 71.5753 175.461 67.3097L175.461 67.3097Z" fill="black"/>
<path d="M174.381 80.1269C174.583 80.1269 174.785 80.1153 174.99 80.0807C180.522 79.2611 182.254 76.0723 182.73 73.5443C183.143 71.3713 181.726 69.4609 179.573 68.953C177.55 68.4826 175.444 69.7552 174.705 71.7003C174.532 71.7552 174.24 71.8273 173.773 71.8995C171.51 72.2342 169.949 74.3409 170.284 76.6005C170.601 78.6494 172.368 80.1269 174.382 80.1269L174.381 80.1269Z" fill="black"/>
<path d="M208.779 111.178C212.556 113.4 216.316 115.226 220.102 116.998C221.64 117.714 224.601 118.45 224.601 119.209V119.212C224.601 121.465 225.909 123.598 228.162 123.965C229.793 124.23 231.533 124.348 233.21 124.348C239.538 124.348 245.939 122.68 250.366 121.203C256.409 124.008 262.599 126.651 268.81 129.113C268.639 130.827 269.522 132.53 271.176 133.283C271.73 133.534 272.319 133.655 272.89 133.655C274.463 133.655 275.969 132.752 276.662 131.231C277.147 130.163 278.263 128.207 279.551 125.936C285.247 115.899 289.59 107.556 289.129 101.799C289.527 101.207 289.833 100.546 289.876 99.7842C290.277 93.1324 283.617 89.8256 278.266 87.1734C276.815 86.4548 274.705 85.4073 273.355 84.5502C274.518 83.6065 275.129 82.0684 274.806 80.5013C274.35 78.262 272.146 76.819 269.921 77.2836L267.47 77.7887C266.504 77.9878 265.733 78.6025 265.136 79.3643C264.163 79.4047 263.306 79.7741 262.657 80.3686C260.117 81.1304 257.572 81.8663 255.027 82.5791C254.031 82.8533 253.004 83.1534 251.962 83.4651C249.98 84.048 247.971 84.6367 246.009 85.0754C240.37 79.8578 235 74.9343 227.644 71.2205C226.688 70.7357 225.638 70.6953 224.683 70.9608C223.566 70.6635 222.342 70.7905 221.312 71.4917C219.422 72.7731 218.928 75.3472 220.213 77.2374C220.493 77.6558 221.084 78.5245 219.087 80.9745C218.718 81.4247 218.449 81.947 218.302 82.504C216.502 89.1385 214.127 95.6519 211.287 101.923C210.104 102.093 208.998 102.713 208.332 103.813L207.336 105.466C206.765 106.413 206.594 107.547 206.869 108.618C207.137 109.7 207.824 110.615 208.779 111.177L208.779 111.178ZM274.593 94.5929C276.157 95.3663 279.764 97.17 281.089 98.4599C280.39 99.6403 280.246 101.086 280.964 102.393C281.64 105.446 275.069 117.067 272.463 121.665C267.681 119.775 262.934 117.755 258.23 115.651C258.16 115.535 258.114 115.405 258.036 115.299C259.323 110.156 261.649 105.767 264.284 100.797L265.179 99.1092C265.435 98.6301 265.753 98.0587 266.105 97.4297C267.248 95.3865 268.287 93.4328 269.112 91.5628C270.904 92.7604 272.887 93.7473 274.592 94.5929L274.593 94.5929ZM254.311 91.4012C255.304 91.1068 256.285 90.8183 257.243 90.5528C258.49 90.2065 259.725 89.8544 260.934 89.5023C260.155 91.078 259.309 92.6046 258.871 93.3953C258.478 94.0937 258.126 94.7228 257.849 95.2566L256.969 96.9246C254.314 101.926 251.835 106.759 250.288 112.471C250.132 112.534 249.985 112.592 249.824 112.652C249.293 112.73 248.811 112.901 248.352 113.169C244.39 114.54 239.879 115.656 235.643 115.974C235.957 115.371 236.266 114.762 236.581 114.159C239.091 109.363 241.689 104.411 243.755 99.2105C244.101 98.339 244.404 97.2626 244.71 96.1313C244.901 95.4416 245.189 94.4056 245.492 93.5716C248.545 93.0666 251.552 92.2182 254.312 91.4015L254.311 91.4012ZM226.062 85.4824C227.199 83.9558 227.906 82.5158 228.324 81.1768C231.424 83.2113 234.229 85.5546 237.083 88.1229C236.817 88.6741 236.635 89.2657 236.641 89.9179C236.641 90.7028 236.921 91.3954 237.302 92.0188C237.1 92.6797 236.904 93.3434 236.736 93.9638C236.517 94.7719 236.315 95.5395 236.07 96.1657C234.168 100.962 231.672 105.724 229.259 110.324C229.008 110.8 228.766 111.279 228.517 111.758C226.922 110.979 225.332 110.234 223.765 109.504C221.837 108.601 220.013 107.7 218.18 106.791C221.375 99.9201 224.039 92.7716 226.062 85.4822L226.062 85.4824Z" fill="black"/>
<path d="M137.488 201.573C138.05 202.219 138.728 202.745 139.577 202.947C140.971 203.279 143.73 203.72 146.739 203.72C149.761 203.72 153.036 203.279 155.429 201.841C156.736 201.059 157.507 199.616 157.432 198.099C157.232 193.998 159.385 188.564 162.909 184.255C163.769 183.199 164.06 181.791 163.679 180.478C163.298 179.171 162.297 178.132 161.001 177.705L160.456 177.523C154.961 175.702 149.513 174.23 145.034 174.291C148.07 169.093 153.008 163.235 157.325 158.976C157.4 159.169 157.461 159.369 157.57 159.55C158.286 160.783 159.585 161.556 161.013 161.605C161.293 161.614 161.573 161.617 161.853 161.617C170.556 161.617 176.767 156.999 177.422 149.946C177.794 145.88 176.279 143.24 174.943 141.747C173.425 140.039 171.411 138.971 169.272 138.296C169.246 138.198 169.217 138.097 169.186 137.999C168.756 136.556 167.581 135.462 166.115 135.136C164.643 134.818 163.12 135.309 162.124 136.435L161.74 136.87C160.736 136.325 159.544 136.195 158.439 136.582C142.526 142.042 123.907 151.239 121.154 174.068C120.077 182.988 121.907 190.385 126.438 195.461C129.228 198.606 133.015 200.638 137.488 201.573L137.488 201.573ZM169.108 147.94C169.183 148.228 169.22 148.63 169.171 149.192C169.085 150.098 168.721 150.811 168.178 151.365C168.527 150.269 168.851 149.114 169.108 147.94H169.108ZM149.467 187.167C150.22 186.076 150.402 184.685 149.96 183.439C149.92 183.323 149.868 183.202 149.816 183.092C150.78 183.303 151.885 183.58 153.149 183.932C151.247 187.291 149.703 191.259 149.265 195.288C148.451 195.403 147.464 195.438 146.442 195.429C146.004 194.904 145.496 194.457 144.87 194.2C145.802 192.269 147.389 190.047 148.286 188.812C148.722 188.223 149.123 187.669 149.467 187.167L149.467 187.167ZM129.358 175.055C131.349 158.56 143.986 150.837 157.14 145.839C157.575 146.119 158.066 146.327 158.603 146.433C158.946 146.5 159.272 146.445 159.604 146.43C153.804 149.801 133.078 169.711 133.92 182.965C134.11 185.96 135.415 188.442 137.556 190.295C137.172 191.077 136.829 191.87 136.555 192.69C135.008 192.029 133.654 191.143 132.595 189.954C129.738 186.745 128.587 181.453 129.357 175.055L129.358 175.055Z" fill="black"/>
<path d="M194.107 198.072C197.105 204.175 202.409 208.213 209.047 209.456C210.496 209.722 211.996 209.857 213.54 209.857C220.198 209.857 227.574 207.393 234.044 202.885C241.218 197.893 246.008 191.099 247.183 184.251C247.489 182.468 247.469 180.794 247.269 179.178C247.573 178.958 247.893 178.742 248.173 178.523C249.604 177.397 250.135 175.467 249.469 173.77C248.808 172.073 247.16 171.014 245.293 171.146L243.708 171.271C241.01 168.188 237.189 166.059 232.919 164.604C232.471 163.271 231.352 162.2 229.877 161.883C225.563 160.945 218.12 159.318 210.825 160.717C210.329 160.668 209.535 160.861 208.975 161.138C203.452 162.61 198.182 166.021 194.613 173.005C190.642 180.782 190.443 190.623 194.108 198.071L194.107 198.072ZM201.979 176.774C204.181 172.46 207.234 170.097 211.11 169.066C211.851 169.158 212.645 169.245 213.485 169.343C220.46 170.134 231.677 171.453 236.649 175.891C230.984 178.774 223.853 181.541 219.042 183.25L215.781 176.54C214.786 174.488 212.31 173.628 210.249 174.63C208.197 175.631 207.34 178.104 208.339 180.156L213.198 190.155C213.906 191.613 215.372 192.481 216.918 192.481C217.345 192.481 217.775 192.415 218.2 192.279C218.823 192.072 229.543 188.548 238.723 184.086C237.558 188.369 234.21 192.681 229.313 196.091C223.21 200.328 216.041 202.334 210.564 201.312C205.424 200.357 202.816 197.035 201.529 194.415C199.018 189.307 199.194 182.216 201.979 176.774L201.979 176.774Z" fill="black"/>
<path d="M353.245 99.4311C350.821 95.8901 346.449 94.2712 340.247 94.6204C331.774 95.0995 323.855 97.3879 316.222 101.128C320.577 88.0901 323.896 74.7945 328.031 63.4307V63.4279V63.425C328.031 63.4077 327.546 63.3961 327.552 63.3788C329.012 57.6043 327.647 52.0232 323.991 46.7883C309.995 26.7639 255.845 11.4315 163.242 1.18105C163.051 1.01656 162.844 0.811669 162.618 0.681808C161.874 0.246052 159.938 -0.550457 157.534 0.577924C156.163 0.433635 154.804 0.283569 153.421 0.13928C151.139 -0.13487 149.107 1.55048 148.87 3.82448C148.697 5.49248 149.546 7.01331 150.902 7.80978C135.881 30.4782 108.856 98.6341 109.225 111.984C109.245 112.696 109.491 113.323 109.82 113.9C109.742 113.995 109.664 114.09 109.583 114.18C108.913 114.994 108.38 115.649 108.019 116.061C102.588 122.237 94.8827 130.366 86.7304 138.978C72.9708 153.499 57.3791 169.961 48.7244 181.276C47.3392 183.088 47.6856 185.685 49.4978 187.07C51.3101 188.461 53.9074 188.112 55.2984 186.297C63.6849 175.331 79.1207 159.038 92.7392 144.666C100.946 136.002 108.7 127.815 114.233 121.527C114.637 121.069 115.237 120.341 115.982 119.43C127.496 105.396 131.355 103.999 132.252 103.97C133.377 105 135.798 111.326 119.667 149.598C118.859 151.514 118.238 152.992 117.895 153.889C117.15 155.817 116.397 157.742 115.641 159.664C110.325 173.213 104.822 187.229 104.104 202.57C103.835 208.321 103.835 217.319 103.971 227.844C103.628 228.3 103.362 228.819 103.229 229.417C102.949 230.666 103.313 231.878 104.043 232.816C104.193 242.126 104.418 252.339 104.643 262.413C105.004 278.49 105.348 293.897 105.359 304.88C105.356 304.9 105.339 304.918 105.333 304.938C105.206 305.538 105.229 306.13 105.353 306.693C105.345 309.653 105.313 312.513 105.241 314.643C105.169 316.926 106.958 319.159 109.243 319.159H109.385C111.607 319.159 113.442 317.154 113.517 314.914C113.555 313.789 113.581 312.398 113.601 311.047C133.153 315.105 150.384 317.613 168.509 320.299C175.836 321.387 183.345 322.481 191.102 323.707C186.647 327.655 180.101 330.806 174.919 333.294L172.42 334.489C163.387 338.913 153.636 342.457 144.208 345.888C140.488 347.242 136.774 348.589 133.091 349.998C130.956 350.811 129.885 353.204 130.699 355.339C131.328 356.987 132.901 358 134.563 358C135.057 358 135.553 357.913 136.035 357.732C139.677 356.341 143.353 355.005 147.033 353.668C156.663 350.159 166.627 346.535 176.05 341.923L178.491 340.749C185.844 337.22 195.587 332.515 200.79 325.272C203.384 325.711 205.973 326.144 208.642 326.617C209.93 326.848 211.294 327.16 212.7 327.477C216.157 328.259 220.073 329.145 223.969 329.145C227.34 329.145 230.592 328.484 233.634 326.51C241.922 321.143 249.431 313.317 249.431 303.242V303.239C253.569 292.727 257.142 277.143 262.809 260.835C272.274 263.652 280.375 265.13 286.813 265.13C292.201 265.13 296.533 264.145 299.733 262.169C303.265 259.987 305.516 256.579 306.203 252.322C306.982 247.515 305.767 242.964 302.699 239.166C296.495 231.484 283.855 228.116 274.543 227.489C275.048 226.012 275.538 224.563 276.015 223.146C276.289 223.204 276.548 223.299 276.834 223.299C276.97 223.299 277.111 223.29 277.253 223.279L278.791 223.143C321.882 219.473 329.218 213.309 330.712 207.762C331.408 205.185 331.009 201.255 325.194 197.183C314.985 190.038 298.143 184.834 285.806 189.645C287.177 184.757 288.579 178.5 290.002 174.362H290.019C290.322 174.362 290.628 174.973 290.937 174.904C291.335 174.818 292.028 174.997 292.969 174.806C324.075 168.483 338.117 162.582 339.924 154.692C340.484 152.25 340.17 148.678 335.497 145.128C328.869 140.09 320.578 138.918 312.636 139.432C324.381 133.363 335.679 126.405 346.291 118.518C348.923 116.564 351.425 114.576 353.179 111.603C355.537 107.589 355.566 102.825 353.249 99.4336L353.245 99.4311ZM316.962 51.5292C318.26 53.3877 318.973 55.2491 319.233 57.1393C280.151 47.0935 243.686 41.8246 205.204 36.3127C187.502 33.776 169.192 31.1528 150.446 28.0104C149.822 27.9065 149.225 27.9728 148.659 28.1316C153.173 19.027 157.178 12.0345 159.833 9.15406C273.618 21.5432 308.185 38.9649 316.962 51.5291L316.962 51.5292ZM112.374 202.955C113.032 188.979 118.042 176.209 123.349 162.683C124.111 160.744 124.875 158.802 125.62 156.854C125.946 156.011 126.535 154.611 127.297 152.808C140.046 122.55 146.363 101.383 135.749 96.4677C130.644 94.11 124.673 97.9741 118.748 103.853C122.696 87.8825 135.235 56.2477 145.99 33.6088C146.513 34.8902 147.604 35.9175 149.072 36.1656C167.914 39.3314 186.273 41.9574 204.03 44.5027C242.55 50.0174 279.03 55.2843 317.993 65.3529C311.817 88.5289 301.269 118.377 293.795 137.686C292.953 139.862 292.127 142.087 291.316 144.346C290.45 144.672 289.637 144.987 288.924 145.278C286.809 146.144 285.796 148.56 286.661 150.672C287.025 151.558 287.692 152.187 288.456 152.626C283.773 166.697 279.603 181.639 275.814 195.264L273.39 203.953C270.539 214.114 265.318 228.982 259.786 244.724C258.545 248.262 257.298 251.806 256.066 255.341C200.373 245.53 163.425 238.557 112.243 227.176C112.116 217.055 112.116 208.435 112.378 202.955L112.374 202.955ZM229.041 319.555C225.408 321.904 219.882 320.631 214.424 319.393C212.886 319.047 211.44 318.709 210.038 318.458C206.433 317.818 202.936 317.212 199.473 316.643C199.279 316.611 199.109 316.556 198.919 316.551C188.741 314.871 179.105 313.44 169.711 312.049C151.202 309.307 133.636 306.687 113.625 302.471C113.571 291.594 113.253 277.203 112.918 262.225C112.716 253.235 112.517 244.134 112.367 235.681C162.307 246.756 198.936 254.268 253.324 263.866C248.289 278.501 243.593 290.197 241.371 302.608H241.155V301.422C241.158 309.418 235.536 315.349 229.043 319.554L229.041 319.555ZM273.323 235.682C281.332 236.095 291.923 238.987 296.271 244.366C297.89 246.363 298.453 248.475 298.046 251C297.74 252.919 296.923 254.189 295.411 255.121C290.716 258.033 279.917 257.228 265.644 253.02C266.293 251.168 266.942 249.312 267.592 247.468C269.043 243.33 270.475 239.261 271.848 235.31C272.307 235.506 272.798 235.654 273.323 235.682L273.323 235.682ZM287.51 198.55C296.629 194.011 311.708 197.837 320.449 203.961C321.681 204.821 322.261 205.442 322.518 205.785C321.268 207.023 314.247 211.759 278.743 214.832C279.739 211.701 280.622 208.801 281.355 206.186L283.551 198.305C284.725 199.015 286.191 199.197 287.51 198.55L287.51 198.55ZM330.489 151.785C331.464 152.53 331.793 153.104 331.862 152.995C331.681 153.615 328.962 159.234 292.656 166.734C294.315 161.318 296.055 156.028 297.856 150.836C306.727 147.979 321.419 144.891 330.489 151.785L330.489 151.785ZM346.046 107.405C345.083 109.044 343.354 110.403 341.351 111.886C329.603 120.616 316.981 128.185 303.827 134.595C306.747 126.857 309.965 117.984 313.151 108.729C314.409 109.814 316.233 110.1 317.78 109.274C324.824 105.543 332.757 103.329 340.71 102.879C343.686 102.715 345.766 103.153 346.413 104.094C346.895 104.795 346.73 106.247 346.046 107.404L346.046 107.405Z" fill="black"/>
<path d="M826.491 92.6011L858.896 125.332L858.842 125.329L863.453 129.936C864.518 131.001 865.149 132.379 865.5 134.337V309.233C865.5 325.6 852.04 338.5 834.621 338.5H668.118C650.699 338.5 637.238 325.6 637.238 309.233V304.865V302.365H634.738H628.779C610.919 302.365 597.5 289.43 597.5 273.498V48.7529C597.5 31.8685 611.877 17.5 628.779 17.5H795.282C812.125 17.5 825.764 31.4141 825.764 48.7529L825.767 90.8423L825.767 91.8705L826.491 92.6011ZM795.063 78.7512L790.878 74.5691L790.796 80.4852L790.397 109.471L790.397 109.488V109.505C790.397 119.741 799.189 127.887 809.587 127.887H838.198H844.237L839.965 123.619L795.063 78.7512ZM637.241 84.4887V84.2981C637.342 67.5233 650.872 54.0163 667.751 53.634H784.951C786.98 53.634 788.645 54.4865 789.753 55.8725L789.84 55.9811L789.939 56.0794L809.012 75.1384L813.279 79.4022V73.3699V48.7519C813.279 38.359 805.524 29.9711 795.281 29.9711H628.779C618.734 29.9711 609.589 38.5573 609.589 48.7519L609.591 273.497C609.591 278.954 612.236 283.222 615.937 286.054C619.59 288.849 624.308 290.292 628.781 290.292H634.741H637.241V287.792V84.4887ZM778.705 68.6071V66.1071H776.205H667.72C657.599 66.1071 649.326 74.3705 649.326 84.4887L649.329 309.631C649.329 319.96 657.426 326.822 667.723 326.822H834.226C844.487 326.822 853.019 319.599 853.019 309.631L853.018 142.859L853.018 140.359H850.518H809.984C792.627 140.359 778.705 126.728 778.705 109.902V68.6071Z" fill="black" stroke="white" stroke-width="5"/>
<path d="M721 290C702.709 290 688 275.29 688 257C688 238.709 702.71 224 721 224C739.291 224 754 238.71 754 257C754 275.291 739.29 290 721 290ZM721 232.746C707.483 232.746 696.747 243.879 696.747 256.999C696.747 270.12 707.88 281.252 721 281.252C734.517 281.252 745.253 270.12 745.253 256.999C745.253 243.881 734.52 232.746 721 232.746V232.746Z" fill="black"/>
<path d="M736.359 197C735.166 197 733.973 196.613 732.78 196.224L689.437 179.933C686.256 178.77 683.87 176.053 683.074 172.563C682.678 169.073 683.87 165.583 686.652 163.643L723.236 134.94C724.826 133.39 727.214 133 729.2 133C733.971 133 738.345 136.49 739.141 141.147L745.901 186.14C746.298 188.856 745.504 191.57 743.515 193.896C742.325 195.836 739.541 197 736.359 197L736.359 197ZM729.599 141.536C729.202 141.536 729.202 141.536 728.803 141.923L692.219 170.626C691.822 171.013 691.822 171.403 691.822 171.79C691.822 172.176 692.219 172.566 692.618 172.566L735.962 188.856C736.358 189.243 737.154 188.856 737.551 188.47C737.948 188.083 737.948 187.693 737.948 187.693L730.791 142.313C730.791 141.536 729.998 141.536 729.599 141.536L729.599 141.536Z" fill="black"/>
<path d="M781.81 250C778.234 250 774.659 247.642 773.464 244.105L759.555 207.55C758.759 205.192 758.759 202.833 759.951 200.868C761.143 198.902 762.734 196.936 765.118 196.151L802.072 182.392C803.264 182 804.059 182 805.251 182C808.827 182 812.402 184.358 813.597 187.895L827.507 224.45C829.095 229.167 826.711 234.277 822.34 235.848L785.386 249.608C783.798 250 783.002 250 781.81 250L781.81 250ZM805.254 190.645L767.901 204.009L767.504 204.401L781.414 240.957C781.414 241.349 781.81 241.349 781.81 241.349L818.764 227.59L819.161 227.197L805.254 190.645Z" fill="black"/>
<path d="M489.054 240.823V241.443L489.609 241.719C493.23 243.52 495.982 243.52 498.563 243.52H498.581C499.651 243.52 500.712 243.878 501.487 244.477C502.25 245.067 502.697 245.854 502.697 246.76C502.697 248.162 502.193 248.889 501.546 249.318C500.844 249.784 499.832 249.99 498.668 250C496.125 249.541 493.545 249.147 490.951 248.75C483.88 247.669 476.714 246.574 469.956 244.134C467.126 242.922 466.079 241.47 466.005 240.133C465.925 238.714 466.888 236.873 469.375 234.812L469.375 234.812C474.531 230.539 479.751 225.362 483.247 219.278L483.261 219.253L483.273 219.228C483.688 218.404 484.241 217.525 484.896 217.037C485.206 216.806 485.499 216.692 485.787 216.678C486.069 216.664 486.447 216.74 486.943 217.069C488.269 217.948 489.348 218.683 489.958 219.636C490.493 220.473 490.733 221.597 489.994 223.457C489.556 224.334 489.124 225.408 488.712 226.432L488.7 226.462C488.269 227.533 487.858 228.55 487.455 229.353L486.37 231.511L488.663 230.751C499.104 227.291 512.127 217.807 518.234 205.661L518.239 205.65L518.244 205.639C525.191 190.959 525.183 177.116 519.989 162.479L519.968 162.42L519.94 162.365C519.783 162.053 519.586 161.717 519.412 161.419C519.334 161.286 519.261 161.161 519.197 161.049C518.965 160.638 518.809 160.312 518.737 160.026C518.671 159.764 518.685 159.576 518.762 159.401C518.847 159.208 519.059 158.917 519.599 158.559L519.681 158.505L519.751 158.435C520.052 158.135 520.293 158.04 520.479 158.012C520.68 157.98 520.926 158.01 521.255 158.133C521.591 158.258 521.951 158.456 522.375 158.706C522.451 158.751 522.529 158.798 522.61 158.846C522.909 159.025 523.24 159.222 523.571 159.394C523.976 159.789 524.416 160.18 524.847 160.561L524.898 160.607C525.394 161.046 525.879 161.478 526.336 161.932C527.253 162.844 527.977 163.772 528.331 164.826L528.33 164.826L528.335 164.839C535.049 184.032 532.542 201.501 520.789 218.195C516.63 223.984 510.803 228.956 504.141 232.277C502.042 233.116 499.954 234.344 497.766 235.631C497.656 235.696 497.546 235.761 497.435 235.826C495.09 237.203 492.581 238.658 489.662 239.902L489.054 240.161V240.822V240.823Z" fill="black" stroke="white" stroke-width="2"/>
<path d="M455.792 230.41C456.128 230.579 456.559 230.795 457.02 230.851C457.279 231.105 457.539 231.343 457.781 231.565C457.901 231.675 458.017 231.781 458.126 231.883C458.506 232.238 458.818 232.554 459.051 232.882C459.279 233.203 459.426 233.527 459.478 233.895C459.531 234.266 459.494 234.717 459.301 235.297C458.938 236.39 458.235 236.924 457.307 237.203C456.335 237.496 455.147 237.5 453.858 237.5C453.11 237.5 452.554 237.316 451.969 237.023C451.688 236.882 451.406 236.719 451.086 236.533L451.018 236.494C450.673 236.294 450.292 236.076 449.855 235.856L449.849 235.853L449.842 235.85C438.056 230.359 428.407 223.404 421.495 214.366C414.587 205.332 410.391 194.189 409.552 180.28L409.053 180.311L408.775 179.895C406.526 181.4 405.537 182.931 404.263 184.901C404.041 185.244 403.811 185.6 403.564 185.972C402.791 187.136 401.85 187.691 400.826 187.878C399.798 188.065 398.645 187.889 397.439 187.493C396.241 186.68 395.288 185.699 394.819 184.664C394.356 183.642 394.354 182.554 395.097 181.435L395.114 181.409L395.128 181.381C395.527 180.581 396.131 179.77 396.772 178.913L396.788 178.891C397.398 178.075 398.041 177.215 398.483 176.344C402.713 171.245 406.941 165.302 410.329 159.352C410.648 158.82 410.939 158.315 411.211 157.842C411.239 157.794 411.266 157.746 411.293 157.699C411.535 157.278 411.761 156.886 411.978 156.52C412.465 155.702 412.893 155.049 413.334 154.557C413.77 154.071 414.2 153.764 414.683 153.613C415.166 153.462 415.756 153.451 416.539 153.647C418.192 154.062 419.569 154.668 420.533 155.636C421.482 156.588 422.078 157.938 422.078 159.95V159.985L422.083 160.02C422.928 165.959 423.777 171.071 425.473 177.035C426.336 181.354 428.062 184.809 430.631 188.245L430.652 188.274L430.677 188.299C431.103 188.727 431.51 189.135 431.851 189.54C432.193 189.947 432.442 190.32 432.571 190.666C432.695 190.999 432.704 191.291 432.589 191.576C432.468 191.874 432.184 192.228 431.598 192.621L431.557 192.648L431.522 192.683C431.162 193.045 430.832 193.198 430.531 193.245C430.222 193.293 429.89 193.239 429.516 193.099C429.139 192.957 428.75 192.739 428.328 192.488C428.249 192.44 428.168 192.391 428.086 192.342C427.755 192.143 427.405 191.932 427.057 191.756C424.578 190.091 422.087 187.594 420.395 185.897L419.459 184.959L419.542 186.281C420.394 199.952 425.51 212.852 437.52 220.602C442.611 224.007 448.554 227.417 454.506 229.976L454.6 230.017H454.703C454.984 230.017 455.295 230.161 455.747 230.388L455.792 230.41Z" fill="black" stroke="white"/>
<path d="M502.349 135.517H503.225L502.78 134.763C501.696 132.922 500.456 131.388 499.282 129.935C499.061 129.662 498.843 129.393 498.629 129.124C497.264 127.414 496.039 125.746 495.224 123.674L495.217 123.655L495.208 123.636C494.774 122.752 494.397 121.974 494.305 121.319C494.262 121.006 494.29 120.762 494.381 120.568C494.47 120.379 494.643 120.184 494.986 120.009C495.78 119.605 496.515 119.435 497.112 119.522C497.675 119.604 498.173 119.921 498.528 120.642L498.556 120.699L498.597 120.747C499.405 121.687 500.211 122.609 501.008 123.521C506.07 129.312 510.812 134.736 513.692 142.067L513.699 142.086L513.708 142.104C514.091 142.883 514.294 143.887 514.397 144.938C514.497 145.958 514.5 146.983 514.5 147.832C514.086 149.49 513.495 150.599 512.716 151.127C511.979 151.628 510.926 151.696 509.324 150.881L509.3 150.869L509.275 150.859L509.245 150.847C502.515 148.279 495.721 145.685 488.069 144.82L488.041 144.817H488.013C487.715 144.817 487.171 144.649 486.553 144.335C485.952 144.029 485.369 143.629 484.997 143.25L484.997 143.249C484.596 142.841 484.151 142.48 483.737 142.144C483.69 142.106 483.644 142.069 483.598 142.031C483.136 141.655 482.72 141.304 482.384 140.913C482.052 140.528 481.808 140.114 481.686 139.617C481.564 139.12 481.557 138.506 481.753 137.71L481.753 137.71C481.948 136.914 482.224 136.486 482.513 136.242C482.8 135.998 483.161 135.883 483.637 135.835C483.964 135.801 484.296 135.801 484.669 135.801C484.869 135.802 485.081 135.802 485.31 135.797C485.935 135.783 486.627 135.727 487.331 135.489L488.283 135.166L487.451 134.601C479.79 129.403 472.104 126.789 463.556 126.789H463.509L463.463 126.798L463.392 126.811C449.944 129.379 436.276 131.989 426.883 145.026L426.877 145.035L426.871 145.045C426.118 146.194 425.236 146.517 424.388 146.431C423.491 146.34 422.539 145.779 421.743 144.968L421.743 144.968C420.881 144.091 420.113 143.3 419.735 142.436C419.553 142.018 419.468 141.593 419.511 141.141C419.555 140.687 419.731 140.174 420.117 139.584L420.126 139.569L420.135 139.554C423.451 133.647 428.425 129.425 434.237 126.89L434.237 126.891L434.247 126.886C452.66 118.366 470.204 118.365 488.613 127.727C492.822 130.298 497.049 132.88 502.122 135.462L502.229 135.517H502.349H502.349Z" fill="black" stroke="white"/>
</svg>
