<svg fill="none" height="71" viewBox="0 0 69 71" width="69" xmlns="http://www.w3.org/2000/svg" xmlns:xlink="http://www.w3.org/1999/xlink"><mask id="a" fill="#fff"><path d="m49.899 59.25h-45.00007c-.69029 0-1.25-.5597-1.25-1.25v-22.5001c0-.9944.39508-1.9487 1.09821-2.6517s1.65743-1.0982 2.65172-1.0982h31.25004c.6903 0 1.25.5597 1.25 1.25s-.5597 1.25-1.25 1.25h-31.25004c-.69029 0-1.25.5597-1.25 1.25v21.25h42.50004v-12.5c0-.6903.5598-1.25 1.25-1.25.6903 0 1.2501.5597 1.2501 1.25v13.7501c0 .3314-.1317.6495-.3661.8839s-.5525.3661-.884.3661z" fill="#fff"/></mask><mask id="b" fill="#fff"><path d="m51.0491 70.4999h-47.30011c-1.26953-.0005-2.45258-.6428-3.144007-1.7075-.6914013-1.0653-.79743-2.4075-.280686-3.5676l3.437433-7.7378v.0006c.20089-.4481.6462-.7366 1.13728-.7377h45.00009c.4911.0011.9364.2896 1.1373.7377l3.4374 7.7377v-.0005c.5168 1.1601.4107 2.5023-.2807 3.5676-.6914 1.0647-1.8744 1.707-3.144 1.7075zm-45.33725-11.25-3.11272 6.9877c-.16964.3873-.1317.8337.10045 1.1875.22935.3577.625.5743 1.04967.5748h47.30005c.4247-.0005.8204-.2171 1.0497-.5748.2322-.3538.2701-.8002.1005-1.1875l-3.1128-6.9877z" fill="#fff"/></mask><mask id="c" fill="#fff"><path d="m34.899 70.5h-13.75c-.433-.0011-.8348-.2271-1.0614-.596-.2265-.3694-.2461-.8298-.0513-1.2165l2.5-5c.212-.4202.6423-.6858 1.1127-.6875h8.75c.4705.0017.9007.2673 1.1128.6875l2.5 5c.1947.3867.1752.8471-.0514 1.2165-.2265.3689-.6283.5949-1.0614.596zm-11.7249-2.5h9.6998l-1.25-2.5h-7.1997z" fill="#fff"/></mask><mask id="d" fill="#fff"><path d="m64.8989 40.4999h-18.75c-.9945 0-1.9488-.395-2.6518-1.0982-.703-.7031-1.0982-1.6574-1.0982-2.6517v-32.50006c0-.99442.3951-1.94872 1.0982-2.65172.7032-.703005 1.6575-1.09822 2.6518-1.09822h18.75c.9944 0 1.9487.395087 2.6517 1.09822.703.70313 1.0982 1.65743 1.0982 2.65172v32.50006c0 .9944-.395 1.9487-1.0982 2.6517-.7031.703-1.6574 1.0982-2.6517 1.0982zm-18.75-37.50004c-.6903 0-1.25.55972-1.25 1.25v32.50004c0 .3315.1317.6496.366.884.2344.2343.5525.366.884.366h18.75c.3315 0 .6496-.1317.8839-.366.2344-.2344.3661-.5525.3661-.884v-32.50004c0-.33147-.1317-.64955-.3661-.88393-.2343-.23437-.5524-.36607-.8839-.36607z" fill="#fff"/></mask><mask id="e" fill="#fff"><path d="m57.3989 6.74988h-3.75c-.6903 0-1.25-.55971-1.25-1.25s.5597-1.25 1.25-1.25h3.75c.6903 0 1.25.55971 1.25 1.25s-.5597 1.25-1.25 1.25z" fill="#fff"/></mask><mask id="f" fill="#fff"><path d="m55.5234 36.7499h-.25c-.0782-.0139-.1541-.039-.2249-.0748l-.2249-.1127-.1875-.1501c-.2366-.2344-.37-.5541-.37-.8873 0-.3331.1334-.6529.37-.8878.2907-.3047.7159-.4431 1.1306-.3666.4146.0764.7628.3566.9263.7455.1635.3884.1194.8332-.1161 1.183-.236.3494-.6322.5564-1.0535.5508z" fill="#fff"/></mask><mask id="g" fill="#fff"><path d="m31.149 17.7871c-.663 0-1.2992-.2634-1.7679-.7321-.4688-.4688-.7322-1.1049-.7322-1.7679v-1.0374h-10c-.6903 0-1.25-.5597-1.25-1.25v-4.99998c0-.69029.5597-1.25 1.25-1.25h10v-1.03739c.0034-.63952.2512-1.25279.6926-1.71486.4419-.46206 1.0435-.73773 1.6818-.76953.6384-.03237 1.2651.18135 1.7506.59654l5.5747 4.77515c.5385.47489.8466 1.15738.8466 1.87497 0 .7177-.308 1.4007-.8466 1.875l-5.5747 4.8253c-.4509.3918-1.0273.6089-1.625.6122zm-11.2501-6.0374h10.0001c.3314 0 .6495.1317.8839.3661.2344.2343.3661.5524.3661.8839v2.2874l5.5747-4.7874-5.5747-4.78746v2.28744c0 .33147-.1317.64955-.3661.88393-.2344.23437-.5525.36607-.8839.36607h-10.0001z" fill="#fff"/></mask><mask id="h" fill="#fff"><path d="m16.1491 28.5742c-.7311 0-1.4253-.3192-1.9002-.875l-4.77513-5.5747c-.41517-.4855-.6289-1.1122-.59654-1.7506.03181-.6384.30747-1.24.76953-1.6819.46204-.4414 1.07534-.6891 1.71484-.6925h1.0374v-5c-.0017-.332.1284-.6518.3627-.8873l5-5c.3594-.35491.8968-.4587 1.3622-.26282.4671.19197.7723.64564.7751 1.15011v10.00001h1.0374c.6395.0034 1.2528.2511 1.7149.6925.462.442.7377 1.0436.7695 1.6819.0324.6384-.1813 1.2651-.5965 1.7506l-4.7752 5.5876c-.4777.5507-1.1713.8655-1.9001.8621zm-4.7875-8.0747 4.7875 5.5747 4.7874-5.5747h-2.2874c-.6903 0-1.25-.5598-1.25-1.25v-8.2378l-2.5 2.5v5.7378c0 .3314-.1317.6495-.3661.8839s-.5525.3661-.8839.3661z" fill="#fff"/></mask><g fill="#e11d48" stroke="#eaeaea" stroke-width=".5"><path d="m49.899 59.25h-45.00007c-.69029 0-1.25-.5597-1.25-1.25v-22.5001c0-.9944.39508-1.9487 1.09821-2.6517s1.65743-1.0982 2.65172-1.0982h31.25004c.6903 0 1.25.5597 1.25 1.25s-.5597 1.25-1.25 1.25h-31.25004c-.69029 0-1.25.5597-1.25 1.25v21.25h42.50004v-12.5c0-.6903.5598-1.25 1.25-1.25.6903 0 1.2501.5597 1.2501 1.25v13.7501c0 .3314-.1317.6495-.3661.8839s-.5525.3661-.884.3661z" mask="url(#a)"/><path d="m51.0491 70.4999h-47.30011c-1.26953-.0005-2.45258-.6428-3.144007-1.7075-.6914013-1.0653-.79743-2.4075-.280686-3.5676l3.437433-7.7378v.0006c.20089-.4481.6462-.7366 1.13728-.7377h45.00009c.4911.0011.9364.2896 1.1373.7377l3.4374 7.7377v-.0005c.5168 1.1601.4107 2.5023-.2807 3.5676-.6914 1.0647-1.8744 1.707-3.144 1.7075zm-45.33725-11.25-3.11272 6.9877c-.16964.3873-.1317.8337.10045 1.1875.22935.3577.625.5743 1.04967.5748h47.30005c.4247-.0005.8204-.2171 1.0497-.5748.2322-.3538.2701-.8002.1005-1.1875l-3.1128-6.9877z" mask="url(#b)"/><path d="m34.899 70.5h-13.75c-.433-.0011-.8348-.2271-1.0614-.596-.2265-.3694-.2461-.8298-.0513-1.2165l2.5-5c.212-.4202.6423-.6858 1.1127-.6875h8.75c.4705.0017.9007.2673 1.1128.6875l2.5 5c.1947.3867.1752.8471-.0514 1.2165-.2265.3689-.6283.5949-1.0614.596zm-11.7249-2.5h9.6998l-1.25-2.5h-7.1997z" mask="url(#c)"/><path d="m64.8989 40.4999h-18.75c-.9945 0-1.9488-.395-2.6518-1.0982-.703-.7031-1.0982-1.6574-1.0982-2.6517v-32.50006c0-.99442.3951-1.94872 1.0982-2.65172.7032-.703005 1.6575-1.09822 2.6518-1.09822h18.75c.9944 0 1.9487.395087 2.6517 1.09822.703.70313 1.0982 1.65743 1.0982 2.65172v32.50006c0 .9944-.395 1.9487-1.0982 2.6517-.7031.703-1.6574 1.0982-2.6517 1.0982zm-18.75-37.50004c-.6903 0-1.25.55972-1.25 1.25v32.50004c0 .3315.1317.6496.366.884.2344.2343.5525.366.884.366h18.75c.3315 0 .6496-.1317.8839-.366.2344-.2344.3661-.5525.3661-.884v-32.50004c0-.33147-.1317-.64955-.3661-.88393-.2343-.23437-.5524-.36607-.8839-.36607z" mask="url(#d)"/><path d="m57.3989 6.74988h-3.75c-.6903 0-1.25-.55971-1.25-1.25s.5597-1.25 1.25-1.25h3.75c.6903 0 1.25.55971 1.25 1.25s-.5597 1.25-1.25 1.25z" mask="url(#e)"/><path d="m55.5234 36.7499h-.25c-.0782-.0139-.1541-.039-.2249-.0748l-.2249-.1127-.1875-.1501c-.2366-.2344-.37-.5541-.37-.8873 0-.3331.1334-.6529.37-.8878.2907-.3047.7159-.4431 1.1306-.3666.4146.0764.7628.3566.9263.7455.1635.3884.1194.8332-.1161 1.183-.236.3494-.6322.5564-1.0535.5508z" mask="url(#f)"/><path d="m31.149 17.7871c-.663 0-1.2992-.2634-1.7679-.7321-.4688-.4688-.7322-1.1049-.7322-1.7679v-1.0374h-10c-.6903 0-1.25-.5597-1.25-1.25v-4.99998c0-.69029.5597-1.25 1.25-1.25h10v-1.03739c.0034-.63952.2512-1.25279.6926-1.71486.4419-.46206 1.0435-.73773 1.6818-.76953.6384-.03237 1.2651.18135 1.7506.59654l5.5747 4.77515c.5385.47489.8466 1.15738.8466 1.87497 0 .7177-.308 1.4007-.8466 1.875l-5.5747 4.8253c-.4509.3918-1.0273.6089-1.625.6122zm-11.2501-6.0374h10.0001c.3314 0 .6495.1317.8839.3661.2344.2343.3661.5524.3661.8839v2.2874l5.5747-4.7874-5.5747-4.78746v2.28744c0 .33147-.1317.64955-.3661.88393-.2344.23437-.5525.36607-.8839.36607h-10.0001z" mask="url(#g)"/><path d="m16.1491 28.5742c-.7311 0-1.4253-.3192-1.9002-.875l-4.77513-5.5747c-.41517-.4855-.6289-1.1122-.59654-1.7506.03181-.6384.30747-1.24.76953-1.6819.46204-.4414 1.07534-.6891 1.71484-.6925h1.0374v-5c-.0017-.332.1284-.6518.3627-.8873l5-5c.3594-.35491.8968-.4587 1.3622-.26282.4671.19197.7723.64564.7751 1.15011v10.00001h1.0374c.6395.0034 1.2528.2511 1.7149.6925.462.442.7377 1.0436.7695 1.6819.0324.6384-.1813 1.2651-.5965 1.7506l-4.7752 5.5876c-.4777.5507-1.1713.8655-1.9001.8621zm-4.7875-8.0747 4.7875 5.5747 4.7874-5.5747h-2.2874c-.6903 0-1.25-.5598-1.25-1.25v-8.2378l-2.5 2.5v5.7378c0 .3314-.1317.6495-.3661.8839s-.5525.3661-.8839.3661z" mask="url(#h)"/></g></svg>