<svg fill="none" height="495" viewBox="0 0 503 495" width="503" xmlns="http://www.w3.org/2000/svg" xmlns:xlink="http://www.w3.org/1999/xlink"><linearGradient id="a"><stop offset="0" stop-color="#199dff"/><stop offset="1" stop-color="#0083e4"/></linearGradient><linearGradient id="b" gradientUnits="userSpaceOnUse" x1="145.051" x2="145.051" xlink:href="#a" y1="118.759" y2="308.028"/><linearGradient id="c" gradientUnits="userSpaceOnUse" x1="138.209" x2="138.209" xlink:href="#a" y1="381.868" y2="417.618"/><linearGradient id="d" gradientUnits="userSpaceOnUse" x1="128.365" x2="128.365" xlink:href="#a" y1="24.9429" y2="37.7018"/><linearGradient id="e" gradientUnits="userSpaceOnUse" x1="163.928" x2="163.928" xlink:href="#a" y1="24.373" y2="35.8808"/><linearGradient id="f" gradientUnits="userSpaceOnUse" x1="251.243" x2="251.243" xlink:href="#a" y1="0" y2="494.928"/><linearGradient id="g" gradientUnits="userSpaceOnUse" x1="379.364" x2="379.364" xlink:href="#a" y1="112.146" y2="179.635"/><linearGradient id="h" gradientUnits="userSpaceOnUse" x1="147.083" x2="147.083" xlink:href="#a" y1="187.386" y2="234.377"/><path d="m144.549 307.413c1.618.82 3.602.84 5.286-.059 22.801-12.105 42.023-32.07 55.602-57.738 12.723-24.062 17.211-51.93 20.172-78.457.293-2.644-1.266-5.148-3.774-6.055-17.148-6.16-27.551-24.469-26.91-39 .141-3.16-2.297-5.843-5.453-6-32.367-1.656-62.309-1.777-91.5228-.398-3.168.148-5.6133 2.832-5.4805 5.992.7031 16.137-9.7656 33.59-24.887 41.512-1.8555.965-3.0352 2.871-3.082 4.969-1.3672 60.754 31.332 110.69 80.0513 135.23zm-40.676-176.45c25.543-1.043 51.727-.922 79.711.375 1.575 16.562 12.445 34.551 30.094 42.836-2.839 24.078-7.25 48.949-18.414 70.059-11.965 22.617-28.586 40.371-48.203 51.512-42.227-22.52-71.1475-66.059-71.0935-120.07 15.762-9.594 26.5615-27.027 27.9055-44.715z" fill="url(#b)"/><path d="m151.729 399.743c0 9.871-6.054 17.875-13.52 17.875-7.468 0-13.52-8.004-13.52-17.875s6.051-17.875 13.52-17.875c7.465 0 13.52 8.004 13.52 17.875z" fill="url(#c)"/><path d="m115.59 37.6859 26.098-1.2344c3.171-.1484 5.621-2.8477 5.472-6.0156-.152-3.1758-2.832-5.7227-6.019-5.4766l-26.098 1.2344c-3.172.1485-5.621 2.8477-5.473 6.0156.156 3.3203 3.09 5.7109 6.02 5.4766z" fill="url(#d)"/><path d="m164.099 35.8808c3.176 0 5.754-2.5781 5.754-5.7539s-2.578-5.7539-5.754-5.7539h-.687c-3.176 0-5.41 2.5781-5.41 5.7539s2.922 5.7539 6.097 5.7539z" fill="url(#e)"/><path d="m473.859 158.003c-1.015-43.477-.363-55.398-5.812-67.9262-5-11.496-15.047-17.863-26.508-19.34-7.496-3.3398-13.195-2.9844-14.543-3.1367-30.273 1.1445-64.301 2.1641-85.496-.0078-19.504 0-35.375 15.867-35.359 34.9407-2.496 32.707-4.219 65.828-.012 86.758.328 19.223 16.062 34.762 35.141 34.762.782.016 20.23 1.016 60.438.481 11.105 1.011 22.5.945 32.961-.348 16.805-2.078 31.348-8.359 37.07-24.293 2.653-7.387 2.699-15.387 2.535-23.258 3.235 5.527 5.938 12.418 9.747 22.734 10.852 29.793 9.964 69.035-9.086 94.531-6.383-10.043-14.844-17.371-19.383-19.492-33.969-28.277-78.961-22.023-104.54 1.133-20.66 18.797-29.188 49.242-21.566 75.477-12.344 8.254-24.645 16.656-36.883 25.105 3.636-9.567 2.664 9.66-2.493-338.1701-.21-14.262-.996-24.176-12.723-32.19499-3.46-3.3047-7.511-3.8828-12.016-4.0117-95.668-2.285201-198.4595-1.011701-218.7595-1.562501-19.797-.5625-36.66003-.316412-42.75403 7.933601-6.3242 8.26949-2.882801 26.95699-2.882801 36.07799 0 .7656.085941 363.6597-.136719 367.8797-.32031 6.121-.7187483 13.746 3.0586 18.617 5.0039 6.383 14.66395 6.129 22.39495 5.887 12.863-.324 19.281 1.504 78.4615 1.504 29.711-.067 49.289-.633 101.36-1.481-27.738 19.648-27.488 18.938-28.18 21.723-1.883 7.52-5.278 18.477-7.165 26.152-.863 3.477 1.649 6.918 5.254 7.125 10.777.618 20.07 2.762 31.375 3.313 1.047.082 2.371-.227 3.477-.957 4.027-2.68 8.309-4.328 12.668-6.856 7.406 3.368 20 2.989 19.23 2.989 3.062 0 5.602-2.407 5.746-5.477.16-3.289 1.664-7.121 2.613-11.207 5.258-.547 11.469-1.488 15.539-1.68 3.25-.156 5.696-2.945 5.469-6.144-.203-2.942.113-6.133.297-9.078 4.074.058 8.598-.098 11.5.316 3.727.528 6.867-2.551 6.547-6.195-.191-2.156-.039-4.965.086-7.352 2.625.137 8.168-5.144 9.848-6.324 1.531-1.074 12.879-9.629 18.887-13.707 5.589 1.883 11.18 3.77 16.77 5.652 7.16-5.027 14.316-10.059 21.477-15.086 1.804-1.265 8.242-4.226 10.707-6.816 20.113 12.199 47.367 15.289 66.449 10.77 21.258-5.035 49.672-29.527 53.707-58.742 2.324-16.828-.067-36.875-7.532-53.98 24.434-28.531 26.805-74.426 13.98-109.63-6.863-18.625-10.898-28.188-20.961-37.406zm-132.36 54.551c-13.164 0-23.867-10.707-23.867-23.867 0-6.063-5.668-10.992 0-85.719 0-13.1642 10.707-23.8672 23.273-23.8982 21.355 2.2344 55.86 1.1914 86.31.0313 13.164 0 23.87 10.707 23.894 24.3829 2.477 27.547 2.477 56.043-.023 85.199 0 13.164-10.711 23.867-23.871 23.867-3.523.004-48.434 1.422-85.715.004zm-328.4895-197.5302c3.082-4.1641 25.781-3.5508 33.238-3.3398 12.652.3633 220.7295-.4961 223.3295 2.4141 1.52 1.6328.778 5.7422.793 36.699-3-1.918 13.543-.5469-252.0095-.9883-3.1758 0-5.7539 2.5781-5.7539 5.7539s2.5781 5.7539 5.7539 5.7539c264.9595-.4492 249.0295.9492 252.0495-1.0156.286 71.562 3.133 138.73 1.434 304.26-.406-2.777-2.699-4.945-5.59-4.945-265.95975.176-251.4397-.36-253.7997.308-.168-262.9897.2109-314.6597-.418-323.7897-.4063-5.9023-1.2539-18.188.9726-21.109zm18.625 410.0302c-4.4766-.262-16.863.922-18.707-1.446-1.4492-1.968-.3672-6.91-.4727-29.965v-22.832c2.3516.668-11.483975.133 253.8002.313 2.871 0 5.144-2.141 5.578-4.887-.086 8.082-.066 16.23-.172 24.289-16.426 11.371-32.766 22.828-48.957 34.281-62.324.707-124.2499 3.438-191.0699.246zm249.8895 4.961c-1.722 1.199-2.656 3.234-2.441 5.32.293 2.789 0 6.199-.148 9.695-4.039-.05-8.414.09-11.32-.316-3.286-.586-6.684 2.172-6.551 5.894.109 3.137-.285 6.438-.457 10.09-5.582.614-10.805 1.414-14.738 1.594-2.926.137-5.277 2.449-5.473 5.371-.203 3.11-1.621 6.813-2.555 10.75-3.992-.238-8.703-.867-10.934-2.586-1.96-1.511-4.656-1.601-6.714-.211-4.399 2.954-9.262 4.747-14.07 7.696-7.578-.508-14.844-1.789-22.488-2.614 1.519-5.48 3.504-12.223 4.898-17.523 41.617-29.828 108.15-76.488 150.94-105.02 2.211-1.476 3.125-4.269 2.211-6.765-8.25-22.512-1.063-50.836 17.078-67.34 30.055-27.203 81.816-23.16 106.96 19.816-4.293 3.664-8.906 6.488-13.68 8.367-5.309-12.297-18.434-19.309-31.059-15.891-13.914 3.805-21.98 18.824-17.98 33.473 6.476 23.707 37.098 28.09 48.312 6.856 2.098-3.973 3.055-8.375 3.078-12.848 5.801-2.004 11.383-5.133 16.578-9.204 25.145 63.965-47.152 118.28-101.97 79.129-1.809-2.89-5.68-3.582-8.367-1.55-8.492 6.449-21.566 13.496-30.938 20.34-21.652-3.703-16.18-3.637-21.281-1.012-6.059 4.269-3.184 2.238-15.297 10.512-3.985 2.727-7.93 5.426-11.598 7.973zm147.84-104.54c6.942 1.566 10.945.929 13.398.722-2.531 16.582-24.199 16.91-28.656.606-2.738-10.016 3.856-19.824 13.453-19.824 5.204 0 10.141 3.039 12.984 7.848-2.91.16-5.808.062-8.656-.575-3.109-.726-6.179 1.242-6.879 4.344-.691 3.102 1.258 6.184 4.356 6.879z" fill="url(#f)"/><path d="m368.989 113.573 4.485-.477c-10.98 2.016-20.883 9.711-25.234 20.031-5.942 14.082-.75 31.977 11.785 40.719s31.102 7.442 42.312-2.945c11.211-10.387 13.938-28.773 6.246-41.977-7.691-13.207-25.004-19.91-39.594-15.352z" fill="url(#g)"/><path d="m132.54 231.963c1.046 1.465 2.753 2.414 4.683 2.414 4.152 0 2.258-.73 40.703-37.098 2.285-2.211 2.344-5.852.137-8.137-2.215-2.293-5.856-2.343-8.137-.136l-32.059 30.992c-5.422-6.547-6.937-6.442-12.945-14.848-1.851-2.578-5.441-3.192-8.027-1.332-2.586 1.851-3.184 5.445-1.336 8.031 7.566 10.578 10.059 10.43 16.98 20.113z" fill="url(#h)"/></svg>