<svg fill="none" height="71" viewBox="0 0 70 71" width="70" xmlns="http://www.w3.org/2000/svg"><g fill="#2563eb"><g stroke="#fff" stroke-width="1.5"><path d="m14.5837 15.8336h.75v-.75-8.74998-.75h-.75-8.74996-.75v.75 8.74998.75h.75zm5.0819 4.3319h-18.9156v-18.91562h18.9156z"/><path d="m14.5837 65.4176h.75v-.75-8.75-.75h-.75-8.74996-.75v.75 8.75.75h.75zm5.0819 4.3322h-18.9156v-18.9172h18.9156z"/><path d="m64.167 15.8336h.75v-.75-8.74998-.75h-.75-8.75-.75v.75 8.74998.75h.75zm5.0831 4.3319h-18.9156v-18.91562h18.9156z"/><path d="m38.6662 6.33362v-.75h-.75-10.9162v-4.33372l16 .00058v18.91562h-4.3338z"/><path d="m31.3345 64.667v.7501l.75-.0001 5.0825-.0003v4.3325h-10.1663v-18.9172h4.3338z"/><path d="m64.9153 27.4998h4.3337v10.1675h-4.3337z"/><path d="m43.7507 31.8336h-.75v.75 5.0837h-4.3337v-10.1675h18.9172l.0002 4.3338z"/><path d="m12.4155 39.167h18.9172v4.3325h-18.9172z"/><path d="m26.25 27.4992h.75v-.75-13.8337l4.3337.0002v18.9172h-25.49996-.75v.75 10.9163h-4.33374v-16z"/></g><path d="m55.4155 41.3326c-8.0542 0-14.5825 6.5283-14.5825 14.5844 0 8.0548 6.5283 14.5831 14.5825 14.5831 8.0554 0 14.5837-6.5283 14.5837-14.5825 0-8.0565-6.5283-14.585-14.5837-14.585zm-1.0309 21.0297-7.7331-7.735 3.0933-3.0933 4.6398 4.6399 6.7017-6.7024 3.0933 3.0933z"/></g></svg>