<svg fill="none" height="71" viewBox="0 0 70 71" width="70" xmlns="http://www.w3.org/2000/svg"><g fill="#2563eb"><path d="m52.8892 51.2377c-.0776 4.0166-.5447 7.9508-1.3997 11.8851-.2333.9834-.8556 1.4751-1.5554 1.3116-.778-.1641-1.1665-.9017-.9332-1.8033.8556-3.9342 1.3222-7.9508 1.3222-11.9674 0-10.0818-6.6114-18.3607-16.0222-20.1639-10.3444-1.9674-20.5333 5.7375-22.0888 16.7212-.0776.6559-.1558 1.3934-.2333 2.0492-.0776.9834-.6223 1.4751-1.3998 1.3934-.69983-.0818-1.1664-.6558-1.1664-1.5575.23329-4.8359 1.7887-9.2625 4.8221-12.9508 5.8333-7.2133 13.3002-10.0818 22.011-7.7868 8.711 2.2951 14.0778 8.4426 16.1778 17.623.1557.7375.2332 1.4751.3108 2.295.0765.8211.1547 1.8863.1547 2.952z"/><path d="m58.0224 51.8116c-.0776.9834-.0776 2.0491-.1557 3.0326-.0776.9834-.6223 1.5575-1.3222 1.5575-.778 0-1.3221-.7376-1.2446-1.7216.2333-3.3608.2333-6.7216-.4665-10.0818-2.1778-10.1641-10.5003-18.2787-20.3778-19.5901-10.422-1.3934-19.911 3.7708-24.88881 13.5242-.46658.9017-1.01127 1.1476-1.71111.9835-.77799-.2459-1.08885-1.1475-.69987-1.9674 1.08886-2.2132 2.41097-4.3442 4.04459-6.1475 7.5444-8.2785 16.6444-11.3116 27.0666-8.1967 10.5777 3.1155 16.8777 10.7381 19.2888 21.9672.1557.7375.2333 1.4751.3109 2.295.0781 1.394.0781 2.8692.1563 4.3449z"/><path d="m47.8334 51.1558c-.1552 5.5735-1.1664 10.9835-2.8 16.3115-.3109.9834-.9331 1.3933-1.7111 1.1475-.778-.3276-1.0113-.9835-.6999-2.0492 1.5554-4.9183 2.3335-9.9183 2.5667-15 .2333-7.705-4.2779-14.1801-11.0444-15.6557-8.8667-1.9669-16.8778 4.8365-17.1111 14.3448-.0776 2.2951-.389 4.5084-1.0889 6.7216-.0776.1641-.0776.41-.1557.5741-.3109.6558-.9332.9834-1.5554.7375-.6223-.2458-1.0889-.9016-.8556-1.5575 1.0113-2.8691.9332-5.8199 1.2446-8.7707.778-7.4592 6.6114-13.7702 13.5334-14.9181 9.2557-1.5575 17.5 4.5084 19.2111 14.1802.3885 1.3939.3885 2.7049.4661 3.9349z"/><path d="m62.2226 42.7132c0 .8199-.389 1.3116-1.0112 1.4751-.6223.1641-1.2446-.2459-1.4779-.9834-.2333-.9017-.4666-1.8033-.778-2.7049-4.1217-11.8035-12.0552-18.9344-23.8778-20.7377-9.7998-1.5575-18.1999 1.8033-25.19992 9.1801-.15571.1641-.2333.2459-.31088.41-.62229.6558-1.32215.7376-1.94444.1641-.54471-.5741-.54471-1.3116.07758-2.0492 3.18906-3.6067 6.92216-6.3934 11.27766-8.2785 17.9666-7.8691 38.4221 2.9508 43.2443 22.8688v.6558z"/><path d="m42.7004 51.9754c-.3109 6.0657-1.6336 11.8034-3.7332 17.3771-.3109.9016-1.0113 1.3116-1.7888.9834-.6998-.3276-.9331-1.0658-.6223-1.9674 1.6337-4.2624 2.8-8.6067 3.1891-13.1967.1557-2.2132.3108-4.4259.0775-6.6392-.5447-4.3442-4.4336-7.5409-8.6333-7.6226-4.2779 0-8.0886 3.1967-8.789 7.541-.3109 1.8032-.2333 3.6067-.4666 5.4099-.3108 2.9509-1.2445 5.6559-2.3334 8.3608-.3109.8199-1.0889 1.0658-1.7111.7376-.6223-.3276-.9332-1.0657-.6223-1.8033.9331-2.4591 1.7887-4.9183 2.1001-7.6226.1557-1.6392.1557-3.2784.389-4.8359.6999-5.9835 5.6-10.4918 11.4333-10.4918 5.6776 0 10.6554 4.5083 11.3558 10.41.0771 1.1475.0771 2.2126.1552 3.3602z"/><path d="m32.5891 11.2379c11.9.4917 22.4778 6.3934 29.8666 18.2786.1557.2459.2333.41.389.6558.2333.6559.0776 1.3117-.4665 1.6392-.5448.3277-1.1665.2459-1.6337-.2458-.0775-.1641-.2333-.2459-.3108-.41-5.6777-9.2624-13.6888-14.9999-24.0333-16.7213-8.8667-1.4751-17.0333.5741-24.5777 5.7376-.2333.1641-.4666.3276-.6999.4099-.5447.3277-1.24457.0818-1.63361-.4099-.389-.5741-.31087-1.2293.15571-1.7216.15571-.1641.389-.3276.6223-.4917 6.3775-4.4254 13.2997-6.6386 22.3222-6.721z"/><path d="m37.5671 51.8115c-.2333 6.0658-1.7888 11.8851-4.1223 17.3771-.1557.4099-.6222.9016-1.0112 1.0657-.3109.0818-.9332-.1641-1.1665-.4099-.4666-.41-.389-.9835-.1557-1.5576.8556-2.295 1.7111-4.59 2.411-6.9675 1.0113-3.5242 1.5554-7.1309 1.5554-10.8199 0-2.4592-1.6336-4.2624-3.8112-4.2624-2.1778 0-3.8113 1.8032-3.8113 4.2624-.2327 5.4106-1.6325 10.4106-3.7326 15.1639-.389.8199-1.0113 1.0658-1.7112.8199-.6998-.3276-.9331-1.0657-.5447-1.9673 1.3998-3.2784 2.5667-6.7216 3.0334-10.3277.1557-1.4752.1557-3.0327.3108-4.5901.389-3.6883 3.1891-6.2293 6.6889-6.0657 3.2667.1641 5.911 3.0327 6.0667 6.6392.0006.6558.0006 1.1475.0006 1.6398z"/><path d="m60.1998 18.369c.2333.4099.2333.9834-.0775 1.3116-.1557.1641-.3109.4099-.4666.4917-.5447.3276-1.0113.0817-1.4779-.3276-1.3222-1.1476-2.5667-2.3768-3.8889-3.3608-7.9335-5.9835-16.8-8.52432-26.5222-7.70509-4.1222.32762-8.0886 1.39339-11.9774 3.11489-.8556.3276-1.3998.2459-1.7888-.3276-.4666-.7376-.1557-1.63921.778-2.04919 2.9557-1.31161 6.0667-2.29508 9.2557-2.86915 10.2669-1.80327 19.8333.1641 28.7777 5.65584 2.4892 1.5576 4.8221 3.4427 6.9997 5.5735.1552.0818.3103.2459.3885.4917z"/><path d="m31.1112.664064c7.3113-.081761 14.3111 1.557526 20.8444 4.999996.1557.08176.2333.16409.389.16409.778.40995 1.0889 1.22927.778 1.96736-.3109.73757-1.0888.90166-1.8668.49171-3.9665-2.04918-8.0886-3.52429-12.4447-4.34425-4.822-.90167-9.7222-.90167-14.5444-.1641-.2333 0-.4666.08176-.6223.08176-.778.08176-1.3221-.40995-1.3997-1.06575-.1557-.81933.3109-1.47511 1.0889-1.55693 1.4779-.245858 2.8776-.491715 4.3554-.574048 1.167-.081761 2.3334 0 3.4223 0z"/><path d="m32.4337 52.2213c-.2333 5.9835-1.7887 11.4751-4.1222 16.7213-.389.8199-1.0888 1.0658-1.7111.7376-.6999-.3276-.9331-1.0657-.5447-1.9674 1.3997-3.2783 2.6443-6.6391 3.189-10.164.3109-2.0492.4666-4.0984.6223-6.2294.0776-.9834.5447-1.6392 1.2446-1.6392.778 0 1.2445.6558 1.2445 1.6392.0776.4106.0776.7387.0776.9023z"/><path d="m.00048828.5h7.54443172v2.62324h-4.97777v5.32757h-2.56666172z"/><path d="m62.3779 3.20492v-2.70492h7.6221v7.95081h-2.4892v-5.32757c-1.7105.08176-3.4218.08176-5.1329.08176z"/><path d="m2.48916 67.7951h5.05527v2.6232h-7.54443v-7.9508h2.48916z"/><path d="m62.3781 70.5v-2.6232h5.0552v-5.3276h2.5667v7.9508h-7.6221z"/></g></svg>