<svg fill="none" height="71" viewBox="0 0 74 71" width="74" xmlns="http://www.w3.org/2000/svg" xmlns:xlink="http://www.w3.org/1999/xlink"><mask id="a" fill="#fff"><path d="m66.7309 17.3999c1.502-1.3085 2.4568-3.2293 2.4568-5.3727 0-3.93255-3.199-7.13157-7.1315-7.13157-3.9326 0-7.1316 3.19902-7.1316 7.13157 0 3.9326 3.199 7.132 7.1316 7.132 2.2051 0 9.4023.3427 9.4023 4.7559 0 1.8613-1.0693 3.9972-9.4023 3.9972-8.3337 0-9.4024-2.1359-9.4024-3.9972 0-1.9374 1.36-3.3169 4.0458-4.1013.5824-.1705.9154-.7793.7455-1.3617-.1699-.5825-.7759-.9189-1.3618-.7467-3.6282 1.0591-5.6243 3.2648-5.6243 6.2086 0 6.1931 8.4252 6.1931 11.5985 6.1931 3.172 0 11.5985 0 11.5985-6.1931-.0023-3.3134-2.521-5.606-6.925-6.5142zm-9.6112-5.3727c0-2.72179 2.2136-4.93605 4.936-4.93605s4.9361 2.21367 4.9361 4.93605c0 2.7224-2.2137 4.9361-4.9361 4.9361-2.7218 0-4.936-2.2137-4.936-4.9361z" fill="#fff"/></mask><mask id="b" fill="#fff"><path d="m41.266 57.7876c1.502-1.3085 2.4569-3.2293 2.4569-5.3727 0-3.9326-3.199-7.1316-7.132-7.1316-3.9331 0-7.1338 3.199-7.1338 7.1316s3.2007 7.1316 7.1338 7.1316c2.2057 0 9.4001.3427 9.4001 4.7559 0 1.8636-1.0693 4.0011-9.4001 4.0011-8.3354 0-9.4042-2.1371-9.4042-4.0011 0-1.9333 1.3618-3.3123 4.0487-4.1013.5814-.17.9155-.781.745-1.3618-.1705-.5813-.7753-.9086-1.3623-.7438-3.6282 1.0637-5.6262 3.2671-5.6262 6.2069 0 6.1976 8.4275 6.1976 11.6001 6.1976 3.1721 0 11.5962 0 11.5962-6.1976-.0012-3.314-2.5192-5.6066-6.9221-6.5148zm-9.6136-5.3727c0-2.7206 2.2155-4.9361 4.939-4.9361 2.7224 0 4.9361 2.2149 4.9361 4.9361 0 2.7218-2.2137 4.9361-4.9361 4.9361-2.7235 0-4.939-2.2155-4.939-4.9361z" fill="#fff"/></mask><mask id="c" fill="#fff"><path d="m16.273 17.4c1.5019-1.3091 2.4568-3.2305 2.4568-5.3739 0-3.93255-3.199-7.13157-7.132-7.13157-3.93258 0-7.1316 3.19902-7.1316 7.13157 0 3.9326 3.19902 7.132 7.1316 7.132 2.2057 0 9.4024.3427 9.4024 4.7559 0 1.8613-1.0689 3.9972-9.4024 3.9972-8.33416.0006-9.40299-2.1353-9.40299-3.9978 0-1.9374 1.36062-3.3169 4.04579-4.1013.58247-.1705.91547-.7793.74669-1.3617-.17166-.5825-.78158-.9189-1.36177-.7467-3.62819 1.0591-5.62552 3.2648-5.62552 6.2086 0 6.1931 8.42569 6.1931 11.5985 6.1931 3.1726 0 11.5985 0 11.5985-6.1931-.0012-3.3122-2.5193-5.605-6.9239-6.5124zm-9.61128-5.3733c0-2.7218 2.21367-4.93607 4.93608-4.93607 2.7224 0 4.936 2.21368 4.936 4.93607 0 2.7224-2.2136 4.9361-4.936 4.9361-2.72182 0-4.93608-2.2137-4.93608-4.9361z" fill="#fff"/></mask><mask id="d" fill="#fff"><path d="m20.4683 61.3191c-.1871 0-.3759-.0475-.5487-.1477-10.05125-5.8184-16.29533-16.6161-16.29533-28.1832 0-.6071.4915-1.0975 1.09742-1.0975s1.09742.4915 1.09742 1.0975c0 10.7848 5.82409 20.8551 15.19969 26.282.5241.3044.7044.9755.4005 1.4984-.2036.3519-.571.5499-.9509.5499z" fill="#fff"/></mask><mask id="e" fill="#fff"><path d="m51.9207 61.3191c-.3799 0-.7472-.1969-.9509-.5488-.305-.5235-.1248-1.1941.3993-1.4984 9.3739-5.4253 15.1968-15.4971 15.1998-26.282 0-.6071.492-1.0974 1.0974-1.0974.607 0 1.0985.492 1.0985 1.0974-.0022 11.5664-6.2464 22.3667-16.2953 28.1818-.1739.1001-.3616.1476-.5487.1476z" fill="#fff"/></mask><mask id="f" fill="#fff"><path d="m52.3131 7.09006c-.1917 0-.3863-.05092-.5636-.15506-9.1959-5.50717-21.0851-5.65247-30.3497-.46403-.531.29638-1.1975.10585-1.4945-.42226-.2963-.52983-.1075-1.19755.4223-1.49449 9.9408-5.56209 22.6919-5.405219 32.5497.49607.5201.31183.69.98699.3782 1.50591-.206.34445-.5699.53383-.9424.53383z" fill="#fff"/></mask><g fill="#e11d48" stroke="#e11d48" stroke-width="2"><path d="m66.7309 17.3999c1.502-1.3085 2.4568-3.2293 2.4568-5.3727 0-3.93255-3.199-7.13157-7.1315-7.13157-3.9326 0-7.1316 3.19902-7.1316 7.13157 0 3.9326 3.199 7.132 7.1316 7.132 2.2051 0 9.4023.3427 9.4023 4.7559 0 1.8613-1.0693 3.9972-9.4023 3.9972-8.3337 0-9.4024-2.1359-9.4024-3.9972 0-1.9374 1.36-3.3169 4.0458-4.1013.5824-.1705.9154-.7793.7455-1.3617-.1699-.5825-.7759-.9189-1.3618-.7467-3.6282 1.0591-5.6243 3.2648-5.6243 6.2086 0 6.1931 8.4252 6.1931 11.5985 6.1931 3.172 0 11.5985 0 11.5985-6.1931-.0023-3.3134-2.521-5.606-6.925-6.5142zm-9.6112-5.3727c0-2.72179 2.2136-4.93605 4.936-4.93605s4.9361 2.21367 4.9361 4.93605c0 2.7224-2.2137 4.9361-4.9361 4.9361-2.7218 0-4.936-2.2137-4.936-4.9361z" mask="url(#a)"/><path d="m41.266 57.7876c1.502-1.3085 2.4569-3.2293 2.4569-5.3727 0-3.9326-3.199-7.1316-7.132-7.1316-3.9331 0-7.1338 3.199-7.1338 7.1316s3.2007 7.1316 7.1338 7.1316c2.2057 0 9.4001.3427 9.4001 4.7559 0 1.8636-1.0693 4.0011-9.4001 4.0011-8.3354 0-9.4042-2.1371-9.4042-4.0011 0-1.9333 1.3618-3.3123 4.0487-4.1013.5814-.17.9155-.781.745-1.3618-.1705-.5813-.7753-.9086-1.3623-.7438-3.6282 1.0637-5.6262 3.2671-5.6262 6.2069 0 6.1976 8.4275 6.1976 11.6001 6.1976 3.1721 0 11.5962 0 11.5962-6.1976-.0012-3.314-2.5192-5.6066-6.9221-6.5148zm-9.6136-5.3727c0-2.7206 2.2155-4.9361 4.939-4.9361 2.7224 0 4.9361 2.2149 4.9361 4.9361 0 2.7218-2.2137 4.9361-4.9361 4.9361-2.7235 0-4.939-2.2155-4.939-4.9361z" mask="url(#b)"/><path d="m16.273 17.4c1.5019-1.3091 2.4568-3.2305 2.4568-5.3739 0-3.93255-3.199-7.13157-7.132-7.13157-3.93258 0-7.1316 3.19902-7.1316 7.13157 0 3.9326 3.19902 7.132 7.1316 7.132 2.2057 0 9.4024.3427 9.4024 4.7559 0 1.8613-1.0689 3.9972-9.4024 3.9972-8.33416.0006-9.40299-2.1353-9.40299-3.9978 0-1.9374 1.36062-3.3169 4.04579-4.1013.58247-.1705.91547-.7793.74669-1.3617-.17166-.5825-.78158-.9189-1.36177-.7467-3.62819 1.0591-5.62552 3.2648-5.62552 6.2086 0 6.1931 8.42569 6.1931 11.5985 6.1931 3.1726 0 11.5985 0 11.5985-6.1931-.0012-3.3122-2.5193-5.605-6.9239-6.5124zm-9.61128-5.3733c0-2.7218 2.21367-4.93607 4.93608-4.93607 2.7224 0 4.936 2.21368 4.936 4.93607 0 2.7224-2.2136 4.9361-4.936 4.9361-2.72182 0-4.93608-2.2137-4.93608-4.9361z" mask="url(#c)"/><path d="m20.4683 61.3191c-.1871 0-.3759-.0475-.5487-.1477-10.05125-5.8184-16.29533-16.6161-16.29533-28.1832 0-.6071.4915-1.0975 1.09742-1.0975s1.09742.4915 1.09742 1.0975c0 10.7848 5.82409 20.8551 15.19969 26.282.5241.3044.7044.9755.4005 1.4984-.2036.3519-.571.5499-.9509.5499z" mask="url(#d)"/><path d="m51.9207 61.3191c-.3799 0-.7472-.1969-.9509-.5488-.305-.5235-.1248-1.1941.3993-1.4984 9.3739-5.4253 15.1968-15.4971 15.1998-26.282 0-.6071.492-1.0974 1.0974-1.0974.607 0 1.0985.492 1.0985 1.0974-.0022 11.5664-6.2464 22.3667-16.2953 28.1818-.1739.1001-.3616.1476-.5487.1476z" mask="url(#e)"/><path d="m52.3131 7.09006c-.1917 0-.3863-.05092-.5636-.15506-9.1959-5.50717-21.0851-5.65247-30.3497-.46403-.531.29638-1.1975.10585-1.4945-.42226-.2963-.52983-.1075-1.19755.4223-1.49449 9.9408-5.56209 22.6919-5.405219 32.5497.49607.5201.31183.69.98699.3782 1.50591-.206.34445-.5699.53383-.9424.53383z" mask="url(#f)"/></g></svg>