<svg width="103" height="71" viewBox="0 0 103 71" fill="none" xmlns="http://www.w3.org/2000/svg">
<path d="M82.925 21.0246H90.5786C91.1962 21.0246 91.6955 20.5246 91.6955 19.9077C91.6955 16.7683 88.7725 15.0331 86.7514 15.0331C84.0263 15.0331 81.8074 17.2193 81.8074 19.9077C81.8089 20.5238 82.3082 21.0246 82.925 21.0246H82.925Z" fill="black"/>
<path d="M11.8976 21.0246H19.5513C20.1689 21.0246 20.6681 20.5246 20.6681 19.9077C20.6681 16.7683 17.7452 15.0331 15.7241 15.0331C12.9989 15.0331 10.78 17.2193 10.78 19.9077C10.7816 20.5238 11.2816 21.0246 11.8977 21.0246H11.8976Z" fill="black"/>
<path d="M101.36 21.834H72.1425C71.5265 21.834 71.0256 22.334 71.0256 22.9508C71.0256 23.5669 71.5257 24.0677 72.1425 24.0677H81.8085V26.9603H79.0608C78.4432 26.9603 77.944 27.4603 77.944 28.0772V28.106C75.1145 27.3801 72.3481 26.5873 69.6595 25.8185C62.8642 23.8714 56.4443 22.0326 51.3047 22.0326C46.1605 22.0326 39.6814 23.887 32.8231 25.8498C30.1299 26.6201 27.3581 27.4137 24.534 28.1387V28.0772C24.534 27.4611 24.0348 26.9603 23.4172 26.9603H20.6695V24.0677H30.3341C30.9502 24.0677 31.451 23.5677 31.451 22.9508C31.451 22.3348 30.951 21.834 30.3341 21.834H1.11685C0.49923 21.834 0 22.334 0 22.9508C0 23.5669 0.49923 24.0677 1.11685 24.0677H10.7814V26.9603H8.54857C7.93095 26.9603 7.43172 27.4603 7.43172 28.0772V39.5804C7.43172 44.2954 11.2682 48.1313 15.9826 48.1313C18.8283 48.1313 21.4958 46.692 23.0769 44.3414L24.4578 44.1685C27.3582 43.8056 29.8893 43.4886 34.0903 43.0431L35.0015 47.4654C35.109 47.9833 35.5662 48.3564 36.0958 48.3564H36.4182C36.5078 50.2591 37.1386 52.0098 38.141 53.4452L26.7007 64.5896C26.0901 64.0187 25.2762 63.662 24.3759 63.662H20.2824C18.3977 63.662 16.8635 65.1963 16.8635 67.081C16.8635 68.9657 18.3978 70.5 20.2824 70.5H24.3759C26.2607 70.5 27.7949 68.9657 27.7949 67.081C27.7949 66.9439 27.77 66.8131 27.7536 66.6799L39.6323 55.1096C40.292 55.6836 41.0389 56.14 41.8373 56.4897C43.8179 59.5957 47.2868 61.6674 51.2363 61.6674C55.1819 61.6674 58.6477 59.6005 60.6281 56.4991C61.2481 56.2304 61.8338 55.8916 62.3719 55.4827L74.7226 67.5141C74.9461 69.1847 76.3659 70.4807 78.0957 70.4807H82.1876C84.0731 70.4807 85.6066 68.9464 85.6066 67.0617C85.6066 65.1771 84.0738 63.6428 82.1876 63.6428H78.0957C76.9757 63.6428 75.9898 64.1911 75.3666 65.0236L63.9793 53.9269C65.192 52.4105 65.9591 50.4766 66.0573 48.3566H66.5121C67.0425 48.3566 67.4989 47.9851 67.6048 47.4656L68.5168 43.0411C72.658 43.4718 74.9048 43.7545 77.6961 44.105L79.38 44.3161C80.9602 46.6829 83.6363 48.1316 86.4931 48.1316C91.208 48.1316 95.0439 44.2951 95.0439 39.5333V28.0775C95.0439 27.4615 94.5447 26.9607 93.9271 26.9607H91.6942V24.068H101.359C101.976 24.068 102.476 23.568 102.476 22.9512C102.476 22.3351 101.978 21.8343 101.361 21.8343L101.36 21.834ZM51.2374 59.4332C46.3223 59.4332 42.3229 55.4338 42.3229 50.5187C42.3229 45.6036 46.3223 41.6042 51.2374 41.6042C56.1526 41.6042 60.1519 45.6036 60.1519 50.5187C60.1519 55.4338 56.1526 59.4332 51.2374 59.4332ZM92.8103 29.1931V39.5805C92.8103 43.0643 89.9769 45.8977 86.4931 45.8977C84.2423 45.8977 82.1434 44.6796 81.0155 42.7177C80.8411 42.414 80.5334 42.2084 80.1845 42.1663L77.975 41.8891C74.954 41.5098 72.5652 41.2091 67.742 40.7154C67.1773 40.6515 66.65 41.0394 66.5348 41.5994L65.6025 46.1229H61.4793C59.7698 42.157 55.8251 39.3713 51.2385 39.3713C46.652 39.3713 42.7072 42.1572 40.9977 46.1229H37.0069L36.0739 41.5994C35.9578 41.0378 35.436 40.6616 34.8644 40.7154C30.0262 41.22 27.3174 41.5596 24.1827 41.9522L22.2769 42.1897C21.9296 42.2333 21.6227 42.435 21.4483 42.738C20.3182 44.6866 18.2247 45.897 15.9832 45.897C12.5011 45.897 9.66606 43.0636 9.66606 39.5798V29.1925H22.301V29.5702C22.301 29.9129 22.4583 30.2377 22.7286 30.4487C22.9988 30.6605 23.3517 30.7369 23.6842 30.6543C27.027 29.8311 30.2863 28.898 33.4367 27.9962C40.1401 26.0771 46.472 24.2647 51.303 24.2647C56.1287 24.2647 62.4022 26.0615 69.0433 27.9643C72.1876 28.8654 75.4399 29.7976 78.7927 30.6216C79.1268 30.7057 79.478 30.6286 79.7475 30.416C80.0178 30.2049 80.1751 29.8802 80.1751 29.5375V29.1925H92.81L92.8103 29.1931Z" fill="black"/>
<path d="M51.2393 42.9664C47.0679 42.9664 43.6846 46.3481 43.6846 50.5196C43.6846 54.691 47.0663 58.0727 51.2393 58.0727C55.4116 58.0727 58.794 54.691 58.794 50.5196C58.7933 46.3481 55.4108 42.9664 51.2393 42.9664ZM49.9332 45.8451C48.1855 46.3326 46.8304 47.7968 46.4783 49.5757C46.4262 49.8413 46.1925 50.0259 45.9316 50.0259C45.8973 50.0259 45.8599 50.0228 45.8233 50.0157C45.5204 49.9558 45.3241 49.6629 45.3833 49.36C45.814 47.1714 47.4822 45.3691 49.6341 44.771C49.9308 44.6869 50.2385 44.8614 50.321 45.1581C50.4028 45.4548 50.2299 45.7632 49.9332 45.845L49.9332 45.8451ZM57.2674 51.719C56.8367 53.9076 55.1685 55.7099 53.0166 56.308C52.966 56.3228 52.9154 56.329 52.8655 56.329C52.621 56.329 52.3975 56.167 52.3281 55.9201C52.2456 55.6234 52.42 55.315 52.7168 55.2324C54.4652 54.7449 55.8203 53.2807 56.1716 51.5018C56.2308 51.1989 56.5198 51.0018 56.8282 51.0618C57.1304 51.1225 57.3282 51.4161 57.2675 51.7191L57.2674 51.719Z" fill="black"/>
<path d="M43.2083 17.0608C42.815 17.4541 42.815 18.0888 43.2083 18.4822C43.6016 18.8739 44.2379 18.8739 44.6297 18.4822C46.3937 16.7165 48.7411 15.7447 51.2374 15.7447C53.7342 15.7447 56.0817 16.7174 57.8472 18.4822C58.0435 18.6784 58.3005 18.7766 58.5583 18.7766C58.8161 18.7766 59.0731 18.6784 59.2694 18.4822C59.6627 18.0888 59.6627 17.4541 59.2694 17.0616C57.1236 14.9166 54.2709 13.7351 51.2381 13.7351C48.2061 13.7359 45.3532 14.9143 43.2085 17.0608L43.2083 17.0608Z" fill="black"/>
<path d="M63.8364 13.9147C64.2297 13.5214 64.2297 12.8866 63.8364 12.4933C56.8884 5.54928 45.5877 5.55088 38.6426 12.4933C38.2493 12.8851 38.2493 13.5214 38.6426 13.9139C38.8389 14.1102 39.0959 14.2083 39.3537 14.2083C39.6115 14.2083 39.8685 14.1102 40.0648 13.9139C46.2247 7.75403 56.2513 7.75184 62.4154 13.9139C62.8063 14.3064 63.4426 14.3064 63.836 13.9147H63.8364Z" fill="black"/>
<path d="M36.7824 8.4855C44.7531 0.514853 57.7254 0.518044 65.6926 8.4855C65.8889 8.68176 66.1459 8.7799 66.4037 8.7799C66.6615 8.7799 66.9185 8.68177 67.1148 8.4855C67.5081 8.09218 67.5081 7.45745 67.1148 7.06491C58.36 -1.6883 44.1182 -1.6883 35.3614 7.06491C34.9681 7.45823 34.9681 8.09296 35.3614 8.48627C35.7547 8.87959 36.3902 8.87646 36.782 8.4855L36.7824 8.4855Z" fill="black"/>
</svg>
