<svg fill="#f00" height="71" viewBox="0 0 82 71" width="82" xmlns="http://www.w3.org/2000/svg"><path d="m74.0847.5h-66.67623c-1.96456 0-3.84902.78054-5.23885 2.16962-1.389085 1.38992-2.16962 3.27433-2.16962 5.23885v40.91593c0 1.9646.780535 3.849 2.16962 5.2388 1.38992 1.3891 3.27434 2.1697 5.23885 2.1697h66.67623c1.9646 0 3.849-.7806 5.2388-2.1697 1.3891-1.3899 2.1697-3.2743 2.1697-5.2388v-40.91593c0-1.96456-.7806-3.84902-2.1697-5.23885-1.3899-1.38908-3.2743-2.16962-5.2388-2.16962zm3.7042 48.3202c0 .9831-.3902 1.9248-1.0848 2.6194-.6945.6945-1.6371 1.0848-2.6194 1.0848h-66.67623c-.98228 0-1.92489-.3903-2.61942-1.0848-.69454-.6946-1.08481-1.6363-1.08481-2.6194v-40.91173c0-.98228.39027-1.92489 1.08481-2.61942.69453-.69454 1.63714-1.08482 2.61942-1.08482h66.67623c.9823 0 1.9249.39028 2.6194 1.08482.6946.69453 1.0848 1.63714 1.0848 2.61942zm-27.9659-23.6119-12.7497-7.7789c-.7525-.4597-1.6438-.635-2.5136-.4961-.8707.1381-1.6628.5829-2.2342 1.2535-.5722.6706-.8864 1.523-.8864 2.4035v15.5709c0 .8814.3142 1.7339.8864 2.4035.5713.6706 1.3634 1.1154 2.2342 1.2544.8698.1389 1.7611-.0372 2.5136-.4962l12.7497-7.7788c1.1022-.6731 1.7744-1.8712 1.7744-3.162s-.6722-2.4888-1.7744-3.1619zm-1.9298 3.1619-12.7498 7.7789v-15.5635l12.7574 7.7789zm-32.502 36.1364c0 .4912-.1952.9625-.5424 1.3098-.3473.3472-.8186.5424-1.3098.5424h-11.6865c-1.022794 0-1.85211888-.8294-1.85211888-1.8522 0-1.0227.82932488-1.8521 1.85211888-1.8521h11.6865c.4912 0 .9625.1952 1.3098.5424.3472.3473.5424.8186.5424 1.3097zm64.2504-1.8521h-50.7289c-.5929-1.8248-2.0233-3.2553-3.8482-3.8481-1.824-.5929-3.8226-.2762-5.3745.8516-1.552 1.1278-2.4706 2.9304-2.4706 4.8485 0 1.9182.9186 3.7208 2.4706 4.8485 1.5519 1.1278 3.5503 1.4445 5.3745.8517 1.8248-.5929 3.2553-2.0233 3.8482-3.8482h50.7289c1.0228 0 1.8522-.8293 1.8522-1.8521s-.8294-1.8521-1.8522-1.8521zm-56.3996 4.1524c-.9269 0-1.7628-.5581-2.1167-1.4148-.3547-.8557-.1587-1.8413.4961-2.4962.6557-.6557 1.6405-.8516 2.4971-.4969.8558.3547 1.4139 1.1898 1.4139 2.1167-.0017 1.2642-1.0261 2.2894-2.2903 2.2911z" fill="#e11d48" stroke="#fff"/></svg>