<svg fill="none" height="71" viewBox="0 0 72 71" width="72" xmlns="http://www.w3.org/2000/svg" xmlns:xlink="http://www.w3.org/1999/xlink"><mask id="a" fill="#7c3aed" height="72" maskUnits="userSpaceOnUse" width="72" x="0" y="-.5"><path d="m0-.5h72v72h-72z" fill="#fff"/><path d="m36 .5c-19.2931 0-35 15.7057-35 35s15.6953 35 35 35c19.3046 0 35-15.6954 35-35 0-19.3047-15.7057-35-35-35zm33.3913 35c0 1.6406-.1204 3.2482-.35 4.8344-1.5751-.1093-2.8655.0876-3.992.6455-.3283.1642-.6672.3611-1.0171.5579-.2518.142-.492.2845-.7548.4265-.3938.2186-.8641.1969-1.2578-.0438-.3827-.2407-.6018-.6561-.5907-1.1158.0766-1.5529.2624-3.0736.5469-4.5061.0438-.2185-.0111-.4592-.1421-.6344-.1314-.1753-.3388-.2951-.5689-.3173-1.3782-.1314-2.4064-1.5096-2.7126-2.8001-.3827-1.5529-.0654-3.2594.208-4.7684.0438-.208-.0111-.4265-.1314-.6018-.1204-.1752-.3172-.295-.5252-.3283-.8968-.1531-1.8047-.2734-2.7236-.3937.0327-.2296.0654-.4593.0654-.7 0-2.8001-2.2749-5.075-5.075-5.075-.4703 0-.919.0876-1.3561.2079l.0111-.0549c.1752-1.4325.3499-2.9093.2845-4.3314-.142-3.4778-.0438-7.12038 2.5484-10.34659 10.4457 5.63299 17.5335 16.68019 17.5335 29.34499zm-20.1799 22.0168c-1.914 0-3.4779-1.5529-3.4779-3.4778 0-1.914 1.5529-3.4779 3.4779-3.4779 1.9249 0 3.4778 1.5529 3.4778 3.4779.0005 1.9139-1.5529 3.4778-3.4778 3.4778zm-.7981-8.4654c-1.7065.2734-3.1174 1.3892-3.8062 2.9094l-21.5798-8.0499c.0655-.3284.0982-.6561.0982-1.0061 0-1.7608-.9079-3.3143-2.2749-4.2327l10.0732-22.214c.4265.1203.8751.1969 1.3344.1969 1.3344 0 2.5374-.5252 3.4452-1.3671l10.2701 7.995c-.4049.7221-.6456 1.5424-.6456 2.4281 0 2.4391 1.7281 4.4733 4.0248 4.9654zm-26.8946-6.1472c0 1.914-1.5529 3.4779-3.4778 3.4779-1.9139 0-3.4778-1.5529-3.4778-3.4779 0-1.9139 1.5529-3.4778 3.4778-3.4778 1.914.0111 3.4778 1.564 3.4778 3.4778zm7.2625-31.3133c0-1.91397 1.5529-3.47783 3.4778-3.47783 1.914 0 3.4779 1.5529 3.4779 3.47783 0 1.925-1.553 3.4778-3.4779 3.4778-.503 0-.9733-.1092-1.3997-.295-.0111-.0111-.0217-.0217-.0328-.0217h-.0216c-1.1924-.569-2.0237-1.7608-2.0237-3.1611zm8.3999-9.46039c4.7357.16414 9.2201 1.31275 13.2565 3.24825-2.7453 3.58765-2.8546 7.47034-2.7015 11.15624.0549 1.2906-.1092 2.7014-.2734 4.0685l-.1203 1.0171c0 .0217.011.0549.011.0765-.1314.1093-.2734.208-.3937.3283l-10.27-7.995c.4048-.722.656-1.5529.656-2.4391 0-1.6515-.8091-3.1174-2.0453-4.04693.8092-1.88122 1.5096-3.64205 2.1547-5.31574-.1093-.02165-.1858-.06545-.2735-.09818zm13.2126 27.06979c-1.9139 0-3.4778-1.5529-3.4778-3.4778 0-1.914 1.5529-3.4778 3.4778-3.4778 1.925 0 3.4779 1.5529 3.4779 3.4778 0 1.9245-1.564 3.4778-3.4779 3.4778zm-14.6228-27.09171c-.569 1.48742-1.2029 3.04033-1.9029 4.69185-.5141-.17523-1.0499-.28449-1.6078-.28449-2.6687 0-4.845 2.08914-5.0418 4.71405-2.0998 0-4.2-.0111-6.2997-.0328-1.8047 0-3.7734.2186-4.714 1.8158-.9623 1.6294-.1314 3.3248.5906 4.8233.5907 1.214 1.1486 2.3626.7765 3.3143-.2951.7437-1.1264 1.225-2.0015 1.728-.3389.1969-.6672.3827-.9844.5907-2.0781 1.3997-3.4014 3.8172-3.4342 6.3218 0 .4048.0217.8203.0549 1.2357.0655.8857.1204 1.7281-.1752 2.428-.6345 1.4436-2.58105 1.8263-4.47336 2.1985-.30615.0548-.6123.1203-.90787.1858-.96224.1968-1.9578.4919-3.00759.9078-.02266-.4265-.03374-.8313-.03374-1.2467 0-18.3314 14.85356-33.2598 33.16186-33.39129zm-33.03036 36.31221c1.14856-.4703 2.20954-.8202 3.22659-1.0282.28449-.0654.57957-.1203.88571-.1752 2.18737-.4265 4.67016-.9079 5.63246-3.128.4592-1.0499.3827-2.133.3061-3.1717-.0216-.3721-.0548-.7437-.0548-1.1047.0327-1.9578 1.0936-3.9155 2.7236-5.0091.2845-.1858.5906-.361.8968-.5358 1.0392-.5906 2.2095-1.2578 2.7014-2.5373.6234-1.6078-.1531-3.1939-.8313-4.5937-.7327-1.5096-1.1486-2.483-.6561-3.3032.5357-.9079 1.9904-1.0282 3.3359-1.0282 2.1435.0216 4.2876.0216 6.4422.0327.3172 1.2357 1.072 2.2966 2.0997 2.9859l-10.0727 22.2128c-.4264-.1204-.8751-.1969-1.3344-.1969-2.8001 0-5.075 2.2749-5.075 5.0751 0 2.8001 2.2749 5.075 5.075 5.075 1.8923 0 3.5217-1.0498 4.3968-2.581l17.5 6.5298c-.1531.0216-.2951.0327-.4486.0654-1.3234.3389-2.133 1.3998-2.8546 2.3404-.3938.5252-.7765 1.0171-1.2029 1.3781-1.3128 1.072-2.767 1.3455-4.1672 1.6078-2.3404.4376-4.7579.8968-5.6763 4.9764-.2186.9844-.6456 2.2422-1.1048 3.5765-.0982.2845-.1969.569-.2951.8641-11.7252-4.4628-20.31135-15.3447-21.44828-28.3279zm22.96806 28.841c.0982-.2951.1969-.5906.2951-.8751.4703-1.3782.919-2.6687 1.1591-3.7408.6889-3.0514 2.1658-3.3359 4.4079-3.7514 1.5313-.2845 3.2594-.6123 4.8888-1.9467.5796-.4814 1.0282-1.072 1.4658-1.6406.6344-.8313 1.1813-1.5529 1.9687-1.7608.558-.142 1.2579.0111 1.8702.142.7986.1642 1.5967.35 2.4064.5252.0981 2.7125 2.3187 4.8999 5.064 4.8999 1.5861 0 2.9859-.7437 3.9154-1.8923.3062.2623.6017.5357.8968.8091.9622.8968 2.1219 2.0564 3.0736 3.3249-5.7529 4.7029-13.1031 7.5247-21.0977 7.5247-3.6093.0116-7.0762-.5574-10.3139-1.6183zm32.6037-6.9452c-1.006-1.3344-2.2095-2.5268-3.1938-3.4562-.3721-.3499-.7654-.6999-1.1702-1.0393.2079-.5579.3388-1.1591.3388-1.783 0-2.5268-1.8595-4.6048-4.2765-4.9985l.9295-18.2979c1.7498-.1969 3.2266-1.2578 3.9815-2.778.711.0982 1.4325.1969 2.133.2951-.2407 1.4219-.4376 3.0625-.0438 4.6265.361 1.5529 1.5201 3.2704 3.2704 3.8388-.2186 1.2795-.3721 2.6138-.4376 3.9704-.0438 1.0393.4487 1.9904 1.3344 2.5484.4703.2951.9955.4487 1.5202.4487.4592 0 .9295-.1203 1.3561-.3499.2623-.1421.5357-.2951.7986-.4487.3172-.1858.6233-.361.9295-.5141.8202-.4048 1.7935-.5579 3.0076-.492-1.432 7.2635-5.1945 13.6832-10.4775 18.4307z" fill="#7c3aed"/></mask><path d="m36 .5c-19.2931 0-35 15.7057-35 35s15.6953 35 35 35c19.3046 0 35-15.6954 35-35 0-19.3047-15.7057-35-35-35zm33.3913 35c0 1.6406-.1204 3.2482-.35 4.8344-1.5751-.1093-2.8655.0876-3.992.6455-.3283.1642-.6672.3611-1.0171.5579-.2518.142-.492.2845-.7548.4265-.3938.2186-.8641.1969-1.2578-.0438-.3827-.2407-.6018-.6561-.5907-1.1158.0766-1.5529.2624-3.0736.5469-4.5061.0438-.2185-.0111-.4592-.1421-.6344-.1314-.1753-.3388-.2951-.5689-.3173-1.3782-.1314-2.4064-1.5096-2.7126-2.8001-.3827-1.5529-.0654-3.2594.208-4.7684.0438-.208-.0111-.4265-.1314-.6018-.1204-.1752-.3172-.295-.5252-.3283-.8968-.1531-1.8047-.2734-2.7236-.3937.0327-.2296.0654-.4593.0654-.7 0-2.8001-2.2749-5.075-5.075-5.075-.4703 0-.919.0876-1.3561.2079l.0111-.0549c.1752-1.4325.3499-2.9093.2845-4.3314-.142-3.4778-.0438-7.12038 2.5484-10.34659 10.4457 5.63299 17.5335 16.68019 17.5335 29.34499zm-20.1799 22.0168c-1.914 0-3.4779-1.5529-3.4779-3.4778 0-1.914 1.5529-3.4779 3.4779-3.4779 1.9249 0 3.4778 1.5529 3.4778 3.4779.0005 1.9139-1.5529 3.4778-3.4778 3.4778zm-.7981-8.4654c-1.7065.2734-3.1174 1.3892-3.8062 2.9094l-21.5798-8.0499c.0655-.3284.0982-.6561.0982-1.0061 0-1.7608-.9079-3.3143-2.2749-4.2327l10.0732-22.214c.4265.1203.8751.1969 1.3344.1969 1.3344 0 2.5374-.5252 3.4452-1.3671l10.2701 7.995c-.4049.7221-.6456 1.5424-.6456 2.4281 0 2.4391 1.7281 4.4733 4.0248 4.9654zm-26.8946-6.1472c0 1.914-1.5529 3.4779-3.4778 3.4779-1.9139 0-3.4778-1.5529-3.4778-3.4779 0-1.9139 1.5529-3.4778 3.4778-3.4778 1.914.0111 3.4778 1.564 3.4778 3.4778zm7.2625-31.3133c0-1.91397 1.5529-3.47783 3.4778-3.47783 1.914 0 3.4779 1.5529 3.4779 3.47783 0 1.925-1.553 3.4778-3.4779 3.4778-.503 0-.9733-.1092-1.3997-.295-.0111-.0111-.0217-.0217-.0328-.0217h-.0216c-1.1924-.569-2.0237-1.7608-2.0237-3.1611zm8.3999-9.46039c4.7357.16414 9.2201 1.31275 13.2565 3.24825-2.7453 3.58765-2.8546 7.47034-2.7015 11.15624.0549 1.2906-.1092 2.7014-.2734 4.0685l-.1203 1.0171c0 .0217.011.0549.011.0765-.1314.1093-.2734.208-.3937.3283l-10.27-7.995c.4048-.722.656-1.5529.656-2.4391 0-1.6515-.8091-3.1174-2.0453-4.04693.8092-1.88122 1.5096-3.64205 2.1547-5.31574-.1093-.02165-.1858-.06545-.2735-.09818zm13.2126 27.06979c-1.9139 0-3.4778-1.5529-3.4778-3.4778 0-1.914 1.5529-3.4778 3.4778-3.4778 1.925 0 3.4779 1.5529 3.4779 3.4778 0 1.9245-1.564 3.4778-3.4779 3.4778zm-14.6228-27.09171c-.569 1.48742-1.2029 3.04033-1.9029 4.69185-.5141-.17523-1.0499-.28449-1.6078-.28449-2.6687 0-4.845 2.08914-5.0418 4.71405-2.0998 0-4.2-.0111-6.2997-.0328-1.8047 0-3.7734.2186-4.714 1.8158-.9623 1.6294-.1314 3.3248.5906 4.8233.5907 1.214 1.1486 2.3626.7765 3.3143-.2951.7437-1.1264 1.225-2.0015 1.728-.3389.1969-.6672.3827-.9844.5907-2.0781 1.3997-3.4014 3.8172-3.4342 6.3218 0 .4048.0217.8203.0549 1.2357.0655.8857.1204 1.7281-.1752 2.428-.6345 1.4436-2.58105 1.8263-4.47336 2.1985-.30615.0548-.6123.1203-.90787.1858-.96224.1968-1.9578.4919-3.00759.9078-.02266-.4265-.03374-.8313-.03374-1.2467 0-18.3314 14.85356-33.2598 33.16186-33.39129zm-33.03036 36.31221c1.14856-.4703 2.20954-.8202 3.22659-1.0282.28449-.0654.57957-.1203.88571-.1752 2.18737-.4265 4.67016-.9079 5.63246-3.128.4592-1.0499.3827-2.133.3061-3.1717-.0216-.3721-.0548-.7437-.0548-1.1047.0327-1.9578 1.0936-3.9155 2.7236-5.0091.2845-.1858.5906-.361.8968-.5358 1.0392-.5906 2.2095-1.2578 2.7014-2.5373.6234-1.6078-.1531-3.1939-.8313-4.5937-.7327-1.5096-1.1486-2.483-.6561-3.3032.5357-.9079 1.9904-1.0282 3.3359-1.0282 2.1435.0216 4.2876.0216 6.4422.0327.3172 1.2357 1.072 2.2966 2.0997 2.9859l-10.0727 22.2128c-.4264-.1204-.8751-.1969-1.3344-.1969-2.8001 0-5.075 2.2749-5.075 5.0751 0 2.8001 2.2749 5.075 5.075 5.075 1.8923 0 3.5217-1.0498 4.3968-2.581l17.5 6.5298c-.1531.0216-.2951.0327-.4486.0654-1.3234.3389-2.133 1.3998-2.8546 2.3404-.3938.5252-.7765 1.0171-1.2029 1.3781-1.3128 1.072-2.767 1.3455-4.1672 1.6078-2.3404.4376-4.7579.8968-5.6763 4.9764-.2186.9844-.6456 2.2422-1.1048 3.5765-.0982.2845-.1969.569-.2951.8641-11.7252-4.4628-20.31135-15.3447-21.44828-28.3279zm22.96806 28.841c.0982-.2951.1969-.5906.2951-.8751.4703-1.3782.919-2.6687 1.1591-3.7408.6889-3.0514 2.1658-3.3359 4.4079-3.7514 1.5313-.2845 3.2594-.6123 4.8888-1.9467.5796-.4814 1.0282-1.072 1.4658-1.6406.6344-.8313 1.1813-1.5529 1.9687-1.7608.558-.142 1.2579.0111 1.8702.142.7986.1642 1.5967.35 2.4064.5252.0981 2.7125 2.3187 4.8999 5.064 4.8999 1.5861 0 2.9859-.7437 3.9154-1.8923.3062.2623.6017.5357.8968.8091.9622.8968 2.1219 2.0564 3.0736 3.3249-5.7529 4.7029-13.1031 7.5247-21.0977 7.5247-3.6093.0116-7.0762-.5574-10.3139-1.6183zm32.6037-6.9452c-1.006-1.3344-2.2095-2.5268-3.1938-3.4562-.3721-.3499-.7654-.6999-1.1702-1.0393.2079-.5579.3388-1.1591.3388-1.783 0-2.5268-1.8595-4.6048-4.2765-4.9985l.9295-18.2979c1.7498-.1969 3.2266-1.2578 3.9815-2.778.711.0982 1.4325.1969 2.133.2951-.2407 1.4219-.4376 3.0625-.0438 4.6265.361 1.5529 1.5201 3.2704 3.2704 3.8388-.2186 1.2795-.3721 2.6138-.4376 3.9704-.0438 1.0393.4487 1.9904 1.3344 2.5484.4703.2951.9955.4487 1.5202.4487.4592 0 .9295-.1203 1.3561-.3499.2623-.1421.5357-.2951.7986-.4487.3172-.1858.6233-.361.9295-.5141.8202-.4048 1.7935-.5579 3.0076-.492-1.432 7.2635-5.1945 13.6832-10.4775 18.4307z" fill="#7c3aed"/><path d="m36 .5c-19.2931 0-35 15.7057-35 35s15.6953 35 35 35c19.3046 0 35-15.6954 35-35 0-19.3047-15.7057-35-35-35zm33.3913 35c0 1.6406-.1204 3.2482-.35 4.8344-1.5751-.1093-2.8655.0876-3.992.6455-.3283.1642-.6672.3611-1.0171.5579-.2518.142-.492.2845-.7548.4265-.3938.2186-.8641.1969-1.2578-.0438-.3827-.2407-.6018-.6561-.5907-1.1158.0766-1.5529.2624-3.0736.5469-4.5061.0438-.2185-.0111-.4592-.1421-.6344-.1314-.1753-.3388-.2951-.5689-.3173-1.3782-.1314-2.4064-1.5096-2.7126-2.8001-.3827-1.5529-.0654-3.2594.208-4.7684.0438-.208-.0111-.4265-.1314-.6018-.1204-.1752-.3172-.295-.5252-.3283-.8968-.1531-1.8047-.2734-2.7236-.3937.0327-.2296.0654-.4593.0654-.7 0-2.8001-2.2749-5.075-5.075-5.075-.4703 0-.919.0876-1.3561.2079l.0111-.0549c.1752-1.4325.3499-2.9093.2845-4.3314-.142-3.4778-.0438-7.12038 2.5484-10.34659 10.4457 5.63299 17.5335 16.68019 17.5335 29.34499zm-20.1799 22.0168c-1.914 0-3.4779-1.5529-3.4779-3.4778 0-1.914 1.5529-3.4779 3.4779-3.4779 1.9249 0 3.4778 1.5529 3.4778 3.4779.0005 1.9139-1.5529 3.4778-3.4778 3.4778zm-.7981-8.4654c-1.7065.2734-3.1174 1.3892-3.8062 2.9094l-21.5798-8.0499c.0655-.3284.0982-.6561.0982-1.0061 0-1.7608-.9079-3.3143-2.2749-4.2327l10.0732-22.214c.4265.1203.8751.1969 1.3344.1969 1.3344 0 2.5374-.5252 3.4452-1.3671l10.2701 7.995c-.4049.7221-.6456 1.5424-.6456 2.4281 0 2.4391 1.7281 4.4733 4.0248 4.9654zm-26.8946-6.1472c0 1.914-1.5529 3.4779-3.4778 3.4779-1.9139 0-3.4778-1.5529-3.4778-3.4779 0-1.9139 1.5529-3.4778 3.4778-3.4778 1.914.0111 3.4778 1.564 3.4778 3.4778zm7.2625-31.3133c0-1.91397 1.5529-3.47783 3.4778-3.47783 1.914 0 3.4779 1.5529 3.4779 3.47783 0 1.925-1.553 3.4778-3.4779 3.4778-.503 0-.9733-.1092-1.3997-.295-.0111-.0111-.0217-.0217-.0328-.0217h-.0216c-1.1924-.569-2.0237-1.7608-2.0237-3.1611zm8.3999-9.46039c4.7357.16414 9.2201 1.31275 13.2565 3.24825-2.7453 3.58765-2.8546 7.47034-2.7015 11.15624.0549 1.2906-.1092 2.7014-.2734 4.0685l-.1203 1.0171c0 .0217.011.0549.011.0765-.1314.1093-.2734.208-.3937.3283l-10.27-7.995c.4048-.722.656-1.5529.656-2.4391 0-1.6515-.8091-3.1174-2.0453-4.04693.8092-1.88122 1.5096-3.64205 2.1547-5.31574-.1093-.02165-.1858-.06545-.2735-.09818zm13.2126 27.06979c-1.9139 0-3.4778-1.5529-3.4778-3.4778 0-1.914 1.5529-3.4778 3.4778-3.4778 1.925 0 3.4779 1.5529 3.4779 3.4778 0 1.9245-1.564 3.4778-3.4779 3.4778zm-14.6228-27.09171c-.569 1.48742-1.2029 3.04033-1.9029 4.69185-.5141-.17523-1.0499-.28449-1.6078-.28449-2.6687 0-4.845 2.08914-5.0418 4.71405-2.0998 0-4.2-.0111-6.2997-.0328-1.8047 0-3.7734.2186-4.714 1.8158-.9623 1.6294-.1314 3.3248.5906 4.8233.5907 1.214 1.1486 2.3626.7765 3.3143-.2951.7437-1.1264 1.225-2.0015 1.728-.3389.1969-.6672.3827-.9844.5907-2.0781 1.3997-3.4014 3.8172-3.4342 6.3218 0 .4048.0217.8203.0549 1.2357.0655.8857.1204 1.7281-.1752 2.428-.6345 1.4436-2.58105 1.8263-4.47336 2.1985-.30615.0548-.6123.1203-.90787.1858-.96224.1968-1.9578.4919-3.00759.9078-.02266-.4265-.03374-.8313-.03374-1.2467 0-18.3314 14.85356-33.2598 33.16186-33.39129zm-33.03036 36.31221c1.14856-.4703 2.20954-.8202 3.22659-1.0282.28449-.0654.57957-.1203.88571-.1752 2.18737-.4265 4.67016-.9079 5.63246-3.128.4592-1.0499.3827-2.133.3061-3.1717-.0216-.3721-.0548-.7437-.0548-1.1047.0327-1.9578 1.0936-3.9155 2.7236-5.0091.2845-.1858.5906-.361.8968-.5358 1.0392-.5906 2.2095-1.2578 2.7014-2.5373.6234-1.6078-.1531-3.1939-.8313-4.5937-.7327-1.5096-1.1486-2.483-.6561-3.3032.5357-.9079 1.9904-1.0282 3.3359-1.0282 2.1435.0216 4.2876.0216 6.4422.0327.3172 1.2357 1.072 2.2966 2.0997 2.9859l-10.0727 22.2128c-.4264-.1204-.8751-.1969-1.3344-.1969-2.8001 0-5.075 2.2749-5.075 5.0751 0 2.8001 2.2749 5.075 5.075 5.075 1.8923 0 3.5217-1.0498 4.3968-2.581l17.5 6.5298c-.1531.0216-.2951.0327-.4486.0654-1.3234.3389-2.133 1.3998-2.8546 2.3404-.3938.5252-.7765 1.0171-1.2029 1.3781-1.3128 1.072-2.767 1.3455-4.1672 1.6078-2.3404.4376-4.7579.8968-5.6763 4.9764-.2186.9844-.6456 2.2422-1.1048 3.5765-.0982.2845-.1969.569-.2951.8641-11.7252-4.4628-20.31135-15.3447-21.44828-28.3279zm22.96806 28.841c.0982-.2951.1969-.5906.2951-.8751.4703-1.3782.919-2.6687 1.1591-3.7408.6889-3.0514 2.1658-3.3359 4.4079-3.7514 1.5313-.2845 3.2594-.6123 4.8888-1.9467.5796-.4814 1.0282-1.072 1.4658-1.6406.6344-.8313 1.1813-1.5529 1.9687-1.7608.558-.142 1.2579.0111 1.8702.142.7986.1642 1.5967.35 2.4064.5252.0981 2.7125 2.3187 4.8999 5.064 4.8999 1.5861 0 2.9859-.7437 3.9154-1.8923.3062.2623.6017.5357.8968.8091.9622.8968 2.1219 2.0564 3.0736 3.3249-5.7529 4.7029-13.1031 7.5247-21.0977 7.5247-3.6093.0116-7.0762-.5574-10.3139-1.6183zm32.6037-6.9452c-1.006-1.3344-2.2095-2.5268-3.1938-3.4562-.3721-.3499-.7654-.6999-1.1702-1.0393.2079-.5579.3388-1.1591.3388-1.783 0-2.5268-1.8595-4.6048-4.2765-4.9985l.9295-18.2979c1.7498-.1969 3.2266-1.2578 3.9815-2.778.711.0982 1.4325.1969 2.133.2951-.2407 1.4219-.4376 3.0625-.0438 4.6265.361 1.5529 1.5201 3.2704 3.2704 3.8388-.2186 1.2795-.3721 2.6138-.4376 3.9704-.0438 1.0393.4487 1.9904 1.3344 2.5484.4703.2951.9955.4487 1.5202.4487.4592 0 .9295-.1203 1.3561-.3499.2623-.1421.5357-.2951.7986-.4487.3172-.1858.6233-.361.9295-.5141.8202-.4048 1.7935-.5579 3.0076-.492-1.432 7.2635-5.1945 13.6832-10.4775 18.4307z" mask="url(#a)" stroke="#7c3aed"/></svg>