<svg fill="none" height="71" viewBox="0 0 81 71" width="81" xmlns="http://www.w3.org/2000/svg"><g fill="#7c3aed"><path d="m21.1111 17.8197 41.7037 41.7037c.5666.5666 1.1164 1.1502 1.6916 1.6916l.0761.0761c.2453-.9388.499-1.886.7443-2.8249-.1015.0169-.203.0338-.313.0508.0677-.0085.3214-.0339-.0169 0-.186.0169-.3637.0422-.5497.0507-.3975.0338-.795.0423-1.1925.0423h-.0592-.4229-1.9623-7.3327-9.9969-10.4028-8.5506-4.4403-.3467c-.406 0-.812-.0169-1.2264-.0508-.1776-.0169-.3552-.0253-.5244-.0507-.1014-.0085-.2029-.0254-.296-.0338-.203-.0169.2537.0423-.0676-.0085-.7612-.1269-1.5055-.2791-2.2498-.4821-.3552-.1015-.702-.2114-1.0487-.3298-.1861-.0677-.3637-.1353-.5497-.203-.0931-.0338-.1777-.0677-.2707-.1099-.296-.1185.1184.0592-.0677-.0254-.5835-.2791-1.1671-.5498-1.7253-.8711-.5581-.3214-1.0994-.6682-1.6153-1.0403-.10996-.0846-.22837-.1692-.33831-.2538-.18606-.1353.2368.1946.0592.0423-.0592-.0507-.12686-.1015-.18606-.1522-.24526-.203-.49054-.406-.72735-.6259-.4567-.4144-.8965-.8542-1.31093-1.3109-.21144-.2368-.42288-.4821-.62586-.7274-.04229-.0507-.31293-.4059-.16916-.2029.14378.186-.01692-.017-.05075-.0677-.0592-.0761-.1184-.1607-.1776-.2453-.72735-1.0149-1.35321-2.0974-1.86063-3.2392-.03383-.0676-.06766-.1522-.09303-.2199.12686.3722.0592.1523.03383.0677-.0592-.1522-.11841-.3045-.1776-.4567-.11841-.3045-.2199-.6174-.32139-.9303-.19452-.6259-.36368-1.2687-.49054-1.9199-.0592-.2876-.10149-.5751-.14378-.8627-.05075-.3214.01691.0423.00846.0761.01691-.0507-.02538-.186-.03383-.2537-.01692-.186-.04229-.3806-.05075-.5666-.05074-.6513-.06766-1.3025-.05074-1.9538.00845-.3045.02537-.6005.04229-.8965.00845-.1607.02537-.3129.04228-.4736.01692-.1353.03383-.6851.01692-.1945.01692-.5836.20298-1.2179.3383-1.7846.14378-.5835.31293-1.1587.50745-1.7169.10149-.2876.21144-.5751.32138-.8542.10995-.2876-.14378.3213.03383-.0677.06766-.1607.14378-.3129.21145-.4652.50744-1.0741 1.12485-2.0974 1.83526-3.0531.22836-.3045-.14378.1691.04229-.0592.09303-.1184.18606-.2368.28756-.3468.19452-.2283.38904-.4567.59202-.6766.40597-.4398.83731-.8627 1.2771-1.2686.19452-.1776.3975-.3468.60048-.5159.10995-.0931.22836-.2199.35522-.2791-.03383.0169-.31292.2368-.07611.0592.07611-.0592.15223-.11.2284-.1692.4736-.3468.9641-.6681 1.4631-.9642.5244-.3044 1.0572-.592 1.607-.8457.1184-.0592.2453-.11.3637-.1607.2114-.0931-.3045.1184-.0846.0338.0677-.0254.1438-.0592.2115-.0846.2875-.1099.5751-.2199.8626-.3214.5667-.1945 1.1418-.3552 1.7253-.4905.7528-.1776 1.7931-.1692 2.3597-.7358.3214-.3214.4652-.8035.6597-1.201.1692-.3467.3468-.6935.5244-1.0403.3637-.6766.7612-1.3447 1.1925-1.9876.203-.3044.406-.6005.6174-.888.1015-.1353.203-.2707.3045-.406.1522-.203-.1607.203 0 0 .0592-.0761.1184-.1522.1776-.2283.4651-.5836.9557-1.1418 1.4716-1.6831.6089-.6428.6851-1.7677 0-2.3936-.6597-.6089-1.7423-.6851-2.3936 0-2.1651 2.2751-3.9497 4.8969-5.2099 7.7726.3383-.2622.6766-.5159 1.0149-.7781-4.787.685-9.32866 3.2645-12.37346 7.0282-3.19699 3.9582-4.888423 9.0073-4.4824599 14.1073.4228829 5.2606 2.8924699 10.2759 6.9521099 13.6843 3.66221 3.0701 8.24611 4.7447 13.03301 4.7531h4.0512 8.0431 9.9884 9.9124 7.7048 3.4761c1.0149 0 2.013-.11 3.0109-.2707 1.294-.2114 1.5732-2.0044.7443-2.8249l-41.7037-41.7037c-.5666-.5666-1.1164-1.1417-1.6916-1.6916l-.0761-.0761c-.6258-.6259-1.776-.6766-2.3935 0-.6259.6597-.6682 1.7085 0 2.3766z"/><path d="m30.5594 12.7115c.203-.0931.3975-.1861.6005-.2791.1099-.0508.2283-.1015.3383-.1438-.0592.0254-.2961.1184 0 0 .4144-.1692.8288-.3214 1.2432-.4736.8712-.3045 1.7592-.5582 2.6557-.7612.4145-.093.8373-.1776 1.2602-.2537.2284-.0423.4483-.0762.6766-.11.0846-.0169.4229-.0592.0761-.0084.1269-.017.2538-.0339.3806-.0423.9473-.11 1.903-.1607 2.8586-.1607.7274 0 1.4547.0338 2.182.093.3383.0254.6766.0677 1.0149.11.2622.0253-.4313-.0677-.0338-.0085.0761.0085.1607.0254.2368.0338.1945.0339.389.0592.5836.0931 1.387.2452 2.7486.6004 4.0681 1.0741.3299.1184.6512.2368.9726.3721.0677.0254.1438.0592.2115.0846.2791.1099-.0508-.0254-.0846-.0339.1861.0423.406.1776.5751.2538.6259.2875 1.2348.6004 1.8353.9388.6174.3467 1.2094.7188 1.793 1.1079.2538.1692.499.3468.7443.5244.1438.1099.3299.2114.4567.3383-.0254-.0254-.3045-.2368-.0761-.0592.093.0676.1776.1437.2706.2114 1.0572.8542 2.0552 1.8014 2.9602 2.8164.2284.2537.4483.5159.6682.7781.093.1184.1945.2368.2876.3552.0422.0507.1099.1184.1437.1776-.2029-.3721-.0592-.0761.0085.0169.4144.5498.8035 1.108 1.1671 1.6831.4229.6597.8035 1.3363 1.1587 2.0383.1861.3553.3553.7189.5244 1.0826.0761.1776.1522.3552.2284.5244-.017-.0423-.1523-.3637-.0339-.0846.0423.1099.0846.2114.1269.3214.5836 1.4885 1.0234 3.0278 1.3194 4.5924.1015.5159.6512 1.0995 1.184 1.184 1.0234.1607 2.0213.4145 2.994.7781.1268.0508.2537.0931.3805.1438.2961.1184-.2706-.1269.0169.0085.2453.1099.4906.2199.7274.3383.4398.2199.8796.4651 1.294.7273.2115.1353.4144.2707.6174.406.11.0761.2199.1522.3214.2283.0592.0423.3721.3045.1945.1438-.1945-.1691.1438.1184.1861.1523.0846.0761.1776.1437.2622.2199.2029.1691.3975.3552.592.5328.3552.3383.6935.6935 1.0149 1.0656.1607.1861.3129.3806.4736.5667.1184.1438-.093-.1184-.093-.1184.0423.0338.1099.1438.1353.1861.0761.1099.1522.2114.2284.3213.5751.8289 1.0656 1.717 1.4801 2.6387.1268.2791-.1269-.3214.0338.0761.0423.11.0846.2115.1268.3214.0931.2538.1861.5075.2622.7697.1523.4821.2791.9726.3806 1.4716.0508.2537.1015.499.1353.7527.0085.0592.0169.1184.0254.1776.0338.1945-.0169-.1522-.0169-.1522 0 .1522.0338.3214.0507.4736.0508.5498.0762 1.108.0677 1.6577 0 .2791-.0169.5582-.0338.8373-.0085.1607-.0254.3214-.0423.4821-.0085.0677-.0169.1353-.0254.203-.0085.0423-.0423.3468-.0085.1184.0339-.2199-.0422.2622-.0507.3129-.0254.1354-.0507.2707-.0761.3975-.0592.313-.1353.6174-.2115.9219-.1607.6259-.3383 1.3278-.6343 1.903.0085-.0084.1184-.2706.0423-.1015-.0338.0846-.0677.1607-.1099.2453-.0677.1438-.1269.2791-.1946.4229-.1437.296-.3044.5835-.4651.8711-.3299.5751-.702 1.1164-1.0911 1.6407-.1099.1522.0592-.0677.0677-.0846-.0592.0931-.1353.1692-.203.2538-.093.1184-.1945.2368-.296.3467-.2284.2622-.4736.5159-.7189.7612-.6259.6259-.6766 1.776 0 2.3936.6766.6174 1.7253.6681 2.3936 0 1.903-1.9114 3.3323-4.2372 4.1864-6.8.8627-2.5626 1.0319-5.2944.6513-7.9586-.6597-4.6262-3.3662-8.762-7.1382-11.46-2.0637-1.4801-4.5163-2.478-7.0282-2.884l1.184 1.1841c-1.1164-5.8864-4.288-11.3755-8.8297-15.2913-4.6855-4.03432-10.6058-6.39401-16.7876-6.62228-4.4148-.16916-8.7873.79501-12.7709 2.68106-.8035.38062-1.0741 1.59002-.6089 2.31732.5497.8542 1.4716 1.0487 2.3258.6343z"/><path d="m6.67485 3.38233 63.92265 63.92267c.8627.8626 1.7253 1.7423 2.5965 2.5964l.1099.11c.6259.6259 1.7761.6766 2.3936 0 .6174-.6766.6681-1.7253 0-2.3936-.592-.592-1.1925-1.1925-1.7845-1.7845-1.6239-1.6239-3.2393-3.2392-4.8631-4.8631-2.3851-2.385-4.7785-4.7784-7.1635-7.1635-2.9094-2.9093-5.8273-5.8273-8.7367-8.7366-3.1884-3.1885-6.3769-6.377-9.5656-9.5656l-26.3373-26.33739c-1.8268-1.82676-3.6452-3.64517-5.4721-5.47208-.8627-.86267-1.7253-1.74232-2.59649-2.59647-.03383-.03383-.07612-.07612-.10995-.109948-.62586-.625865-1.77603-.676606-2.39356 0-.61753.676608-.66815 1.725308 0 2.393558z"/></g></svg>