<svg width="60" height="71" viewBox="0 0 60 71" fill="none" xmlns="http://www.w3.org/2000/svg">
<path d="M29.9497 1.00004C30.4217 0.987984 30.8823 1.14289 31.2505 1.4373L31.2505 1.43736L31.2507 1.43752L31.2508 1.43762L31.2521 1.43862L31.2571 1.44259L31.2767 1.45833L31.3536 1.51994L31.6479 1.75566L32.7183 2.613C33.6157 3.33164 34.8401 4.31187 36.148 5.35821C40.991 9.23388 46.4806 12.222 52.3666 14.1827C53.9119 14.6978 55.3536 15.1776 56.409 15.5287L57.6671 15.947L58.0126 16.0618L58.1028 16.0917L58.1259 16.0994L58.1317 16.1013L58.1332 16.1018L58.1333 16.1019C58.5313 16.2344 58.8775 16.4891 59.1224 16.83L59.1229 16.8306C59.3684 17.1712 59.5004 17.5804 59.5 17.9997V18.0002V28.7423C59.5 47.1434 47.9731 63.5924 30.6835 69.8795L30.683 69.8796C30.465 69.9592 30.2352 70.0001 30.0041 70.0006H29.9959C29.7648 70.0001 29.535 69.9592 29.317 69.8796L29.3165 69.8795C12.0262 63.5913 0.500001 47.1419 0.500001 28.7423L0.500002 18.0002L0.500001 17.9997C0.499556 17.5805 0.631604 17.1711 0.876846 16.8302C1.12246 16.4891 1.4688 16.2343 1.86667 16.1019L1.86682 16.1018L1.86829 16.1013L1.87411 16.0994L1.89716 16.0917L1.9874 16.0618L2.33287 15.9469L3.59096 15.5286C4.6464 15.1776 6.08818 14.6978 7.63353 14.1827C13.5195 12.222 19.0087 9.2331 23.852 5.35821L23.8521 5.35817C25.1595 4.31185 26.3839 3.33164 27.2814 2.61302L28.352 1.75569L28.6463 1.51998L28.7232 1.45837L28.7429 1.44264L28.7479 1.43866L28.7491 1.43766L28.7492 1.43755C28.7493 1.43752 28.7493 1.43748 28.7494 1.43744C28.7494 1.43743 28.7494 1.43742 28.7494 1.43741C28.7494 1.43739 28.7495 1.43737 28.7495 1.43735C29.0876 1.16706 29.5049 1.01373 29.9378 1.00035L29.9497 1.00004ZM0 28.7423C0 47.3523 11.6578 63.9894 29.1457 70.3494L0 18.0002V28.7423ZM30.3116 5.8128L29.9994 5.56318L29.6872 5.81281C29.4744 5.98295 29.2711 6.1454 29.0586 6.3153C28.4151 6.82961 27.6862 7.41225 26.3472 8.48363L26.3472 8.48365C21.1361 12.6537 15.2285 15.8653 8.89446 17.9749L8.89434 17.975C7.40285 18.4721 6.50773 18.7711 5.7776 19.015C5.4448 19.1262 5.14628 19.2259 4.84119 19.3277L4.49946 19.4417V19.802V28.7423C4.49946 45.1445 14.6204 59.6861 29.8168 65.6477L29.9994 65.7193L30.182 65.6477C45.3788 59.6868 55.4994 45.1445 55.4994 28.7423V19.802V19.4417L55.1576 19.3277C54.7939 19.2064 54.4393 19.088 54.0248 18.9495C53.329 18.7171 52.4644 18.4284 51.1045 17.975L51.1044 17.9749C44.7703 15.8653 38.8633 12.6531 33.6516 8.48363C32.2889 7.39331 31.558 6.80914 30.9061 6.28802C30.7059 6.12795 30.513 5.97382 30.3116 5.8128Z" fill="black" stroke="#EAEAEA"/>
<path d="M26.818 29.8128L26.8179 29.8129C25.9721 30.6592 25.4973 31.8075 25.4983 33.0045L26.818 29.8128ZM26.818 29.8128C27.6641 28.9659 28.8112 28.4902 30.0082 28.4902L26.818 29.8128ZM30.0084 28.4902C31.2049 28.4902 32.3527 28.9659 33.1986 29.8128L33.1987 29.8129C34.0446 30.6593 34.5193 31.8075 34.5177 33.0045C34.5147 34.6137 33.6538 36.0995 32.2588 36.9027L32.0083 37.0469V37.336V43.0051H32.0083L32.0084 43.0122C32.016 43.5473 31.8084 44.0634 31.4324 44.4448C31.0566 44.8259 30.5437 45.0403 30.0083 45.0403C29.4727 45.0403 28.9593 44.8258 28.5836 44.4448L28.2276 44.7959L28.5836 44.4448C28.2078 44.0637 28.0006 43.5476 28.0082 43.0122L28.0083 43.0122V43.0051V37.3412V37.0521L27.7578 36.9079C26.3614 36.1036 25.5004 34.6157 25.4983 33.0047L30.0084 28.4902Z" fill="black" stroke="#EAEAEA"/>
</svg>
