<svg fill="none" height="71" viewBox="0 0 60 71" width="60" xmlns="http://www.w3.org/2000/svg" xmlns:xlink="http://www.w3.org/1999/xlink"><mask id="a" fill="#fff"><path d="m29.9358.500207c-.5458.013951-1.0725.205914-1.4989.546873 0 0-2.2824 1.82814-4.8972 3.9207-4.7975 3.83814-10.2344 6.79852-16.06429 8.74052-3.09042 1.0302-5.7667 1.9192-5.7667 1.9192-.49777.1657-.930797.4843-1.237725.9107-.306357.4258-.47154074.9375-.4709836 1.462v10.7421c0 18.61 11.6577986 35.2471 29.1456986 41.6071.2723.0993.5597.1506.8493.1512h.01c.2896-.0006.577-.0519.8493-.1512 17.4872-6.3589 29.1457-22.9957 29.1457-41.6071v-10.7421c.0006-.5246-.1646-1.0363-.4715-1.462-.3064-.4264-.7394-.745-1.2372-.9107 0 0-2.6763-.889-5.7667-1.9192-5.8299-1.942-11.2673-4.90167-16.0643-8.74052-2.6155-2.09256-4.8972-3.9207-4.8972-3.9207-.4604-.368302-1.0363-.561944-1.6262-.546873zm.0636 5.703133c.8572.68527 1.5586 1.24554 3.3399 2.67071 5.2578 4.20645 11.2171 7.44695 17.6071 9.57525 2.1707.7238 3.0775 1.0274 4.053 1.3527v8.9403c0 16.1928-9.9912 30.5528-25 36.4399-15.0085-5.8879-24.99994-20.2471-24.99994-36.4399v-8.9403c.97489-.3253 1.88171-.6289 4.05299-1.3527 6.38995-2.1283 12.34985-5.3683 17.60715-9.57525 1.7812-1.42523 2.4827-1.98543 3.3398-2.67071z" fill="#fff"/></mask><mask id="b" fill="#fff"><path clip-rule="evenodd" d="m30.0084 27.9902c-1.3298 0-2.6043.5284-3.5441 1.4693-.9397.9402-1.4671 2.216-1.466 3.5457.0022 1.7895.9587 3.4425 2.51 4.336v5.6639c-.0095.6691.2494 1.3142.7193 1.7908.4699.4765 1.1116.7444 1.7807.7444s1.3103-.2679 1.7802-.7444c.4698-.4766.7293-1.1217.7198-1.7908v-5.6691c1.5497-.8923 2.5062-2.543 2.5094-4.3308.0017-1.3298-.5256-2.6055-1.4654-3.5457-.9397-.9409-2.2148-1.4693-3.5441-1.4693z" fill="#fff" fill-rule="evenodd"/></mask><g fill="#2563eb" stroke="#fff" stroke-width="2"><path d="m29.9358.500207c-.5458.013951-1.0725.205914-1.4989.546873 0 0-2.2824 1.82814-4.8972 3.9207-4.7975 3.83814-10.2344 6.79852-16.06429 8.74052-3.09042 1.0302-5.7667 1.9192-5.7667 1.9192-.49777.1657-.930797.4843-1.237725.9107-.306357.4258-.47154074.9375-.4709836 1.462v10.7421c0 18.61 11.6577986 35.2471 29.1456986 41.6071.2723.0993.5597.1506.8493.1512h.01c.2896-.0006.577-.0519.8493-.1512 17.4872-6.3589 29.1457-22.9957 29.1457-41.6071v-10.7421c.0006-.5246-.1646-1.0363-.4715-1.462-.3064-.4264-.7394-.745-1.2372-.9107 0 0-2.6763-.889-5.7667-1.9192-5.8299-1.942-11.2673-4.90167-16.0643-8.74052-2.6155-2.09256-4.8972-3.9207-4.8972-3.9207-.4604-.368302-1.0363-.561944-1.6262-.546873zm.0636 5.703133c.8572.68527 1.5586 1.24554 3.3399 2.67071 5.2578 4.20645 11.2171 7.44695 17.6071 9.57525 2.1707.7238 3.0775 1.0274 4.053 1.3527v8.9403c0 16.1928-9.9912 30.5528-25 36.4399-15.0085-5.8879-24.99994-20.2471-24.99994-36.4399v-8.9403c.97489-.3253 1.88171-.6289 4.05299-1.3527 6.38995-2.1283 12.34985-5.3683 17.60715-9.57525 1.7812-1.42523 2.4827-1.98543 3.3398-2.67071z" mask="url(#a)"/><path clip-rule="evenodd" d="m30.0084 27.9902c-1.3298 0-2.6043.5284-3.5441 1.4693-.9397.9402-1.4671 2.216-1.466 3.5457.0022 1.7895.9587 3.4425 2.51 4.336v5.6639c-.0095.6691.2494 1.3142.7193 1.7908.4699.4765 1.1116.7444 1.7807.7444s1.3103-.2679 1.7802-.7444c.4698-.4766.7293-1.1217.7198-1.7908v-5.6691c1.5497-.8923 2.5062-2.543 2.5094-4.3308.0017-1.3298-.5256-2.6055-1.4654-3.5457-.9397-.9409-2.2148-1.4693-3.5441-1.4693z" fill-rule="evenodd" mask="url(#b)"/></g></svg>