<svg fill="none" height="497" viewBox="0 0 477 497" width="477" xmlns="http://www.w3.org/2000/svg" xmlns:xlink="http://www.w3.org/1999/xlink"><linearGradient id="a"><stop offset="0" stop-color="#199dff"/><stop offset="1" stop-color="#0083e4"/></linearGradient><linearGradient id="b" gradientUnits="userSpaceOnUse" x1="238.01" x2="238.01" xlink:href="#a" y1="0" y2="496.715"/><linearGradient id="c" gradientUnits="userSpaceOnUse" x1="242.683" x2="242.683" xlink:href="#a" y1="71.1699" y2="129.9"/><linearGradient id="d" gradientUnits="userSpaceOnUse" x1="201.33" x2="201.33" xlink:href="#a" y1="203.713" y2="252.444"/><linearGradient id="e" gradientUnits="userSpaceOnUse" x1="221.998" x2="221.998" xlink:href="#a" y1="138.327" y2="190.302"/><linearGradient id="f" gradientUnits="userSpaceOnUse" x1="173.427" x2="173.427" xlink:href="#a" y1="265.463" y2="310.009"/><linearGradient id="g" gradientUnits="userSpaceOnUse" x1="359.622" x2="359.622" xlink:href="#a" y1="381.218" y2="406.093"/><linearGradient id="h" gradientUnits="userSpaceOnUse" x1="361.253" x2="361.253" xlink:href="#a" y1="288.646" y2="443.27"/><path d="m.183482 417.218c.054687 3.105 2.566398 5.606 5.667998 5.652 15.69102.227 31.29702.332 46.77702.332 70.3315 0 137.8295-2.16 197.0495-4.476 11.906 34.363 42.668 62.398 76.062 72.906 41.289 12.988 89.559.508 119.24-30.836 24.973-26.371 35.664-64.973 29.188-100.48-4.496-59.559-55.062-108.09-118.42-105.79 14.938-71.652 26.352-110.93 39.945-188.8403.52-2.9805-1.359-5.8594-4.3-6.5781-91.363-22.383-182.05-38.277-277.04-58.979974-1.606-.33984-3.286.003907-4.614.972664-1.328.96875-2.179 2.46089-2.336 4.09769-1.625 16.87502-3.71 33.14102-6.125 48.70702-30.9335.1914-62.7655.3672-95.17552.0781-1.6289-.1758-3.2227.6758-4.3281 1.8984-1.101602 1.2266-1.6289 2.8633-1.4414 4.5 8.5078 75.5395 5.6992 148.7305 2.6406 224.5305-1.7578 43.426-3.5703 88.328-2.7852 132.3zm245.259518-9.844c-3.582.141-7.14.278-10.785.414l2.098-2c2.895.524 5.797 1.071 8.688 1.586zm217.651-38.379c0 56.102-45.7 103.17-103.171 103.17-56.891 0-103.17-46.281-103.17-103.17 0-52.582 39.566-96.02 90.477-102.31.043.012.075.039.114.051 1.187.242 2.328 0 3.371-.445 61.156-5.446 112.38 42.926 112.38 102.7zm-344.891-356.2498c90.676 19.609 177.98 35.121 265.21 56.273-13.367 75.4178-24.551 113.7098-39.652 186.5698-55.59 7.895-98.52 55.668-98.52 113.41 0 9.41 1.266 18.508 3.411 27.266-67.562-12.039-134.37-25.547-202.7503-40.898 21.902-112.35 59.6023-219.48 72.3013-342.6198zm-105.7495 52.801c25.734.1953 50.969.082 75.781-.0625-10.191 42.4573-67 284.5103-60.297 300.3603 5.6367 13.32 121.5295 34.172 174.7095 43.09-59.152 1.98-124.3695 3.375-191.0495 2.511-.5391-41.875 1.1836-84.645 2.8594-126.06 2.9844-73.992 5.7422-145.84-2.0039-219.8296z" fill="url(#b)"/><path d="m150.254 82.498c192.92 49.957 182.03 47.379 183.44 47.379 6.742 0 7.925-9.641 1.441-11.324l-181.99-47.1949c-3.109-.8047-6.215 1.0469-7.016 4.125-.797 3.082 1.051 6.2188 4.125 7.0156z" fill="url(#c)"/><path d="m112.163 215.098c186.48 39.379 176 37.328 177.17 37.328 6.848 0 7.93-9.953 1.184-11.383l-175.97-37.207c-3.102-.648-6.16 1.324-6.82 4.438-.657 3.109 1.328 6.164 4.437 6.824z" fill="url(#d)"/><path d="m133.094 149.678c186.84 43.066 175.29 40.598 176.55 40.598 6.82 0 7.918-9.828 1.289-11.359l-175.26-40.449c-3.086-.692-6.184 1.222-6.899 4.316-.715 3.09 1.215 6.18 4.313 6.895z" fill="url(#e)"/><path d="m98.9934 269.478c-.957 3.031.7148 6.262 3.7456 7.223 45.238 14.332 91.918 25.504 138.74 33.211 7.563 1.262 9.332-10.125 1.868-11.355-46.281-7.613-92.418-18.656-137.13-32.82-3.036-.969-6.2698.715-7.2269 3.742z" fill="url(#f)"/><path d="m359.624 381.218c-3.883 0-7.036 3.148-7.036 7.035 0 3.019 1.922 5.543 4.59 6.539v11.301h5.035v-11.332c2.598-1.035 4.442-3.543 4.442-6.512 0-3.879-3.149-7.031-7.031-7.031z" fill="url(#g)"/><path d="m317.673 335.168c-.515 8.445-.261 19.348-.265 30.434-10.184 17.207-9.238 38.27.183 53.508 7.887 12.75 25.309 24.16 44.246 24.16 36.105 0 58.879-35.512 47.641-67.289-1.785-5.047-4.515-9.742-7.871-13.988.153-16.375 3.368-37.484-6.406-54.078-18.305-30.641-74.172-26.977-77.527 27.254zm69.469 87.523c-11.93 10.16-30.461 11.945-44.055 4.262-7.668-4.332-12.367-8.489-15.715-13.898-4.925-7.969-7.003-19.723-5.054-28.586 9.265-42.18 64.012-39.387 76.309-4.653 5.219 14.754.387 32.781-11.484 42.875zm-.058-105.32c4.551 11.359 3.754 22.16 3.32 34.059-18.867-13.234-43.578-13.027-61.539 1.121-.047-11.875-.285-22.543 3.516-32.59 9.988-26.625 45.266-25.25 54.703-2.59z" fill="url(#h)"/></svg>