<svg width="72" height="71" viewBox="0 0 72 71" fill="none" xmlns="http://www.w3.org/2000/svg">
<mask id="path-1-outside-1_3195_716" maskUnits="userSpaceOnUse" x="0" y="-0.5" width="72" height="72" fill="black">
<rect fill="white" y="-0.5" width="72" height="72"/>
<path d="M36 0.5C16.7069 0.5 1 16.2057 1 35.5C1 54.7943 16.6953 70.5 36 70.5C55.3046 70.5 71 54.8046 71 35.5C71 16.1953 55.2943 0.5 36 0.5ZM69.3913 35.5C69.3913 37.1406 69.2709 38.7482 69.0413 40.3344C67.4662 40.2251 66.1758 40.422 65.0493 40.9799C64.721 41.1441 64.3821 41.341 64.0322 41.5378C63.7804 41.6798 63.5402 41.8223 63.2774 41.9643C62.8836 42.1829 62.4133 42.1612 62.0196 41.9205C61.6369 41.6798 61.4178 41.2644 61.4289 40.8047C61.5055 39.2518 61.6913 37.7311 61.9758 36.2986C62.0196 36.0801 61.9647 35.8394 61.8337 35.6642C61.7023 35.4889 61.4949 35.3691 61.2648 35.3469C59.8866 35.2155 58.8584 33.8373 58.5522 32.5468C58.1695 30.9939 58.4868 29.2874 58.7602 27.7784C58.804 27.5704 58.7491 27.3519 58.6288 27.1766C58.5084 27.0014 58.3116 26.8816 58.1036 26.8483C57.2068 26.6952 56.2989 26.5749 55.38 26.4546C55.4127 26.225 55.4454 25.9953 55.4454 25.7546C55.4454 22.9545 53.1705 20.6796 50.3704 20.6796C49.9001 20.6796 49.4514 20.7672 49.0143 20.8875L49.0254 20.8326C49.2006 19.4001 49.3753 17.9233 49.3099 16.5012C49.1679 13.0234 49.2661 9.38082 51.8583 6.15461C62.304 11.7876 69.3918 22.8348 69.3918 35.4996L69.3913 35.5ZM49.2114 57.5168C47.2974 57.5168 45.7335 55.9639 45.7335 54.039C45.7335 52.125 47.2864 50.5611 49.2114 50.5611C51.1363 50.5611 52.6892 52.114 52.6892 54.039C52.6897 55.9529 51.1363 57.5168 49.2114 57.5168ZM48.4133 49.0514C46.7068 49.3248 45.2959 50.4406 44.6071 51.9608L23.0273 43.9109C23.0928 43.5825 23.1255 43.2548 23.1255 42.9048C23.1255 41.144 22.2176 39.5905 20.8506 38.6721L30.9238 16.4581C31.3503 16.5784 31.7989 16.655 32.2582 16.655C33.5926 16.655 34.7956 16.1298 35.7034 15.2879L45.9735 23.2829C45.5686 24.005 45.3279 24.8253 45.3279 25.711C45.3279 28.1501 47.056 30.1843 49.3527 30.6764L48.4133 49.0514ZM21.5187 42.9042C21.5187 44.8182 19.9658 46.3821 18.0409 46.3821C16.127 46.3821 14.5631 44.8292 14.5631 42.9042C14.5631 40.9903 16.116 39.4264 18.0409 39.4264C19.9549 39.4375 21.5187 40.9904 21.5187 42.9042ZM28.7812 11.5909C28.7812 9.67693 30.3341 8.11307 32.259 8.11307C34.173 8.11307 35.7369 9.66597 35.7369 11.5909C35.7369 13.5159 34.1839 15.0687 32.259 15.0687C31.756 15.0687 31.2857 14.9595 30.8593 14.7737C30.8482 14.7626 30.8376 14.752 30.8265 14.752H30.8049C29.6125 14.183 28.7812 12.9912 28.7812 11.5909L28.7812 11.5909ZM37.1811 2.13051C41.9168 2.29465 46.4012 3.44326 50.4376 5.37876C47.6923 8.96641 47.583 12.8491 47.7361 16.535C47.791 17.8256 47.6269 19.2364 47.4627 20.6035L47.3424 21.6206C47.3424 21.6423 47.3534 21.6755 47.3534 21.6971C47.222 21.8064 47.08 21.9051 46.9597 22.0254L36.6897 14.0304C37.0945 13.3084 37.3457 12.4775 37.3457 11.5913C37.3457 9.9398 36.5366 8.4739 35.3004 7.54437C36.1096 5.66315 36.81 3.90232 37.4551 2.22863C37.3458 2.20698 37.2693 2.16318 37.1816 2.13045L37.1811 2.13051ZM50.3937 29.2003C48.4798 29.2003 46.9159 27.6474 46.9159 25.7225C46.9159 23.8085 48.4688 22.2447 50.3937 22.2447C52.3187 22.2447 53.8716 23.7976 53.8716 25.7225C53.8716 27.647 52.3076 29.2003 50.3937 29.2003ZM35.7709 2.10859C35.2019 3.59601 34.568 5.14892 33.868 6.80044C33.3539 6.62521 32.8181 6.51595 32.2602 6.51595C29.5915 6.51595 27.4152 8.60509 27.2184 11.23C25.1186 11.23 23.0184 11.2189 20.9187 11.1972C19.114 11.1972 17.1453 11.4158 16.2047 13.013C15.2424 14.6424 16.0733 16.3378 16.7953 17.8363C17.386 19.0503 17.9439 20.1989 17.5718 21.1506C17.2767 21.8943 16.4454 22.3756 15.5703 22.8786C15.2314 23.0755 14.9031 23.2613 14.5859 23.4693C12.5078 24.869 11.1845 27.2865 11.1517 29.7911C11.1517 30.1959 11.1734 30.6114 11.2066 31.0268C11.2721 31.9125 11.327 32.7549 11.0314 33.4548C10.3969 34.8984 8.45035 35.2811 6.55804 35.6533C6.25189 35.7081 5.94574 35.7736 5.65017 35.8391C4.68793 36.0359 3.69237 36.331 2.64258 36.7469C2.61992 36.3204 2.60884 35.9156 2.60884 35.5002C2.60884 17.1688 17.4624 2.2404 35.7707 2.10891L35.7709 2.10859ZM2.74054 38.4208C3.8891 37.9505 4.95008 37.6006 5.96713 37.3926C6.25162 37.3272 6.5467 37.2723 6.85284 37.2174C9.04021 36.7909 11.523 36.3095 12.4853 34.0894C12.9445 33.0395 12.868 31.9564 12.7914 30.9177C12.7698 30.5456 12.7366 30.174 12.7366 29.813C12.7693 27.8552 13.8302 25.8975 15.4602 24.8039C15.7447 24.6181 16.0508 24.4429 16.357 24.2681C17.3962 23.6775 18.5665 23.0103 19.0584 21.7308C19.6818 20.123 18.9053 18.5369 18.2271 17.1371C17.4944 15.6275 17.0785 14.6541 17.571 13.8339C18.1067 12.926 19.5614 12.8057 20.9069 12.8057C23.0504 12.8273 25.1945 12.8273 27.3491 12.8384C27.6663 14.0741 28.4211 15.135 29.4488 15.8243L19.3761 38.0371C18.9497 37.9167 18.501 37.8402 18.0417 37.8402C15.2416 37.8402 12.9667 40.1151 12.9667 42.9153C12.9667 45.7154 15.2416 47.9903 18.0417 47.9903C19.934 47.9903 21.5634 46.9405 22.4385 45.4093L39.9385 51.9391C39.7854 51.9607 39.6434 51.9718 39.4899 52.0045C38.1665 52.3434 37.3569 53.4043 36.6353 54.3449C36.2415 54.8701 35.8588 55.362 35.4324 55.723C34.1196 56.795 32.6654 57.0685 31.2652 57.3308C28.9248 57.7684 26.5073 58.2276 25.5889 62.3072C25.3703 63.2916 24.9433 64.5494 24.4841 65.8837C24.3859 66.1682 24.2872 66.4527 24.189 66.7478C12.4638 62.285 3.87765 51.4031 2.74072 38.4199L2.74054 38.4208ZM25.7086 67.2618C25.8068 66.9667 25.9055 66.6712 26.0037 66.3867C26.474 65.0085 26.9227 63.718 27.1628 62.6459C27.8517 59.5945 29.3286 59.31 31.5707 58.8945C33.102 58.61 34.8301 58.2822 36.4595 56.9478C37.0391 56.4664 37.4877 55.8758 37.9253 55.3072C38.5597 54.4759 39.1066 53.7543 39.894 53.5464C40.452 53.4044 41.1519 53.5575 41.7642 53.6884C42.5628 53.8526 43.3609 54.0384 44.1706 54.2136C44.2687 56.9261 46.4893 59.1135 49.2346 59.1135C50.8207 59.1135 52.2205 58.3698 53.15 57.2212C53.4562 57.4835 53.7517 57.7569 54.0468 58.0303C55.009 58.9271 56.1687 60.0867 57.1204 61.3552C51.3675 66.0581 44.0173 68.8799 36.0227 68.8799C32.4134 68.8915 28.9465 68.3225 25.7088 67.2616L25.7086 67.2618ZM58.3123 60.3166C57.3063 58.9822 56.1028 57.7898 55.1185 56.8604C54.7464 56.5105 54.3531 56.1605 53.9483 55.8211C54.1562 55.2632 54.2871 54.662 54.2871 54.0381C54.2871 51.5113 52.4276 49.4333 50.0106 49.0396L50.9401 30.7417C52.6899 30.5448 54.1667 29.4839 54.9216 27.9637C55.6326 28.0619 56.3541 28.1606 57.0546 28.2588C56.8139 29.6807 56.617 31.3213 57.0108 32.8853C57.3718 34.4382 58.5309 36.1557 60.2812 36.7241C60.0626 38.0036 59.9091 39.3379 59.8436 40.6945C59.7998 41.7338 60.2923 42.6849 61.178 43.2429C61.6483 43.538 62.1735 43.6916 62.6982 43.6916C63.1574 43.6916 63.6277 43.5713 64.0543 43.3417C64.3166 43.1996 64.59 43.0466 64.8529 42.893C65.1701 42.7072 65.4762 42.532 65.7824 42.3789C66.6026 41.9741 67.5759 41.821 68.79 41.8869C67.358 49.1504 63.5955 55.5701 58.3125 60.3176L58.3123 60.3166Z"/>
</mask>
<path d="M36 0.5C16.7069 0.5 1 16.2057 1 35.5C1 54.7943 16.6953 70.5 36 70.5C55.3046 70.5 71 54.8046 71 35.5C71 16.1953 55.2943 0.5 36 0.5ZM69.3913 35.5C69.3913 37.1406 69.2709 38.7482 69.0413 40.3344C67.4662 40.2251 66.1758 40.422 65.0493 40.9799C64.721 41.1441 64.3821 41.341 64.0322 41.5378C63.7804 41.6798 63.5402 41.8223 63.2774 41.9643C62.8836 42.1829 62.4133 42.1612 62.0196 41.9205C61.6369 41.6798 61.4178 41.2644 61.4289 40.8047C61.5055 39.2518 61.6913 37.7311 61.9758 36.2986C62.0196 36.0801 61.9647 35.8394 61.8337 35.6642C61.7023 35.4889 61.4949 35.3691 61.2648 35.3469C59.8866 35.2155 58.8584 33.8373 58.5522 32.5468C58.1695 30.9939 58.4868 29.2874 58.7602 27.7784C58.804 27.5704 58.7491 27.3519 58.6288 27.1766C58.5084 27.0014 58.3116 26.8816 58.1036 26.8483C57.2068 26.6952 56.2989 26.5749 55.38 26.4546C55.4127 26.225 55.4454 25.9953 55.4454 25.7546C55.4454 22.9545 53.1705 20.6796 50.3704 20.6796C49.9001 20.6796 49.4514 20.7672 49.0143 20.8875L49.0254 20.8326C49.2006 19.4001 49.3753 17.9233 49.3099 16.5012C49.1679 13.0234 49.2661 9.38082 51.8583 6.15461C62.304 11.7876 69.3918 22.8348 69.3918 35.4996L69.3913 35.5ZM49.2114 57.5168C47.2974 57.5168 45.7335 55.9639 45.7335 54.039C45.7335 52.125 47.2864 50.5611 49.2114 50.5611C51.1363 50.5611 52.6892 52.114 52.6892 54.039C52.6897 55.9529 51.1363 57.5168 49.2114 57.5168ZM48.4133 49.0514C46.7068 49.3248 45.2959 50.4406 44.6071 51.9608L23.0273 43.9109C23.0928 43.5825 23.1255 43.2548 23.1255 42.9048C23.1255 41.144 22.2176 39.5905 20.8506 38.6721L30.9238 16.4581C31.3503 16.5784 31.7989 16.655 32.2582 16.655C33.5926 16.655 34.7956 16.1298 35.7034 15.2879L45.9735 23.2829C45.5686 24.005 45.3279 24.8253 45.3279 25.711C45.3279 28.1501 47.056 30.1843 49.3527 30.6764L48.4133 49.0514ZM21.5187 42.9042C21.5187 44.8182 19.9658 46.3821 18.0409 46.3821C16.127 46.3821 14.5631 44.8292 14.5631 42.9042C14.5631 40.9903 16.116 39.4264 18.0409 39.4264C19.9549 39.4375 21.5187 40.9904 21.5187 42.9042ZM28.7812 11.5909C28.7812 9.67693 30.3341 8.11307 32.259 8.11307C34.173 8.11307 35.7369 9.66597 35.7369 11.5909C35.7369 13.5159 34.1839 15.0687 32.259 15.0687C31.756 15.0687 31.2857 14.9595 30.8593 14.7737C30.8482 14.7626 30.8376 14.752 30.8265 14.752H30.8049C29.6125 14.183 28.7812 12.9912 28.7812 11.5909L28.7812 11.5909ZM37.1811 2.13051C41.9168 2.29465 46.4012 3.44326 50.4376 5.37876C47.6923 8.96641 47.583 12.8491 47.7361 16.535C47.791 17.8256 47.6269 19.2364 47.4627 20.6035L47.3424 21.6206C47.3424 21.6423 47.3534 21.6755 47.3534 21.6971C47.222 21.8064 47.08 21.9051 46.9597 22.0254L36.6897 14.0304C37.0945 13.3084 37.3457 12.4775 37.3457 11.5913C37.3457 9.9398 36.5366 8.4739 35.3004 7.54437C36.1096 5.66315 36.81 3.90232 37.4551 2.22863C37.3458 2.20698 37.2693 2.16318 37.1816 2.13045L37.1811 2.13051ZM50.3937 29.2003C48.4798 29.2003 46.9159 27.6474 46.9159 25.7225C46.9159 23.8085 48.4688 22.2447 50.3937 22.2447C52.3187 22.2447 53.8716 23.7976 53.8716 25.7225C53.8716 27.647 52.3076 29.2003 50.3937 29.2003ZM35.7709 2.10859C35.2019 3.59601 34.568 5.14892 33.868 6.80044C33.3539 6.62521 32.8181 6.51595 32.2602 6.51595C29.5915 6.51595 27.4152 8.60509 27.2184 11.23C25.1186 11.23 23.0184 11.2189 20.9187 11.1972C19.114 11.1972 17.1453 11.4158 16.2047 13.013C15.2424 14.6424 16.0733 16.3378 16.7953 17.8363C17.386 19.0503 17.9439 20.1989 17.5718 21.1506C17.2767 21.8943 16.4454 22.3756 15.5703 22.8786C15.2314 23.0755 14.9031 23.2613 14.5859 23.4693C12.5078 24.869 11.1845 27.2865 11.1517 29.7911C11.1517 30.1959 11.1734 30.6114 11.2066 31.0268C11.2721 31.9125 11.327 32.7549 11.0314 33.4548C10.3969 34.8984 8.45035 35.2811 6.55804 35.6533C6.25189 35.7081 5.94574 35.7736 5.65017 35.8391C4.68793 36.0359 3.69237 36.331 2.64258 36.7469C2.61992 36.3204 2.60884 35.9156 2.60884 35.5002C2.60884 17.1688 17.4624 2.2404 35.7707 2.10891L35.7709 2.10859ZM2.74054 38.4208C3.8891 37.9505 4.95008 37.6006 5.96713 37.3926C6.25162 37.3272 6.5467 37.2723 6.85284 37.2174C9.04021 36.7909 11.523 36.3095 12.4853 34.0894C12.9445 33.0395 12.868 31.9564 12.7914 30.9177C12.7698 30.5456 12.7366 30.174 12.7366 29.813C12.7693 27.8552 13.8302 25.8975 15.4602 24.8039C15.7447 24.6181 16.0508 24.4429 16.357 24.2681C17.3962 23.6775 18.5665 23.0103 19.0584 21.7308C19.6818 20.123 18.9053 18.5369 18.2271 17.1371C17.4944 15.6275 17.0785 14.6541 17.571 13.8339C18.1067 12.926 19.5614 12.8057 20.9069 12.8057C23.0504 12.8273 25.1945 12.8273 27.3491 12.8384C27.6663 14.0741 28.4211 15.135 29.4488 15.8243L19.3761 38.0371C18.9497 37.9167 18.501 37.8402 18.0417 37.8402C15.2416 37.8402 12.9667 40.1151 12.9667 42.9153C12.9667 45.7154 15.2416 47.9903 18.0417 47.9903C19.934 47.9903 21.5634 46.9405 22.4385 45.4093L39.9385 51.9391C39.7854 51.9607 39.6434 51.9718 39.4899 52.0045C38.1665 52.3434 37.3569 53.4043 36.6353 54.3449C36.2415 54.8701 35.8588 55.362 35.4324 55.723C34.1196 56.795 32.6654 57.0685 31.2652 57.3308C28.9248 57.7684 26.5073 58.2276 25.5889 62.3072C25.3703 63.2916 24.9433 64.5494 24.4841 65.8837C24.3859 66.1682 24.2872 66.4527 24.189 66.7478C12.4638 62.285 3.87765 51.4031 2.74072 38.4199L2.74054 38.4208ZM25.7086 67.2618C25.8068 66.9667 25.9055 66.6712 26.0037 66.3867C26.474 65.0085 26.9227 63.718 27.1628 62.6459C27.8517 59.5945 29.3286 59.31 31.5707 58.8945C33.102 58.61 34.8301 58.2822 36.4595 56.9478C37.0391 56.4664 37.4877 55.8758 37.9253 55.3072C38.5597 54.4759 39.1066 53.7543 39.894 53.5464C40.452 53.4044 41.1519 53.5575 41.7642 53.6884C42.5628 53.8526 43.3609 54.0384 44.1706 54.2136C44.2687 56.9261 46.4893 59.1135 49.2346 59.1135C50.8207 59.1135 52.2205 58.3698 53.15 57.2212C53.4562 57.4835 53.7517 57.7569 54.0468 58.0303C55.009 58.9271 56.1687 60.0867 57.1204 61.3552C51.3675 66.0581 44.0173 68.8799 36.0227 68.8799C32.4134 68.8915 28.9465 68.3225 25.7088 67.2616L25.7086 67.2618ZM58.3123 60.3166C57.3063 58.9822 56.1028 57.7898 55.1185 56.8604C54.7464 56.5105 54.3531 56.1605 53.9483 55.8211C54.1562 55.2632 54.2871 54.662 54.2871 54.0381C54.2871 51.5113 52.4276 49.4333 50.0106 49.0396L50.9401 30.7417C52.6899 30.5448 54.1667 29.4839 54.9216 27.9637C55.6326 28.0619 56.3541 28.1606 57.0546 28.2588C56.8139 29.6807 56.617 31.3213 57.0108 32.8853C57.3718 34.4382 58.5309 36.1557 60.2812 36.7241C60.0626 38.0036 59.9091 39.3379 59.8436 40.6945C59.7998 41.7338 60.2923 42.6849 61.178 43.2429C61.6483 43.538 62.1735 43.6916 62.6982 43.6916C63.1574 43.6916 63.6277 43.5713 64.0543 43.3417C64.3166 43.1996 64.59 43.0466 64.8529 42.893C65.1701 42.7072 65.4762 42.532 65.7824 42.3789C66.6026 41.9741 67.5759 41.821 68.79 41.8869C67.358 49.1504 63.5955 55.5701 58.3125 60.3176L58.3123 60.3166Z" fill="black"/>
<path d="M36 0.5C16.7069 0.5 1 16.2057 1 35.5C1 54.7943 16.6953 70.5 36 70.5C55.3046 70.5 71 54.8046 71 35.5C71 16.1953 55.2943 0.5 36 0.5ZM69.3913 35.5C69.3913 37.1406 69.2709 38.7482 69.0413 40.3344C67.4662 40.2251 66.1758 40.422 65.0493 40.9799C64.721 41.1441 64.3821 41.341 64.0322 41.5378C63.7804 41.6798 63.5402 41.8223 63.2774 41.9643C62.8836 42.1829 62.4133 42.1612 62.0196 41.9205C61.6369 41.6798 61.4178 41.2644 61.4289 40.8047C61.5055 39.2518 61.6913 37.7311 61.9758 36.2986C62.0196 36.0801 61.9647 35.8394 61.8337 35.6642C61.7023 35.4889 61.4949 35.3691 61.2648 35.3469C59.8866 35.2155 58.8584 33.8373 58.5522 32.5468C58.1695 30.9939 58.4868 29.2874 58.7602 27.7784C58.804 27.5704 58.7491 27.3519 58.6288 27.1766C58.5084 27.0014 58.3116 26.8816 58.1036 26.8483C57.2068 26.6952 56.2989 26.5749 55.38 26.4546C55.4127 26.225 55.4454 25.9953 55.4454 25.7546C55.4454 22.9545 53.1705 20.6796 50.3704 20.6796C49.9001 20.6796 49.4514 20.7672 49.0143 20.8875L49.0254 20.8326C49.2006 19.4001 49.3753 17.9233 49.3099 16.5012C49.1679 13.0234 49.2661 9.38082 51.8583 6.15461C62.304 11.7876 69.3918 22.8348 69.3918 35.4996L69.3913 35.5ZM49.2114 57.5168C47.2974 57.5168 45.7335 55.9639 45.7335 54.039C45.7335 52.125 47.2864 50.5611 49.2114 50.5611C51.1363 50.5611 52.6892 52.114 52.6892 54.039C52.6897 55.9529 51.1363 57.5168 49.2114 57.5168ZM48.4133 49.0514C46.7068 49.3248 45.2959 50.4406 44.6071 51.9608L23.0273 43.9109C23.0928 43.5825 23.1255 43.2548 23.1255 42.9048C23.1255 41.144 22.2176 39.5905 20.8506 38.6721L30.9238 16.4581C31.3503 16.5784 31.7989 16.655 32.2582 16.655C33.5926 16.655 34.7956 16.1298 35.7034 15.2879L45.9735 23.2829C45.5686 24.005 45.3279 24.8253 45.3279 25.711C45.3279 28.1501 47.056 30.1843 49.3527 30.6764L48.4133 49.0514ZM21.5187 42.9042C21.5187 44.8182 19.9658 46.3821 18.0409 46.3821C16.127 46.3821 14.5631 44.8292 14.5631 42.9042C14.5631 40.9903 16.116 39.4264 18.0409 39.4264C19.9549 39.4375 21.5187 40.9904 21.5187 42.9042ZM28.7812 11.5909C28.7812 9.67693 30.3341 8.11307 32.259 8.11307C34.173 8.11307 35.7369 9.66597 35.7369 11.5909C35.7369 13.5159 34.1839 15.0687 32.259 15.0687C31.756 15.0687 31.2857 14.9595 30.8593 14.7737C30.8482 14.7626 30.8376 14.752 30.8265 14.752H30.8049C29.6125 14.183 28.7812 12.9912 28.7812 11.5909L28.7812 11.5909ZM37.1811 2.13051C41.9168 2.29465 46.4012 3.44326 50.4376 5.37876C47.6923 8.96641 47.583 12.8491 47.7361 16.535C47.791 17.8256 47.6269 19.2364 47.4627 20.6035L47.3424 21.6206C47.3424 21.6423 47.3534 21.6755 47.3534 21.6971C47.222 21.8064 47.08 21.9051 46.9597 22.0254L36.6897 14.0304C37.0945 13.3084 37.3457 12.4775 37.3457 11.5913C37.3457 9.9398 36.5366 8.4739 35.3004 7.54437C36.1096 5.66315 36.81 3.90232 37.4551 2.22863C37.3458 2.20698 37.2693 2.16318 37.1816 2.13045L37.1811 2.13051ZM50.3937 29.2003C48.4798 29.2003 46.9159 27.6474 46.9159 25.7225C46.9159 23.8085 48.4688 22.2447 50.3937 22.2447C52.3187 22.2447 53.8716 23.7976 53.8716 25.7225C53.8716 27.647 52.3076 29.2003 50.3937 29.2003ZM35.7709 2.10859C35.2019 3.59601 34.568 5.14892 33.868 6.80044C33.3539 6.62521 32.8181 6.51595 32.2602 6.51595C29.5915 6.51595 27.4152 8.60509 27.2184 11.23C25.1186 11.23 23.0184 11.2189 20.9187 11.1972C19.114 11.1972 17.1453 11.4158 16.2047 13.013C15.2424 14.6424 16.0733 16.3378 16.7953 17.8363C17.386 19.0503 17.9439 20.1989 17.5718 21.1506C17.2767 21.8943 16.4454 22.3756 15.5703 22.8786C15.2314 23.0755 14.9031 23.2613 14.5859 23.4693C12.5078 24.869 11.1845 27.2865 11.1517 29.7911C11.1517 30.1959 11.1734 30.6114 11.2066 31.0268C11.2721 31.9125 11.327 32.7549 11.0314 33.4548C10.3969 34.8984 8.45035 35.2811 6.55804 35.6533C6.25189 35.7081 5.94574 35.7736 5.65017 35.8391C4.68793 36.0359 3.69237 36.331 2.64258 36.7469C2.61992 36.3204 2.60884 35.9156 2.60884 35.5002C2.60884 17.1688 17.4624 2.2404 35.7707 2.10891L35.7709 2.10859ZM2.74054 38.4208C3.8891 37.9505 4.95008 37.6006 5.96713 37.3926C6.25162 37.3272 6.5467 37.2723 6.85284 37.2174C9.04021 36.7909 11.523 36.3095 12.4853 34.0894C12.9445 33.0395 12.868 31.9564 12.7914 30.9177C12.7698 30.5456 12.7366 30.174 12.7366 29.813C12.7693 27.8552 13.8302 25.8975 15.4602 24.8039C15.7447 24.6181 16.0508 24.4429 16.357 24.2681C17.3962 23.6775 18.5665 23.0103 19.0584 21.7308C19.6818 20.123 18.9053 18.5369 18.2271 17.1371C17.4944 15.6275 17.0785 14.6541 17.571 13.8339C18.1067 12.926 19.5614 12.8057 20.9069 12.8057C23.0504 12.8273 25.1945 12.8273 27.3491 12.8384C27.6663 14.0741 28.4211 15.135 29.4488 15.8243L19.3761 38.0371C18.9497 37.9167 18.501 37.8402 18.0417 37.8402C15.2416 37.8402 12.9667 40.1151 12.9667 42.9153C12.9667 45.7154 15.2416 47.9903 18.0417 47.9903C19.934 47.9903 21.5634 46.9405 22.4385 45.4093L39.9385 51.9391C39.7854 51.9607 39.6434 51.9718 39.4899 52.0045C38.1665 52.3434 37.3569 53.4043 36.6353 54.3449C36.2415 54.8701 35.8588 55.362 35.4324 55.723C34.1196 56.795 32.6654 57.0685 31.2652 57.3308C28.9248 57.7684 26.5073 58.2276 25.5889 62.3072C25.3703 63.2916 24.9433 64.5494 24.4841 65.8837C24.3859 66.1682 24.2872 66.4527 24.189 66.7478C12.4638 62.285 3.87765 51.4031 2.74072 38.4199L2.74054 38.4208ZM25.7086 67.2618C25.8068 66.9667 25.9055 66.6712 26.0037 66.3867C26.474 65.0085 26.9227 63.718 27.1628 62.6459C27.8517 59.5945 29.3286 59.31 31.5707 58.8945C33.102 58.61 34.8301 58.2822 36.4595 56.9478C37.0391 56.4664 37.4877 55.8758 37.9253 55.3072C38.5597 54.4759 39.1066 53.7543 39.894 53.5464C40.452 53.4044 41.1519 53.5575 41.7642 53.6884C42.5628 53.8526 43.3609 54.0384 44.1706 54.2136C44.2687 56.9261 46.4893 59.1135 49.2346 59.1135C50.8207 59.1135 52.2205 58.3698 53.15 57.2212C53.4562 57.4835 53.7517 57.7569 54.0468 58.0303C55.009 58.9271 56.1687 60.0867 57.1204 61.3552C51.3675 66.0581 44.0173 68.8799 36.0227 68.8799C32.4134 68.8915 28.9465 68.3225 25.7088 67.2616L25.7086 67.2618ZM58.3123 60.3166C57.3063 58.9822 56.1028 57.7898 55.1185 56.8604C54.7464 56.5105 54.3531 56.1605 53.9483 55.8211C54.1562 55.2632 54.2871 54.662 54.2871 54.0381C54.2871 51.5113 52.4276 49.4333 50.0106 49.0396L50.9401 30.7417C52.6899 30.5448 54.1667 29.4839 54.9216 27.9637C55.6326 28.0619 56.3541 28.1606 57.0546 28.2588C56.8139 29.6807 56.617 31.3213 57.0108 32.8853C57.3718 34.4382 58.5309 36.1557 60.2812 36.7241C60.0626 38.0036 59.9091 39.3379 59.8436 40.6945C59.7998 41.7338 60.2923 42.6849 61.178 43.2429C61.6483 43.538 62.1735 43.6916 62.6982 43.6916C63.1574 43.6916 63.6277 43.5713 64.0543 43.3417C64.3166 43.1996 64.59 43.0466 64.8529 42.893C65.1701 42.7072 65.4762 42.532 65.7824 42.3789C66.6026 41.9741 67.5759 41.821 68.79 41.8869C67.358 49.1504 63.5955 55.5701 58.3125 60.3176L58.3123 60.3166Z" stroke="black" mask="url(#path-1-outside-1_3195_716)"/>
</svg>
