<svg fill="none" height="415" viewBox="0 0 497 415" width="497" xmlns="http://www.w3.org/2000/svg" xmlns:xlink="http://www.w3.org/1999/xlink"><linearGradient id="a"><stop offset="0" stop-color="#199dff"/><stop offset="1" stop-color="#0083e4"/></linearGradient><linearGradient id="b" gradientUnits="userSpaceOnUse" x1="248.409" x2="248.409" xlink:href="#a" y1="0" y2="414.86"/><linearGradient id="c" gradientUnits="userSpaceOnUse" x1="395.246" x2="395.246" xlink:href="#a" y1="178.664" y2="235.785"/><path d="m154.005 405.901c44.324 14.09 200.09 10.082 200.09-1.805 0-7.851-42.016-8.886-46.566-9.195-8.133-.558-16.763-1.437-25.36-1.918 38.625-19.613 70.504-52.082 89.297-91.121 90.148 25.902 161.03-75.359 106.02-151.16-1.16-20.734-.789-50.621-2.531-70.9409-9.261-101.36-121.96-97.805-146.46-35.781-4.398 11.176-6.656 23.703-7.043 38.035-12.031-12.012-27.258-23.695-42.008-31.457-130.37-67.527-277.31969 30.898-279.3796908 166.1999-2.3827992 86.938 61.6799908 170.51 153.9496908 189.14zm-142.2905-192.55c30.055 11.832 60.719 19.5 93.4385 23.383 1.168 26.383 3.394 49.836 9.972 76.688-19.2418 7.293-36.4338 18.09-50.5118 31.973-34.016-33.852-54.77299-80.641-52.898-132.04zm120.1405-94.125c19.23 6.926 39.402 11.012 58.98 11.914 1.453 31.133 2.183 63.156 2.152 96.449-28.441 1.508-53.105 1.117-76.734-1.207-1.301-37.141 4.75-74.871 15.602-107.16zm-49.9385-40.8159c23.4265-18.312 51.2465-31.051 81.2465-35.969-14.141 12.93-27.691 34.379-38.227 61.7229-15.613-6.6991-29.7425-15.1479-43.0205-25.7539zm236.3105 16.879c.671.7227 2.3 2.4492 3.031 3.2188-.028 7.2651-.09 17.4381.828 40.8361-20.562 21.773-29.266 48.922-24.805 78.926-5.543.543-11.07 1.098-16.582 1.672 2.015-40.633-3.117-70.098-12.758-100 14.203-4.934 38.902-17.953 50.285-24.6482zm48.035 16.6559c.039-12.0939 1.687-37.1129 5.484-46.0199 8.227-19.715 26.82-26.387 43.883-18.039 6.012 5.3008 9.851 12.297 11.414 20.098 3.238 16.398 3.609 30.129 3.648 46.0469-20.148-7.926-42.52-8.762-64.43-2.086zm80.645 24.184c32.785 24.949 41.98 74.41 20.863 110.76-6.954 11.977-16.825 21.238-33.024 30.977-35.207 21.121-72.245 6.465-71.479 6.555-.766-.543-43.125-11.781-53.793-62.23-16.754-78.312 75.909-132.8902 137.429-86.059zm-330.18 101.85c27.047 2.563 50.352 2.453 76.211 1.106-.125 20.824-.512 42.117-1.207 64.016-23.539-1.817-44.832.347-65.68 6.593-6.094-25.273-8.25-47.859-9.325-71.715zm151.619-5.195c-2.394 27.133-7.187 58.914-15.698 84.68-16.258-6.504-32.824-10.992-49.445-13.273.718-22.492 1.121-44.355 1.242-65.723 20.516-1.289 40.734-3.266 63.902-5.684zm31.164-3.168c6.321 23.824 21.032 45.023 42.735 57.801 3.238 2.734 6.906 5.101 10.742 7.133-9.93 21.359-24.121 40.852-41.488 56.672-15.5-11.809-31.691-21.512-48.27-29.125 9.109-27.191 14.492-62.035 16.797-90.516 6.476-.676 12.972-1.332 19.483-1.965zm-74.733 144.55c-8.313 11.918-14.336 20.535-25.984 22.637 1.73-27.918 3.058-54.867 4-81.004 15.43 2.219 30.824 6.422 45.957 12.508-6.415 16.738-14.445 32.211-23.973 45.859zm34.522-41.23c14.781 6.863 29.235 15.547 43.161 25.945-22.73 18.176-48.988 30.523-79.23 36.188 9.644-10.52 25.249-34.082 36.069-62.133zm-67.976-18.32c-.961 26.844-2.325 54.543-4.122 83.289-3.394-.254-6.492-1.297-10.906-3.508-25.191-12.621-39.527-46.398-47.266-73.383 19.777-5.988 39.676-8.199 62.293-6.398zm-34.34 80.164c-32.25-6.375-60.5045-21.027-83.8285-41.473 12.586-12.297 27.8555-21.938 44.9735-28.594 7.332 25.391 18.895 52.398 38.855 70.066zm112.199-173.65c-23.59 2.472-44.042 4.492-64.687 5.808.019-32.957-.696-64.688-2.125-95.543 18.43-.16 36.707-2.906 54.594-8.047 9.695 30.047 14.421 58.762 12.218 97.781zm-67.354-101.34c-1.422-27.0232-3.422-53.3792-5.977-79.3202 19.715 2.5234 36.949 24.801 45.992 43.891 3.848 8.1211 7.812 17.9802 11.406 28.0702-16.852 4.797-34.09 7.269-51.422 7.359zm-17.383-77.7462c2.488 25.367 4.453 51.137 5.851 77.5512-18.277-.996-36.852-4.817-54.551-11.191 13.902-36.0312 32.695-60.0312 48.699-66.3592zm158.409-1.1797c26.133-44.44902 112.99-43.91001 120.64 39.926 1.317 15.414 1.383 36.8199 1.926 56.1989-10.008-9.398-15.312-13.141-23.199-17.535.012-18.309-.066-34.3549-3.883-53.7109-1.558-7.7461-4.921-14.984-9.679-20.867-17.543-22.297-48.508-18.891-65.707.8398-5.246 6.2461-6.996 14.062-9.067 21.934-.089.3633-3.527 33.1451-2.218 47.5471-.204.594-.317 1.223-.321 1.867l.539.012c.024.168.067.262.09.426-5.406 2.625-10.227 5.011-18.66 11.621-.957-33.2704-3.105-67.5434 9.539-88.2584zm-32.979 45.984c-10.75 6.1289-32.684 17.6879-45.613 22.1949-8.602-24.2419-18.527-47.9019-37.566-65.1519 33.52 6.7695 60.241 21.316 83.179 42.957zm-236.9905-.9258c14.629 11.984 30.4495 21.5507 48.1525 29.0777-11.18 33.156-17.559 72.832-16.328 110.09-53.8955-6.656-87.0435-22.195-92.1415-23.617 4.8164-45.34 27.363-86.266 60.316-115.5497z" fill="url(#b)"/><path d="m391.285 208.471c-.555 7.98 1.113 17.129 3.992 24.234.554 1.367 1.41 2.894 2.875 3.066 1.023.117 2.015-.527 2.59-1.382.574-.856.808-1.887.992-2.903 1.433-7.82.754-15.852.051-23.77 6.156-3.097 9.976-10.648 8.328-17.418-1.879-7.711-10.531-13.059-18.27-11.297l-.911.238c-7.617 2.235-12.561 11.121-10.444 18.77 1.406 5.079 5.777 8.969 10.797 10.461z" fill="url(#c)"/></svg>