<svg fill="none" height="436" viewBox="0 0 548 436" width="548" xmlns="http://www.w3.org/2000/svg" xmlns:xlink="http://www.w3.org/1999/xlink"><mask id="a" fill="#fff"><path d="m502.4 422.69h-174.96v-123.77c0-13.457-10.945-24.402-24.402-24.402h-58.074c-13.457 0-24.402 10.945-24.402 24.402v123.77l-174.9599-.004c-3.6211 0-6.5625 2.942-6.5625 6.563s2.9414 6.562 6.5625 6.562h456.7899c3.621 0 6.563-2.941 6.563-6.562s-2.93-6.563-6.551-6.563z" fill="#fff"/></mask><mask id="b" fill="#fff"><path d="m267.44 164.41v96.984h13.125v-96.984c-2.152.262-4.332.43-6.563.43-2.222 0-4.402-.176-6.562-.43z" fill="#fff"/></mask><mask id="c" fill="#fff"><path d="m274 151.71c23.066 0 41.824-18.77 41.824-41.824 0-23.055-18.77-41.824-41.824-41.824s-41.824 18.77-41.824 41.824c0 23.055 18.758 41.824 41.824 41.824z" fill="#fff"/></mask><mask id="d" fill="#fff"><path d="m162.11 149.25c1.672 0 3.359-.64 4.637-1.926 2.562-2.562 2.562-6.718 0-9.285-7.524-7.523-11.672-17.527-11.672-28.168 0-10.6408 4.148-20.6408 11.672-28.1678 2.562-2.5625 2.562-6.7188 0-9.2852-2.563-2.5625-6.719-2.5625-9.285 0-10.012 10-15.516 23.301-15.516 37.441s5.511 27.441 15.516 37.441c1.289 1.305 2.968 1.949 4.648 1.949z" fill="#fff"/></mask><mask id="e" fill="#fff"><path d="m105.98 178.92c1.672 0 3.359-.64 4.637-1.926 2.562-2.562 2.562-6.718 0-9.285-15.4533-15.453-23.9573-35.988-23.9573-57.836 0-21.8478 8.5156-42.3948 23.9573-57.8358 2.562-2.5625 2.562-6.7188 0-9.2852-2.563-2.5625-6.719-2.5625-9.286 0-17.9375 17.93-27.8085 41.766-27.8085 67.121 0 25.359 9.8711 49.191 27.8085 67.121 1.286 1.289 2.957 1.926 4.649 1.926z" fill="#fff"/></mask><mask id="f" fill="#fff"><path d="m49.85 219.57c1.6719 0 3.3594-.64 4.6367-1.926 2.5625-2.562 2.5625-6.718 0-9.285-26.312-26.301-40.793-61.277-40.793-98.48 0-37.2028 14.48-72.1878 40.793-98.4878 2.5625-2.56254 2.5625-6.71884 0-9.28524-2.5625-2.562503-6.7188-2.562503-9.2852 0-28.789 28.78904-44.640953 67.05904-44.640953 107.77004 0 40.703 15.854953 78.977 44.640953 107.77 1.2891 1.277 2.9609 1.926 4.6484 1.926z" fill="#fff"/></mask><mask id="g" fill="#fff"><path d="m381.25 147.33c1.277 1.277 2.957 1.926 4.637 1.926 1.672 0 3.359-.641 4.636-1.918 10.012-10 15.523-23.301 15.523-37.449 0-14.1481-5.519-27.4491-15.523-37.4491-2.574-2.5625-6.718-2.5547-9.285 0-2.562 2.5625-2.562 6.7188 0 9.2852 7.524 7.5156 11.68 17.516 11.68 28.1559 0 10.64-4.156 20.641-11.68 28.156-2.554 2.57-2.554 6.719.012 9.293z" fill="#fff"/></mask><mask id="h" fill="#fff"><path d="m437.38 177c1.277 1.278 2.957 1.926 4.637 1.926 1.679 0 3.359-.641 4.636-1.926 17.938-17.93 27.809-41.766 27.809-67.121 0-25.3587-9.871-49.1907-27.809-67.1207-2.562-2.5625-6.718-2.5625-9.285 0-2.562 2.5625-2.562 6.7188 0 9.2852 15.453 15.453 23.957 35.988 23.957 57.8355 0 21.848-8.515 42.395-23.957 57.836-2.551 2.575-2.551 6.723.012 9.286z" fill="#fff"/></mask><mask id="i" fill="#fff"><path d="m493.51 217.65c1.277 1.278 2.957 1.926 4.637 1.926 1.679 0 3.359-.64 4.636-1.926 28.789-28.789 44.641-67.059 44.641-107.77 0-40.7146-15.855-78.9836-44.641-107.76965-2.562-2.562498-6.719-2.562498-9.285 0-2.562 2.5625-2.562 6.7188 0 9.28525 26.312 26.312 40.793 61.2849 40.793 98.4884 0 37.203-14.48 72.18-40.793 98.48-2.551 2.566-2.551 6.722.012 9.285z" fill="#fff"/></mask><g fill="#7c3aed" stroke="#fff" stroke-width="4"><path d="m502.4 422.69h-174.96v-123.77c0-13.457-10.945-24.402-24.402-24.402h-58.074c-13.457 0-24.402 10.945-24.402 24.402v123.77l-174.9599-.004c-3.6211 0-6.5625 2.942-6.5625 6.563s2.9414 6.562 6.5625 6.562h456.7899c3.621 0 6.563-2.941 6.563-6.562s-2.93-6.563-6.551-6.563z" mask="url(#a)"/><path d="m267.44 164.41v96.984h13.125v-96.984c-2.152.262-4.332.43-6.563.43-2.222 0-4.402-.176-6.562-.43z" mask="url(#b)"/><path d="m274 151.71c23.066 0 41.824-18.77 41.824-41.824 0-23.055-18.77-41.824-41.824-41.824s-41.824 18.77-41.824 41.824c0 23.055 18.758 41.824 41.824 41.824z" mask="url(#c)"/><path d="m162.11 149.25c1.672 0 3.359-.64 4.637-1.926 2.562-2.562 2.562-6.718 0-9.285-7.524-7.523-11.672-17.527-11.672-28.168 0-10.6408 4.148-20.6408 11.672-28.1678 2.562-2.5625 2.562-6.7188 0-9.2852-2.563-2.5625-6.719-2.5625-9.285 0-10.012 10-15.516 23.301-15.516 37.441s5.511 27.441 15.516 37.441c1.289 1.305 2.968 1.949 4.648 1.949z" mask="url(#d)"/><path d="m105.98 178.92c1.672 0 3.359-.64 4.637-1.926 2.562-2.562 2.562-6.718 0-9.285-15.4533-15.453-23.9573-35.988-23.9573-57.836 0-21.8478 8.5156-42.3948 23.9573-57.8358 2.562-2.5625 2.562-6.7188 0-9.2852-2.563-2.5625-6.719-2.5625-9.286 0-17.9375 17.93-27.8085 41.766-27.8085 67.121 0 25.359 9.8711 49.191 27.8085 67.121 1.286 1.289 2.957 1.926 4.649 1.926z" mask="url(#e)"/><path d="m49.85 219.57c1.6719 0 3.3594-.64 4.6367-1.926 2.5625-2.562 2.5625-6.718 0-9.285-26.312-26.301-40.793-61.277-40.793-98.48 0-37.2028 14.48-72.1878 40.793-98.4878 2.5625-2.56254 2.5625-6.71884 0-9.28524-2.5625-2.562503-6.7188-2.562503-9.2852 0-28.789 28.78904-44.640953 67.05904-44.640953 107.77004 0 40.703 15.854953 78.977 44.640953 107.77 1.2891 1.277 2.9609 1.926 4.6484 1.926z" mask="url(#f)"/><path d="m381.25 147.33c1.277 1.277 2.957 1.926 4.637 1.926 1.672 0 3.359-.641 4.636-1.918 10.012-10 15.523-23.301 15.523-37.449 0-14.1481-5.519-27.4491-15.523-37.4491-2.574-2.5625-6.718-2.5547-9.285 0-2.562 2.5625-2.562 6.7188 0 9.2852 7.524 7.5156 11.68 17.516 11.68 28.1559 0 10.64-4.156 20.641-11.68 28.156-2.554 2.57-2.554 6.719.012 9.293z" mask="url(#g)"/><path d="m437.38 177c1.277 1.278 2.957 1.926 4.637 1.926 1.679 0 3.359-.641 4.636-1.926 17.938-17.93 27.809-41.766 27.809-67.121 0-25.3587-9.871-49.1907-27.809-67.1207-2.562-2.5625-6.718-2.5625-9.285 0-2.562 2.5625-2.562 6.7188 0 9.2852 15.453 15.453 23.957 35.988 23.957 57.8355 0 21.848-8.515 42.395-23.957 57.836-2.551 2.575-2.551 6.723.012 9.286z" mask="url(#h)"/><path d="m493.51 217.65c1.277 1.278 2.957 1.926 4.637 1.926 1.679 0 3.359-.64 4.636-1.926 28.789-28.789 44.641-67.059 44.641-107.77 0-40.7146-15.855-78.9836-44.641-107.76965-2.562-2.562498-6.719-2.562498-9.285 0-2.562 2.5625-2.562 6.7188 0 9.28525 26.312 26.312 40.793 61.2849 40.793 98.4884 0 37.203-14.48 72.18-40.793 98.48-2.551 2.566-2.551 6.722.012 9.285z" mask="url(#i)"/></g></svg>