<svg width="69" height="71" viewBox="0 0 69 71" fill="none" xmlns="http://www.w3.org/2000/svg">
<path d="M50.6945 58.7956C50.4865 59.0036 50.2052 59.1217 49.9114 59.125H49.899H4.89893C4.27768 59.125 3.77393 58.6212 3.77393 58V35.4999C3.77393 34.5387 4.15586 33.6162 4.83552 32.9366C5.51521 32.257 6.43772 31.875 7.39886 31.875H38.6489C39.2702 31.875 39.7739 32.3787 39.7739 33C39.7739 33.6213 39.2702 34.125 38.6489 34.125H7.39886C6.63954 34.125 6.02386 34.7407 6.02386 35.5V56.75V56.875H6.14886H48.6489H48.7739V56.75V44.25C48.7739 43.6288 49.2777 43.125 49.8989 43.125C50.5202 43.125 51.024 43.6288 51.024 44.25V58.0001C51.024 58.2984 50.9054 58.5847 50.6945 58.7956Z" fill="black" stroke="#EAEAEA" stroke-width="0.25"/>
<path d="M3.87557 57.5387L0.438532 65.2755L0.438482 65.2756C-0.0610149 66.3971 0.0414477 67.6945 0.709817 68.7243L3.87557 57.5387ZM3.87557 57.5387L3.87579 57.5387C4.05651 57.1356 4.45718 56.8759 4.89915 56.8749H49.899C50.3409 56.8759 50.7416 57.1356 50.9223 57.5387C50.9223 57.5387 50.9223 57.5387 50.9223 57.5387L54.3596 65.2761L54.3598 65.276C54.8591 66.3974 54.7566 67.6946 54.0883 68.7243C53.4199 69.7535 52.2764 70.3744 51.0491 70.3749H3.74904C3.74903 70.3749 3.74901 70.3749 3.74899 70.3749C2.52177 70.3744 1.3782 69.7535 0.709835 68.7243L3.87557 57.5387ZM5.71185 59.1249H5.63069L5.59767 59.199L2.48494 66.1868L2.48463 66.1875C2.29807 66.6134 2.33975 67.1042 2.5947 67.4932C2.84707 67.8863 3.28211 68.1243 3.74908 68.1249H3.74925H51.0493H51.0495C51.5165 68.1243 51.9515 67.8863 52.2039 67.4932C52.4588 67.1042 52.5005 66.6134 52.314 66.1875L52.3136 66.1868L49.2009 59.199L49.1679 59.1249H49.0867H5.71185Z" fill="black" stroke="#EAEAEA" stroke-width="0.25"/>
<path d="M20.1479 68.7437L20.1481 68.7434L22.6479 63.7438C22.6479 63.7438 22.6479 63.7437 22.648 63.7436C22.8388 63.3656 23.226 63.1266 23.6492 63.125H32.3988C32.8221 63.1266 33.2092 63.3656 33.4 63.7436C33.4001 63.7437 33.4001 63.7437 33.4002 63.7438L35.9 68.7434L35.9001 68.7437C36.0754 69.0917 36.0578 69.506 35.8539 69.8386C35.65 70.1706 35.2884 70.374 34.8989 70.375C34.8988 70.375 34.8988 70.375 34.8987 70.375H21.1493C21.1493 70.375 21.1492 70.375 21.1491 70.375C20.7596 70.3739 20.3981 70.1706 20.1942 69.8387C19.9902 69.5061 19.9727 69.0917 20.1479 68.7437ZM23.0623 67.9441L22.9719 68.125H23.1741H32.8739H33.0761L32.9857 67.9441L31.7357 65.4441L31.7011 65.375H31.6239H24.4242H24.3469L24.3123 65.4441L23.0623 67.9441Z" fill="black" stroke="#EAEAEA" stroke-width="0.25"/>
<path d="M64.8989 40.3749H46.1489C45.1876 40.3749 44.2651 39.993 43.5855 39.3133C42.906 38.6337 42.5239 37.7111 42.5239 36.75V4.24994C42.5239 3.28865 42.9059 2.36615 43.5855 1.68661C44.2652 1.00705 45.1877 0.625 46.1489 0.625H64.8989C65.8602 0.625 66.7827 1.00693 67.4622 1.6866C68.1418 2.36628 68.5238 3.28879 68.5238 4.24994V36.75C68.5238 37.7113 68.1419 38.6338 67.4622 39.3133C66.7826 39.9929 65.86 40.3749 64.8989 40.3749ZM45.1765 37.7222L45.2649 37.6339L45.1765 37.7223C45.4344 37.9801 45.7843 38.1249 46.1489 38.1249H64.8989C65.2635 38.1249 65.6134 37.9801 65.8712 37.7222C66.129 37.4644 66.2739 37.1145 66.2739 36.7499V4.24986C66.2739 3.88526 66.129 3.53537 65.8712 3.27755C65.6134 3.01972 65.2635 2.87486 64.8989 2.87486H46.1489C45.3895 2.87486 44.7739 3.49054 44.7739 4.24986V36.7499C44.7739 37.1145 44.9187 37.4644 45.1765 37.7222Z" fill="black" stroke="#EAEAEA" stroke-width="0.25"/>
<path d="M57.3989 6.62488H53.6489C53.0277 6.62488 52.5239 6.12113 52.5239 5.49988C52.5239 4.87863 53.0277 4.37488 53.6489 4.37488H57.3989C58.0202 4.37488 58.5239 4.87863 58.5239 5.49988C58.5239 6.12113 58.0202 6.62488 57.3989 6.62488Z" fill="black" stroke="#EAEAEA" stroke-width="0.25"/>
<path d="M56.4734 36.1292C56.2668 36.4349 55.924 36.6195 55.5566 36.6249H55.5234H55.2849C55.2222 36.6127 55.1615 36.5921 55.1047 36.5635L55.1045 36.5634L54.8914 36.4566L54.7195 36.319C54.5094 36.1085 54.3911 35.8227 54.3911 35.525C54.3911 35.2253 54.5111 34.9374 54.7242 34.7259L54.7242 34.7259L54.7265 34.7235C54.9882 34.4492 55.371 34.3247 55.744 34.3935L55.744 34.3935C56.1172 34.4623 56.4306 34.7144 56.5778 35.0646L56.5778 35.0646C56.7249 35.414 56.6853 35.8143 56.4732 36.1293L56.5769 36.1991L56.4734 36.1292Z" fill="black" stroke="#EAEAEA" stroke-width="0.25"/>
<path d="M31.1482 17.6621V17.6621C31.716 17.6589 32.2636 17.4527 32.6919 17.0806L32.6921 17.0804L38.266 12.2558C38.2662 12.2557 38.2663 12.2556 38.2664 12.2555C38.7777 11.8049 39.0702 11.1562 39.0702 10.4746C39.0702 9.79318 38.7778 9.1451 38.2666 8.69396C38.2664 8.69377 38.2662 8.69358 38.266 8.69339L32.6927 3.91948L31.1482 17.6621ZM31.1482 17.6621C30.5187 17.6619 29.9146 17.4117 29.4695 16.9666C29.0242 16.5213 28.7739 15.9169 28.7739 15.2871V14.2497V14.1247H28.6489H18.6489C18.0277 14.1247 17.5239 13.621 17.5239 12.9997V7.99972C17.5239 7.37847 18.0277 6.87472 18.6489 6.87472H28.6489H28.7739V6.74972V5.71262C28.7772 5.10519 29.0126 4.52275 29.4318 4.08387C29.8518 3.64483 30.4233 3.38299 31.0296 3.35278L31.0297 3.35278C31.6361 3.32203 32.2314 3.52504 32.6926 3.91941L31.1482 17.6621ZM19.7739 11.7497V11.8747H19.8989H29.899C30.1973 11.8747 30.4836 11.9932 30.6945 12.2041C30.9054 12.4151 31.024 12.7014 31.024 12.9997V15.2871V15.5592L31.2304 15.3819L36.8051 10.5945L36.9155 10.4997L36.8051 10.4048L31.2304 5.61741L31.024 5.44013V5.71224V7.99968C31.024 8.29801 30.9054 8.5843 30.6945 8.79522C30.4836 9.00614 30.1973 9.12468 29.899 9.12468H19.8989H19.7739V9.24968V11.7497Z" fill="black" stroke="#EAEAEA" stroke-width="0.25"/>
<path d="M16.1495 28.4515L16.1491 28.4492C15.4545 28.4492 14.7951 28.1459 14.344 27.618L14.3439 27.6179L9.56877 22.0432L16.1495 28.4515ZM16.1495 28.4515L16.1495 28.4492C16.8418 28.4524 17.5007 28.1535 17.9545 27.6304C17.9545 27.6303 17.9546 27.6302 17.9547 27.6302L22.7292 22.0433L22.7293 22.0432C23.1237 21.582 23.3267 20.9867 23.296 20.3802L23.296 20.3801C23.2658 19.7738 23.0039 19.2023 22.5649 18.7824C22.126 18.3631 21.5436 18.1278 20.9361 18.1245H19.899H19.774V17.9995V7.99985C19.7714 7.54586 19.4967 7.13772 19.0764 6.96499L19.0754 6.96459C18.6568 6.78839 18.1733 6.88165 17.8498 7.20088C17.8498 7.20097 17.8497 7.20106 17.8496 7.20114L12.8503 12.2004C12.8503 12.2004 12.8502 12.2005 12.8502 12.2005C12.6395 12.4123 12.5225 12.6999 12.524 12.9989L12.524 12.9995L12.524 17.9995V18.1245H12.399H11.3619C10.7545 18.1278 10.172 18.3631 9.73315 18.7824C9.29413 19.2022 9.03229 19.7737 9.00207 20.3801L9.00207 20.3802C8.97133 20.9866 9.17435 21.582 9.5687 22.0431L16.1495 28.4515ZM11.3616 20.3745H11.0895L11.2668 20.5809L16.0542 26.1556L16.1491 26.2661L16.2439 26.1556L21.0313 20.5809L21.2086 20.3745H20.9365H18.6491C18.0278 20.3745 17.5241 19.8707 17.5241 19.2495V11.0117V10.71L17.3107 10.9233L14.8107 13.4233L14.7741 13.46V13.5117V19.2495C14.7741 19.5478 14.6555 19.8341 14.4446 20.045C14.2337 20.2559 13.9474 20.3745 13.6491 20.3745H11.3616Z" fill="black" stroke="#EAEAEA" stroke-width="0.25"/>
</svg>
