<svg width="74" height="71" viewBox="0 0 74 71" fill="none" xmlns="http://www.w3.org/2000/svg">
<path d="M66.4025 17.0229L66.7219 17.444L66.6301 17.8895C68.7751 18.3318 70.4107 19.1019 71.5031 20.1206C72.584 21.1286 73.1549 22.3986 73.156 23.9144C73.1559 25.3357 72.6776 26.3717 71.9298 27.1474C71.1699 27.9357 70.1045 28.4823 68.8985 28.8553C66.4785 29.6038 63.6533 29.6071 62.0575 29.6071C60.461 29.6071 57.6359 29.6038 55.216 28.8553C54.0101 28.4823 52.9448 27.9357 52.185 27.1474C51.4372 26.3716 50.959 25.3356 50.959 23.914C50.959 22.5643 51.4131 21.397 52.2812 20.4385C53.1557 19.4729 54.472 18.6966 56.2234 18.1853L56.2243 18.1851C56.5425 18.0916 56.8719 18.2727 56.9651 18.5921C57.0578 18.9099 56.8765 19.2411 56.5591 19.334C55.1689 19.74 54.0699 20.3141 53.3135 21.081C52.5452 21.86 52.1538 22.8155 52.1538 23.9151C52.1538 24.4272 52.2271 24.9937 52.5035 25.5481C52.7825 26.1074 53.2496 26.617 53.9771 27.0431C55.406 27.88 57.8697 28.4123 62.0562 28.4123C66.2422 28.4123 68.706 27.88 70.1349 27.0431C70.8624 26.617 71.3297 26.1074 71.6087 25.5481C71.8852 24.9937 71.9585 24.4272 71.9585 23.9151C71.9585 21.3523 69.8466 20.0541 67.7311 19.4043C65.5832 18.7445 63.1721 18.6592 62.0562 18.6592C58.3998 18.6592 55.4246 15.6837 55.4246 12.0272C55.4246 8.37079 58.3997 5.39563 62.0562 5.39563C65.7126 5.39563 68.6877 8.37079 68.6877 12.0272C68.6877 14.0184 67.8013 15.8042 66.4025 17.0229ZM62.0557 6.59115C59.0572 6.59115 56.6197 9.0293 56.6197 12.0272C56.6197 15.0258 59.0578 17.4633 62.0557 17.4633C65.0543 17.4633 67.4918 15.0257 67.4918 12.0272C67.4918 9.02868 65.0543 6.59115 62.0557 6.59115Z" fill="black" stroke="black"/>
<path d="M39.931 58.2876L40.9376 57.4106C42.3364 56.1919 43.2229 54.4061 43.2229 52.4149C43.2229 48.7585 40.2477 45.7833 36.5908 45.7833C32.9338 45.7833 29.9571 48.7587 29.9571 52.4149C29.9571 56.0711 32.9338 59.0465 36.5908 59.0465C37.7071 59.0465 40.1176 59.1318 42.265 59.7915C44.3799 60.4414 46.491 61.7397 46.491 64.3024C46.491 64.815 46.4177 65.382 46.1413 65.9367C45.8624 66.4965 45.3953 67.0066 44.6679 67.4331C43.2392 68.2708 40.7759 68.8035 36.5908 68.8035C32.4036 68.8035 29.9393 68.2709 28.5102 67.4333C27.7826 67.0069 27.3154 66.4967 27.0364 65.9369C26.76 65.3821 26.6867 64.815 26.6867 64.3024C26.6867 63.2043 27.0789 62.25 27.8477 61.4714C28.6044 60.7048 29.7039 60.1297 31.0945 59.7213L31.0951 59.7212C31.4113 59.6287 31.5933 59.2956 31.5006 58.9802L31.5006 58.98C31.4093 58.6688 31.0847 58.4852 30.7556 58.5762C29.0054 59.0898 27.6895 59.8664 26.8149 60.8312C25.9463 61.7894 25.4919 62.9551 25.4919 64.3024C25.4919 65.7251 25.9704 66.7621 26.7184 67.5385C27.4784 68.3274 28.5439 68.8744 29.7501 69.2477C32.1704 69.9967 34.9959 70 36.592 70C38.1879 70 41.0124 69.9967 43.4318 69.2477C44.6374 68.8745 45.7025 68.3274 46.4622 67.5386C47.2099 66.7622 47.6881 65.7253 47.6882 64.3026L39.931 58.2876ZM39.931 58.2876H41.2147M39.931 58.2876H41.2147M41.2147 58.2876C43.3347 58.7315 44.9531 59.4975 46.0367 60.5084C47.1171 61.5164 47.6876 62.7864 47.6882 64.3024L41.2147 58.2876ZM36.5914 46.9788C33.5919 46.9788 31.1524 49.4179 31.1524 52.4149C31.1524 55.4119 33.5919 57.851 36.5914 57.851C39.59 57.851 42.0275 55.4128 42.0275 52.4149C42.0275 49.4176 39.59 46.9788 36.5914 46.9788Z" fill="black" stroke="black"/>
<path d="M16.2676 17.4267L15.9444 17.0231C17.3433 15.8038 18.2298 14.0174 18.2298 12.0261C18.2298 8.36971 15.2547 5.39453 11.5978 5.39453C7.94136 5.39453 4.9662 8.36969 4.9662 12.0261C4.9662 15.6826 7.9414 18.6581 11.5978 18.6581C12.714 18.6581 15.1251 18.7434 17.2729 19.4032C19.3884 20.053 21.5002 21.3512 21.5002 23.914C21.5002 24.4261 21.4269 24.9926 21.1504 25.547C20.8714 26.1063 20.4043 26.6159 19.6768 27.042C18.2479 27.8789 15.7841 28.4112 11.5978 28.4112L16.2676 17.4267ZM16.2676 17.4267L16.1722 17.8896C18.3175 18.3316 19.9532 19.1015 21.0453 20.12C22.126 21.1277 22.6964 22.3973 22.697 23.9123L16.2676 17.4267ZM5.7678 18.183L5.76563 18.1837C4.01414 18.6949 2.69759 19.4712 1.82274 20.4369C0.954381 21.3954 0.5 22.5627 0.5 23.9123C0.5 25.3339 0.978267 26.3699 1.72608 27.1457C2.4859 27.934 3.55123 28.4806 4.75718 28.8536C7.17711 29.6021 10.0023 29.6054 11.5985 29.6054C13.1946 29.6054 16.0198 29.6021 18.4397 28.8536C19.6457 28.4806 20.711 27.934 21.4709 27.1457C22.2187 26.3699 22.6969 25.3339 22.697 23.9125L5.7678 18.183ZM5.7678 18.183C6.07849 18.0908 6.41224 18.27 6.50736 18.5906C6.59887 18.9086 6.41716 19.2393 6.1004 19.3322C4.71038 19.7382 3.61126 20.3124 2.85481 21.0793C2.08637 21.8583 1.69481 22.8138 1.69481 23.9134C1.69481 24.4257 1.76809 24.9925 2.04457 25.547M5.7678 18.183L2.04457 25.547M2.04457 25.547C2.32353 26.1065 2.79073 26.6162 3.51829 27.0424M2.04457 25.547L3.51829 27.0424M3.51829 27.0424C4.94724 27.8794 7.41118 28.4115 11.5978 28.4112L3.51829 27.0424ZM11.5978 6.59063C8.59921 6.59063 6.16172 9.02879 6.16172 12.0267C6.16172 15.0253 8.59988 17.4628 11.5978 17.4628C14.5963 17.4628 17.0338 15.0252 17.0338 12.0267C17.0338 9.02817 14.5963 6.59063 11.5978 6.59063Z" fill="black" stroke="black"/>
<path d="M20.4422 60.8185C20.3491 60.8145 20.2565 60.7888 20.1703 60.7388L20.1701 60.7387C10.2725 55.0092 4.12427 44.3759 4.12427 32.9882C4.12427 32.6576 4.39157 32.3907 4.72169 32.3907C5.05147 32.3907 5.31911 32.6584 5.31911 32.9882C5.31911 43.9522 11.2389 54.1867 20.7677 59.7026C21.055 59.8694 21.151 60.2353 20.987 60.5174L20.9866 60.5181C20.875 60.711 20.6753 60.8185 20.4684 60.8185H20.4422Z" fill="black" stroke="black"/>
<path d="M52.2195 60.7387C52.1284 60.791 52.0333 60.8163 51.9382 60.819H51.9207C51.7128 60.819 51.5136 60.7118 51.4025 60.5198L51.4018 60.5187C51.2372 60.2361 51.333 59.8712 51.6199 59.7045C61.1472 54.1902 67.0659 43.9541 67.0689 32.99V32.9899C67.0689 32.6595 67.3366 32.3925 67.6663 32.3925C67.9973 32.3925 68.2648 32.6608 68.2648 32.9898L52.2195 60.7387ZM52.2195 60.7387C62.1144 55.0125 68.2626 44.3769 68.2648 32.9899L52.2195 60.7387Z" fill="black" stroke="black"/>
<path d="M52.8269 6.29866L52.8264 6.29959C52.7147 6.48637 52.5177 6.59003 52.3131 6.59003H52.3072C52.2068 6.58903 52.1024 6.56202 52.0042 6.50474C42.655 0.906818 30.5758 0.759198 21.1558 6.03455C20.8669 6.19558 20.5041 6.09288 20.3414 5.80413C20.1804 5.51572 20.2827 5.15278 20.5717 4.99057C30.3564 -0.484139 42.9162 -0.329937 52.6202 5.47912C52.9044 5.64954 52.9957 6.01775 52.8269 6.29866Z" fill="black" stroke="black"/>
</svg>
