<svg width="82" height="71" viewBox="0 0 82 71" fill="none" xmlns="http://www.w3.org/2000/svg">
<path d="M74.0847 0.75H7.40847C5.51027 0.75 3.68941 1.50416 2.34645 2.84635C2.34644 2.84636 2.34642 2.84638 2.34641 2.84639C2.34639 2.84641 2.34637 2.84643 2.34635 2.84645C1.00415 4.1895 0.25 6.01032 0.25 7.90847V48.8244C0.25 50.7226 1.00419 52.5435 2.34645 53.8865C3.6895 55.2287 5.51032 55.9829 7.40847 55.9829H74.0847C75.9829 55.9829 77.8038 55.2287 79.1467 53.8865C79.1468 53.8865 79.1468 53.8865 79.1468 53.8864M74.0847 0.75L79.3235 2.66962C80.7126 4.05945 81.4932 5.94391 81.4932 7.90847V48.8244C81.4932 50.7889 80.7126 52.6733 79.3235 54.0632L79.1468 53.8864M74.0847 0.75C75.9829 0.75 77.8038 1.50419 79.1468 2.84645M74.0847 0.75L79.1468 2.84645M79.1468 53.8864C80.489 52.5434 81.2432 50.7225 81.2432 48.8244V7.90847C81.2432 6.01027 80.489 4.18941 79.1468 2.84645M79.1468 53.8864V2.84645M36.9429 17.6427L36.943 17.6428L49.573 25.3486V25.3604L49.6927 25.4335C50.7206 26.0613 51.3474 27.1785 51.3474 28.3821C51.3474 29.5857 50.7206 30.703 49.6928 31.3306C49.6928 31.3307 49.6928 31.3307 49.6927 31.3307L36.9431 39.1095C36.2413 39.5375 35.4101 39.7017 34.5991 39.5722L34.5991 39.5722C33.7871 39.4426 33.0485 39.0278 32.5158 38.4026L32.5156 38.4023C31.9821 37.778 31.6891 36.9832 31.6891 36.1612V20.5903C31.6891 19.7693 31.9821 18.9744 32.5157 18.3491L32.5158 18.3489C33.0486 17.7237 33.7871 17.3089 34.5988 17.1802L34.5991 17.1802C35.4103 17.0506 36.2414 17.2141 36.9429 17.6427ZM48.0234 28.5837L48.0336 28.5774L48.0431 28.5703L48.0508 28.5646L48.346 28.3432L48.031 28.1511L35.2736 20.3722L34.8934 20.1404V20.5856V36.1491V36.5945L35.2736 36.3625L48.0234 28.5837ZM79.6416 62.9045H79.6703C80.5418 62.9198 81.2438 63.6313 81.2438 64.5064C81.2438 65.3911 80.5264 66.1085 79.6416 66.1085H28.9127H28.731L28.6749 66.2813C28.1068 68.03 26.736 69.4008 24.9873 69.9689C23.2392 70.537 21.3242 70.2336 19.8369 69.1528C18.3496 68.072 17.4694 66.3446 17.4694 64.5065C17.4694 62.6684 18.3497 60.941 19.8369 59.8602C21.3242 58.7795 23.2394 58.476 24.9872 59.0441L24.9873 59.0441C26.736 59.6123 28.1068 60.9831 28.6749 62.7318L28.731 62.9045H28.9127H79.6416ZM23.242 67.0569H23.3144L23.3163 67.0556C24.6842 67.0148 25.7806 65.8933 25.7824 64.516V64.5157C25.7824 63.4877 25.1634 62.5614 24.2142 62.168L24.2141 62.168C23.2641 61.7746 22.1718 61.992 21.4447 62.7191C20.7183 63.4455 20.501 64.5385 20.8943 65.4876C21.2869 66.4379 22.2141 67.0569 23.242 67.0569ZM76.8809 51.6164C77.6223 50.8749 78.0389 49.8696 78.0389 48.8202V7.90847C78.0389 6.85992 77.6223 5.85371 76.8809 5.11227C76.1395 4.37083 75.1333 3.95423 74.0847 3.95423H7.40847C6.35992 3.95423 5.35371 4.37083 4.61227 5.11227C3.87083 5.85371 3.45424 6.85992 3.45424 7.90847V48.8202C3.45424 49.8696 3.87085 50.8749 4.61227 51.6164C5.35371 52.3578 6.35992 52.7744 7.40847 52.7744H74.0847C75.1333 52.7744 76.1395 52.3578 76.8809 51.6164ZM15.1412 64.5066C15.1412 64.9315 14.9723 65.3392 14.672 65.6396C14.3716 65.9399 13.9639 66.1088 13.539 66.1088H1.8525C0.967777 66.1088 0.250381 65.3914 0.250381 64.5066C0.250381 63.6219 0.967778 62.9045 1.8525 62.9045H13.539C13.9639 62.9045 14.3716 63.0733 14.672 63.3737C14.9723 63.6741 15.1412 64.0818 15.1412 64.5066Z" fill="black" stroke="#EAEAEA" stroke-width="0.5"/>
</svg>
