<svg fill="none" height="479" viewBox="0 0 680 479" width="680" xmlns="http://www.w3.org/2000/svg"><g fill="#64748b"><path d="m39.8585 220.357 164.9085-110.123c7.183-4.798 9.126-14.5145 4.317-21.7084-4.798-7.1835-14.509-9.1323-21.708-4.3177l-164.9085 110.1231c-14.07187 9.389-22.4675 25.104-22.4675 42.02 0 16.915 8.39535 32.632 22.4675 42.02l164.9085 110.122c2.669 1.785 5.687 2.637 8.679 2.637 5.054 0 10.016-2.44 13.029-6.954 4.804-7.189 2.866-16.912-4.317-21.709l-164.9083-110.128c-5.4313-3.631-8.5537-9.455-8.5537-15.994 0-6.534 3.1224-12.353 8.5537-15.988z"/><path d="m657.527 194.324-164.922-110.1175c-7.184-4.8036-16.912-2.8658-21.709 4.3177-4.804 7.189-2.866 16.9118 4.318 21.7088l164.908 110.123c5.431 3.63 8.553 9.454 8.553 15.987 0 6.534-3.117 12.364-8.553 15.994l-164.894 110.128c-7.184 4.798-9.127 14.515-4.318 21.709 3.013 4.514 7.975 6.954 13.03 6.954 2.98 0 6.01-.852 8.679-2.636l164.908-110.123c14.072-9.389 22.467-25.105 22.467-42.02 0-16.921-8.395-32.632-22.467-42.026z"/><path d="m416.069.74227c-8.231-2.62014-17.035 1.91598-19.667 10.14753l-142.633 446.9192c-2.631 8.231 1.916 17.035 10.147 19.667 1.583.502 3.183.742 4.76.742 6.627 0 12.779-4.241 14.908-10.901l142.633-446.9046c2.631-8.237-1.916-17.03581-10.147-19.667123z"/></g></svg>