<svg fill="none" height="485" viewBox="0 0 809 485" width="809" xmlns="http://www.w3.org/2000/svg" xmlns:xlink="http://www.w3.org/1999/xlink"><mask id="a" fill="#fff"><path d="m210.856 296.744-103.48-59.744-103.74556 59.891-3.63044 2.113v123.999l95.8451 55.317 7.1369 4.118 4.393 2.562 3.866-2.267 7.686-4.415 95.827-55.317-.002-118.968v-5.031zm-107.873 176.172-94.71737-54.692v-109.107l94.71737 54.685zm4.131-116.257-95.2193-54.976 95.4853-55.128 95.225 54.976z" fill="#fff"/></mask><mask id="b" fill="#fff"><path d="m210.856 296.744-103.48-59.744-103.74556 59.891-3.63044 2.113v123.999l95.8451 55.317 7.1369 4.118 4.393 2.562 3.866-2.267 7.686-4.415 95.827-55.317-.002-118.968v-5.031zm-107.873 176.172-94.71737-54.692v-109.107l94.71737 54.685zm4.131-116.257-95.2193-54.976 95.4853-55.128 95.225 54.976z" fill="#fff"/></mask><mask id="c" fill="#fff"><path d="m804.856 296.744-103.48-59.744-103.746 59.891-3.63 2.113v123.999l95.845 55.317 7.137 4.118 4.393 2.562 3.866-2.267 7.686-4.415 95.827-55.317-.002-118.968v-5.031zm-107.873 176.172-94.717-54.692v-109.107l94.717 54.685zm4.131-116.257-95.219-54.976 95.485-55.128 95.225 54.976z" fill="#fff"/></mask><mask id="d" fill="#fff"><path d="m804.856 296.744-103.48-59.744-103.746 59.891-3.63 2.113v123.999l95.845 55.317 7.137 4.118 4.393 2.562 3.866-2.267 7.686-4.415 95.827-55.317-.002-118.968v-5.031zm-107.873 176.172-94.717-54.692v-109.107l94.717 54.685zm4.131-116.257-95.219-54.976 95.485-55.128 95.225 54.976z" fill="#fff"/></mask><mask id="e" fill="#fff"><path d="m402.993 80.4391-6.18 3.5675v-7.7423h12.665c21.061 0 38.125-17.0679 38.125-38.1322 0-21.0606-17.068-38.1321-38.125-38.1321l-57.005.00351124c-21.06 0-38.132 17.06788876-38.132 38.13208876 0 21.0607 17.075 38.1322 38.132 38.1322h12.662v26.0292l-100.135 57.83v159.361l137.995 79.681 138.005-79.677-.004-159.362zm-27.788-14.2418h-22.728c-15.474 0-28.062-12.5879-28.062-28.062 0-15.4742 12.588-28.062 28.062-28.062h57.001c15.467 0 28.059 12.5878 28.059 28.062 0 15.4741-12.588 28.062-28.059 28.062h-22.731v87.4507c-.654.709-2.272 1.889-5.769 1.889-3.417 0-5.025-1.071-5.769-1.977l.003-87.3623zm22.146 317.4387-121.735-70.292v-140.224l121.735 70.284zm5.305-149.421-122.382-70.653 84.859-48.993v22.925c-6.246 3.842-10.235 9.695-10.018 16.184.362 10.972 12.437 19.466 26.956 18.978 3.771-.151 7.324-.906 10.562-2.089l36.137 27.749 29.663-17.261-52.707-21.117c1.32-2.496 2.043-5.224 1.969-8.047-.217-6.405-4.511-11.914-10.888-15.337v-40.2707l6.18-3.5674 122.382 70.6531z" fill="#fff"/></mask><mask id="f" fill="#fff"><path d="m422.975 38.1399c0-9.4733-7.707-17.1838-17.18-17.1838h-49.649c-9.473 0-17.18 7.7106-17.18 17.1838s7.707 17.1838 17.18 17.1838h49.649c9.47 0 17.18-7.7107 17.18-17.1838zm-73.943 0c0-3.9326 3.184-7.1173 7.114-7.1173h49.648c3.922 0 7.114 3.1847 7.114 7.1173s-3.192 7.1173-7.114 7.1173h-49.648c-3.93 0-7.114-3.1847-7.114-7.1173z" fill="#fff"/></mask><g fill="#000"><path d="m210.856 296.744-103.48-59.744-103.74556 59.891-3.63044 2.113v123.999l95.8451 55.317 7.1369 4.118 4.393 2.562 3.866-2.267 7.686-4.415 95.827-55.317-.002-118.968v-5.031zm-107.873 176.172-94.71737-54.692v-109.107l94.71737 54.685zm4.131-116.257-95.2193-54.976 95.4853-55.128 95.225 54.976z" mask="url(#a)" stroke="#fff" stroke-width="4"/><path d="m64.1542 365.174c-4.9374-8.818-14.3562-12.965-21.0697-9.278-6.715 3.686-8.1657 13.83-3.2425 22.652 1.2887 2.279 2.8924 4.242 4.6576 5.866l-5.7868 31.095 20.1722 12.886-3.6052-39.25c1.9725.035 3.8994-.38 5.6314-1.318 6.6944-3.681 8.1573-13.83 3.2426-22.653z"/><path d="m210.856 296.744-103.48-59.744-103.74556 59.891-3.63044 2.113v123.999l95.8451 55.317 7.1369 4.118 4.393 2.562 3.866-2.267 7.686-4.415 95.827-55.317-.002-118.968v-5.031zm-107.873 176.172-94.71737-54.692v-109.107l94.71737 54.685zm4.131-116.257-95.2193-54.976 95.4853-55.128 95.225 54.976z" mask="url(#b)" stroke="#fff" stroke-width="4"/><path d="m64.1542 365.174c-4.9374-8.818-14.3562-12.965-21.0697-9.278-6.715 3.686-8.1657 13.83-3.2425 22.652 1.2887 2.279 2.8924 4.242 4.6576 5.866l-5.7868 31.095 20.1722 12.886-3.6052-39.25c1.9725.035 3.8994-.38 5.6314-1.318 6.6944-3.681 8.1573-13.83 3.2426-22.653z"/></g><path d="m109.754 363.084 99-57.084v113.418l-99 55.582z" fill="#fff"/><path d="m804.856 296.744-103.48-59.744-103.746 59.891-3.63 2.113v123.999l95.845 55.317 7.137 4.118 4.393 2.562 3.866-2.267 7.686-4.415 95.827-55.317-.002-118.968v-5.031zm-107.873 176.172-94.717-54.692v-109.107l94.717 54.685zm4.131-116.257-95.219-54.976 95.485-55.128 95.225 54.976z" fill="#000" mask="url(#c)" stroke="#fff" stroke-width="4"/><path d="m658.154 365.174c-4.937-8.818-14.356-12.965-21.069-9.278-6.715 3.686-8.166 13.83-3.243 22.652 1.289 2.279 2.893 4.242 4.658 5.866l-5.787 31.095 20.172 12.886-3.605-39.25c1.973.035 3.899-.38 5.631-1.318 6.695-3.681 8.158-13.83 3.243-22.653z" fill="#000"/><path d="m804.856 296.744-103.48-59.744-103.746 59.891-3.63 2.113v123.999l95.845 55.317 7.137 4.118 4.393 2.562 3.866-2.267 7.686-4.415 95.827-55.317-.002-118.968v-5.031zm-107.873 176.172-94.717-54.692v-109.107l94.717 54.685zm4.131-116.257-95.219-54.976 95.485-55.128 95.225 54.976z" fill="#000" mask="url(#d)" stroke="#fff" stroke-width="4"/><path d="m658.154 365.174c-4.937-8.818-14.356-12.965-21.069-9.278-6.715 3.686-8.166 13.83-3.243 22.652 1.289 2.279 2.893 4.242 4.658 5.866l-5.787 31.095 20.172 12.886-3.605-39.25c1.973.035 3.899-.38 5.631-1.318 6.695-3.681 8.158-13.83 3.243-22.653z" fill="#000"/><path d="m703.754 363.084 99-57.084v113.418l-99 55.582z" fill="#fff"/><path d="m402.993 80.4391-6.18 3.5675v-7.7423h12.665c21.061 0 38.125-17.0679 38.125-38.1322 0-21.0606-17.068-38.1321-38.125-38.1321l-57.005.00351124c-21.06 0-38.132 17.06788876-38.132 38.13208876 0 21.0607 17.075 38.1322 38.132 38.1322h12.662v26.0292l-100.135 57.83v159.361l137.995 79.681 138.005-79.677-.004-159.362zm-27.788-14.2418h-22.728c-15.474 0-28.062-12.5879-28.062-28.062 0-15.4742 12.588-28.062 28.062-28.062h57.001c15.467 0 28.059 12.5878 28.059 28.062 0 15.4741-12.588 28.062-28.059 28.062h-22.731v87.4507c-.654.709-2.272 1.889-5.769 1.889-3.417 0-5.025-1.071-5.769-1.977l.003-87.3623zm22.146 317.4387-121.735-70.292v-140.224l121.735 70.284zm5.305-149.421-122.382-70.653 84.859-48.993v22.925c-6.246 3.842-10.235 9.695-10.018 16.184.362 10.972 12.437 19.466 26.956 18.978 3.771-.151 7.324-.906 10.562-2.089l36.137 27.749 29.663-17.261-52.707-21.117c1.32-2.496 2.043-5.224 1.969-8.047-.217-6.405-4.511-11.914-10.888-15.337v-40.2707l6.18-3.5674 122.382 70.6531z" fill="#000" mask="url(#e)" stroke="#fff" stroke-width="4"/><path d="m422.975 38.1399c0-9.4733-7.707-17.1838-17.18-17.1838h-49.649c-9.473 0-17.18 7.7106-17.18 17.1838s7.707 17.1838 17.18 17.1838h49.649c9.47 0 17.18-7.7107 17.18-17.1838zm-73.943 0c0-3.9326 3.184-7.1173 7.114-7.1173h49.648c3.922 0 7.114 3.1847 7.114 7.1173s-3.192 7.1173-7.114 7.1173h-49.648c-3.93 0-7.114-3.1847-7.114-7.1173z" fill="#000" mask="url(#f)" stroke="#fff" stroke-width="4"/><path d="m406 242 127.5-74v148.5l-127.5 71.5z" fill="#fff"/></svg>