<svg fill="none" height="319" viewBox="0 0 767 319" width="767" xmlns="http://www.w3.org/2000/svg"><g fill="#000"><path d="m5.54048 20.5297c-4.845112 64.7551-6.166644 129.0723-5.286126 193.8273 0 1.321 1.321536 2.643 2.643066 2.643 49.77648-.881 99.99458-1.763 149.77458-2.643 5.727 0 9.251-3.084 9.251-9.251-.881-29.073-1.763-57.705-2.202-86.779 0-11.453 4.845-100.8783-4.406-102.6378-20.264-3.5236-43.168-.4411-63.4332-.4411-28.6327 0-57.7056 0-86.34132.4411-3.96459-.0015-3.96459 5.2846 0 4.8436 25.98962.441 51.98152 0 77.97042 0h43.1691 17.18c14.536 0 9.691 8.8097 9.691 19.3819 0 29.0737.441 57.7057.881 86.7793.441 14.537.441 29.074.88 43.611 0 5.727.441 11.452.441 17.18.441 11.893 2.643 21.144-11.452 21.144-25.11.441-49.7769.881-74.886 1.322-13.6563.441-27.7521.441-41.4092.88-5.7272 0-11.0133 0-16.7389.441-8.80974 0-5.72717-18.942-5.72717-22.907-.88052-55.942 1.32153-111.8884 5.28617-167.8345.441-3.5236-5.28617-3.5236-5.28617 0z"/><path d="m27.5645 42.5562c0 17.18-3.084 37.4439 0 53.7411 1.3216 6.1667 13.2154 6.6077 10.5723 12.3347-11.8938 28.633-7.9292 50.66 17.1799 69.162 54.1833 40.087 103.0793-35.682 66.9563-81.4937-.441 1.7625-1.321 3.0841-1.762 4.8447 9.25-.88 13.656-3.0837 14.977-12.7739.882-7.0502 4.847-42.7308-2.202-47.1371-5.286-3.0841-13.656-2.2021-19.382-2.6431-13.215-1.3215-26.4303-1.7626-40.0874-2.2021-11.0132-.441-38.3244-5.7271-46.2536 3.5236-1.3215 1.3216-.8805 3.5236.4411 4.4056.8805.441 1.7625.8806 2.202 1.3216 3.0841 1.7625 5.7271-2.6431 2.6431-4.8451 6.6076 4.4056 25.1091.8805 32.5972.8805 10.5723 0 21.1446.441 32.1578 1.3215 8.3698.441 32.1578-1.7625 32.1578 12.7743 0 10.1312 6.167 38.3244-9.251 40.0877-2.643.441-3.523 2.6431-1.762 4.8455 25.989 33.038 2.643 91.627-43.169 82.376-14.9779-3.084-33.0383-21.144-37.8827-35.24-4.8451-12.335 3.9646-32.158 8.8097-44.052.441-1.322-.441-3.084-1.7625-3.524-18.5015-5.727-11.4528-42.2889-11.4528-57.7055-.441-3.5265-5.7272-3.5265-5.7272-.0015z"/><path d="m51.3523 60.1747c18.9425 3.5236 37.4439-.8805 56.3837 1.3215 3.524.4411 3.524-5.2861 0-5.7271-18.501-1.7625-37.0025 2.6431-55.0622-.8805-3.0826-.8805-4.8451 4.4056-1.3215 5.2861z"/><path d="m56.6385 83.0828h27.7522c3.9646 0 25.9893-2.6431 28.6323.441 2.202 2.6431 7.049 0 4.845-2.6431-4.405-5.2861-13.215-3.084-19.3815-3.084h-41.8472c-3.5236-.4411-3.5236 5.2861 0 5.2861z"/><path d="m83.5108 117.001c-9.6917 1.762-16.2994 8.81-17.1799 18.501-.8805 9.692 7.9292 17.621 17.1799 17.18 19.3822-.441 20.7032-38.766-.441-36.562-3.5236.441-3.5236 5.728 0 5.728 14.5369-1.322 12.3348 25.55-1.3215 25.55-7.4882 0-10.5723-8.371-9.2507-14.537 1.3215-6.167 7.0486-9.251 12.7743-10.572 3.0841-.882 1.7625-6.169-1.7611-5.288z"/><path d="m465.975 248.253c2.339-17.099 2.964-35.485-4.877-51.169-9.522-19.078-32.652-28.039-52.355-19.439-6.787 2.965-12.521 7.874-16.672 13.905-2.241-8.798-5.404-17.332-9.455-25.47-4.909-9.819-11.664-19.375-22.241-23.525-20-7.842-43.394 3.427-55.782 19.406-5.238 6.787-8.929 14.597-10.545 22.933-9.257-6.327-22.142-6.624-32.454-2.34-15.419 6.36-23.36 21.977-23.426 38.186-.033 6.787 1.218 13.475 3.459 19.835-7.578-1.285-15.454-.494-22.538 2.569-9.059 3.889-15.98 11.499-19.276 20.758-6.853 19.209 6.723 37.66 23.889 45.304 10.807 4.811 22.537 6.328 34.201 7.479.428 1.055 1.384 1.878 2.901 1.91 35.058.593 70.115.494 105.205-.032 17.463-.265 34.893-.692 52.323-1.317 13.806-.494 27.743-1.186 41.284-4.119 11.103-2.406 21.91-6.589 31.004-13.311 2.901-1.779 5.601-3.823 8.007-6.293 6.723-6.92 10.774-17.001 8.435-26.621-4.351-17.628-25.205-21.878-41.087-18.648zm30.245 38.55c-.988-.198-2.075.032-3.031 1.02-4.613 4.877-9.917 8.633-15.684 11.565-4.02 1.416-8.138 2.471-12.125 3.395-46.063 10.707-93.939 8.072-140.79 6.525-26.325-.858-52.652-1.878-78.976-2.142-12.685-2.076-25.04-6.063-33.475-16.277-4.712-5.7-7.38-13.344-5.897-20.758 1.549-7.71 6.359-14.529 13.213-18.45 8.533-4.843 18.913-4.811 27.908-1.384 3.494 1.351 5.93-3.031 4.482-5.831-6.194-12.125-8.369-27.809-2.241-40.394 5.337-10.972 16.506-17.332 28.699-16.507 6.327.427 11.992 3.296 15.881 8.269 2.241 2.866 6.655.297 6.754-2.801.561-17.364 11.96-33.08 27.315-40.625 7.941-3.921 17.661-5.668 26.325-3.493 9.653 2.406 15.617 10.51 20.066 18.913 5.996 11.335 9.917 23.656 12.027 36.276.692 4.086 6.426 3.328 7.545 0 5.767-17.233 24.711-26.095 41.712-20.131 16.573 5.831 22.933 23.296 23.79 39.439.494 9.652-.427 19.34-1.845 28.896-.364 2.537 1.613 5.601 4.58 4.58 11.928-4.185 31.664-3.953 37.331 9.917 2.795 6.753.621 14.232-3.564 19.998z"/><path d="m266.507 206.474c.527-.759 1.021-1.352 1.779-2.209.724-.791 1.515-1.549 2.34-2.241 1.613-1.384 3.394-2.537 4.941-3.953 1.021-.922.265-3.031-1.186-2.866-4.778.526-9.193 4.185-12.224 7.743-1.614 1.878-2.933 3.953-3.953 6.194-1.055 2.339-2.174 5.04-1.91 7.676.099 1.119.692 2.11 1.845 2.438 1.021.265 2.372-.165 2.834-1.153.526-1.087.89-2.241 1.285-3.36.165-.495.329-1.021.526-1.549.067-.23.166-.462.265-.692 0 0 .131-.329.197-.462.922-1.977 2.041-3.82 3.262-5.567z"/><path d="m270.132 212.404c-.857 1.154-1.549 2.471-2.142 3.79-.759 1.713-1.317 3.36-1.218 5.273.032 1.054.758 2.174 1.845 2.438 1.021.23 2.372-.131 2.834-1.154.329-.758.692-1.514.956-2.339.198-.66.396-1.317.625-1.977.099-.296.23-.625.329-.922.032-.131.099-.229.131-.363.032-.032.067-.099.099-.197.296-.625.593-1.253.921-1.878.561-1.119 1.416-2.439 2.009-3.261.759-1.021 1.549-2.11 2.57-3.197 1.186-1.285-.297-3.131-1.846-2.372-1.383.692-2.735 1.482-3.889 2.505-1.215 1.117-2.27 2.37-3.224 3.654z"/><path d="m486.967 269.864c-.659.494-1.02.921-1.284 1.712-.131.428-.297.857-.428 1.285-.131.427-.23.889-.395 1.317-.067.197-.131.395-.198.593 0 0-.131.328-.165.395-.692 1.648-1.582 3.229-2.604 4.645-.033.067-.099.131-.131.165-.131.166-.265.329-.396.462-.328.363-.659.724-1.02 1.087-.297.297-.593.561-.922.858-.197.165-.363.328-.561.494-.032.032-.229.165-.328.264-1.416 1.087-3.064 1.779-4.546 2.735-1.087.692-1.614 2.075-1.087 3.261.56 1.285 1.746 1.713 3.098 1.515 2.273-.363 4.316-1.779 6.063-3.163 1.68-1.316 3.098-2.964 4.284-4.743 1.186-1.747 2.142-3.723 2.668-5.767.526-2.043 1.317-5.336-.494-6.92-.4-.359-1.092-.556-1.554-.195z"/><path d="m476.948 278.101c.857-1.416 1.45-3.064 1.811-4.679.395-1.779.363-3.494 0-5.273-.297-1.549-2.933-1.613-3.197 0-.198 1.352-.593 2.703-1.055 4.02-.067.166-.131.297-.166.462v.032c0 .032 0 .032-.032.067-.165.329-.328.66-.494.988-.328.625-.724 1.186-1.119 1.779-.099.131-.198.264-.297.428-.032.066-.066.098-.098.131-.198.229-.363.461-.593.691-.462.527-.989 1.021-1.515 1.451-.067.066-.099.098-.131.131-.131.098-.23.165-.363.264-.264.198-.561.363-.823.561-.593.427-1.218.822-1.845 1.218-2.241 1.514-.858 4.909 1.845 4.348 3.459-.754 6.293-3.719 8.072-6.619z"/><path d="m297.908 291.974c-5.074.297-10.114.396-15.189.131-5.107-.296-10.083-1.252-15.09-2.11-1.253-.197-2.241 1.55-.922 2.209 9.455 4.941 21.45 6.229 31.83 4.284 2.502-.494 1.942-4.647-.628-4.514z"/><path d="m273.656 281.76c6.49 2.834 13.673 3.822 20.758 3.36 1.285-.099 2.372-1.02 2.372-2.372 0-1.284-1.087-2.371-2.372-2.371-6.722.032-13.376-.593-20.032-1.219-1.386-.167-2.013 2.041-.726 2.602z"/><path d="m576.813 175.605c-1.818-5.464-2.791-11.124-4.035-16.735-.797-3.607-.515-7.323-1.673-10.891-.631-1.946-.35-4.202-.378-6.321-.059-3.889-.078-7.779 0-11.668-.138-.855-.38-1.691-.72-2.489-.166-.768.486-1.789.205-2.45-.729-1.702.875-3.005.506-4.618-.301-1.294-.137-2.714-.545-3.958-.515-1.586-.292-3.151-.351-4.716-.086-2.266-.214-4.542.837-6.738.419-.875.155-2.092.166-3.141 0-8.1292 0-16.2478.059-24.3774 0-1.9455-.126-3.8895.904-5.562-.788-2.9167-1.517-5.5822-.098-8.3438.36-.7105.107-1.7407.126-2.625.068-3.151-.194-6.3301.973-9.3939v-.0015c.169-.8704.214-1.7609.135-2.6453.175-3.3154-.497-6.7193.973-9.9185-.185-3.4814.856-7.0406-.643-10.4428l1.11-3.7731c1.832-2.4358 4.041-4.5627 6.544-6.3003 5.194-3.604 10.906-6.3964 16.938-8.2862 5.64-1.8958 11.222-3.88944 16.968-5.48447 2.373-.6516 4.863-.62213 7.187-1.46766 2.324-.84554 4.812-.97275 7.186-1.4289 6.127-1.273728 12.243-1.02085 18.408-.972752 3.657.058956 7.429.788142 10.969-.856418h12.184c1.788 1.09841 3.782.738498 5.698.699694v.001552c5.289.02172 10.542.887434 15.558 2.566074 4.862 1.47855 9.967 2.16891 14.401 4.86216 4.541 1.10929 8.187 3.93762 12.076 6.30032l.002.0015c2.659 1.6275 5.026 3.6925 7 6.1065l3.383 6.8063v4.1425c-.845 2.1689-1.214 4.5023-3.258 6.1156v19.0876c0 1.75-.311 3.4908-.485 5.2113-.379 3.8414-.137 7.779-.155 11.6109.904 1.6429.622 3.4426.661 5.1926.086 4.4153.136 8.8291.223 13.2448h.001c-.113 1.2303.036 2.4699.438 3.6366.69 1.4971.33 3.1401.271 4.707 0 1.206-.788 2.5-.515 3.569.331 1.293-.271 2.431-.097 3.549.419 2.636-.166 5.193-.194 7.779-.03 2.586 0 5.3 0 7.945 0 4.774.107 9.54.125 14.314 0 2.809.156 5.601-.972 8.344l.001-.002c-.402 1.356-.51 2.782-.321 4.181.054 2.468-.375 4.923-1.264 7.225-.331.636-.754 1.219-1.254 1.731-1.874-1.719-3.157-3.985-3.666-6.475-.818-2.691-1.246-5.485-1.274-8.296.048-1.586-.175-3.199 0-4.765.176-1.565-.856-2.916-.232-4.627.389-1.051-.429-2.345-1.411-3.501-1.565.973-3.18 2.013-4.755 3.074-.583.389-1.021.973-1.624 1.351-5.651 3.209-11.299 6.515-17.6 8.237-3.044.827-5.99 1.945-9.034 2.732v-.002c-4.383 1.192-8.83 2.13-13.322 2.811-2.071.312-4.133.739-6.223.973-2.091.233-4.22 0-6.234.905v-.002c-.687.166-1.399.202-2.1.107-4.589 0-9.19-.068-13.778.087-6.807.223-13.537-.973-20.275-1.682-1.401-.146-2.791-.282-4.19-.389-1.946-.146-3.89 0-5.737-.749v.001c-.672-.216-1.38-.292-2.082-.223-5.357.146-10.377-1.507-15.471-2.821h.001c-2.898-.662-5.747-1.519-8.528-2.567-.399-.166-.973.086-1.693.184-.301 2.14-.71 4.318-.059 6.3l.002.002c.533 2.042.757 4.153.661 6.262.097 4.064.145 8.129.184 12.194v7.401l-2.139 4.862c2.46 2.422 5.621 3.228 8.585 3.889 5.116 1.109 10.181 2.557 15.558 2.568 2.753 0 5.485.914 8.333.904l.002-.001c2.629.008 5.254.232 7.847.672 2.49.408 5.261.749 7.779-.351 1.837.33 3.717.33 5.552 0 1.614 1.205 3.365-.146 5.076.271 1.552.329 3.145.427 4.726.294 2.08-.126 4.22.243 6.262-.73v-.001c.856-.225 1.748-.278 2.625-.155h5.3c2.654 0 5.309 0 7.945-.166 2.431-.194 4.803-.836 7.254-1.051 2.45-.214 5.077-1.283 7.643-1.759 2.408-.489 4.772-1.171 7.07-2.042 7.164-2.387 14.008-5.655 20.37-9.724 2.481-1.654 4.873-3.435 7.168-5.338 2.917-2.45 5.776-5.163 9.014-6.282 2.693-.175 3.374 1.848 4.862 2.917v.001c2.743-2.997 6.046-5.428 9.723-7.157.957-.485 2.086-.485 3.044 0 .339.584-.087.923-.409 1.283-.232.267-.482.517-.749.75-4.735 4.045-8.46 8.936-12.019 13.992-2.071 3.05-4.324 5.973-6.747 8.752-2.917 3.276-5.3 7.059-8.645 9.987-.523.479-.98 1.025-1.362 1.622-2.49 3.715-6.088 6.223-9.208 8.752-1.064.245-2.141-.351-2.499-1.381 3.461-6.009 8.109-11.27 12.34-17.25-1.789-.108-2.84.972-4.056 1.449-1.215.476-2.529 1.235-3.219 1.585-8.44 9.374-17.376 17.406-25.438 25.895l-3.889 1.303c-.438-.283-.639-.82-.497-1.323.543-2.056 1.676-3.908 3.258-5.328l10.755-10.978v-.001c.794-.605 1.416-1.406 1.809-2.324-.118-.574-.628-.984-1.216-.972-1.664-.116-3.074.671-4.794 1.352-2.839 3.267-6.487 6.115-9.121 9.938-1.187 1.732-3.559 2.315-4.464 4.375-2.829 1.575-4.725 4.229-7.07 6.35h.002c-1.912 1.831-4.161 3.274-6.622 4.25-.392-.197-.667-.568-.741-1-.075-.431.059-.873.361-1.19 1.33-1.83 2.751-3.593 4.261-5.279 4.851-5.452 10.047-10.587 15.558-15.373-2.276-.467-4.357.184-6.369-.176-5.387 6.166-11.796 10.784-18.155 15.471-1.465.976-3.03 1.795-4.668 2.441-.647.327-1.423.268-2.013-.155 2.14-3.113 2.227-3.006 9.082-8.266 3.19-2.45 6.699-4.571 9.394-7.877-1.429-.797-2.8-.33-4.112-.379-1.313-.048-2.83 0-4.259 0h-.002c-3.574 1.541-6.755 3.868-9.306 6.807-2.741 2.985-5.776 5.65-8.674 8.45-3.214 3.226-6.611 6.264-10.171 9.101-.501.524-1.23.766-1.944.642-.464-.288-.633-.881-.389-1.371 1.135-2.58 2.723-4.938 4.687-6.961 2.833-2.911 5.695-5.792 8.585-8.645 1.054-1.188 2.272-2.22 3.618-3.064 1.633-.943 3.004-2.281 3.988-3.89-3.297-.437-6.419 0-9.297-.33-7.688 7.969-16.015 15.3-24.894 21.919-1.041.262-1.896.535-2.684-.185h.001c.162-1.753.965-3.383 2.256-4.581 1.702-1.731 2.664-4.201 5.106-5.211 2.645-3.822 6.749-6.107 9.87-9.433h-.001c.828-.77 1.706-1.488 2.625-2.149-2.5-.338-5.028-.423-7.546-.253-6.312 6.234-13.614 11.144-20.683 16.356-2.589 1.747-5.326 3.267-8.177 4.541l-2.49-1.176c3.121-4.532 7.409-7.341 11.6-10.269 3.889-2.723 7.779-5.446 11.668-8.187h.002c.822-.44 1.449-1.177 1.75-2.062-2.732-.553-5.64.078-8.333-1.196-5.66 3.89-10.939 8.255-16.618 12.067-5.532 3.715-10.695 7.935-16.715 10.921h-.001c-.419-.369-.644-.914-.605-1.472.037-.559.333-1.068.8-1.376 3.16-1.946 5.416-4.979 8.517-7.059 3.637-2.431 6.914-5.378 10.404-8.023 2.509-1.945 5.106-3.675 7.722-5.562-.39-.282-.604-.554-.857-.613-2.055-.434-4.116-.842-6.184-1.225-.445-.005-.889.045-1.321.146-2.675 2.169-5.465 4.561-8.401 6.806-4.056 3.073-7.886 6.437-12.223 9.159-2.372 1.488-4.502 3.355-6.748 5.047h-.002c-.667.287-1.443.128-1.944-.398l2.14-3.054c7.585-6.151 15.195-12.329 22.831-18.533.097-.078.059-.34.086-.515h.002c-.209-.253-.451-.475-.72-.661-2.032-1.021-4.083-2.012-6.067-2.985-7.779 7.323-16.531 13.224-25.03 19.379-1.409 1.058-3.016 1.818-4.726 2.237-.681-.622-.437-1.274.059-1.827 3.316-3.696 7.323-6.583 11.29-9.52 4.804-3.559 9.601-7.125 14.391-10.696.429-.321.827-.661 1.429-1.137-1.896-2.023-2.809-4.542-5.222-6.175l-7.448 5.835v-.003c-.656.589-1.362 1.12-2.11 1.585-4.678 2.47-8.878 5.66-13.254 8.586-2.917 1.945-3.744 2.256-7.857 2.761 1.307-2.116 3.051-3.929 5.114-5.318 6.496-4.794 12.953-9.647 19.885-13.817 1.506-.905 2.975-1.877 4.482-2.762 1.1-.672 2.228-1.197 2.84-2.412zm137.496-92.0954c-5.231 2.5956-10.346 5.2796-15.869 7.0792-1.429.467-2.753 1.342-4.327 1.7019-4.59 1.0503-9.005 2.7026-13.683 3.5109-4.454.768-8.635 2.8206-13.263 2.9168-.33 0-.642.2715-.973.3894-1.633.6128-3.413.5352-5.056 1.3122-1.36.652-3.014-.9725-4.482.205-4.181.467-8.323 1.226-12.563 1.06-2.985-.126-6 .243-8.985.059-5.942-.37-11.96.865-17.824-.895v-.002c-.171-.053-.354-.053-.525 0-2.246.856-4.454-.33-6.71-.116-3.19.311-6.127-1.1764-9.208-1.7024-1.818-.3118-3.637-1.0891-5.503-1.5173h-.001c-2.419-.4018-4.722-1.3249-6.749-2.7026-1.758-1.2303-3.804-1.9843-5.941-2.1875 0 3.7529-.505 7.4098.292 11.0758.382 1.26.462 2.593.233 3.89-.458 1.526.72 2.702.36 4.103-.095.864-.244 1.721-.447 2.566-.393 1.175-.554 2.413-.476 3.648-.069 4.229-.194 8.469-.107 12.7 0 1.148-.292 2.479.699 3.627 4.717.846 9.607 1.401 14.305 2.664v-.002c3.512 1.099 7.155 1.719 10.832 1.848 3.714 0 7.264 1.342 11.007 1.089 1.946-.279 3.927-.18 5.835.292 2.607.895 5.202.72 7.779.884v.002c2.281.04 4.555.242 6.806.602 2.616.45 5.291.423 7.896-.078 1.722-.327 3.47-.49 5.222-.485 6.33.125 10.832-.798 18.727-2.373l.002-.001c7.166-1.596 14.222-3.658 21.12-6.175 1.157-.389 2.314-.807 3.431-1.303 6.408-2.83 12.778-5.767 19.691-6.574l1.313-1.506h.001c-.676-1.776-.971-3.674-.865-5.571 0-3.005.204-6.077-.379-8.985-.777-3.889-.613-7.701-.681-11.5608-.068-3.7048 0-7.4191 0-11.1239v-.0016c.126-.8967-.23-1.7934-.934-2.3628zm3.938-39.7805c-2.187-.8564-3.345.2916-4.6.8067h.002c-3.59 1.387-7.302 2.4358-11.085 3.1308-2.577.5244-5.193.8161-7.779 1.3032-2.723.5151-5.378 1.643-8.169 1.75-2.994.1071-5.776 1.5747-8.838 1.1574h-.002c-.703-.0155-1.398.166-2.003.5259-.959.467-2.04.6237-3.092.4468-3.062-.4576-5.835 1.069-8.859 1.0597-3.18 0-6.35.1365-9.529.2327v.0016c-.525-.0062-1.047.076-1.546.242-1.502.4778-3.106.5353-4.638.166-1.654-.2436-3.374.8269-5.105 0-1.119-.5244-2.197.6609-3.5-.0683-.973-.5445-2.393-.3304-3.607-.3785-1.215-.0481-2.47 0-3.705 0-2.641.0077-5.278-.1614-7.897-.5058-1.362-.3056-2.748-.4918-4.143-.5538-3.853-.121-7.676-.7494-11.367-1.868-1.828-.5926-3.772-.2528-5.619-1.2349-1.435-.6408-2.936-1.1264-4.473-1.4491-5.222-1.4971-10.356-3.3061-14.879-6.4571v.0015c-.915-.7028-1.979-1.1853-3.112-1.4103-.087.5446-.155.8844-.205 1.2257-.35 2.8484.477 5.5619.846 8.3326h.002c.187 2.1069.249 4.2247.184 6.3392 0 1.9455-.301 3.9376.078 5.8348.428 2.11-.185 4.1036-.069 6.1546-.048 1.3994.067 2.7988.342 4.1719.457 1.5064-1.03 3.1215.408 4.4729-.604 2.7817.223 5.4365.428 8.08 5.241 2.3536 10.696 2.8391 15.957 3.5203 3.976.5057 7.906 1.7314 11.989 1.3714.526.0248 1.041.1645 1.508.4096 2.266.9045 4.455.301 6.554-.3894 1.708 1.0798 3.868 1.1465 5.639.1753.456-.1459.933-.2126 1.41-.1955l2.101.768c2.363-.8161 4.862-1.4289 7.177-.4189 1.8.7974 3.461.3599 4.988.107v.0016c2.408-.3507 4.839-.5198 7.273-.5058 5.115-.0481 10.23-.0682 15.344-.1365 1.399.1039 2.805-.0233 4.162-.3786 1.325-.4608 2.72-.6857 4.122-.6609 1.394-.0419 2.778-.2436 4.124-.6035 4.043-1.0689 8.158-1.8509 12.311-2.3427 4.519-.4824 8.943-1.6429 13.117-3.4426 1.918-.8518 3.918-1.5034 5.97-1.9455 1.528-.3832 2.999-.965 4.375-1.7299 1.459-.6997 3.229 0 4.493-1.2443.126-.1163.244-.2528.379-.3987.622-1.1372.339-2.4016.389-3.618.107-2.4699-.282-5.0377.253-7.3893.836-3.6661.777-7.3322.973-11.0076v-.0015c-.045-1.2334.136-2.4668.535-3.6366.256-.8393.362-1.719.31-2.5956.188-1.7345.214-3.483.078-5.222zm-1.409-19.9439c-2.577-1.9502-5.402-3.5466-8.402-4.7442-3.831-1.7113-7.576-3.5684-11.727-4.4436-3.598-.7586-7.128-1.7702-10.755-2.4218-3.782-.6811-7.536-1.6243-11.397-1.6631-6.71-.0776-13.429 0-20.138 0-.701-.0947-1.414-.0497-2.099.1365-2.187.9727-4.511.6702-6.806.9045-.866.0868-1.72.2528-2.577.408-2.917.5151-5.835 1.3606-8.752 1.4971-5.309.2622-10.287 2.1193-15.557 2.8004h-.002c-4.563.754-9.216.7866-13.788.0977 1.381-1.4878 2.557-2.9167 4.327-3.8895 3.988-2.113 8.211-3.74517 12.583-4.86213-1.747-.50886-3.614-.44062-5.319.19393-5.571 1.48784-10.959 3.5389-16.53 5.1723v.0016c-1.404.4297-2.838.7555-4.289.9712-1.036 1.1527-2.389 1.975-3.889 2.3628-3.928 1.1186-7.129 3.618-10.444 5.9032-1.944 1.193-3.362 3.0796-3.968 5.2796.34.9138.7 1.7112.973 2.5474.76 2.532 2.399 4.7101 4.619 6.1455 4.836 3.4954 10.3 6.0242 16.093 7.4485 1.702.3987 3.354.9727 5.027 1.4676 4.045 1.1574 8.236 1.5655 12.349 2.3831 1.744.3103 3.524.3537 5.282.1272 1.945-.2234 3.889.9727 5.639.3211 1.945-.7493 3.336.7385 5.106.661 4.404-.2048 8.829-.0869 13.244-.1071 4.416-.0202 8.704-1.2644 13.127-.9727h-.001c.353.0434.712.0108 1.05-.0962 3.657-1.4972 7.779-.1257 11.377-1.8276 2.49.1256 4.862-.5151 7.283-.9728 2.586-.4375 5.192-.8067 7.778-1.2148 5.711-.8952 11.368-2.0293 16.969-3.4038l.001-.0016c4.422-1.1015 8.732-2.6126 12.874-4.5114 2.23-.9573 4.068-2.6437 5.213-4.7848-.526-2.9555-2.907-4.5209-4.473-6.9131z"/><path d="m572.444 170.434 1.449.729v1.099c-.881 1.104-1.984 2.012-3.238 2.663-5.698 3.423-11.415 6.807-17.054 10.347-4.006 2.5-8.363 4.415-12.077 7.419h-.001c-.599.444-1.426.416-1.994-.068 0-.262 0-.652.126-.816h.001c1.491-1.731 3.142-3.32 4.929-4.746 8.529-5.835 17.075-11.668 26.42-16.111.312-.166.662-.244 1.44-.516z"/><path d="m724.354 192.672-2.44.972c-.126-.428-.39-.816-.292-1.068 1.371-3.89 4.074-6.904 6.553-10.065 1.839-2.344 3.89-4.502 5.835-6.758v-.002c3.295-3.655 6.932-6.986 10.862-9.947.816-.632 1.818-.72 3.16-1.625-.24 1.964-1.139 3.787-2.547 5.174-1.352 1.381-2.762 2.714-4.084 4.122-4.677 4.999-9.353 9.996-13.974 15.043-1.03 1.119-1.838 2.509-3.073 4.153z"/><path d="m753.069 171.677c1.226-.116 1.887 0 2.158.797-.005.334-.073.665-.203.973-1.68 2.475-3.572 4.802-5.651 6.952-2.595 2.587-4.696 5.66-7.692 7.886-1.294.886-2.24 2.197-2.673 3.705l-1.508-1.381c-.056-1.454.469-2.872 1.458-3.937 4.669-4.999 8.422-10.873 14.111-14.995z"/><path d="m555.422 172.039.642 1.574-1.294 2.5c-2.914 2.643-6.189 4.859-9.724 6.582-2.042.973-3.967 2.188-6 3.19-1.219.745-2.716.875-4.046.351.563-1.468 1.641-2.678 3.035-3.404 3.073-1.994 6.222-3.89 9.325-5.835.751-.445 1.466-.949 2.14-1.506 1.756-1.488 3.76-2.656 5.921-3.452z"/><path d="m751.774 190.98c-.326-.598-.589-1.226-.786-1.878-.017-.583.032-1.166.145-1.739 2.092-2.197 4.075-4.639 6.807-6.418 1.382-1.074 2.684-2.251 3.889-3.52 1.449-1.313 1.459-1.313 4.542-2.247.231.137.394.362.453.624.059.261.007.535-.142.757-.468 1.131-1.079 2.197-1.819 3.17-3.719 4.44-8.141 8.239-13.088 11.251z"/></g></svg>