<svg width="767" height="319" viewBox="0 0 767 319" fill="none" xmlns="http://www.w3.org/2000/svg">
<path d="M5.54048 20.5297C0.695368 85.2848 -0.626164 149.602 0.254354 214.357C0.254354 215.678 1.57589 217 2.89742 217C52.6739 216.119 102.892 215.237 152.672 214.357C158.399 214.357 161.923 211.273 161.923 205.106C161.042 176.033 160.16 147.401 159.721 118.327C159.721 106.874 164.566 17.4487 155.315 15.6892C135.051 12.1656 112.147 15.2481 91.8818 15.2481C63.2491 15.2481 34.1762 15.2481 5.54048 15.6892C1.57589 15.6877 1.57589 20.9738 5.54048 20.5328C31.5301 20.9738 57.522 20.5328 83.5109 20.5328H126.68H143.86C158.396 20.5328 153.551 29.3425 153.551 39.9147C153.551 68.9884 153.992 97.6204 154.432 126.694C154.873 141.231 154.873 155.768 155.312 170.305C155.312 176.032 155.753 181.757 155.753 187.485C156.194 199.378 158.396 208.629 144.301 208.629C119.191 209.07 94.5241 209.51 69.415 209.951C55.7587 210.392 41.6629 210.392 28.0058 210.831C22.2786 210.831 16.9925 210.831 11.2669 211.272C2.45716 211.272 5.53973 192.33 5.53973 188.365C4.65921 132.423 6.86126 76.4766 10.8259 20.5305C11.2669 17.0069 5.53973 17.0069 5.53973 20.5305L5.54048 20.5297Z" fill="black"/>
<path d="M27.5645 42.5562C27.5645 59.7362 24.4805 80.0001 27.5645 96.2973C28.8861 102.464 40.7799 102.905 38.1368 108.632C26.243 137.265 30.2076 159.292 55.3167 177.794C109.5 217.881 158.396 142.112 122.273 96.3003C121.832 98.0628 120.952 99.3844 120.511 101.145C129.761 100.265 134.167 98.0613 135.488 88.3711C136.37 81.3209 140.335 45.6403 133.286 41.234C128 38.1499 119.63 39.0319 113.904 38.5909C100.689 37.2694 87.4737 36.8283 73.8166 36.3888C62.8034 35.9478 35.4922 30.6617 27.563 39.9124C26.2415 41.234 26.6825 43.436 28.0041 44.318C28.8846 44.759 29.7666 45.1986 30.2061 45.6396C33.2902 47.4021 35.9332 42.9965 32.8492 40.7945C39.4568 45.2001 57.9583 41.675 65.4464 41.675C76.0187 41.675 86.591 42.116 97.6042 42.9965C105.974 43.4375 129.762 41.234 129.762 55.7708C129.762 65.902 135.929 94.0952 120.511 95.8585C117.868 96.2995 116.988 98.5016 118.749 100.704C144.738 133.742 121.392 192.331 75.58 183.08C60.6021 179.996 42.5417 161.936 37.6973 147.84C32.8522 135.505 41.6619 115.682 46.507 103.788C46.948 102.466 46.066 100.704 44.7445 100.264C26.243 94.537 33.2917 57.9751 33.2917 42.5585C32.8507 39.032 27.5645 39.032 27.5645 42.557V42.5562Z" fill="black"/>
<path d="M51.3523 60.1747C70.2948 63.6983 88.7962 59.2942 107.736 61.4962C111.26 61.9373 111.26 56.2101 107.736 55.7691C89.235 54.0066 70.7335 58.4122 52.6738 54.8886C49.5912 54.0081 47.8287 59.2942 51.3523 60.1747V60.1747Z" fill="black"/>
<path d="M56.6385 83.0828H84.3907C88.3553 83.0828 110.38 80.4397 113.023 83.5238C115.225 86.1669 120.072 83.5238 117.868 80.8807C113.463 75.5946 104.653 77.7967 98.4865 77.7967H56.6393C53.1157 77.3556 53.1157 83.0828 56.6393 83.0828H56.6385Z" fill="black"/>
<path d="M83.5108 117.001C73.8191 118.763 67.2114 125.811 66.3309 135.502C65.4504 145.194 74.2601 153.123 83.5108 152.682C102.893 152.241 104.214 113.916 83.0698 116.12C79.5462 116.561 79.5462 121.848 83.0698 121.848C97.6067 120.526 95.4046 147.398 81.7483 147.398C74.2601 147.398 71.176 139.027 72.4976 132.861C73.8191 126.694 79.5462 123.61 85.2719 122.289C88.356 121.407 87.0344 116.12 83.5108 117.001H83.5108Z" fill="black"/>
<path d="M465.975 248.253C468.314 231.154 468.939 212.768 461.098 197.084C451.576 178.006 428.446 169.045 408.743 177.645C401.956 180.61 396.222 185.519 392.071 191.55C389.83 182.752 386.667 174.218 382.616 166.08C377.707 156.261 370.952 146.705 360.375 142.555C340.375 134.713 316.981 145.982 304.593 161.961C299.355 168.748 295.664 176.558 294.048 184.894C284.791 178.567 271.906 178.27 261.594 182.554C246.175 188.914 238.234 204.531 238.168 220.74C238.135 227.527 239.386 234.215 241.627 240.575C234.049 239.29 226.173 240.081 219.089 243.144C210.03 247.033 203.109 254.643 199.813 263.902C192.96 283.111 206.536 301.562 223.702 309.206C234.509 314.017 246.239 315.534 257.903 316.685C258.331 317.74 259.287 318.563 260.804 318.595C295.862 319.188 330.919 319.089 366.009 318.563C383.472 318.298 400.902 317.871 418.332 317.246C432.138 316.752 446.075 316.06 459.616 313.127C470.719 310.721 481.526 306.538 490.62 299.816C493.521 298.037 496.221 295.993 498.627 293.523C505.35 286.603 509.401 276.522 507.062 266.902C502.711 249.274 481.857 245.024 465.975 248.254L465.975 248.253ZM496.22 286.803C495.232 286.605 494.145 286.835 493.189 287.823C488.576 292.7 483.272 296.456 477.505 299.388C473.485 300.804 469.367 301.859 465.38 302.783C419.317 313.49 371.441 310.855 324.59 309.308C298.265 308.45 271.938 307.43 245.614 307.166C232.929 305.09 220.574 301.103 212.139 290.889C207.427 285.189 204.759 277.545 206.242 270.131C207.791 262.421 212.601 255.602 219.455 251.681C227.988 246.838 238.368 246.87 247.363 250.297C250.857 251.648 253.293 247.266 251.845 244.466C245.651 232.341 243.476 216.657 249.604 204.072C254.941 193.1 266.11 186.74 278.303 187.565C284.63 187.992 290.295 190.861 294.184 195.834C296.425 198.7 300.839 196.131 300.938 193.033C301.499 175.669 312.898 159.953 328.253 152.408C336.194 148.487 345.914 146.74 354.578 148.915C364.231 151.321 370.195 159.425 374.644 167.828C380.64 179.163 384.561 191.484 386.671 204.104C387.363 208.19 393.097 207.432 394.216 204.104C399.983 186.871 418.927 178.009 435.928 183.973C452.501 189.804 458.861 207.269 459.718 223.412C460.212 233.064 459.291 242.752 457.873 252.308C457.509 254.845 459.486 257.909 462.453 256.888C474.381 252.703 494.117 252.935 499.784 266.805C502.579 273.558 500.405 281.037 496.22 286.803L496.22 286.803Z" fill="black"/>
<path d="M266.507 206.474C267.034 205.715 267.528 205.122 268.286 204.265C269.01 203.474 269.801 202.716 270.626 202.024C272.239 200.64 274.02 199.487 275.567 198.071C276.588 197.149 275.832 195.04 274.381 195.205C269.603 195.731 265.188 199.39 262.157 202.948C260.543 204.826 259.224 206.901 258.204 209.142C257.149 211.481 256.03 214.182 256.294 216.818C256.393 217.937 256.986 218.928 258.139 219.256C259.16 219.521 260.511 219.091 260.973 218.103C261.499 217.016 261.863 215.862 262.258 214.743C262.423 214.248 262.587 213.722 262.784 213.194C262.851 212.964 262.95 212.732 263.049 212.502C263.049 212.502 263.18 212.173 263.246 212.04C264.168 210.063 265.287 208.22 266.508 206.473L266.507 206.474Z" fill="black"/>
<path d="M270.132 212.404C269.275 213.558 268.583 214.875 267.99 216.194C267.231 217.907 266.673 219.554 266.772 221.467C266.804 222.521 267.53 223.641 268.617 223.905C269.638 224.135 270.989 223.774 271.451 222.751C271.78 221.993 272.143 221.237 272.407 220.412C272.605 219.752 272.803 219.095 273.032 218.435C273.131 218.139 273.262 217.81 273.361 217.513C273.393 217.382 273.46 217.284 273.492 217.15C273.524 217.118 273.559 217.051 273.591 216.953C273.887 216.328 274.184 215.7 274.512 215.075C275.073 213.956 275.928 212.636 276.521 211.814C277.28 210.793 278.07 209.704 279.091 208.617C280.277 207.332 278.794 205.486 277.245 206.245C275.862 206.937 274.51 207.727 273.356 208.75C272.141 209.867 271.086 211.12 270.132 212.404L270.132 212.404Z" fill="black"/>
<path d="M486.967 269.864C486.308 270.358 485.947 270.785 485.683 271.576C485.552 272.004 485.386 272.433 485.255 272.861C485.124 273.288 485.025 273.75 484.86 274.178C484.793 274.375 484.729 274.573 484.662 274.771C484.662 274.771 484.531 275.099 484.497 275.166C483.805 276.814 482.915 278.395 481.893 279.811C481.86 279.878 481.794 279.942 481.762 279.976C481.631 280.142 481.497 280.305 481.366 280.438C481.038 280.801 480.707 281.162 480.346 281.525C480.049 281.822 479.753 282.086 479.424 282.383C479.227 282.548 479.061 282.711 478.863 282.877C478.831 282.909 478.634 283.042 478.535 283.141C477.119 284.228 475.471 284.92 473.989 285.876C472.902 286.568 472.375 287.951 472.902 289.137C473.462 290.422 474.648 290.85 476 290.652C478.273 290.289 480.316 288.873 482.063 287.489C483.743 286.173 485.161 284.525 486.347 282.746C487.533 280.999 488.489 279.023 489.015 276.979C489.541 274.936 490.332 271.643 488.521 270.059C488.121 269.7 487.429 269.503 486.967 269.864L486.967 269.864Z" fill="black"/>
<path d="M476.948 278.101C477.805 276.685 478.398 275.037 478.759 273.422C479.154 271.643 479.122 269.928 478.759 268.149C478.462 266.6 475.826 266.536 475.562 268.149C475.364 269.501 474.969 270.852 474.507 272.169C474.44 272.335 474.376 272.466 474.341 272.631V272.663C474.341 272.695 474.341 272.695 474.309 272.73C474.144 273.059 473.981 273.39 473.815 273.718C473.487 274.343 473.091 274.904 472.696 275.497C472.597 275.628 472.498 275.761 472.399 275.925C472.367 275.991 472.333 276.023 472.301 276.056C472.103 276.285 471.938 276.517 471.708 276.747C471.246 277.274 470.719 277.768 470.193 278.198C470.126 278.264 470.094 278.296 470.062 278.329C469.931 278.427 469.832 278.494 469.699 278.593C469.435 278.791 469.138 278.956 468.876 279.154C468.283 279.581 467.658 279.976 467.031 280.372C464.79 281.886 466.173 285.281 468.876 284.72C472.335 283.966 475.169 281.001 476.948 278.101L476.948 278.101Z" fill="black"/>
<path d="M297.908 291.974C292.834 292.271 287.794 292.37 282.719 292.105C277.612 291.809 272.636 290.853 267.629 289.995C266.376 289.798 265.388 291.545 266.707 292.204C276.162 297.145 288.157 298.433 298.537 296.488C301.039 295.994 300.479 291.841 297.909 291.974L297.908 291.974Z" fill="black"/>
<path d="M273.656 281.76C280.146 284.594 287.329 285.582 294.414 285.12C295.699 285.021 296.786 284.1 296.786 282.748C296.786 281.464 295.699 280.377 294.414 280.377C287.692 280.409 281.038 279.784 274.382 279.158C272.996 278.991 272.369 281.199 273.656 281.76L273.656 281.76Z" fill="black"/>
<path d="M576.813 175.605C574.995 170.141 574.022 164.481 572.778 158.87C571.981 155.263 572.263 151.547 571.105 147.979C570.474 146.033 570.755 143.777 570.727 141.658C570.668 137.769 570.649 133.879 570.727 129.99C570.589 129.135 570.347 128.299 570.007 127.501C569.841 126.733 570.493 125.712 570.212 125.051C569.483 123.349 571.087 122.046 570.718 120.433C570.417 119.139 570.581 117.719 570.173 116.475C569.658 114.889 569.881 113.324 569.822 111.759C569.736 109.493 569.608 107.217 570.659 105.021C571.078 104.146 570.814 102.929 570.825 101.88C570.825 93.7508 570.825 85.6322 570.884 77.5026C570.884 75.5571 570.758 73.6131 571.788 71.9406C571 69.0239 570.271 66.3584 571.69 63.5968C572.05 62.8863 571.797 61.8561 571.816 60.9718C571.884 57.8208 571.622 54.6417 572.789 51.5779V51.5764C572.958 50.706 573.003 49.8155 572.924 48.9311C573.099 45.6157 572.427 42.2118 573.897 39.0126C573.712 35.5312 574.753 31.972 573.254 28.5698L574.364 24.7967C576.196 22.3609 578.405 20.234 580.908 18.4964C586.102 14.8924 591.814 12.1 597.846 10.2102C603.486 8.3144 609.068 6.32076 614.814 4.72573C617.187 4.07413 619.677 4.1036 622.001 3.25807C624.325 2.41253 626.813 2.28532 629.187 1.82917C635.314 0.555442 641.43 0.80832 647.595 0.856418C651.252 0.915374 655.024 1.64456 658.564 0H670.748C672.536 1.09841 674.53 0.738498 676.446 0.699694V0.701246C681.735 0.722966 686.988 1.58868 692.004 3.26732C696.866 4.74587 701.971 5.43623 706.405 8.12948C710.946 9.23877 714.592 12.0671 718.481 14.4298L718.483 14.4313C721.142 16.0588 723.509 18.1238 725.483 20.5378L728.866 27.3441V31.4866C728.021 33.6555 727.652 35.9889 725.608 37.6022V56.6898C725.608 58.4398 725.297 60.1806 725.123 61.9011C724.744 65.7425 724.986 69.6801 724.968 73.512C725.872 75.1549 725.59 76.9546 725.629 78.7046C725.715 83.1199 725.765 87.5337 725.852 91.9494H725.853C725.74 93.1797 725.889 94.4193 726.291 95.586C726.981 97.0831 726.621 98.7261 726.562 100.293C726.562 101.499 725.774 102.793 726.047 103.862C726.378 105.155 725.776 106.293 725.95 107.411C726.369 110.047 725.784 112.604 725.756 115.19C725.726 117.776 725.756 120.49 725.756 123.135C725.756 127.909 725.863 132.675 725.881 137.449C725.881 140.258 726.037 143.05 724.909 145.793L724.91 145.791C724.508 147.147 724.4 148.573 724.589 149.972C724.643 152.44 724.214 154.895 723.325 157.197C722.994 157.833 722.571 158.416 722.071 158.928C720.197 157.209 718.914 154.943 718.405 152.453C717.587 149.762 717.159 146.968 717.131 144.157C717.179 142.571 716.956 140.958 717.131 139.392C717.307 137.827 716.275 136.476 716.899 134.765C717.288 133.714 716.47 132.42 715.488 131.264C713.923 132.237 712.308 133.277 710.733 134.338C710.15 134.727 709.712 135.311 709.109 135.689C703.458 138.898 697.81 142.204 691.509 143.926C688.465 144.753 685.519 145.871 682.475 146.658V146.656C678.092 147.848 673.645 148.786 669.153 149.467C667.082 149.779 665.02 150.206 662.93 150.44C660.839 150.673 658.71 150.44 656.696 151.345V151.343C656.009 151.509 655.297 151.545 654.596 151.45C650.007 151.45 645.406 151.382 640.818 151.537C634.011 151.76 627.281 150.564 620.543 149.855C619.142 149.709 617.752 149.573 616.353 149.466C614.407 149.32 612.463 149.466 610.616 148.717V148.718C609.944 148.502 609.236 148.426 608.534 148.495C603.177 148.641 598.157 146.988 593.063 145.674H593.064C590.166 145.012 587.317 144.155 584.536 143.107C584.137 142.941 583.563 143.193 582.843 143.291C582.542 145.431 582.133 147.609 582.784 149.591L582.786 149.593C583.319 151.635 583.543 153.746 583.447 155.855C583.544 159.919 583.592 163.984 583.631 168.049V175.45L581.492 180.312C583.952 182.734 587.113 183.54 590.077 184.201C595.193 185.31 600.258 186.758 605.635 186.769C608.388 186.769 611.12 187.683 613.968 187.673L613.97 187.672C616.599 187.68 619.224 187.904 621.817 188.344C624.307 188.752 627.078 189.093 629.596 187.993C631.433 188.323 633.313 188.323 635.148 187.993C636.762 189.198 638.513 187.847 640.224 188.264C641.776 188.593 643.369 188.691 644.95 188.558C647.03 188.432 649.17 188.801 651.212 187.828V187.827C652.068 187.602 652.96 187.549 653.837 187.672H659.137C661.791 187.672 664.446 187.672 667.082 187.506C669.513 187.312 671.885 186.67 674.336 186.455C676.786 186.241 679.413 185.172 681.979 184.696C684.387 184.207 686.751 183.525 689.049 182.654C696.213 180.267 703.057 176.999 709.419 172.93C711.9 171.276 714.292 169.495 716.587 167.592C719.504 165.142 722.363 162.429 725.601 161.31C728.294 161.135 728.975 163.158 730.463 164.227V164.228C733.206 161.231 736.509 158.8 740.186 157.071C741.143 156.586 742.272 156.586 743.23 157.071C743.569 157.655 743.143 157.994 742.821 158.354C742.589 158.621 742.339 158.871 742.072 159.104C737.337 163.149 733.612 168.04 730.053 173.096C727.982 176.146 725.729 179.069 723.306 181.848C720.389 185.124 718.006 188.907 714.661 191.835C714.138 192.314 713.681 192.86 713.299 193.457C710.809 197.172 707.211 199.68 704.091 202.209C703.027 202.454 701.95 201.858 701.592 200.828C705.053 194.819 709.701 189.558 713.932 183.578C712.143 183.47 711.092 184.55 709.876 185.027C708.661 185.503 707.347 186.262 706.657 186.612C698.217 195.986 689.281 204.018 681.219 212.507L677.33 213.81C676.892 213.527 676.691 212.99 676.833 212.487C677.376 210.431 678.509 208.579 680.091 207.159L690.846 196.181V196.18C691.64 195.575 692.262 194.774 692.655 193.856C692.537 193.282 692.027 192.872 691.439 192.884C689.775 192.768 688.365 193.555 686.645 194.236C683.806 197.503 680.158 200.351 677.524 204.174C676.337 205.906 673.965 206.489 673.06 208.549C670.231 210.124 668.335 212.778 665.99 214.899H665.992C664.08 216.73 661.831 218.173 659.37 219.149C658.978 218.952 658.703 218.581 658.629 218.149C658.554 217.718 658.688 217.276 658.99 216.959C660.32 215.129 661.741 213.366 663.251 211.68C668.102 206.228 673.298 201.093 678.809 196.307C676.533 195.84 674.452 196.491 672.44 196.131C667.053 202.297 660.644 206.915 654.285 211.602C652.82 212.578 651.255 213.397 649.617 214.043C648.97 214.37 648.194 214.311 647.604 213.888C649.744 210.775 649.831 210.882 656.686 205.622C659.876 203.172 663.385 201.051 666.08 197.745C664.651 196.948 663.28 197.415 661.968 197.366C660.655 197.318 659.138 197.366 657.709 197.366H657.707C654.133 198.907 650.952 201.234 648.401 204.173C645.66 207.158 642.625 209.823 639.727 212.623C636.513 215.849 633.116 218.887 629.556 221.724C629.055 222.248 628.326 222.49 627.612 222.366C627.148 222.078 626.979 221.485 627.223 220.995C628.358 218.415 629.946 216.057 631.91 214.034C634.743 211.123 637.605 208.242 640.495 205.389C641.549 204.201 642.767 203.169 644.113 202.325C645.746 201.382 647.117 200.044 648.101 198.435C644.804 197.998 641.682 198.435 638.804 198.105C631.116 206.074 622.789 213.405 613.91 220.024C612.869 220.286 612.014 220.559 611.226 219.839H611.227C611.389 218.086 612.192 216.456 613.483 215.258C615.185 213.527 616.147 211.057 618.589 210.047C621.234 206.225 625.338 203.94 628.459 200.614H628.458C629.286 199.844 630.164 199.126 631.083 198.465C628.583 198.127 626.055 198.042 623.537 198.212C617.225 204.446 609.923 209.356 602.854 214.568C600.265 216.315 597.528 217.835 594.677 219.109L592.187 217.933C595.308 213.401 599.596 210.592 603.787 207.664C607.676 204.941 611.566 202.218 615.455 199.477H615.457C616.279 199.037 616.906 198.3 617.207 197.415C614.475 196.862 611.567 197.493 608.874 196.219C603.214 200.109 597.935 204.474 592.256 208.286C586.724 212.001 581.561 216.221 575.541 219.207H575.54C575.121 218.838 574.896 218.293 574.935 217.735C574.972 217.176 575.268 216.667 575.735 216.359C578.895 214.413 581.151 211.38 584.252 209.3C587.889 206.869 591.166 203.922 594.656 201.277C597.165 199.332 599.762 197.602 602.378 195.715C601.988 195.433 601.774 195.161 601.521 195.102C599.466 194.668 597.405 194.26 595.337 193.877C594.892 193.872 594.448 193.922 594.016 194.023C591.341 196.192 588.551 198.584 585.615 200.829C581.559 203.902 577.729 207.266 573.392 209.988C571.02 211.476 568.89 213.343 566.644 215.035H566.642C565.975 215.322 565.199 215.163 564.698 214.637L566.838 211.583C574.423 205.432 582.033 199.254 589.669 193.05C589.766 192.972 589.728 192.71 589.755 192.535H589.757C589.548 192.282 589.306 192.06 589.037 191.874C587.005 190.853 584.954 189.862 582.97 188.889C575.191 196.212 566.439 202.113 557.94 208.268C556.531 209.326 554.924 210.086 553.214 210.505C552.533 209.883 552.777 209.231 553.273 208.678C556.589 204.982 560.596 202.095 564.563 199.158C569.367 195.599 574.164 192.033 578.954 188.462C579.383 188.141 579.781 187.801 580.383 187.325C578.487 185.302 577.574 182.783 575.161 181.15L567.713 186.985V186.982C567.057 187.571 566.351 188.102 565.603 188.567C560.925 191.037 556.725 194.227 552.349 197.153C549.432 199.098 548.605 199.409 544.492 199.914C545.799 197.798 547.543 195.985 549.606 194.596C556.102 189.802 562.559 184.949 569.491 180.779C570.997 179.874 572.466 178.902 573.973 178.017C575.073 177.345 576.201 176.82 576.813 175.605L576.813 175.605ZM714.309 83.5096C709.078 86.1052 703.963 88.7892 698.44 90.5888C697.011 91.0558 695.687 91.9308 694.113 92.2907C689.523 93.341 685.108 94.9933 680.43 95.8016C675.976 96.5696 671.795 98.6222 667.167 98.7184C666.837 98.7184 666.525 98.9899 666.194 99.1078C664.561 99.7206 662.781 99.643 661.138 100.42C659.778 101.072 658.124 99.4475 656.656 100.625C652.475 101.092 648.333 101.851 644.093 101.685C641.108 101.559 638.093 101.928 635.108 101.744C629.166 101.374 623.148 102.609 617.284 100.849V100.847C617.113 100.794 616.93 100.794 616.759 100.847C614.513 101.703 612.305 100.517 610.049 100.731C606.859 101.042 603.922 99.5546 600.841 99.0286C599.023 98.7168 597.204 97.9395 595.338 97.5113H595.337C592.918 97.1095 590.615 96.1864 588.588 94.8087C586.83 93.5784 584.784 92.8244 582.647 92.6212C582.647 96.3741 582.142 100.031 582.939 103.697C583.321 104.957 583.401 106.29 583.172 107.587C582.714 109.113 583.892 110.289 583.532 111.69C583.437 112.554 583.288 113.411 583.085 114.256C582.692 115.431 582.531 116.669 582.609 117.904C582.54 122.133 582.415 126.373 582.502 130.604C582.502 131.752 582.21 133.083 583.201 134.231C587.918 135.077 592.808 135.632 597.506 136.895V136.893C601.018 137.992 604.661 138.612 608.338 138.741C612.052 138.741 615.602 140.083 619.345 139.83C621.291 139.551 623.272 139.65 625.18 140.122C627.787 141.017 630.382 140.842 632.959 141.006V141.008C635.24 141.048 637.514 141.25 639.765 141.61C642.381 142.06 645.056 142.033 647.661 141.532C649.383 141.205 651.131 141.042 652.883 141.047C659.213 141.172 663.715 140.249 671.61 138.674L671.612 138.673C678.778 137.077 685.834 135.015 692.732 132.498C693.889 132.109 695.046 131.691 696.163 131.195C702.571 128.365 708.941 125.428 715.854 124.621L717.167 123.115H717.168C716.492 121.339 716.197 119.441 716.303 117.544C716.303 114.539 716.507 111.467 715.924 108.559C715.147 104.67 715.311 100.858 715.243 96.9982C715.175 93.2934 715.243 89.5791 715.243 85.8743V85.8727C715.369 84.976 715.013 84.0793 714.309 83.5099L714.309 83.5096ZM718.247 43.7291C716.06 42.8727 714.902 44.0207 713.647 44.5358H713.649C710.059 45.9228 706.347 46.9716 702.564 47.6666C699.987 48.191 697.371 48.4827 694.785 48.9698C692.062 49.4849 689.407 50.6128 686.616 50.7198C683.622 50.8269 680.84 52.2945 677.778 51.8772H677.776C677.073 51.8617 676.378 52.0432 675.773 52.4031C674.814 52.8701 673.733 53.0268 672.681 52.8499C669.619 52.3923 666.846 53.9189 663.822 53.9096C660.642 53.9096 657.472 54.0461 654.293 54.1423V54.1439C653.768 54.1377 653.246 54.2199 652.747 54.3859C651.245 54.8637 649.641 54.9212 648.109 54.5519C646.455 54.3083 644.735 55.3788 643.004 54.5519C641.885 54.0275 640.807 55.2128 639.504 54.4836C638.531 53.9391 637.111 54.1532 635.897 54.1051C634.682 54.057 633.427 54.1051 632.192 54.1051C629.551 54.1128 626.914 53.9437 624.295 53.5993C622.933 53.2937 621.547 53.1075 620.152 53.0455C616.299 52.9245 612.476 52.2961 608.785 51.1775C606.957 50.5849 605.013 50.9247 603.166 49.9426C601.731 49.3018 600.23 48.8162 598.693 48.4935C593.471 46.9964 588.337 45.1874 583.814 42.0364V42.0379C582.899 41.3351 581.835 40.8526 580.702 40.6276C580.615 41.1722 580.547 41.512 580.497 41.8533C580.147 44.7017 580.974 47.4152 581.343 50.1859H581.345C581.532 52.2928 581.594 54.4106 581.529 56.5251C581.529 58.4706 581.228 60.4627 581.607 62.3599C582.035 64.4699 581.422 66.4635 581.538 68.5145C581.49 69.9139 581.605 71.3133 581.88 72.6864C582.337 74.1928 580.85 75.8079 582.288 77.1593C581.684 79.941 582.511 82.5958 582.716 85.2393C587.957 87.5929 593.412 88.0784 598.673 88.7596C602.649 89.2653 606.579 90.491 610.662 90.131C611.188 90.1558 611.703 90.2955 612.17 90.5406C614.436 91.4451 616.625 90.8416 618.724 90.1512C620.432 91.231 622.592 91.2977 624.363 90.3265C624.819 90.1806 625.296 90.1139 625.773 90.131L627.874 90.899C630.237 90.0829 632.736 89.4701 635.051 90.4801C636.851 91.2775 638.512 90.84 640.039 90.5871V90.5887C642.447 90.238 644.878 90.0689 647.312 90.0829C652.427 90.0348 657.542 90.0147 662.656 89.9464C664.055 90.0503 665.461 89.9231 666.818 89.5678C668.143 89.107 669.538 88.8821 670.94 88.9069C672.334 88.865 673.718 88.6633 675.064 88.3034C679.107 87.2345 683.222 86.4525 687.375 85.9607C691.894 85.4783 696.318 84.3178 700.492 82.5181C702.41 81.6663 704.41 81.0147 706.462 80.5726C707.99 80.1894 709.461 79.6076 710.837 78.8427C712.296 78.143 714.066 78.8427 715.33 77.5984C715.456 77.4821 715.574 77.3456 715.709 77.1997C716.331 76.0625 716.048 74.7981 716.098 73.5817C716.205 71.1118 715.816 68.544 716.351 66.1924C717.187 62.5263 717.128 58.8602 717.324 55.1848V55.1833C717.279 53.9499 717.46 52.7165 717.859 51.5467C718.115 50.7074 718.221 49.8277 718.169 48.9511C718.357 47.2166 718.383 45.4681 718.247 43.7291L718.247 43.7291ZM716.838 23.7852C714.261 21.835 711.436 20.2386 708.436 19.041C704.605 17.3297 700.86 15.4726 696.709 14.5974C693.111 13.8388 689.581 12.8272 685.954 12.1756C682.172 11.4945 678.418 10.5513 674.557 10.5125C667.847 10.4349 661.128 10.5125 654.419 10.5125C653.718 10.4178 653.005 10.4628 652.32 10.649C650.133 11.6217 647.809 11.3192 645.514 11.5535C644.648 11.6403 643.794 11.8063 642.937 11.9615C640.02 12.4766 637.102 13.3221 634.185 13.4586C628.876 13.7208 623.898 15.5779 618.628 16.259H618.626C614.063 17.013 609.41 17.0456 604.838 16.3567C606.219 14.8689 607.395 13.44 609.165 12.4672C613.153 10.3542 617.376 8.72203 621.748 7.60507C620.001 7.09621 618.134 7.16445 616.429 7.799C610.858 9.28684 605.47 11.3379 599.899 12.9713V12.9729C598.495 13.4026 597.061 13.7284 595.61 13.9441C594.574 15.0968 593.221 15.9191 591.721 16.3069C587.793 17.4255 584.592 19.9249 581.277 22.2101C579.333 23.4031 577.915 25.2897 577.309 27.4897C577.649 28.4035 578.009 29.2009 578.282 30.0371C579.042 32.5691 580.681 34.7472 582.901 36.1826C587.737 39.678 593.201 42.2068 598.994 43.6311C600.696 44.0298 602.348 44.6038 604.021 45.0987C608.066 46.2561 612.257 46.6642 616.37 47.4818C618.114 47.7921 619.894 47.8355 621.652 47.609C623.597 47.3856 625.541 48.5817 627.291 47.9301C629.236 47.1808 630.627 48.6686 632.397 48.5911C636.801 48.3863 641.226 48.5042 645.641 48.484C650.057 48.4638 654.345 47.2196 658.768 47.5113H658.767C659.12 47.5547 659.479 47.5221 659.817 47.4151C663.474 45.9179 667.596 47.2894 671.194 45.5875C673.684 45.7131 676.056 45.0724 678.477 44.6147C681.063 44.1772 683.669 43.808 686.255 43.3999C691.966 42.5047 697.623 41.3706 703.224 39.9961L703.225 39.9945C707.647 38.893 711.957 37.3819 716.099 35.4831C718.329 34.5258 720.167 32.8394 721.312 30.6983C720.786 27.7428 718.405 26.1774 716.839 23.7852L716.838 23.7852Z" fill="black"/>
<path d="M572.444 170.434L573.893 171.163V172.262C573.012 173.366 571.909 174.274 570.655 174.925C564.957 178.348 559.24 181.732 553.601 185.272C549.595 187.772 545.238 189.687 541.524 192.691H541.523C540.924 193.135 540.097 193.107 539.529 192.623C539.529 192.361 539.529 191.971 539.655 191.807H539.656C541.147 190.076 542.798 188.487 544.585 187.061C553.114 181.226 561.66 175.393 571.005 170.95C571.317 170.784 571.667 170.706 572.445 170.434L572.444 170.434Z" fill="black"/>
<path d="M724.354 192.672L721.914 193.644C721.788 193.216 721.524 192.828 721.622 192.576C722.993 188.686 725.696 185.672 728.175 182.511C730.014 180.167 732.065 178.009 734.01 175.753V175.751C737.305 172.096 740.942 168.765 744.872 165.804C745.688 165.172 746.69 165.084 748.032 164.179C747.792 166.143 746.893 167.966 745.485 169.353C744.133 170.734 742.723 172.067 741.401 173.475C736.724 178.474 732.048 183.471 727.427 188.518C726.397 189.637 725.589 191.027 724.354 192.671L724.354 192.672Z" fill="black"/>
<path d="M753.069 171.677C754.295 171.561 754.956 171.677 755.227 172.474C755.222 172.808 755.154 173.139 755.024 173.447C753.344 175.922 751.452 178.249 749.373 180.399C746.778 182.986 744.677 186.059 741.681 188.285C740.387 189.171 739.441 190.482 739.008 191.99L737.5 190.609C737.444 189.155 737.969 187.737 738.958 186.672C743.627 181.673 747.38 175.799 753.069 171.677L753.069 171.677Z" fill="black"/>
<path d="M555.422 172.039L556.064 173.613L554.77 176.113C551.856 178.756 548.581 180.972 545.046 182.695C543.004 183.668 541.079 184.883 539.046 185.885C537.827 186.63 536.33 186.76 535 186.236C535.563 184.768 536.641 183.558 538.035 182.832C541.108 180.838 544.257 178.942 547.36 176.997C548.111 176.552 548.826 176.048 549.5 175.491C551.256 174.003 553.26 172.835 555.421 172.039L555.422 172.039Z" fill="black"/>
<path d="M751.774 190.98C751.448 190.382 751.185 189.754 750.988 189.102C750.971 188.519 751.02 187.936 751.133 187.363C753.225 185.166 755.208 182.724 757.94 180.945C759.322 179.871 760.624 178.694 761.829 177.425C763.278 176.112 763.288 176.112 766.371 175.178C766.602 175.315 766.765 175.54 766.824 175.802C766.883 176.063 766.831 176.337 766.682 176.559C766.214 177.69 765.603 178.756 764.863 179.729C761.144 184.169 756.722 187.968 751.775 190.98H751.774Z" fill="black"/>
</svg>
