<svg fill="none" height="405" viewBox="0 0 558 405" width="558" xmlns="http://www.w3.org/2000/svg" xmlns:xlink="http://www.w3.org/1999/xlink"><mask id="a" fill="#fff"><path d="m148.017 390c-.215 0-.43 0-.648-.029-1.852-.167-3.559-1.052-4.749-2.465-1.189-1.409-1.763-3.23-1.59-5.058 1.141-12.302 2.337-26.122 3.523-39.585.723-8.302 1.44-16.524 2.121-24.137l.893-10.024c3.139-35.257 6.388-71.714 10.152-107.548 2.659-25.35 7.11-50.745 11.409-75.345.99-5.676 1.975-11.358 2.952-17.041l-.003.003c.645-3.768 4.263-6.31 8.082-5.673 3.816.637 6.387 4.209 5.742 7.98-.978 5.695-1.969 11.384-2.966 17.067-4.259 24.355-8.665 49.538-11.279 74.418-3.738 35.727-7.006 72.132-10.128 107.334l-.897 10.046c-.677 7.604-1.401 15.786-2.115 24.105-1.183 13.489-2.388 27.332-3.526 39.672h-.003c-.336 3.555-3.353 6.274-6.97 6.277z" fill="#fff"/></mask><mask id="b" fill="#fff"><path d="m310.044 403h-.559c-16.173-1.295-32.992-3.336-50.797-5.501-37.495-4.552-76.298-9.267-110.252-6.879-3.837.266-7.157-2.645-7.419-6.493-.265-3.849 2.631-7.185 6.468-7.448 35.303-2.489 74.75 2.327 112.901 6.945 17.656 2.145 34.339 4.186 50.231 5.442v.003c3.711.302 6.526 3.492 6.377 7.227-.145 3.738-3.2 6.694-6.924 6.704z" fill="#fff"/></mask><mask id="c" fill="#fff"><path d="m309.926 403c-.412 0-.823-.035-1.231-.106-1.804-.323-3.409-1.354-4.457-2.862-1.048-1.511-1.453-3.377-1.129-5.185.624-3.441 1.348-7.392 2.135-11.658 2.917-15.855 6.55-35.572 8.122-48.242 2.917-23.56 4.975-47.689 6.955-71.012 1.061-12.423 2.113-24.834 3.299-37.247 3.383-35.411 8.09-75.971 12.589-108.487v-.003c.199-1.866 1.141-3.57 2.617-4.727s3.357-1.663 5.209-1.405c1.855.258 3.527 1.257 4.633 2.774 1.103 1.515 1.55 3.413 1.232 5.262-4.466 32.337-9.145 72.675-12.511 107.901-1.183 12.361-2.235 24.732-3.286 37.106-2 23.452-4.061 47.71-7.019 71.543-1.618 13.064-5.293 33.017-8.242 49.048-.784 4.241-1.508 8.182-2.119 11.6l-.003-.003c-.592 3.297-3.453 5.697-6.794 5.701z" fill="#fff"/></mask><mask id="d" fill="#fff"><path d="m343.084 125.997c-.49 0-.979-.049-1.456-.153-27.265-6.394-55.04-10.299-82.998-11.674-24.587-.719-50.39.844-79.141 2.802-1.848.153-3.68-.453-5.084-1.675-1.404-1.224-2.267-2.97-2.39-4.84-.122-1.873.499-3.713 1.733-5.117 1.23-1.403 2.966-2.247 4.817-2.345 22.458-1.527 53.211-3.6087 80.467-2.824 28.792 1.391 57.401 5.401 85.488 11.977 3.462.745 5.809 4.016 5.442 7.579-.37 3.56-3.333 6.266-6.875 6.273z" fill="#fff"/></mask><mask id="e" fill="#fff"><path d="m175.845 341.999h-.353c-1.81-.09-3.512-.914-4.73-2.28-1.216-1.37-1.845-3.172-1.753-5.011 2.914-58.293 10.905-134.065 21.371-202.677v-.003c.242-1.851 1.209-3.524 2.682-4.645 1.472-1.118 3.327-1.586 5.144-1.302 1.819.288 3.445 1.305 4.517 2.824 1.069 1.518 1.492 3.411 1.174 5.249-10.4 68.172-18.334 143.418-21.225 201.263-.191 3.689-3.19 6.583-6.826 6.583z" fill="#fff"/></mask><mask id="f" fill="#fff"><path d="m296.086 349c-.441 0-.883-.041-1.315-.124-20.884-4.363-42.036-7.369-63.317-8.993-18.295-.619-36.606-.003-54.815 1.847-3.795.339-7.17-2.365-7.602-6.093-.19-1.8.358-3.602 1.518-5.005 1.161-1.406 2.841-2.298 4.669-2.482 18.865-1.913 37.844-2.551 56.797-1.907 21.977 1.644 43.819 4.728 65.38 9.235 3.495.676 5.903 3.849 5.568 7.34s-3.305 6.163-6.867 6.182z" fill="#fff"/></mask><mask id="g" fill="#fff"><path d="m296.183 348.993c-.301 0-.601-.019-.899-.052-3.935-.481-6.722-3.952-6.227-7.753 3.434-26.509 5.94-55.716 8.362-83.968 3.428-39.966 6.973-81.294 13.301-118.408.311-1.815 1.356-3.439 2.907-4.514 1.55-1.073 3.474-1.505 5.355-1.205 3.919.623 6.569 4.198 5.92 7.983-6.227 36.571-9.755 77.596-13.167 117.292-2.442 28.395-4.961 57.755-8.432 84.554-.452 3.469-3.502 6.072-7.12 6.078z" fill="#fff"/></mask><mask id="h" fill="#fff"><path d="m317.933 146.987c-.632 0-1.262-.084-1.869-.248-18.695-5.237-37.899-8.483-57.289-9.692-16.073-.494-32.165.093-48.16 1.755-4.381.352-8.716.703-12.985 1.003-1.872.162-3.734-.426-5.166-1.632-1.432-1.207-2.312-2.933-2.446-4.788s.492-3.685 1.735-5.082c1.246-1.394 3.004-2.236 4.882-2.339 4.208-.3 8.51-.642 12.845-.994 16.644-1.726 33.391-2.319 50.12-1.774 20.385 1.261 40.577 4.672 60.231 10.176 3.396.916 5.578 4.178 5.105 7.624-.476 3.449-3.457 6.017-6.974 6.004z" fill="#fff"/></mask><mask id="i" fill="#fff"><path d="m230.131 375c-1.528.006-3.053-.161-4.543-.499-3.125-.373-5.977-1.918-7.945-4.299-1.968-2.385-2.894-5.421-2.584-8.457 1.026-9.087 13.299-18.567 24.321-18.744 1.77-.026 3.487.594 4.807 1.734 10.621 9.233 8.48 16.906 4.817 21.711-4.664 5.43-11.583 8.563-18.873 8.554zm6.942-17.933c-2.584.929-4.918 2.423-6.818 4.359 2.809-.041 5.492-1.137 7.476-3.061.108-.066.033-.436-.658-1.298z" fill="#fff"/></mask><mask id="j" fill="#fff"><path d="m63.0073 390.996c-3.4393-.007-6.3612-2.48-6.9014-5.842-2.6161-16.306-5.5315-32.893-8.3465-48.94l-3.1854-18.184c-14.2648-82.183-30.7027-177.566-44.463539-261.8767v.0032c-.331892-1.8293.091113-3.7165 1.174669-5.2335 1.08678-1.5169 2.73974-2.5378 4.59436-2.8341 1.85471-.2963 3.75166.1546 5.26471 1.256 1.513 1.1014 2.5151 2.7601 2.7787 4.599 13.7375 84.2691 30.1663 179.6111 44.4177 261.7611l3.1757 18.155c2.8276 16.087 5.7527 32.722 8.3948 49.127l.0032-.003c.5987 3.778-2.0043 7.324-5.8211 7.919-.3611.062-.7223.094-1.0868.097z" fill="#fff"/></mask><mask id="k" fill="#fff"><path d="m62.9424 391c-3.4906-.006-6.4348-2.531-6.8841-5.9-.4492-3.371 1.7389-6.545 5.113-7.414 28.9005-7.395 58.2657-12.945 87.9097-16.619 3.788-.52 7.297 2.043 7.847 5.733.546 3.689-2.069 7.118-5.856 7.669-29.12 3.573-57.9685 9.019-86.3543 16.304-.5817.151-1.1797.227-1.7775.227z" fill="#fff"/></mask><mask id="l" fill="#fff"><path d="m270.855 114c-3.479-.007-6.447-2.448-7.02-5.773-1.198-6.914-1.679-10.0039-4.027-25.1575-2.003-12.9085-5.369-34.6374-11.723-75.10841l-.003-.00322c-.591-3.77535 2.086-7.303142 5.982-7.878759 3.894-.572414 7.532 2.022729 8.125 5.801369 6.351 40.48752 9.724 62.23942 11.724 75.14712 2.325 15.0145 2.799 18.063 3.989 24.9254.312 1.807-.129 3.663-1.23 5.158-1.098 1.493-2.762 2.502-4.63 2.805-.391.061-.789.09-1.187.083z" fill="#fff"/></mask><mask id="m" fill="#fff"><path d="m6.92904 61.9992c-3.40531.0032-6.308487-2.4754-6.8428315-5.8467-.5342955-3.3682 1.4612315-6.6267 4.7024015-7.6775 13.84349-4.5092 28.12459-8.0353 41.93599-11.4453 4.8086-1.1861 9.6108-2.3754 14.4005-3.6002 23.2228-5.9499 44.7579-9.4213 65.5989-12.7762 13.174-2.1208 25.607-4.1224 38.147-6.6784v.0032c29.582-6.2303 59.471-10.88415 89.549-13.9461797 3.805-.3642173 7.184 2.4302297 7.548 6.2431997.364 3.80978-2.427 7.19408-6.234 7.55828-29.589 3.0168-58.998 7.5969-88.108 13.7242-12.81 2.614-25.379 4.622-38.701 6.7848-20.535 3.3037-41.7585 6.7234-64.369 12.5187-4.828 1.2377-9.6916 2.4367-14.5225 3.6324-13.5667 3.3489-27.5964 6.8105-40.967 11.1681l.00644-.0033c-.692.2257-1.41625.3417-2.14365.3417z" fill="#fff"/></mask><mask id="n" fill="#fff"><path d="m70.0406 340.995c-3.3173-.006-6.1613-2.38-6.7861-5.653-1.5363-8.05-2.6442-14.603-3.6942-20.992-1.3302-7.891-2.5863-15.393-4.5767-25.182-4.377-21.501-7.8039-43.133-11.1144-64.06-2.0098-12.651-4.0227-25.341-6.2483-38.121-6.6121-37.917-14.1007-80.885-17.595-119.3905h.0032c-.3478-3.8306 2.4607-7.2207 6.2708-7.5672 3.8102-.3497 7.1823 2.4738 7.5301 6.3044 3.4366 37.9303 10.8737 80.6003 17.4401 118.2543 2.2383 12.856 4.2675 25.61 6.2804 38.338 3.2916 20.769 6.6992 42.243 11.0089 63.452 2.042 10.032 3.3141 17.618 4.6636 25.651 1.0563 6.295 2.1418 12.759 3.6555 20.695h-.0032c.7182 3.772-1.7392 7.421-5.4946 8.146-.4413.085-.8889.13-1.3398.13z" fill="#fff"/></mask><mask id="o" fill="#fff"><path d="m71.8626 341c-3.4662-.003-6.3867-2.639-6.8111-6.15-.4213-3.508 1.7842-6.792 5.1451-7.652 16.0573-4.111 63.2754-15.232 81.9044-18.118 3.75-.58 7.252 2.049 7.82 5.877.571 3.824-2.008 7.397-5.755 7.98-17.906 2.776-65.213 13.913-80.6036 17.854v-.003c-.5554.143-1.1267.215-1.698.212z" fill="#fff"/></mask><mask id="p" fill="#fff"><path d="m251.812 113.999c-3.588-.006-6.623-2.6-7.1-6.07-1.776-12.906-3.114-21.856-4.246-29.3697-2.42-16.1284-3.886-25.8675-6.433-53.8519l.004-.0033c-.194-1.8605.387-3.7209 1.609-5.1643 1.221-1.4402 2.984-2.346 4.897-2.5121 1.909-.1662 3.809.4203 5.271 1.6291 1.465 1.2088 2.373 2.9389 2.52 4.8059 2.517 27.5874 3.952 37.1764 6.343 53.0637 1.135 7.5624 2.483 16.5646 4.259 29.5456v-.003c.524 3.835-2.233 7.36-6.159 7.875-.32.039-.641.059-.965.056z" fill="#fff"/></mask><mask id="q" fill="#fff"><path d="m26.9478 73.9989c-3.5247 0-6.4938-2.6496-6.9009-6.1609-.4071-3.5146 1.877-6.7732 5.3081-7.5862 40.9014-9.6722 78.401-17.0416 114.657-24.1738 17.979-3.5307 35.665-7.0128 53.386-10.6797 8.267-1.7168 17.013-3.1776 25.474-4.5867 7.315-1.2212 14.225-2.3743 20.842-3.6764v-.0033c3.764-.7418 7.418 1.72 8.154 5.4937.74 3.7737-1.712 7.4372-5.476 8.179-6.807 1.341-14.141 2.5621-21.236 3.7477-8.335 1.3929-16.929 2.8278-24.929 4.4863-17.756 3.6927-35.506 7.178-53.527 10.722-36.127 7.11-73.5031 14.4502-114.1448 24.0644v-.0033c-.5298.1231-1.0661.1814-1.6089.1782z" fill="#fff"/></mask><mask id="r" fill="#fff"><path d="m545.467 312.005 11.951-21.369c1.215-2.2.468-4.969-1.69-6.258l-21.055-12.514-.313-24.498c-.033-2.544-2.088-4.597-4.63-4.632l-24.496-.313-12.546-21.149c-1.289-2.158-4.058-2.905-6.257-1.69l-21.431 11.952-21.368-11.952c-2.2-1.215-4.968-.468-6.257 1.69l-12.514 21.056-24.497.313c-2.543.033-4.596 2.088-4.631 4.63l-.313 24.498-21.148 12.547c-2.158 1.289-2.905 4.058-1.69 6.257l11.951 21.432-11.951 21.369c-1.215 2.2-.468 4.969 1.69 6.258l21.055 12.514.313 24.498c.033 2.544 2.088 4.597 4.63 4.632l24.496.313 12.514 21.056h.002c1.289 2.158 4.056 2.905 6.257 1.688l21.461-11.857 21.368 11.953c2.202 1.198 4.958.453 6.257-1.691l12.514-21.056 24.496-.313c2.544-.033 4.597-2.088 4.632-4.63l.312-24.497 21.055-12.515v-.002c2.158-1.289 2.906-4.056 1.689-6.257zm-17.896 33.508c-1.398.866-2.25 2.393-2.253 4.036l-.282 22.558-22.493.219c-1.634.038-3.134.912-3.974 2.316l-11.669 19.366-19.679-11.013v.001c-1.419-.792-3.147-.792-4.567 0l-19.554 11.012-11.606-19.429c-.866-1.398-2.393-2.25-4.037-2.253l-22.556-.282-.219-22.495c-.003-1.644-.855-3.17-2.253-4.036l-19.428-11.607 11.013-19.68h-.001c.785-1.421.785-3.146 0-4.568l-11.012-19.554 19.428-11.607c1.398-.866 2.25-2.393 2.253-4.037l.282-22.557 22.493-.22c1.644-.002 3.171-.854 4.037-2.253l11.606-19.428 19.679 11.013v-.001c1.421.785 3.146.785 4.567 0l19.554-11.012 11.606 19.428c.84 1.404 2.34 2.279 3.974 2.316l22.556.282.282 22.432c.003 1.644.855 3.171 2.253 4.037l19.428 11.607-11.013 19.68h.001c-.785 1.42-.785 3.145 0 4.567l11.012 19.555zm-27.218-62.106c.887.876 1.385 2.071 1.385 3.317s-.498 2.44-1.385 3.316c-15.037 15.153-28.516 31.777-40.232 49.623-.762 1.262-2.07 2.094-3.536 2.252h-.469c-1.308.008-2.558-.538-3.442-1.502l-23.275-25.279c-1.39-1.939-1.104-4.612.664-6.214 1.77-1.601 4.459-1.619 6.249-.044l19.304 20.743c11.399-16.421 24.166-31.848 38.168-46.115 1.813-1.84 4.768-1.882 6.633-.095z" fill="#fff"/></mask><mask id="s" fill="#fff"><path d="m148.017 390c-.215 0-.43 0-.648-.029-1.852-.167-3.559-1.052-4.749-2.465-1.189-1.409-1.763-3.23-1.59-5.058 1.141-12.302 2.337-26.122 3.523-39.585.723-8.302 1.44-16.524 2.121-24.137l.893-10.024c3.139-35.257 6.388-71.714 10.152-107.548 2.659-25.35 7.11-50.745 11.409-75.345.99-5.676 1.975-11.358 2.952-17.041l-.003.003c.645-3.768 4.263-6.31 8.082-5.673 3.816.637 6.387 4.209 5.742 7.98-.978 5.695-1.969 11.384-2.966 17.067-4.259 24.355-8.665 49.538-11.279 74.418-3.738 35.727-7.006 72.132-10.128 107.334l-.897 10.046c-.677 7.604-1.401 15.786-2.115 24.105-1.183 13.489-2.388 27.332-3.526 39.672h-.003c-.336 3.555-3.353 6.274-6.97 6.277z" fill="#fff"/></mask><mask id="t" fill="#fff"><path d="m310.044 403h-.559c-16.173-1.295-32.992-3.336-50.797-5.501-37.495-4.552-76.298-9.267-110.252-6.879-3.837.266-7.157-2.645-7.419-6.493-.265-3.849 2.631-7.185 6.468-7.448 35.303-2.489 74.75 2.327 112.901 6.945 17.656 2.145 34.339 4.186 50.231 5.442v.003c3.711.302 6.526 3.492 6.377 7.227-.145 3.738-3.2 6.694-6.924 6.704z" fill="#fff"/></mask><mask id="u" fill="#fff"><path d="m309.926 403c-.412 0-.823-.035-1.231-.106-1.804-.323-3.409-1.354-4.457-2.862-1.048-1.511-1.453-3.377-1.129-5.185.624-3.441 1.348-7.392 2.135-11.658 2.917-15.855 6.55-35.572 8.122-48.242 2.917-23.56 4.975-47.689 6.955-71.012 1.061-12.423 2.113-24.834 3.299-37.247 3.383-35.411 8.09-75.971 12.589-108.487v-.003c.199-1.866 1.141-3.57 2.617-4.727s3.357-1.663 5.209-1.405c1.855.258 3.527 1.257 4.633 2.774 1.103 1.515 1.55 3.413 1.232 5.262-4.466 32.337-9.145 72.675-12.511 107.901-1.183 12.361-2.235 24.732-3.286 37.106-2 23.452-4.061 47.71-7.019 71.543-1.618 13.064-5.293 33.017-8.242 49.048-.784 4.241-1.508 8.182-2.119 11.6l-.003-.003c-.592 3.297-3.453 5.697-6.794 5.701z" fill="#fff"/></mask><mask id="v" fill="#fff"><path d="m343.084 125.997c-.49 0-.979-.049-1.456-.153-27.265-6.394-55.04-10.299-82.998-11.674-24.587-.719-50.39.844-79.141 2.802-1.848.153-3.68-.453-5.084-1.675-1.404-1.224-2.267-2.97-2.39-4.84-.122-1.873.499-3.713 1.733-5.117 1.23-1.403 2.966-2.247 4.817-2.345 22.458-1.527 53.211-3.6087 80.467-2.824 28.792 1.391 57.401 5.401 85.488 11.977 3.462.745 5.809 4.016 5.442 7.579-.37 3.56-3.333 6.266-6.875 6.273z" fill="#fff"/></mask><mask id="w" fill="#fff"><path d="m175.845 341.999h-.353c-1.81-.09-3.512-.914-4.73-2.28-1.216-1.37-1.845-3.172-1.753-5.011 2.914-58.293 10.905-134.065 21.371-202.677v-.003c.242-1.851 1.209-3.524 2.682-4.645 1.472-1.118 3.327-1.586 5.144-1.302 1.819.288 3.445 1.305 4.517 2.824 1.069 1.518 1.492 3.411 1.174 5.249-10.4 68.172-18.334 143.418-21.225 201.263-.191 3.689-3.19 6.583-6.826 6.583z" fill="#fff"/></mask><mask id="x" fill="#fff"><path d="m296.086 349c-.441 0-.883-.041-1.315-.124-20.884-4.363-42.036-7.369-63.317-8.993-18.295-.619-36.606-.003-54.815 1.847-3.795.339-7.17-2.365-7.602-6.093-.19-1.8.358-3.602 1.518-5.005 1.161-1.406 2.841-2.298 4.669-2.482 18.865-1.913 37.844-2.551 56.797-1.907 21.977 1.644 43.819 4.728 65.38 9.235 3.495.676 5.903 3.849 5.568 7.34s-3.305 6.163-6.867 6.182z" fill="#fff"/></mask><mask id="y" fill="#fff"><path d="m296.183 348.993c-.301 0-.601-.019-.899-.052-3.935-.481-6.722-3.952-6.227-7.753 3.434-26.509 5.94-55.716 8.362-83.968 3.428-39.966 6.973-81.294 13.301-118.408.311-1.815 1.356-3.439 2.907-4.514 1.55-1.073 3.474-1.505 5.355-1.205 3.919.623 6.569 4.198 5.92 7.983-6.227 36.571-9.755 77.596-13.167 117.292-2.442 28.395-4.961 57.755-8.432 84.554-.452 3.469-3.502 6.072-7.12 6.078z" fill="#fff"/></mask><mask id="z" fill="#fff"><path d="m317.933 146.987c-.632 0-1.262-.084-1.869-.248-18.695-5.237-37.899-8.483-57.289-9.692-16.073-.494-32.165.093-48.16 1.755-4.381.352-8.716.703-12.985 1.003-1.872.162-3.734-.426-5.166-1.632-1.432-1.207-2.312-2.933-2.446-4.788s.492-3.685 1.735-5.082c1.246-1.394 3.004-2.236 4.882-2.339 4.208-.3 8.51-.642 12.845-.994 16.644-1.726 33.391-2.319 50.12-1.774 20.385 1.261 40.577 4.672 60.231 10.176 3.396.916 5.578 4.178 5.105 7.624-.476 3.449-3.457 6.017-6.974 6.004z" fill="#fff"/></mask><mask id="A" fill="#fff"><path d="m230.131 375c-1.528.006-3.053-.161-4.543-.499-3.125-.373-5.977-1.918-7.945-4.299-1.968-2.385-2.894-5.421-2.584-8.457 1.026-9.087 13.299-18.567 24.321-18.744 1.77-.026 3.487.594 4.807 1.734 10.621 9.233 8.48 16.906 4.817 21.711-4.664 5.43-11.583 8.563-18.873 8.554zm6.942-17.933c-2.584.929-4.918 2.423-6.818 4.359 2.809-.041 5.492-1.137 7.476-3.061.108-.066.033-.436-.658-1.298z" fill="#fff"/></mask><mask id="B" fill="#fff"><path d="m63.0073 390.996c-3.4393-.007-6.3612-2.48-6.9014-5.842-2.6161-16.306-5.5315-32.893-8.3465-48.94l-3.1854-18.184c-14.2648-82.183-30.7027-177.566-44.463539-261.8767v.0032c-.331892-1.8293.091113-3.7165 1.174669-5.2335 1.08678-1.5169 2.73974-2.5378 4.59436-2.8341 1.85471-.2963 3.75166.1546 5.26471 1.256 1.513 1.1014 2.5151 2.7601 2.7787 4.599 13.7375 84.2691 30.1663 179.6111 44.4177 261.7611l3.1757 18.155c2.8276 16.087 5.7527 32.722 8.3948 49.127l.0032-.003c.5987 3.778-2.0043 7.324-5.8211 7.919-.3611.062-.7223.094-1.0868.097z" fill="#fff"/></mask><mask id="C" fill="#fff"><path d="m62.9424 391c-3.4906-.006-6.4348-2.531-6.8841-5.9-.4492-3.371 1.7389-6.545 5.113-7.414 28.9005-7.395 58.2657-12.945 87.9097-16.619 3.788-.52 7.297 2.043 7.847 5.733.546 3.689-2.069 7.118-5.856 7.669-29.12 3.573-57.9685 9.019-86.3543 16.304-.5817.151-1.1797.227-1.7775.227z" fill="#fff"/></mask><mask id="D" fill="#fff"><path d="m270.855 114c-3.479-.007-6.447-2.448-7.02-5.773-1.198-6.914-1.679-10.0039-4.027-25.1575-2.003-12.9085-5.369-34.6374-11.723-75.10841l-.003-.00322c-.591-3.77535 2.086-7.303142 5.982-7.878759 3.894-.572414 7.532 2.022729 8.125 5.801369 6.351 40.48752 9.724 62.23942 11.724 75.14712 2.325 15.0145 2.799 18.063 3.989 24.9254.312 1.807-.129 3.663-1.23 5.158-1.098 1.493-2.762 2.502-4.63 2.805-.391.061-.789.09-1.187.083z" fill="#fff"/></mask><mask id="E" fill="#fff"><path d="m6.92904 61.9992c-3.40531.0032-6.308487-2.4754-6.8428315-5.8467-.5342955-3.3682 1.4612315-6.6267 4.7024015-7.6775 13.84349-4.5092 28.12459-8.0353 41.93599-11.4453 4.8086-1.1861 9.6108-2.3754 14.4005-3.6002 23.2228-5.9499 44.7579-9.4213 65.5989-12.7762 13.174-2.1208 25.607-4.1224 38.147-6.6784v.0032c29.582-6.2303 59.471-10.88415 89.549-13.9461797 3.805-.3642173 7.184 2.4302297 7.548 6.2431997.364 3.80978-2.427 7.19408-6.234 7.55828-29.589 3.0168-58.998 7.5969-88.108 13.7242-12.81 2.614-25.379 4.622-38.701 6.7848-20.535 3.3037-41.7585 6.7234-64.369 12.5187-4.828 1.2377-9.6916 2.4367-14.5225 3.6324-13.5667 3.3489-27.5964 6.8105-40.967 11.1681l.00644-.0033c-.692.2257-1.41625.3417-2.14365.3417z" fill="#fff"/></mask><mask id="F" fill="#fff"><path d="m70.0406 340.995c-3.3173-.006-6.1613-2.38-6.7861-5.653-1.5363-8.05-2.6442-14.603-3.6942-20.992-1.3302-7.891-2.5863-15.393-4.5767-25.182-4.377-21.501-7.8039-43.133-11.1144-64.06-2.0098-12.651-4.0227-25.341-6.2483-38.121-6.6121-37.917-14.1007-80.885-17.595-119.3905h.0032c-.3478-3.8306 2.4607-7.2207 6.2708-7.5672 3.8102-.3497 7.1823 2.4738 7.5301 6.3044 3.4366 37.9303 10.8737 80.6003 17.4401 118.2543 2.2383 12.856 4.2675 25.61 6.2804 38.338 3.2916 20.769 6.6992 42.243 11.0089 63.452 2.042 10.032 3.3141 17.618 4.6636 25.651 1.0563 6.295 2.1418 12.759 3.6555 20.695h-.0032c.7182 3.772-1.7392 7.421-5.4946 8.146-.4413.085-.8889.13-1.3398.13z" fill="#fff"/></mask><mask id="G" fill="#fff"><path d="m71.8626 341c-3.4662-.003-6.3867-2.639-6.8111-6.15-.4213-3.508 1.7842-6.792 5.1451-7.652 16.0573-4.111 63.2754-15.232 81.9044-18.118 3.75-.58 7.252 2.049 7.82 5.877.571 3.824-2.008 7.397-5.755 7.98-17.906 2.776-65.213 13.913-80.6036 17.854v-.003c-.5554.143-1.1267.215-1.698.212z" fill="#fff"/></mask><mask id="H" fill="#fff"><path d="m251.812 113.999c-3.588-.006-6.623-2.6-7.1-6.07-1.776-12.906-3.114-21.856-4.246-29.3697-2.42-16.1284-3.886-25.8675-6.433-53.8519l.004-.0033c-.194-1.8605.387-3.7209 1.609-5.1643 1.221-1.4402 2.984-2.346 4.897-2.5121 1.909-.1662 3.809.4203 5.271 1.6291 1.465 1.2088 2.373 2.9389 2.52 4.8059 2.517 27.5874 3.952 37.1764 6.343 53.0637 1.135 7.5624 2.483 16.5646 4.259 29.5456v-.003c.524 3.835-2.233 7.36-6.159 7.875-.32.039-.641.059-.965.056z" fill="#fff"/></mask><mask id="I" fill="#fff"><path d="m26.9478 73.9989c-3.5247 0-6.4938-2.6496-6.9009-6.1609-.4071-3.5146 1.877-6.7732 5.3081-7.5862 40.9014-9.6722 78.401-17.0416 114.657-24.1738 17.979-3.5307 35.665-7.0128 53.386-10.6797 8.267-1.7168 17.013-3.1776 25.474-4.5867 7.315-1.2212 14.225-2.3743 20.842-3.6764v-.0033c3.764-.7418 7.418 1.72 8.154 5.4937.74 3.7737-1.712 7.4372-5.476 8.179-6.807 1.341-14.141 2.5621-21.236 3.7477-8.335 1.3929-16.929 2.8278-24.929 4.4863-17.756 3.6927-35.506 7.178-53.527 10.722-36.127 7.11-73.5031 14.4502-114.1448 24.0644v-.0033c-.5298.1231-1.0661.1814-1.6089.1782z" fill="#fff"/></mask><mask id="J" fill="#fff"><path d="m545.467 312.005 11.951-21.369c1.215-2.2.468-4.969-1.69-6.258l-21.055-12.514-.313-24.498c-.033-2.544-2.088-4.597-4.63-4.632l-24.496-.313-12.546-21.149c-1.289-2.158-4.058-2.905-6.257-1.69l-21.431 11.952-21.368-11.952c-2.2-1.215-4.968-.468-6.257 1.69l-12.514 21.056-24.497.313c-2.543.033-4.596 2.088-4.631 4.63l-.313 24.498-21.148 12.547c-2.158 1.289-2.905 4.058-1.69 6.257l11.951 21.432-11.951 21.369c-1.215 2.2-.468 4.969 1.69 6.258l21.055 12.514.313 24.498c.033 2.544 2.088 4.597 4.63 4.632l24.496.313 12.514 21.056h.002c1.289 2.158 4.056 2.905 6.257 1.688l21.461-11.857 21.368 11.953c2.202 1.198 4.958.453 6.257-1.691l12.514-21.056 24.496-.313c2.544-.033 4.597-2.088 4.632-4.63l.312-24.497 21.055-12.515v-.002c2.158-1.289 2.906-4.056 1.689-6.257zm-17.896 33.508c-1.398.866-2.25 2.393-2.253 4.036l-.282 22.558-22.493.219c-1.634.038-3.134.912-3.974 2.316l-11.669 19.366-19.679-11.013v.001c-1.419-.792-3.147-.792-4.567 0l-19.554 11.012-11.606-19.429c-.866-1.398-2.393-2.25-4.037-2.253l-22.556-.282-.219-22.495c-.003-1.644-.855-3.17-2.253-4.036l-19.428-11.607 11.013-19.68h-.001c.785-1.421.785-3.146 0-4.568l-11.012-19.554 19.428-11.607c1.398-.866 2.25-2.393 2.253-4.037l.282-22.557 22.493-.22c1.644-.002 3.171-.854 4.037-2.253l11.606-19.428 19.679 11.013v-.001c1.421.785 3.146.785 4.567 0l19.554-11.012 11.606 19.428c.84 1.404 2.34 2.279 3.974 2.316l22.556.282.282 22.432c.003 1.644.855 3.171 2.253 4.037l19.428 11.607-11.013 19.68h.001c-.785 1.42-.785 3.145 0 4.567l11.012 19.555zm-27.218-62.106c.887.876 1.385 2.071 1.385 3.317s-.498 2.44-1.385 3.316c-15.037 15.153-28.516 31.777-40.232 49.623-.762 1.262-2.07 2.094-3.536 2.252h-.469c-1.308.008-2.558-.538-3.442-1.502l-23.275-25.279c-1.39-1.939-1.104-4.612.664-6.214 1.77-1.601 4.459-1.619 6.249-.044l19.304 20.743c11.399-16.421 24.166-31.848 38.168-46.115 1.813-1.84 4.768-1.882 6.633-.095z" fill="#fff"/></mask><g fill="#000" stroke="#fff"><g stroke-width="7"><path d="m148.017 390c-.215 0-.43 0-.648-.029-1.852-.167-3.559-1.052-4.749-2.465-1.189-1.409-1.763-3.23-1.59-5.058 1.141-12.302 2.337-26.122 3.523-39.585.723-8.302 1.44-16.524 2.121-24.137l.893-10.024c3.139-35.257 6.388-71.714 10.152-107.548 2.659-25.35 7.11-50.745 11.409-75.345.99-5.676 1.975-11.358 2.952-17.041l-.003.003c.645-3.768 4.263-6.31 8.082-5.673 3.816.637 6.387 4.209 5.742 7.98-.978 5.695-1.969 11.384-2.966 17.067-4.259 24.355-8.665 49.538-11.279 74.418-3.738 35.727-7.006 72.132-10.128 107.334l-.897 10.046c-.677 7.604-1.401 15.786-2.115 24.105-1.183 13.489-2.388 27.332-3.526 39.672h-.003c-.336 3.555-3.353 6.274-6.97 6.277z" mask="url(#a)"/><path d="m310.044 403h-.559c-16.173-1.295-32.992-3.336-50.797-5.501-37.495-4.552-76.298-9.267-110.252-6.879-3.837.266-7.157-2.645-7.419-6.493-.265-3.849 2.631-7.185 6.468-7.448 35.303-2.489 74.75 2.327 112.901 6.945 17.656 2.145 34.339 4.186 50.231 5.442v.003c3.711.302 6.526 3.492 6.377 7.227-.145 3.738-3.2 6.694-6.924 6.704z" mask="url(#b)"/><path d="m309.926 403c-.412 0-.823-.035-1.231-.106-1.804-.323-3.409-1.354-4.457-2.862-1.048-1.511-1.453-3.377-1.129-5.185.624-3.441 1.348-7.392 2.135-11.658 2.917-15.855 6.55-35.572 8.122-48.242 2.917-23.56 4.975-47.689 6.955-71.012 1.061-12.423 2.113-24.834 3.299-37.247 3.383-35.411 8.09-75.971 12.589-108.487v-.003c.199-1.866 1.141-3.57 2.617-4.727s3.357-1.663 5.209-1.405c1.855.258 3.527 1.257 4.633 2.774 1.103 1.515 1.55 3.413 1.232 5.262-4.466 32.337-9.145 72.675-12.511 107.901-1.183 12.361-2.235 24.732-3.286 37.106-2 23.452-4.061 47.71-7.019 71.543-1.618 13.064-5.293 33.017-8.242 49.048-.784 4.241-1.508 8.182-2.119 11.6l-.003-.003c-.592 3.297-3.453 5.697-6.794 5.701z" mask="url(#c)"/><path d="m343.084 125.997c-.49 0-.979-.049-1.456-.153-27.265-6.394-55.04-10.299-82.998-11.674-24.587-.719-50.39.844-79.141 2.802-1.848.153-3.68-.453-5.084-1.675-1.404-1.224-2.267-2.97-2.39-4.84-.122-1.873.499-3.713 1.733-5.117 1.23-1.403 2.966-2.247 4.817-2.345 22.458-1.527 53.211-3.6087 80.467-2.824 28.792 1.391 57.401 5.401 85.488 11.977 3.462.745 5.809 4.016 5.442 7.579-.37 3.56-3.333 6.266-6.875 6.273z" mask="url(#d)"/><path d="m175.845 341.999h-.353c-1.81-.09-3.512-.914-4.73-2.28-1.216-1.37-1.845-3.172-1.753-5.011 2.914-58.293 10.905-134.065 21.371-202.677v-.003c.242-1.851 1.209-3.524 2.682-4.645 1.472-1.118 3.327-1.586 5.144-1.302 1.819.288 3.445 1.305 4.517 2.824 1.069 1.518 1.492 3.411 1.174 5.249-10.4 68.172-18.334 143.418-21.225 201.263-.191 3.689-3.19 6.583-6.826 6.583z" mask="url(#e)"/><path d="m296.086 349c-.441 0-.883-.041-1.315-.124-20.884-4.363-42.036-7.369-63.317-8.993-18.295-.619-36.606-.003-54.815 1.847-3.795.339-7.17-2.365-7.602-6.093-.19-1.8.358-3.602 1.518-5.005 1.161-1.406 2.841-2.298 4.669-2.482 18.865-1.913 37.844-2.551 56.797-1.907 21.977 1.644 43.819 4.728 65.38 9.235 3.495.676 5.903 3.849 5.568 7.34s-3.305 6.163-6.867 6.182z" mask="url(#f)"/><path d="m296.183 348.993c-.301 0-.601-.019-.899-.052-3.935-.481-6.722-3.952-6.227-7.753 3.434-26.509 5.94-55.716 8.362-83.968 3.428-39.966 6.973-81.294 13.301-118.408.311-1.815 1.356-3.439 2.907-4.514 1.55-1.073 3.474-1.505 5.355-1.205 3.919.623 6.569 4.198 5.92 7.983-6.227 36.571-9.755 77.596-13.167 117.292-2.442 28.395-4.961 57.755-8.432 84.554-.452 3.469-3.502 6.072-7.12 6.078z" mask="url(#g)"/><path d="m317.933 146.987c-.632 0-1.262-.084-1.869-.248-18.695-5.237-37.899-8.483-57.289-9.692-16.073-.494-32.165.093-48.16 1.755-4.381.352-8.716.703-12.985 1.003-1.872.162-3.734-.426-5.166-1.632-1.432-1.207-2.312-2.933-2.446-4.788s.492-3.685 1.735-5.082c1.246-1.394 3.004-2.236 4.882-2.339 4.208-.3 8.51-.642 12.845-.994 16.644-1.726 33.391-2.319 50.12-1.774 20.385 1.261 40.577 4.672 60.231 10.176 3.396.916 5.578 4.178 5.105 7.624-.476 3.449-3.457 6.017-6.974 6.004z" mask="url(#h)"/><path d="m230.131 375c-1.528.006-3.053-.161-4.543-.499-3.125-.373-5.977-1.918-7.945-4.299-1.968-2.385-2.894-5.421-2.584-8.457 1.026-9.087 13.299-18.567 24.321-18.744 1.77-.026 3.487.594 4.807 1.734 10.621 9.233 8.48 16.906 4.817 21.711-4.664 5.43-11.583 8.563-18.873 8.554zm6.942-17.933c-2.584.929-4.918 2.423-6.818 4.359 2.809-.041 5.492-1.137 7.476-3.061.108-.066.033-.436-.658-1.298z" mask="url(#i)"/><path d="m63.0073 390.996c-3.4393-.007-6.3612-2.48-6.9014-5.842-2.6161-16.306-5.5315-32.893-8.3465-48.94l-3.1854-18.184c-14.2648-82.183-30.7027-177.566-44.463539-261.8767v.0032c-.331892-1.8293.091113-3.7165 1.174669-5.2335 1.08678-1.5169 2.73974-2.5378 4.59436-2.8341 1.85471-.2963 3.75166.1546 5.26471 1.256 1.513 1.1014 2.5151 2.7601 2.7787 4.599 13.7375 84.2691 30.1663 179.6111 44.4177 261.7611l3.1757 18.155c2.8276 16.087 5.7527 32.722 8.3948 49.127l.0032-.003c.5987 3.778-2.0043 7.324-5.8211 7.919-.3611.062-.7223.094-1.0868.097z" mask="url(#j)"/><path d="m62.9424 391c-3.4906-.006-6.4348-2.531-6.8841-5.9-.4492-3.371 1.7389-6.545 5.113-7.414 28.9005-7.395 58.2657-12.945 87.9097-16.619 3.788-.52 7.297 2.043 7.847 5.733.546 3.689-2.069 7.118-5.856 7.669-29.12 3.573-57.9685 9.019-86.3543 16.304-.5817.151-1.1797.227-1.7775.227z" mask="url(#k)"/><path d="m270.855 114c-3.479-.007-6.447-2.448-7.02-5.773-1.198-6.914-1.679-10.0039-4.027-25.1575-2.003-12.9085-5.369-34.6374-11.723-75.10841l-.003-.00322c-.591-3.77535 2.086-7.303142 5.982-7.878759 3.894-.572414 7.532 2.022729 8.125 5.801369 6.351 40.48752 9.724 62.23942 11.724 75.14712 2.325 15.0145 2.799 18.063 3.989 24.9254.312 1.807-.129 3.663-1.23 5.158-1.098 1.493-2.762 2.502-4.63 2.805-.391.061-.789.09-1.187.083z" mask="url(#l)"/><path d="m6.92904 61.9992c-3.40531.0032-6.308487-2.4754-6.8428315-5.8467-.5342955-3.3682 1.4612315-6.6267 4.7024015-7.6775 13.84349-4.5092 28.12459-8.0353 41.93599-11.4453 4.8086-1.1861 9.6108-2.3754 14.4005-3.6002 23.2228-5.9499 44.7579-9.4213 65.5989-12.7762 13.174-2.1208 25.607-4.1224 38.147-6.6784v.0032c29.582-6.2303 59.471-10.88415 89.549-13.9461797 3.805-.3642173 7.184 2.4302297 7.548 6.2431997.364 3.80978-2.427 7.19408-6.234 7.55828-29.589 3.0168-58.998 7.5969-88.108 13.7242-12.81 2.614-25.379 4.622-38.701 6.7848-20.535 3.3037-41.7585 6.7234-64.369 12.5187-4.828 1.2377-9.6916 2.4367-14.5225 3.6324-13.5667 3.3489-27.5964 6.8105-40.967 11.1681l.00644-.0033c-.692.2257-1.41625.3417-2.14365.3417z" mask="url(#m)"/><path d="m70.0406 340.995c-3.3173-.006-6.1613-2.38-6.7861-5.653-1.5363-8.05-2.6442-14.603-3.6942-20.992-1.3302-7.891-2.5863-15.393-4.5767-25.182-4.377-21.501-7.8039-43.133-11.1144-64.06-2.0098-12.651-4.0227-25.341-6.2483-38.121-6.6121-37.917-14.1007-80.885-17.595-119.3905h.0032c-.3478-3.8306 2.4607-7.2207 6.2708-7.5672 3.8102-.3497 7.1823 2.4738 7.5301 6.3044 3.4366 37.9303 10.8737 80.6003 17.4401 118.2543 2.2383 12.856 4.2675 25.61 6.2804 38.338 3.2916 20.769 6.6992 42.243 11.0089 63.452 2.042 10.032 3.3141 17.618 4.6636 25.651 1.0563 6.295 2.1418 12.759 3.6555 20.695h-.0032c.7182 3.772-1.7392 7.421-5.4946 8.146-.4413.085-.8889.13-1.3398.13z" mask="url(#n)"/><path d="m71.8626 341c-3.4662-.003-6.3867-2.639-6.8111-6.15-.4213-3.508 1.7842-6.792 5.1451-7.652 16.0573-4.111 63.2754-15.232 81.9044-18.118 3.75-.58 7.252 2.049 7.82 5.877.571 3.824-2.008 7.397-5.755 7.98-17.906 2.776-65.213 13.913-80.6036 17.854v-.003c-.5554.143-1.1267.215-1.698.212z" mask="url(#o)"/><path d="m251.812 113.999c-3.588-.006-6.623-2.6-7.1-6.07-1.776-12.906-3.114-21.856-4.246-29.3697-2.42-16.1284-3.886-25.8675-6.433-53.8519l.004-.0033c-.194-1.8605.387-3.7209 1.609-5.1643 1.221-1.4402 2.984-2.346 4.897-2.5121 1.909-.1662 3.809.4203 5.271 1.6291 1.465 1.2088 2.373 2.9389 2.52 4.8059 2.517 27.5874 3.952 37.1764 6.343 53.0637 1.135 7.5624 2.483 16.5646 4.259 29.5456v-.003c.524 3.835-2.233 7.36-6.159 7.875-.32.039-.641.059-.965.056z" mask="url(#p)"/><path d="m26.9478 73.9989c-3.5247 0-6.4938-2.6496-6.9009-6.1609-.4071-3.5146 1.877-6.7732 5.3081-7.5862 40.9014-9.6722 78.401-17.0416 114.657-24.1738 17.979-3.5307 35.665-7.0128 53.386-10.6797 8.267-1.7168 17.013-3.1776 25.474-4.5867 7.315-1.2212 14.225-2.3743 20.842-3.6764v-.0033c3.764-.7418 7.418 1.72 8.154 5.4937.74 3.7737-1.712 7.4372-5.476 8.179-6.807 1.341-14.141 2.5621-21.236 3.7477-8.335 1.3929-16.929 2.8278-24.929 4.4863-17.756 3.6927-35.506 7.178-53.527 10.722-36.127 7.11-73.5031 14.4502-114.1448 24.0644v-.0033c-.5298.1231-1.0661.1814-1.6089.1782z" mask="url(#q)"/></g><path d="m545.467 312.005 11.951-21.369c1.215-2.2.468-4.969-1.69-6.258l-21.055-12.514-.313-24.498c-.033-2.544-2.088-4.597-4.63-4.632l-24.496-.313-12.546-21.149c-1.289-2.158-4.058-2.905-6.257-1.69l-21.431 11.952-21.368-11.952c-2.2-1.215-4.968-.468-6.257 1.69l-12.514 21.056-24.497.313c-2.543.033-4.596 2.088-4.631 4.63l-.313 24.498-21.148 12.547c-2.158 1.289-2.905 4.058-1.69 6.257l11.951 21.432-11.951 21.369c-1.215 2.2-.468 4.969 1.69 6.258l21.055 12.514.313 24.498c.033 2.544 2.088 4.597 4.63 4.632l24.496.313 12.514 21.056h.002c1.289 2.158 4.056 2.905 6.257 1.688l21.461-11.857 21.368 11.953c2.202 1.198 4.958.453 6.257-1.691l12.514-21.056 24.496-.313c2.544-.033 4.597-2.088 4.632-4.63l.312-24.497 21.055-12.515v-.002c2.158-1.289 2.906-4.056 1.689-6.257zm-17.896 33.508c-1.398.866-2.25 2.393-2.253 4.036l-.282 22.558-22.493.219c-1.634.038-3.134.912-3.974 2.316l-11.669 19.366-19.679-11.013v.001c-1.419-.792-3.147-.792-4.567 0l-19.554 11.012-11.606-19.429c-.866-1.398-2.393-2.25-4.037-2.253l-22.556-.282-.219-22.495c-.003-1.644-.855-3.17-2.253-4.036l-19.428-11.607 11.013-19.68h-.001c.785-1.421.785-3.146 0-4.568l-11.012-19.554 19.428-11.607c1.398-.866 2.25-2.393 2.253-4.037l.282-22.557 22.493-.22c1.644-.002 3.171-.854 4.037-2.253l11.606-19.428 19.679 11.013v-.001c1.421.785 3.146.785 4.567 0l19.554-11.012 11.606 19.428c.84 1.404 2.34 2.279 3.974 2.316l22.556.282.282 22.432c.003 1.644.855 3.171 2.253 4.037l19.428 11.607-11.013 19.68h.001c-.785 1.42-.785 3.145 0 4.567l11.012 19.555zm-27.218-62.106c.887.876 1.385 2.071 1.385 3.317s-.498 2.44-1.385 3.316c-15.037 15.153-28.516 31.777-40.232 49.623-.762 1.262-2.07 2.094-3.536 2.252h-.469c-1.308.008-2.558-.538-3.442-1.502l-23.275-25.279c-1.39-1.939-1.104-4.612.664-6.214 1.77-1.601 4.459-1.619 6.249-.044l19.304 20.743c11.399-16.421 24.166-31.848 38.168-46.115 1.813-1.84 4.768-1.882 6.633-.095z" mask="url(#r)" stroke-width="2"/><path d="m148.017 390c-.215 0-.43 0-.648-.029-1.852-.167-3.559-1.052-4.749-2.465-1.189-1.409-1.763-3.23-1.59-5.058 1.141-12.302 2.337-26.122 3.523-39.585.723-8.302 1.44-16.524 2.121-24.137l.893-10.024c3.139-35.257 6.388-71.714 10.152-107.548 2.659-25.35 7.11-50.745 11.409-75.345.99-5.676 1.975-11.358 2.952-17.041l-.003.003c.645-3.768 4.263-6.31 8.082-5.673 3.816.637 6.387 4.209 5.742 7.98-.978 5.695-1.969 11.384-2.966 17.067-4.259 24.355-8.665 49.538-11.279 74.418-3.738 35.727-7.006 72.132-10.128 107.334l-.897 10.046c-.677 7.604-1.401 15.786-2.115 24.105-1.183 13.489-2.388 27.332-3.526 39.672h-.003c-.336 3.555-3.353 6.274-6.97 6.277z" mask="url(#s)" stroke-width="7"/><path d="m310.044 403h-.559c-16.173-1.295-32.992-3.336-50.797-5.501-37.495-4.552-76.298-9.267-110.252-6.879-3.837.266-7.157-2.645-7.419-6.493-.265-3.849 2.631-7.185 6.468-7.448 35.303-2.489 74.75 2.327 112.901 6.945 17.656 2.145 34.339 4.186 50.231 5.442v.003c3.711.302 6.526 3.492 6.377 7.227-.145 3.738-3.2 6.694-6.924 6.704z" mask="url(#t)" stroke-width="7"/><path d="m309.926 403c-.412 0-.823-.035-1.231-.106-1.804-.323-3.409-1.354-4.457-2.862-1.048-1.511-1.453-3.377-1.129-5.185.624-3.441 1.348-7.392 2.135-11.658 2.917-15.855 6.55-35.572 8.122-48.242 2.917-23.56 4.975-47.689 6.955-71.012 1.061-12.423 2.113-24.834 3.299-37.247 3.383-35.411 8.09-75.971 12.589-108.487v-.003c.199-1.866 1.141-3.57 2.617-4.727s3.357-1.663 5.209-1.405c1.855.258 3.527 1.257 4.633 2.774 1.103 1.515 1.55 3.413 1.232 5.262-4.466 32.337-9.145 72.675-12.511 107.901-1.183 12.361-2.235 24.732-3.286 37.106-2 23.452-4.061 47.71-7.019 71.543-1.618 13.064-5.293 33.017-8.242 49.048-.784 4.241-1.508 8.182-2.119 11.6l-.003-.003c-.592 3.297-3.453 5.697-6.794 5.701z" mask="url(#u)" stroke-width="7"/><path d="m343.084 125.997c-.49 0-.979-.049-1.456-.153-27.265-6.394-55.04-10.299-82.998-11.674-24.587-.719-50.39.844-79.141 2.802-1.848.153-3.68-.453-5.084-1.675-1.404-1.224-2.267-2.97-2.39-4.84-.122-1.873.499-3.713 1.733-5.117 1.23-1.403 2.966-2.247 4.817-2.345 22.458-1.527 53.211-3.6087 80.467-2.824 28.792 1.391 57.401 5.401 85.488 11.977 3.462.745 5.809 4.016 5.442 7.579-.37 3.56-3.333 6.266-6.875 6.273z" mask="url(#v)" stroke-width="7"/><path d="m175.845 341.999h-.353c-1.81-.09-3.512-.914-4.73-2.28-1.216-1.37-1.845-3.172-1.753-5.011 2.914-58.293 10.905-134.065 21.371-202.677v-.003c.242-1.851 1.209-3.524 2.682-4.645 1.472-1.118 3.327-1.586 5.144-1.302 1.819.288 3.445 1.305 4.517 2.824 1.069 1.518 1.492 3.411 1.174 5.249-10.4 68.172-18.334 143.418-21.225 201.263-.191 3.689-3.19 6.583-6.826 6.583z" mask="url(#w)" stroke-width="7"/><path d="m296.086 349c-.441 0-.883-.041-1.315-.124-20.884-4.363-42.036-7.369-63.317-8.993-18.295-.619-36.606-.003-54.815 1.847-3.795.339-7.17-2.365-7.602-6.093-.19-1.8.358-3.602 1.518-5.005 1.161-1.406 2.841-2.298 4.669-2.482 18.865-1.913 37.844-2.551 56.797-1.907 21.977 1.644 43.819 4.728 65.38 9.235 3.495.676 5.903 3.849 5.568 7.34s-3.305 6.163-6.867 6.182z" mask="url(#x)" stroke-width="7"/><path d="m296.183 348.993c-.301 0-.601-.019-.899-.052-3.935-.481-6.722-3.952-6.227-7.753 3.434-26.509 5.94-55.716 8.362-83.968 3.428-39.966 6.973-81.294 13.301-118.408.311-1.815 1.356-3.439 2.907-4.514 1.55-1.073 3.474-1.505 5.355-1.205 3.919.623 6.569 4.198 5.92 7.983-6.227 36.571-9.755 77.596-13.167 117.292-2.442 28.395-4.961 57.755-8.432 84.554-.452 3.469-3.502 6.072-7.12 6.078z" mask="url(#y)" stroke-width="7"/><path d="m317.933 146.987c-.632 0-1.262-.084-1.869-.248-18.695-5.237-37.899-8.483-57.289-9.692-16.073-.494-32.165.093-48.16 1.755-4.381.352-8.716.703-12.985 1.003-1.872.162-3.734-.426-5.166-1.632-1.432-1.207-2.312-2.933-2.446-4.788s.492-3.685 1.735-5.082c1.246-1.394 3.004-2.236 4.882-2.339 4.208-.3 8.51-.642 12.845-.994 16.644-1.726 33.391-2.319 50.12-1.774 20.385 1.261 40.577 4.672 60.231 10.176 3.396.916 5.578 4.178 5.105 7.624-.476 3.449-3.457 6.017-6.974 6.004z" mask="url(#z)" stroke-width="7"/><path d="m230.131 375c-1.528.006-3.053-.161-4.543-.499-3.125-.373-5.977-1.918-7.945-4.299-1.968-2.385-2.894-5.421-2.584-8.457 1.026-9.087 13.299-18.567 24.321-18.744 1.77-.026 3.487.594 4.807 1.734 10.621 9.233 8.48 16.906 4.817 21.711-4.664 5.43-11.583 8.563-18.873 8.554zm6.942-17.933c-2.584.929-4.918 2.423-6.818 4.359 2.809-.041 5.492-1.137 7.476-3.061.108-.066.033-.436-.658-1.298z" mask="url(#A)" stroke-width="7"/><path d="m63.0073 390.996c-3.4393-.007-6.3612-2.48-6.9014-5.842-2.6161-16.306-5.5315-32.893-8.3465-48.94l-3.1854-18.184c-14.2648-82.183-30.7027-177.566-44.463539-261.8767v.0032c-.331892-1.8293.091113-3.7165 1.174669-5.2335 1.08678-1.5169 2.73974-2.5378 4.59436-2.8341 1.85471-.2963 3.75166.1546 5.26471 1.256 1.513 1.1014 2.5151 2.7601 2.7787 4.599 13.7375 84.2691 30.1663 179.6111 44.4177 261.7611l3.1757 18.155c2.8276 16.087 5.7527 32.722 8.3948 49.127l.0032-.003c.5987 3.778-2.0043 7.324-5.8211 7.919-.3611.062-.7223.094-1.0868.097z" mask="url(#B)" stroke-width="7"/><path d="m62.9424 391c-3.4906-.006-6.4348-2.531-6.8841-5.9-.4492-3.371 1.7389-6.545 5.113-7.414 28.9005-7.395 58.2657-12.945 87.9097-16.619 3.788-.52 7.297 2.043 7.847 5.733.546 3.689-2.069 7.118-5.856 7.669-29.12 3.573-57.9685 9.019-86.3543 16.304-.5817.151-1.1797.227-1.7775.227z" mask="url(#C)" stroke-width="7"/><path d="m270.855 114c-3.479-.007-6.447-2.448-7.02-5.773-1.198-6.914-1.679-10.0039-4.027-25.1575-2.003-12.9085-5.369-34.6374-11.723-75.10841l-.003-.00322c-.591-3.77535 2.086-7.303142 5.982-7.878759 3.894-.572414 7.532 2.022729 8.125 5.801369 6.351 40.48752 9.724 62.23942 11.724 75.14712 2.325 15.0145 2.799 18.063 3.989 24.9254.312 1.807-.129 3.663-1.23 5.158-1.098 1.493-2.762 2.502-4.63 2.805-.391.061-.789.09-1.187.083z" mask="url(#D)" stroke-width="7"/><path d="m6.92904 61.9992c-3.40531.0032-6.308487-2.4754-6.8428315-5.8467-.5342955-3.3682 1.4612315-6.6267 4.7024015-7.6775 13.84349-4.5092 28.12459-8.0353 41.93599-11.4453 4.8086-1.1861 9.6108-2.3754 14.4005-3.6002 23.2228-5.9499 44.7579-9.4213 65.5989-12.7762 13.174-2.1208 25.607-4.1224 38.147-6.6784v.0032c29.582-6.2303 59.471-10.88415 89.549-13.9461797 3.805-.3642173 7.184 2.4302297 7.548 6.2431997.364 3.80978-2.427 7.19408-6.234 7.55828-29.589 3.0168-58.998 7.5969-88.108 13.7242-12.81 2.614-25.379 4.622-38.701 6.7848-20.535 3.3037-41.7585 6.7234-64.369 12.5187-4.828 1.2377-9.6916 2.4367-14.5225 3.6324-13.5667 3.3489-27.5964 6.8105-40.967 11.1681l.00644-.0033c-.692.2257-1.41625.3417-2.14365.3417z" mask="url(#E)" stroke-width="7"/><path d="m70.0406 340.995c-3.3173-.006-6.1613-2.38-6.7861-5.653-1.5363-8.05-2.6442-14.603-3.6942-20.992-1.3302-7.891-2.5863-15.393-4.5767-25.182-4.377-21.501-7.8039-43.133-11.1144-64.06-2.0098-12.651-4.0227-25.341-6.2483-38.121-6.6121-37.917-14.1007-80.885-17.595-119.3905h.0032c-.3478-3.8306 2.4607-7.2207 6.2708-7.5672 3.8102-.3497 7.1823 2.4738 7.5301 6.3044 3.4366 37.9303 10.8737 80.6003 17.4401 118.2543 2.2383 12.856 4.2675 25.61 6.2804 38.338 3.2916 20.769 6.6992 42.243 11.0089 63.452 2.042 10.032 3.3141 17.618 4.6636 25.651 1.0563 6.295 2.1418 12.759 3.6555 20.695h-.0032c.7182 3.772-1.7392 7.421-5.4946 8.146-.4413.085-.8889.13-1.3398.13z" mask="url(#F)" stroke-width="7"/><path d="m71.8626 341c-3.4662-.003-6.3867-2.639-6.8111-6.15-.4213-3.508 1.7842-6.792 5.1451-7.652 16.0573-4.111 63.2754-15.232 81.9044-18.118 3.75-.58 7.252 2.049 7.82 5.877.571 3.824-2.008 7.397-5.755 7.98-17.906 2.776-65.213 13.913-80.6036 17.854v-.003c-.5554.143-1.1267.215-1.698.212z" mask="url(#G)" stroke-width="7"/><path d="m251.812 113.999c-3.588-.006-6.623-2.6-7.1-6.07-1.776-12.906-3.114-21.856-4.246-29.3697-2.42-16.1284-3.886-25.8675-6.433-53.8519l.004-.0033c-.194-1.8605.387-3.7209 1.609-5.1643 1.221-1.4402 2.984-2.346 4.897-2.5121 1.909-.1662 3.809.4203 5.271 1.6291 1.465 1.2088 2.373 2.9389 2.52 4.8059 2.517 27.5874 3.952 37.1764 6.343 53.0637 1.135 7.5624 2.483 16.5646 4.259 29.5456v-.003c.524 3.835-2.233 7.36-6.159 7.875-.32.039-.641.059-.965.056z" mask="url(#H)" stroke-width="7"/><path d="m26.9478 73.9989c-3.5247 0-6.4938-2.6496-6.9009-6.1609-.4071-3.5146 1.877-6.7732 5.3081-7.5862 40.9014-9.6722 78.401-17.0416 114.657-24.1738 17.979-3.5307 35.665-7.0128 53.386-10.6797 8.267-1.7168 17.013-3.1776 25.474-4.5867 7.315-1.2212 14.225-2.3743 20.842-3.6764v-.0033c3.764-.7418 7.418 1.72 8.154 5.4937.74 3.7737-1.712 7.4372-5.476 8.179-6.807 1.341-14.141 2.5621-21.236 3.7477-8.335 1.3929-16.929 2.8278-24.929 4.4863-17.756 3.6927-35.506 7.178-53.527 10.722-36.127 7.11-73.5031 14.4502-114.1448 24.0644v-.0033c-.5298.1231-1.0661.1814-1.6089.1782z" mask="url(#I)" stroke-width="7"/><path d="m545.467 312.005 11.951-21.369c1.215-2.2.468-4.969-1.69-6.258l-21.055-12.514-.313-24.498c-.033-2.544-2.088-4.597-4.63-4.632l-24.496-.313-12.546-21.149c-1.289-2.158-4.058-2.905-6.257-1.69l-21.431 11.952-21.368-11.952c-2.2-1.215-4.968-.468-6.257 1.69l-12.514 21.056-24.497.313c-2.543.033-4.596 2.088-4.631 4.63l-.313 24.498-21.148 12.547c-2.158 1.289-2.905 4.058-1.69 6.257l11.951 21.432-11.951 21.369c-1.215 2.2-.468 4.969 1.69 6.258l21.055 12.514.313 24.498c.033 2.544 2.088 4.597 4.63 4.632l24.496.313 12.514 21.056h.002c1.289 2.158 4.056 2.905 6.257 1.688l21.461-11.857 21.368 11.953c2.202 1.198 4.958.453 6.257-1.691l12.514-21.056 24.496-.313c2.544-.033 4.597-2.088 4.632-4.63l.312-24.497 21.055-12.515v-.002c2.158-1.289 2.906-4.056 1.689-6.257zm-17.896 33.508c-1.398.866-2.25 2.393-2.253 4.036l-.282 22.558-22.493.219c-1.634.038-3.134.912-3.974 2.316l-11.669 19.366-19.679-11.013v.001c-1.419-.792-3.147-.792-4.567 0l-19.554 11.012-11.606-19.429c-.866-1.398-2.393-2.25-4.037-2.253l-22.556-.282-.219-22.495c-.003-1.644-.855-3.17-2.253-4.036l-19.428-11.607 11.013-19.68h-.001c.785-1.421.785-3.146 0-4.568l-11.012-19.554 19.428-11.607c1.398-.866 2.25-2.393 2.253-4.037l.282-22.557 22.493-.22c1.644-.002 3.171-.854 4.037-2.253l11.606-19.428 19.679 11.013v-.001c1.421.785 3.146.785 4.567 0l19.554-11.012 11.606 19.428c.84 1.404 2.34 2.279 3.974 2.316l22.556.282.282 22.432c.003 1.644.855 3.171 2.253 4.037l19.428 11.607-11.013 19.68h.001c-.785 1.42-.785 3.145 0 4.567l11.012 19.555zm-27.218-62.106c.887.876 1.385 2.071 1.385 3.317s-.498 2.44-1.385 3.316c-15.037 15.153-28.516 31.777-40.232 49.623-.762 1.262-2.07 2.094-3.536 2.252h-.469c-1.308.008-2.558-.538-3.442-1.502l-23.275-25.279c-1.39-1.939-1.104-4.612.664-6.214 1.77-1.601 4.459-1.619 6.249-.044l19.304 20.743c11.399-16.421 24.166-31.848 38.168-46.115 1.813-1.84 4.768-1.882 6.633-.095z" mask="url(#J)" stroke-width="2"/></g></svg>