<svg width="558" height="405" viewBox="0 0 558 405" fill="none" xmlns="http://www.w3.org/2000/svg">
<mask id="path-1-inside-1_14_775" fill="white">
<path d="M148.017 390C147.802 390 147.587 390 147.369 389.971C145.517 389.804 143.81 388.919 142.62 387.506C141.431 386.097 140.857 384.276 141.03 382.448C142.171 370.146 143.367 356.326 144.553 342.863C145.276 334.561 145.993 326.339 146.674 318.726L147.567 308.702C150.706 273.445 153.955 236.988 157.719 201.154C160.378 175.804 164.829 150.409 169.128 125.809C170.118 120.133 171.103 114.451 172.08 108.768L172.077 108.771C172.722 105.003 176.34 102.461 180.159 103.098C183.975 103.735 186.546 107.307 185.901 111.078C184.923 116.773 183.932 122.462 182.935 128.145C178.676 152.5 174.27 177.683 171.656 202.563C167.918 238.29 164.65 274.695 161.528 309.897L160.631 319.943C159.954 327.547 159.23 335.729 158.516 344.048C157.333 357.537 156.128 371.38 154.99 383.72H154.987C154.651 387.275 151.634 389.994 148.017 389.997L148.017 390Z"/>
</mask>
<path d="M148.017 390C147.802 390 147.587 390 147.369 389.971C145.517 389.804 143.81 388.919 142.62 387.506C141.431 386.097 140.857 384.276 141.03 382.448C142.171 370.146 143.367 356.326 144.553 342.863C145.276 334.561 145.993 326.339 146.674 318.726L147.567 308.702C150.706 273.445 153.955 236.988 157.719 201.154C160.378 175.804 164.829 150.409 169.128 125.809C170.118 120.133 171.103 114.451 172.08 108.768L172.077 108.771C172.722 105.003 176.34 102.461 180.159 103.098C183.975 103.735 186.546 107.307 185.901 111.078C184.923 116.773 183.932 122.462 182.935 128.145C178.676 152.5 174.27 177.683 171.656 202.563C167.918 238.29 164.65 274.695 161.528 309.897L160.631 319.943C159.954 327.547 159.23 335.729 158.516 344.048C157.333 357.537 156.128 371.38 154.99 383.72H154.987C154.651 387.275 151.634 389.994 148.017 389.997L148.017 390Z" fill="black" stroke="white" stroke-width="7" mask="url(#path-1-inside-1_14_775)"/>
<mask id="path-2-inside-2_14_775" fill="white">
<path d="M310.044 403H309.485C293.312 401.705 276.493 399.664 258.688 397.499C221.193 392.947 182.39 388.232 148.436 390.62C144.599 390.886 141.279 387.975 141.017 384.127C140.752 380.278 143.648 376.942 147.485 376.679C182.788 374.19 222.235 379.006 260.386 383.624C278.042 385.769 294.725 387.81 310.617 389.066V389.069C314.328 389.371 317.143 392.561 316.994 396.296C316.849 400.034 313.794 402.99 310.07 403L310.044 403Z"/>
</mask>
<path d="M310.044 403H309.485C293.312 401.705 276.493 399.664 258.688 397.499C221.193 392.947 182.39 388.232 148.436 390.62C144.599 390.886 141.279 387.975 141.017 384.127C140.752 380.278 143.648 376.942 147.485 376.679C182.788 374.19 222.235 379.006 260.386 383.624C278.042 385.769 294.725 387.81 310.617 389.066V389.069C314.328 389.371 317.143 392.561 316.994 396.296C316.849 400.034 313.794 402.99 310.07 403L310.044 403Z" fill="black" stroke="white" stroke-width="7" mask="url(#path-2-inside-2_14_775)"/>
<mask id="path-3-inside-3_14_775" fill="white">
<path d="M309.926 403C309.514 403 309.103 402.965 308.695 402.894C306.891 402.571 305.286 401.54 304.238 400.032C303.19 398.521 302.785 396.655 303.109 394.847C303.733 391.406 304.457 387.455 305.244 383.189C308.161 367.334 311.794 347.617 313.366 334.947C316.283 311.387 318.341 287.258 320.321 263.935C321.382 251.512 322.434 239.101 323.62 226.688C327.003 191.277 331.71 150.717 336.209 118.201V118.198C336.408 116.332 337.35 114.628 338.826 113.471C340.302 112.314 342.183 111.808 344.035 112.066C345.89 112.324 347.562 113.323 348.668 114.84C349.771 116.355 350.218 118.253 349.9 120.102C345.434 152.439 340.755 192.777 337.389 228.003C336.206 240.364 335.154 252.735 334.103 265.109C332.103 288.561 330.042 312.819 327.084 336.652C325.466 349.716 321.791 369.669 318.842 385.7C318.058 389.941 317.334 393.882 316.723 397.3L316.72 397.297C316.128 400.594 313.267 402.994 309.926 402.998V403Z"/>
</mask>
<path d="M309.926 403C309.514 403 309.103 402.965 308.695 402.894C306.891 402.571 305.286 401.54 304.238 400.032C303.19 398.521 302.785 396.655 303.109 394.847C303.733 391.406 304.457 387.455 305.244 383.189C308.161 367.334 311.794 347.617 313.366 334.947C316.283 311.387 318.341 287.258 320.321 263.935C321.382 251.512 322.434 239.101 323.62 226.688C327.003 191.277 331.71 150.717 336.209 118.201V118.198C336.408 116.332 337.35 114.628 338.826 113.471C340.302 112.314 342.183 111.808 344.035 112.066C345.89 112.324 347.562 113.323 348.668 114.84C349.771 116.355 350.218 118.253 349.9 120.102C345.434 152.439 340.755 192.777 337.389 228.003C336.206 240.364 335.154 252.735 334.103 265.109C332.103 288.561 330.042 312.819 327.084 336.652C325.466 349.716 321.791 369.669 318.842 385.7C318.058 389.941 317.334 393.882 316.723 397.3L316.72 397.297C316.128 400.594 313.267 402.994 309.926 402.998V403Z" fill="black" stroke="white" stroke-width="7" mask="url(#path-3-inside-3_14_775)"/>
<mask id="path-4-inside-4_14_775" fill="white">
<path d="M343.084 125.997C342.594 125.997 342.105 125.948 341.628 125.844C314.363 119.45 286.588 115.545 258.63 114.17C234.043 113.451 208.24 115.014 179.489 116.972C177.641 117.125 175.809 116.519 174.405 115.297C173.001 114.073 172.138 112.327 172.015 110.457C171.893 108.584 172.514 106.744 173.748 105.34C174.978 103.937 176.714 103.093 178.565 102.995C201.023 101.468 231.776 99.3863 259.032 100.171C287.824 101.562 316.433 105.572 344.52 112.148C347.982 112.893 350.329 116.164 349.962 119.727C349.592 123.287 346.629 125.993 343.087 126L343.084 125.997Z"/>
</mask>
<path d="M343.084 125.997C342.594 125.997 342.105 125.948 341.628 125.844C314.363 119.45 286.588 115.545 258.63 114.17C234.043 113.451 208.24 115.014 179.489 116.972C177.641 117.125 175.809 116.519 174.405 115.297C173.001 114.073 172.138 112.327 172.015 110.457C171.893 108.584 172.514 106.744 173.748 105.34C174.978 103.937 176.714 103.093 178.565 102.995C201.023 101.468 231.776 99.3863 259.032 100.171C287.824 101.562 316.433 105.572 344.52 112.148C347.982 112.893 350.329 116.164 349.962 119.727C349.592 123.287 346.629 125.993 343.087 126L343.084 125.997Z" fill="black" stroke="white" stroke-width="7" mask="url(#path-4-inside-4_14_775)"/>
<mask id="path-5-inside-5_14_775" fill="white">
<path d="M175.845 341.999H175.492C173.682 341.909 171.98 341.085 170.762 339.719C169.546 338.349 168.917 336.547 169.009 334.708C171.923 276.415 179.914 200.643 190.38 132.031V132.028C190.622 130.177 191.589 128.504 193.062 127.383C194.534 126.265 196.389 125.797 198.206 126.081C200.025 126.369 201.651 127.386 202.723 128.905C203.792 130.423 204.215 132.316 203.897 134.154C193.497 202.326 185.563 277.572 182.672 335.417C182.481 339.106 179.482 342 175.846 342L175.845 341.999Z"/>
</mask>
<path d="M175.845 341.999H175.492C173.682 341.909 171.98 341.085 170.762 339.719C169.546 338.349 168.917 336.547 169.009 334.708C171.923 276.415 179.914 200.643 190.38 132.031V132.028C190.622 130.177 191.589 128.504 193.062 127.383C194.534 126.265 196.389 125.797 198.206 126.081C200.025 126.369 201.651 127.386 202.723 128.905C203.792 130.423 204.215 132.316 203.897 134.154C193.497 202.326 185.563 277.572 182.672 335.417C182.481 339.106 179.482 342 175.846 342L175.845 341.999Z" fill="black" stroke="white" stroke-width="7" mask="url(#path-5-inside-5_14_775)"/>
<mask id="path-6-inside-6_14_775" fill="white">
<path d="M296.086 349C295.645 349 295.203 348.959 294.771 348.876C273.887 344.513 252.735 341.507 231.454 339.883C213.159 339.264 194.848 339.88 176.639 341.73C172.844 342.069 169.469 339.365 169.037 335.637C168.847 333.837 169.395 332.035 170.555 330.632C171.716 329.226 173.396 328.334 175.224 328.15C194.089 326.237 213.068 325.599 232.021 326.243C253.998 327.887 275.84 330.971 297.401 335.478C300.896 336.154 303.304 339.327 302.969 342.818C302.634 346.309 299.664 348.981 296.102 349L296.086 349Z"/>
</mask>
<path d="M296.086 349C295.645 349 295.203 348.959 294.771 348.876C273.887 344.513 252.735 341.507 231.454 339.883C213.159 339.264 194.848 339.88 176.639 341.73C172.844 342.069 169.469 339.365 169.037 335.637C168.847 333.837 169.395 332.035 170.555 330.632C171.716 329.226 173.396 328.334 175.224 328.15C194.089 326.237 213.068 325.599 232.021 326.243C253.998 327.887 275.84 330.971 297.401 335.478C300.896 336.154 303.304 339.327 302.969 342.818C302.634 346.309 299.664 348.981 296.102 349L296.086 349Z" fill="black" stroke="white" stroke-width="7" mask="url(#path-6-inside-6_14_775)"/>
<mask id="path-7-inside-7_14_775" fill="white">
<path d="M296.183 348.993C295.882 348.993 295.582 348.974 295.284 348.941C291.349 348.46 288.562 344.989 289.057 341.188C292.491 314.679 294.997 285.472 297.419 257.22C300.847 217.254 304.392 175.926 310.72 138.812C311.031 136.997 312.076 135.373 313.627 134.298C315.177 133.225 317.101 132.793 318.982 133.093C322.901 133.716 325.551 137.291 324.902 141.076C318.675 177.647 315.147 218.672 311.735 258.368C309.293 286.763 306.774 316.123 303.303 342.922C302.851 346.391 299.801 348.994 296.183 349L296.183 348.993Z"/>
</mask>
<path d="M296.183 348.993C295.882 348.993 295.582 348.974 295.284 348.941C291.349 348.46 288.562 344.989 289.057 341.188C292.491 314.679 294.997 285.472 297.419 257.22C300.847 217.254 304.392 175.926 310.72 138.812C311.031 136.997 312.076 135.373 313.627 134.298C315.177 133.225 317.101 132.793 318.982 133.093C322.901 133.716 325.551 137.291 324.902 141.076C318.675 177.647 315.147 218.672 311.735 258.368C309.293 286.763 306.774 316.123 303.303 342.922C302.851 346.391 299.801 348.994 296.183 349L296.183 348.993Z" fill="black" stroke="white" stroke-width="7" mask="url(#path-7-inside-7_14_775)"/>
<mask id="path-8-inside-8_14_775" fill="white">
<path d="M317.933 146.987C317.301 146.987 316.671 146.903 316.064 146.739C297.369 141.502 278.165 138.256 258.775 137.047C242.702 136.553 226.61 137.14 210.615 138.802C206.234 139.154 201.899 139.505 197.63 139.805C195.758 139.967 193.896 139.379 192.464 138.173C191.032 136.966 190.152 135.24 190.018 133.385C189.884 131.53 190.51 129.7 191.753 128.303C192.999 126.909 194.757 126.067 196.635 125.964C200.843 125.664 205.145 125.322 209.48 124.97C226.124 123.244 242.871 122.651 259.6 123.196C279.985 124.457 300.177 127.868 319.831 133.372C323.227 134.288 325.409 137.55 324.936 140.996C324.46 144.445 321.479 147.013 317.962 147L317.933 146.987Z"/>
</mask>
<path d="M317.933 146.987C317.301 146.987 316.671 146.903 316.064 146.739C297.369 141.502 278.165 138.256 258.775 137.047C242.702 136.553 226.61 137.14 210.615 138.802C206.234 139.154 201.899 139.505 197.63 139.805C195.758 139.967 193.896 139.379 192.464 138.173C191.032 136.966 190.152 135.24 190.018 133.385C189.884 131.53 190.51 129.7 191.753 128.303C192.999 126.909 194.757 126.067 196.635 125.964C200.843 125.664 205.145 125.322 209.48 124.97C226.124 123.244 242.871 122.651 259.6 123.196C279.985 124.457 300.177 127.868 319.831 133.372C323.227 134.288 325.409 137.55 324.936 140.996C324.46 144.445 321.479 147.013 317.962 147L317.933 146.987Z" fill="black" stroke="white" stroke-width="7" mask="url(#path-8-inside-8_14_775)"/>
<mask id="path-9-inside-9_14_775" fill="white">
<path d="M230.131 375C228.603 375.006 227.078 374.839 225.588 374.501C222.463 374.128 219.611 372.583 217.643 370.202C215.675 367.817 214.749 364.781 215.059 361.745C216.085 352.658 228.358 343.178 239.38 343.001C241.15 342.975 242.867 343.595 244.187 344.735C254.808 353.968 252.667 361.641 249.004 366.446C244.34 371.876 237.421 375.009 230.131 375L230.131 375ZM237.073 357.067C234.489 357.996 232.155 359.49 230.255 361.426C233.064 361.385 235.747 360.289 237.731 358.365C237.839 358.299 237.764 357.929 237.073 357.067L237.073 357.067Z"/>
</mask>
<path d="M230.131 375C228.603 375.006 227.078 374.839 225.588 374.501C222.463 374.128 219.611 372.583 217.643 370.202C215.675 367.817 214.749 364.781 215.059 361.745C216.085 352.658 228.358 343.178 239.38 343.001C241.15 342.975 242.867 343.595 244.187 344.735C254.808 353.968 252.667 361.641 249.004 366.446C244.34 371.876 237.421 375.009 230.131 375L230.131 375ZM237.073 357.067C234.489 357.996 232.155 359.49 230.255 361.426C233.064 361.385 235.747 360.289 237.731 358.365C237.839 358.299 237.764 357.929 237.073 357.067L237.073 357.067Z" fill="black" stroke="white" stroke-width="7" mask="url(#path-9-inside-9_14_775)"/>
<mask id="path-10-inside-10_14_775" fill="white">
<path d="M63.0073 390.996C59.568 390.989 56.6461 388.516 56.1059 385.154C53.4898 368.848 50.5744 352.261 47.7594 336.214L44.574 318.03C30.3092 235.847 13.8713 140.464 0.110461 56.1533V56.1565C-0.221431 54.3272 0.201574 52.44 1.28513 50.923C2.37191 49.4061 4.02487 48.3852 5.87949 48.0889C7.7342 47.7926 9.63115 48.2435 11.1442 49.3449C12.6572 50.4463 13.6593 52.105 13.9229 53.9439C27.6604 138.213 44.0892 233.555 58.3406 315.705L61.5163 333.86C64.3439 349.947 67.269 366.582 69.9111 382.987L69.9143 382.984C70.513 386.762 67.91 390.308 64.0932 390.903C63.7321 390.965 63.3709 390.997 63.0064 391L63.0073 390.996Z"/>
</mask>
<path d="M63.0073 390.996C59.568 390.989 56.6461 388.516 56.1059 385.154C53.4898 368.848 50.5744 352.261 47.7594 336.214L44.574 318.03C30.3092 235.847 13.8713 140.464 0.110461 56.1533V56.1565C-0.221431 54.3272 0.201574 52.44 1.28513 50.923C2.37191 49.4061 4.02487 48.3852 5.87949 48.0889C7.7342 47.7926 9.63115 48.2435 11.1442 49.3449C12.6572 50.4463 13.6593 52.105 13.9229 53.9439C27.6604 138.213 44.0892 233.555 58.3406 315.705L61.5163 333.86C64.3439 349.947 67.269 366.582 69.9111 382.987L69.9143 382.984C70.513 386.762 67.91 390.308 64.0932 390.903C63.7321 390.965 63.3709 390.997 63.0064 391L63.0073 390.996Z" fill="black" stroke="white" stroke-width="7" mask="url(#path-10-inside-10_14_775)"/>
<mask id="path-11-inside-11_14_775" fill="white">
<path d="M62.9424 391C59.4518 390.994 56.5076 388.469 56.0583 385.1C55.6091 381.729 57.7972 378.555 61.1713 377.686C90.0718 370.291 119.437 364.741 149.081 361.067C152.869 360.547 156.378 363.11 156.928 366.8C157.474 370.489 154.859 373.918 151.072 374.469C121.952 378.042 93.1035 383.488 64.7177 390.773C64.136 390.924 63.538 391 62.9402 391L62.9424 391Z"/>
</mask>
<path d="M62.9424 391C59.4518 390.994 56.5076 388.469 56.0583 385.1C55.6091 381.729 57.7972 378.555 61.1713 377.686C90.0718 370.291 119.437 364.741 149.081 361.067C152.869 360.547 156.378 363.11 156.928 366.8C157.474 370.489 154.859 373.918 151.072 374.469C121.952 378.042 93.1035 383.488 64.7177 390.773C64.136 390.924 63.538 391 62.9402 391L62.9424 391Z" fill="black" stroke="white" stroke-width="7" mask="url(#path-11-inside-11_14_775)"/>
<mask id="path-12-inside-12_14_775" fill="white">
<path d="M270.855 114C267.376 113.993 264.408 111.552 263.835 108.227C262.637 101.313 262.156 98.2231 259.808 83.0695C257.805 70.161 254.439 48.4321 248.085 7.96109L248.082 7.95787C247.491 4.18252 250.168 0.654728 254.064 0.079111C257.958 -0.493303 261.596 2.10184 262.189 5.88048C268.54 46.368 271.913 68.1199 273.913 81.0276C276.238 96.0421 276.712 99.0906 277.902 105.953C278.214 107.76 277.773 109.616 276.672 111.111C275.574 112.604 273.91 113.613 272.042 113.916C271.651 113.977 271.253 114.006 270.855 113.999L270.855 114Z"/>
</mask>
<path d="M270.855 114C267.376 113.993 264.408 111.552 263.835 108.227C262.637 101.313 262.156 98.2231 259.808 83.0695C257.805 70.161 254.439 48.4321 248.085 7.96109L248.082 7.95787C247.491 4.18252 250.168 0.654728 254.064 0.079111C257.958 -0.493303 261.596 2.10184 262.189 5.88048C268.54 46.368 271.913 68.1199 273.913 81.0276C276.238 96.0421 276.712 99.0906 277.902 105.953C278.214 107.76 277.773 109.616 276.672 111.111C275.574 112.604 273.91 113.613 272.042 113.916C271.651 113.977 271.253 114.006 270.855 113.999L270.855 114Z" fill="black" stroke="white" stroke-width="7" mask="url(#path-12-inside-12_14_775)"/>
<mask id="path-13-inside-13_14_775" fill="white">
<path d="M6.92904 61.9992C3.52373 62.0024 0.620553 59.5238 0.0862085 56.1525C-0.448087 52.7843 1.54744 49.5258 4.78861 48.475C18.6321 43.9658 32.9132 40.4397 46.7246 37.0297C51.5332 35.8436 56.3354 34.6543 61.1251 33.4295C84.3479 27.4796 105.883 24.0082 126.724 20.6533C139.898 18.5325 152.331 16.5309 164.871 13.9749V13.9781C194.453 7.7478 224.342 3.09395 254.42 0.0319203C258.225 -0.332297 261.604 2.46215 261.968 6.27512C262.332 10.0849 259.541 13.4692 255.734 13.8334C226.145 16.8502 196.736 21.4303 167.626 27.5576C154.816 30.1716 142.247 32.1796 128.925 34.3424C108.39 37.6461 87.1665 41.0658 64.556 46.8611C59.728 48.0988 54.8644 49.2978 50.0335 50.4935C36.4668 53.8424 22.4371 57.304 9.0665 61.6616L9.07294 61.6583C8.38094 61.884 7.65669 62 6.92929 62L6.92904 61.9992Z"/>
</mask>
<path d="M6.92904 61.9992C3.52373 62.0024 0.620553 59.5238 0.0862085 56.1525C-0.448087 52.7843 1.54744 49.5258 4.78861 48.475C18.6321 43.9658 32.9132 40.4397 46.7246 37.0297C51.5332 35.8436 56.3354 34.6543 61.1251 33.4295C84.3479 27.4796 105.883 24.0082 126.724 20.6533C139.898 18.5325 152.331 16.5309 164.871 13.9749V13.9781C194.453 7.7478 224.342 3.09395 254.42 0.0319203C258.225 -0.332297 261.604 2.46215 261.968 6.27512C262.332 10.0849 259.541 13.4692 255.734 13.8334C226.145 16.8502 196.736 21.4303 167.626 27.5576C154.816 30.1716 142.247 32.1796 128.925 34.3424C108.39 37.6461 87.1665 41.0658 64.556 46.8611C59.728 48.0988 54.8644 49.2978 50.0335 50.4935C36.4668 53.8424 22.4371 57.304 9.0665 61.6616L9.07294 61.6583C8.38094 61.884 7.65669 62 6.92929 62L6.92904 61.9992Z" fill="black" stroke="white" stroke-width="7" mask="url(#path-13-inside-13_14_775)"/>
<mask id="path-14-inside-14_14_775" fill="white">
<path d="M70.0406 340.995C66.7233 340.989 63.8793 338.615 63.2545 335.342C61.7182 327.292 60.6103 320.739 59.5603 314.35C58.2301 306.459 56.974 298.957 54.9836 289.168C50.6066 267.667 47.1797 246.035 43.8692 225.108C41.8594 212.457 39.8465 199.767 37.6209 186.987C31.0088 149.07 23.5202 106.102 20.0259 67.5965H20.0291C19.6813 63.7659 22.4898 60.3758 26.2999 60.0293C30.1101 59.6796 33.4822 62.5031 33.83 66.3337C37.2666 104.264 44.7037 146.934 51.2701 184.588C53.5084 197.444 55.5376 210.198 57.5505 222.926C60.8421 243.695 64.2497 265.169 68.5594 286.378C70.6014 296.41 71.8735 303.996 73.223 312.029C74.2793 318.324 75.3648 324.788 76.8785 332.724H76.8753C77.5935 336.496 75.1361 340.145 71.3807 340.87C70.9394 340.955 70.4918 341 70.0409 341L70.0406 340.995Z"/>
</mask>
<path d="M70.0406 340.995C66.7233 340.989 63.8793 338.615 63.2545 335.342C61.7182 327.292 60.6103 320.739 59.5603 314.35C58.2301 306.459 56.974 298.957 54.9836 289.168C50.6066 267.667 47.1797 246.035 43.8692 225.108C41.8594 212.457 39.8465 199.767 37.6209 186.987C31.0088 149.07 23.5202 106.102 20.0259 67.5965H20.0291C19.6813 63.7659 22.4898 60.3758 26.2999 60.0293C30.1101 59.6796 33.4822 62.5031 33.83 66.3337C37.2666 104.264 44.7037 146.934 51.2701 184.588C53.5084 197.444 55.5376 210.198 57.5505 222.926C60.8421 243.695 64.2497 265.169 68.5594 286.378C70.6014 296.41 71.8735 303.996 73.223 312.029C74.2793 318.324 75.3648 324.788 76.8785 332.724H76.8753C77.5935 336.496 75.1361 340.145 71.3807 340.87C70.9394 340.955 70.4918 341 70.0409 341L70.0406 340.995Z" fill="black" stroke="white" stroke-width="7" mask="url(#path-14-inside-14_14_775)"/>
<mask id="path-15-inside-15_14_775" fill="white">
<path d="M71.8626 341C68.3964 340.997 65.4759 338.361 65.0515 334.85C64.6302 331.342 66.8357 328.058 70.1966 327.198C86.2539 323.087 133.472 311.966 152.101 309.08C155.851 308.5 159.353 311.129 159.921 314.957C160.492 318.781 157.913 322.354 154.166 322.937C136.26 325.713 88.953 336.85 73.5624 340.791V340.788C73.007 340.931 72.4357 341.003 71.8644 341L71.8626 341Z"/>
</mask>
<path d="M71.8626 341C68.3964 340.997 65.4759 338.361 65.0515 334.85C64.6302 331.342 66.8357 328.058 70.1966 327.198C86.2539 323.087 133.472 311.966 152.101 309.08C155.851 308.5 159.353 311.129 159.921 314.957C160.492 318.781 157.913 322.354 154.166 322.937C136.26 325.713 88.953 336.85 73.5624 340.791V340.788C73.007 340.931 72.4357 341.003 71.8644 341L71.8626 341Z" fill="black" stroke="white" stroke-width="7" mask="url(#path-15-inside-15_14_775)"/>
<mask id="path-16-inside-16_14_775" fill="white">
<path d="M251.812 113.999C248.224 113.993 245.189 111.399 244.712 107.929C242.936 95.023 241.598 86.073 240.466 78.5593C238.046 62.4309 236.58 52.6918 234.033 24.7074L234.037 24.7041C233.843 22.8436 234.424 20.9832 235.646 19.5398C236.867 18.0996 238.63 17.1938 240.543 17.0277C242.452 16.8615 244.352 17.448 245.814 18.6568C247.279 19.8656 248.187 21.5957 248.334 23.4627C250.851 51.0501 252.286 60.6391 254.677 76.5264C255.812 84.0888 257.16 93.091 258.936 106.072V106.069C259.46 109.904 256.703 113.429 252.777 113.944C252.457 113.983 252.136 114.003 251.812 114L251.812 113.999Z"/>
</mask>
<path d="M251.812 113.999C248.224 113.993 245.189 111.399 244.712 107.929C242.936 95.023 241.598 86.073 240.466 78.5593C238.046 62.4309 236.58 52.6918 234.033 24.7074L234.037 24.7041C233.843 22.8436 234.424 20.9832 235.646 19.5398C236.867 18.0996 238.63 17.1938 240.543 17.0277C242.452 16.8615 244.352 17.448 245.814 18.6568C247.279 19.8656 248.187 21.5957 248.334 23.4627C250.851 51.0501 252.286 60.6391 254.677 76.5264C255.812 84.0888 257.16 93.091 258.936 106.072V106.069C259.46 109.904 256.703 113.429 252.777 113.944C252.457 113.983 252.136 114.003 251.812 114L251.812 113.999Z" fill="black" stroke="white" stroke-width="7" mask="url(#path-16-inside-16_14_775)"/>
<mask id="path-17-inside-17_14_775" fill="white">
<path d="M26.9478 73.9989C23.4231 73.9989 20.454 71.3493 20.0469 67.838C19.6398 64.3234 21.9239 61.0648 25.355 60.2518C66.2564 50.5796 103.756 43.2102 140.012 36.078C157.991 32.5473 175.677 29.0652 193.398 25.3983C201.665 23.6815 210.411 22.2207 218.872 20.8116C226.187 19.5904 233.097 18.4373 239.714 17.1352V17.1319C243.478 16.3901 247.132 18.8519 247.868 22.6256C248.608 26.3993 246.156 30.0628 242.392 30.8046C235.585 32.1456 228.251 33.3667 221.156 34.5523C212.821 35.9452 204.227 37.3801 196.227 39.0386C178.471 42.7313 160.721 46.2166 142.7 49.7606C106.573 56.8706 69.1969 64.2108 28.5552 73.825V73.8217C28.0254 73.9448 27.4891 74.0031 26.9463 73.9999L26.9478 73.9989Z"/>
</mask>
<path d="M26.9478 73.9989C23.4231 73.9989 20.454 71.3493 20.0469 67.838C19.6398 64.3234 21.9239 61.0648 25.355 60.2518C66.2564 50.5796 103.756 43.2102 140.012 36.078C157.991 32.5473 175.677 29.0652 193.398 25.3983C201.665 23.6815 210.411 22.2207 218.872 20.8116C226.187 19.5904 233.097 18.4373 239.714 17.1352V17.1319C243.478 16.3901 247.132 18.8519 247.868 22.6256C248.608 26.3993 246.156 30.0628 242.392 30.8046C235.585 32.1456 228.251 33.3667 221.156 34.5523C212.821 35.9452 204.227 37.3801 196.227 39.0386C178.471 42.7313 160.721 46.2166 142.7 49.7606C106.573 56.8706 69.1969 64.2108 28.5552 73.825V73.8217C28.0254 73.9448 27.4891 74.0031 26.9463 73.9999L26.9478 73.9989Z" fill="black" stroke="white" stroke-width="7" mask="url(#path-17-inside-17_14_775)"/>
<mask id="path-18-inside-18_14_775" fill="white">
<path d="M545.467 312.005L557.418 290.636C558.633 288.436 557.886 285.667 555.728 284.378L534.673 271.864L534.36 247.366C534.327 244.822 532.272 242.769 529.73 242.734L505.234 242.421L492.688 221.272C491.399 219.114 488.63 218.367 486.431 219.582L465 231.534L443.632 219.582C441.432 218.367 438.664 219.114 437.375 221.272L424.861 242.328L400.364 242.641C397.821 242.674 395.768 244.729 395.733 247.271L395.42 271.769L374.272 284.316C372.114 285.605 371.367 288.374 372.582 290.573L384.533 312.005L372.582 333.374C371.367 335.574 372.114 338.343 374.272 339.632L395.327 352.146L395.64 376.644C395.673 379.188 397.728 381.241 400.27 381.276L424.766 381.589L437.28 402.645H437.282C438.571 404.803 441.338 405.55 443.539 404.333L465 392.476L486.368 404.429C488.57 405.627 491.326 404.882 492.625 402.738L505.139 381.682L529.635 381.369C532.179 381.336 534.232 379.281 534.267 376.739L534.579 352.242L555.634 339.727V339.725C557.792 338.436 558.54 335.669 557.323 333.468L545.467 312.005ZM527.571 345.513C526.173 346.379 525.321 347.906 525.318 349.549L525.036 372.107L502.543 372.326C500.909 372.364 499.409 373.238 498.569 374.642L486.9 394.008L467.221 382.995V382.996C465.802 382.204 464.074 382.204 462.654 382.996L443.1 394.008L431.494 374.579C430.628 373.181 429.101 372.329 427.457 372.326L404.901 372.044L404.682 349.549C404.679 347.905 403.827 346.379 402.429 345.513L383.001 333.906L394.014 314.226H394.013C394.798 312.805 394.798 311.08 394.013 309.658L383.001 290.104L402.429 278.497C403.827 277.631 404.679 276.104 404.682 274.46L404.964 251.903L427.457 251.683C429.101 251.681 430.628 250.829 431.494 249.43L443.1 230.002L462.779 241.015V241.014C464.2 241.799 465.925 241.799 467.346 241.014L486.9 230.002L498.506 249.43C499.346 250.834 500.846 251.709 502.48 251.746L525.036 252.028L525.318 274.46C525.321 276.104 526.173 277.631 527.571 278.497L546.999 290.104L535.986 309.784H535.987C535.202 311.204 535.202 312.929 535.987 314.351L546.999 333.906L527.571 345.513ZM500.353 283.407C501.24 284.283 501.738 285.478 501.738 286.724C501.738 287.97 501.24 289.164 500.353 290.04C485.316 305.193 471.837 321.817 460.121 339.663C459.359 340.925 458.051 341.757 456.585 341.915H456.116C454.808 341.923 453.558 341.377 452.674 340.413L429.399 315.134C428.009 313.195 428.295 310.522 430.063 308.92C431.833 307.319 434.522 307.301 436.312 308.876L455.616 329.619C467.015 313.198 479.782 297.771 493.784 283.504C495.597 281.664 498.552 281.622 500.417 283.409L500.353 283.407Z"/>
</mask>
<path d="M545.467 312.005L557.418 290.636C558.633 288.436 557.886 285.667 555.728 284.378L534.673 271.864L534.36 247.366C534.327 244.822 532.272 242.769 529.73 242.734L505.234 242.421L492.688 221.272C491.399 219.114 488.63 218.367 486.431 219.582L465 231.534L443.632 219.582C441.432 218.367 438.664 219.114 437.375 221.272L424.861 242.328L400.364 242.641C397.821 242.674 395.768 244.729 395.733 247.271L395.42 271.769L374.272 284.316C372.114 285.605 371.367 288.374 372.582 290.573L384.533 312.005L372.582 333.374C371.367 335.574 372.114 338.343 374.272 339.632L395.327 352.146L395.64 376.644C395.673 379.188 397.728 381.241 400.27 381.276L424.766 381.589L437.28 402.645H437.282C438.571 404.803 441.338 405.55 443.539 404.333L465 392.476L486.368 404.429C488.57 405.627 491.326 404.882 492.625 402.738L505.139 381.682L529.635 381.369C532.179 381.336 534.232 379.281 534.267 376.739L534.579 352.242L555.634 339.727V339.725C557.792 338.436 558.54 335.669 557.323 333.468L545.467 312.005ZM527.571 345.513C526.173 346.379 525.321 347.906 525.318 349.549L525.036 372.107L502.543 372.326C500.909 372.364 499.409 373.238 498.569 374.642L486.9 394.008L467.221 382.995V382.996C465.802 382.204 464.074 382.204 462.654 382.996L443.1 394.008L431.494 374.579C430.628 373.181 429.101 372.329 427.457 372.326L404.901 372.044L404.682 349.549C404.679 347.905 403.827 346.379 402.429 345.513L383.001 333.906L394.014 314.226H394.013C394.798 312.805 394.798 311.08 394.013 309.658L383.001 290.104L402.429 278.497C403.827 277.631 404.679 276.104 404.682 274.46L404.964 251.903L427.457 251.683C429.101 251.681 430.628 250.829 431.494 249.43L443.1 230.002L462.779 241.015V241.014C464.2 241.799 465.925 241.799 467.346 241.014L486.9 230.002L498.506 249.43C499.346 250.834 500.846 251.709 502.48 251.746L525.036 252.028L525.318 274.46C525.321 276.104 526.173 277.631 527.571 278.497L546.999 290.104L535.986 309.784H535.987C535.202 311.204 535.202 312.929 535.987 314.351L546.999 333.906L527.571 345.513ZM500.353 283.407C501.24 284.283 501.738 285.478 501.738 286.724C501.738 287.97 501.24 289.164 500.353 290.04C485.316 305.193 471.837 321.817 460.121 339.663C459.359 340.925 458.051 341.757 456.585 341.915H456.116C454.808 341.923 453.558 341.377 452.674 340.413L429.399 315.134C428.009 313.195 428.295 310.522 430.063 308.92C431.833 307.319 434.522 307.301 436.312 308.876L455.616 329.619C467.015 313.198 479.782 297.771 493.784 283.504C495.597 281.664 498.552 281.622 500.417 283.409L500.353 283.407Z" fill="black" stroke="white" stroke-width="2" mask="url(#path-18-inside-18_14_775)"/>
<mask id="path-19-inside-19_14_775" fill="white">
<path d="M148.017 390C147.802 390 147.587 390 147.369 389.971C145.517 389.804 143.81 388.919 142.62 387.506C141.431 386.097 140.857 384.276 141.03 382.448C142.171 370.146 143.367 356.326 144.553 342.863C145.276 334.561 145.993 326.339 146.674 318.726L147.567 308.702C150.706 273.445 153.955 236.988 157.719 201.154C160.378 175.804 164.829 150.409 169.128 125.809C170.118 120.133 171.103 114.451 172.08 108.768L172.077 108.771C172.722 105.003 176.34 102.461 180.159 103.098C183.975 103.735 186.546 107.307 185.901 111.078C184.923 116.773 183.932 122.462 182.935 128.145C178.676 152.5 174.27 177.683 171.656 202.563C167.918 238.29 164.65 274.695 161.528 309.897L160.631 319.943C159.954 327.547 159.23 335.729 158.516 344.048C157.333 357.537 156.128 371.38 154.99 383.72H154.987C154.651 387.275 151.634 389.994 148.017 389.997L148.017 390Z"/>
</mask>
<path d="M148.017 390C147.802 390 147.587 390 147.369 389.971C145.517 389.804 143.81 388.919 142.62 387.506C141.431 386.097 140.857 384.276 141.03 382.448C142.171 370.146 143.367 356.326 144.553 342.863C145.276 334.561 145.993 326.339 146.674 318.726L147.567 308.702C150.706 273.445 153.955 236.988 157.719 201.154C160.378 175.804 164.829 150.409 169.128 125.809C170.118 120.133 171.103 114.451 172.08 108.768L172.077 108.771C172.722 105.003 176.34 102.461 180.159 103.098C183.975 103.735 186.546 107.307 185.901 111.078C184.923 116.773 183.932 122.462 182.935 128.145C178.676 152.5 174.27 177.683 171.656 202.563C167.918 238.29 164.65 274.695 161.528 309.897L160.631 319.943C159.954 327.547 159.23 335.729 158.516 344.048C157.333 357.537 156.128 371.38 154.99 383.72H154.987C154.651 387.275 151.634 389.994 148.017 389.997L148.017 390Z" fill="black" stroke="white" stroke-width="7" mask="url(#path-19-inside-19_14_775)"/>
<mask id="path-20-inside-20_14_775" fill="white">
<path d="M310.044 403H309.485C293.312 401.705 276.493 399.664 258.688 397.499C221.193 392.947 182.39 388.232 148.436 390.62C144.599 390.886 141.279 387.975 141.017 384.127C140.752 380.278 143.648 376.942 147.485 376.679C182.788 374.19 222.235 379.006 260.386 383.624C278.042 385.769 294.725 387.81 310.617 389.066V389.069C314.328 389.371 317.143 392.561 316.994 396.296C316.849 400.034 313.794 402.99 310.07 403L310.044 403Z"/>
</mask>
<path d="M310.044 403H309.485C293.312 401.705 276.493 399.664 258.688 397.499C221.193 392.947 182.39 388.232 148.436 390.62C144.599 390.886 141.279 387.975 141.017 384.127C140.752 380.278 143.648 376.942 147.485 376.679C182.788 374.19 222.235 379.006 260.386 383.624C278.042 385.769 294.725 387.81 310.617 389.066V389.069C314.328 389.371 317.143 392.561 316.994 396.296C316.849 400.034 313.794 402.99 310.07 403L310.044 403Z" fill="black" stroke="white" stroke-width="7" mask="url(#path-20-inside-20_14_775)"/>
<mask id="path-21-inside-21_14_775" fill="white">
<path d="M309.926 403C309.514 403 309.103 402.965 308.695 402.894C306.891 402.571 305.286 401.54 304.238 400.032C303.19 398.521 302.785 396.655 303.109 394.847C303.733 391.406 304.457 387.455 305.244 383.189C308.161 367.334 311.794 347.617 313.366 334.947C316.283 311.387 318.341 287.258 320.321 263.935C321.382 251.512 322.434 239.101 323.62 226.688C327.003 191.277 331.71 150.717 336.209 118.201V118.198C336.408 116.332 337.35 114.628 338.826 113.471C340.302 112.314 342.183 111.808 344.035 112.066C345.89 112.324 347.562 113.323 348.668 114.84C349.771 116.355 350.218 118.253 349.9 120.102C345.434 152.439 340.755 192.777 337.389 228.003C336.206 240.364 335.154 252.735 334.103 265.109C332.103 288.561 330.042 312.819 327.084 336.652C325.466 349.716 321.791 369.669 318.842 385.7C318.058 389.941 317.334 393.882 316.723 397.3L316.72 397.297C316.128 400.594 313.267 402.994 309.926 402.998V403Z"/>
</mask>
<path d="M309.926 403C309.514 403 309.103 402.965 308.695 402.894C306.891 402.571 305.286 401.54 304.238 400.032C303.19 398.521 302.785 396.655 303.109 394.847C303.733 391.406 304.457 387.455 305.244 383.189C308.161 367.334 311.794 347.617 313.366 334.947C316.283 311.387 318.341 287.258 320.321 263.935C321.382 251.512 322.434 239.101 323.62 226.688C327.003 191.277 331.71 150.717 336.209 118.201V118.198C336.408 116.332 337.35 114.628 338.826 113.471C340.302 112.314 342.183 111.808 344.035 112.066C345.89 112.324 347.562 113.323 348.668 114.84C349.771 116.355 350.218 118.253 349.9 120.102C345.434 152.439 340.755 192.777 337.389 228.003C336.206 240.364 335.154 252.735 334.103 265.109C332.103 288.561 330.042 312.819 327.084 336.652C325.466 349.716 321.791 369.669 318.842 385.7C318.058 389.941 317.334 393.882 316.723 397.3L316.72 397.297C316.128 400.594 313.267 402.994 309.926 402.998V403Z" fill="black" stroke="white" stroke-width="7" mask="url(#path-21-inside-21_14_775)"/>
<mask id="path-22-inside-22_14_775" fill="white">
<path d="M343.084 125.997C342.594 125.997 342.105 125.948 341.628 125.844C314.363 119.45 286.588 115.545 258.63 114.17C234.043 113.451 208.24 115.014 179.489 116.972C177.641 117.125 175.809 116.519 174.405 115.297C173.001 114.073 172.138 112.327 172.015 110.457C171.893 108.584 172.514 106.744 173.748 105.34C174.978 103.937 176.714 103.093 178.565 102.995C201.023 101.468 231.776 99.3863 259.032 100.171C287.824 101.562 316.433 105.572 344.52 112.148C347.982 112.893 350.329 116.164 349.962 119.727C349.592 123.287 346.629 125.993 343.087 126L343.084 125.997Z"/>
</mask>
<path d="M343.084 125.997C342.594 125.997 342.105 125.948 341.628 125.844C314.363 119.45 286.588 115.545 258.63 114.17C234.043 113.451 208.24 115.014 179.489 116.972C177.641 117.125 175.809 116.519 174.405 115.297C173.001 114.073 172.138 112.327 172.015 110.457C171.893 108.584 172.514 106.744 173.748 105.34C174.978 103.937 176.714 103.093 178.565 102.995C201.023 101.468 231.776 99.3863 259.032 100.171C287.824 101.562 316.433 105.572 344.52 112.148C347.982 112.893 350.329 116.164 349.962 119.727C349.592 123.287 346.629 125.993 343.087 126L343.084 125.997Z" fill="black" stroke="white" stroke-width="7" mask="url(#path-22-inside-22_14_775)"/>
<mask id="path-23-inside-23_14_775" fill="white">
<path d="M175.845 341.999H175.492C173.682 341.909 171.98 341.085 170.762 339.719C169.546 338.349 168.917 336.547 169.009 334.708C171.923 276.415 179.914 200.643 190.38 132.031V132.028C190.622 130.177 191.589 128.504 193.062 127.383C194.534 126.265 196.389 125.797 198.206 126.081C200.025 126.369 201.651 127.386 202.723 128.905C203.792 130.423 204.215 132.316 203.897 134.154C193.497 202.326 185.563 277.572 182.672 335.417C182.481 339.106 179.482 342 175.846 342L175.845 341.999Z"/>
</mask>
<path d="M175.845 341.999H175.492C173.682 341.909 171.98 341.085 170.762 339.719C169.546 338.349 168.917 336.547 169.009 334.708C171.923 276.415 179.914 200.643 190.38 132.031V132.028C190.622 130.177 191.589 128.504 193.062 127.383C194.534 126.265 196.389 125.797 198.206 126.081C200.025 126.369 201.651 127.386 202.723 128.905C203.792 130.423 204.215 132.316 203.897 134.154C193.497 202.326 185.563 277.572 182.672 335.417C182.481 339.106 179.482 342 175.846 342L175.845 341.999Z" fill="black" stroke="white" stroke-width="7" mask="url(#path-23-inside-23_14_775)"/>
<mask id="path-24-inside-24_14_775" fill="white">
<path d="M296.086 349C295.645 349 295.203 348.959 294.771 348.876C273.887 344.513 252.735 341.507 231.454 339.883C213.159 339.264 194.848 339.88 176.639 341.73C172.844 342.069 169.469 339.365 169.037 335.637C168.847 333.837 169.395 332.035 170.555 330.632C171.716 329.226 173.396 328.334 175.224 328.15C194.089 326.237 213.068 325.599 232.021 326.243C253.998 327.887 275.84 330.971 297.401 335.478C300.896 336.154 303.304 339.327 302.969 342.818C302.634 346.309 299.664 348.981 296.102 349L296.086 349Z"/>
</mask>
<path d="M296.086 349C295.645 349 295.203 348.959 294.771 348.876C273.887 344.513 252.735 341.507 231.454 339.883C213.159 339.264 194.848 339.88 176.639 341.73C172.844 342.069 169.469 339.365 169.037 335.637C168.847 333.837 169.395 332.035 170.555 330.632C171.716 329.226 173.396 328.334 175.224 328.15C194.089 326.237 213.068 325.599 232.021 326.243C253.998 327.887 275.84 330.971 297.401 335.478C300.896 336.154 303.304 339.327 302.969 342.818C302.634 346.309 299.664 348.981 296.102 349L296.086 349Z" fill="black" stroke="white" stroke-width="7" mask="url(#path-24-inside-24_14_775)"/>
<mask id="path-25-inside-25_14_775" fill="white">
<path d="M296.183 348.993C295.882 348.993 295.582 348.974 295.284 348.941C291.349 348.46 288.562 344.989 289.057 341.188C292.491 314.679 294.997 285.472 297.419 257.22C300.847 217.254 304.392 175.926 310.72 138.812C311.031 136.997 312.076 135.373 313.627 134.298C315.177 133.225 317.101 132.793 318.982 133.093C322.901 133.716 325.551 137.291 324.902 141.076C318.675 177.647 315.147 218.672 311.735 258.368C309.293 286.763 306.774 316.123 303.303 342.922C302.851 346.391 299.801 348.994 296.183 349L296.183 348.993Z"/>
</mask>
<path d="M296.183 348.993C295.882 348.993 295.582 348.974 295.284 348.941C291.349 348.46 288.562 344.989 289.057 341.188C292.491 314.679 294.997 285.472 297.419 257.22C300.847 217.254 304.392 175.926 310.72 138.812C311.031 136.997 312.076 135.373 313.627 134.298C315.177 133.225 317.101 132.793 318.982 133.093C322.901 133.716 325.551 137.291 324.902 141.076C318.675 177.647 315.147 218.672 311.735 258.368C309.293 286.763 306.774 316.123 303.303 342.922C302.851 346.391 299.801 348.994 296.183 349L296.183 348.993Z" fill="black" stroke="white" stroke-width="7" mask="url(#path-25-inside-25_14_775)"/>
<mask id="path-26-inside-26_14_775" fill="white">
<path d="M317.933 146.987C317.301 146.987 316.671 146.903 316.064 146.739C297.369 141.502 278.165 138.256 258.775 137.047C242.702 136.553 226.61 137.14 210.615 138.802C206.234 139.154 201.899 139.505 197.63 139.805C195.758 139.967 193.896 139.379 192.464 138.173C191.032 136.966 190.152 135.24 190.018 133.385C189.884 131.53 190.51 129.7 191.753 128.303C192.999 126.909 194.757 126.067 196.635 125.964C200.843 125.664 205.145 125.322 209.48 124.97C226.124 123.244 242.871 122.651 259.6 123.196C279.985 124.457 300.177 127.868 319.831 133.372C323.227 134.288 325.409 137.55 324.936 140.996C324.46 144.445 321.479 147.013 317.962 147L317.933 146.987Z"/>
</mask>
<path d="M317.933 146.987C317.301 146.987 316.671 146.903 316.064 146.739C297.369 141.502 278.165 138.256 258.775 137.047C242.702 136.553 226.61 137.14 210.615 138.802C206.234 139.154 201.899 139.505 197.63 139.805C195.758 139.967 193.896 139.379 192.464 138.173C191.032 136.966 190.152 135.24 190.018 133.385C189.884 131.53 190.51 129.7 191.753 128.303C192.999 126.909 194.757 126.067 196.635 125.964C200.843 125.664 205.145 125.322 209.48 124.97C226.124 123.244 242.871 122.651 259.6 123.196C279.985 124.457 300.177 127.868 319.831 133.372C323.227 134.288 325.409 137.55 324.936 140.996C324.46 144.445 321.479 147.013 317.962 147L317.933 146.987Z" fill="black" stroke="white" stroke-width="7" mask="url(#path-26-inside-26_14_775)"/>
<mask id="path-27-inside-27_14_775" fill="white">
<path d="M230.131 375C228.603 375.006 227.078 374.839 225.588 374.501C222.463 374.128 219.611 372.583 217.643 370.202C215.675 367.817 214.749 364.781 215.059 361.745C216.085 352.658 228.358 343.178 239.38 343.001C241.15 342.975 242.867 343.595 244.187 344.735C254.808 353.968 252.667 361.641 249.004 366.446C244.34 371.876 237.421 375.009 230.131 375L230.131 375ZM237.073 357.067C234.489 357.996 232.155 359.49 230.255 361.426C233.064 361.385 235.747 360.289 237.731 358.365C237.839 358.299 237.764 357.929 237.073 357.067L237.073 357.067Z"/>
</mask>
<path d="M230.131 375C228.603 375.006 227.078 374.839 225.588 374.501C222.463 374.128 219.611 372.583 217.643 370.202C215.675 367.817 214.749 364.781 215.059 361.745C216.085 352.658 228.358 343.178 239.38 343.001C241.15 342.975 242.867 343.595 244.187 344.735C254.808 353.968 252.667 361.641 249.004 366.446C244.34 371.876 237.421 375.009 230.131 375L230.131 375ZM237.073 357.067C234.489 357.996 232.155 359.49 230.255 361.426C233.064 361.385 235.747 360.289 237.731 358.365C237.839 358.299 237.764 357.929 237.073 357.067L237.073 357.067Z" fill="black" stroke="white" stroke-width="7" mask="url(#path-27-inside-27_14_775)"/>
<mask id="path-28-inside-28_14_775" fill="white">
<path d="M63.0073 390.996C59.568 390.989 56.6461 388.516 56.1059 385.154C53.4898 368.848 50.5744 352.261 47.7594 336.214L44.574 318.03C30.3092 235.847 13.8713 140.464 0.110461 56.1533V56.1565C-0.221431 54.3272 0.201574 52.44 1.28513 50.923C2.37191 49.4061 4.02487 48.3852 5.87949 48.0889C7.7342 47.7926 9.63115 48.2435 11.1442 49.3449C12.6572 50.4463 13.6593 52.105 13.9229 53.9439C27.6604 138.213 44.0892 233.555 58.3406 315.705L61.5163 333.86C64.3439 349.947 67.269 366.582 69.9111 382.987L69.9143 382.984C70.513 386.762 67.91 390.308 64.0932 390.903C63.7321 390.965 63.3709 390.997 63.0064 391L63.0073 390.996Z"/>
</mask>
<path d="M63.0073 390.996C59.568 390.989 56.6461 388.516 56.1059 385.154C53.4898 368.848 50.5744 352.261 47.7594 336.214L44.574 318.03C30.3092 235.847 13.8713 140.464 0.110461 56.1533V56.1565C-0.221431 54.3272 0.201574 52.44 1.28513 50.923C2.37191 49.4061 4.02487 48.3852 5.87949 48.0889C7.7342 47.7926 9.63115 48.2435 11.1442 49.3449C12.6572 50.4463 13.6593 52.105 13.9229 53.9439C27.6604 138.213 44.0892 233.555 58.3406 315.705L61.5163 333.86C64.3439 349.947 67.269 366.582 69.9111 382.987L69.9143 382.984C70.513 386.762 67.91 390.308 64.0932 390.903C63.7321 390.965 63.3709 390.997 63.0064 391L63.0073 390.996Z" fill="black" stroke="white" stroke-width="7" mask="url(#path-28-inside-28_14_775)"/>
<mask id="path-29-inside-29_14_775" fill="white">
<path d="M62.9424 391C59.4518 390.994 56.5076 388.469 56.0583 385.1C55.6091 381.729 57.7972 378.555 61.1713 377.686C90.0718 370.291 119.437 364.741 149.081 361.067C152.869 360.547 156.378 363.11 156.928 366.8C157.474 370.489 154.859 373.918 151.072 374.469C121.952 378.042 93.1035 383.488 64.7177 390.773C64.136 390.924 63.538 391 62.9402 391L62.9424 391Z"/>
</mask>
<path d="M62.9424 391C59.4518 390.994 56.5076 388.469 56.0583 385.1C55.6091 381.729 57.7972 378.555 61.1713 377.686C90.0718 370.291 119.437 364.741 149.081 361.067C152.869 360.547 156.378 363.11 156.928 366.8C157.474 370.489 154.859 373.918 151.072 374.469C121.952 378.042 93.1035 383.488 64.7177 390.773C64.136 390.924 63.538 391 62.9402 391L62.9424 391Z" fill="black" stroke="white" stroke-width="7" mask="url(#path-29-inside-29_14_775)"/>
<mask id="path-30-inside-30_14_775" fill="white">
<path d="M270.855 114C267.376 113.993 264.408 111.552 263.835 108.227C262.637 101.313 262.156 98.2231 259.808 83.0695C257.805 70.161 254.439 48.4321 248.085 7.96109L248.082 7.95787C247.491 4.18252 250.168 0.654728 254.064 0.079111C257.958 -0.493303 261.596 2.10184 262.189 5.88048C268.54 46.368 271.913 68.1199 273.913 81.0276C276.238 96.0421 276.712 99.0906 277.902 105.953C278.214 107.76 277.773 109.616 276.672 111.111C275.574 112.604 273.91 113.613 272.042 113.916C271.651 113.977 271.253 114.006 270.855 113.999L270.855 114Z"/>
</mask>
<path d="M270.855 114C267.376 113.993 264.408 111.552 263.835 108.227C262.637 101.313 262.156 98.2231 259.808 83.0695C257.805 70.161 254.439 48.4321 248.085 7.96109L248.082 7.95787C247.491 4.18252 250.168 0.654728 254.064 0.079111C257.958 -0.493303 261.596 2.10184 262.189 5.88048C268.54 46.368 271.913 68.1199 273.913 81.0276C276.238 96.0421 276.712 99.0906 277.902 105.953C278.214 107.76 277.773 109.616 276.672 111.111C275.574 112.604 273.91 113.613 272.042 113.916C271.651 113.977 271.253 114.006 270.855 113.999L270.855 114Z" fill="black" stroke="white" stroke-width="7" mask="url(#path-30-inside-30_14_775)"/>
<mask id="path-31-inside-31_14_775" fill="white">
<path d="M6.92904 61.9992C3.52373 62.0024 0.620553 59.5238 0.0862085 56.1525C-0.448087 52.7843 1.54744 49.5258 4.78861 48.475C18.6321 43.9658 32.9132 40.4397 46.7246 37.0297C51.5332 35.8436 56.3354 34.6543 61.1251 33.4295C84.3479 27.4796 105.883 24.0082 126.724 20.6533C139.898 18.5325 152.331 16.5309 164.871 13.9749V13.9781C194.453 7.7478 224.342 3.09395 254.42 0.0319203C258.225 -0.332297 261.604 2.46215 261.968 6.27512C262.332 10.0849 259.541 13.4692 255.734 13.8334C226.145 16.8502 196.736 21.4303 167.626 27.5576C154.816 30.1716 142.247 32.1796 128.925 34.3424C108.39 37.6461 87.1665 41.0658 64.556 46.8611C59.728 48.0988 54.8644 49.2978 50.0335 50.4935C36.4668 53.8424 22.4371 57.304 9.0665 61.6616L9.07294 61.6583C8.38094 61.884 7.65669 62 6.92929 62L6.92904 61.9992Z"/>
</mask>
<path d="M6.92904 61.9992C3.52373 62.0024 0.620553 59.5238 0.0862085 56.1525C-0.448087 52.7843 1.54744 49.5258 4.78861 48.475C18.6321 43.9658 32.9132 40.4397 46.7246 37.0297C51.5332 35.8436 56.3354 34.6543 61.1251 33.4295C84.3479 27.4796 105.883 24.0082 126.724 20.6533C139.898 18.5325 152.331 16.5309 164.871 13.9749V13.9781C194.453 7.7478 224.342 3.09395 254.42 0.0319203C258.225 -0.332297 261.604 2.46215 261.968 6.27512C262.332 10.0849 259.541 13.4692 255.734 13.8334C226.145 16.8502 196.736 21.4303 167.626 27.5576C154.816 30.1716 142.247 32.1796 128.925 34.3424C108.39 37.6461 87.1665 41.0658 64.556 46.8611C59.728 48.0988 54.8644 49.2978 50.0335 50.4935C36.4668 53.8424 22.4371 57.304 9.0665 61.6616L9.07294 61.6583C8.38094 61.884 7.65669 62 6.92929 62L6.92904 61.9992Z" fill="black" stroke="white" stroke-width="7" mask="url(#path-31-inside-31_14_775)"/>
<mask id="path-32-inside-32_14_775" fill="white">
<path d="M70.0406 340.995C66.7233 340.989 63.8793 338.615 63.2545 335.342C61.7182 327.292 60.6103 320.739 59.5603 314.35C58.2301 306.459 56.974 298.957 54.9836 289.168C50.6066 267.667 47.1797 246.035 43.8692 225.108C41.8594 212.457 39.8465 199.767 37.6209 186.987C31.0088 149.07 23.5202 106.102 20.0259 67.5965H20.0291C19.6813 63.7659 22.4898 60.3758 26.2999 60.0293C30.1101 59.6796 33.4822 62.5031 33.83 66.3337C37.2666 104.264 44.7037 146.934 51.2701 184.588C53.5084 197.444 55.5376 210.198 57.5505 222.926C60.8421 243.695 64.2497 265.169 68.5594 286.378C70.6014 296.41 71.8735 303.996 73.223 312.029C74.2793 318.324 75.3648 324.788 76.8785 332.724H76.8753C77.5935 336.496 75.1361 340.145 71.3807 340.87C70.9394 340.955 70.4918 341 70.0409 341L70.0406 340.995Z"/>
</mask>
<path d="M70.0406 340.995C66.7233 340.989 63.8793 338.615 63.2545 335.342C61.7182 327.292 60.6103 320.739 59.5603 314.35C58.2301 306.459 56.974 298.957 54.9836 289.168C50.6066 267.667 47.1797 246.035 43.8692 225.108C41.8594 212.457 39.8465 199.767 37.6209 186.987C31.0088 149.07 23.5202 106.102 20.0259 67.5965H20.0291C19.6813 63.7659 22.4898 60.3758 26.2999 60.0293C30.1101 59.6796 33.4822 62.5031 33.83 66.3337C37.2666 104.264 44.7037 146.934 51.2701 184.588C53.5084 197.444 55.5376 210.198 57.5505 222.926C60.8421 243.695 64.2497 265.169 68.5594 286.378C70.6014 296.41 71.8735 303.996 73.223 312.029C74.2793 318.324 75.3648 324.788 76.8785 332.724H76.8753C77.5935 336.496 75.1361 340.145 71.3807 340.87C70.9394 340.955 70.4918 341 70.0409 341L70.0406 340.995Z" fill="black" stroke="white" stroke-width="7" mask="url(#path-32-inside-32_14_775)"/>
<mask id="path-33-inside-33_14_775" fill="white">
<path d="M71.8626 341C68.3964 340.997 65.4759 338.361 65.0515 334.85C64.6302 331.342 66.8357 328.058 70.1966 327.198C86.2539 323.087 133.472 311.966 152.101 309.08C155.851 308.5 159.353 311.129 159.921 314.957C160.492 318.781 157.913 322.354 154.166 322.937C136.26 325.713 88.953 336.85 73.5624 340.791V340.788C73.007 340.931 72.4357 341.003 71.8644 341L71.8626 341Z"/>
</mask>
<path d="M71.8626 341C68.3964 340.997 65.4759 338.361 65.0515 334.85C64.6302 331.342 66.8357 328.058 70.1966 327.198C86.2539 323.087 133.472 311.966 152.101 309.08C155.851 308.5 159.353 311.129 159.921 314.957C160.492 318.781 157.913 322.354 154.166 322.937C136.26 325.713 88.953 336.85 73.5624 340.791V340.788C73.007 340.931 72.4357 341.003 71.8644 341L71.8626 341Z" fill="black" stroke="white" stroke-width="7" mask="url(#path-33-inside-33_14_775)"/>
<mask id="path-34-inside-34_14_775" fill="white">
<path d="M251.812 113.999C248.224 113.993 245.189 111.399 244.712 107.929C242.936 95.023 241.598 86.073 240.466 78.5593C238.046 62.4309 236.58 52.6918 234.033 24.7074L234.037 24.7041C233.843 22.8436 234.424 20.9832 235.646 19.5398C236.867 18.0996 238.63 17.1938 240.543 17.0277C242.452 16.8615 244.352 17.448 245.814 18.6568C247.279 19.8656 248.187 21.5957 248.334 23.4627C250.851 51.0501 252.286 60.6391 254.677 76.5264C255.812 84.0888 257.16 93.091 258.936 106.072V106.069C259.46 109.904 256.703 113.429 252.777 113.944C252.457 113.983 252.136 114.003 251.812 114L251.812 113.999Z"/>
</mask>
<path d="M251.812 113.999C248.224 113.993 245.189 111.399 244.712 107.929C242.936 95.023 241.598 86.073 240.466 78.5593C238.046 62.4309 236.58 52.6918 234.033 24.7074L234.037 24.7041C233.843 22.8436 234.424 20.9832 235.646 19.5398C236.867 18.0996 238.63 17.1938 240.543 17.0277C242.452 16.8615 244.352 17.448 245.814 18.6568C247.279 19.8656 248.187 21.5957 248.334 23.4627C250.851 51.0501 252.286 60.6391 254.677 76.5264C255.812 84.0888 257.16 93.091 258.936 106.072V106.069C259.46 109.904 256.703 113.429 252.777 113.944C252.457 113.983 252.136 114.003 251.812 114L251.812 113.999Z" fill="black" stroke="white" stroke-width="7" mask="url(#path-34-inside-34_14_775)"/>
<mask id="path-35-inside-35_14_775" fill="white">
<path d="M26.9478 73.9989C23.4231 73.9989 20.454 71.3493 20.0469 67.838C19.6398 64.3234 21.9239 61.0648 25.355 60.2518C66.2564 50.5796 103.756 43.2102 140.012 36.078C157.991 32.5473 175.677 29.0652 193.398 25.3983C201.665 23.6815 210.411 22.2207 218.872 20.8116C226.187 19.5904 233.097 18.4373 239.714 17.1352V17.1319C243.478 16.3901 247.132 18.8519 247.868 22.6256C248.608 26.3993 246.156 30.0628 242.392 30.8046C235.585 32.1456 228.251 33.3667 221.156 34.5523C212.821 35.9452 204.227 37.3801 196.227 39.0386C178.471 42.7313 160.721 46.2166 142.7 49.7606C106.573 56.8706 69.1969 64.2108 28.5552 73.825V73.8217C28.0254 73.9448 27.4891 74.0031 26.9463 73.9999L26.9478 73.9989Z"/>
</mask>
<path d="M26.9478 73.9989C23.4231 73.9989 20.454 71.3493 20.0469 67.838C19.6398 64.3234 21.9239 61.0648 25.355 60.2518C66.2564 50.5796 103.756 43.2102 140.012 36.078C157.991 32.5473 175.677 29.0652 193.398 25.3983C201.665 23.6815 210.411 22.2207 218.872 20.8116C226.187 19.5904 233.097 18.4373 239.714 17.1352V17.1319C243.478 16.3901 247.132 18.8519 247.868 22.6256C248.608 26.3993 246.156 30.0628 242.392 30.8046C235.585 32.1456 228.251 33.3667 221.156 34.5523C212.821 35.9452 204.227 37.3801 196.227 39.0386C178.471 42.7313 160.721 46.2166 142.7 49.7606C106.573 56.8706 69.1969 64.2108 28.5552 73.825V73.8217C28.0254 73.9448 27.4891 74.0031 26.9463 73.9999L26.9478 73.9989Z" fill="black" stroke="white" stroke-width="7" mask="url(#path-35-inside-35_14_775)"/>
<mask id="path-36-inside-36_14_775" fill="white">
<path d="M545.467 312.005L557.418 290.636C558.633 288.436 557.886 285.667 555.728 284.378L534.673 271.864L534.36 247.366C534.327 244.822 532.272 242.769 529.73 242.734L505.234 242.421L492.688 221.272C491.399 219.114 488.63 218.367 486.431 219.582L465 231.534L443.632 219.582C441.432 218.367 438.664 219.114 437.375 221.272L424.861 242.328L400.364 242.641C397.821 242.674 395.768 244.729 395.733 247.271L395.42 271.769L374.272 284.316C372.114 285.605 371.367 288.374 372.582 290.573L384.533 312.005L372.582 333.374C371.367 335.574 372.114 338.343 374.272 339.632L395.327 352.146L395.64 376.644C395.673 379.188 397.728 381.241 400.27 381.276L424.766 381.589L437.28 402.645H437.282C438.571 404.803 441.338 405.55 443.539 404.333L465 392.476L486.368 404.429C488.57 405.627 491.326 404.882 492.625 402.738L505.139 381.682L529.635 381.369C532.179 381.336 534.232 379.281 534.267 376.739L534.579 352.242L555.634 339.727V339.725C557.792 338.436 558.54 335.669 557.323 333.468L545.467 312.005ZM527.571 345.513C526.173 346.379 525.321 347.906 525.318 349.549L525.036 372.107L502.543 372.326C500.909 372.364 499.409 373.238 498.569 374.642L486.9 394.008L467.221 382.995V382.996C465.802 382.204 464.074 382.204 462.654 382.996L443.1 394.008L431.494 374.579C430.628 373.181 429.101 372.329 427.457 372.326L404.901 372.044L404.682 349.549C404.679 347.905 403.827 346.379 402.429 345.513L383.001 333.906L394.014 314.226H394.013C394.798 312.805 394.798 311.08 394.013 309.658L383.001 290.104L402.429 278.497C403.827 277.631 404.679 276.104 404.682 274.46L404.964 251.903L427.457 251.683C429.101 251.681 430.628 250.829 431.494 249.43L443.1 230.002L462.779 241.015V241.014C464.2 241.799 465.925 241.799 467.346 241.014L486.9 230.002L498.506 249.43C499.346 250.834 500.846 251.709 502.48 251.746L525.036 252.028L525.318 274.46C525.321 276.104 526.173 277.631 527.571 278.497L546.999 290.104L535.986 309.784H535.987C535.202 311.204 535.202 312.929 535.987 314.351L546.999 333.906L527.571 345.513ZM500.353 283.407C501.24 284.283 501.738 285.478 501.738 286.724C501.738 287.97 501.24 289.164 500.353 290.04C485.316 305.193 471.837 321.817 460.121 339.663C459.359 340.925 458.051 341.757 456.585 341.915H456.116C454.808 341.923 453.558 341.377 452.674 340.413L429.399 315.134C428.009 313.195 428.295 310.522 430.063 308.92C431.833 307.319 434.522 307.301 436.312 308.876L455.616 329.619C467.015 313.198 479.782 297.771 493.784 283.504C495.597 281.664 498.552 281.622 500.417 283.409L500.353 283.407Z"/>
</mask>
<path d="M545.467 312.005L557.418 290.636C558.633 288.436 557.886 285.667 555.728 284.378L534.673 271.864L534.36 247.366C534.327 244.822 532.272 242.769 529.73 242.734L505.234 242.421L492.688 221.272C491.399 219.114 488.63 218.367 486.431 219.582L465 231.534L443.632 219.582C441.432 218.367 438.664 219.114 437.375 221.272L424.861 242.328L400.364 242.641C397.821 242.674 395.768 244.729 395.733 247.271L395.42 271.769L374.272 284.316C372.114 285.605 371.367 288.374 372.582 290.573L384.533 312.005L372.582 333.374C371.367 335.574 372.114 338.343 374.272 339.632L395.327 352.146L395.64 376.644C395.673 379.188 397.728 381.241 400.27 381.276L424.766 381.589L437.28 402.645H437.282C438.571 404.803 441.338 405.55 443.539 404.333L465 392.476L486.368 404.429C488.57 405.627 491.326 404.882 492.625 402.738L505.139 381.682L529.635 381.369C532.179 381.336 534.232 379.281 534.267 376.739L534.579 352.242L555.634 339.727V339.725C557.792 338.436 558.54 335.669 557.323 333.468L545.467 312.005ZM527.571 345.513C526.173 346.379 525.321 347.906 525.318 349.549L525.036 372.107L502.543 372.326C500.909 372.364 499.409 373.238 498.569 374.642L486.9 394.008L467.221 382.995V382.996C465.802 382.204 464.074 382.204 462.654 382.996L443.1 394.008L431.494 374.579C430.628 373.181 429.101 372.329 427.457 372.326L404.901 372.044L404.682 349.549C404.679 347.905 403.827 346.379 402.429 345.513L383.001 333.906L394.014 314.226H394.013C394.798 312.805 394.798 311.08 394.013 309.658L383.001 290.104L402.429 278.497C403.827 277.631 404.679 276.104 404.682 274.46L404.964 251.903L427.457 251.683C429.101 251.681 430.628 250.829 431.494 249.43L443.1 230.002L462.779 241.015V241.014C464.2 241.799 465.925 241.799 467.346 241.014L486.9 230.002L498.506 249.43C499.346 250.834 500.846 251.709 502.48 251.746L525.036 252.028L525.318 274.46C525.321 276.104 526.173 277.631 527.571 278.497L546.999 290.104L535.986 309.784H535.987C535.202 311.204 535.202 312.929 535.987 314.351L546.999 333.906L527.571 345.513ZM500.353 283.407C501.24 284.283 501.738 285.478 501.738 286.724C501.738 287.97 501.24 289.164 500.353 290.04C485.316 305.193 471.837 321.817 460.121 339.663C459.359 340.925 458.051 341.757 456.585 341.915H456.116C454.808 341.923 453.558 341.377 452.674 340.413L429.399 315.134C428.009 313.195 428.295 310.522 430.063 308.92C431.833 307.319 434.522 307.301 436.312 308.876L455.616 329.619C467.015 313.198 479.782 297.771 493.784 283.504C495.597 281.664 498.552 281.622 500.417 283.409L500.353 283.407Z" fill="black" stroke="white" stroke-width="2" mask="url(#path-36-inside-36_14_775)"/>
</svg>
